<?xml version="1.0" encoding="UTF-8" standalone="no"?>
<!-- Created with Inkscape (http://www.inkscape.org/) -->

<svg
   width="16"
   height="16"
   viewBox="0 0 4.2333332 4.2333335"
   version="1.1"
   id="svg11945"
   inkscape:version="1.1.1 (3bf5ae0d25, 2021-09-20, custom)"
   sodipodi:docname="calendar-symbolic.svg"
   xmlns:inkscape="http://www.inkscape.org/namespaces/inkscape"
   xmlns:sodipodi="http://sodipodi.sourceforge.net/DTD/sodipodi-0.dtd"
   xmlns="http://www.w3.org/2000/svg"
   xmlns:svg="http://www.w3.org/2000/svg">
  <path
     id="rect1337"
     style="fill:#363636;stroke-width:2;stroke-linejoin:round;fill-opacity:1"
     d="M 5 1 L 5 2 L 1 2 L 1 3 L 6 3 L 6 2 L 6 1 L 5 1 z M 11 1 L 11 2 L 7 2 L 7 3 L 12 3 L 12 2 L 12 1 L 11 1 z M 13 2 L 13 3 L 15 3 L 15 2 L 13 2 z M 1 4 L 1 13 C 1 14.662 2.338 16 4 16 L 12 16 C 13.662 16 15 14.662 15 13 L 15 4 L 14 4 L 14 13 C 14 14.108 13.108 15 12 15 L 4 15 C 2.8919998 15 2 14.108 2 13 L 2 4 L 1 4 z M 5.2636719 5 C 4.7272348 5 4.2628377 5.1407791 3.8867188 5.421875 C 3.518244 5.7001881 3.2439863 6.0869149 3.0605469 6.5722656 L 3 6.7304688 L 3.9785156 7.0898438 L 4.03125 6.9414062 C 4.1395637 6.6469281 4.2973664 6.4159407 4.5039062 6.2421875 C 4.7023844 6.0752193 4.9472222 5.9921875 5.2636719 5.9921875 C 5.4550709 5.9921875 5.6184215 6.0196528 5.7597656 6.0761719 C 5.907564 6.13401 6.0252563 6.2143817 6.1210938 6.3164062 L 6.1269531 6.3164062 C 6.2277267 6.4203281 6.3067177 6.5455723 6.3613281 6.6933594 C 6.4154812 6.8398841 6.4433594 7.011179 6.4433594 7.203125 C 6.4433594 7.3737669 6.4041068 7.5400158 6.3320312 7.7070312 C 6.2634706 7.8735308 6.1558639 8.0531893 6 8.2402344 L 3.2617188 11.503906 L 3.2402344 11.527344 L 3.2324219 11.542969 C 3.1163326 11.709839 3.0442249 11.892762 3.0234375 12.083984 L 3.0234375 12.091797 C 3.006441 12.283128 3.0406117 12.464373 3.1269531 12.632812 L 3.1269531 12.638672 C 3.2133788 12.802881 3.345088 12.935308 3.5117188 13.029297 C 3.6787765 13.123536 3.8737503 13.173828 4.0761719 13.173828 L 7.6171875 13.173828 L 7.6171875 12.181641 L 4.0761719 12.181641 C 4.0641908 12.181641 4.0575722 12.18132 4.0527344 12.181641 L 4.0527344 12.179688 C 4.0553366 12.173905 4.0625656 12.162005 4.0761719 12.142578 L 6.7441406 8.9550781 L 6.796875 8.9023438 C 7.0274413 8.6264156 7.1989599 8.3541705 7.3085938 8.0761719 C 7.4219531 7.798626 7.4726562 7.5067447 7.4726562 7.203125 C 7.4726562 6.8806519 7.4232044 6.5775665 7.3164062 6.3085938 C 7.2106789 6.0383311 7.0638062 5.8059303 6.8652344 5.6113281 C 6.6700977 5.4161907 6.4315113 5.2636202 6.1582031 5.1582031 L 6.1582031 5.1679688 C 5.8869922 5.0618377 5.5869681 5.0000011 5.2636719 5 z M 8.6230469 5.1582031 L 8.6230469 5.3164062 L 8.6230469 6.1445312 L 11.886719 6.1445312 C 11.901081 6.1445312 11.904147 6.1476617 11.910156 6.1523438 L 11.917969 6.1523438 L 11.923828 6.1582031 C 11.944427 6.1705622 11.960537 6.186325 11.976562 6.203125 C 11.974193 6.1995636 11.970413 6.2000245 11.96875 6.2265625 C 11.966138 6.2682318 11.961363 6.3222749 11.947266 6.3847656 L 9.6542969 12.992188 L 10.630859 13.330078 L 12.923828 6.7304688 L 12.947266 6.7011719 L 12.947266 6.6328125 C 12.974554 6.522061 12.999346 6.4090347 13 6.3085938 L 13 6.3007812 C 13.003249 6.1918779 12.988668 6.0906406 12.96875 6 L 12.96875 5.9921875 C 12.952574 5.9054927 12.932179 5.8272338 12.894531 5.7519531 C 12.860742 5.680195 12.820489 5.6245856 12.78125 5.5722656 L 12.78125 5.5644531 C 12.677939 5.4310517 12.548726 5.332039 12.390625 5.2636719 C 12.236436 5.1908646 12.066935 5.1582031 11.886719 5.1582031 L 8.6230469 5.1582031 z "
     transform="scale(0.26458333)" />
  <sodipodi:namedview
     id="namedview11947"
     pagecolor="#ffffff"
     bordercolor="#666666"
     borderopacity="1.0"
     inkscape:pageshadow="2"
     inkscape:pageopacity="0.0"
     inkscape:pagecheckerboard="0"
     inkscape:document-units="px"
     showgrid="false"
     units="in"
     inkscape:zoom="25.766667"
     inkscape:cx="5.2005174"
     inkscape:cy="7.1604138"
     inkscape:window-width="1920"
     inkscape:window-height="996"
     inkscape:window-x="0"
     inkscape:window-y="0"
     inkscape:window-maximized="1"
     inkscape:current-layer="svg11945"
     showguides="false" />
  <defs
     id="defs11942" />
</svg>
