<?xml version="1.0" encoding="UTF-8" standalone="no"?>
<!-- Created with Inkscape (http://www.inkscape.org/) -->

<svg
   width="16"
   height="16"
   viewBox="0 0 4.2333332 4.2333335"
   version="1.1"
   id="svg11945"
   inkscape:version="1.1.1 (3bf5ae0d25, 2021-09-20, custom)"
   sodipodi:docname="contacts-symbolic.svg"
   xmlns:inkscape="http://www.inkscape.org/namespaces/inkscape"
   xmlns:sodipodi="http://sodipodi.sourceforge.net/DTD/sodipodi-0.dtd"
   xmlns="http://www.w3.org/2000/svg"
   xmlns:svg="http://www.w3.org/2000/svg">
  <sodipodi:namedview
     id="namedview11947"
     pagecolor="#ffffff"
     bordercolor="#666666"
     borderopacity="1.0"
     inkscape:pageshadow="2"
     inkscape:pageopacity="0.0"
     inkscape:pagecheckerboard="0"
     inkscape:document-units="px"
     showgrid="false"
     units="in"
     inkscape:zoom="22.627417"
     inkscape:cx="6.2755727"
     inkscape:cy="15.843611"
     inkscape:window-width="1920"
     inkscape:window-height="996"
     inkscape:window-x="0"
     inkscape:window-y="0"
     inkscape:window-maximized="1"
     inkscape:current-layer="svg11945"
     showguides="true" />
  <defs
     id="defs11942" />
  <path
     id="path3926"
     style="fill:#363636;stroke-width:1.87083;stroke-linejoin:round;fill-opacity:1"
     d="M 7.8964844 2 C 5.7350599 2.0381691 4 3.2817235 4 6 C 4 6.3073134 4.0771523 6.6169789 4.0644531 6.9335938 C 3.9179171 7.4660973 3.796994 7.7424732 4 8.546875 C 4.2162003 9.6343324 4.7904485 10.083287 5.1386719 9.9824219 C 5.3392987 10.55166 5.6953143 11.006567 6.125 11.339844 A 5.9999994 5.9999994 0 0 1 2 13 L 2 14 A 6.9999996 6.9999996 0 0 0 7.046875 11.835938 C 7.3626139 11.943604 7.6876589 12 8 12 C 8.3131141 12 8.6386018 11.942178 8.9550781 11.833984 A 6.9999996 6.9999996 0 0 0 14 14 L 14 13 A 5.9999994 5.9999994 0 0 1 9.875 11.339844 C 10.304686 11.006567 10.660702 10.55166 10.861328 9.9824219 C 11.209551 10.083286 11.783798 9.6343328 12 8.546875 C 12.203002 7.7424732 12.082083 7.4660977 11.935547 6.9335938 C 11.922848 6.6169789 12.005634 6.3072624 12 6 C 11.957877 3.7026153 10.66118 2.0335772 8 2 C 7.9654929 1.9995645 7.930793 1.9993941 7.8964844 2 z M 8.2695312 3 C 10.324763 2.9818328 10.928017 5.2150685 10.707031 6.6894531 C 10.698716 7.0003382 10.666016 7.3828125 10.666016 7.3828125 C 10.777353 7.4134645 10.885948 7.4611766 10.935547 7.6328125 C 10.935547 7.6328125 11.030743 7.8961266 10.990234 8.2851562 C 10.879067 9.0665717 10.462891 9.125 10.462891 9.125 C 10.311725 9.1218142 10.248047 9.1269531 10.248047 9.1269531 C 10.248047 9.1269531 9.852226 10.069326 9.2167969 10.617188 C 9.1832822 10.646064 9.1500447 10.674653 9.1152344 10.701172 C 9.1126723 10.703123 9.1099909 10.705095 9.1074219 10.707031 C 9.0751252 10.73139 9.0411808 10.753408 9.0078125 10.775391 C 8.9717489 10.799149 8.935712 10.821203 8.8984375 10.841797 C 8.861163 10.862391 8.8235993 10.881411 8.7851562 10.898438 C 8.747486 10.915121 8.7086739 10.928532 8.6699219 10.941406 C 8.6691269 10.94167 8.6687642 10.943097 8.6679688 10.943359 C 8.666591 10.943812 8.6654416 10.944865 8.6640625 10.945312 C 8.6328312 10.955494 8.6002664 10.963223 8.5683594 10.970703 C 8.561183 10.972385 8.5540849 10.975023 8.546875 10.976562 C 8.5418144 10.977636 8.5363269 10.977513 8.53125 10.978516 C 8.5033938 10.984047 8.4756083 10.988878 8.4472656 10.992188 C 8.4393513 10.993112 8.4317797 10.995349 8.4238281 10.996094 C 8.4218727 10.996275 8.4199264 10.995923 8.4179688 10.996094 C 8.3781519 10.999597 8.3376001 11.001219 8.296875 11 C 8.2833606 11.000113 8.2711841 10.998081 8.2578125 10.998047 C 8.0837401 10.997598 7.9205405 10.986809 7.7695312 10.962891 C 7.766213 10.962365 7.7630732 10.961474 7.7597656 10.960938 C 7.6900135 10.949641 7.6237313 10.935798 7.5585938 10.919922 C 7.5424038 10.915976 7.5256785 10.912421 7.5097656 10.908203 C 7.4590587 10.894763 7.4112422 10.879392 7.3632812 10.863281 C 7.3598729 10.862131 7.3569104 10.860538 7.3535156 10.859375 C 7.3180136 10.84721 7.2840363 10.835838 7.25 10.822266 C 7.2213018 10.810822 7.1937012 10.797558 7.1660156 10.785156 C 7.1525269 10.779148 7.138253 10.773807 7.125 10.767578 C 7.0977045 10.75468 7.0712382 10.740366 7.0449219 10.726562 C 7.0183997 10.712651 6.9923522 10.698386 6.9667969 10.683594 C 6.9474527 10.672433 6.9270044 10.662044 6.9082031 10.650391 C 6.8739897 10.629127 6.8410756 10.606769 6.8085938 10.583984 C 6.287566 10.218302 5.9853597 9.6586434 5.7636719 9.0957031 L 5.5507812 9.0898438 C 5.3405655 9.0836075 5.0719445 8.7362983 5.0214844 8.2539062 C 4.9668422 7.7298813 4.9931548 7.4964805 5.3457031 7.3515625 C 4.8608532 4.5062113 5.9831326 3.0109155 8.2695312 3 z "
     transform="scale(0.26458333)" />
</svg>
