<?xml version="1.0" encoding="UTF-8" standalone="no"?>
<!-- Created with Inkscape (http://www.inkscape.org/) -->

<svg
   width="16"
   height="16"
   viewBox="0 0 4.2333332 4.2333335"
   version="1.1"
   id="svg11945"
   inkscape:version="1.1.1 (3bf5ae0d25, 2021-09-20, custom)"
   sodipodi:docname="internet-chat-symbolic.svg"
   xmlns:inkscape="http://www.inkscape.org/namespaces/inkscape"
   xmlns:sodipodi="http://sodipodi.sourceforge.net/DTD/sodipodi-0.dtd"
   xmlns="http://www.w3.org/2000/svg"
   xmlns:svg="http://www.w3.org/2000/svg">
  <sodipodi:namedview
     id="namedview11947"
     pagecolor="#ffffff"
     bordercolor="#666666"
     borderopacity="1.0"
     inkscape:pageshadow="2"
     inkscape:pageopacity="0.0"
     inkscape:pagecheckerboard="0"
     inkscape:document-units="px"
     showgrid="false"
     units="in"
     inkscape:zoom="32"
     inkscape:cx="4.3125"
     inkscape:cy="8.390625"
     inkscape:window-width="1920"
     inkscape:window-height="996"
     inkscape:window-x="0"
     inkscape:window-y="0"
     inkscape:window-maximized="1"
     inkscape:current-layer="svg11945"
     showguides="false" />
  <defs
     id="defs11942" />
  <path
     id="path1115"
     style="color:#000000;fill:#363636;stroke-width:3.77953;stroke-linejoin:round;-inkscape-stroke:none;fill-opacity:1"
     d="M 1.9746094 1 C 1.4343862 1.0136867 1 1.4564784 1 2 L 1 14.498047 C 0.99907504 14.888836 1.4260903 15.129196 1.7597656 14.925781 L 6.640625 12 L 13 12 A 2.0000001 2.0000001 0 0 0 15 10 L 15 2 C 15 1.4478511 14.552149 1 14 1 L 2 1 C 1.9913727 1 1.9831843 0.99978275 1.9746094 1 z M 2 2 L 14 2 L 14 10 A 1.0000001 1.0000001 0 0 1 13 11 L 7 11 C 6.4853996 11.004 6.1458447 11.134335 5.75 11.375 L 2 13.613281 L 2 2 z "
     transform="scale(0.26458333)" />
</svg>
