<?xml version="1.0" encoding="UTF-8" standalone="no"?>
<!-- Created with Inkscape (http://www.inkscape.org/) -->

<svg
   width="16"
   height="16"
   viewBox="0 0 4.2333332 4.2333335"
   version="1.1"
   id="svg11945"
   inkscape:version="1.1.1 (3bf5ae0d25, 2021-09-20, custom)"
   sodipodi:docname="internet-mail-symbolic.svg"
   xmlns:inkscape="http://www.inkscape.org/namespaces/inkscape"
   xmlns:sodipodi="http://sodipodi.sourceforge.net/DTD/sodipodi-0.dtd"
   xmlns="http://www.w3.org/2000/svg"
   xmlns:svg="http://www.w3.org/2000/svg">
  <sodipodi:namedview
     id="namedview11947"
     pagecolor="#ffffff"
     bordercolor="#666666"
     borderopacity="1.0"
     inkscape:pageshadow="2"
     inkscape:pageopacity="0.0"
     inkscape:pagecheckerboard="0"
     inkscape:document-units="px"
     showgrid="false"
     units="in"
     inkscape:zoom="13.0625"
     inkscape:cx="-6.2009569"
     inkscape:cy="9.8373206"
     inkscape:window-width="1920"
     inkscape:window-height="996"
     inkscape:window-x="0"
     inkscape:window-y="0"
     inkscape:window-maximized="1"
     inkscape:current-layer="svg11945" />
  <defs
     id="defs11942" />
  <path
     id="rect843"
     style="fill:#363636;stroke-width:2;stroke-linejoin:round"
     d="M 1 2 C 0.44599998 2 0 2.446 0 3 L 0 13 C -1.4802974e-16 13.554 0.44599998 14 1 14 L 15 14 C 15.554 14 16 13.554 16 13 L 16 3 C 16 2.446 15.554 2 15 2 L 1 2 z M 1 3 L 15 3 L 8.6523438 8.4433594 C 8.277974 8.763852 7.7259334 8.763852 7.3515625 8.4433594 L 1 3.0019531 L 1 3 z M 15 4.3085938 L 15 13 L 1 13 L 1 4.3125 L 7.0195312 9.46875 C 7.5820674 9.9528402 8.4140267 9.9528402 8.9765625 9.46875 L 15 4.3085938 z "
     transform="scale(0.26458333)" />
</svg>
