<?xml version="1.0" encoding="UTF-8" standalone="no"?>
<!-- Created with Inkscape (http://www.inkscape.org/) -->

<svg
   width="16"
   height="16"
   viewBox="0 0 4.2333332 4.2333335"
   version="1.1"
   id="svg11945"
   inkscape:version="1.1.1 (3bf5ae0d25, 2021-09-20, custom)"
   sodipodi:docname="internet-web-browser-symbolic.svg"
   xmlns:inkscape="http://www.inkscape.org/namespaces/inkscape"
   xmlns:sodipodi="http://sodipodi.sourceforge.net/DTD/sodipodi-0.dtd"
   xmlns="http://www.w3.org/2000/svg"
   xmlns:svg="http://www.w3.org/2000/svg">
  <sodipodi:namedview
     id="namedview11947"
     pagecolor="#ffffff"
     bordercolor="#666666"
     borderopacity="1.0"
     inkscape:pageshadow="2"
     inkscape:pageopacity="0.0"
     inkscape:pagecheckerboard="0"
     inkscape:document-units="px"
     showgrid="false"
     units="in"
     inkscape:zoom="16"
     inkscape:cx="-0.5"
     inkscape:cy="13.96875"
     inkscape:window-width="1920"
     inkscape:window-height="1000"
     inkscape:window-x="0"
     inkscape:window-y="0"
     inkscape:window-maximized="1"
     inkscape:current-layer="svg11945"
     showguides="false" />
  <defs
     id="defs11942" />
  <path
     id="path923"
     style="fill:#363636;fill-opacity:1;stroke-width:0.264583"
     d="M 1.5737097,0.62490461 A 1.5874998,1.5874998 0 0 0 0.75518854,1.3011731 2.1166666,0.79374996 9.999998 0 0 0.03227349,1.7490689 2.1166666,0.79374996 9.999998 0 0 0.55794552,2.4167292 1.5874998,1.5874998 0 0 0 0.62490462,2.6596236 1.5874998,1.5874998 0 0 0 2.6596236,3.6084286 1.5874998,1.5874998 0 0 0 3.4781448,2.9321601 2.1166666,0.79374996 9.999998 0 0 4.2010597,2.4842644 2.1166666,0.79374996 9.999998 0 0 3.6753878,1.8166041 1.5874998,1.5874998 0 0 0 3.6084286,1.5737097 1.5874998,1.5874998 0 0 0 1.5737097,0.62490461 Z M 1.6896308,0.86482646 A 1.3229165,1.3229165 0 0 1 2.3463931,0.81386022 1.3229165,1.3229165 0 0 1 3.4302189,1.9558818 1.8520832,0.52916669 9.999998 0 1 3.6224341,2.0563992 1.8520832,0.52916669 9.999998 0 1 3.7037739,2.1076335 1.8520832,0.52916669 9.999998 0 1 3.9406927,2.4382483 1.8520832,0.52916669 9.999998 0 1 3.511362,2.6879998 1.8520832,0.52916669 9.999998 0 1 3.4078347,2.7042335 1.8520832,0.52916669 9.999998 0 1 2.0248114,2.6378863 1.8520832,0.52916669 9.999998 0 1 0.80788293,2.2784655 1.3229165,1.3229165 0 0 1 0.94090356,1.5167919 a 1.8520833,0.52916669 10 0 0 -0.044502,0.00465 1.8520832,0.52916669 9.999998 0 1 0.0422061,-0.00491 A 1.3229165,1.3229165 0 0 1 1.6896308,0.86482646 Z M 3.4078347,2.7042335 A 1.8520833,0.52916669 10 0 0 3.511362,2.6879995 1.8520833,0.52916669 10 0 0 3.6051302,2.6676172 1.5874999,1.5874999 0 0 0 3.7039506,2.108119 1.5874999,1.5874999 0 0 0 3.7037739,2.1076335 1.8520833,0.52916669 10 0 0 3.6224345,2.0563996 1.8520833,0.52916669 10 0 0 3.4297333,1.9560586 1.3229165,1.3229165 0 0 1 3.2956968,2.7164521 1.8520833,0.52916669 10 0 0 3.4078347,2.7042335 Z M 0.52167756,1.5978869 A 1.8520832,0.52916669 9.999998 0 1 0.62837913,1.5661998 1.5874999,1.5874999 0 0 0 0.53304791,2.1277296 1.8520833,0.52916669 10 0 0 0.59871097,2.167622 1.8520832,0.52916669 9.999998 0 1 0.29264053,1.7950849 1.8520832,0.52916669 9.999998 0 1 0.52167756,1.5978869 Z m 0.11155768,-0.033454 a 1.8520832,0.52916669 9.999998 0 1 0.0383645,-0.00791 1.8520833,0.52916669 10 0 0 -0.0383645,0.00791 z M 0.74868091,1.54166 a 1.8520832,0.52916669 9.999998 0 1 0.0580987,-0.0096 1.8520833,0.52916669 10 0 0 -0.0580987,0.0096 z M 0.66384379,2.2060576 A 1.8520833,0.52916669 10 0 0 0.76562507,2.2575507 1.8520832,0.52916669 9.999998 0 1 0.66384379,2.2060576 Z M 0.87631488,2.5752668 A 2.1166666,0.79374996 9.999999 0 0 1.9787953,2.8982534 2.1166666,0.79374996 9.999999 0 0 3.1253083,2.9720435 1.3229165,1.3229165 0 0 1 1.8869401,3.419473 1.3229165,1.3229165 0 0 1 0.87631488,2.5752668 Z" />
</svg>
