<?xml version="1.0" encoding="UTF-8" standalone="no"?>
<!-- Created with Inkscape (http://www.inkscape.org/) -->

<svg
   width="16"
   height="16"
   viewBox="0 0 4.2333332 4.2333335"
   version="1.1"
   id="svg11945"
   inkscape:version="1.1.1 (3bf5ae0d25, 2021-09-20, custom)"
   sodipodi:docname="preferences-desktop-wallpaper-symbolic.svg"
   xmlns:inkscape="http://www.inkscape.org/namespaces/inkscape"
   xmlns:sodipodi="http://sodipodi.sourceforge.net/DTD/sodipodi-0.dtd"
   xmlns="http://www.w3.org/2000/svg"
   xmlns:svg="http://www.w3.org/2000/svg">
  <sodipodi:namedview
     id="namedview11947"
     pagecolor="#ffffff"
     bordercolor="#666666"
     borderopacity="1.0"
     inkscape:pageshadow="2"
     inkscape:pageopacity="0.0"
     inkscape:pagecheckerboard="0"
     inkscape:document-units="px"
     showgrid="false"
     units="in"
     inkscape:zoom="45.254834"
     inkscape:cx="4.6624853"
     inkscape:cy="8.1427765"
     inkscape:window-width="1920"
     inkscape:window-height="996"
     inkscape:window-x="0"
     inkscape:window-y="0"
     inkscape:window-maximized="1"
     inkscape:current-layer="svg11945"
     showguides="false" />
  <defs
     id="defs11942" />
  <path
     id="rect20156"
     style="opacity:1;fill:#363636;fill-opacity:1;stroke:none;stroke-width:0.302382;stroke-linecap:round;stroke-miterlimit:4;stroke-dasharray:none"
     d="m 0.79374999,0.52916667 c -0.29315833,0 -0.52916666,0.23600833 -0.52916666,0.52916663 V 3.175 c 0,0.2931583 0.23600833,0.5291666 0.52916666,0.5291666 H 3.4395833 C 3.7327416,3.7041666 3.96875,3.4681583 3.96875,3.175 V 1.0583333 c 0,-0.2931583 -0.2360084,-0.52916663 -0.5291667,-0.52916663 z m 0,0.26458333 H 3.4395833 c 0.1465792,0 0.2645833,0.11800416 0.2645833,0.2645833 V 2.2717295 L 3.3615518,1.928598 C 3.309951,1.8773179 3.2424613,1.8516001 3.175,1.8516001 c -0.067461,0 -0.134951,0.025718 -0.1865519,0.076998 L 1.8515666,2.9595429 1.2459188,2.4582813 c -0.1034258,-0.1038608 -0.2712285,-0.1038608 -0.37465415,0 l -0.34209799,0.342615 v -1.742563 c 0,-0.14657914 0.11800417,-0.2645833 0.26458333,-0.2645833 z M 1.3229167,1.0583333 c -0.2922507,1e-7 -0.52916668,0.236916 -0.52916671,0.5291667 3e-8,0.2922507 0.23691601,0.5291666 0.52916671,0.5291666 0.2922506,0 0.5291666,-0.2369159 0.5291666,-0.5291666 0,-0.2922507 -0.236916,-0.5291666 -0.5291666,-0.5291667 z m 0,0.2645834 c 0.1461253,0 0.2645833,0.118458 0.2645833,0.2645833 0,0.1461253 -0.118458,0.2645833 -0.2645833,0.2645833 -0.1461254,0 -0.2645834,-0.118458 -0.2645834,-0.2645833 0,-0.1461253 0.118458,-0.2645833 0.2645834,-0.2645833 z m 1.8567341,0.7932667 c 0.03323,8.123e-4 0.065663,0.014328 0.089917,0.038241 L 3.7041666,2.5890228 V 3.175 c 0,0.1465791 -0.1180041,0.2645833 -0.2645833,0.2645833 H 0.79374999 C 0.64717083,3.4395833 0.52916666,3.3215791 0.52916666,3.175 V 3.1181894 L 0.96479899,2.6835907 c 0.0484099,-0.047995 0.12536271,-0.05135 0.17776691,-0.00775 l 0.6304525,0.5245158 c 0.045932,0.041326 0.1186835,0.03375 0.1529622,-0.00517 l 1.1616862,-1.044897 c 0.01673,-0.015001 0.037004,-0.025494 0.058911,-0.030489 0.011054,-0.00258 0.021997,-0.00389 0.033073,-0.00362 z"
     sodipodi:nodetypes="ssssssssssssccscccccsssssssssssssccsssscccccccs" />
</svg>
