<?xml version="1.0" encoding="UTF-8" standalone="no"?>
<!-- Created with Inkscape (http://www.inkscape.org/) -->

<svg
   width="16"
   height="16"
   viewBox="0 0 4.2333332 4.2333335"
   version="1.1"
   id="svg11945"
   inkscape:version="1.1.1 (3bf5ae0d25, 2021-09-20, custom)"
   sodipodi:docname="preferences-system-time-symbolic.svg"
   xmlns:inkscape="http://www.inkscape.org/namespaces/inkscape"
   xmlns:sodipodi="http://sodipodi.sourceforge.net/DTD/sodipodi-0.dtd"
   xmlns="http://www.w3.org/2000/svg"
   xmlns:svg="http://www.w3.org/2000/svg">
  <sodipodi:namedview
     id="namedview11947"
     pagecolor="#ffffff"
     bordercolor="#666666"
     borderopacity="1.0"
     inkscape:pageshadow="2"
     inkscape:pageopacity="0.0"
     inkscape:pagecheckerboard="0"
     inkscape:document-units="px"
     showgrid="false"
     units="in"
     inkscape:zoom="52.25"
     inkscape:cx="7.8851675"
     inkscape:cy="8.8133971"
     inkscape:window-width="1920"
     inkscape:window-height="996"
     inkscape:window-x="0"
     inkscape:window-y="0"
     inkscape:window-maximized="1"
     inkscape:current-layer="svg11945" />
  <defs
     id="defs11942" />
  <path
     id="path923"
     style="fill:#363636;fill-opacity:1;stroke-width:3.99995;stroke-linecap:round;stroke-linejoin:round"
     d="M 8,1 C 4.1340072,1 1,4.1340072 1,8 c 0,3.865994 3.1340072,7 7,7 3.865994,0 7,-3.134006 7,-7 C 15,4.1340072 11.865994,1 8,1 Z m 0,1 c 3.313709,0 6,2.6862918 6,6 0,3.313709 -2.686291,6 -6,6 C 4.6862918,14 2,11.313709 2,8 2,4.6862918 4.6862918,2 8,2 Z m -0.5,1 1e-7,5.5 H 12.5 V 7.5000001 h -4 V 3 Z"
     transform="scale(0.26458333)"
     sodipodi:nodetypes="ssssssssssccccccc" />
</svg>
