<?xml version="1.0" encoding="UTF-8" standalone="no"?>
<svg
   width="16.002"
   height="16"
   version="1.1"
   id="svg4"
   sodipodi:docname="preferences-desktop-accessibility-symbolic.svg"
   inkscape:version="1.1.1 (3bf5ae0d25, 2021-09-20, custom)"
   xmlns:inkscape="http://www.inkscape.org/namespaces/inkscape"
   xmlns:sodipodi="http://sodipodi.sourceforge.net/DTD/sodipodi-0.dtd"
   xmlns="http://www.w3.org/2000/svg"
   xmlns:svg="http://www.w3.org/2000/svg">
  <defs
     id="defs8" />
  <sodipodi:namedview
     id="namedview6"
     pagecolor="#ffffff"
     bordercolor="#666666"
     borderopacity="1.0"
     inkscape:pageshadow="2"
     inkscape:pageopacity="0.0"
     inkscape:pagecheckerboard="0"
     showgrid="false"
     inkscape:zoom="22.15625"
     inkscape:cx="4.0620592"
     inkscape:cy="9.4104372"
     inkscape:window-width="1920"
     inkscape:window-height="996"
     inkscape:window-x="0"
     inkscape:window-y="0"
     inkscape:window-maximized="1"
     inkscape:current-layer="svg4" />
  <path
     id="path847"
     style="fill:#363636;stroke-width:2;stroke-linejoin:round;fill-opacity:1"
     d="M 8 0 A 2 2 0 0 0 6 2 A 2 2 0 0 0 8 4 A 2 2 0 0 0 10 2 A 2 2 0 0 0 8 0 z M 8 1 A 1 1 0 0 1 9 2 A 1 1 0 0 1 8 3 A 1 1 0 0 1 7 2 A 1 1 0 0 1 8 1 z M 2.4570312 4 C 1.7584699 4.0183875 1.1497015 4.5241561 1.0234375 5.2402344 C 0.87913592 6.0586096 1.4218591 6.8342139 2.2402344 6.9785156 L 6 7.640625 L 6 8.8007812 L 6.0175781 8.8007812 L 4.6113281 14.054688 C 4.3962481 14.857373 4.8691912 15.675546 5.671875 15.890625 C 6.474558 16.105705 7.2927335 15.632762 7.5078125 14.830078 L 8 12.994141 L 8.4921875 14.832031 C 8.7072665 15.634715 9.5273956 16.107658 10.330078 15.892578 C 11.132762 15.677499 11.605705 14.857371 11.390625 14.054688 L 9.9824219 8.8007812 L 10 8.8007812 L 10 7.640625 L 13.759766 6.9785156 C 14.578143 6.8342147 15.120866 6.0586096 14.976562 5.2402344 C 14.832263 4.4218596 14.056657 3.8791358 13.238281 4.0234375 L 8.3144531 4.890625 L 7.6855469 4.890625 L 2.7617188 4.0234375 C 2.6594217 4.0053998 2.556826 3.9973732 2.4570312 4 z M 2.0957031 4.921875 L 7.0800781 5.8007812 L 8.9199219 5.8007812 L 13.904297 4.921875 L 14.078125 5.90625 L 9.3027344 6.7480469 L 9 6.8007812 L 9 8.8007812 L 9 9 L 9.0351562 9.1308594 L 10.554688 14.796875 L 9.5878906 15.054688 L 8.5175781 11.0625 L 8.2324219 10 L 7.7675781 10 L 7.4824219 11.0625 L 6.4121094 15.054688 L 5.4453125 14.796875 L 6.5253906 10.773438 L 6.9648438 9.1308594 L 6.9648438 9.1289062 L 7 9 L 7 8.8007812 L 7 6.8007812 L 6.6972656 6.7480469 L 1.921875 5.90625 L 2.0957031 4.921875 z " />
</svg>
