<?xml version="1.0" encoding="UTF-8" standalone="no"?>
<!-- Created with Inkscape (http://www.inkscape.org/) -->

<svg
   width="16"
   height="16"
   viewBox="0 0 4.2333332 4.2333335"
   version="1.1"
   id="svg11945"
   inkscape:version="1.1.1 (3bf5ae0d25, 2021-09-20, custom)"
   sodipodi:docname="system-software-install-symbolic.svg"
   xmlns:inkscape="http://www.inkscape.org/namespaces/inkscape"
   xmlns:sodipodi="http://sodipodi.sourceforge.net/DTD/sodipodi-0.dtd"
   xmlns="http://www.w3.org/2000/svg"
   xmlns:svg="http://www.w3.org/2000/svg">
  <sodipodi:namedview
     id="namedview11947"
     pagecolor="#ffffff"
     bordercolor="#666666"
     borderopacity="1.0"
     inkscape:pageshadow="2"
     inkscape:pageopacity="0.0"
     inkscape:pagecheckerboard="0"
     inkscape:document-units="px"
     showgrid="false"
     units="in"
     inkscape:zoom="22.627417"
     inkscape:cx="4.331029"
     inkscape:cy="7.2699416"
     inkscape:window-width="1920"
     inkscape:window-height="996"
     inkscape:window-x="0"
     inkscape:window-y="0"
     inkscape:window-maximized="1"
     inkscape:current-layer="svg11945"
     showguides="false" />
  <defs
     id="defs11942" />
  <path
     id="path923"
     style="fill:#363636;fill-opacity:1;stroke-width:3.99999;stroke-linecap:round;stroke-linejoin:round"
     d="M 4 1 C 2.3431457 0.99999994 0.99999994 2.3431457 1 4 C 0.99999994 5.6568543 2.3431457 7.0000001 4 7 C 5.6568543 7.0000001 7.0000001 5.6568543 7 4 C 7.0000001 2.3431457 5.6568543 0.99999994 4 1 z M 12 1 C 10.343146 0.99999994 8.9999999 2.3431457 9 4 C 8.9999999 5.6568543 10.343146 7.0000001 12 7 C 13.656854 7.0000001 15 5.6568543 15 4 C 15 2.3431457 13.656854 0.99999994 12 1 z M 4.03125 1.9785156 A 2.0000001 2.0000001 0 0 1 6.03125 3.9785156 A 2.0000001 2.0000001 0 0 1 4.03125 5.9785156 A 2.0000001 2.0000001 0 0 1 2.03125 3.9785156 A 2.0000001 2.0000001 0 0 1 4.03125 1.9785156 z M 12 2 A 2.0000001 2.0000001 0 0 1 14 4 A 2.0000001 2.0000001 0 0 1 12 6 A 2.0000001 2.0000001 0 0 1 10 4 A 2.0000001 2.0000001 0 0 1 12 2 z M 4 9 C 2.3431457 8.9999999 0.99999994 10.343146 1 12 C 0.99999994 13.656854 2.3431457 15 4 15 C 5.6568543 15 7.0000001 13.656854 7 12 C 7.0000001 10.343146 5.6568543 8.9999999 4 9 z M 11.5 9 L 11.5 13.5 L 9.8789062 11.878906 L 9.171875 12.585938 L 11.292969 14.707031 A 1.0000001 1.0000001 0 0 0 12.707031 14.707031 L 14.828125 12.585938 L 14.121094 11.878906 L 12.5 13.5 L 12.5 9 L 11.5 9 z M 4 10 A 2.0000001 2.0000001 0 0 1 6 12 A 2.0000001 2.0000001 0 0 1 4 14 A 2.0000001 2.0000001 0 0 1 2 12 A 2.0000001 2.0000001 0 0 1 4 10 z "
     transform="scale(0.26458333)" />
</svg>
