<?xml version="1.0" encoding="UTF-8" standalone="no"?>
<!-- Created with Inkscape (http://www.inkscape.org/) -->

<svg
   width="16"
   height="16"
   viewBox="0 0 4.2333332 4.2333335"
   version="1.1"
   id="svg11945"
   inkscape:version="1.1.1 (3bf5ae0d25, 2021-09-20, custom)"
   sodipodi:docname="weather-symbolic.svg"
   xmlns:inkscape="http://www.inkscape.org/namespaces/inkscape"
   xmlns:sodipodi="http://sodipodi.sourceforge.net/DTD/sodipodi-0.dtd"
   xmlns="http://www.w3.org/2000/svg"
   xmlns:svg="http://www.w3.org/2000/svg">
  <sodipodi:namedview
     id="namedview11947"
     pagecolor="#ffffff"
     bordercolor="#666666"
     borderopacity="1.0"
     inkscape:pageshadow="2"
     inkscape:pageopacity="0.0"
     inkscape:pagecheckerboard="0"
     inkscape:document-units="px"
     showgrid="false"
     units="in"
     inkscape:zoom="29.73077"
     inkscape:cx="6.3234152"
     inkscape:cy="8.728331"
     inkscape:window-width="1920"
     inkscape:window-height="996"
     inkscape:window-x="0"
     inkscape:window-y="0"
     inkscape:window-maximized="1"
     inkscape:current-layer="svg11945" />
  <defs
     id="defs11942" />
  <path
     id="path924"
     style="fill:#363636;stroke-width:2.33333;stroke-linejoin:round;fill-opacity:1"
     d="M 6 3 L 6 5 L 7 5 L 7 3 L 6 3 z M 11.5 4 C 9.918137 4.0007559 8.4528402 4.8320298 7.640625 6.1894531 C 7.2735493 6.0635019 6.8880823 5.9994773 6.5 6 C 4.5670033 6 3 7.5670033 3 9.5 C 3 11.432997 4.5670033 13 6.5 13 L 11.5 13 C 13.985281 13 16 10.985281 16 8.5 C 16 6.0147184 13.985281 4 11.5 4 z M 2.2578125 4.5507812 L 1.5507812 5.2578125 L 2.9648438 6.671875 L 3.671875 5.9648438 L 2.2578125 4.5507812 z M 11.5 5 C 13.432997 5 15 6.5670033 15 8.5 C 15 10.432997 13.432997 12 11.5 12 L 6.5 12 C 5.1192879 12 4 10.880712 4 9.5 C 4 8.1192883 5.1192879 7 6.5 7 C 7.0942203 7.0002302 7.6689288 7.2121112 8.1210938 7.5976562 C 8.5295824 6.0667749 9.9155567 5.0012571 11.5 5 z M 0 9 L 0 10 L 2 10 L 2 9 L 0 9 z M 2.9648438 12.328125 L 1.5507812 13.742188 L 2.2578125 14.449219 L 3.671875 13.035156 L 2.9648438 12.328125 z M 6 14 L 6 16 L 7 16 L 7 14 L 6 14 z "
     transform="scale(0.26458333)" />
</svg>
