<?xml version="1.0" encoding="UTF-8" standalone="no"?>
<svg
   viewbox="0 0 200 200"
   version="1.1"
   id="svg4"
   sodipodi:docname="folder-videos.svg"
   width="22"
   height="22"
   inkscape:version="1.1.1 (3bf5ae0d25, 2021-09-20, custom)"
   xmlns:inkscape="http://www.inkscape.org/namespaces/inkscape"
   xmlns:sodipodi="http://sodipodi.sourceforge.net/DTD/sodipodi-0.dtd"
   xmlns="http://www.w3.org/2000/svg"
   xmlns:svg="http://www.w3.org/2000/svg">
  <defs
     id="defs8" />
  <sodipodi:namedview
     id="namedview6"
     pagecolor="#ffffff"
     bordercolor="#666666"
     borderopacity="1.0"
     inkscape:pageshadow="2"
     inkscape:pageopacity="0.0"
     inkscape:pagecheckerboard="0"
     showgrid="false"
     inkscape:zoom="32.375"
     inkscape:cx="11.984556"
     inkscape:cy="12"
     inkscape:window-width="1920"
     inkscape:window-height="1000"
     inkscape:window-x="0"
     inkscape:window-y="0"
     inkscape:window-maximized="1"
     inkscape:current-layer="svg4"
     showguides="false" />
  <path
     d="M 1,11 C 1,3.8 3.8,1 11,1 18.2,1 21,3.8 21,11 21,18.2 18.2,21 11,21 3.8,21 1,18.2 1,11"
     id="path2"
     style="fill:#f8f8f8;fill-opacity:1;stroke-width:0.1" />
  <path
     id="rect844"
     style="fill:#febd0c;fill-opacity:1;stroke-width:2;stroke-linecap:round;stroke-linejoin:round"
     d="M 5,4 C 4.446,4 4,4.446 4,5 v 12 c 0,0.554 0.446,1 1,1 h 12 c 0.554,0 1,-0.446 1,-1 V 5 C 18,4.446 17.554,4 17,4 Z M 5,5 H 17 V 17 H 5 Z M 6.5,6 A 0.5,0.5 0 0 0 6,6.5 0.5,0.5 0 0 0 6.5,7 0.5,0.5 0 0 0 7,6.5 0.5,0.5 0 0 0 6.5,6 Z m 9,0 A 0.5,0.5 0 0 0 15,6.5 0.5,0.5 0 0 0 15.5,7 0.5,0.5 0 0 0 16,6.5 0.5,0.5 0 0 0 15.5,6 Z M 9.013672,8 A 0.50005,0.50005 0 0 0 8.7578125,8.0625 0.50005,0.50005 0 0 0 8.5,8.5 v 5 a 0.50005,0.50005 0 0 0 0.765625,0.423828 l 4,-2.5 a 0.50005,0.50005 0 0 0 0,-0.847656 l -4,-2.5000001 A 0.50005,0.50005 0 0 0 9.013672,8 Z M 6.5,9 A 0.5,0.5 0 0 0 6,9.5 0.5,0.5 0 0 0 6.5,10 0.5,0.5 0 0 0 7,9.5 0.5,0.5 0 0 0 6.5,9 Z m 9,0 A 0.5,0.5 0 0 0 15,9.5 0.5,0.5 0 0 0 15.5,10 0.5,0.5 0 0 0 16,9.5 0.5,0.5 0 0 0 15.5,9 Z M 9.5,9.402344 12.056641,11 9.5,12.597656 Z M 6.5,12 A 0.5,0.5 0 0 0 6,12.5 0.5,0.5 0 0 0 6.5,13 0.5,0.5 0 0 0 7,12.5 0.5,0.5 0 0 0 6.5,12 Z m 9,0 A 0.5,0.5 0 0 0 15,12.5 0.5,0.5 0 0 0 15.5,13 0.5,0.5 0 0 0 16,12.5 0.5,0.5 0 0 0 15.5,12 Z m -9,3 A 0.5,0.5 0 0 0 6,15.5 0.5,0.5 0 0 0 6.5,16 0.5,0.5 0 0 0 7,15.5 0.5,0.5 0 0 0 6.5,15 Z m 9,0 A 0.5,0.5 0 0 0 15,15.5 0.5,0.5 0 0 0 15.5,16 0.5,0.5 0 0 0 16,15.5 0.5,0.5 0 0 0 15.5,15 Z" />
</svg>
