<?xml version="1.0" encoding="UTF-8" standalone="no"?>
<svg
   viewbox="0 0 200 200"
   version="1.1"
   id="svg4"
   sodipodi:docname="folder-music.svg"
   width="22"
   height="22"
   inkscape:version="1.1.1 (3bf5ae0d25, 2021-09-20, custom)"
   xmlns:inkscape="http://www.inkscape.org/namespaces/inkscape"
   xmlns:sodipodi="http://sodipodi.sourceforge.net/DTD/sodipodi-0.dtd"
   xmlns="http://www.w3.org/2000/svg"
   xmlns:svg="http://www.w3.org/2000/svg">
  <defs
     id="defs8" />
  <sodipodi:namedview
     id="namedview6"
     pagecolor="#ffffff"
     bordercolor="#666666"
     borderopacity="1.0"
     inkscape:pageshadow="2"
     inkscape:pageopacity="0.0"
     inkscape:pagecheckerboard="0"
     showgrid="false"
     inkscape:zoom="17.081048"
     inkscape:cx="22.773778"
     inkscape:cy="14.372654"
     inkscape:window-width="1920"
     inkscape:window-height="1000"
     inkscape:window-x="0"
     inkscape:window-y="0"
     inkscape:window-maximized="1"
     inkscape:current-layer="svg4"
     showguides="false" />
  <path
     d="M 1,11 C 1,3.8 3.8,1 11,1 18.2,1 21,3.8 21,11 21,18.2 18.2,21 11,21 3.8,21 1,18.2 1,11"
     id="path2"
     style="fill:#f8f8f8;fill-opacity:1;stroke-width:0.1" />
  <path
     id="path847"
     style="fill:#febd0c;fill-opacity:1;stroke-width:1.00003;stroke-linecap:round;stroke-linejoin:round"
     d="M 11.5,3 C 11.22385,3 11,3.2238503 11,3.5 v 8.857422 A 4,4 0 0 0 8,11 4,4 0 0 0 4,15 4,4 0 0 0 8,19 4,4 0 0 0 12,15 V 4 c 2.860581,0.018435 4.999063,2.2285786 5,5.5 0,0.276149 0.22385,0.5 0.5,0.5 C 17.77615,10 18,9.776149 18,9.5 18.0047,5.3655136 14.846257,3 12,3 Z M 8,12 a 3,3 0 0 1 3,3 3,3 0 0 1 -3,3 3,3 0 0 1 -3,-3 3,3 0 0 1 3,-3 z" />
</svg>
