<?xml version="1.0" encoding="UTF-8" standalone="no"?>
<svg
   viewbox="0 0 200 200"
   version="1.1"
   id="svg4"
   sodipodi:docname="folder-downloads.svg"
   width="22"
   height="22"
   inkscape:version="1.1.1 (3bf5ae0d25, 2021-09-20, custom)"
   xmlns:inkscape="http://www.inkscape.org/namespaces/inkscape"
   xmlns:sodipodi="http://sodipodi.sourceforge.net/DTD/sodipodi-0.dtd"
   xmlns="http://www.w3.org/2000/svg"
   xmlns:svg="http://www.w3.org/2000/svg">
  <defs
     id="defs8" />
  <sodipodi:namedview
     id="namedview6"
     pagecolor="#ffffff"
     bordercolor="#666666"
     borderopacity="1.0"
     inkscape:pageshadow="2"
     inkscape:pageopacity="0.0"
     inkscape:pagecheckerboard="0"
     showgrid="false"
     inkscape:zoom="22.892582"
     inkscape:cx="8.2996317"
     inkscape:cy="10.592951"
     inkscape:window-width="1920"
     inkscape:window-height="1000"
     inkscape:window-x="0"
     inkscape:window-y="0"
     inkscape:window-maximized="1"
     inkscape:current-layer="svg4"
     showguides="false" />
  <path
     d="M 1,11 C 1,3.8 3.8,1 11,1 18.2,1 21,3.8 21,11 21,18.2 18.2,21 11,21 3.8,21 1,18.2 1,11"
     id="path2"
     style="fill:#f8f8f8;fill-opacity:1;stroke-width:0.1" />
  <path
     id="path8764"
     style="fill:#febd0c;fill-opacity:1;stroke-width:5.00001;stroke-linecap:round;stroke-linejoin:round"
     d="m 10.500001,4.000001 c -0.277,0 -0.5,0.223 -0.5,0.5 v 9.765624 l -3.6562508,-3.65625 c -0.195868,-0.195869 -0.511161,-0.195869 -0.707031,0 -0.19587,0.195869 -0.19587,0.511161 0,0.707032 l 4.3632818,4.349609 c 0.238083,0.252429 0.325214,0.336035 0.5,0.333984 0.181439,0.0012 0.334631,-0.151486 0.5,-0.335938 l 4.363281,-4.347655 c 0.19587,-0.19587 0.19587,-0.511163 0,-0.707032 -0.19587,-0.195869 -0.511163,-0.195869 -0.707031,0 l -3.65625,3.65625 V 4.500001 c 0,-0.277 -0.223,-0.5 -0.5,-0.5 z M 4.5000002,17 C 4.2230002,17 4,17.222999 4,17.5 4,17.777001 4.2230002,18 4.5000002,18 H 16.500001 c 0.277,0 0.5,-0.222998 0.5,-0.5 0,-0.277 -0.222998,-0.5 -0.5,-0.5 z" />
</svg>
