<?xml version="1.0" encoding="UTF-8" standalone="no"?>
<!-- Created with Inkscape (http://www.inkscape.org/) -->

<svg
   width="16"
   height="16"
   viewBox="0 0 4.2333332 4.2333335"
   version="1.1"
   id="svg11945"
   inkscape:version="1.1.1 (3bf5ae0d25, 2021-09-20, custom)"
   sodipodi:docname="folder-temp-symbolic.svg"
   xmlns:inkscape="http://www.inkscape.org/namespaces/inkscape"
   xmlns:sodipodi="http://sodipodi.sourceforge.net/DTD/sodipodi-0.dtd"
   xmlns="http://www.w3.org/2000/svg"
   xmlns:svg="http://www.w3.org/2000/svg">
  <sodipodi:namedview
     id="namedview11947"
     pagecolor="#ffffff"
     bordercolor="#666666"
     borderopacity="1.0"
     inkscape:pageshadow="2"
     inkscape:pageopacity="0.0"
     inkscape:pagecheckerboard="0"
     inkscape:document-units="px"
     showgrid="false"
     units="in"
     inkscape:zoom="52.25"
     inkscape:cx="6.9473684"
     inkscape:cy="8.4114833"
     inkscape:window-width="1920"
     inkscape:window-height="1000"
     inkscape:window-x="0"
     inkscape:window-y="0"
     inkscape:window-maximized="1"
     inkscape:current-layer="svg11945" />
  <defs
     id="defs11942" />
  <path
     id="path923"
     style="fill:#dedede;fill-opacity:1;stroke-width:3.99995;stroke-linecap:round;stroke-linejoin:round"
     d="M 8 1 C 4.1340073 1 1 4.1340073 1 8 C 1 11.865994 4.1340073 15 8 15 C 11.865994 15 15 11.865994 15 8 C 15 4.1340073 11.865994 1 8 1 z M 8 2 C 11.313709 2 14 4.6862919 14 8 C 14 11.313709 11.313709 14 8 14 C 4.6862919 14 2 11.313709 2 8 C 2 4.6862919 4.6862919 2 8 2 z M 7.5 3 L 7.5 8.5 L 12.5 8.5 L 12.5 7.5 L 8.5 7.5 L 8.5 3 L 7.5 3 z "
     transform="scale(0.26458333)" />
</svg>
