<?xml version="1.0" encoding="UTF-8" standalone="no"?>
<svg
   viewbox="0 0 200 200"
   version="1.1"
   id="svg4"
   sodipodi:docname="folder-publicshare-symbolic.svg"
   width="16"
   height="16"
   inkscape:version="1.1.1 (3bf5ae0d25, 2021-09-20, custom)"
   xmlns:inkscape="http://www.inkscape.org/namespaces/inkscape"
   xmlns:sodipodi="http://sodipodi.sourceforge.net/DTD/sodipodi-0.dtd"
   xmlns="http://www.w3.org/2000/svg"
   xmlns:svg="http://www.w3.org/2000/svg">
  <defs
     id="defs8" />
  <sodipodi:namedview
     id="namedview6"
     pagecolor="#ffffff"
     bordercolor="#666666"
     borderopacity="1.0"
     inkscape:pageshadow="2"
     inkscape:pageopacity="0.0"
     inkscape:pagecheckerboard="0"
     showgrid="false"
     inkscape:zoom="39.042396"
     inkscape:cx="7.4790492"
     inkscape:cy="10.949635"
     inkscape:window-width="1920"
     inkscape:window-height="996"
     inkscape:window-x="0"
     inkscape:window-y="0"
     inkscape:window-maximized="1"
     inkscape:current-layer="svg4"
     showguides="true" />
  <path
     id="path843"
     style="fill:#dedede;stroke-width:2.33333;stroke-linejoin:round"
     d="M 8 1 A 7 7 0 0 0 2.9179688 3.2246094 A 2 2 0 0 0 2 3 A 2 2 0 0 0 0 5 A 2 2 0 0 0 2 7 A 2 2 0 0 0 4 5 A 2 2 0 0 0 3.6679688 3.8984375 A 6 6 0 0 1 8 2 A 6 6 0 0 1 13.654297 6 L 14.707031 6 A 7 7 0 0 0 8 1 z M 2 4 A 1 1 0 0 1 3 5 A 1 1 0 0 1 2 6 A 1 1 0 0 1 1 5 A 1 1 0 0 1 2 4 z M 14 9 A 2 2 0 0 0 12 11 A 2 2 0 0 0 12.332031 12.101562 A 6 6 0 0 1 8 14 A 6 6 0 0 1 2.3535156 10 L 1.2929688 10 A 7 7 0 0 0 8 15 A 7 7 0 0 0 13.083984 12.771484 A 2 2 0 0 0 14 13 A 2 2 0 0 0 16 11 A 2 2 0 0 0 14 9 z M 14 10 A 1 1 0 0 1 15 11 A 1 1 0 0 1 14 12 A 1 1 0 0 1 13 11 A 1 1 0 0 1 14 10 z " />
</svg>
