<?xml version="1.0" encoding="UTF-8" standalone="no"?>
<svg
   viewbox="0 0 200 200"
   version="1.1"
   id="svg4"
   sodipodi:docname="folder-template.svg"
   width="16"
   height="16"
   inkscape:version="1.1.1 (3bf5ae0d25, 2021-09-20, custom)"
   xmlns:inkscape="http://www.inkscape.org/namespaces/inkscape"
   xmlns:sodipodi="http://sodipodi.sourceforge.net/DTD/sodipodi-0.dtd"
   xmlns="http://www.w3.org/2000/svg"
   xmlns:svg="http://www.w3.org/2000/svg">
  <defs
     id="defs8" />
  <sodipodi:namedview
     id="namedview6"
     pagecolor="#ffffff"
     bordercolor="#666666"
     borderopacity="1.0"
     inkscape:pageshadow="2"
     inkscape:pageopacity="0.0"
     inkscape:pagecheckerboard="0"
     showgrid="false"
     inkscape:zoom="19.425"
     inkscape:cx="1.7503218"
     inkscape:cy="17.220077"
     inkscape:window-width="1920"
     inkscape:window-height="1000"
     inkscape:window-x="0"
     inkscape:window-y="0"
     inkscape:window-maximized="1"
     inkscape:current-layer="svg4"
     showguides="false" />
  <path
     id="path1401"
     style="color:#000000;fill:#363636;fill-opacity:1;stroke:none;stroke-width:1.00002;stroke-linecap:round;stroke-linejoin:round;-inkscape-stroke:none"
     d="m 14.462889,2.0014493 c -0.09001,0.00677 -0.177817,0.03713 -0.253907,0.091801 L 1.2089844,13.093711 c -0.00159,0.0097 -0.0029,0.0195 -0.00391,0.0293 C 1.0835346,13.211449 1.0082226,13.349884 1,13.499978 c 0.011332,0.08902 0.046413,0.173356 0.1015625,0.244151 -0.00334,0.01549 -0.00595,0.03113 -0.00781,0.04687 0.012021,0.0084 0.024402,0.01617 0.037109,0.02344 0.045161,0.04105 0.097455,0.07348 0.1542968,0.0957 0.053286,0.03579 0.1129664,0.06099 0.1757813,0.07422 0.012795,0.0058 0.02583,0.01096 0.039063,0.01563 H 14.500001 c 0.276131,-2.8e-5 0.499972,-0.223878 0.5,-0.500021 V 2.499517 c 2.07e-4,-0.1876207 -0.10462,-0.3595723 -0.271487,-0.4453311 -0.08341,-0.042677 -0.175617,-0.059504 -0.265625,-0.052737 z M 13.999998,3.4702608 V 12.999957 H 3.0605469 Z M 11.999999,6.4586669 6.0996094,11.999915 h 5.9003896 z m -1,2.082119 V 10.999873 H 8.5 Z"
     sodipodi:nodetypes="sccccccccccccccscccccccccccc" />
</svg>
