<?xml version="1.0" encoding="UTF-8" standalone="no"?>
<svg
   viewbox="0 0 200 200"
   version="1.1"
   id="svg4"
   sodipodi:docname="audio-input-microphone.svg"
   width="64"
   height="64"
   inkscape:version="1.1.1 (3bf5ae0d25, 2021-09-20, custom)"
   xmlns:inkscape="http://www.inkscape.org/namespaces/inkscape"
   xmlns:sodipodi="http://sodipodi.sourceforge.net/DTD/sodipodi-0.dtd"
   xmlns="http://www.w3.org/2000/svg"
   xmlns:svg="http://www.w3.org/2000/svg">
  <defs
     id="defs8" />
  <sodipodi:namedview
     id="namedview6"
     pagecolor="#ffffff"
     bordercolor="#666666"
     borderopacity="1.0"
     inkscape:pageshadow="2"
     inkscape:pageopacity="0.0"
     inkscape:pagecheckerboard="0"
     showgrid="false"
     inkscape:zoom="8"
     inkscape:cx="19.5"
     inkscape:cy="26.3125"
     inkscape:window-width="1920"
     inkscape:window-height="1000"
     inkscape:window-x="0"
     inkscape:window-y="0"
     inkscape:window-maximized="1"
     inkscape:current-layer="svg4"
     showguides="true" />
  <path
     d="M 2,32 C 2,10.4 10.4,2 32,2 53.6,2 62,10.4 62,32 62,53.6 53.6,62 32,62 10.4,62 2,53.6 2,32"
     id="path2"
     style="stroke-width:0.3;fill:#60baff;fill-opacity:1;stroke:none" />
  <path
     id="rect845"
     style="fill:#ffffff;stroke-width:3.2;stroke-linecap:round;stroke-linejoin:round"
     d="M 30 12 C 26.122 12 23 15.122 23 19 L 23 33 C 23 36.878 26.122 40 30 40 L 34 40 C 37.878 40 41 36.878 41 33 L 41 19 C 41 15.122 37.878 12 34 12 L 30 12 z M 30 14 L 34 14 C 36.77 14 39 16.23 39 19 L 39 33 C 39 35.77 36.77 38 34 38 L 30 38 C 27.23 38 25 35.77 25 33 L 25 19 C 25 16.23 27.23 14 30 14 z M 16 33 C 16 40.731987 22.268013 47 30 47 L 34 47 C 41.731987 47 48 40.731987 48 33 L 46 33 C 46 39.627417 40.627417 45 34 45 L 30 45 C 23.372583 45 18 39.627417 18 33 L 16 33 z M 27 50 L 27 52 L 37 52 L 37 50 L 27 50 z " />
</svg>
