<?xml version="1.0" encoding="UTF-8" standalone="no"?>
<svg
   viewbox="0 0 200 200"
   version="1.1"
   id="svg4"
   sodipodi:docname="audio-headphones.svg"
   width="64"
   height="64"
   inkscape:version="1.1.1 (3bf5ae0d25, 2021-09-20, custom)"
   xmlns:inkscape="http://www.inkscape.org/namespaces/inkscape"
   xmlns:sodipodi="http://sodipodi.sourceforge.net/DTD/sodipodi-0.dtd"
   xmlns="http://www.w3.org/2000/svg"
   xmlns:svg="http://www.w3.org/2000/svg">
  <defs
     id="defs8" />
  <sodipodi:namedview
     id="namedview6"
     pagecolor="#ffffff"
     bordercolor="#666666"
     borderopacity="1.0"
     inkscape:pageshadow="2"
     inkscape:pageopacity="0.0"
     inkscape:pagecheckerboard="0"
     showgrid="false"
     inkscape:zoom="9.1098921"
     inkscape:cx="22.063928"
     inkscape:cy="42.75572"
     inkscape:window-width="1920"
     inkscape:window-height="1000"
     inkscape:window-x="0"
     inkscape:window-y="0"
     inkscape:window-maximized="1"
     inkscape:current-layer="svg4"
     showguides="false"
     inkscape:lockguides="false" />
  <path
     d="M 2,32 C 2,10.4 10.4,2 32,2 53.6,2 62,10.4 62,32 62,53.6 53.6,62 32,62 10.4,62 2,53.6 2,32"
     id="path2"
     style="stroke-width:0.3;fill:#60baff;fill-opacity:1;stroke:none" />
  <path
     id="rect1210"
     style="fill:#ffffff;fill-opacity:1;stroke-width:4;stroke-linecap:round;stroke-linejoin:round"
     d="M 32,11 A 20,20 0 0 0 12,31 v 13 3 c 0,2.216 1.784,4 4,4 2.216,0 4,-1.784 4,-4 v -8 c 0,-2.216 -1.784,-4 -4,-4 -0.730185,0 -1.411992,0.196132 -2,0.535156 V 31 A 18,18 0 0 1 32,13 18,18 0 0 1 50,31 v 4.535156 C 49.411992,35.196132 48.730185,35 48,35 c -2.216,0 -4,1.784 -4,4 v 8 c 0,2.216 1.784,4 4,4 2.216,0 4,-1.784 4,-4 V 39 31 A 20,20 0 0 0 32,11 Z M 16,37 c 1.108,0 2,0.892 2,2 v 8 c 0,1.108 -0.892,2 -2,2 -1.108,0 -2,-0.892 -2,-2 v -8 c 0,-1.108 0.892,-2 2,-2 z m 32,0 c 1.108,0 2,0.892 2,2 v 5 3 c 0,1.108 -0.892,2 -2,2 -1.108,0 -2,-0.892 -2,-2 v -8 c 0,-1.108 0.892,-2 2,-2 z" />
</svg>
