<?xml version="1.0" encoding="UTF-8" standalone="no"?>
<svg
   viewbox="0 0 200 200"
   version="1.1"
   id="svg4"
   sodipodi:docname="bluetooth-inactive.svg"
   width="64"
   height="64"
   inkscape:version="1.1.1 (3bf5ae0d25, 2021-09-20, custom)"
   xmlns:inkscape="http://www.inkscape.org/namespaces/inkscape"
   xmlns:sodipodi="http://sodipodi.sourceforge.net/DTD/sodipodi-0.dtd"
   xmlns="http://www.w3.org/2000/svg"
   xmlns:svg="http://www.w3.org/2000/svg">
  <defs
     id="defs8" />
  <sodipodi:namedview
     id="namedview6"
     pagecolor="#ffffff"
     bordercolor="#666666"
     borderopacity="1.0"
     inkscape:pageshadow="2"
     inkscape:pageopacity="0.0"
     inkscape:pagecheckerboard="0"
     showgrid="false"
     inkscape:zoom="8"
     inkscape:cx="35"
     inkscape:cy="25.4375"
     inkscape:window-width="1920"
     inkscape:window-height="1000"
     inkscape:window-x="0"
     inkscape:window-y="0"
     inkscape:window-maximized="1"
     inkscape:current-layer="svg4"
     showguides="true" />
  <path
     d="M 2,32 C 2,10.4 10.4,2 32,2 53.6,2 62,10.4 62,32 62,53.6 53.6,62 32,62 10.4,62 2,53.6 2,32"
     id="path2"
     style="stroke-width:0.3;fill:#b3b3b3;fill-opacity:1;stroke:none" />
  <path
     style="color:#000000;fill:#ffffff;stroke:none;stroke-linejoin:round;-inkscape-stroke:none"
     d="M 30.160026,13.089844 C 29.803982,13.252755 29.575754,13.608455 29.576041,14 V 29.683594 L 21.136588,22.65832 19.74987,24.101679 29.099479,32 l -9.349609,7.89832 1.386718,1.44336 8.439453,-7.025274 v 15.684047 c 1.09e-4,0.881566 1.057967,1.331797 1.69336,0.720703 l 10.40039,-9.000453 c 0.424618,-0.408663 0.405604,-1.094025 -0.04102,-1.478516 L 32.074088,32 41.628776,23.757812 c 0.462316,-0.398285 0.463262,-1.114166 0.002,-1.513671 l -10.400391,-9 c -0.295809,-0.25651 -0.714097,-0.31681 -1.070312,-0.154297 z m 1.416015,3.097656 7.871094,6.810547 -7.871094,6.791015 z m 0,18.023437 7.916016,6.828125 -7.916016,6.611782 z"
     id="path855"
     sodipodi:nodetypes="ccccccccccccccccccccccccccc" />
</svg>
