<?xml version="1.0" encoding="UTF-8" standalone="no"?>
<svg
   viewbox="0 0 200 200"
   version="1.1"
   id="svg4"
   sodipodi:docname="camera.svg"
   width="64"
   height="64"
   inkscape:version="1.1.1 (3bf5ae0d25, 2021-09-20, custom)"
   xmlns:inkscape="http://www.inkscape.org/namespaces/inkscape"
   xmlns:sodipodi="http://sodipodi.sourceforge.net/DTD/sodipodi-0.dtd"
   xmlns="http://www.w3.org/2000/svg"
   xmlns:svg="http://www.w3.org/2000/svg">
  <defs
     id="defs8" />
  <sodipodi:namedview
     id="namedview6"
     pagecolor="#ffffff"
     bordercolor="#666666"
     borderopacity="1.0"
     inkscape:pageshadow="2"
     inkscape:pageopacity="0.0"
     inkscape:pagecheckerboard="0"
     showgrid="false"
     inkscape:zoom="6.0703125"
     inkscape:cx="39.371943"
     inkscape:cy="61.693694"
     inkscape:window-width="1920"
     inkscape:window-height="1000"
     inkscape:window-x="0"
     inkscape:window-y="0"
     inkscape:window-maximized="1"
     inkscape:current-layer="svg4"
     showguides="false"
     inkscape:lockguides="false" />
  <path
     d="M 2,32 C 2,10.4 10.4,2 32,2 53.6,2 62,10.4 62,32 62,53.6 53.6,62 32,62 10.4,62 2,53.6 2,32"
     id="path2"
     style="stroke-width:0.3;fill:#9b7ce0;fill-opacity:1;stroke:none" />
  <path
     id="rect1588"
     style="fill:#ffffff;fill-opacity:1;stroke-width:2;stroke-linecap:round;stroke-linejoin:round"
     d="M 28 16 C 27.676947 15.99957 27.373587 16.155251 27.185547 16.417969 L 23.914062 21 L 15 21 C 13.892 21 13 21.892 13 23 L 13 44 A 4 4 0 0 0 17 48 L 47 48 A 4 4 0 0 0 51 44 L 51 23 A 2 2 0 0 0 49 21 L 40.085938 21 L 36.814453 16.417969 C 36.626413 16.155251 36.323053 15.99957 36 16 L 28 16 z M 28.515625 18 L 35.484375 18 L 38.25 21.873047 C 38.979354 22.894461 39.442995 22.9966 40.484375 23 L 49 23 L 49 44 A 2 2 0 0 1 47 46 L 17 46 A 2 2 0 0 1 15 44 L 15 23 L 23.515625 23 C 24.557005 22.9966 25.020646 22.894461 25.75 21.873047 L 28.515625 18 z M 32 26 C 27.581722 26 24 29.581722 24 34 C 24 38.418278 27.581722 42 32 42 C 36.418278 42 40 38.418278 40 34 C 40 29.581722 36.418278 26 32 26 z M 32 28 C 35.313708 28 38 30.686292 38 34 C 38 37.313708 35.313708 40 32 40 C 28.686292 40 26 37.313708 26 34 C 26 30.686292 28.686292 28 32 28 z " />
</svg>
