<?xml version="1.0" encoding="UTF-8" standalone="no"?>
<svg
   viewbox="0 0 200 200"
   version="1.1"
   id="svg4"
   sodipodi:docname="camera-web.svg"
   width="64"
   height="64"
   inkscape:version="1.1.1 (3bf5ae0d25, 2021-09-20, custom)"
   xmlns:inkscape="http://www.inkscape.org/namespaces/inkscape"
   xmlns:sodipodi="http://sodipodi.sourceforge.net/DTD/sodipodi-0.dtd"
   xmlns="http://www.w3.org/2000/svg"
   xmlns:svg="http://www.w3.org/2000/svg">
  <defs
     id="defs8" />
  <sodipodi:namedview
     id="namedview6"
     pagecolor="#ffffff"
     bordercolor="#666666"
     borderopacity="1.0"
     inkscape:pageshadow="2"
     inkscape:pageopacity="0.0"
     inkscape:pagecheckerboard="0"
     showgrid="false"
     inkscape:zoom="12.95"
     inkscape:cx="31.969112"
     inkscape:cy="32.007722"
     inkscape:window-width="1920"
     inkscape:window-height="1000"
     inkscape:window-x="0"
     inkscape:window-y="0"
     inkscape:window-maximized="1"
     inkscape:current-layer="svg4"
     showguides="false"
     inkscape:lockguides="false" />
  <path
     d="M 2,32 C 2,10.4 10.4,2 32,2 53.6,2 62,10.4 62,32 62,53.6 53.6,62 32,62 10.4,62 2,53.6 2,32"
     id="path2"
     style="stroke-width:0.3;fill:#9b7ce0;fill-opacity:1;stroke:none" />
  <path
     id="rect1588"
     style="fill:#ffffff;fill-opacity:1;stroke-width:2;stroke-linecap:round;stroke-linejoin:round"
     d="M 15 16 C 12.784 16 11 17.784 11 20 L 11 38 C 11 40.216 12.784 42 15 42 L 49 42 C 51.216 42 53 40.216 53 38 L 53 20 C 53 17.784 51.216 16 49 16 L 15 16 z M 15 18 L 49 18 C 50.108 18 51 18.892 51 20 L 51 38 C 51 39.108 50.108 40 49 40 L 15 40 C 13.892 40 13 39.108 13 38 L 13 20 C 13 18.892 13.892 18 15 18 z M 32 21 C 27.581722 21 24 24.581722 24 29 C 24 33.418278 27.581722 37 32 37 C 36.418278 37 40 33.418278 40 29 C 40 24.581722 36.418278 21 32 21 z M 32 23 C 35.313708 23 38 25.686292 38 29 C 38 32.313708 35.313708 35 32 35 C 28.686292 35 26 32.313708 26 29 C 26 25.686292 28.686292 23 32 23 z M 18 26 C 17.446 26 17 26.446 17 27 L 17 31 C 17 31.554 17.446 32 18 32 C 18.554 32 19 31.554 19 31 L 19 27 C 19 26.446 18.554 26 18 26 z M 23 46 C 22.446 46 22 46.446 22 47 C 22 47.554 22.446 48 23 48 L 41 48 C 41.554 48 42 47.554 42 47 C 42 46.446 41.554 46 41 46 L 23 46 z " />
</svg>
