<?xml version="1.0" encoding="UTF-8" standalone="no"?>
<svg
   viewbox="0 0 200 200"
   version="1.1"
   id="svg4"
   sodipodi:docname="compiter.svg"
   width="64"
   height="64"
   inkscape:version="1.1.1 (3bf5ae0d25, 2021-09-20, custom)"
   xmlns:inkscape="http://www.inkscape.org/namespaces/inkscape"
   xmlns:sodipodi="http://sodipodi.sourceforge.net/DTD/sodipodi-0.dtd"
   xmlns="http://www.w3.org/2000/svg"
   xmlns:svg="http://www.w3.org/2000/svg">
  <defs
     id="defs8" />
  <sodipodi:namedview
     id="namedview6"
     pagecolor="#ffffff"
     bordercolor="#666666"
     borderopacity="1.0"
     inkscape:pageshadow="2"
     inkscape:pageopacity="0.0"
     inkscape:pagecheckerboard="0"
     showgrid="false"
     inkscape:zoom="6.4416665"
     inkscape:cx="-6.5200519"
     inkscape:cy="44.16559"
     inkscape:window-width="1920"
     inkscape:window-height="1000"
     inkscape:window-x="0"
     inkscape:window-y="0"
     inkscape:window-maximized="1"
     inkscape:current-layer="svg4"
     showguides="true" />
  <path
     d="M 2,32 C 2,10.4 10.4,2 32,2 53.6,2 62,10.4 62,32 62,53.6 53.6,62 32,62 10.4,62 2,53.6 2,32"
     id="path2"
     style="stroke-width:0.3;fill:#6876e7;fill-opacity:1;stroke:none" />
  <path
     id="rect933"
     style="fill:#ffffff;fill-opacity:1;stroke-width:4;stroke-linecap:round;stroke-linejoin:round"
     d="M 40 13 C 37.784 13 36 14.784 36 17 L 36 18 L 12 18 C 10.892 18 10 18.892 10 20 L 10 42 C 10 43.108 10.892 44 12 44 L 36 44 L 36 47 C 36 49.216 37.784 51 40 51 L 50 51 C 52.216 51 54 49.216 54 47 L 54 17 C 54 14.784 52.216 13 50 13 L 40 13 z M 40 15 L 50 15 C 51.108 15 52 15.892 52 17 L 52 47 C 52 48.108 51.108 49 50 49 L 40 49 C 38.892 49 38 48.108 38 47 L 38 17 C 38 15.892 38.892 15 40 15 z M 42 18 C 41.446 18 41 18.446 41 19 L 41 28 C 41 28.554 41.446 29 42 29 C 42.554 29 43 28.554 43 28 L 43 19 C 43 18.446 42.554 18 42 18 z M 12 20 L 36 20 L 36 42 L 12 42 L 12 20 z M 17 46 L 17 48 L 33 48 L 33 46 L 17 46 z " />
</svg>
