<?xml version="1.0" encoding="UTF-8" standalone="no"?>
<svg
   viewbox="0 0 200 200"
   version="1.1"
   id="svg4"
   sodipodi:docname="drive-removable-media.svg"
   width="64"
   height="64"
   inkscape:version="1.1.1 (3bf5ae0d25, 2021-09-20, custom)"
   xmlns:inkscape="http://www.inkscape.org/namespaces/inkscape"
   xmlns:sodipodi="http://sodipodi.sourceforge.net/DTD/sodipodi-0.dtd"
   xmlns="http://www.w3.org/2000/svg"
   xmlns:svg="http://www.w3.org/2000/svg">
  <defs
     id="defs8" />
  <sodipodi:namedview
     id="namedview6"
     pagecolor="#ffffff"
     bordercolor="#666666"
     borderopacity="1.0"
     inkscape:pageshadow="2"
     inkscape:pageopacity="0.0"
     inkscape:pagecheckerboard="0"
     showgrid="false"
     inkscape:zoom="7.9999999"
     inkscape:cx="26.25"
     inkscape:cy="29.0625"
     inkscape:window-width="1920"
     inkscape:window-height="1000"
     inkscape:window-x="0"
     inkscape:window-y="0"
     inkscape:window-maximized="1"
     inkscape:current-layer="svg4"
     showguides="false" />
  <path
     d="M 2,32 C 2,10.4 10.4,2 32,2 53.6,2 62,10.4 62,32 62,53.6 53.6,62 32,62 10.4,62 2,53.6 2,32"
     id="path2"
     style="stroke-width:0.3;fill:#80c45a;fill-opacity:1" />
  <path
     id="rect924"
     style="fill:#ffffff;stroke-width:1.79505;stroke-linecap:round;stroke-linejoin:round"
     d="M 25 11 C 23.892 11 23 11.892 23 13 L 23 24 L 22 24 C 20.892 24 20 24.892 20 26 L 20 47 A 6 6 0 0 0 26 53 L 38 53 C 41.324 53 44 50.324 44 47 L 44 26 A 2 2 0 0 0 42 24 L 41 24 L 41 13 C 41 11.892 40.108 11 39 11 L 25 11 z M 25 13 L 39 13 L 39 24 L 25 24 L 25 13 z M 28 15 C 27.446 15 27 15.446 27 16 L 27 21 C 27 21.554 27.446 22 28 22 C 28.554 22 29 21.554 29 21 L 29 16 C 29 15.446 28.554 15 28 15 z M 32 15 C 31.446 15 31 15.446 31 16 L 31 21 C 31 21.554 31.446 22 32 22 C 32.554 22 33 21.554 33 21 L 33 16 C 33 15.446 32.554 15 32 15 z M 36 15 C 35.446 15 35 15.446 35 16 L 35 21 C 35 21.554 35.446 22 36 22 C 36.554 22 37 21.554 37 21 L 37 16 C 37 15.446 36.554 15 36 15 z M 22 26 L 42 26 L 42 47 C 42 49.216 40.216 51 38 51 L 26 51 A 4 4 0 0 1 22 47 L 22 26 z " />
</svg>
