<?xml version="1.0" encoding="UTF-8" standalone="no"?>
<svg
   viewbox="0 0 200 200"
   version="1.1"
   id="svg4"
   sodipodi:docname="input-touchpad.svg"
   width="64"
   height="64"
   inkscape:version="1.1.1 (3bf5ae0d25, 2021-09-20, custom)"
   xmlns:inkscape="http://www.inkscape.org/namespaces/inkscape"
   xmlns:sodipodi="http://sodipodi.sourceforge.net/DTD/sodipodi-0.dtd"
   xmlns="http://www.w3.org/2000/svg"
   xmlns:svg="http://www.w3.org/2000/svg">
  <defs
     id="defs8" />
  <sodipodi:namedview
     id="namedview6"
     pagecolor="#ffffff"
     bordercolor="#666666"
     borderopacity="1.0"
     inkscape:pageshadow="2"
     inkscape:pageopacity="0.0"
     inkscape:pagecheckerboard="0"
     showgrid="false"
     inkscape:zoom="16"
     inkscape:cx="21.3125"
     inkscape:cy="29.09375"
     inkscape:window-width="1920"
     inkscape:window-height="1000"
     inkscape:window-x="0"
     inkscape:window-y="0"
     inkscape:window-maximized="1"
     inkscape:current-layer="svg4"
     showguides="true" />
  <path
     d="M 2,32 C 2,10.4 10.4,2 32,2 53.6,2 62,10.4 62,32 62,53.6 53.6,62 32,62 10.4,62 2,53.6 2,32"
     id="path2"
     style="stroke-width:0.3;fill:#777c8f;fill-opacity:1" />
  <path
     id="rect1020"
     style="fill:#ffffff;stroke-width:2;stroke-linecap:round;stroke-linejoin:round"
     d="M 16 16 C 13.784 16 12 17.784 12 20 L 12 44 C 12 46.216 13.784 48 16 48 L 48 48 C 50.216 48 52 46.216 52 44 L 52 20 C 52 17.784 50.216 16 48 16 L 16 16 z M 16 18 L 48 18 C 49.108 18 50 18.892 50 20 L 50 37 L 14 37 L 14 20 C 14 18.892 14.892 18 16 18 z M 14 39 L 31 39 L 31 46 L 16 46 C 14.892 46 14 45.108 14 44 L 14 39 z M 33 39 L 50 39 L 50 44 C 50 45.108 49.108 46 48 46 L 33 46 L 33 39 z " />
</svg>
