<?xml version="1.0" encoding="UTF-8" standalone="no"?>
<svg
   viewbox="0 0 200 200"
   version="1.1"
   id="svg4"
   sodipodi:docname="laptop.svg"
   width="64"
   height="64"
   inkscape:version="1.1.1 (3bf5ae0d25, 2021-09-20, custom)"
   xmlns:inkscape="http://www.inkscape.org/namespaces/inkscape"
   xmlns:sodipodi="http://sodipodi.sourceforge.net/DTD/sodipodi-0.dtd"
   xmlns="http://www.w3.org/2000/svg"
   xmlns:svg="http://www.w3.org/2000/svg">
  <defs
     id="defs8" />
  <sodipodi:namedview
     id="namedview6"
     pagecolor="#ffffff"
     bordercolor="#666666"
     borderopacity="1.0"
     inkscape:pageshadow="2"
     inkscape:pageopacity="0.0"
     inkscape:pagecheckerboard="0"
     showgrid="false"
     inkscape:zoom="6.4416665"
     inkscape:cx="-6.5200519"
     inkscape:cy="44.16559"
     inkscape:window-width="1920"
     inkscape:window-height="1000"
     inkscape:window-x="0"
     inkscape:window-y="0"
     inkscape:window-maximized="1"
     inkscape:current-layer="svg4"
     showguides="true" />
  <path
     d="M 2,32 C 2,10.4 10.4,2 32,2 53.6,2 62,10.4 62,32 62,53.6 53.6,62 32,62 10.4,62 2,53.6 2,32"
     id="path2"
     style="stroke-width:0.3;fill:#6876e7;fill-opacity:1;stroke:none" />
  <path
     id="rect933"
     style="fill:#ffffff;fill-opacity:1;stroke-width:4;stroke-linecap:round;stroke-linejoin:round"
     d="M 17 14 C 14.784 14 13 15.784 13 18 L 13 38 C 13 40.216 14.784 42 17 42 L 47 42 C 49.216 42 51 40.216 51 38 L 51 18 C 51 15.784 49.216 14 47 14 L 17 14 z M 17 16 L 47 16 C 48.108 16 49 16.892 49 18 L 49 38 C 49 39.108 48.108 40 47 40 L 17 40 C 15.892 40 15 39.108 15 38 L 15 18 C 15 16.892 15.892 16 17 16 z M 11 46 C 10.446 46 10 46.446 10 47 C 10 47.554 10.446 48 11 48 L 53 48 C 53.554 48 54 47.554 54 47 C 54 46.446 53.554 46 53 46 L 11 46 z " />
</svg>
