<?xml version="1.0" encoding="UTF-8" standalone="no"?>
<svg
   viewbox="0 0 200 200"
   version="1.1"
   id="svg4"
   sodipodi:docname="media-memory.svg"
   width="64"
   height="64"
   inkscape:version="1.1.1 (3bf5ae0d25, 2021-09-20, custom)"
   xmlns:inkscape="http://www.inkscape.org/namespaces/inkscape"
   xmlns:sodipodi="http://sodipodi.sourceforge.net/DTD/sodipodi-0.dtd"
   xmlns="http://www.w3.org/2000/svg"
   xmlns:svg="http://www.w3.org/2000/svg">
  <defs
     id="defs8" />
  <sodipodi:namedview
     id="namedview6"
     pagecolor="#ffffff"
     bordercolor="#666666"
     borderopacity="1.0"
     inkscape:pageshadow="2"
     inkscape:pageopacity="0.0"
     inkscape:pagecheckerboard="0"
     showgrid="false"
     inkscape:zoom="11.313708"
     inkscape:cx="13.788582"
     inkscape:cy="34.427262"
     inkscape:window-width="1920"
     inkscape:window-height="996"
     inkscape:window-x="0"
     inkscape:window-y="0"
     inkscape:window-maximized="1"
     inkscape:current-layer="svg4"
     showguides="false" />
  <path
     d="M 2,32 C 2,10.4 10.4,2 32,2 53.6,2 62,10.4 62,32 62,53.6 53.6,62 32,62 10.4,62 2,53.6 2,32"
     id="path2"
     style="stroke-width:0.3;fill:#87ca32;fill-opacity:1" />
  <path
     id="rect933"
     style="fill:#ffffff;fill-opacity:1;stroke-width:4;stroke-linecap:round;stroke-linejoin:round"
     d="M 14 20 C 11.784 20 10 21.784 10 24 L 10 36 C 10 38.216 11.784 40 14 40 L 50 40 C 52.216 40 54 38.216 54 36 L 54 24 C 54 21.784 52.216 20 50 20 L 14 20 z M 14 22 L 50 22 C 51.108 22 52 22.892 52 24 L 52 36 C 52 37.108 51.108 38 50 38 L 14 38 C 12.892 38 12 37.108 12 36 L 12 24 C 12 22.892 12.892 22 14 22 z M 15 25 L 15 35 L 21 35 L 21 25 L 15 25 z M 24 25 L 24 35 L 30 35 L 30 25 L 24 25 z M 34 25 L 34 35 L 40 35 L 40 25 L 34 25 z M 43 25 L 43 35 L 49 35 L 49 25 L 43 25 z " />
</svg>
