<?xml version="1.0" encoding="UTF-8" standalone="no"?>
<svg
   viewbox="0 0 200 200"
   version="1.1"
   id="svg4"
   sodipodi:docname="network-server.svg"
   width="64"
   height="64"
   inkscape:version="1.1.1 (3bf5ae0d25, 2021-09-20, custom)"
   xmlns:inkscape="http://www.inkscape.org/namespaces/inkscape"
   xmlns:sodipodi="http://sodipodi.sourceforge.net/DTD/sodipodi-0.dtd"
   xmlns="http://www.w3.org/2000/svg"
   xmlns:svg="http://www.w3.org/2000/svg">
  <defs
     id="defs8" />
  <sodipodi:namedview
     id="namedview6"
     pagecolor="#ffffff"
     bordercolor="#666666"
     borderopacity="1.0"
     inkscape:pageshadow="2"
     inkscape:pageopacity="0.0"
     inkscape:pagecheckerboard="0"
     showgrid="false"
     inkscape:zoom="12.883333"
     inkscape:cx="17.619664"
     inkscape:cy="32.949547"
     inkscape:window-width="1920"
     inkscape:window-height="1000"
     inkscape:window-x="0"
     inkscape:window-y="0"
     inkscape:window-maximized="1"
     inkscape:current-layer="svg4"
     showguides="true" />
  <path
     d="M 2,32 C 2,10.4 10.4,2 32,2 53.6,2 62,10.4 62,32 62,53.6 53.6,62 32,62 10.4,62 2,53.6 2,32"
     id="path2"
     style="stroke-width:0.3;fill:#ff6699;fill-opacity:1;stroke:none" />
  <path
     id="rect933"
     style="fill:#ffffff;fill-opacity:1;stroke-width:4;stroke-linecap:round;stroke-linejoin:round"
     d="M 15 16 C 12.784 16 11 17.784 11 20 L 11 26 C 11 28.216 12.784 30 15 30 L 49 30 C 51.216 30 53 28.216 53 26 L 53 20 C 53 17.784 51.216 16 49 16 L 15 16 z M 15 18 L 49 18 C 50.108 18 51 18.892 51 20 L 51 26 C 51 27.108 50.108 28 49 28 L 15 28 C 13.892 28 13 27.108 13 26 L 13 20 C 13 18.892 13.892 18 15 18 z M 19 21 A 2 2 0 0 0 17 23 A 2 2 0 0 0 19 25 A 2 2 0 0 0 21 23 A 2 2 0 0 0 19 21 z M 15 34 C 12.784 34 11 35.784 11 38 L 11 44 C 11 46.216 12.784 48 15 48 L 49 48 C 51.216 48 53 46.216 53 44 L 53 38 C 53 35.784 51.216 34 49 34 L 15 34 z M 15 36 L 49 36 C 50.108 36 51 36.892 51 38 L 51 44 C 51 45.108 50.108 46 49 46 L 15 46 C 13.892 46 13 45.108 13 44 L 13 38 C 13 36.892 13.892 36 15 36 z M 19 39 A 2 2 0 0 0 17 41 A 2 2 0 0 0 19 43 A 2 2 0 0 0 21 41 A 2 2 0 0 0 19 39 z " />
</svg>
