<?xml version="1.0" encoding="UTF-8" standalone="no"?>
<svg
   viewbox="0 0 200 200"
   version="1.1"
   id="svg4"
   sodipodi:docname="network-modem.svg"
   width="64"
   height="64"
   inkscape:version="1.1.1 (3bf5ae0d25, 2021-09-20, custom)"
   xmlns:inkscape="http://www.inkscape.org/namespaces/inkscape"
   xmlns:sodipodi="http://sodipodi.sourceforge.net/DTD/sodipodi-0.dtd"
   xmlns="http://www.w3.org/2000/svg"
   xmlns:svg="http://www.w3.org/2000/svg">
  <defs
     id="defs8" />
  <sodipodi:namedview
     id="namedview6"
     pagecolor="#ffffff"
     bordercolor="#666666"
     borderopacity="1.0"
     inkscape:pageshadow="2"
     inkscape:pageopacity="0.0"
     inkscape:pagecheckerboard="0"
     showgrid="false"
     inkscape:zoom="5.6568542"
     inkscape:cx="27.400388"
     inkscape:cy="32.792077"
     inkscape:window-width="1920"
     inkscape:window-height="1000"
     inkscape:window-x="0"
     inkscape:window-y="0"
     inkscape:window-maximized="1"
     inkscape:current-layer="svg4"
     showguides="true" />
  <path
     d="M 2,32 C 2,10.4 10.4,2 32,2 53.6,2 62,10.4 62,32 62,53.6 53.6,62 32,62 10.4,62 2,53.6 2,32"
     id="path2"
     style="stroke-width:0.3;fill:#53a4ff;fill-opacity:1;stroke:none" />
  <path
     id="path847"
     style="fill:#ffffff;fill-opacity:1;stroke-width:4;stroke-linecap:round;stroke-linejoin:round"
     d="M 45 14 A 3 3 0 0 0 42 17 A 3 3 0 0 0 44 19.820312 L 44 33 L 16 33 C 13.784 33 12 34.784 12 37 L 12 43 C 12 45.216 13.784 47 16 47 L 48 47 C 50.216 47 52 45.216 52 43 L 52 37 C 52 34.784 50.216 33 48 33 L 46 33 L 46 19.820312 A 3 3 0 0 0 48 17 A 3 3 0 0 0 45 14 z M 16 35 L 48 35 C 49.108 35 50 35.892 50 37 L 50 43 C 50 44.108 49.108 45 48 45 L 16 45 C 14.892 45 14 44.108 14 43 L 14 37 C 14 35.892 14.892 35 16 35 z M 20 38 C 18.895431 38 18 38.895431 18 40 C 18 41.104569 18.895431 42 20 42 C 21.104569 42 22 41.104569 22 40 C 22 38.895431 21.104569 38 20 38 z " />
</svg>
