<?xml version="1.0" encoding="UTF-8" standalone="no"?>
<svg
   viewbox="0 0 200 200"
   version="1.1"
   id="svg4"
   sodipodi:docname="network-card.svg"
   width="64"
   height="64"
   inkscape:version="1.1.1 (3bf5ae0d25, 2021-09-20, custom)"
   xmlns:inkscape="http://www.inkscape.org/namespaces/inkscape"
   xmlns:sodipodi="http://sodipodi.sourceforge.net/DTD/sodipodi-0.dtd"
   xmlns="http://www.w3.org/2000/svg"
   xmlns:svg="http://www.w3.org/2000/svg">
  <defs
     id="defs8" />
  <sodipodi:namedview
     id="namedview6"
     pagecolor="#ffffff"
     bordercolor="#666666"
     borderopacity="1.0"
     inkscape:pageshadow="2"
     inkscape:pageopacity="0.0"
     inkscape:pagecheckerboard="0"
     showgrid="false"
     inkscape:zoom="6.0390625"
     inkscape:cx="16.72445"
     inkscape:cy="25.417853"
     inkscape:window-width="1920"
     inkscape:window-height="996"
     inkscape:window-x="0"
     inkscape:window-y="0"
     inkscape:window-maximized="1"
     inkscape:current-layer="svg4"
     showguides="true" />
  <path
     d="M 2,32 C 2,10.4 10.4,2 32,2 53.6,2 62,10.4 62,32 62,53.6 53.6,62 32,62 10.4,62 2,53.6 2,32"
     id="path2"
     style="stroke-width:0.3;fill:#53a4ff;fill-opacity:1;stroke:none" />
  <path
     id="path847"
     style="fill:#ffffff;fill-opacity:1;stroke-width:4;stroke-linecap:round;stroke-linejoin:round"
     d="M 12 14 L 12 16 L 16 16 L 16 48 L 18 48 L 18 44 L 24 44 C 25.108 44 26 43.108 26 42 L 26 40 L 36 40 L 36 42 C 36 43.108 36.892 44 38 44 L 48 44 C 50.216 44 52 42.216 52 40 L 52 22 C 52 19.784 50.216 18 48 18 L 18 18 L 18 16 C 18 14.895431 17.104569 14 16 14 L 12 14 z M 18 20 L 48 20 C 49.108 20 50 20.892 50 22 L 50 40 C 50 41.108 49.108 42 48 42 L 38 42 L 38 40 C 38 38.892 37.108 38 36 38 L 26 38 C 24.892 38 24 38.892 24 40 L 24 42 L 18 42 L 18 20 z M 28 22 L 28 24 C 26.892 24 26 24.892 26 26 L 24 26 L 24 28 L 26 28 L 26 30 L 24 30 L 24 32 L 26 32 C 26 33.108 26.892 34 28 34 L 28 36 L 30 36 L 30 34 L 32 34 L 32 36 L 34 36 L 34 34 C 35.108 34 36 33.108 36 32 L 38 32 L 38 30 L 36 30 L 36 28 L 38 28 L 38 26 L 36 26 C 36 24.892 35.108 24 34 24 L 34 22 L 32 22 L 32 24 L 30 24 L 30 22 L 28 22 z M 28 26 L 34 26 L 34 32 L 28 32 L 28 26 z " />
</svg>
