<?xml version="1.0" encoding="UTF-8" standalone="no"?>
<svg
   viewbox="0 0 200 200"
   version="1.1"
   id="svg4"
   sodipodi:docname="phone.svg"
   width="64"
   height="64"
   inkscape:version="1.1.1 (3bf5ae0d25, 2021-09-20, custom)"
   xmlns:inkscape="http://www.inkscape.org/namespaces/inkscape"
   xmlns:sodipodi="http://sodipodi.sourceforge.net/DTD/sodipodi-0.dtd"
   xmlns="http://www.w3.org/2000/svg"
   xmlns:svg="http://www.w3.org/2000/svg">
  <defs
     id="defs8" />
  <sodipodi:namedview
     id="namedview6"
     pagecolor="#ffffff"
     bordercolor="#666666"
     borderopacity="1.0"
     inkscape:pageshadow="2"
     inkscape:pageopacity="0.0"
     inkscape:pagecheckerboard="0"
     showgrid="false"
     inkscape:zoom="12.883333"
     inkscape:cx="17.619664"
     inkscape:cy="32.949548"
     inkscape:window-width="1920"
     inkscape:window-height="1000"
     inkscape:window-x="0"
     inkscape:window-y="0"
     inkscape:window-maximized="1"
     inkscape:current-layer="svg4"
     showguides="true" />
  <path
     d="M 2,32 C 2,10.4 10.4,2 32,2 53.6,2 62,10.4 62,32 62,53.6 53.6,62 32,62 10.4,62 2,53.6 2,32"
     id="path2"
     style="stroke-width:0.3;fill:#6876e7;fill-opacity:1;stroke:none" />
  <path
     id="rect933"
     style="fill:#ffffff;fill-opacity:1;stroke-width:4;stroke-linecap:round;stroke-linejoin:round"
     d="M 23 11 C 20.784 11 19 12.784 19 15 L 19 49 C 19 51.216 20.784 53 23 53 L 41 53 C 43.216 53 45 51.216 45 49 L 45 15 C 45 12.784 43.216 11 41 11 L 23 11 z M 23 13 L 41 13 C 42.108 13 43 13.892 43 15 L 43 49 C 43 50.108 42.108 51 41 51 L 23 51 C 21.892 51 21 50.108 21 49 L 21 15 C 21 13.892 21.892 13 23 13 z M 28 46 C 27.446 46 27 46.446 27 47 C 27 47.554 27.446 48 28 48 L 36 48 C 36.554 48 37 47.554 37 47 C 37 46.446 36.554 46 36 46 L 28 46 z " />
</svg>
