<?xml version="1.0" encoding="UTF-8" standalone="no"?>
<svg
   viewbox="0 0 200 200"
   version="1.1"
   id="svg4"
   sodipodi:docname="wiimote.svg"
   width="64"
   height="64"
   inkscape:version="1.1.1 (3bf5ae0d25, 2021-09-20, custom)"
   xmlns:inkscape="http://www.inkscape.org/namespaces/inkscape"
   xmlns:sodipodi="http://sodipodi.sourceforge.net/DTD/sodipodi-0.dtd"
   xmlns="http://www.w3.org/2000/svg"
   xmlns:svg="http://www.w3.org/2000/svg">
  <defs
     id="defs8" />
  <sodipodi:namedview
     id="namedview6"
     pagecolor="#ffffff"
     bordercolor="#666666"
     borderopacity="1.0"
     inkscape:pageshadow="2"
     inkscape:pageopacity="0.0"
     inkscape:pagecheckerboard="0"
     showgrid="false"
     inkscape:zoom="8.5847183"
     inkscape:cx="32.616097"
     inkscape:cy="49.564818"
     inkscape:window-width="1920"
     inkscape:window-height="996"
     inkscape:window-x="0"
     inkscape:window-y="0"
     inkscape:window-maximized="1"
     inkscape:current-layer="svg4"
     showguides="false" />
  <path
     d="M 2,32 C 2,10.4 10.4,2 32,2 53.6,2 62,10.4 62,32 62,53.6 53.6,62 32,62 10.4,62 2,53.6 2,32"
     id="path2"
     style="stroke-width:0.3;fill:#777c8f;fill-opacity:1" />
  <path
     id="rect1094"
     style="fill:#ffffff;fill-opacity:1;stroke-width:2;stroke-linecap:round;stroke-linejoin:round"
     d="M 25 11 C 23.892 11 23 11.892 23 13 L 23 51 C 23 52.108 23.892 53 25 53 L 39 53 C 40.108 53 41 52.108 41 51 L 41 13 C 41 11.892 40.108 11 39 11 L 25 11 z M 25 13 L 39 13 L 39 51 L 25 51 L 25 13 z M 30.5 16 L 30.5 19.5 L 27 19.5 L 27 22.5 L 30.5 22.5 L 30.5 26 L 33.5 26 L 33.5 22.5 L 37 22.5 L 37 19.5 L 33.5 19.5 L 33.5 16 L 30.5 16 z M 32 34 A 2 2 0 0 0 30 36 A 2 2 0 0 0 32 38 A 2 2 0 0 0 34 36 A 2 2 0 0 0 32 34 z M 32 42 A 2 2 0 0 0 30 44 A 2 2 0 0 0 32 46 A 2 2 0 0 0 34 44 A 2 2 0 0 0 32 42 z " />
</svg>
