<?xml version="1.0" encoding="UTF-8" standalone="no"?>
<svg
   viewbox="0 0 200 200"
   version="1.1"
   id="svg4"
   sodipodi:docname="credentials-preferences.svg"
   width="64"
   height="64"
   inkscape:version="1.1.1 (3bf5ae0d25, 2021-09-20, custom)"
   xmlns:inkscape="http://www.inkscape.org/namespaces/inkscape"
   xmlns:sodipodi="http://sodipodi.sourceforge.net/DTD/sodipodi-0.dtd"
   xmlns="http://www.w3.org/2000/svg"
   xmlns:svg="http://www.w3.org/2000/svg">
  <defs
     id="defs8" />
  <sodipodi:namedview
     id="namedview6"
     pagecolor="#ffffff"
     bordercolor="#666666"
     borderopacity="1.0"
     inkscape:pageshadow="2"
     inkscape:pageopacity="0.0"
     inkscape:pagecheckerboard="0"
     showgrid="false"
     inkscape:zoom="12.140625"
     inkscape:cx="31.958816"
     inkscape:cy="32"
     inkscape:window-width="1920"
     inkscape:window-height="1000"
     inkscape:window-x="0"
     inkscape:window-y="0"
     inkscape:window-maximized="1"
     inkscape:current-layer="svg4"
     showguides="true" />
  <path
     d="M 2,32 C 2,10.4 10.4,2 32,2 53.6,2 62,10.4 62,32 62,53.6 53.6,62 32,62 10.4,62 2,53.6 2,32"
     id="path2"
     style="stroke-width:0.3;fill:#2491de;fill-opacity:1" />
  <path
     id="path1322"
     style="fill:#ffffff;stroke-width:0;stroke-linecap:round;stroke-linejoin:round"
     d="M 33 18 C 27.577729 18.0043 22.645518 21.139238 20.339844 26.046875 C 15.094371 26.393899 11.013175 30.743077 11 36 C 11 41.522847 15.477153 46 21 46 L 45 46 C 49.418278 46 53 42.418278 53 38 C 52.999149 34.307667 50.471429 31.095558 46.882812 30.226562 C 45.990437 23.238652 40.044659 18.002219 33 18 z M 33 20 C 39.627417 20 45 25.372583 45 32 C 48.313708 32 51 34.686292 51 38 C 51 41.313708 48.313708 44 45 44 L 21 44 C 16.581722 44 13 40.418278 13 36 C 13 31.581722 16.581722 28 21 28 C 21.2354 28.000689 21.470655 28.011767 21.705078 28.033203 C 23.3867 23.232041 27.912875 20.01292 33 20 z " />
</svg>
