<?xml version="1.0" encoding="UTF-8" standalone="no"?>
<svg
   viewbox="0 0 200 200"
   version="1.1"
   id="svg4"
   sodipodi:docname="cs-sources.svg"
   width="64"
   height="64"
   inkscape:version="1.1.1 (3bf5ae0d25, 2021-09-20, custom)"
   xmlns:inkscape="http://www.inkscape.org/namespaces/inkscape"
   xmlns:sodipodi="http://sodipodi.sourceforge.net/DTD/sodipodi-0.dtd"
   xmlns="http://www.w3.org/2000/svg"
   xmlns:svg="http://www.w3.org/2000/svg">
  <defs
     id="defs8" />
  <sodipodi:namedview
     id="namedview6"
     pagecolor="#ffffff"
     bordercolor="#666666"
     borderopacity="1.0"
     inkscape:pageshadow="2"
     inkscape:pageopacity="0.0"
     inkscape:pagecheckerboard="0"
     showgrid="false"
     inkscape:zoom="7.9999999"
     inkscape:cx="26.5"
     inkscape:cy="44.062501"
     inkscape:window-width="1920"
     inkscape:window-height="1000"
     inkscape:window-x="0"
     inkscape:window-y="0"
     inkscape:window-maximized="1"
     inkscape:current-layer="svg4"
     showguides="true" />
  <path
     d="M 2,32 C 2,10.4 10.4,2 32,2 53.6,2 62,10.4 62,32 62,53.6 53.6,62 32,62 10.4,62 2,53.6 2,32"
     id="path2"
     style="stroke-width:0.3;fill:#58aff4;fill-opacity:1" />
  <path
     id="path885"
     style="fill:#ffffff;fill-opacity:1;stroke-width:10.6667;stroke-linecap:round;stroke-linejoin:round"
     d="M 21 13 C 16.581721 13 13 16.581721 13 21 C 13 25.418279 16.581721 29 21 29 C 25.418278 28.999999 29 25.418278 29 21 C 29 16.581722 25.418278 13.000001 21 13 z M 43 13 C 38.581721 13 35 16.581721 35 21 C 35 25.418279 38.581721 29 43 29 C 47.418278 28.999999 51 25.418278 51 21 C 51 16.581722 47.418278 13.000001 43 13 z M 21 15 C 24.313708 15 27 17.686292 27 21 C 27 24.313708 24.313708 27 21 27 C 17.686292 27 15 24.313708 15 21 C 15 17.686292 17.686292 15 21 15 z M 43 15 C 46.313708 15 49 17.686292 49 21 C 49 24.313708 46.313708 27 43 27 C 39.686292 27 37 24.313708 37 21 C 37 17.686292 39.686292 15 43 15 z M 21 35 C 16.581721 35 13 38.581721 13 43 C 13 47.418279 16.581721 51 21 51 C 25.418278 50.999999 29 47.418278 29 43 C 29 38.581722 25.418278 35.000001 21 35 z M 42 35 L 42 48 L 36.757812 42.757812 L 35.34375 44.171875 L 41.585938 50.414062 C 42.366987 51.195113 43.633015 51.195112 44.414062 50.414062 L 50.65625 44.171875 L 49.242188 42.757812 L 44 48 L 44 35 L 42 35 z M 21 37 C 24.313708 37 27 39.686292 27 43 C 27 46.313708 24.313708 49 21 49 C 17.686292 49 15 46.313708 15 43 C 15 39.686292 17.686292 37 21 37 z " />
</svg>
