<?xml version="1.0" encoding="UTF-8" standalone="no"?>
<svg
   viewbox="0 0 200 200"
   version="1.1"
   id="svg4"
   sodipodi:docname="csd-wacom.svg"
   width="64"
   height="64"
   inkscape:version="1.1.1 (3bf5ae0d25, 2021-09-20, custom)"
   xmlns:inkscape="http://www.inkscape.org/namespaces/inkscape"
   xmlns:sodipodi="http://sodipodi.sourceforge.net/DTD/sodipodi-0.dtd"
   xmlns="http://www.w3.org/2000/svg"
   xmlns:svg="http://www.w3.org/2000/svg">
  <defs
     id="defs8" />
  <sodipodi:namedview
     id="namedview6"
     pagecolor="#ffffff"
     bordercolor="#666666"
     borderopacity="1.0"
     inkscape:pageshadow="2"
     inkscape:pageopacity="0.0"
     inkscape:pagecheckerboard="0"
     showgrid="false"
     inkscape:zoom="11.313709"
     inkscape:cx="21.831922"
     inkscape:cy="35.753086"
     inkscape:window-width="1920"
     inkscape:window-height="1000"
     inkscape:window-x="0"
     inkscape:window-y="0"
     inkscape:window-maximized="1"
     inkscape:current-layer="svg4"
     showguides="true" />
  <path
     d="M 2,32 C 2,10.4 10.4,2 32,2 53.6,2 62,10.4 62,32 62,53.6 53.6,62 32,62 10.4,62 2,53.6 2,32"
     id="path2"
     style="stroke-width:0.3;fill:#777c8f;fill-opacity:1" />
  <path
     id="path3817"
     style="color:#000000;fill:#ffffff;stroke:none;stroke-width:0.99356;stroke-linecap:round;stroke-linejoin:round;-inkscape-stroke:none"
     d="m 16,16 c -2.216001,0 -4,1.783999 -4,4 v 28 h 2 V 20 c 0,-1.108 0.892,-2 2,-2 h 36 v -2 z m 34,22 v 4 c 0,2.216 -1.784,4 -4,4 H 18 v 2 h 28 c 3.324,0 6,-2.676 6,-6 v -4 z"
     sodipodi:nodetypes="ssccssccscssccsscc" />
  <path
     id="rect844"
     style="fill:#ffffff;stroke-width:1.99995;stroke-linecap:round;stroke-linejoin:round"
     d="m 53.778066,20.587517 c -0.783415,-0.783414 -2.044861,-0.783348 -2.828357,1.48e-4 l -0.707126,0.707125 1.414105,1.414105 0.707126,-0.707126 2.828209,2.82821 -2.121377,2.121377 -4.242314,-4.242314 -9.899762,9.899762 c -0.09947,0.09946 -0.180377,0.221091 -0.232032,0.361842 l -2.120217,6.362531 c -0.295399,0.800798 0.483495,1.579693 1.284294,1.284294 l 6.36253,-2.120217 c 0.140799,-0.05182 0.262426,-0.132389 0.361843,-0.232032 0.01512,-0.01516 0.03153,-0.02955 0.04557,-0.04557 l 7.025684,-7.025685 -1.414104,-1.414104 -7.071258,7.071259 -2.161356,0.747251 -2.162737,0.748632 0.748632,-2.162736 0.747251,-2.161356 8.485512,-8.485512 2.828209,2.828209 1.414104,1.414104 3.535629,-3.535629 c 0.783496,-0.783495 0.783561,-2.044942 1.48e-4,-2.828355 z" />
</svg>
