<?xml version="1.0" encoding="UTF-8" standalone="no"?>
<svg
   viewbox="0 0 200 200"
   version="1.1"
   id="svg4"
   sodipodi:docname="display-manager.svg"
   width="64"
   height="64"
   inkscape:version="1.1.1 (3bf5ae0d25, 2021-09-20, custom)"
   xmlns:inkscape="http://www.inkscape.org/namespaces/inkscape"
   xmlns:sodipodi="http://sodipodi.sourceforge.net/DTD/sodipodi-0.dtd"
   xmlns="http://www.w3.org/2000/svg"
   xmlns:svg="http://www.w3.org/2000/svg">
  <defs
     id="defs8" />
  <sodipodi:namedview
     id="namedview6"
     pagecolor="#ffffff"
     bordercolor="#666666"
     borderopacity="1.0"
     inkscape:pageshadow="2"
     inkscape:pageopacity="0.0"
     inkscape:pagecheckerboard="0"
     showgrid="false"
     inkscape:zoom="8"
     inkscape:cx="9.375"
     inkscape:cy="47.1875"
     inkscape:window-width="1920"
     inkscape:window-height="1000"
     inkscape:window-x="0"
     inkscape:window-y="0"
     inkscape:window-maximized="1"
     inkscape:current-layer="svg4"
     showguides="true" />
  <path
     d="M 2,32 C 2,10.4 10.4,2 32,2 53.6,2 62,10.4 62,32 62,53.6 53.6,62 32,62 10.4,62 2,53.6 2,32"
     id="path2"
     style="opacity:1;fill:#598cff;fill-opacity:1;stroke:none;stroke-width:0.3" />
  <path
     id="path2315"
     style="fill:#ffffff;fill-opacity:1;stroke-width:0.777773"
     d="M 32 11 A 6 6 0 0 0 26 17 A 6 6 0 0 0 32 23 A 6 6 0 0 0 38 17 A 6 6 0 0 0 32 11 z M 32 13 A 4 4 0 0 1 36 17 A 4 4 0 0 1 32 21 A 4 4 0 0 1 28 17 A 4 4 0 0 1 32 13 z M 32 25 C 26.477152 25 22 29.477153 22 35 L 23 35 L 24 35 L 40 35 L 41 35 L 42 35 C 42 29.477153 37.522847 25 32 25 z M 32 27 C 35.727922 27 38.860196 29.549203 39.748047 33 L 24.251953 33 C 25.139804 29.549203 28.272078 27 32 27 z M 15 41 C 13.892 41 13 41.892 13 43 L 13 49 C 13 50.108 13.892 51 15 51 L 49 51 C 50.108 51 51 50.108 51 49 L 51 43 C 51 41.892 50.108 41 49 41 L 15 41 z M 15 43 L 49 43 L 49 49 L 15 49 L 15 43 z M 17 45 L 17 47 L 19 47 L 19 45 L 17 45 z M 21 45 L 21 47 L 23 47 L 23 45 L 21 45 z M 25 45 L 25 47 L 27 47 L 27 45 L 25 45 z M 29 45 L 29 47 L 31 47 L 31 45 L 29 45 z " />
</svg>
