<?xml version="1.0" encoding="UTF-8" standalone="no"?>
<svg
   viewbox="0 0 200 200"
   version="1.1"
   id="svg4"
   sodipodi:docname="kdeconnect.svg"
   width="64"
   height="64"
   inkscape:version="1.1.1 (3bf5ae0d25, 2021-09-20, custom)"
   xmlns:inkscape="http://www.inkscape.org/namespaces/inkscape"
   xmlns:sodipodi="http://sodipodi.sourceforge.net/DTD/sodipodi-0.dtd"
   xmlns="http://www.w3.org/2000/svg"
   xmlns:svg="http://www.w3.org/2000/svg">
  <defs
     id="defs8" />
  <sodipodi:namedview
     id="namedview6"
     pagecolor="#ffffff"
     bordercolor="#666666"
     borderopacity="1.0"
     inkscape:pageshadow="2"
     inkscape:pageopacity="0.0"
     inkscape:pagecheckerboard="0"
     showgrid="false"
     inkscape:zoom="8"
     inkscape:cx="19.375"
     inkscape:cy="44.1875"
     inkscape:window-width="1920"
     inkscape:window-height="1000"
     inkscape:window-x="0"
     inkscape:window-y="0"
     inkscape:window-maximized="1"
     inkscape:current-layer="svg4"
     showguides="true" />
  <path
     d="M 2,32 C 2,10.4 10.4,2 32,2 53.6,2 62,10.4 62,32 62,53.6 53.6,62 32,62 10.4,62 2,53.6 2,32"
     id="path2"
     style="stroke-width:0.3;fill:#598cff;fill-opacity:1" />
  <path
     id="path60222"
     style="fill:#ffffff;fill-opacity:1;stroke:none;stroke-width:3.59999;stroke-linecap:butt;stroke-linejoin:round;stroke-miterlimit:4;stroke-dasharray:none"
     d="m 48,13 a 3.9999997,3.9999997 0 0 0 -3.865234,3 H 35.5 C 31.345001,16 28,19.344999 28,23.5 V 33 h -7 c -4.970563,0 -9,4.02944 -9,9 0,4.97056 4.029437,9 9,9 4.970563,0 9,-4.02944 9,-9 v -5 h -2 v 5 c 0,3.86599 -3.134007,7 -7,7 -3.865993,0 -7,-3.13401 -7,-7 0,-3.86599 3.134007,-7 7,-7 H 44.128906 A 3.9999999,3.9999999 0 0 0 48,38 3.9999999,3.9999999 0 0 0 52,34 3.9999999,3.9999999 0 0 0 48,30 3.9999999,3.9999999 0 0 0 44.128906,33 H 30 V 23.5 C 30,20.453002 32.453,18 35.5,18 h 8.634766 A 3.9999997,3.9999997 0 0 0 48,21 3.9999997,3.9999997 0 0 0 52,17 3.9999997,3.9999997 0 0 0 48,13 Z m 0,2 a 1.9999999,1.9999999 0 0 1 2,2 1.9999999,1.9999999 0 0 1 -2,2 1.9999999,1.9999999 0 0 1 -2,-2 1.9999999,1.9999999 0 0 1 2,-2 z m 0,17 a 1.9999999,1.9999999 0 0 1 2,2 1.9999999,1.9999999 0 0 1 -2,2 1.9999999,1.9999999 0 0 1 -2,-2 1.9999999,1.9999999 0 0 1 2,-2 z" />
</svg>
