<?xml version="1.0" encoding="UTF-8" standalone="no"?>
<svg
   viewbox="0 0 200 200"
   version="1.1"
   id="svg4"
   sodipodi:docname="mintlocale-im.svg"
   width="64"
   height="64"
   inkscape:version="1.1.1 (3bf5ae0d25, 2021-09-20, custom)"
   xmlns:inkscape="http://www.inkscape.org/namespaces/inkscape"
   xmlns:sodipodi="http://sodipodi.sourceforge.net/DTD/sodipodi-0.dtd"
   xmlns="http://www.w3.org/2000/svg"
   xmlns:svg="http://www.w3.org/2000/svg">
  <defs
     id="defs8" />
  <sodipodi:namedview
     id="namedview6"
     pagecolor="#ffffff"
     bordercolor="#666666"
     borderopacity="1.0"
     inkscape:pageshadow="2"
     inkscape:pageopacity="0.0"
     inkscape:pagecheckerboard="0"
     showgrid="false"
     inkscape:zoom="9.1570328"
     inkscape:cx="29.048711"
     inkscape:cy="32.597896"
     inkscape:window-width="1920"
     inkscape:window-height="1000"
     inkscape:window-x="0"
     inkscape:window-y="0"
     inkscape:window-maximized="1"
     inkscape:current-layer="svg4"
     showguides="false" />
  <path
     d="M 2,32 C 2,10.4 10.4,2 32,2 53.6,2 62,10.4 62,32 62,53.6 53.6,62 32,62 10.4,62 2,53.6 2,32"
     id="path2"
     style="stroke-width:0.3;fill:#28c7da;fill-opacity:1" />
  <path
     id="path946"
     style="fill:#ffffff;stroke-width:0;stroke-linecap:round;stroke-linejoin:round"
     d="M 32 13 A 19 19 0 0 0 31 13.072266 A 19 19 0 0 0 30.335938 13.119141 A 19 19 0 0 0 14.384766 25 A 19 19 0 0 0 13.693359 27 A 19 19 0 0 0 13 32 A 19 19 0 0 0 13.693359 37 A 19 19 0 0 0 14.384766 39 A 19 19 0 0 0 30.335938 50.880859 A 19 19 0 0 0 31 50.927734 A 19 19 0 0 0 32 51 A 19 19 0 0 0 33 50.927734 A 19 19 0 0 0 33.664062 50.880859 A 19 19 0 0 0 49.615234 39 A 19 19 0 0 0 50.306641 37 A 19 19 0 0 0 51 32 A 19 19 0 0 0 50.324219 27 A 19 19 0 0 0 50.322266 26.996094 A 19 19 0 0 0 49.658203 25 A 19 19 0 0 0 33.273438 13.048828 A 19 19 0 0 0 33 13.029297 A 19 19 0 0 0 32 13 z M 32 15 A 17 17 0 0 1 33.259766 15.052734 A 6 17 0 0 1 38.466797 25 L 25.542969 25 A 6 17 0 0 1 30.392578 15.126953 A 17 17 0 0 1 32 15 z M 37.113281 15.791016 A 17 17 0 0 1 47.488281 25 L 40.4375 25 A 8 19 0 0 0 37.113281 15.791016 z M 26.886719 15.798828 A 8 19 0 0 0 23.568359 25 L 16.554688 25 A 17 17 0 0 1 26.886719 15.798828 z M 15.771484 27 L 23.291016 27 A 8 19 0 0 0 23 32 A 8 19 0 0 0 23.291016 37 L 15.771484 37 A 17 17 0 0 1 15 32 A 17 17 0 0 1 15.771484 27 z M 25.277344 27 L 38.734375 27 A 6 17 0 0 1 39 32 A 6 17 0 0 1 38.722656 37 L 25.277344 37 A 6 17 0 0 1 25 32 A 6 17 0 0 1 25.277344 27 z M 40.716797 27 L 48.242188 27 A 17 17 0 0 1 49 32 A 17 17 0 0 1 48.228516 37 L 40.708984 37 A 8 19 0 0 0 41 32 A 8 19 0 0 0 40.716797 27 z M 16.554688 39 L 23.568359 39 A 8 19 0 0 0 26.886719 48.201172 A 17 17 0 0 1 16.554688 39 z M 25.542969 39 L 38.457031 39 A 6 17 0 0 1 33.607422 48.873047 A 17 17 0 0 1 32 49 A 17 17 0 0 1 30.392578 48.873047 A 6 17 0 0 1 25.542969 39 z M 40.431641 39 L 47.445312 39 A 17 17 0 0 1 37.113281 48.201172 A 8 19 0 0 0 40.431641 39 z " />
</svg>
