<?xml version="1.0" encoding="UTF-8" standalone="no"?>
<svg
   viewbox="0 0 200 200"
   version="1.1"
   id="svg4"
   sodipodi:docname="panel-separator.svg"
   width="64"
   height="64"
   inkscape:version="1.1.1 (3bf5ae0d25, 2021-09-20, custom)"
   xmlns:inkscape="http://www.inkscape.org/namespaces/inkscape"
   xmlns:sodipodi="http://sodipodi.sourceforge.net/DTD/sodipodi-0.dtd"
   xmlns="http://www.w3.org/2000/svg"
   xmlns:svg="http://www.w3.org/2000/svg">
  <defs
     id="defs8" />
  <sodipodi:namedview
     id="namedview6"
     pagecolor="#ffffff"
     bordercolor="#666666"
     borderopacity="1.0"
     inkscape:pageshadow="2"
     inkscape:pageopacity="0.0"
     inkscape:pagecheckerboard="0"
     showgrid="false"
     inkscape:zoom="11.313709"
     inkscape:cx="27.311998"
     inkscape:cy="32.83627"
     inkscape:window-width="1920"
     inkscape:window-height="1000"
     inkscape:window-x="0"
     inkscape:window-y="0"
     inkscape:window-maximized="1"
     inkscape:current-layer="svg4"
     showguides="false" />
  <path
     d="M 2,32 C 2,10.4 10.4,2 32,2 53.6,2 62,10.4 62,32 62,53.6 53.6,62 32,62 10.4,62 2,53.6 2,32"
     id="path2"
     style="stroke-width:0.3;fill:#28c7da;fill-opacity:1" />
  <path
     d="m 38,31.999784 h 13.530746 l -4.312607,4.31297 1.414064,1.414062 5.699325,-5.727032 c 0.504858,-0.476166 0.67207,-0.650428 0.667969,-1 0.0024,-0.362878 -0.302972,-0.669262 -0.671876,-1 l -5.695417,-5.72703 -1.414064,1.414062 4.312607,4.312968 H 38 Z"
     style="fill:#ffffff;fill-opacity:1;stroke-width:10;stroke-linecap:round;stroke-linejoin:round"
     id="path953"
     sodipodi:nodetypes="cccccccccccc" />
  <path
     d="M 26,31.999784 H 12.469254 l 4.312607,4.31297 -1.414064,1.414062 -5.699325,-5.727032 c -0.504858,-0.476166 -0.67207,-0.650428 -0.667969,-1 -0.0024,-0.362878 0.302972,-0.669262 0.671876,-1 l 5.695417,-5.72703 1.414064,1.414062 -4.312607,4.312968 H 26 Z"
     style="fill:#ffffff;fill-opacity:1;stroke-width:10;stroke-linecap:round;stroke-linejoin:round"
     id="path953-3"
     sodipodi:nodetypes="cccccccccccc" />
  <rect
     style="fill:#ffffff;stroke-width:2;stroke-linecap:square;stroke-linejoin:round"
     id="rect1306"
     width="2"
     height="38"
     x="31"
     y="13" />
</svg>
