<?xml version="1.0" encoding="UTF-8" standalone="no"?>
<svg
   viewbox="0 0 200 200"
   version="1.1"
   id="svg4"
   sodipodi:docname="panel.svg"
   width="64"
   height="64"
   inkscape:version="1.1.1 (3bf5ae0d25, 2021-09-20, custom)"
   xmlns:inkscape="http://www.inkscape.org/namespaces/inkscape"
   xmlns:sodipodi="http://sodipodi.sourceforge.net/DTD/sodipodi-0.dtd"
   xmlns="http://www.w3.org/2000/svg"
   xmlns:svg="http://www.w3.org/2000/svg">
  <defs
     id="defs8" />
  <sodipodi:namedview
     id="namedview6"
     pagecolor="#ffffff"
     bordercolor="#666666"
     borderopacity="1.0"
     inkscape:pageshadow="2"
     inkscape:pageopacity="0.0"
     inkscape:pagecheckerboard="0"
     showgrid="false"
     inkscape:zoom="8.0000004"
     inkscape:cx="31.374999"
     inkscape:cy="29.937499"
     inkscape:window-width="1920"
     inkscape:window-height="1000"
     inkscape:window-x="0"
     inkscape:window-y="0"
     inkscape:window-maximized="1"
     inkscape:current-layer="svg4"
     showguides="false" />
  <path
     d="M 2,32 C 2,10.4 10.4,2 32,2 53.6,2 62,10.4 62,32 62,53.6 53.6,62 32,62 10.4,62 2,53.6 2,32"
     id="path2"
     style="stroke-width:0.3;fill:#28c7da;fill-opacity:1" />
  <path
     id="path3817"
     style="color:#000000;fill:#ffffff;stroke:none;stroke-width:0.99356;stroke-linecap:round;stroke-linejoin:round;-inkscape-stroke:none"
     d="M 14 23 C 11.784 23 10 24.784 10 27 L 10 37 C 10 39.216 11.784 41 14 41 L 50 41 C 52.216 41 54 39.216 54 37 L 54 27 C 54 24.784 52.216 23 50 23 L 14 23 z M 14 25 L 26 25 L 26 39 L 14 39 C 12.892 39 12 38.108 12 37 L 12 27 C 12 25.892 12.892 25 14 25 z M 27.900391 25 L 50 25 C 51.108 25 52 25.892 52 27 L 52 37 C 52 38.108 51.108 39 50 39 L 27.900391 39 L 27.900391 25 z M 19 27 C 16.238576 27 14 29.238576 14 32 C 14 34.761424 16.238576 37 19 37 C 21.761424 37 24 34.761424 24 32 C 24 29.238576 21.761424 27 19 27 z M 19 29 C 20.656854 29 22 30.343146 22 32 C 22 33.656854 20.656854 35 19 35 C 17.343146 35 16 33.656854 16 32 C 16 30.343146 17.343146 29 19 29 z " />
</svg>
