<?xml version="1.0" encoding="UTF-8" standalone="no"?>
<svg
   viewbox="0 0 200 200"
   version="1.1"
   id="svg4"
   sodipodi:docname="preferences-desktop-sound.svg"
   width="64"
   height="64"
   inkscape:version="1.1.1 (3bf5ae0d25, 2021-09-20, custom)"
   xmlns:inkscape="http://www.inkscape.org/namespaces/inkscape"
   xmlns:sodipodi="http://sodipodi.sourceforge.net/DTD/sodipodi-0.dtd"
   xmlns="http://www.w3.org/2000/svg"
   xmlns:svg="http://www.w3.org/2000/svg">
  <defs
     id="defs8" />
  <sodipodi:namedview
     id="namedview6"
     pagecolor="#ffffff"
     bordercolor="#666666"
     borderopacity="1.0"
     inkscape:pageshadow="2"
     inkscape:pageopacity="0.0"
     inkscape:pagecheckerboard="0"
     showgrid="false"
     inkscape:zoom="11.313708"
     inkscape:cx="18.119611"
     inkscape:cy="42.470601"
     inkscape:window-width="1920"
     inkscape:window-height="1000"
     inkscape:window-x="0"
     inkscape:window-y="0"
     inkscape:window-maximized="1"
     inkscape:current-layer="svg4"
     showguides="false" />
  <path
     d="M 2,32 C 2,10.4 10.4,2 32,2 53.6,2 62,10.4 62,32 62,53.6 53.6,62 32,62 10.4,62 2,53.6 2,32"
     id="path2"
     style="stroke-width:0.3;fill:#748ddf;fill-opacity:1" />
  <path
     id="rect846"
     style="fill:#ffffff;stroke-width:0.499997;stroke-linecap:round;stroke-linejoin:round"
     d="M 43.9375 15.466797 L 42.550781 16.921875 A 19 19 0 0 1 50 32 A 19 19 0 0 1 42.533203 47.060547 L 43.908203 48.503906 A 21 21 0 0 0 52 32 A 21 21 0 0 0 43.9375 15.466797 z M 30.462891 16.904297 L 21.230469 26.136719 L 15.076172 26.136719 C 13.371503 26.136719 12 27.508221 12 29.212891 L 12 35.367188 C 12 37.071855 13.371503 38.443359 15.076172 38.443359 L 21.230469 38.443359 L 30.462891 47.675781 L 30.462891 16.904297 z M 36.693359 20.306641 L 35.246094 21.753906 A 12 12 0 0 1 41 32 A 12 12 0 0 1 35.21875 42.21875 L 36.6875 43.6875 A 14 14 0 0 0 43 32 A 14 14 0 0 0 36.693359 20.306641 z M 28.462891 21.904297 L 28.462891 42.675781 L 22.5 36.443359 L 14.947266 36.443359 C 14.394981 36.443359 13.947266 35.995644 13.947266 35.443359 L 13.947266 29.136719 C 13.947266 28.584434 14.394981 28.136719 14.947266 28.136719 L 22.5 28.136719 L 28.462891 21.904297 z " />
</svg>
