<?xml version="1.0" encoding="UTF-8" standalone="no"?>
<svg
   viewbox="0 0 200 200"
   version="1.1"
   id="svg4"
   sodipodi:docname="preferences-desktop-screensaver.svg"
   width="64"
   height="64"
   inkscape:version="1.1.1 (3bf5ae0d25, 2021-09-20, custom)"
   xmlns:inkscape="http://www.inkscape.org/namespaces/inkscape"
   xmlns:sodipodi="http://sodipodi.sourceforge.net/DTD/sodipodi-0.dtd"
   xmlns="http://www.w3.org/2000/svg"
   xmlns:svg="http://www.w3.org/2000/svg">
  <defs
     id="defs8" />
  <sodipodi:namedview
     id="namedview6"
     pagecolor="#ffffff"
     bordercolor="#666666"
     borderopacity="1.0"
     inkscape:pageshadow="2"
     inkscape:pageopacity="0.0"
     inkscape:pagecheckerboard="0"
     showgrid="false"
     inkscape:zoom="6.475"
     inkscape:cx="20.07722"
     inkscape:cy="43.938224"
     inkscape:window-width="1920"
     inkscape:window-height="1000"
     inkscape:window-x="0"
     inkscape:window-y="0"
     inkscape:window-maximized="1"
     inkscape:current-layer="svg4"
     showguides="false" />
  <path
     d="M 2,32 C 2,10.4 10.4,2 32,2 53.6,2 62,10.4 62,32 62,53.6 53.6,62 32,62 10.4,62 2,53.6 2,32"
     id="path2"
     style="stroke-width:0.3;fill:#698c99;fill-opacity:1" />
  <path
     id="path3817"
     style="color:#000000;fill:#ffffff;stroke:none;stroke-width:0.99356;stroke-linecap:round;stroke-linejoin:round;-inkscape-stroke:none"
     d="M 16 17 C 13.784 17 12 18.784 12 21 L 12 43 C 12 45.216 13.784 47 16 47 L 48 47 C 50.216 47 52 45.216 52 43 L 52 21 C 52 18.784 50.216 17 48 17 L 16 17 z M 16 19 L 48 19 C 49.108 19 50 19.892 50 21 L 50 43 C 50 44.108 49.108 45 48 45 L 16 45 C 14.892 45 14 44.108 14 43 L 14 21 C 14 19.892 14.892 19 16 19 z M 30.427734 23.140625 C 26.207026 23.884502 23 27.565955 23 32 C 23 36.970563 27.029437 41 32 41 C 35.179521 41 37.971252 39.348557 39.572266 36.859375 C 39.061561 36.949384 38.536518 37 38 37 C 33.029437 37 29 32.970563 29 28 C 29 26.208958 29.525874 24.542796 30.427734 23.140625 z M 27.259766 26.849609 C 27.090862 27.53861 27 28.258925 27 29 C 27 33.843413 30.826567 37.791327 35.621094 37.990234 C 34.564338 38.630533 33.325815 39 32 39 C 28.134007 39 25 35.865993 25 32 C 25 29.962601 25.870499 28.128834 27.259766 26.849609 z " />
</svg>
