<?xml version="1.0" encoding="UTF-8" standalone="no"?>
<svg
   viewbox="0 0 200 200"
   version="1.1"
   id="svg4"
   sodipodi:docname="preferences-system-windows-tiling.svg"
   width="64"
   height="64"
   inkscape:version="1.1.1 (3bf5ae0d25, 2021-09-20, custom)"
   xmlns:inkscape="http://www.inkscape.org/namespaces/inkscape"
   xmlns:sodipodi="http://sodipodi.sourceforge.net/DTD/sodipodi-0.dtd"
   xmlns="http://www.w3.org/2000/svg"
   xmlns:svg="http://www.w3.org/2000/svg">
  <defs
     id="defs8" />
  <sodipodi:namedview
     id="namedview6"
     pagecolor="#ffffff"
     bordercolor="#666666"
     borderopacity="1.0"
     inkscape:pageshadow="2"
     inkscape:pageopacity="0.0"
     inkscape:pagecheckerboard="0"
     showgrid="false"
     inkscape:zoom="18.314066"
     inkscape:cx="26.427775"
     inkscape:cy="29.785849"
     inkscape:window-width="1920"
     inkscape:window-height="1000"
     inkscape:window-x="0"
     inkscape:window-y="0"
     inkscape:window-maximized="1"
     inkscape:current-layer="svg4"
     showguides="false" />
  <path
     d="M 2,32 C 2,10.4 10.4,2 32,2 53.6,2 62,10.4 62,32 62,53.6 53.6,62 32,62 10.4,62 2,53.6 2,32"
     id="path2"
     style="stroke-width:0.3;fill:#9a9fb2;fill-opacity:1" />
  <path
     id="rect1178"
     style="fill:#ffffff"
     d="M 15 16 C 13.338 16 12 17.338 12 19 L 12 45 C 12 46.662 13.338 48 15 48 L 28 48 C 29.662 48 31 46.662 31 45 L 31 19 C 31 17.338 29.662 16 28 16 L 15 16 z M 36 16 C 34.338 16 33 17.338 33 19 L 33 28 C 33 29.662 34.338 31 36 31 L 49 31 C 50.662 31 52 29.662 52 28 L 52 19 C 52 17.338 50.662 16 49 16 L 36 16 z M 15 18 L 28 18 C 28.554 18 29 18.446 29 19 L 29 45 C 29 45.554 28.554 46 28 46 L 15 46 C 14.446 46 14 45.554 14 45 L 14 19 C 14 18.446 14.446 18 15 18 z M 36 18 L 49 18 C 49.554 18 50 18.446 50 19 L 50 28 C 50 28.554 49.554 29 49 29 L 36 29 C 35.446 29 35 28.554 35 28 L 35 19 C 35 18.446 35.446 18 36 18 z M 36 33 C 34.338 33 33 34.338 33 36 L 33 45 C 33 46.662 34.338 48 36 48 L 49 48 C 50.662 48 52 46.662 52 45 L 52 36 C 52 34.338 50.662 33 49 33 L 36 33 z M 36 35 L 49 35 C 49.554 35 50 35.446 50 36 L 50 45 C 50 45.554 49.554 46 49 46 L 36 46 C 35.446 46 35 45.554 35 45 L 35 36 C 35 35.446 35.446 35 36 35 z " />
</svg>
