<?xml version="1.0" encoding="UTF-8" standalone="no"?>
<svg
   viewbox="0 0 200 200"
   version="1.1"
   id="svg4"
   sodipodi:docname="preferences-plugins.svg"
   width="64"
   height="64"
   inkscape:version="1.1.1 (3bf5ae0d25, 2021-09-20, custom)"
   xmlns:inkscape="http://www.inkscape.org/namespaces/inkscape"
   xmlns:sodipodi="http://sodipodi.sourceforge.net/DTD/sodipodi-0.dtd"
   xmlns="http://www.w3.org/2000/svg"
   xmlns:svg="http://www.w3.org/2000/svg">
  <defs
     id="defs8" />
  <sodipodi:namedview
     id="namedview6"
     pagecolor="#ffffff"
     bordercolor="#666666"
     borderopacity="1.0"
     inkscape:pageshadow="2"
     inkscape:pageopacity="0.0"
     inkscape:pagecheckerboard="0"
     showgrid="false"
     inkscape:zoom="12.95"
     inkscape:cx="31.969112"
     inkscape:cy="32.007722"
     inkscape:window-width="1920"
     inkscape:window-height="1000"
     inkscape:window-x="0"
     inkscape:window-y="0"
     inkscape:window-maximized="1"
     inkscape:current-layer="svg4"
     showguides="false" />
  <path
     d="M 2,32 C 2,10.4 10.4,2 32,2 53.6,2 62,10.4 62,32 62,53.6 53.6,62 32,62 10.4,62 2,53.6 2,32"
     id="path2"
     style="stroke-width:0.3;fill:#ff4d74;fill-opacity:1" />
  <path
     id="path3817"
     style="color:#000000;fill:#ffffff;stroke:none;stroke-width:0.99356;stroke-linecap:round;stroke-linejoin:round;-inkscape-stroke:none"
     d="M 17 13 C 14.784 13 13 14.784 13 17 L 13 47 C 13 49.216 14.784 51 17 51 L 47 51 C 49.216 51 51 49.216 51 47 L 51 17 C 51 14.784 49.216 13 47 13 L 17 13 z M 17 15 L 31 15 L 31 21.958984 L 31.300781 21.958984 A 2 2 0 0 1 33 21 A 2 2 0 0 1 35 23 A 2 2 0 0 1 33 25 A 2 2 0 0 1 31.255859 23.958984 L 31 23.958984 L 31 26.453125 L 31 31 L 15 31 L 15 17 C 15 15.892 15.892 15 17 15 z M 33 15 L 47 15 C 48.108 15 49 15.892 49 17 L 49 31 L 33 31 L 33 27 A 4 4 0 0 0 37 23 A 4 4 0 0 0 33 19 L 33 15 z M 15 33 L 31 33 L 31 37 A 4 4 0 0 0 27 41 A 4 4 0 0 0 31 45 L 31 49 L 17 49 C 15.892 49 15 48.108 15 47 L 15 33 z M 33 33 L 49 33 L 49 47 C 49 48.108 48.108 49 47 49 L 33 49 L 33 44.453125 L 33 41.958984 L 32.744141 41.958984 A 2 2 0 0 1 31 43 A 2 2 0 0 1 29 41 A 2 2 0 0 1 31 39 A 2 2 0 0 1 32.699219 39.958984 L 33 39.958984 L 33 33 z " />
</svg>
