<?xml version="1.0" encoding="UTF-8" standalone="no"?>
<svg
   viewbox="0 0 200 200"
   version="1.1"
   id="svg4"
   sodipodi:docname="preferences-other.svg"
   width="64"
   height="64"
   inkscape:version="1.1.1 (3bf5ae0d25, 2021-09-20, custom)"
   xmlns:inkscape="http://www.inkscape.org/namespaces/inkscape"
   xmlns:sodipodi="http://sodipodi.sourceforge.net/DTD/sodipodi-0.dtd"
   xmlns="http://www.w3.org/2000/svg"
   xmlns:svg="http://www.w3.org/2000/svg">
  <defs
     id="defs8" />
  <sodipodi:namedview
     id="namedview6"
     pagecolor="#ffffff"
     bordercolor="#666666"
     borderopacity="1.0"
     inkscape:pageshadow="2"
     inkscape:pageopacity="0.0"
     inkscape:pagecheckerboard="0"
     showgrid="false"
     inkscape:zoom="12.140625"
     inkscape:cx="16.803089"
     inkscape:cy="32"
     inkscape:window-width="1920"
     inkscape:window-height="1000"
     inkscape:window-x="0"
     inkscape:window-y="0"
     inkscape:window-maximized="1"
     inkscape:current-layer="svg4"
     showguides="true" />
  <path
     d="M 2,32 C 2,10.4 10.4,2 32,2 53.6,2 62,10.4 62,32 62,53.6 53.6,62 32,62 10.4,62 2,53.6 2,32"
     id="path2"
     style="stroke-width:0.3;fill:#9a9fb2;fill-opacity:1" />
  <path
     id="rect1455"
     style="fill:#ffffff;fill-opacity:1;stroke-width:4;stroke-linecap:round;stroke-linejoin:round"
     d="M 24 14 A 4 4 0 0 0 20.134766 17 L 13 17 L 13 19 L 20.134766 19 A 4 4 0 0 0 24 22 A 4 4 0 0 0 27.865234 19 L 51 19 L 51 17 L 27.873047 17 A 4 4 0 0 0 24 14 z M 24 16 A 2 2 0 0 1 26 18 A 2 2 0 0 1 24 20 A 2 2 0 0 1 22 18 A 2 2 0 0 1 24 16 z M 40 28 A 4 4 0 0 0 36.134766 31 L 13 31 L 13 33 L 36.134766 33 A 4 4 0 0 0 40 36 A 4 4 0 0 0 43.865234 33 L 51 33 L 51 31 L 43.873047 31 A 4 4 0 0 0 40 28 z M 40 30 A 2 2 0 0 1 42 32 A 2 2 0 0 1 40 34 A 2 2 0 0 1 38 32 A 2 2 0 0 1 40 30 z M 24 42 A 4 4 0 0 0 20.134766 45 L 13 45 L 13 47 L 20.134766 47 A 4 4 0 0 0 24 50 A 4 4 0 0 0 27.865234 47 L 51 47 L 51 45 L 27.873047 45 A 4 4 0 0 0 24 42 z M 24 44 A 2 2 0 0 1 26 46 A 2 2 0 0 1 24 48 A 2 2 0 0 1 22 46 A 2 2 0 0 1 24 44 z " />
</svg>
