<?xml version="1.0" encoding="UTF-8" standalone="no"?>
<svg
   viewbox="0 0 200 200"
   version="1.1"
   id="svg4"
   sodipodi:docname="preferences-desktop-theme.svg"
   width="64"
   height="64"
   inkscape:version="1.1.1 (3bf5ae0d25, 2021-09-20, custom)"
   xmlns:inkscape="http://www.inkscape.org/namespaces/inkscape"
   xmlns:sodipodi="http://sodipodi.sourceforge.net/DTD/sodipodi-0.dtd"
   xmlns="http://www.w3.org/2000/svg"
   xmlns:svg="http://www.w3.org/2000/svg">
  <defs
     id="defs8" />
  <sodipodi:namedview
     id="namedview6"
     pagecolor="#ffffff"
     bordercolor="#666666"
     borderopacity="1.0"
     inkscape:pageshadow="2"
     inkscape:pageopacity="0.0"
     inkscape:pagecheckerboard="0"
     showgrid="false"
     inkscape:zoom="9.1570328"
     inkscape:cx="29.048711"
     inkscape:cy="44.938138"
     inkscape:window-width="1920"
     inkscape:window-height="1000"
     inkscape:window-x="0"
     inkscape:window-y="0"
     inkscape:window-maximized="1"
     inkscape:current-layer="svg4"
     showguides="false" />
  <path
     d="M 2,32 C 2,10.4 10.4,2 32,2 53.6,2 62,10.4 62,32 62,53.6 53.6,62 32,62 10.4,62 2,53.6 2,32"
     id="path2"
     style="stroke-width:0.3;fill:#ee8ecc;fill-opacity:1" />
  <path
     id="rect27248"
     style="fill:#ffffff;fill-opacity:0.996078;stroke-width:3.99999;stroke-linecap:round;stroke-linejoin:round"
     d="m 19,14 c -1.108003,0 -2,0.891999 -2,2 v 20 c 0,1.108 0.53877,1.582507 2,2 l 7,2 c 3.251337,2.014738 -0.48354,7.202821 1,10 0.735696,1.186768 1.70068,2.975811 5,3 3.29932,-0.02419 4.264304,-1.813232 5,-3 1.48354,-2.797179 -2.251337,-7.985262 1,-10 l 7,-2 c 1.46123,-0.417494 2,-0.892 2,-2 V 16 c 0,-1.108001 -0.891997,-2 -2,-2 H 32 Z m 0,2 h 3 v 6 h 2 v -6 h 3 v 6 h 2 v -6 h 3 6 v 6 h 2 v -6 h 5 V 26 H 19 Z m 0,12 h 26 v 7.5 c -3.41133,2.150155 -4.962781,1.254994 -8.5,3 -1.563704,0.859877 -2.363862,3.470612 -1.5,6 1.31066,3.837608 -0.549453,6.482405 -3,6.5 -2.38682,-0.02912 -4.31066,-2.662392 -3,-6.5 0.863862,-2.529388 0.0637,-5.140123 -1.5,-6 -3.537219,-1.745005 -5.08867,-0.849845 -8.5,-3 z"
     sodipodi:nodetypes="sssscccccsssscsccccccccccccccccccccccscsccc" />
</svg>
