<?xml version="1.0" encoding="UTF-8" standalone="no"?>
<svg
   viewbox="0 0 200 200"
   version="1.1"
   id="svg4"
   sodipodi:docname="preferences-system-search.svg"
   width="64"
   height="64"
   inkscape:version="1.1.1 (3bf5ae0d25, 2021-09-20, custom)"
   xmlns:inkscape="http://www.inkscape.org/namespaces/inkscape"
   xmlns:sodipodi="http://sodipodi.sourceforge.net/DTD/sodipodi-0.dtd"
   xmlns="http://www.w3.org/2000/svg"
   xmlns:svg="http://www.w3.org/2000/svg">
  <defs
     id="defs8" />
  <sodipodi:namedview
     id="namedview6"
     pagecolor="#ffffff"
     bordercolor="#666666"
     borderopacity="1.0"
     inkscape:pageshadow="2"
     inkscape:pageopacity="0.0"
     inkscape:pagecheckerboard="0"
     showgrid="false"
     inkscape:zoom="9.1570328"
     inkscape:cx="23.806838"
     inkscape:cy="40.788322"
     inkscape:window-width="1920"
     inkscape:window-height="1000"
     inkscape:window-x="0"
     inkscape:window-y="0"
     inkscape:window-maximized="1"
     inkscape:current-layer="svg4"
     showguides="false" />
  <path
     d="M 2,32 C 2,10.4 10.4,2 32,2 53.6,2 62,10.4 62,32 62,53.6 53.6,62 32,62 10.4,62 2,53.6 2,32"
     id="path2"
     style="stroke-width:0.3;fill:#598cff;fill-opacity:1" />
  <path
     id="path844"
     style="fill:#ffffff;stroke-width:2;stroke-linecap:square;stroke-linejoin:round"
     d="m 16.807613,16.807611 c -5.076817,5.076816 -5.076817,13.307962 0,18.384778 4.805819,4.78093 12.478673,5.06649 17.626569,0.656007 L 47.455845,48.870059 48.870058,47.455845 35.848397,34.434183 c 4.410484,-5.147896 4.124923,-12.82075 -0.656007,-17.62657 -5.076815,-5.076817 -13.307961,-5.076818 -18.384777,-2e-6 z m 1.414213,1.414215 c 4.295767,-4.295767 11.260582,-4.295767 15.556349,0 4.295768,4.295767 4.295768,11.260582 1e-6,15.55635 -4.295767,4.295767 -11.260582,4.295766 -15.556349,-1e-6 -4.295767,-4.295767 -4.295768,-11.260582 -1e-6,-15.556349 z"
     sodipodi:nodetypes="sccccccssssss" />
</svg>
