<?xml version="1.0" encoding="UTF-8" standalone="no"?>
<svg
   viewbox="0 0 200 200"
   version="1.1"
   id="svg4"
   sodipodi:docname="preferences-desktop-tablet.svg"
   width="64"
   height="64"
   inkscape:version="1.1.1 (3bf5ae0d25, 2021-09-20, custom)"
   xmlns:inkscape="http://www.inkscape.org/namespaces/inkscape"
   xmlns:sodipodi="http://sodipodi.sourceforge.net/DTD/sodipodi-0.dtd"
   xmlns="http://www.w3.org/2000/svg"
   xmlns:svg="http://www.w3.org/2000/svg">
  <defs
     id="defs8" />
  <sodipodi:namedview
     id="namedview6"
     pagecolor="#ffffff"
     bordercolor="#666666"
     borderopacity="1.0"
     inkscape:pageshadow="2"
     inkscape:pageopacity="0.0"
     inkscape:pagecheckerboard="0"
     showgrid="false"
     inkscape:zoom="1"
     inkscape:cx="39"
     inkscape:cy="38.5"
     inkscape:window-width="1920"
     inkscape:window-height="1000"
     inkscape:window-x="0"
     inkscape:window-y="0"
     inkscape:window-maximized="1"
     inkscape:current-layer="svg4"
     showguides="true" />
  <path
     d="M 2,32 C 2,10.4 10.4,2 32,2 53.6,2 62,10.4 62,32 62,53.6 53.6,62 32,62 10.4,62 2,53.6 2,32"
     id="path2"
     style="stroke-width:0.3;fill:#777c8f;fill-opacity:1" />
  <path
     id="rect844"
     style="fill:#ffffff;stroke-width:1.99995;stroke-linecap:round;stroke-linejoin:round"
     d="m 52.363281,23 c -0.511225,2.7e-5 -1.022314,0.196143 -1.414062,0.587891 l -0.707031,0.707031 -1.414063,1.414062 -9.900391,9.900391 c -0.09947,0.09946 -0.178813,0.220577 -0.230468,0.361328 l -2.121094,6.363281 c -0.295399,0.800798 0.484357,1.578602 1.285156,1.283204 l 6.361328,-2.119141 c 0.140799,-0.05182 0.263864,-0.132779 0.363282,-0.232422 0.01512,-0.01516 0.03088,-0.03086 0.04492,-0.04687 l 7.025391,-7.025391 1.414062,-1.414062 3.535157,-3.535156 c 0.783496,-0.783495 0.783413,-2.044712 0,-2.828125 l -2.828124,-2.82813 C 53.385636,23.196184 52.874507,22.999973 52.363281,23 Z m 0,2.001953 2.828125,2.828125 -2.121094,2.121094 -2.828124,-2.828125 1.414062,-1.414063 z m -3.535156,3.535156 2.828125,2.828125 -1.414062,1.414063 -7.072266,7.072265 -2.160156,0.746094 -2.16211,0.75 0.748047,-2.164062 0.746094,-2.160156 z" />
  <path
     id="rect4529"
     style="fill:#ffffff;fill-opacity:1;stroke:none;stroke-width:2;stroke-linecap:round;stroke-linejoin:round;stroke-miterlimit:4;stroke-dasharray:none"
     d="m 16,16 c -2.216,0 -4,1.784 -4,4 v 24 c 0,2.216 1.784,4 4,4 h 32 c 2.216,0 4,-1.784 4,-4 v -6 l -2,2 v 4 c 0,1.108 -0.892,2 -2,2 H 16 c -1.108,0 -2,-0.892 -2,-2 V 20 c 0,-1.108 0.892,-2 2,-2 h 32 c 1.108,0 2,0.892 2,2 v 2 l 2,-2 c 0,-2.216 -1.784,-4 -4,-4 z"
     sodipodi:nodetypes="ssssssccssssssscccss" />
</svg>
