<?xml version="1.0" encoding="UTF-8" standalone="no"?>
<svg
   viewbox="0 0 200 200"
   version="1.1"
   id="svg4"
   sodipodi:docname="preferences-desktop-default-applications.svg"
   width="64"
   height="64"
   inkscape:version="1.1.1 (3bf5ae0d25, 2021-09-20, custom)"
   xmlns:inkscape="http://www.inkscape.org/namespaces/inkscape"
   xmlns:sodipodi="http://sodipodi.sourceforge.net/DTD/sodipodi-0.dtd"
   xmlns="http://www.w3.org/2000/svg"
   xmlns:svg="http://www.w3.org/2000/svg">
  <defs
     id="defs8" />
  <sodipodi:namedview
     id="namedview6"
     pagecolor="#ffffff"
     bordercolor="#666666"
     borderopacity="1.0"
     inkscape:pageshadow="2"
     inkscape:pageopacity="0.0"
     inkscape:pagecheckerboard="0"
     showgrid="false"
     inkscape:zoom="12.95"
     inkscape:cx="31.969112"
     inkscape:cy="32.007722"
     inkscape:window-width="1920"
     inkscape:window-height="1000"
     inkscape:window-x="0"
     inkscape:window-y="0"
     inkscape:window-maximized="1"
     inkscape:current-layer="svg4" />
  <path
     d="M 2,32 C 2,10.4 10.4,2 32,2 53.6,2 62,10.4 62,32 62,53.6 53.6,62 32,62 10.4,62 2,53.6 2,32"
     id="path2"
     style="stroke-width:0.3;fill:#28c7da;fill-opacity:1" />
  <path
     style="color:#000000;fill:#ffffff;stroke-width:0.501065;stroke-linecap:round;stroke-linejoin:round;-inkscape-stroke:none;stroke:none"
     d="m 32.064852,13.000057 c -0.705875,-0.0055 -1.362083,0.387497 -1.683682,1.018303 l -5.277853,10.46216 -11.522845,1.679221 -10e-4,0.001 c -1.463291,0.198879 -2.116189,2.126759 -1.058426,3.160452 l 9.095226,7.512303 -2.894762,11.910658 0.001,-0.001 c -0.266456,1.457952 1.375154,2.65277 2.693106,1.982857 l 10.509093,-6.293624 10.470872,6.363987 v -10e-4 c 1.306968,0.692025 2.967654,-0.475614 2.725447,-1.937903 l -2.81538,-11.923363 9.153038,-7.455621 v -0.001 c 1.073925,-1.016583 0.452365,-2.953987 -1.007465,-3.176089 h -10e-4 L 38.937496,24.542088 33.731874,14.043769 c -0.311507,-0.634957 -0.961004,-1.0377 -1.666042,-1.043712 h -10e-4 z m -0.01666,2.165604 5.317345,10.726998 c 0.14454,0.295118 0.42509,0.500737 0.750698,0.550196 l 11.740111,1.792581 -9.317682,7.611983 c -0.241746,0.228454 -0.354093,0.561614 -0.299888,0.889305 l 2.855562,12.162791 -10.690397,-6.479303 c -0.289144,-0.152654 -0.634756,-0.155192 -0.926123,-0.0068 L 20.74822,48.818443 23.686104,36.669334 c 0.05929,-0.32647 -0.04753,-0.66102 -0.285188,-0.893214 l -9.25693,-7.672572 11.750211,-1.710492 c 0.326258,-0.04409 0.610081,-0.244947 0.759518,-0.537492 z"
     id="path962"
     sodipodi:nodetypes="cccccccccccccccccccccccccccccccccccccccc" />
</svg>
