<?xml version="1.0" encoding="UTF-8" standalone="no"?>
<svg
   viewbox="0 0 200 200"
   version="1.1"
   id="svg4"
   sodipodi:docname="preferences-desktop-printer.svg"
   width="64"
   height="64"
   inkscape:version="1.1.1 (3bf5ae0d25, 2021-09-20, custom)"
   xmlns:inkscape="http://www.inkscape.org/namespaces/inkscape"
   xmlns:sodipodi="http://sodipodi.sourceforge.net/DTD/sodipodi-0.dtd"
   xmlns="http://www.w3.org/2000/svg"
   xmlns:svg="http://www.w3.org/2000/svg">
  <defs
     id="defs8" />
  <sodipodi:namedview
     id="namedview6"
     pagecolor="#ffffff"
     bordercolor="#666666"
     borderopacity="1.0"
     inkscape:pageshadow="2"
     inkscape:pageopacity="0.0"
     inkscape:pagecheckerboard="0"
     showgrid="false"
     inkscape:zoom="12.140625"
     inkscape:cx="31.958816"
     inkscape:cy="32"
     inkscape:window-width="1920"
     inkscape:window-height="1000"
     inkscape:window-x="0"
     inkscape:window-y="0"
     inkscape:window-maximized="1"
     inkscape:current-layer="svg4"
     showguides="false" />
  <path
     d="M 2,32 C 2,10.4 10.4,2 32,2 53.6,2 62,10.4 62,32 62,53.6 53.6,62 32,62 10.4,62 2,53.6 2,32"
     id="path2"
     style="stroke-width:0.3;fill:#777c8f;fill-opacity:1" />
  <path
     id="rect2196"
     style="fill:#ffffff;fill-opacity:1;stroke-width:2;stroke-linecap:round;stroke-linejoin:round"
     d="m 20,13 c -1.108,0 -2,0.892 -2,2 v 14 h -3 c -2.216,0 -4,1.784 -4,4 v 14 c 0,2.216 1.784,4 4,4 h 34 c 2.216,0 4,-1.784 4,-4 V 33 c 0,-2.216 -1.784,-4 -4,-4 h -3 v -7 c -5.1e-5,-0.265199 -0.105433,-0.519519 -0.292969,-0.707031 L 38,14 c -0.555416,-0.543049 -1.524288,-0.991986 -2.5,-1 l -1,0.0039 V 13 Z m 0,2 h 15 1 v 7 c 5.5e-5,0.552262 0.447738,0.999945 1,1 h 7 v 6 H 20 Z M 38,16.414062 42.585938,21 H 38 Z M 15,31 h 34 c 1.108,0 2,0.892 2,2 v 14 c 0,1.108 -0.892,2 -2,2 h -4 v -7 c 0,-1.662 -1.338,-3 -3,-3 H 22 c -1.662,0 -3,1.338 -3,3 v 7 h -4 c -1.108,0 -2,-0.892 -2,-2 V 33 c 0,-1.108 0.892,-2 2,-2 z m 7.5,10 h 19 c 0.831,0 1.319731,0.688789 1.5,1.5 V 49 H 21 V 42.5 C 21,41.669 21.669,41 22.5,41 Z" />
</svg>
