<?xml version="1.0" encoding="UTF-8" standalone="no"?>
<svg
   viewbox="0 0 200 200"
   version="1.1"
   id="svg4"
   sodipodi:docname="preferences-system-privacy.svg"
   width="64"
   height="64"
   inkscape:version="1.1.1 (3bf5ae0d25, 2021-09-20, custom)"
   xmlns:inkscape="http://www.inkscape.org/namespaces/inkscape"
   xmlns:sodipodi="http://sodipodi.sourceforge.net/DTD/sodipodi-0.dtd"
   xmlns="http://www.w3.org/2000/svg"
   xmlns:svg="http://www.w3.org/2000/svg">
  <defs
     id="defs8" />
  <sodipodi:namedview
     id="namedview6"
     pagecolor="#ffffff"
     bordercolor="#666666"
     borderopacity="1.0"
     inkscape:pageshadow="2"
     inkscape:pageopacity="0.0"
     inkscape:pagecheckerboard="0"
     showgrid="false"
     inkscape:zoom="5.6568542"
     inkscape:cx="-8.3085048"
     inkscape:cy="40.747029"
     inkscape:window-width="1920"
     inkscape:window-height="1000"
     inkscape:window-x="0"
     inkscape:window-y="0"
     inkscape:window-maximized="1"
     inkscape:current-layer="svg4"
     showguides="false" />
  <path
     d="M 2,32 C 2,10.4 10.4,2 32,2 53.6,2 62,10.4 62,32 62,53.6 53.6,62 32,62 10.4,62 2,53.6 2,32"
     id="path2"
     style="stroke-width:0.3;fill:#9f8ee4;fill-opacity:1;stroke:none" />
  <path
     id="rect975"
     style="fill:#ffffff;stroke-width:0.512805;stroke-linecap:round;stroke-linejoin:round"
     d="M 32 11 C 25.923756 13.502256 21.431177 14.82043 14 13 L 14 38 C 17.266857 52.382296 32 55 32 55 C 32 55 46.733143 52.382296 50 38 L 50 13 C 42.568823 14.82043 38.076244 13.502256 32 11 z M 32 13 C 36.803104 15.574297 44.33598 16.467721 48 15 L 48 38 C 44.652768 50.877794 32 53 32 53 C 32 53 19.854068 50.774034 16 38 L 16 15 C 19.66402 16.467721 27.196896 15.574297 32 13 z M 32 19 C 28.686292 19 26 21.686292 26 25 C 26 28.313708 28.686292 31 32 31 C 35.313708 31 38 28.313708 38 25 C 38 21.686292 35.313708 19 32 19 z M 32 21 C 34.209139 21 36 22.790861 36 25 C 36 27.209139 34.209139 29 32 29 C 29.790861 29 28 27.209139 28 25 C 28 22.790861 29.790861 21 32 21 z M 32 33 C 26.477152 33 22 37.477153 22 43 L 42 43 C 42 37.477153 37.522847 33 32 33 z M 32 35 C 35.727922 35 38.860196 37.549203 39.748047 41 L 24.251953 41 C 25.139804 37.549203 28.272078 35 32 35 z " />
</svg>
