<?xml version="1.0" encoding="UTF-8" standalone="no"?>
<svg
   viewbox="0 0 200 200"
   version="1.1"
   id="svg4"
   sodipodi:docname="preferences-desktop-display-color.svg"
   width="64"
   height="64"
   inkscape:version="1.1.1 (3bf5ae0d25, 2021-09-20, custom)"
   xmlns:inkscape="http://www.inkscape.org/namespaces/inkscape"
   xmlns:sodipodi="http://sodipodi.sourceforge.net/DTD/sodipodi-0.dtd"
   xmlns="http://www.w3.org/2000/svg"
   xmlns:svg="http://www.w3.org/2000/svg">
  <defs
     id="defs8" />
  <sodipodi:namedview
     id="namedview6"
     pagecolor="#ffffff"
     bordercolor="#666666"
     borderopacity="1.0"
     inkscape:pageshadow="2"
     inkscape:pageopacity="0.0"
     inkscape:pagecheckerboard="0"
     showgrid="false"
     inkscape:zoom="5.6568542"
     inkscape:cx="42.603184"
     inkscape:cy="42.691572"
     inkscape:window-width="1920"
     inkscape:window-height="1000"
     inkscape:window-x="0"
     inkscape:window-y="0"
     inkscape:window-maximized="1"
     inkscape:current-layer="svg4"
     showguides="true" />
  <path
     d="M 2,32 C 2,10.4 10.4,2 32,2 53.6,2 62,10.4 62,32 62,53.6 53.6,62 32,62 10.4,62 2,53.6 2,32"
     id="path2"
     style="stroke-width:0.3;fill:#9cb957;fill-opacity:1" />
  <path
     id="path854"
     style="fill:#ffffff;stroke-width:2;stroke-linecap:square;stroke-linejoin:round"
     d="m 32,12 c -6.627417,0 -12,5.372583 -12,12 0,1.436736 0.253764,2.814959 0.716797,4.091797 A 12,12 0 0 0 10,40 12,12 0 0 0 22,52 12,12 0 0 0 31.994141,46.623047 C 34.142964,49.862547 37.82137,52 42,52 48.627417,52 54,46.627417 54,40 54,33.808972 49.310996,28.714574 43.291016,28.070312 43.749122,26.799487 44,25.428711 44,24 44,17.372583 38.627417,12 32,12 Z m 0,2 A 10,10 0 0 1 42,24 10,10 0 0 1 32,34 10,10 0 0 1 22,24 10,10 0 0 1 32,14 Z m 10.929688,14.953125 c -0.02284,0.05008 -0.04485,0.100687 -0.06836,0.150391 0.02344,-0.0498 0.04559,-0.100223 0.06836,-0.150391 z m -0.544922,1.056641 C 47.728697,30.212617 52,34.606425 52,40 52,45.522847 47.522848,50 42,50 36.477154,50 32,45.522847 32,40 c 0,-1.435548 0.304891,-2.799218 0.849609,-4.033203 4.078211,-0.285709 7.592564,-2.607412 9.535157,-5.957031 z M 21.625,30.029296 c 1.874292,3.218316 5.201534,5.484889 9.083984,5.900391 C 30.250878,37.200512 30,38.571288 30,39.999999 c 0,1.613766 0.32079,3.153079 0.898438,4.558594 A 10,10 0 0 1 22,49.999999 a 10,10 0 0 1 -10,-10 10,10 0 0 1 9.625,-9.970703 z m 9.710938,15.46875 c 0.02643,0.05117 0.05098,0.103555 0.07812,0.154297 -0.0272,-0.05083 -0.05164,-0.103034 -0.07812,-0.154297 z" />
</svg>
