<?xml version="1.0" encoding="UTF-8" standalone="no"?>
<svg
   viewbox="0 0 200 200"
   version="1.1"
   id="svg4"
   sodipodi:docname="preferences-desktop-notification.svg"
   width="64"
   height="64"
   inkscape:version="1.1.1 (3bf5ae0d25, 2021-09-20, custom)"
   xmlns:inkscape="http://www.inkscape.org/namespaces/inkscape"
   xmlns:sodipodi="http://sodipodi.sourceforge.net/DTD/sodipodi-0.dtd"
   xmlns="http://www.w3.org/2000/svg"
   xmlns:svg="http://www.w3.org/2000/svg">
  <defs
     id="defs8" />
  <sodipodi:namedview
     id="namedview6"
     pagecolor="#ffffff"
     bordercolor="#666666"
     borderopacity="1.0"
     inkscape:pageshadow="2"
     inkscape:pageopacity="0.0"
     inkscape:pagecheckerboard="0"
     showgrid="false"
     inkscape:zoom="11.313708"
     inkscape:cx="29.698485"
     inkscape:cy="29.212349"
     inkscape:window-width="1920"
     inkscape:window-height="1000"
     inkscape:window-x="0"
     inkscape:window-y="0"
     inkscape:window-maximized="1"
     inkscape:current-layer="svg4"
     showguides="true" />
  <path
     d="M 2,32 C 2,10.4 10.4,2 32,2 53.6,2 62,10.4 62,32 62,53.6 53.6,62 32,62 10.4,62 2,53.6 2,32"
     id="path2"
     style="stroke-width:0.3;fill:#f08071;fill-opacity:1;stroke:none" />
  <path
     id="rect1374"
     style="fill:#ffffff;fill-opacity:1;stroke-width:2;stroke-linecap:round;stroke-linejoin:round"
     d="M 51 18 A 4 4 0 0 0 47 22 A 4 4 0 0 0 51 26 A 4 4 0 0 0 55 22 A 4 4 0 0 0 51 18 z M 16 20 C 13.784 20 12 21.784 12 24 L 12 40 C 12 42.216 13.784 44 16 44 L 48 44 C 50.216 44 52 42.216 52 40 L 52 27.908203 A 6 6 0 0 1 51 28 A 6 6 0 0 1 50 27.908203 L 50 40 C 50 41.108 49.108 42 48 42 L 16 42 C 14.892 42 14 41.108 14 40 L 14 24 C 14 22.892 14.892 22 16 22 L 45 22 A 6 6 0 0 1 45.359375 20 L 16 20 z M 18 28 L 18 30 L 46 30 L 46 28 L 18 28 z M 18 34 L 18 36 L 34 36 L 34 34 L 18 34 z " />
</svg>
