<?xml version="1.0" encoding="UTF-8" standalone="no"?>
<svg
   viewbox="0 0 200 200"
   version="1.1"
   id="svg4"
   sodipodi:docname="preferences-system-time.svg"
   width="64"
   height="64"
   inkscape:version="1.1.1 (3bf5ae0d25, 2021-09-20, custom)"
   xmlns:inkscape="http://www.inkscape.org/namespaces/inkscape"
   xmlns:sodipodi="http://sodipodi.sourceforge.net/DTD/sodipodi-0.dtd"
   xmlns="http://www.w3.org/2000/svg"
   xmlns:svg="http://www.w3.org/2000/svg">
  <defs
     id="defs8" />
  <sodipodi:namedview
     id="namedview6"
     pagecolor="#ffffff"
     bordercolor="#666666"
     borderopacity="1.0"
     inkscape:pageshadow="2"
     inkscape:pageopacity="0.0"
     inkscape:pagecheckerboard="0"
     showgrid="false"
     inkscape:zoom="1"
     inkscape:cx="25"
     inkscape:cy="42.5"
     inkscape:window-width="1920"
     inkscape:window-height="1000"
     inkscape:window-x="0"
     inkscape:window-y="0"
     inkscape:window-maximized="1"
     inkscape:current-layer="svg4"
     showguides="false" />
  <path
     d="M 2,32 C 2,10.4 10.4,2 32,2 53.6,2 62,10.4 62,32 62,53.6 53.6,62 32,62 10.4,62 2,53.6 2,32"
     id="path2"
     style="stroke-width:0.3;fill:#9a9fb2;fill-opacity:1" />
  <path
     id="rect77557"
     style="fill:#ffffff;stroke-width:2;stroke-linejoin:round"
     d="m 22,11 v 3 H 12 v 2 h 12 v -5 z m 18,0 v 3 H 28 v 2 h 14 v -5 z m 6,3 v 2 h 6 v -2 z m -34,7 v 23 c 0,4.43201 3.567997,8 8,8 H 30 V 50 H 20 c -3.324004,0 -6,-2.676 -6,-6 V 21 Z m 38,0 v 10 h 2 V 21 Z"
     sodipodi:nodetypes="ccccccccccccccccccccssccssccccccc" />
  <path
     id="path1031"
     style="fill:#ffffff;stroke-width:2;stroke-linecap:square;stroke-linejoin:round"
     d="M 42 31 A 11 11 0 0 0 31 42 A 11 11 0 0 0 42 53 A 11 11 0 0 0 53 42 A 11 11 0 0 0 42 31 z M 42 33 A 9 9 0 0 1 51 42 A 9 9 0 0 1 42 51 A 9 9 0 0 1 33 42 A 9 9 0 0 1 42 33 z M 41 35 L 41 43 L 49 43 L 49 41 L 43 41 L 43 35 L 41 35 z " />
</svg>
