<?xml version="1.0" encoding="UTF-8" standalone="no"?>
<svg
   viewbox="0 0 200 200"
   version="1.1"
   id="svg4"
   sodipodi:docname="preferences-color.svg"
   width="64"
   height="64"
   inkscape:version="1.1.1 (3bf5ae0d25, 2021-09-20, custom)"
   xmlns:inkscape="http://www.inkscape.org/namespaces/inkscape"
   xmlns:sodipodi="http://sodipodi.sourceforge.net/DTD/sodipodi-0.dtd"
   xmlns:xlink="http://www.w3.org/1999/xlink"
   xmlns="http://www.w3.org/2000/svg"
   xmlns:svg="http://www.w3.org/2000/svg">
  <defs
     id="defs8">
    <linearGradient
       inkscape:collect="always"
       id="linearGradient14312">
      <stop
         style="stop-color:#fdb921;stop-opacity:1"
         offset="0"
         id="stop14308" />
      <stop
         style="stop-color:#fdb921;stop-opacity:0"
         offset="1"
         id="stop14310" />
    </linearGradient>
    <radialGradient
       inkscape:collect="always"
       xlink:href="#linearGradient13456"
       id="radialGradient13458"
       cx="6.022944"
       cy="53.379589"
       fx="6.022944"
       fy="53.379589"
       r="30"
       gradientUnits="userSpaceOnUse"
       gradientTransform="matrix(-0.44829562,1.8422552,-1.6781877,-0.40837116,110.10505,14.257966)" />
    <linearGradient
       inkscape:collect="always"
       id="linearGradient13456">
      <stop
         style="stop-color:#7882ff;stop-opacity:1"
         offset="0"
         id="stop13452" />
      <stop
         style="stop-color:#7882ff;stop-opacity:0"
         offset="1"
         id="stop13454" />
    </linearGradient>
    <radialGradient
       inkscape:collect="always"
       xlink:href="#linearGradient14312"
       id="radialGradient6062"
       cx="8.0913172"
       cy="54.142563"
       fx="8.0913172"
       fy="54.142563"
       r="30"
       gradientUnits="userSpaceOnUse"
       gradientTransform="matrix(1.3241487,0.91663742,-1.1377267,1.6435286,56.885321,-48.401648)" />
  </defs>
  <sodipodi:namedview
     id="namedview6"
     pagecolor="#ffffff"
     bordercolor="#666666"
     borderopacity="1.0"
     inkscape:pageshadow="2"
     inkscape:pageopacity="0.0"
     inkscape:pagecheckerboard="0"
     showgrid="false"
     inkscape:zoom="1"
     inkscape:cx="40"
     inkscape:cy="38.5"
     inkscape:window-width="1920"
     inkscape:window-height="1000"
     inkscape:window-x="0"
     inkscape:window-y="0"
     inkscape:window-maximized="1"
     inkscape:current-layer="svg4"
     showguides="true" />
  <path
     d="M 2,32 C 2,10.4 10.4,2 32,2 53.6,2 62,10.4 62,32 62,53.6 53.6,62 32,62 10.4,62 2,53.6 2,32"
     id="path2"
     style="stroke-width:0.3;fill:#d04484;fill-opacity:1;stroke:none" />
  <path
     id="rect14117"
     style="fill:url(#radialGradient6062);fill-opacity:1;stroke:none;stroke-width:2;stroke-linecap:round;stroke-linejoin:round"
     d="M 32,2 C 10.4,2 2,10.4 2,32 c 0,21.600006 8.4,30.000006 30,30.000006 21.600001,0 30.000001,-8.4 30.000001,-30.000006 0,-21.6 -8.4,-30 -30.000001,-30 z" />
  <path
     id="rect13260"
     style="fill:url(#radialGradient13458);fill-opacity:1;stroke:none;stroke-width:2;stroke-linecap:round;stroke-linejoin:round"
     d="M 32,2 C 10.4,2 2,10.4 2,32 2,53.6 10.4,62 32,62 53.6,62 62,53.6 62,32 62,10.4 53.6,2 32,2 Z" />
  <path
     id="path854"
     style="fill:#ffffff;stroke-width:2;stroke-linecap:square;stroke-linejoin:round"
     d="M 32 12 C 25.372583 12 20 17.372583 20 24 C 20 25.436736 20.253764 26.814959 20.716797 28.091797 A 12 12 0 0 0 10 40 A 12 12 0 0 0 22 52 A 12 12 0 0 0 31.994141 46.623047 C 34.142964 49.862547 37.82137 52 42 52 C 48.627417 52 54 46.627417 54 40 C 54 33.808972 49.310996 28.714574 43.291016 28.070312 C 43.749122 26.799487 44 25.428711 44 24 C 44 17.372583 38.627417 12 32 12 z M 32 14 A 10 10 0 0 1 42 24 A 10 10 0 0 1 32 34 A 10 10 0 0 1 22 24 A 10 10 0 0 1 32 14 z M 42.929688 28.953125 C 42.906848 29.003201 42.884835 29.053812 42.861328 29.103516 C 42.884764 29.053719 42.906919 29.003293 42.929688 28.953125 z M 42.384766 30.009766 C 47.728697 30.212617 52 34.606425 52 40 C 52 45.522847 47.522848 50 42 50 C 36.477154 50 32 45.522847 32 40 C 32 38.564452 32.304891 37.200782 32.849609 35.966797 C 36.92782 35.681088 40.442173 33.359385 42.384766 30.009766 z M 21.625 30.029297 C 23.499292 33.247613 26.826534 35.514186 30.708984 35.929688 C 30.250878 37.200513 30 38.571289 30 40 C 30 41.613766 30.32079 43.153079 30.898438 44.558594 A 10 10 0 0 1 22 50 A 10 10 0 0 1 12 40 A 10 10 0 0 1 21.625 30.029297 z M 31.335938 45.498047 C 31.362371 45.549221 31.386918 45.601602 31.414062 45.652344 C 31.386866 45.601516 31.362419 45.54931 31.335938 45.498047 z " />
</svg>
