<?xml version="1.0" encoding="UTF-8" standalone="no"?>
<svg
   viewbox="0 0 200 200"
   version="1.1"
   id="svg4"
   sodipodi:docname="preferences-desktop-display.svg"
   width="64"
   height="64"
   inkscape:version="1.1.1 (3bf5ae0d25, 2021-09-20, custom)"
   xmlns:inkscape="http://www.inkscape.org/namespaces/inkscape"
   xmlns:sodipodi="http://sodipodi.sourceforge.net/DTD/sodipodi-0.dtd"
   xmlns="http://www.w3.org/2000/svg"
   xmlns:svg="http://www.w3.org/2000/svg">
  <defs
     id="defs8" />
  <sodipodi:namedview
     id="namedview6"
     pagecolor="#ffffff"
     bordercolor="#666666"
     borderopacity="1.0"
     inkscape:pageshadow="2"
     inkscape:pageopacity="0.0"
     inkscape:pagecheckerboard="0"
     showgrid="false"
     inkscape:zoom="5.6568542"
     inkscape:cx="42.603184"
     inkscape:cy="42.691572"
     inkscape:window-width="1920"
     inkscape:window-height="1000"
     inkscape:window-x="0"
     inkscape:window-y="0"
     inkscape:window-maximized="1"
     inkscape:current-layer="svg4"
     showguides="true" />
  <path
     d="M 2,32 C 2,10.4 10.4,2 32,2 53.6,2 62,10.4 62,32 62,53.6 53.6,62 32,62 10.4,62 2,53.6 2,32"
     id="path2"
     style="stroke-width:0.3;fill:#9cb957;fill-opacity:1" />
  <path
     id="path1032"
     style="fill:#ffffff;fill-opacity:1;stroke-width:2;stroke-linecap:round;stroke-linejoin:round"
     d="M 16 17 C 13.784 17 12 18.784 12 21 L 12 43 C 12 45.216 13.784 47 16 47 L 33 47 L 33 45 L 16 45 C 14.892 45 14 44.108 14 43 L 14 21 C 14 19.892 14.892 19 16 19 L 48 19 C 49.108 19 50 19.892 50 21 L 50 29 L 52 29 L 52 21 C 52 18.784 50.216 17 48 17 L 16 17 z M 45 31 L 45 34.072266 A 8 8 0 0 0 41.107422 35.693359 L 38.929688 33.515625 L 37.515625 34.929688 L 39.693359 37.107422 A 8 8 0 0 0 38.072266 41 L 35 41 L 35 43 L 38.072266 43 A 8 8 0 0 0 39.693359 46.892578 L 37.515625 49.070312 L 38.929688 50.484375 L 41.107422 48.306641 A 8 8 0 0 0 45 49.927734 L 45 53 L 47 53 L 47 49.927734 A 8 8 0 0 0 50.892578 48.306641 L 53.070312 50.484375 L 54.484375 49.070312 L 52.306641 46.892578 A 8 8 0 0 0 53.927734 43 L 57 43 L 57 41 L 53.935547 41 A 8 8 0 0 0 52.318359 37.095703 L 54.484375 34.929688 L 53.070312 33.515625 L 50.904297 35.681641 A 8 8 0 0 0 47 34.064453 L 47 31 L 45 31 z M 46 36 A 6 6 0 0 1 50.242188 37.757812 A 6 6 0 0 1 52 42 A 6 6 0 0 1 50.242188 46.242188 A 6 6 0 0 1 46 48 A 6 6 0 0 1 41.757812 46.242188 A 6 6 0 0 1 40 42 A 6 6 0 0 1 41.757812 37.757812 A 6 6 0 0 1 46 36 z " />
</svg>
