<?xml version="1.0" encoding="UTF-8" standalone="no"?>
<svg
   viewbox="0 0 200 200"
   version="1.1"
   id="svg4"
   sodipodi:docname="preferences-desktop-filetype-association.svg"
   width="64"
   height="64"
   inkscape:version="1.1.1 (3bf5ae0d25, 2021-09-20, custom)"
   xmlns:inkscape="http://www.inkscape.org/namespaces/inkscape"
   xmlns:sodipodi="http://sodipodi.sourceforge.net/DTD/sodipodi-0.dtd"
   xmlns="http://www.w3.org/2000/svg"
   xmlns:svg="http://www.w3.org/2000/svg">
  <defs
     id="defs8" />
  <sodipodi:namedview
     id="namedview6"
     pagecolor="#ffffff"
     bordercolor="#666666"
     borderopacity="1.0"
     inkscape:pageshadow="2"
     inkscape:pageopacity="0.0"
     inkscape:pagecheckerboard="0"
     showgrid="false"
     inkscape:zoom="12.140625"
     inkscape:cx="31.958816"
     inkscape:cy="32"
     inkscape:window-width="1920"
     inkscape:window-height="1000"
     inkscape:window-x="0"
     inkscape:window-y="0"
     inkscape:window-maximized="1"
     inkscape:current-layer="svg4"
     showguides="false" />
  <path
     d="m 2,32.087353 c 0,-21.6 8.4,-30.0000005 30,-30.0000005 21.6,0 30,8.4000005 30,30.0000005 0,21.6 -8.4,30 -30,30 -21.6,0 -30,-8.4 -30,-30"
     id="path2"
     style="fill:#6190ff;fill-opacity:1;stroke-width:0.3" />
  <path
     id="path3817"
     style="color:#000000;fill:#ffffff;stroke:none;stroke-width:0.99356;stroke-linecap:round;stroke-linejoin:round;-inkscape-stroke:none"
     d="m 18,13.000784 c -1.108,0 -2,0.892 -2,2 v 36 h 2 v -36 h 14 v -2 z m 17.902344,0.0039 c -0.09809,0.0099 -0.194187,0.03425 -0.285156,0.07227 C 35.243599,13.231798 35.000026,13.59638 35,14.000784 v 11 c 5.5e-5,0.552262 0.447738,0.999945 1,1 h 10 v 22 c 0,0.554 -0.447913,0.953993 -1,1 H 21 v 2 h 24 c 1.662,0 3,-1.338 3,-3 v -22 -1 c -5.1e-5,-0.265199 -0.105433,-0.519519 -0.292969,-0.707031 l -11,-11 C 36.495587,13.081815 36.200318,12.975748 35.902344,13.00469 Z M 37,16.414846 44.585938,24.000784 H 37 Z"
     sodipodi:nodetypes="sscccccsccccccssccsscccccccccc" />
</svg>
