<?xml version="1.0" encoding="UTF-8" standalone="no"?>
<svg
   viewbox="0 0 200 200"
   version="1.1"
   id="svg4"
   sodipodi:docname="preferences-desktop-effects.svg"
   width="64"
   height="64"
   inkscape:version="1.1.1 (3bf5ae0d25, 2021-09-20, custom)"
   xmlns:inkscape="http://www.inkscape.org/namespaces/inkscape"
   xmlns:sodipodi="http://sodipodi.sourceforge.net/DTD/sodipodi-0.dtd"
   xmlns="http://www.w3.org/2000/svg"
   xmlns:svg="http://www.w3.org/2000/svg">
  <defs
     id="defs8" />
  <sodipodi:namedview
     id="namedview6"
     pagecolor="#ffffff"
     bordercolor="#666666"
     borderopacity="1.0"
     inkscape:pageshadow="2"
     inkscape:pageopacity="0.0"
     inkscape:pagecheckerboard="0"
     showgrid="false"
     inkscape:zoom="12.95"
     inkscape:cx="31.969112"
     inkscape:cy="32.007722"
     inkscape:window-width="1920"
     inkscape:window-height="1000"
     inkscape:window-x="0"
     inkscape:window-y="0"
     inkscape:window-maximized="1"
     inkscape:current-layer="svg4"
     showguides="true" />
  <path
     d="M 2,32 C 2,10.4 10.4,2 32,2 53.6,2 62,10.4 62,32 62,53.6 53.6,62 32,62 10.4,62 2,53.6 2,32"
     id="path2"
     style="stroke-width:0.3;fill:#ee8ecc;fill-opacity:1" />
  <path
     id="rect844"
     style="fill:#ffffff;stroke-width:2;stroke-linecap:round;stroke-linejoin:round"
     d="m 36,10 a 4,4 0 0 1 -4,4 4,4 0 0 1 4,4 4,4 0 0 1 4,-4 4,4 0 0 1 -4,-4 z" />
  <path
     id="rect844-5"
     style="fill:#ffffff;stroke-width:1.5;stroke-linecap:round;stroke-linejoin:round"
     d="m 29,19 a 3,3 0 0 1 -3,3 3,3 0 0 1 3,3 3,3 0 0 1 3,-3 3,3 0 0 1 -3,-3 z" />
  <path
     id="rect844-5-3"
     style="fill:#ffffff;stroke-width:1;stroke-linecap:round;stroke-linejoin:round"
     d="m 21,15 a 2,2 0 0 1 -2,2 2,2 0 0 1 2,2 2,2 0 0 1 2,-2 2,2 0 0 1 -2,-2 z" />
  <path
     id="rect1270"
     style="fill:#ffffff;stroke-width:2;stroke-linecap:round;stroke-linejoin:round"
     d="m 46.849242,21.979185 c 0.783475,0.783474 0.783475,2.044953 0,2.828427 l -24.04163,24.04163 c -0.783474,0.783475 -2.044953,0.783475 -2.828427,0 l -2.828427,-2.828427 c -0.783475,-0.783474 -0.783475,-2.044953 0,-2.828427 l 24.04163,-24.04163 c 0.783474,-0.783475 2.044953,-0.783475 2.828427,0 z m -1.414213,1.414213 -2.828427,-2.828427 -4.242641,4.242641 2.828427,2.828427 z m -5.656854,5.656855 -2.828428,-2.828428 -18.384776,18.384777 2.828427,2.828427 z" />
</svg>
