<?xml version="1.0" encoding="UTF-8" standalone="no"?>
<svg
   viewbox="0 0 200 200"
   version="1.1"
   id="svg4"
   sodipodi:docname="preferences-system-startup.svg"
   width="64"
   height="64"
   inkscape:version="1.1.1 (3bf5ae0d25, 2021-09-20, custom)"
   xmlns:inkscape="http://www.inkscape.org/namespaces/inkscape"
   xmlns:sodipodi="http://sodipodi.sourceforge.net/DTD/sodipodi-0.dtd"
   xmlns="http://www.w3.org/2000/svg"
   xmlns:svg="http://www.w3.org/2000/svg">
  <defs
     id="defs8" />
  <sodipodi:namedview
     id="namedview6"
     pagecolor="#ffffff"
     bordercolor="#666666"
     borderopacity="1.0"
     inkscape:pageshadow="2"
     inkscape:pageopacity="0.0"
     inkscape:pagecheckerboard="0"
     showgrid="false"
     inkscape:zoom="6.475"
     inkscape:cx="20.07722"
     inkscape:cy="26.640927"
     inkscape:window-width="1920"
     inkscape:window-height="1000"
     inkscape:window-x="0"
     inkscape:window-y="0"
     inkscape:window-maximized="1"
     inkscape:current-layer="svg4"
     showguides="false" />
  <path
     d="M 2,32 C 2,10.4 10.4,2 32,2 53.6,2 62,10.4 62,32 62,53.6 53.6,62 32,62 10.4,62 2,53.6 2,32"
     id="path2"
     style="stroke-width:0.3;fill:#598cff;fill-opacity:1" />
  <path
     id="rect1032-3"
     style="fill:#ffffff;stroke-width:2.45476;stroke-linecap:round;stroke-linejoin:round"
     d="m 15.067422,15.067707 c -2.73367,2.733669 -0.127067,9.772425 4.949747,14.849243 l -1.414213,9.899494 c -0.136566,1.03705 -0.353552,2.474873 0.707106,3.535537 l 7.069687,7.069685 c 1.175214,1.175218 3.068813,1.176597 4.244022,0.0014 l 4.949747,-4.949745 2.12132,-2.12132 -1.414212,-1.414216 -0.707108,0.707108 -13.828633,-13.828635 c -4.512688,-4.512687 -7.215886,-10.381682 -5.26325,-12.334318 0.518671,-0.518671 1.314474,-0.709298 2.287049,-0.624243 2.688888,0.235151 6.734647,2.574869 10.04865,5.888875 l 13.82587,13.825871 -2.121321,2.121322 -5.655473,-5.655475 c -0.783473,-0.783474 -2.044951,-0.783474 -2.828425,0 -0.783475,0.783475 -0.783475,2.044953 0,2.828427 l 9.899494,9.899496 c 0.783473,0.783473 2.044951,0.783473 2.828428,0 0.783474,-0.783473 0.783474,-2.044955 0,-2.828428 l -4.24264,-4.242641 1.414212,-1.414213 1.412833,1.412834 2.12132,-2.121322 0.0014,0.0014 4.949749,-4.949747 c 1.175214,-1.175212 1.175218,-3.067427 0,-4.242641 l -7.072482,-7.069653 c -0.662911,-0.662916 -1.472444,-0.82957 -2.240092,-0.825879 -0.460585,0.0021 -0.906546,0.06473 -1.295441,0.115943 l -9.898115,1.415595 C 26.188377,16.289167 21.401867,13.8928 18.03948,13.965614 c -1.216181,0.02634 -2.245925,0.37596 -2.972058,1.102093 z m 4.659723,4.795068 c -0.342179,0.358897 -0.552428,0.846043 -0.552426,1.381068 -2e-6,1.10457 0.895215,1.999787 1.999785,1.999786 1.104568,2e-6 1.999786,-0.895216 1.999787,-1.999787 0,-1.104569 -0.895217,-1.999786 -1.999786,-1.999785 -0.569545,0 -1.083106,0.236666 -1.44736,0.618718 z m 2.057471,11.821621 12.374689,12.374689 -5.656854,5.656857 -8.131729,-8.131729 z m 9.899495,-9.899494 9.899816,-1.413894 8.131729,8.131728 -5.656857,5.656854 z"
     sodipodi:nodetypes="scccccccccssssccsssssscccccscccccsssssssscccccccccc" />
</svg>
