<?xml version="1.0" encoding="UTF-8" standalone="no"?>
<svg
   viewbox="0 0 200 200"
   version="1.1"
   id="svg4"
   sodipodi:docname="users.svg"
   width="64"
   height="64"
   inkscape:version="1.1.1 (3bf5ae0d25, 2021-09-20, custom)"
   xmlns:inkscape="http://www.inkscape.org/namespaces/inkscape"
   xmlns:sodipodi="http://sodipodi.sourceforge.net/DTD/sodipodi-0.dtd"
   xmlns="http://www.w3.org/2000/svg"
   xmlns:svg="http://www.w3.org/2000/svg">
  <defs
     id="defs8" />
  <sodipodi:namedview
     id="namedview6"
     pagecolor="#ffffff"
     bordercolor="#666666"
     borderopacity="1.0"
     inkscape:pageshadow="2"
     inkscape:pageopacity="0.0"
     inkscape:pagecheckerboard="0"
     showgrid="false"
     inkscape:zoom="9.1570328"
     inkscape:cx="25.881746"
     inkscape:cy="22.441767"
     inkscape:window-width="1920"
     inkscape:window-height="1000"
     inkscape:window-x="0"
     inkscape:window-y="0"
     inkscape:window-maximized="1"
     inkscape:current-layer="svg4"
     showguides="true" />
  <path
     d="M 2,32 C 2,10.4 10.4,2 32,2 53.6,2 62,10.4 62,32 62,53.6 53.6,62 32,62 10.4,62 2,53.6 2,32"
     id="path2"
     style="opacity:1;fill:#9a9fb2;fill-opacity:1;stroke:none;stroke-width:0.3" />
  <path
     id="path2315"
     style="fill:#ffffff;fill-opacity:1;stroke-width:1.16666"
     d="m 26,14 a 8,8 0 0 0 -8,8 8,8 0 0 0 8,8 8,8 0 0 0 8,-8 8,8 0 0 0 -8,-8 z m 0,2 a 6,6 0 0 1 6,6 6,6 0 0 1 -6,6 6,6 0 0 1 -6,-6 6,6 0 0 1 6,-6 z m 0,18 c -8.28427,0 -15,6.71573 -15,15 h 2 26 1 1 C 41,40.71573 34.28427,34 26,34 Z m 0,2 c 6.499716,0 11.883868,4.769617 12.845703,11 H 13.154297 C 14.116132,40.769617 19.500284,36 26,36 Z" />
  <path
     id="path943"
     style="fill:#ffffff;stroke-width:0;stroke-linecap:round;stroke-linejoin:round"
     d="M 44 19 A 5 5 0 0 0 39 24 A 5 5 0 0 0 44 29 A 5 5 0 0 0 49 24 A 5 5 0 0 0 44 19 z M 44 21 A 3 3 0 0 1 47 24 A 3 3 0 0 1 44 27 A 3 3 0 0 1 41 24 A 3 3 0 0 1 44 21 z M 44 33 C 41.223661 33 38.712299 34.132081 36.900391 35.958984 A 17 17 0 0 1 38.361328 37.335938 C 39.808016 35.895763 41.797227 35 44 35 C 47.727922 35 50.860196 37.549203 51.748047 41 L 41 41 A 17 17 0 0 1 41.900391 43 L 54 43 C 54 37.477153 49.522847 33 44 33 z " />
</svg>
