<?xml version="1.0" encoding="UTF-8" standalone="no"?>
<svg
   viewbox="0 0 200 200"
   version="1.1"
   id="svg4"
   sodipodi:docname="dialog-information.svg"
   width="32"
   height="32"
   inkscape:version="1.1.1 (3bf5ae0d25, 2021-09-20, custom)"
   xmlns:inkscape="http://www.inkscape.org/namespaces/inkscape"
   xmlns:sodipodi="http://sodipodi.sourceforge.net/DTD/sodipodi-0.dtd"
   xmlns="http://www.w3.org/2000/svg"
   xmlns:svg="http://www.w3.org/2000/svg">
  <defs
     id="defs8" />
  <sodipodi:namedview
     id="namedview6"
     pagecolor="#ffffff"
     bordercolor="#666666"
     borderopacity="1.0"
     inkscape:pageshadow="2"
     inkscape:pageopacity="0.0"
     inkscape:pagecheckerboard="0"
     showgrid="false"
     inkscape:zoom="9.2365823"
     inkscape:cx="9.202538"
     inkscape:cy="40.003974"
     inkscape:window-width="1920"
     inkscape:window-height="1007"
     inkscape:window-x="0"
     inkscape:window-y="0"
     inkscape:window-maximized="1"
     inkscape:current-layer="svg4"
     showguides="false" />
  <path
     d="M 1,16 C 1,5.2 5.2,1 16,1 26.8,1 31,5.2 31,16 31,26.8 26.8,31 16,31 5.2,31 1,26.8 1,16"
     id="path2"
     style="fill:#66ccff;fill-opacity:1;stroke:none;stroke-width:0.15" />
  <path
     id="rect850"
     style="fill:#ffffff;fill-opacity:1;stroke-width:0.25;stroke-linecap:round;stroke-linejoin:round"
     d="M 16,6 C 10.475,6 6,10.475 6,16 6,21.525 10.475,26 16,26 21.525,26 26,21.525 26,16 26,10.475 21.525,6 16,6 Z m 0,1 a 9,9 0 0 1 9,9 9,9 0 0 1 -9,9 9,9 0 0 1 -9,-9 9,9 0 0 1 9,-9 z" />
  <path
     d="m 16,10.5 c 0.314285,0 0.552307,0.08564 0.733259,0.257069 C 16.914211,10.928497 17,11.166629 17,11.461867 17,11.776153 16.914363,12.014211 16.742931,12.18564 16.571503,12.357069 16.32381,12.442894 16,12.442894 c -0.314285,0 -0.552307,-0.08582 -0.733259,-0.257254 C 15.085789,12.014211 15,11.776265 15,11.481027 15,11.166741 15.08564,10.928497 15.257069,10.757069 15.428497,10.58564 15.67619,10.5 16,10.5 Z m -0.809523,3.009486 h 1.619046 v 7.466703 h -1.619046 z"
     style="fill:#ffffff;fill-opacity:1;stroke-width:0.190477;stroke-linecap:round;stroke-linejoin:round"
     id="path847" />
</svg>
