<?xml version="1.0" encoding="UTF-8" standalone="no"?>
<svg
   viewbox="0 0 200 200"
   version="1.1"
   id="svg4"
   sodipodi:docname="dialog-password.svg"
   width="32"
   height="32"
   inkscape:version="1.1.1 (3bf5ae0d25, 2021-09-20, custom)"
   xmlns:inkscape="http://www.inkscape.org/namespaces/inkscape"
   xmlns:sodipodi="http://sodipodi.sourceforge.net/DTD/sodipodi-0.dtd"
   xmlns="http://www.w3.org/2000/svg"
   xmlns:svg="http://www.w3.org/2000/svg">
  <defs
     id="defs8" />
  <sodipodi:namedview
     id="namedview6"
     pagecolor="#ffffff"
     bordercolor="#666666"
     borderopacity="1.0"
     inkscape:pageshadow="2"
     inkscape:pageopacity="0.0"
     inkscape:pagecheckerboard="0"
     showgrid="false"
     inkscape:zoom="6.4416665"
     inkscape:cx="6.0543339"
     inkscape:cy="22.897801"
     inkscape:window-width="1920"
     inkscape:window-height="1007"
     inkscape:window-x="0"
     inkscape:window-y="0"
     inkscape:window-maximized="1"
     inkscape:current-layer="svg4"
     showguides="false" />
  <path
     d="M 1,16 C 1,5.2 5.2,1 16,1 26.8,1 31,5.2 31,16 31,26.8 26.8,31 16,31 5.2,31 1,26.8 1,16"
     id="path2"
     style="fill:#7393bf;fill-opacity:1;stroke-width:0.15" />
  <path
     id="rect1024"
     style="fill:#ffffff;stroke-width:1;stroke-linecap:square;stroke-linejoin:round"
     d="m 16,5.5 c -2.485281,0 -4.5,2.0147185 -4.5,4.5 v 2.5 h -2 c -1.108,0 -2,0.892 -2,2 v 9 c 0,1.108 0.892,2 2,2 h 13 c 1.108,0 2,-0.892 2,-2 v -9 c 0,-1.108 -0.892,-2 -2,-2 h -2 V 10 C 20.5,7.5147185 18.485281,5.5 16,5.5 Z m 0,1 c 1.932997,0 3.5,1.5670035 3.5,3.5 v 2.5 h -7 V 10 c 0,-1.9329965 1.567004,-3.5 3.5,-3.5 z m -6.5,7 h 13 c 0.554,0 1,0.446 1,1 v 9 c 0,0.554 -0.446,1 -1,1 h -13 c -0.554,0 -1,-0.446 -1,-1 v -9 c 0,-0.554 0.446,-1 1,-1 z m 6.5,3 c -0.828427,0 -1.5,0.671573 -1.5,1.5 0.0017,0.634185 0.402082,1.198763 1,1.410156 V 21.5 h 1 V 19.410156 C 17.097918,19.198763 17.498283,18.634185 17.5,18 17.5,17.171573 16.828427,16.5 16,16.5 Z m 0,1 c 0.276142,0 0.5,0.223857 0.5,0.5 0,0.276142 -0.223858,0.5 -0.5,0.5 -0.276143,0 -0.5,-0.223858 -0.5,-0.5 0,-0.276143 0.223857,-0.5 0.5,-0.5 z" />
</svg>
