<?xml version="1.0" encoding="UTF-8" standalone="no"?>
<svg
   viewbox="0 0 200 200"
   version="1.1"
   id="svg4"
   sodipodi:docname="dialog-warning.svg"
   width="32"
   height="32"
   inkscape:version="1.1.1 (3bf5ae0d25, 2021-09-20, custom)"
   xmlns:inkscape="http://www.inkscape.org/namespaces/inkscape"
   xmlns:sodipodi="http://sodipodi.sourceforge.net/DTD/sodipodi-0.dtd"
   xmlns="http://www.w3.org/2000/svg"
   xmlns:svg="http://www.w3.org/2000/svg">
  <defs
     id="defs8" />
  <sodipodi:namedview
     id="namedview6"
     pagecolor="#ffffff"
     bordercolor="#666666"
     borderopacity="1.0"
     inkscape:pageshadow="2"
     inkscape:pageopacity="0.0"
     inkscape:pagecheckerboard="0"
     showgrid="false"
     inkscape:zoom="13.0625"
     inkscape:cx="22.124402"
     inkscape:cy="33.952153"
     inkscape:window-width="1920"
     inkscape:window-height="1007"
     inkscape:window-x="0"
     inkscape:window-y="0"
     inkscape:window-maximized="1"
     inkscape:current-layer="svg4"
     showguides="false" />
  <path
     d="M 1,16 C 1,5.2 5.2,1 16,1 26.8,1 31,5.2 31,16 31,26.8 26.8,31 16,31 5.2,31 1,26.8 1,16"
     id="path2"
     style="fill:#ff9933;fill-opacity:1;stroke:none;stroke-width:0.15" />
  <path
     id="rect850"
     style="fill:#ffffff;stroke-width:0.274897;stroke-linecap:round;stroke-linejoin:round"
     d="m 15.996094,5.5 c -0.563539,0 -1.127192,0.278295 -1.450195,0.834961 l -9.31836,16.136718 c -0.6460074,1.113333 0.1641125,2.500977 1.442383,2.500977 h 18.638672 c 1.305759,0.01375 2.102966,-1.373898 1.470703,-2.500977 L 17.446289,6.334961 C 17.123285,5.778295 16.559632,5.5 15.996094,5.5 Z M 16,7 25.5,23.5 h -19 z m -1.055664,4.393555 0.261718,7.146484 h 1.305665 l 0.260742,-7.146484 z m 0.907226,8.232421 c -0.329876,0 -0.590775,0.09671 -0.783203,0.275391 -0.178682,0.178683 -0.27539,0.425983 -0.27539,0.755859 0,0.316132 0.08296,0.563505 0.27539,0.742188 0.192428,0.178683 0.453327,0.27539 0.783203,0.27539 0.329876,0 0.591752,-0.09671 0.78418,-0.27539 0.178683,-0.178683 0.274414,-0.425983 0.274414,-0.75586 0,-0.316131 -0.08199,-0.563504 -0.274414,-0.742187 -0.192428,-0.178683 -0.454304,-0.275391 -0.78418,-0.275391 z" />
</svg>
