<?xml version="1.0" encoding="UTF-8" standalone="no"?>
<svg
   viewbox="0 0 200 200"
   version="1.1"
   id="svg4"
   sodipodi:docname="applications-internet.svg"
   width="22"
   height="22"
   inkscape:version="1.1.1 (3bf5ae0d25, 2021-09-20, custom)"
   xmlns:inkscape="http://www.inkscape.org/namespaces/inkscape"
   xmlns:sodipodi="http://sodipodi.sourceforge.net/DTD/sodipodi-0.dtd"
   xmlns="http://www.w3.org/2000/svg"
   xmlns:svg="http://www.w3.org/2000/svg">
  <defs
     id="defs8" />
  <sodipodi:namedview
     id="namedview6"
     pagecolor="#ffffff"
     bordercolor="#666666"
     borderopacity="1.0"
     inkscape:pageshadow="2"
     inkscape:pageopacity="0.0"
     inkscape:pagecheckerboard="0"
     showgrid="false"
     inkscape:zoom="36.946329"
     inkscape:cx="8.6070797"
     inkscape:cy="11.354308"
     inkscape:window-width="1920"
     inkscape:window-height="996"
     inkscape:window-x="0"
     inkscape:window-y="0"
     inkscape:window-maximized="1"
     inkscape:current-layer="svg4"
     showguides="false"
     inkscape:lockguides="false" />
  <path
     d="M 1,11 C 1,3.8 3.8,1 11,1 18.2,1 21,3.8 21,11 21,18.2 18.2,21 11,21 3.8,21 1,18.2 1,11"
     id="path2"
     style="fill:#726cf9;fill-opacity:1;stroke-width:0.1" />
  <path
     id="path924"
     style="fill:#ffffff;fill-opacity:1;stroke-width:4;stroke-linecap:round;stroke-linejoin:round"
     d="M 11 4 C 8.6804041 4 6.6252918 5.129539 5.3515625 6.8671875 A 9 3 20 0 0 5.0429688 6.890625 A 9 3 20 0 0 5.0117188 6.8925781 A 9 3 20 0 0 4.9453125 6.8984375 A 9 3 20 0 0 4.7011719 6.9179688 A 9 3 20 0 0 4.296875 6.9804688 A 9 3 20 0 0 4.0351562 7.0351562 A 9 3 20 0 0 3.7050781 7.1328125 A 9 3 20 0 0 3.4960938 7.21875 A 9 3 20 0 0 3.2324219 7.3515625 A 9 3 20 0 0 3.0820312 7.4648438 A 9 3 20 0 0 2.890625 7.6328125 A 9 3 20 0 0 2.8183594 7.7460938 A 9 3 20 0 0 2.6914062 7.9628906 A 9 3 20 0 0 2.671875 8.0820312 A 9 3 20 0 0 2.6328125 8.3535156 A 9 3 20 0 0 2.6484375 8.4453125 A 9 3 20 0 0 2.734375 8.8261719 A 9 3 20 0 0 2.7597656 8.8847656 A 9 3 20 0 0 3.0078125 9.359375 A 9 3 20 0 0 3.0117188 9.3671875 A 9 3 20 0 0 4.0214844 10.484375 C 4.0211544 10.488894 4.0218094 10.493527 4.0214844 10.498047 A 9 3 20 0 0 5.0058594 11.271484 C 5.0056845 11.267565 5.0060267 11.263687 5.0058594 11.259766 A 9 3 20 0 0 10.121094 13.845703 A 9 3 20 0 0 15.361328 15.117188 C 15.356917 15.121859 15.352082 15.126202 15.347656 15.130859 A 9 3 20 0 0 16.591797 15.208984 C 16.595716 15.203787 16.59961 15.198568 16.603516 15.193359 A 9 3 20 0 0 19.603516 14.103516 A 9 3 20 0 0 19.046875 12.373047 A 9 3 20 0 0 19.037109 12.359375 A 9 3 20 0 0 19.03125 12.353516 A 9 3 20 0 0 19.025391 12.347656 A 9 3 20 0 0 18.597656 11.880859 A 9 3 20 0 0 18.558594 11.839844 A 9 3 20 0 0 18.548828 11.832031 A 9 3 20 0 0 18.505859 11.794922 C 18.507573 11.795842 18.510007 11.795955 18.511719 11.796875 A 9 3 20 0 0 18.046875 11.382812 A 9 3 20 0 0 18.025391 11.363281 A 9 3 20 0 0 17.990234 11.332031 C 17.995402 11.221683 18 11.111627 18 11 C 18 7.1340068 14.865993 4 11 4 z M 11 5 C 14.176957 5 16.775169 7.4698025 16.984375 10.59375 C 16.99338 10.72822 17 10.863249 17 11 C 17 11.021055 16.998265 11.041496 16.998047 11.0625 C 16.985684 12.254831 16.624929 13.363903 16.013672 14.292969 A 8 2 20 0 1 10.462891 12.904297 A 8 2 20 0 1 5.0527344 10.207031 C 5.2164225 8.9678559 5.7603746 7.8496748 6.5605469 6.96875 C 7.6578602 5.7606229 9.23929 5 11 5 z M 4.8066406 7.7402344 C 4.5231514 8.2776874 4.3081822 8.8560798 4.171875 9.4648438 A 8 2 20 0 1 3.6289062 8.2890625 A 8 2 20 0 1 4.8066406 7.7402344 z M 4.0332031 11.666016 C 4.3691414 15.219066 7.3590324 18 11 18 C 12.851208 18 14.533582 17.279302 15.785156 16.105469 C 15.330933 16.082449 14.854585 16.035553 14.361328 15.966797 C 13.402544 16.61778 12.246457 17 11 17 C 8.2136445 17 5.8722944 15.10006 5.1972656 12.525391 C 4.7751479 12.243474 4.3870811 11.957217 4.0332031 11.666016 z M 17.869141 12.345703 A 8 2 20 0 1 18.664062 13.761719 A 8 2 20 0 1 17.150391 14.341797 C 17.485499 13.726399 17.730874 13.055289 17.869141 12.345703 z " />
</svg>
