<?xml version="1.0" encoding="UTF-8" standalone="no"?>
<svg
   viewbox="0 0 200 200"
   version="1.1"
   id="svg4"
   sodipodi:docname="applications-development.svg"
   width="22"
   height="22"
   inkscape:version="1.1.1 (3bf5ae0d25, 2021-09-20, custom)"
   xmlns:inkscape="http://www.inkscape.org/namespaces/inkscape"
   xmlns:sodipodi="http://sodipodi.sourceforge.net/DTD/sodipodi-0.dtd"
   xmlns="http://www.w3.org/2000/svg"
   xmlns:svg="http://www.w3.org/2000/svg">
  <defs
     id="defs8" />
  <sodipodi:namedview
     id="namedview6"
     pagecolor="#ffffff"
     bordercolor="#666666"
     borderopacity="1.0"
     inkscape:pageshadow="2"
     inkscape:pageopacity="0.0"
     inkscape:pagecheckerboard="0"
     showgrid="false"
     inkscape:zoom="15.999999"
     inkscape:cx="7.8750003"
     inkscape:cy="13.343751"
     inkscape:window-width="1920"
     inkscape:window-height="996"
     inkscape:window-x="0"
     inkscape:window-y="0"
     inkscape:window-maximized="1"
     inkscape:current-layer="svg4"
     showguides="false" />
  <path
     d="M 1,11 C 1,3.8 3.8,1 11,1 18.2,1 21,3.8000003 21,11 21,18.2 18.2,21 11,21 3.8,21 1,18.2 1,11"
     id="path2"
     style="fill:#6d8f98;fill-opacity:1;stroke-width:0.1" />
  <path
     id="path844"
     style="fill:#ffffff;stroke-width:0.999931;stroke-linejoin:round"
     d="m 7.9969893,3.9404063 c -0.885806,-0.01259 -1.775053,0.267426 -2.510569,0.839786 l 0.0029,0.0029 0.711871,0.710881 1.737178,1.738168 c 0.195855,0.195855 0.195855,0.511127 0,0.706983 -0.195856,0.195854 -0.511128,0.195854 -0.706982,0 l -1.737185,-1.737186 -0.714794,-0.714794 c -0.07094,0.09116 -0.136275,0.18565 -0.198229,0.281231 l -10e-4,0.002 c -0.06277,0.09695 -0.121261,0.195976 -0.174791,0.296854 -0.05252,0.09896 -0.09992,0.199591 -0.143545,0.301737 -0.0016,0.0032 -0.0033,0.0065 -0.0049,0.0098 -0.617042,1.455819 -0.333408,3.20248 0.853457,4.3893447 1.046751,1.046751 2.528803,1.391219 3.863015,1.035084 l 6.1565257,6.156526 c 0.39171,0.39171 1.02323,0.391709 1.41494,0 l 1.413966,-1.413965 c 0.39171,-0.391709 0.391706,-1.023228 0,-1.414941 l -6.15647,-6.1565687 c 0.356135,-1.334211 0.01167,-2.816264 -1.035085,-3.863014 -0.766176,-0.766176 -1.7664027,-1.156553 -2.7703147,-1.170818 z m -0.07909,0.999931 c 0.774768,-0.0056 1.551246,0.286687 2.1424287,0.87787 0.693984,0.693983 0.976786,1.643565 0.848575,2.545722 -2.83e-4,0.0021 -7.08e-4,0.0048 -9.2e-4,0.0069 -0.009,0.06244 -0.02123,0.123662 -0.03418,0.185533 -0.0021,0.01004 -0.0036,0.02022 -0.0059,0.03027 -1.28e-4,6.5e-4 1.06e-4,0.0013 0,0.002 -0.0153,0.06922 -0.03345,0.137837 -0.05371,0.206041 -0.0032,0.01082 -0.0065,0.02141 -0.0098,0.03222 -8.48e-4,0.003 -0.002,0.0058 -0.003,0.0088 -0.01958,0.06263 -0.04068,0.125021 -0.06445,0.18651 -0.02705,0.07001 -0.05734,0.139772 -0.08984,0.207995 -4.53e-4,9.61e-4 -5.66e-4,0.002 -9.9e-4,0.003 l 0.739213,0.738224 5.866507,5.8665067 -1.414965,1.414966 -5.8665057,-5.866507 -0.738224,-0.739213 c -0.06969,0.03328 -0.140349,0.06322 -0.2119,0.09081 -0.141837,0.05471 -0.287413,0.09849 -0.434539,0.13085 -0.0013,2.83e-4 -0.0026,6.37e-4 -0.004,9.9e-4 -0.01648,0.0036 -0.03327,0.0055 -0.0498,0.0088 -0.951261,0.191123 -1.977167,-0.07984 -2.714655,-0.817328 C 5.0320603,9.2761143 4.7734513,8.1638353 5.0409293,7.1630613 l 1.483333,1.483332 c 0.587565,0.587566 1.533383,0.587565 2.120948,0 0.587565,-0.587565 0.587565,-1.533382 0,-2.120948 l -1.483151,-1.48342 c 0.247267,-0.06609 0.501561,-0.09971 0.755807,-0.101556 z"
     sodipodi:nodetypes="sccccscccccsccscsssscssssccscccsccsccccccssscscssscscs" />
</svg>
