<?xml version="1.0" encoding="UTF-8" standalone="no"?>
<svg
   viewbox="0 0 200 200"
   version="1.1"
   id="svg4"
   sodipodi:docname="applications-multimedia.svg"
   width="22"
   height="22"
   inkscape:version="1.1.1 (3bf5ae0d25, 2021-09-20, custom)"
   xmlns:inkscape="http://www.inkscape.org/namespaces/inkscape"
   xmlns:sodipodi="http://sodipodi.sourceforge.net/DTD/sodipodi-0.dtd"
   xmlns="http://www.w3.org/2000/svg"
   xmlns:svg="http://www.w3.org/2000/svg">
  <defs
     id="defs8" />
  <sodipodi:namedview
     id="namedview6"
     pagecolor="#ffffff"
     bordercolor="#666666"
     borderopacity="1.0"
     inkscape:pageshadow="2"
     inkscape:pageopacity="0.0"
     inkscape:pagecheckerboard="0"
     showgrid="false"
     inkscape:zoom="16"
     inkscape:cx="15.125"
     inkscape:cy="22.40625"
     inkscape:window-width="1920"
     inkscape:window-height="996"
     inkscape:window-x="0"
     inkscape:window-y="0"
     inkscape:window-maximized="1"
     inkscape:current-layer="svg4"
     showguides="true" />
  <path
     d="M 1,11 C 1,3.8 3.8,1 11,1 18.2,1 21,3.8 21,11 21,18.2 18.2,21 11,21 3.8,21 1,18.2 1,11"
     id="path2"
     style="fill:#9a80ff;fill-opacity:1;stroke-width:0.1" />
  <path
     id="path2090"
     style="color:#000000;fill:#ffffff;stroke-width:1.0687;stroke-linecap:round;stroke-linejoin:round;-inkscape-stroke:none"
     d="M 6.246072,4 5.6874878,4.8876194 15.499834,10.090281 c 0.66614,0.395285 0.66614,1.362322 0,1.757608 l -7.9647227,5.003163 c -0.678271,0.40175 -1.5348099,-0.08859 -1.535129,-0.878804 V 9.9577838 H 5 v 5.9066952 c -6.9e-5,1.657542 1.817614,2.681249 3.2460369,1.828147 L 15.959787,12.79723 c 1.386951,-0.828186 1.386951,-2.8281067 0,-3.6562911 z"
     sodipodi:nodetypes="ccccccccccccc" />
</svg>
