<?xml version="1.0" encoding="UTF-8" standalone="no"?>
<svg
   viewbox="0 0 200 200"
   version="1.1"
   id="svg4"
   sodipodi:docname="applications-office.svg"
   width="22"
   height="22"
   inkscape:version="1.1.1 (3bf5ae0d25, 2021-09-20, custom)"
   xmlns:inkscape="http://www.inkscape.org/namespaces/inkscape"
   xmlns:sodipodi="http://sodipodi.sourceforge.net/DTD/sodipodi-0.dtd"
   xmlns="http://www.w3.org/2000/svg"
   xmlns:svg="http://www.w3.org/2000/svg">
  <defs
     id="defs8" />
  <sodipodi:namedview
     id="namedview6"
     pagecolor="#ffffff"
     bordercolor="#666666"
     borderopacity="1.0"
     inkscape:pageshadow="2"
     inkscape:pageopacity="0.0"
     inkscape:pagecheckerboard="0"
     showgrid="false"
     inkscape:zoom="9.1570328"
     inkscape:cx="14.633561"
     inkscape:cy="27.574434"
     inkscape:window-width="1920"
     inkscape:window-height="996"
     inkscape:window-x="0"
     inkscape:window-y="0"
     inkscape:window-maximized="1"
     inkscape:current-layer="svg4"
     showguides="false" />
  <path
     d="M 1,11 C 1,3.8 3.8,1 11,1 18.2,1 21,3.8000003 21,11 21,18.2 18.2,21 11,21 3.8,21 1,18.2 1,11"
     id="path2"
     style="fill:#5e9be5;fill-opacity:1;stroke-width:0.1" />
  <path
     id="path3817"
     style="color:#000000;fill:#ffffff;stroke:none;stroke-width:0.49678;stroke-linecap:round;stroke-linejoin:round;-inkscape-stroke:none"
     d="m 6,3.0003919 c -0.554,0 -0.927732,0.457987 -1,1 V 19.000392 H 6 V 4.0003919 h 5 v -1 z m 6.951172,0.002 c -0.04904,0.0049 -0.09709,0.01713 -0.142578,0.03613 C 12.6218,3.1158999 12.500013,3.2981899 12.5,3.5003919 v 3.5 c 2.8e-5,0.276131 0.223869,0.499973 0.5,0.5 h 3 V 17.500392 c 0,0.277 -0.223,0.5 -0.5,0.5 h -8 v 1 h 8 c 0.831,0 1.5,-0.669 1.5,-1.5 v -10.0000001 -0.5 c -2.6e-5,-0.132599 -0.05272,-0.259759 -0.146485,-0.353515 l -3.5,-3.5 C 13.247793,3.0409079 13.100159,2.9878739 12.951172,3.0023449 Z M 13.5,4.7074229 15.292969,6.5003919 H 13.5 Z m -6,4.292577 v 1 h 7 v -1 z M 7.5,12 v 1 h 7 v -1 z m 0,3 v 1 H 11 v -1 z"
     sodipodi:nodetypes="sscccccsccccccssccssccccccccccccccccccccccccc" />
</svg>
