<?xml version="1.0" encoding="UTF-8" standalone="no"?>
<svg
   viewbox="0 0 200 200"
   version="1.1"
   id="svg4"
   sodipodi:docname="applications-graphics.svg"
   width="22"
   height="22"
   inkscape:version="1.1.1 (3bf5ae0d25, 2021-09-20, custom)"
   xmlns:inkscape="http://www.inkscape.org/namespaces/inkscape"
   xmlns:sodipodi="http://sodipodi.sourceforge.net/DTD/sodipodi-0.dtd"
   xmlns="http://www.w3.org/2000/svg"
   xmlns:svg="http://www.w3.org/2000/svg">
  <defs
     id="defs8" />
  <sodipodi:namedview
     id="namedview6"
     pagecolor="#ffffff"
     bordercolor="#666666"
     borderopacity="1.0"
     inkscape:pageshadow="2"
     inkscape:pageopacity="0.0"
     inkscape:pagecheckerboard="0"
     showgrid="false"
     inkscape:zoom="24.15625"
     inkscape:cx="10.307891"
     inkscape:cy="9.4592497"
     inkscape:window-width="1920"
     inkscape:window-height="996"
     inkscape:window-x="0"
     inkscape:window-y="0"
     inkscape:window-maximized="1"
     inkscape:current-layer="svg4"
     showguides="false" />
  <path
     d="M 1,11 C 1,3.8 3.8,1 11,1 18.2,1 21,3.8 21,11 21,18.2 18.2,21 11,21 3.8,21 1,18.2 1,11"
     id="path2"
     style="fill:#9a80ff;fill-opacity:1;stroke-width:0.1" />
  <path
     id="path844"
     style="fill:#ffffff;stroke-width:2.16096;stroke-linejoin:round"
     d="M 10.638672,4.0019531 C 9.3816264,4.026362 8.0678843,4.2550935 6.9199219,4.8320312 4.6441215,5.9757928 2.9253149,8.4772444 3.0019531,10.373047 c 0.022831,0.56477 0.1649845,1.097731 0.4746094,1.527344 C 4.8872527,13.857763 7.5158843,11.910561 8.5,12.75 9.0013309,13.177627 8.7312451,13.852176 8.8613281,14.505859 8.9712091,15.058024 9.3095278,15.583435 10,15.837891 V 14.746094 C 9.2950013,14.165164 9.9997815,12.727665 9,12 7.6092038,10.987745 5.1001675,12.829793 4.2636719,11.267578 4.0785609,10.92187 3.9393109,10.551747 3.9492188,10.119141 3.9824754,8.6669825 4.8747447,7.2324202 7.4726562,5.6640625 8.440471,5.0797933 9.7662027,4.9169717 10.914062,4.9160156 12.761401,4.9144803 14.51308,5.3433532 15.5625,6.8125 l -3.507812,6.253906 c -0.926952,0.614936 -1.36701,1.651481 -1.119141,2.857422 0.426443,2.074734 -0.138536,2.133268 -0.214844,2.841797 -0.02187,0.203089 0.02268,0.39149 0.140625,0.521484 0.117944,0.129994 0.296919,0.184453 0.472656,0.169922 0.904277,-0.0748 1.818368,-0.56366 2.519532,-1.246093 0.701165,-0.682432 1.161134,-1.270531 1.162109,-2.16211 l -1.03125,-0.08008 c -0.06154,0.797511 -0.379234,1.086965 -0.837891,1.509766 -0.38931,0.35887 -0.851291,0.531993 -1.271484,0.65039 0.19846,-0.853057 0.226121,-1.566391 0.05469,-2.205078 l -0.002,-0.002 c -0.241228,-0.832522 0.06189,-1.41888 0.535157,-1.851563 l 2.4375,1.136719 a 0.50005,0.50005 0 0 0 0.677734,-0.277343 L 19.125,5.5507812 A 0.50005,0.50005 0 0 0 18.869141,4.9199219 L 17.509766,4.2871094 A 0.50005,0.50005 0 0 0 16.861328,4.4960938 L 16.060547,5.9257812 C 14.685356,4.5973907 12.722909,3.961482 10.638672,4.0019531 Z m 6.86914,1.3867188 0.517579,0.2421875 -3.191407,8.4414066 -1.742187,-0.8125 z M 12,6 A 1,1 0 0 0 11,7 1,1 0 0 0 12,8 1,1 0 0 0 13,7 1,1 0 0 0 12,6 Z M 8.75,7 A 0.75,0.75 0 0 0 8,7.75 0.75,0.75 0 0 0 8.75,8.5 0.75,0.75 0 0 0 9.5,7.75 0.75,0.75 0 0 0 8.75,7 Z M 6.5,9 A 0.5,0.5 0 0 0 6,9.5 0.5,0.5 0 0 0 6.5,10 0.5,0.5 0 0 0 7,9.5 0.5,0.5 0 0 0 6.5,9 Z" />
</svg>
