<?xml version="1.0" encoding="UTF-8" standalone="no"?>
<svg
   viewbox="0 0 200 200"
   version="1.1"
   id="svg4"
   sodipodi:docname="applications-utilities.svg"
   width="22"
   height="22"
   inkscape:version="1.1.1 (3bf5ae0d25, 2021-09-20, custom)"
   xmlns:inkscape="http://www.inkscape.org/namespaces/inkscape"
   xmlns:sodipodi="http://sodipodi.sourceforge.net/DTD/sodipodi-0.dtd"
   xmlns="http://www.w3.org/2000/svg"
   xmlns:svg="http://www.w3.org/2000/svg">
  <defs
     id="defs8" />
  <sodipodi:namedview
     id="namedview6"
     pagecolor="#ffffff"
     bordercolor="#666666"
     borderopacity="1.0"
     inkscape:pageshadow="2"
     inkscape:pageopacity="0.0"
     inkscape:pagecheckerboard="0"
     showgrid="false"
     inkscape:zoom="1"
     inkscape:cx="9"
     inkscape:cy="15.5"
     inkscape:window-width="1920"
     inkscape:window-height="996"
     inkscape:window-x="0"
     inkscape:window-y="0"
     inkscape:window-maximized="1"
     inkscape:current-layer="svg4"
     showguides="true" />
  <path
     d="M 1,11 C 1,3.8 3.8,1 11,1 18.2,1 21,3.8 21,11 21,18.2 18.2,21 11,21 3.8,21 1,18.2 1,11"
     id="path2"
     style="fill:#c67ea4;fill-opacity:1;stroke-width:0.1" />
  <path
     id="path3817"
     style="color:#000000;fill:#ffffff;stroke:none;stroke-width:0.49678;stroke-linecap:round;stroke-linejoin:round;-inkscape-stroke:none"
     d="m 8.5,5 c -0.554,0 -1,0.434139 -1,1 V 8 H 6 C 4.891999,8 4,8.8919991 4,10 v 7 h 1 v -5 h 12 v 2 c 0,1.108 -0.892,2 -2,2 H 6 v 1 h 9 c 1.662,0 3,-1.338 3,-3 v -4 h -1 v 1 H 5 V 10 C 5,9.446 5.446853,9.03073 6,9 H 18 V 8 H 8.5 V 6 h 5 v 1 h 1 V 6 c 0,-0.554 -0.446,-1 -1,-1 z"
     sodipodi:nodetypes="sscssccccssccssccccsccccccccsss" />
</svg>
