<?xml version="1.0" encoding="UTF-8" standalone="no"?>
<svg
   width="16"
   height="16"
   version="1.1"
   id="svg4"
   sodipodi:docname="bluetooth-paired-symbolic.svg"
   inkscape:version="1.1.1 (3bf5ae0d25, 2021-09-20, custom)"
   xmlns:inkscape="http://www.inkscape.org/namespaces/inkscape"
   xmlns:sodipodi="http://sodipodi.sourceforge.net/DTD/sodipodi-0.dtd"
   xmlns="http://www.w3.org/2000/svg"
   xmlns:svg="http://www.w3.org/2000/svg">
  <defs
     id="defs8" />
  <sodipodi:namedview
     id="namedview6"
     pagecolor="#ffffff"
     bordercolor="#666666"
     borderopacity="1.0"
     inkscape:pageshadow="2"
     inkscape:pageopacity="0.0"
     inkscape:pagecheckerboard="0"
     showgrid="false"
     showguides="false"
     inkscape:zoom="44.3125"
     inkscape:cx="7.9887165"
     inkscape:cy="8"
     inkscape:window-width="1920"
     inkscape:window-height="996"
     inkscape:window-x="0"
     inkscape:window-y="0"
     inkscape:window-maximized="1"
     inkscape:current-layer="svg4" />
  <path
     id="path2"
     fill="#dedede"
     d="M 7.46875 0.001953125 C 7.4194295 0.0042055766 7.3707756 0.014760625 7.3222656 0.033203125 C 7.1282256 0.10697613 7 0.29241 7 0.5 L 7 6.828125 L 4.8085938 4.8574219 C 4.5914538 4.6868219 4.2780319 4.7242662 4.1074219 4.9414062 C 3.9368119 5.1585462 3.9742663 5.4719681 4.1914062 5.6425781 L 6.8730469 8 L 4.1914062 10.357422 C 3.9742662 10.528022 3.9368119 10.841494 4.1074219 11.058594 C 4.2780319 11.275794 4.5914538 11.313178 4.8085938 11.142578 L 7 9.171875 L 7 15.5 C 7 15.7076 7.1282256 15.892997 7.3222656 15.966797 C 7.5163056 16.040597 7.7351269 15.987231 7.8730469 15.832031 L 11.873047 11.832031 C 11.964637 11.729031 12.010317 11.592478 11.998047 11.455078 C 11.985777 11.317778 11.917004 11.190569 11.808594 11.105469 L 8.4902344 8 L 11.808594 4.8925781 C 11.917004 4.8073981 11.985777 4.6822419 11.998047 4.5449219 C 12.010317 4.4075919 11.964637 4.2710188 11.873047 4.1679688 L 7.8730469 0.16796875 C 7.762946 0.057879715 7.6167116 -0.0048042297 7.46875 0.001953125 z M 8 1.8144531 L 10.773438 4.4355469 L 8 7.1132812 L 8 1.8144531 z M 2 6 L 2 10 L 4 8 L 2 6 z M 14 6 L 12 8 L 14 10 L 14 6 z M 8 8.8867188 L 10.773438 11.564453 L 8 14.185547 L 8 8.8867188 z " />
</svg>
