<?xml version="1.0" encoding="UTF-8" standalone="no"?>
<!-- Created with Inkscape (http://www.inkscape.org/) -->

<svg
   width="16"
   height="16"
   viewBox="0 0 4.2333332 4.2333335"
   version="1.1"
   id="svg5"
   inkscape:version="1.1.1 (3bf5ae0d25, 2021-09-20, custom)"
   sodipodi:docname="weather-severe-alert-symbolic.svg"
   xmlns:inkscape="http://www.inkscape.org/namespaces/inkscape"
   xmlns:sodipodi="http://sodipodi.sourceforge.net/DTD/sodipodi-0.dtd"
   xmlns="http://www.w3.org/2000/svg"
   xmlns:svg="http://www.w3.org/2000/svg">
  <sodipodi:namedview
     id="namedview7"
     pagecolor="#ffffff"
     bordercolor="#666666"
     borderopacity="1.0"
     inkscape:pageshadow="2"
     inkscape:pageopacity="0.0"
     inkscape:pagecheckerboard="0"
     inkscape:document-units="px"
     showgrid="false"
     units="px"
     height="16px"
     inkscape:zoom="49.780318"
     inkscape:cx="8.9191877"
     inkscape:cy="10.094351"
     inkscape:window-width="1920"
     inkscape:window-height="996"
     inkscape:window-x="0"
     inkscape:window-y="0"
     inkscape:window-maximized="1"
     inkscape:current-layer="svg5" />
  <defs
     id="defs2" />
  <path
     id="path846"
     style="fill:#dedede;fill-opacity:1;stroke-width:1.75;stroke-linejoin:round"
     d="M 10 3 A 4.9999997 4.9999997 0 0 0 6.4726562 4.4726562 L 7.171875 5.171875 A 3.9999999 3.9999999 0 0 1 10 4 A 3.9999999 3.9999999 0 0 1 14 8 A 3.9999999 3.9999999 0 0 1 13 10.644531 L 13 11.998047 A 4.9999997 4.9999997 0 0 0 15 8 A 4.9999997 4.9999997 0 0 0 10 3 z M 4.5 6 A 3.4999998 3.4999997 0 0 0 1 9.5 A 3.4999998 3.4999997 0 0 0 4.5 13 L 10 13 L 10 12 L 4.5 12 A 2.4999999 2.4999999 0 0 1 2 9.5 A 2.4999999 2.4999999 0 0 1 4.5 7 A 2.4999999 2.4999999 0 0 1 7 9.5 L 8 9.5 A 3.4999998 3.4999997 0 0 0 4.5 6 z "
     transform="scale(0.26458333)" />
  <path
     id="rect947"
     class="error"
     style="fill:#f22c42;fill-opacity:1;stroke-width:2;stroke-linejoin:round"
     d="M 11 9 L 11 14 L 12 14 L 12 9 L 11 9 z M 11 15 L 11 16 L 12 16 L 12 15 L 11 15 z "
     transform="scale(0.26458333)" />
</svg>
