<?xml version="1.0" encoding="UTF-8" standalone="no"?>
<!-- Created with Inkscape (http://www.inkscape.org/) -->

<svg
   width="16"
   height="16"
   viewBox="0 0 4.2333332 4.2333335"
   version="1.1"
   id="svg5"
   inkscape:version="1.1.1 (3bf5ae0d25, 2021-09-20, custom)"
   sodipodi:docname="weather-none-available-symbolic.svg"
   xmlns:inkscape="http://www.inkscape.org/namespaces/inkscape"
   xmlns:sodipodi="http://sodipodi.sourceforge.net/DTD/sodipodi-0.dtd"
   xmlns="http://www.w3.org/2000/svg"
   xmlns:svg="http://www.w3.org/2000/svg">
  <sodipodi:namedview
     id="namedview7"
     pagecolor="#ffffff"
     bordercolor="#666666"
     borderopacity="1.0"
     inkscape:pageshadow="2"
     inkscape:pageopacity="0.0"
     inkscape:pagecheckerboard="0"
     inkscape:document-units="px"
     showgrid="false"
     units="px"
     height="16px"
     inkscape:zoom="35.2"
     inkscape:cx="5.4829545"
     inkscape:cy="6.8323863"
     inkscape:window-width="1920"
     inkscape:window-height="996"
     inkscape:window-x="0"
     inkscape:window-y="0"
     inkscape:window-maximized="1"
     inkscape:current-layer="svg5" />
  <defs
     id="defs2" />
  <path
     id="path846"
     style="fill:#dedede;fill-opacity:1;stroke-width:0.463021;stroke-linejoin:round"
     d="M 2.6458333,0.79374999 A 1.3229166,1.3229166 0 0 0 1.7125569,1.1833903 L 1.8975586,1.3683919 A 1.0583333,1.0583333 0 0 1 2.6458333,1.0583333 1.0583333,1.0583333 0 0 1 3.7041666,2.1166666 1.0583333,1.0583333 0 0 1 2.6458333,3.175 H 1.190625 A 0.6614583,0.6614583 0 0 1 0.52916666,2.5135416 0.6614583,0.6614583 0 0 1 1.190625,1.8520833 0.6614583,0.6614583 0 0 1 1.8520833,2.5135416 H 2.1166666 A 0.92604163,0.9260416 0 0 0 1.190625,1.5875 0.92604163,0.9260416 0 0 0 0.26458333,2.5135416 0.92604163,0.9260416 0 0 0 1.190625,3.4395833 H 2.6458333 A 1.3229166,1.3229166 0 0 0 3.96875,2.1166666 1.3229166,1.3229166 0 0 0 2.6458333,0.79374999 Z" />
  <path
     id="rect3710"
     class="error"
     style="fill:#f22c42;stroke-width:2;stroke-linejoin:round"
     d="M 10.658203 5 C 10.168626 5 9.7715023 5.1352983 9.4648438 5.4042969 C 9.1608876 5.6706054 9.0053921 6.0212537 9 6.4570312 L 9.7460938 6.4570312 C 9.7460938 6.2122433 9.8293158 6.0163536 9.9960938 5.8710938 C 10.162873 5.7258339 10.383825 5.6542969 10.658203 5.6542969 C 10.940653 5.6542969 11.156739 5.735086 11.304688 5.8964844 C 11.452636 6.0551935 11.525391 6.2741922 11.525391 6.5566406 C 11.525391 6.8498491 11.413458 7.1253109 11.1875 7.3808594 L 10.658203 7.9257812 C 10.451075 8.1517413 10.313344 8.3573612 10.246094 8.5429688 C 10.178856 8.7285778 10.144064 8.9806729 10.138672 9.3007812 L 10.884766 9.3007812 C 10.884766 8.8919044 10.983318 8.5792179 11.179688 8.3613281 L 11.619141 7.9257812 C 12.054918 7.4684839 12.271484 7.0039506 12.271484 6.5332031 C 12.271484 6.0570756 12.128888 5.6837977 11.84375 5.4121094 C 11.561302 5.1377308 11.166611 5 10.658203 5 z M 10.519531 10.152344 C 10.387448 10.15723 10.285455 10.199167 10.214844 10.277344 C 10.142214 10.358044 10.105469 10.45903 10.105469 10.580078 C 10.105469 10.701126 10.142214 10.802112 10.214844 10.882812 C 10.290162 10.960822 10.399662 11 10.544922 11 C 10.690182 11 10.801635 10.960822 10.876953 10.882812 C 10.952272 10.802115 10.988281 10.701129 10.988281 10.580078 C 10.988281 10.45903 10.952272 10.358044 10.876953 10.277344 C 10.801635 10.193955 10.690182 10.152344 10.544922 10.152344 C 10.535843 10.152344 10.528337 10.152018 10.519531 10.152344 z "
     transform="scale(0.26458333)" />
</svg>
