<?xml version="1.0" encoding="UTF-8" standalone="no"?>
<!-- Created with Inkscape (http://www.inkscape.org/) -->

<svg
   width="16"
   height="16"
   viewBox="0 0 4.2333332 4.2333335"
   version="1.1"
   id="svg5"
   inkscape:version="1.1.1 (3bf5ae0d25, 2021-09-20, custom)"
   sodipodi:docname="weather-overcast-symbolic.svg"
   xmlns:inkscape="http://www.inkscape.org/namespaces/inkscape"
   xmlns:sodipodi="http://sodipodi.sourceforge.net/DTD/sodipodi-0.dtd"
   xmlns="http://www.w3.org/2000/svg"
   xmlns:svg="http://www.w3.org/2000/svg">
  <sodipodi:namedview
     id="namedview7"
     pagecolor="#ffffff"
     bordercolor="#666666"
     borderopacity="1.0"
     inkscape:pageshadow="2"
     inkscape:pageopacity="0.0"
     inkscape:pagecheckerboard="0"
     inkscape:document-units="px"
     showgrid="false"
     units="px"
     height="16px"
     inkscape:zoom="21.96875"
     inkscape:cx="3.7553342"
     inkscape:cy="8.5803697"
     inkscape:window-width="1567"
     inkscape:window-height="932"
     inkscape:window-x="56"
     inkscape:window-y="50"
     inkscape:window-maximized="0"
     inkscape:current-layer="svg5" />
  <defs
     id="defs2" />
  <path
     id="path846"
     style="fill:#dedede;fill-opacity:1;stroke-width:1.75;stroke-linejoin:round"
     d="M 9 2 A 4.9999997 4.9999997 0 0 0 5.4726562 3.4726562 L 6.171875 4.171875 A 3.9999999 3.9999999 0 0 1 9 3 A 3.9999999 3.9999999 0 0 1 13 7 A 3.9999999 3.9999999 0 0 1 9 11 L 3.5 11 A 2.4999999 2.4999999 0 0 1 1 8.5 A 2.4999999 2.4999999 0 0 1 3.5 6 A 2.4999999 2.4999999 0 0 1 6 8.5 L 7 8.5 A 3.4999998 3.4999997 0 0 0 3.5 5 A 3.4999998 3.4999997 0 0 0 0 8.5 A 3.4999998 3.4999997 0 0 0 3.5 12 L 9 12 A 4.9999997 4.9999997 0 0 0 14 7 A 4.9999997 4.9999997 0 0 0 9 2 z M 14.896484 7 A 4.9999995 4.9999995 0 0 1 15 8 A 4.9999995 4.9999995 0 0 1 10 13 L 3 13 L 3 14 L 10 14 A 5.9999996 5.9999996 0 0 0 16 8 A 5.9999996 5.9999996 0 0 0 15.914062 7 L 14.896484 7 z "
     transform="scale(0.26458333)" />
</svg>
