<?xml version="1.0" encoding="UTF-8" standalone="no"?>
<svg
   height="16"
   width="16"
   version="1.1"
   id="svg4"
   sodipodi:docname="weather-clouds-night-symbolic.svg"
   inkscape:version="1.1.1 (3bf5ae0d25, 2021-09-20, custom)"
   xmlns:inkscape="http://www.inkscape.org/namespaces/inkscape"
   xmlns:sodipodi="http://sodipodi.sourceforge.net/DTD/sodipodi-0.dtd"
   xmlns="http://www.w3.org/2000/svg"
   xmlns:svg="http://www.w3.org/2000/svg">
  <defs
     id="defs8" />
  <sodipodi:namedview
     id="namedview6"
     pagecolor="#ffffff"
     bordercolor="#666666"
     borderopacity="1.0"
     inkscape:pageshadow="2"
     inkscape:pageopacity="0.0"
     inkscape:pagecheckerboard="0"
     showgrid="false"
     inkscape:zoom="16"
     inkscape:cx="5.125"
     inkscape:cy="13.84375"
     inkscape:window-width="1920"
     inkscape:window-height="996"
     inkscape:window-x="0"
     inkscape:window-y="0"
     inkscape:window-maximized="1"
     inkscape:current-layer="svg4" />
  <path
     id="path843"
     style="fill:#dedede;stroke-width:2;stroke-linejoin:round"
     d="M 9.2324219 1.0546875 C 6.2184737 1.3871792 3.8265576 3.6011023 3.1757812 6.4492188 C 3.538065 6.2630396 3.9266604 6.1332882 4.328125 6.0644531 C 4.8376437 4.580838 5.9157625 3.3268542 7.3730469 2.6171875 C 7.1289962 3.3880423 7.0032182 4.1914411 7 5 C 7.0003036 5.1371474 7.0045345 5.2725456 7.0117188 5.4082031 C 7.0124655 5.4219 7.0128544 5.4355385 7.0136719 5.4492188 C 7.0211143 5.5773666 7.0334259 5.705394 7.046875 5.8320312 C 7.0760092 6.106361 7.1194269 6.3765013 7.1757812 6.6425781 C 7.4629021 7.9982181 8.0934327 9.2365684 8.9824219 10.251953 C 9.0541419 10.33387 9.1281034 10.413225 9.203125 10.492188 C 9.2766393 10.569562 9.3511372 10.646271 9.4277344 10.720703 C 9.4290581 10.72199 9.4303159 10.723324 9.4316406 10.724609 C 9.4316406 10.724609 9.4335938 10.726562 9.4335938 10.726562 C 9.5841005 10.872514 9.7404609 11.012479 9.9023438 11.146484 C 9.9197772 11.160927 9.937517 11.175154 9.9550781 11.189453 C 10.015487 11.238599 10.076773 11.286563 10.138672 11.333984 C 10.167844 11.356355 10.197066 11.378409 10.226562 11.400391 C 10.294215 11.450758 10.362306 11.500546 10.431641 11.548828 C 10.443198 11.556882 10.455193 11.56427 10.466797 11.572266 C 10.533351 11.618089 10.599921 11.663167 10.667969 11.707031 C 10.715132 11.737462 10.76268 11.767404 10.810547 11.796875 C 10.867494 11.831903 10.924499 11.866743 10.982422 11.900391 C 11.00031 11.910792 11.019129 11.919418 11.037109 11.929688 C 11.113478 11.973259 11.189582 12.017461 11.267578 12.058594 C 11.293517 12.072284 11.319588 12.086193 11.345703 12.099609 C 11.420795 12.138158 11.497695 12.174684 11.574219 12.210938 C 11.578948 12.213179 11.583156 12.216517 11.587891 12.21875 C 11.668449 12.25672 11.749939 12.292753 11.832031 12.328125 C 11.925943 12.368621 12.021329 12.406346 12.117188 12.443359 C 12.13437 12.449987 12.150725 12.458329 12.167969 12.464844 C 12.215665 12.482882 12.264341 12.498463 12.3125 12.515625 C 12.382634 12.540595 12.452348 12.566756 12.523438 12.589844 C 12.6253 12.622926 12.728271 12.652504 12.832031 12.681641 C 12.83798 12.683313 12.843655 12.685841 12.849609 12.6875 C 12.954339 12.716649 13.059443 12.744495 13.166016 12.769531 C 13.170659 12.770623 13.175041 12.772354 13.179688 12.773438 C 13.291036 12.79939 13.404313 12.822392 13.517578 12.84375 C 12.496273 13.590372 11.265102 13.995066 10 14 C 8.998151 14 8.0548611 13.75255 7.2246094 13.318359 C 6.8895865 13.544996 6.5221262 13.719506 6.1347656 13.835938 C 7.2424515 14.571051 8.5709678 15 10 15 C 12.308623 14.9952 14.466403 13.852328 15.767578 11.945312 C 15.512915 11.977602 15.256669 11.995859 15 12 C 14.081699 12 13.205853 11.821462 12.402344 11.5 C 12.402344 11.5 12.400391 11.498047 12.400391 11.498047 C 12.359011 11.481477 12.316381 11.466559 12.275391 11.449219 C 12.198293 11.41661 12.122528 11.38292 12.046875 11.347656 C 11.99329 11.322679 11.939554 11.295816 11.886719 11.269531 C 11.820387 11.236533 11.754566 11.20299 11.689453 11.167969 C 11.66038 11.152331 11.63234 11.135176 11.603516 11.119141 C 11.532571 11.079674 11.461978 11.039882 11.392578 10.998047 C 11.384053 10.992908 11.375688 10.987596 11.367188 10.982422 C 11.295519 10.9388 11.224243 10.89375 11.154297 10.847656 C 11.153091 10.846862 11.151596 10.846499 11.150391 10.845703 C 11.10433 10.815299 11.058962 10.783408 11.013672 10.751953 C 10.964686 10.717931 10.91525 10.683669 10.867188 10.648438 C 10.845726 10.632706 10.824009 10.617533 10.802734 10.601562 C 10.743712 10.557264 10.68646 10.512898 10.628906 10.466797 C 10.577122 10.425317 10.525173 10.382751 10.474609 10.339844 C 10.471098 10.336864 10.468349 10.333064 10.464844 10.330078 C 10.414303 10.287032 10.363739 10.243661 10.314453 10.199219 C 10.284914 10.172565 10.255642 10.144334 10.226562 10.117188 C 10.174001 10.068136 10.121344 10.019382 10.070312 9.96875 C 10.060505 9.9590182 10.050767 9.9492425 10.041016 9.9394531 C 9.9802804 9.8784671 9.9217471 9.8170878 9.8632812 9.7539062 C 9.8154454 9.702212 9.7689329 9.6488265 9.7226562 9.5957031 C 9.6497557 9.5120167 9.5786804 9.42696 9.5097656 9.3398438 C 9.4796667 9.3017952 9.449241 9.2632926 9.4199219 9.2246094 C 9.4011106 9.1998051 9.381768 9.1754518 9.3632812 9.1503906 C 9.3278367 9.1023141 9.2939989 9.0529117 9.2597656 9.0039062 C 9.2415113 8.9777859 9.2229834 8.9521608 9.2050781 8.9257812 C 9.1654022 8.8673069 9.1277786 8.8077678 9.0898438 8.7480469 C 9.0539523 8.6915432 9.0186762 8.6357126 8.984375 8.578125 C 8.9648914 8.5454143 8.9466972 8.5115682 8.9277344 8.4785156 C 8.9094134 8.4466078 8.890877 8.4150339 8.8730469 8.3828125 C 8.8484183 8.3382766 8.8244612 8.29317 8.8007812 8.2480469 C 8.784674 8.2173535 8.7676163 8.1872099 8.7519531 8.15625 C 8.6991405 8.0518605 8.6492207 7.9452047 8.6015625 7.8378906 C 8.5951877 7.8235362 8.5883123 7.809327 8.5820312 7.7949219 C 8.5554691 7.7340023 8.5307249 7.6731359 8.5058594 7.6113281 C 8.452407 7.4784626 8.4028205 7.343787 8.3574219 7.2070312 C 8.3355615 7.1411806 8.3129118 7.074515 8.2929688 7.0078125 C 8.2784575 6.9592777 8.2654344 6.9102989 8.2519531 6.8613281 C 8.2454871 6.8378296 8.2386483 6.8146124 8.2324219 6.7910156 C 8.2138947 6.7208388 8.1980272 6.6510997 8.1816406 6.5800781 C 8.1652541 6.5090565 8.1489753 6.4370642 8.1347656 6.3652344 C 8.0473612 5.9234047 8 5.4674831 8 5 C 8.0043237 3.5908246 8.4338606 2.2157619 9.2324219 1.0546875 z M 5 7 A 3 3 0 0 0 2.8828125 7.8828125 L 3.5917969 8.5917969 A 2 2 0 0 1 5 8 A 2 2 0 0 1 7 10 A 2 2 0 0 1 5 12 L 2 12 C 1.4477152 12 1 11.552284 1 11 C 1 10.447716 1.4477152 10 2 10 C 2.5522848 10 3 10.447716 3 11 L 4 11 C 4 9.895431 3.1045695 9 2 9 C 0.89543051 9 0 9.895431 0 11 C 0 12.104569 0.89543051 13 2 13 L 5 13 A 3 3 0 0 0 8 10 A 3 3 0 0 0 5 7 z " />
</svg>
