<?xml version="1.0" encoding="UTF-8" standalone="no"?>
<svg
   viewbox="0 0 200 200"
   version="1.1"
   id="svg4"
   sodipodi:docname="folder-images.svg"
   width="24"
   height="24"
   inkscape:version="1.1.1 (3bf5ae0d25, 2021-09-20, custom)"
   xmlns:inkscape="http://www.inkscape.org/namespaces/inkscape"
   xmlns:sodipodi="http://sodipodi.sourceforge.net/DTD/sodipodi-0.dtd"
   xmlns="http://www.w3.org/2000/svg"
   xmlns:svg="http://www.w3.org/2000/svg">
  <defs
     id="defs8" />
  <sodipodi:namedview
     id="namedview6"
     pagecolor="#ffffff"
     bordercolor="#666666"
     borderopacity="1.0"
     inkscape:pageshadow="2"
     inkscape:pageopacity="0.0"
     inkscape:pagecheckerboard="0"
     showgrid="false"
     inkscape:zoom="13.735549"
     inkscape:cx="-3.421778"
     inkscape:cy="9.9377171"
     inkscape:window-width="1920"
     inkscape:window-height="1000"
     inkscape:window-x="0"
     inkscape:window-y="0"
     inkscape:window-maximized="1"
     inkscape:current-layer="svg4"
     showguides="false" />
  <path
     d="M 2,12 C 2,4.8 4.8,2 12,2 19.2,2 22,4.8 22,12 22,19.2 19.2,22 12,22 4.8,22 2,19.2 2,12"
     id="path2"
     style="fill:#f8f8f8;fill-opacity:1;stroke-width:0.1" />
  <path
     id="rect1094"
     style="fill:#febd0c;fill-opacity:1;stroke-width:1;stroke-linecap:round;stroke-linejoin:round"
     d="M 6,5 C 5.446,5 5,5.446 5,6 v 12 c 0,0.554 0.446,1 1,1 h 12 c 0.554,0 1,-0.446 1,-1 V 6 C 19,5.446 18.554,5 18,5 Z m 0,1 h 12 v 9.089844 L 16.203125,13.292969 C 16.007255,13.097099 15.75171,13 15.496094,13 c -0.255619,0 -0.511161,0.0971 -0.707032,0.292969 L 12.498047,15.582031 9.7109375,12.292969 C 9.5150675,12.097098 9.2595253,12 9.0039062,12 8.7482893,12 8.492744,12.097103 8.296875,12.292969 L 6,14.589844 Z M 9,7 C 7.8954298,7 7,7.8954298 7,9 c 0,1.104569 0.8954298,2 2,2 1.104569,0 2,-0.895431 2,-2 C 11,7.8954298 10.104569,7 9,7 Z m 0,1 c 0.5522846,0 1,0.4477146 1,1 0,0.5522846 -0.4477154,1 -1,1 C 8.447715,10 8,9.5522846 8,9 8,8.4477146 8.447715,8 9,8 Z m 0.00391,5 2.78711,3.289062 c 0.19587,0.19587 0.451412,0.292969 0.707031,0.292969 0.255617,0 0.511161,-0.0971 0.707031,-0.292969 L 15.496094,14 18,16.503906 V 18 H 6 v -1.996094 z" />
</svg>
