<?xml version="1.0" encoding="UTF-8" standalone="no"?>
<svg
   viewbox="0 0 200 200"
   version="1.1"
   id="svg4"
   sodipodi:docname="folder-documents.svg"
   width="24"
   height="24"
   inkscape:version="1.1.1 (3bf5ae0d25, 2021-09-20, custom)"
   xmlns:inkscape="http://www.inkscape.org/namespaces/inkscape"
   xmlns:sodipodi="http://sodipodi.sourceforge.net/DTD/sodipodi-0.dtd"
   xmlns="http://www.w3.org/2000/svg"
   xmlns:svg="http://www.w3.org/2000/svg">
  <defs
     id="defs8" />
  <sodipodi:namedview
     id="namedview6"
     pagecolor="#ffffff"
     bordercolor="#666666"
     borderopacity="1.0"
     inkscape:pageshadow="2"
     inkscape:pageopacity="0.0"
     inkscape:pagecheckerboard="0"
     showgrid="false"
     inkscape:zoom="13.735549"
     inkscape:cx="3.421778"
     inkscape:cy="16.490058"
     inkscape:window-width="1920"
     inkscape:window-height="1000"
     inkscape:window-x="0"
     inkscape:window-y="0"
     inkscape:window-maximized="1"
     inkscape:current-layer="svg4"
     showguides="false" />
  <path
     d="M 2,12 C 2,4.8 4.8,2 12,2 19.2,2 22,4.8 22,12 22,19.2 19.2,22 12,22 4.8,22 2,19.2 2,12"
     id="path2"
     style="fill:#f8f8f8;fill-opacity:1;stroke-width:0.1" />
  <path
     id="path871"
     style="color:#000000;fill:#febd0c;fill-opacity:1;stroke:none;stroke-width:0.49678;stroke-linecap:round;stroke-linejoin:round;-inkscape-stroke:none"
     d="m 8,5.0003919 c -0.554,0 -1,0.446 -1,1 V 18.000392 c 0,0.552285 0.447715,1 1,1 h 8 c 0.552284,0 1,-0.447715 1,-1 v -8.5000001 -0.5 c -2.6e-5,-0.132599 -0.05272,-0.259759 -0.146485,-0.353515 l -3.5,-3.5 c -0.105722,-0.105969 -0.253356,-0.159003 -0.402343,-0.144532 z m 0,1 h 4.5 v 3 c 2.8e-5,0.276131 0.223869,0.499973 0.5,0.5 h 3 V 18.000392 H 8 Z m 5.5,0.707031 1.792969,1.792969 H 13.5 Z"
     sodipodi:nodetypes="cssssscccccccccccccccccc" />
</svg>
