<?xml version="1.0" encoding="UTF-8" standalone="no"?>
<svg
   viewbox="0 0 200 200"
   version="1.1"
   id="svg4"
   sodipodi:docname="folder-template.svg"
   width="24"
   height="24"
   inkscape:version="1.1.1 (3bf5ae0d25, 2021-09-20, custom)"
   xmlns:inkscape="http://www.inkscape.org/namespaces/inkscape"
   xmlns:sodipodi="http://sodipodi.sourceforge.net/DTD/sodipodi-0.dtd"
   xmlns="http://www.w3.org/2000/svg"
   xmlns:svg="http://www.w3.org/2000/svg">
  <defs
     id="defs8" />
  <sodipodi:namedview
     id="namedview6"
     pagecolor="#ffffff"
     bordercolor="#666666"
     borderopacity="1.0"
     inkscape:pageshadow="2"
     inkscape:pageopacity="0.0"
     inkscape:pagecheckerboard="0"
     showgrid="false"
     inkscape:zoom="19.425"
     inkscape:cx="3.6036037"
     inkscape:cy="17.220078"
     inkscape:window-width="1920"
     inkscape:window-height="1000"
     inkscape:window-x="0"
     inkscape:window-y="0"
     inkscape:window-maximized="1"
     inkscape:current-layer="svg4"
     showguides="false" />
  <path
     d="M 2,12 C 2,4.8 4.8,2 12,2 19.2,2 22,4.8 22,12 22,19.2 19.2,22 12,22 4.8,22 2,19.2 2,12"
     id="path2"
     style="fill:#f8f8f8;fill-opacity:1;stroke-width:0.1" />
  <path
     id="path1401"
     style="color:#000000;fill:#febd0c;stroke:none;stroke-width:1.00002;stroke-linecap:round;stroke-linejoin:round;-inkscape-stroke:none;fill-opacity:1"
     d="m 18.462891,6.0014494 c -0.09001,0.00677 -0.177817,0.03713 -0.253907,0.091801 L 4.2089844,17.093711 c -0.00159,0.0097 -0.0029,0.0195 -0.00391,0.0293 C 4.0835346,17.211449 4.0082226,17.349884 4,17.499978 c 0.011332,0.08902 0.046413,0.173356 0.1015625,0.244151 -0.00334,0.01549 -0.00595,0.03113 -0.00781,0.04687 0.012021,0.0084 0.024402,0.01617 0.037109,0.02344 0.045161,0.04105 0.097455,0.07348 0.1542968,0.0957 0.053286,0.03579 0.1129664,0.06099 0.1757813,0.07422 0.012795,0.0058 0.02583,0.01096 0.039063,0.01563 H 18.500003 c 0.276131,-2.8e-5 0.499972,-0.223878 0.5,-0.500021 V 6.4995171 C 19.000209,6.3118964 18.895383,6.1399448 18.728516,6.054186 18.645107,6.0115092 18.552899,5.9946815 18.462891,6.0014494 Z M 18,7.4702609 V 16.999957 H 6.0605469 Z M 16,10.458667 9.0996094,15.999915 H 16 Z m -1,2.082119 v 2.459087 h -3.074219 z" />
</svg>
