<?xml version="1.0" encoding="UTF-8" standalone="no"?>
<svg
   viewbox="0 0 200 200"
   version="1.1"
   id="svg4"
   sodipodi:docname="dialog-warning.svg"
   width="64"
   height="64"
   inkscape:version="1.1.1 (3bf5ae0d25, 2021-09-20, custom)"
   xmlns:inkscape="http://www.inkscape.org/namespaces/inkscape"
   xmlns:sodipodi="http://sodipodi.sourceforge.net/DTD/sodipodi-0.dtd"
   xmlns="http://www.w3.org/2000/svg"
   xmlns:svg="http://www.w3.org/2000/svg">
  <defs
     id="defs8" />
  <sodipodi:namedview
     id="namedview6"
     pagecolor="#ffffff"
     bordercolor="#666666"
     borderopacity="1.0"
     inkscape:pageshadow="2"
     inkscape:pageopacity="0.0"
     inkscape:pagecheckerboard="0"
     showgrid="false"
     inkscape:zoom="13.0625"
     inkscape:cx="22.124402"
     inkscape:cy="33.952153"
     inkscape:window-width="1920"
     inkscape:window-height="1007"
     inkscape:window-x="0"
     inkscape:window-y="0"
     inkscape:window-maximized="1"
     inkscape:current-layer="svg4"
     showguides="false" />
  <path
     d="M 2,32 C 2,10.4 10.4,2 32,2 53.6,2 62,10.4 62,32 62,53.6 53.6,62 32,62 10.4,62 2,53.6 2,32"
     id="path2"
     style="stroke-width:0.3;fill:#ff9933;fill-opacity:1;stroke:none" />
  <path
     id="rect850"
     style="fill:#ffffff;stroke-width:0.549793;stroke-linecap:round;stroke-linejoin:round"
     d="M 31.992188 11 C 30.865111 11 29.737804 11.55659 29.091797 12.669922 L 10.455078 44.943359 C 9.1630632 47.170024 10.783303 49.945313 13.339844 49.945312 L 50.617188 49.945312 C 53.228707 49.972803 54.82312 47.197515 53.558594 44.943359 L 34.892578 12.669922 C 34.24657 11.55659 33.119264 11 31.992188 11 z M 32 14 L 51 47 L 13 47 L 32 14 z M 29.888672 22.787109 L 30.412109 37.080078 L 33.023438 37.080078 L 33.544922 22.787109 L 29.888672 22.787109 z M 31.703125 39.251953 C 31.043372 39.251953 30.521575 39.445368 30.136719 39.802734 C 29.779353 40.1601 29.585938 40.6547 29.585938 41.314453 C 29.585937 41.946716 29.751863 42.441462 30.136719 42.798828 C 30.521575 43.156194 31.043372 43.349609 31.703125 43.349609 C 32.362877 43.349609 32.886628 43.156194 33.271484 42.798828 C 33.62885 42.441462 33.820312 41.946862 33.820312 41.287109 C 33.820313 40.654847 33.656339 40.1601 33.271484 39.802734 C 32.886628 39.445368 32.362877 39.251953 31.703125 39.251953 z " />
</svg>
