<?xml version="1.0" encoding="UTF-8" standalone="no"?>
<svg
   viewbox="0 0 200 200"
   version="1.1"
   id="svg4"
   sodipodi:docname="dialog-information.svg"
   width="64"
   height="64"
   inkscape:version="1.1.1 (3bf5ae0d25, 2021-09-20, custom)"
   xmlns:inkscape="http://www.inkscape.org/namespaces/inkscape"
   xmlns:sodipodi="http://sodipodi.sourceforge.net/DTD/sodipodi-0.dtd"
   xmlns="http://www.w3.org/2000/svg"
   xmlns:svg="http://www.w3.org/2000/svg">
  <defs
     id="defs8" />
  <sodipodi:namedview
     id="namedview6"
     pagecolor="#ffffff"
     bordercolor="#666666"
     borderopacity="1.0"
     inkscape:pageshadow="2"
     inkscape:pageopacity="0.0"
     inkscape:pagecheckerboard="0"
     showgrid="false"
     inkscape:zoom="9.2365823"
     inkscape:cx="9.202538"
     inkscape:cy="43.143664"
     inkscape:window-width="1920"
     inkscape:window-height="1007"
     inkscape:window-x="0"
     inkscape:window-y="0"
     inkscape:window-maximized="1"
     inkscape:current-layer="svg4"
     showguides="false" />
  <path
     d="M 2,32 C 2,10.4 10.4,2 32,2 53.6,2 62,10.4 62,32 62,53.6 53.6,62 32,62 10.4,62 2,53.6 2,32"
     id="path2"
     style="stroke-width:0.3;fill:#66ccff;fill-opacity:1;stroke:none" />
  <path
     id="rect850"
     style="fill:#ffffff;fill-opacity:1;stroke-width:0.5;stroke-linecap:round;stroke-linejoin:round"
     d="M 32 12 C 20.95 12 12 20.95 12 32 C 12 43.05 20.95 52 32 52 C 43.05 52 52 43.05 52 32 C 52 20.95 43.05 12 32 12 z M 32 14 A 18 18 0 0 1 50 32 A 18 18 0 0 1 32 50 A 18 18 0 0 1 14 32 A 18 18 0 0 1 32 14 z " />
  <path
     d="m 32,21 c 0.628571,0 1.104614,0.171274 1.466518,0.514138 C 33.828422,21.856994 34,22.333258 34,22.923734 34,23.552305 33.828726,24.028422 33.485862,24.37128 33.143006,24.714138 32.647621,24.885788 32,24.885788 c -0.628571,0 -1.104614,-0.171646 -1.466518,-0.514508 C 30.171578,24.028422 30,23.55253 30,22.962054 30,22.333482 30.171274,21.856994 30.514138,21.514138 30.856994,21.17128 31.352379,21 32,21 Z m -1.619047,6.018971 h 3.238094 v 14.933408 h -3.238094 z"
     style="fill:#ffffff;fill-opacity:1;stroke-width:0.380953;stroke-linecap:round;stroke-linejoin:round"
     id="path847" />
</svg>
