<?xml version="1.0" encoding="UTF-8" standalone="no"?>
<svg
   viewbox="0 0 200 200"
   version="1.1"
   id="svg4"
   sodipodi:docname="dialog-password.svg"
   width="64"
   height="64"
   inkscape:version="1.1.1 (3bf5ae0d25, 2021-09-20, custom)"
   xmlns:inkscape="http://www.inkscape.org/namespaces/inkscape"
   xmlns:sodipodi="http://sodipodi.sourceforge.net/DTD/sodipodi-0.dtd"
   xmlns="http://www.w3.org/2000/svg"
   xmlns:svg="http://www.w3.org/2000/svg">
  <defs
     id="defs8" />
  <sodipodi:namedview
     id="namedview6"
     pagecolor="#ffffff"
     bordercolor="#666666"
     borderopacity="1.0"
     inkscape:pageshadow="2"
     inkscape:pageopacity="0.0"
     inkscape:pagecheckerboard="0"
     showgrid="false"
     inkscape:zoom="12.883333"
     inkscape:cx="27.399742"
     inkscape:cy="37.06339"
     inkscape:window-width="1920"
     inkscape:window-height="1000"
     inkscape:window-x="0"
     inkscape:window-y="0"
     inkscape:window-maximized="1"
     inkscape:current-layer="svg4"
     showguides="false" />
  <path
     d="M 2,32 C 2,10.4 10.4,2 32,2 53.6,2 62,10.4 62,32 62,53.6 53.6,62 32,62 10.4,62 2,53.6 2,32"
     id="path2"
     style="stroke-width:0.3;fill:#7393bf;fill-opacity:1" />
  <path
     id="rect1024"
     style="fill:#ffffff;stroke-width:2;stroke-linecap:square;stroke-linejoin:round"
     d="M 32 11 C 27.029437 11 23 15.029437 23 20 L 23 25 L 19 25 C 16.784 25 15 26.784 15 29 L 15 47 C 15 49.216 16.784 51 19 51 L 45 51 C 47.216 51 49 49.216 49 47 L 49 29 C 49 26.784 47.216 25 45 25 L 41 25 L 41 20 C 41 15.029437 36.970563 11 32 11 z M 32 13 C 35.865993 13 39 16.134007 39 20 L 39 25 L 25 25 L 25 20 C 25 16.134007 28.134007 13 32 13 z M 19 27 L 45 27 C 46.108 27 47 27.892 47 29 L 47 47 C 47 48.108 46.108 49 45 49 L 19 49 C 17.892 49 17 48.108 17 47 L 17 29 C 17 27.892 17.892 27 19 27 z M 32 33 C 30.343146 33 29 34.343146 29 36 C 29.0034 37.26837 29.804164 38.397526 31 38.820312 L 31 43 L 33 43 L 33 38.820312 C 34.195836 38.397526 34.996567 37.26837 35 36 C 35 34.343146 33.656854 33 32 33 z M 32 35 C 32.552285 35 33 35.447715 33 36 C 33 36.552285 32.552285 37 32 37 C 31.447715 37 31 36.552285 31 36 C 31 35.447715 31.447715 35 32 35 z " />
</svg>
