<?xml version="1.0" encoding="UTF-8" standalone="no"?>
<svg
   viewbox="0 0 200 200"
   version="1.1"
   id="svg4"
   sodipodi:docname="preferences-system-network-firewall.svg"
   width="64"
   height="64"
   inkscape:version="1.1.1 (3bf5ae0d25, 2021-09-20, custom)"
   xmlns:inkscape="http://www.inkscape.org/namespaces/inkscape"
   xmlns:sodipodi="http://sodipodi.sourceforge.net/DTD/sodipodi-0.dtd"
   xmlns="http://www.w3.org/2000/svg"
   xmlns:svg="http://www.w3.org/2000/svg">
  <defs
     id="defs8" />
  <sodipodi:namedview
     id="namedview6"
     pagecolor="#ffffff"
     bordercolor="#666666"
     borderopacity="1.0"
     inkscape:pageshadow="2"
     inkscape:pageopacity="0.0"
     inkscape:pagecheckerboard="0"
     showgrid="false"
     inkscape:zoom="5.6568542"
     inkscape:cx="17.500893"
     inkscape:cy="22.008699"
     inkscape:window-width="1920"
     inkscape:window-height="1000"
     inkscape:window-x="0"
     inkscape:window-y="0"
     inkscape:window-maximized="1"
     inkscape:current-layer="svg4"
     showguides="false" />
  <path
     d="M 2,32 C 2,10.4 10.4,2 32,2 53.6,2 62,10.4 62,32 62,53.6 53.6,62 32,62 10.4,62 2,53.6 2,32"
     id="path2"
     style="stroke-width:0.3;fill:#91d653;fill-opacity:1;stroke:none" />
  <path
     id="rect975"
     style="fill:#ffffff;stroke-width:0.512805;stroke-linecap:round;stroke-linejoin:round"
     d="m 32,11 c -6.076244,2.502256 -10.568823,3.82043 -18,2 v 25 c 3.266857,14.382296 18,17 18,17 0,0 14.733143,-2.617704 18,-17 V 13 c -7.431177,1.82043 -11.923756,0.502256 -18,-2 z m 0,2 c 4.803104,2.574297 12.33598,3.467721 16,2 V 38 C 44.652768,50.877794 32,53 32,53 32,53 19.854068,50.774034 16,38 V 15 c 3.66402,1.467721 11.196896,0.574297 16,-2 z"
     sodipodi:nodetypes="cccccccccccccc" />
</svg>
