<?xml version="1.0" encoding="UTF-8" standalone="no"?>
<svg
   viewbox="0 0 200 200"
   version="1.1"
   id="svg4"
   sodipodi:docname="folder-images.svg"
   width="22"
   height="22"
   inkscape:version="1.1.1 (3bf5ae0d25, 2021-09-20, custom)"
   xmlns:inkscape="http://www.inkscape.org/namespaces/inkscape"
   xmlns:sodipodi="http://sodipodi.sourceforge.net/DTD/sodipodi-0.dtd"
   xmlns="http://www.w3.org/2000/svg"
   xmlns:svg="http://www.w3.org/2000/svg">
  <defs
     id="defs8" />
  <sodipodi:namedview
     id="namedview6"
     pagecolor="#ffffff"
     bordercolor="#666666"
     borderopacity="1.0"
     inkscape:pageshadow="2"
     inkscape:pageopacity="0.0"
     inkscape:pagecheckerboard="0"
     showgrid="false"
     inkscape:zoom="13.735549"
     inkscape:cx="-3.421778"
     inkscape:cy="9.9377171"
     inkscape:window-width="1920"
     inkscape:window-height="1000"
     inkscape:window-x="0"
     inkscape:window-y="0"
     inkscape:window-maximized="1"
     inkscape:current-layer="svg4"
     showguides="false" />
  <path
     d="M 1,11 C 1,3.8 3.8,1 11,1 18.2,1 21,3.8 21,11 21,18.2 18.2,21 11,21 3.8,21 1,18.2 1,11"
     id="path2"
     style="fill:#f8f8f8;fill-opacity:1;stroke-width:0.1" />
  <path
     id="rect1094"
     style="fill:#febd0c;fill-opacity:1;stroke-width:1;stroke-linecap:round;stroke-linejoin:round"
     d="M 5 4 C 4.446 4 4 4.446 4 5 L 4 17 C 4 17.554 4.446 18 5 18 L 17 18 C 17.554 18 18 17.554 18 17 L 18 5 C 18 4.446 17.554 4 17 4 L 5 4 z M 5 5 L 17 5 L 17 14.089844 L 15.203125 12.292969 C 15.007255 12.097099 14.75171 12 14.496094 12 C 14.240475 12 13.984933 12.097104 13.789062 12.292969 L 11.498047 14.582031 L 8.7109375 11.292969 C 8.5150675 11.097098 8.2595253 11 8.0039062 11 C 7.7482893 11 7.492744 11.097103 7.296875 11.292969 L 5 13.589844 L 5 5 z M 8 6 C 6.8954298 6 6 6.8954298 6 8 C 6 9.1045688 6.8954298 10 8 10 C 9.1045692 10 10 9.1045688 10 8 C 10 6.8954298 9.1045692 6 8 6 z M 8 7 C 8.5522846 7 9 7.4477146 9 8 C 9 8.5522846 8.5522846 9 8 9 C 7.447715 9 7 8.5522846 7 8 C 7 7.4477146 7.447715 7 8 7 z M 8.0039062 12 L 10.791016 15.289062 C 10.986886 15.484932 11.242428 15.582031 11.498047 15.582031 C 11.753664 15.582031 12.009208 15.484928 12.205078 15.289062 L 14.496094 13 L 17 15.503906 L 17 17 L 5 17 L 5 15.003906 L 8.0039062 12 z " />
</svg>
