<?xml version="1.0" encoding="UTF-8" standalone="no"?>
<svg
   viewbox="0 0 200 200"
   version="1.1"
   id="svg4"
   sodipodi:docname="folder-recent.svg"
   width="22"
   height="22"
   inkscape:version="1.1.1 (3bf5ae0d25, 2021-09-20, custom)"
   xmlns:inkscape="http://www.inkscape.org/namespaces/inkscape"
   xmlns:sodipodi="http://sodipodi.sourceforge.net/DTD/sodipodi-0.dtd"
   xmlns="http://www.w3.org/2000/svg"
   xmlns:svg="http://www.w3.org/2000/svg">
  <defs
     id="defs8" />
  <sodipodi:namedview
     id="namedview6"
     pagecolor="#ffffff"
     bordercolor="#666666"
     borderopacity="1.0"
     inkscape:pageshadow="2"
     inkscape:pageopacity="0.0"
     inkscape:pagecheckerboard="0"
     showgrid="false"
     inkscape:zoom="18.473165"
     inkscape:cx="6.4959092"
     inkscape:cy="13.56021"
     inkscape:window-width="1920"
     inkscape:window-height="1007"
     inkscape:window-x="0"
     inkscape:window-y="0"
     inkscape:window-maximized="1"
     inkscape:current-layer="svg4"
     showguides="false"
     inkscape:lockguides="false" />
  <path
     d="M 1,11 C 1,3.8 3.8,1 11,1 18.2,1 21,3.8 21,11 21,18.2 18.2,21 11,21 3.8,21 1,18.2 1,11"
     id="path2"
     style="fill:#f8f8f8;fill-opacity:1;stroke-width:0.1" />
  <path
     id="path924"
     style="fill:#febd0c;fill-opacity:1;stroke-width:4;stroke-linecap:round;stroke-linejoin:round"
     d="M 11 4 C 8.7672445 4 6.7815028 5.0475732 5.5 6.6757812 L 5.5 5.5 L 4.5 5.5 L 4.5 8.5 L 7.5 8.5 L 7.5 7.5 L 6.1289062 7.5 C 7.2180048 5.9863631 8.9928243 5 11 5 C 14.313708 5 17 7.6862915 17 11 C 17 14.313708 14.313708 17 11 17 L 11 18 C 14.865993 18 18 14.865993 18 11 C 18 7.1340068 14.865993 4 11 4 z M 10.5 6 L 10.5 11.5 L 14.830078 14 L 15.330078 13.134766 L 11.5 10.923828 L 11.5 6 L 10.5 6 z " />
</svg>
