<?xml version="1.0" encoding="UTF-8" standalone="no"?>
<svg
   viewbox="0 0 200 200"
   version="1.1"
   id="svg4"
   sodipodi:docname="user-home.svg"
   width="22"
   height="22"
   inkscape:version="1.1.1 (3bf5ae0d25, 2021-09-20, custom)"
   xmlns:inkscape="http://www.inkscape.org/namespaces/inkscape"
   xmlns:sodipodi="http://sodipodi.sourceforge.net/DTD/sodipodi-0.dtd"
   xmlns="http://www.w3.org/2000/svg"
   xmlns:svg="http://www.w3.org/2000/svg">
  <defs
     id="defs8" />
  <sodipodi:namedview
     id="namedview6"
     pagecolor="#ffffff"
     bordercolor="#666666"
     borderopacity="1.0"
     inkscape:pageshadow="2"
     inkscape:pageopacity="0.0"
     inkscape:pagecheckerboard="0"
     showgrid="false"
     inkscape:zoom="17.081048"
     inkscape:cx="6.4984303"
     inkscape:cy="15.484998"
     inkscape:window-width="1920"
     inkscape:window-height="996"
     inkscape:window-x="0"
     inkscape:window-y="0"
     inkscape:window-maximized="1"
     inkscape:current-layer="svg4"
     showguides="true" />
  <path
     d="M 1,11 C 1,3.8 3.8,1 11,1 18.2,1 21,3.8 21,11 21,18.2 18.2,21 11,21 3.8,21 1,18.2 1,11"
     id="path2"
     style="fill:#f8f8f8;fill-opacity:1;stroke-width:0.1" />
  <path
     d="m 11,4 c -0.121099,1.28e-4 -0.238038,0.0442 -0.329102,0.124023 l -6.5,5.4999996 C 4.062422,9.7188726 4.000135,9.8559046 4,9.9999996 V 17.5 c 2.8e-5,0.276131 0.223869,0.499972 0.5,0.5 h 13 c 0.276131,-2.8e-5 0.499972,-0.223869 0.5,-0.5 V 9.9999996 c -1.35e-4,-0.144095 -0.06242,-0.281128 -0.170899,-0.375977 l -6.5,-5.4999996 C 11.238041,4.044196 11.121099,4.000128 11,4 Z m 0,1.164062 6,5.0625 V 17 H 5 v -6.773438 z"
     style="fill:#febd0c;fill-opacity:1;stroke-width:1;stroke-linecap:round;stroke-linejoin:round"
     id="path847"
     sodipodi:nodetypes="cccccccccccccccccc" />
</svg>
