<?xml version="1.0" encoding="UTF-8" standalone="no"?>
<svg
   viewbox="0 0 200 200"
   version="1.1"
   id="svg4"
   sodipodi:docname="user-trash.svg"
   width="22"
   height="22"
   inkscape:version="1.1.1 (3bf5ae0d25, 2021-09-20, custom)"
   xmlns:inkscape="http://www.inkscape.org/namespaces/inkscape"
   xmlns:sodipodi="http://sodipodi.sourceforge.net/DTD/sodipodi-0.dtd"
   xmlns="http://www.w3.org/2000/svg"
   xmlns:svg="http://www.w3.org/2000/svg">
  <defs
     id="defs8" />
  <sodipodi:namedview
     id="namedview6"
     pagecolor="#ffffff"
     bordercolor="#666666"
     borderopacity="1.0"
     inkscape:pageshadow="2"
     inkscape:pageopacity="0.0"
     inkscape:pagecheckerboard="0"
     showgrid="false"
     inkscape:zoom="12.078125"
     inkscape:cx="8.5278137"
     inkscape:cy="29.847348"
     inkscape:window-width="1920"
     inkscape:window-height="996"
     inkscape:window-x="0"
     inkscape:window-y="0"
     inkscape:window-maximized="1"
     inkscape:current-layer="svg4"
     showguides="false" />
  <path
     d="M 1,11 C 1,3.8 3.8,1 11,1 18.2,1 21,3.8 21,11 21,18.2 18.2,21 11,21 3.8,21 1,18.2 1,11"
     id="path2"
     style="fill:#e8ccd8;fill-opacity:1;stroke-width:0.1" />
  <path
     id="path1597"
     style="fill:#b75e73;fill-opacity:1;stroke-width:1.94365;stroke-linejoin:round"
     d="m 8.5,3 c -0.554,0 -1,0.420395 -1,1 V 6 H 4 V 7 H 6 L 6.890625,18.124023 C 6.953211,18.6244 7.378536,18.999909 7.882812,19 h 6.234375 c 0.504276,-9.1e-5 0.929602,-0.3756 0.992188,-0.875977 L 15.999906,7 H 18 V 6 H 14.5 V 4 c 0,-0.554 -0.446,-1 -1,-1 z m 0,1 h 5 v 2 h -5 z M 7.066,7 h 7.926093 L 14.171875,17.5625 C 14.140356,17.812494 13.927754,17.999985 13.675781,18 H 8.382812 C 8.130838,17.999985 7.918238,17.812495 7.886719,17.5625 Z M 9,9 v 7 h 1 V 9 Z m 3,0 v 7 h 1 V 9 Z"
     sodipodi:nodetypes="ssccccccccccccssscccccccccccccccccccccc" />
</svg>
