<?xml version="1.0" encoding="UTF-8" standalone="no"?>
<svg
   viewbox="0 0 200 200"
   version="1.1"
   id="svg4"
   sodipodi:docname="calligrasheets.svg"
   width="64"
   height="64"
   inkscape:version="1.1.1 (3bf5ae0d25, 2021-09-20, custom)"
   xmlns:inkscape="http://www.inkscape.org/namespaces/inkscape"
   xmlns:sodipodi="http://sodipodi.sourceforge.net/DTD/sodipodi-0.dtd"
   xmlns="http://www.w3.org/2000/svg"
   xmlns:svg="http://www.w3.org/2000/svg">
  <defs
     id="defs8" />
  <sodipodi:namedview
     id="namedview6"
     pagecolor="#ffffff"
     bordercolor="#666666"
     borderopacity="1.0"
     inkscape:pageshadow="2"
     inkscape:pageopacity="0.0"
     inkscape:pagecheckerboard="0"
     showgrid="false"
     inkscape:zoom="4.5549462"
     inkscape:cx="18.22195"
     inkscape:cy="36.114587"
     inkscape:window-width="1920"
     inkscape:window-height="996"
     inkscape:window-x="0"
     inkscape:window-y="0"
     inkscape:window-maximized="1"
     inkscape:current-layer="svg4"
     showguides="false" />
  <path
     d="M 2,32 C 2,10.4 10.4,2 32,2 53.6,2 62,10.4 62,32 62,53.6 53.6,62 32,62 10.4,62 2,53.6 2,32"
     id="path2"
     style="stroke-width:0.3;fill:#26c17c;fill-opacity:1" />
  <path
     id="path3817"
     style="color:#000000;fill:#ffffff;stroke:none;stroke-width:0.99356;stroke-linecap:round;stroke-linejoin:round;-inkscape-stroke:none"
     d="M 16 16 C 13.783999 16 12 17.783999 12 20 L 12 48 L 14 48 L 14 38 L 24.5 38 L 24.5 46 L 18 46 L 18 48 L 46 48 C 49.324 48 52 45.324 52 42 L 52 22 L 50 22 L 50 26 L 14 26 L 14 20 C 14 18.892 14.893706 18.061461 16 18 L 52 18 L 52 16 L 16 16 z M 14 28 L 24.5 28 L 24.5 36 L 14 36 L 14 28 z M 26.5 28 L 37.5 28 L 37.5 36 L 26.5 36 L 26.5 28 z M 39.5 28 L 50 28 L 50 36 L 39.5 36 L 39.5 28 z M 26.5 38 L 37.5 38 L 37.5 46 L 26.5 46 L 26.5 38 z M 39.5 38 L 50 38 L 50 42 C 50 44.216 48.216 46 46 46 L 39.5 46 L 39.5 38 z " />
</svg>
