<?xml version="1.0" encoding="UTF-8" standalone="no"?>
<svg
   viewbox="0 0 200 200"
   version="1.1"
   id="svg4"
   sodipodi:docname="calligrawords.svg"
   width="64"
   height="64"
   inkscape:version="1.1.1 (3bf5ae0d25, 2021-09-20, custom)"
   xmlns:inkscape="http://www.inkscape.org/namespaces/inkscape"
   xmlns:sodipodi="http://sodipodi.sourceforge.net/DTD/sodipodi-0.dtd"
   xmlns="http://www.w3.org/2000/svg"
   xmlns:svg="http://www.w3.org/2000/svg">
  <defs
     id="defs8" />
  <sodipodi:namedview
     id="namedview6"
     pagecolor="#ffffff"
     bordercolor="#666666"
     borderopacity="1.0"
     inkscape:pageshadow="2"
     inkscape:pageopacity="0.0"
     inkscape:pagecheckerboard="0"
     showgrid="false"
     inkscape:zoom="6.4416667"
     inkscape:cx="29.184993"
     inkscape:cy="35.627425"
     inkscape:window-width="1920"
     inkscape:window-height="996"
     inkscape:window-x="0"
     inkscape:window-y="0"
     inkscape:window-maximized="1"
     inkscape:current-layer="svg4"
     showguides="false" />
  <path
     d="M 2,32 C 2,10.4 10.4,2 32,2 53.6,2 62,10.4 62,32 62,53.6 53.6,62 32,62 10.4,62 2,53.6 2,32"
     id="path2"
     style="stroke-width:0.3;fill:#b3a079;fill-opacity:1" />
  <path
     id="path3817"
     style="color:#000000;fill:#ffffff;stroke:none;stroke-width:0.99356;stroke-linecap:round;stroke-linejoin:round;-inkscape-stroke:none"
     d="M 20 12 C 17.783999 12 16 13.783999 16 16 L 16 52 L 18 52 L 30 52 L 30 50 L 18 50 L 18 16 C 18 14.892 18.893706 14.061461 20 14 L 48 14 L 48 12 L 20 12 z M 21 18 L 21 20 L 29 20 L 29 18 L 21 18 z M 35 18 C 33.892 18 33 18.892 33 20 L 33 26 C 33 27.108 33.892 28 35 28 L 41 28 C 42.108 28 43 27.108 43 26 L 43 20 C 43 18.892 42.108 18 41 18 L 35 18 z M 46 18 L 46 32 L 48 32 L 48 18 L 46 18 z M 35 20 L 41 20 L 41 26 L 35 26 L 35 20 z M 21 25 L 21 27 L 29 27 L 29 25 L 21 25 z M 21 32 L 21 34 L 43 34 L 43 32 L 21 32 z M 49.851562 35 C 49.340344 35.00002 48.829237 35.196154 48.4375 35.587891 L 47.730469 36.294922 L 49.144531 37.708984 L 49.851562 37.001953 L 52.679688 39.830078 L 50.558594 41.951172 L 46.316406 37.708984 L 36.416016 47.609375 C 36.316546 47.708835 36.235247 47.829955 36.183594 47.970703 L 34.064453 54.332031 C 33.769068 55.132814 34.546871 55.912572 35.347656 55.617188 L 41.710938 53.496094 C 41.851732 53.444284 41.972851 53.365266 42.072266 53.265625 C 42.087386 53.250465 42.103147 53.23477 42.117188 53.21875 L 49.144531 46.193359 L 47.728516 44.779297 L 40.658203 51.851562 L 38.498047 52.597656 L 36.333984 53.345703 L 37.082031 51.183594 L 37.830078 49.023438 L 46.316406 40.537109 L 49.144531 43.365234 L 50.558594 44.779297 L 54.09375 41.244141 C 54.877224 40.460667 54.877163 39.19943 54.09375 38.416016 L 51.265625 35.587891 C 50.873918 35.196184 50.362781 34.99998 49.851562 35 z M 21 38 L 21 40 L 34 40 L 34 38 L 21 38 z " />
</svg>
