<?xml version="1.0" encoding="UTF-8" standalone="no"?>
<svg
   viewbox="0 0 200 200"
   version="1.1"
   id="svg4"
   sodipodi:docname="konversation.svg"
   width="64"
   height="64"
   inkscape:version="1.1.1 (3bf5ae0d25, 2021-09-20, custom)"
   xmlns:inkscape="http://www.inkscape.org/namespaces/inkscape"
   xmlns:sodipodi="http://sodipodi.sourceforge.net/DTD/sodipodi-0.dtd"
   xmlns="http://www.w3.org/2000/svg"
   xmlns:svg="http://www.w3.org/2000/svg">
  <defs
     id="defs8" />
  <sodipodi:namedview
     id="namedview6"
     pagecolor="#ffffff"
     bordercolor="#666666"
     borderopacity="1.0"
     inkscape:pageshadow="2"
     inkscape:pageopacity="0.0"
     inkscape:pagecheckerboard="0"
     showgrid="false"
     inkscape:zoom="6.0390625"
     inkscape:cx="27.818887"
     inkscape:cy="43.467012"
     inkscape:window-width="1920"
     inkscape:window-height="1000"
     inkscape:window-x="0"
     inkscape:window-y="0"
     inkscape:window-maximized="1"
     inkscape:current-layer="svg4"
     showguides="true" />
  <path
     d="M 2,32 C 2,10.4 10.4,2 32,2 53.6,2 62,10.4 62,32 62,53.6 53.6,62 32,62 10.4,62 2,53.6 2,32"
     id="path2"
     style="stroke-width:0.3;fill:#16b2ff;fill-opacity:1" />
  <path
     id="path3817"
     style="color:#000000;fill:#ffffff;stroke:none;stroke-width:0.99356;stroke-linecap:round;stroke-linejoin:round;-inkscape-stroke:none"
     d="m 17,16 c -2.216001,0 -4,1.783999 -4,4 v 24 h 2 V 20 c 0,-1.108 0.892,-2 2,-2 h 34 v -2 z m 32,6 v 16 c 0,2.216 -1.784,4 -4,4 H 26 L 15.210938,50.535156 16.599609,52.111328 26.753906,44 H 45 c 3.324,0 5.587709,-2.701668 6,-6 V 22 Z" />
  <path
     id="path1255"
     style="color:#000000;fill:#ffffff;stroke:none;stroke-width:0.999972;stroke-linecap:round;stroke-linejoin:round;-inkscape-stroke:none"
     d="M 39.070312 21.001953 A 1.0001 1.0000443 0 0 0 38.919922 21.003906 A 1.0001 1.0000443 0 0 0 38.757812 21.03125 L 22.757812 25.03125 A 1.0001 1.0000443 0 0 0 22 26.001953 L 22 32.001953 A 1.0001 1.0000443 0 0 0 22.757812 32.972656 L 26 33.783203 L 26 38.001953 L 28 38.001953 L 28 34.283203 L 28 33.001953 L 28 32.220703 L 24 31.220703 L 24 26.783203 L 38 23.283203 L 38 34.720703 L 30 32.720703 L 30 34.783203 L 38.757812 36.972656 A 1.0001 1.0000443 0 0 0 40 36.001953 L 40 22.001953 A 1.0001 1.0000443 0 0 0 39.070312 21.001953 z M 42 26 L 42 32 C 43.108 32 44 31.108 44 30 L 44 28 C 44 26.892 43.108 26 42 26 z " />
</svg>
