<?xml version="1.0" encoding="UTF-8" standalone="no"?>
<svg
   viewbox="0 0 200 200"
   version="1.1"
   id="svg4"
   sodipodi:docname="folder-image-people.svg"
   width="64"
   height="64"
   inkscape:version="1.1.1 (3bf5ae0d25, 2021-09-20, custom)"
   xmlns:inkscape="http://www.inkscape.org/namespaces/inkscape"
   xmlns:sodipodi="http://sodipodi.sourceforge.net/DTD/sodipodi-0.dtd"
   xmlns="http://www.w3.org/2000/svg"
   xmlns:svg="http://www.w3.org/2000/svg">
  <defs
     id="defs8" />
  <sodipodi:namedview
     id="namedview6"
     pagecolor="#ffffff"
     bordercolor="#666666"
     borderopacity="1.0"
     inkscape:pageshadow="2"
     inkscape:pageopacity="0.0"
     inkscape:pagecheckerboard="0"
     showgrid="false"
     inkscape:zoom="7.7671261"
     inkscape:cx="33.410041"
     inkscape:cy="46.091694"
     inkscape:window-width="1567"
     inkscape:window-height="932"
     inkscape:window-x="56"
     inkscape:window-y="50"
     inkscape:window-maximized="0"
     inkscape:current-layer="svg4"
     showguides="false" />
  <path
     d="M 2,32 C 2,10.4 10.4,2 32,2 53.6,2 62,10.4 62,32 62,53.6 53.6,62 32,62 10.4,62 2,53.6 2,32"
     id="path2"
     style="stroke-width:0.3;fill:#f8f8f8;fill-opacity:1" />
  <path
     id="rect924"
     style="fill:#febd0c;fill-opacity:1;stroke-width:2;stroke-linecap:round;stroke-linejoin:round"
     d="m 14,16 c -1.108,0 -2,0.892 -2,2 v 26 c 0,3.324 2.676,6 6,6 H 29 V 48 H 18 c -2.216,0 -4,-1.784 -4,-4 V 18 h 14 v 2 c 0,1.104569 0.895431,2 2,2 h 20 v 6 h 2 v -6 c 0,-1.108 -0.892,-2 -2,-2 H 30 v -2 c 0,-1.104569 -0.895431,-2 -2,-2 z"
     sodipodi:nodetypes="ssssccssccsscccsscsss" />
  <path
     id="path925"
     style="fill:#febd0c;stroke-width:0.833333;fill-opacity:1"
     d="M 43 30 C 40.238576 30 38 32.238576 38 35 C 38 37.761424 40.238576 40 43 40 C 45.761424 40 48 37.761424 48 35 C 48 32.238576 45.761424 30 43 30 z M 43 32 C 44.656854 32 46 33.343146 46 35 C 46 36.656854 44.656854 38 43 38 C 41.343145 38 40 36.656854 40 35 C 40 33.343146 41.343145 32 43 32 z M 43 42 C 37.477153 42 33 46.477153 33 52 L 53 52 C 53 46.477153 48.522847 42 43 42 z M 43 44 C 46.736282 44 49.874163 46.560859 50.753906 50.023438 L 35.246094 50.023438 C 36.125837 46.560859 39.263718 44 43 44 z " />
</svg>
