<?xml version="1.0" encoding="UTF-8" standalone="no"?>
<svg
   viewbox="0 0 200 200"
   version="1.1"
   id="svg4"
   sodipodi:docname="folder-network.svg"
   width="64"
   height="64"
   inkscape:version="1.1.1 (3bf5ae0d25, 2021-09-20, custom)"
   xmlns:inkscape="http://www.inkscape.org/namespaces/inkscape"
   xmlns:sodipodi="http://sodipodi.sourceforge.net/DTD/sodipodi-0.dtd"
   xmlns="http://www.w3.org/2000/svg"
   xmlns:svg="http://www.w3.org/2000/svg">
  <defs
     id="defs8" />
  <sodipodi:namedview
     id="namedview6"
     pagecolor="#ffffff"
     bordercolor="#666666"
     borderopacity="1.0"
     inkscape:pageshadow="2"
     inkscape:pageopacity="0.0"
     inkscape:pagecheckerboard="0"
     showgrid="false"
     inkscape:zoom="18.314066"
     inkscape:cx="43.573066"
     inkscape:cy="40.842924"
     inkscape:window-width="1920"
     inkscape:window-height="1007"
     inkscape:window-x="0"
     inkscape:window-y="0"
     inkscape:window-maximized="1"
     inkscape:current-layer="svg4"
     showguides="false" />
  <path
     d="M 2,32 C 2,10.4 10.4,2 32,2 53.6,2 62,10.4 62,32 62,53.6 53.6,62 32,62 10.4,62 2,53.6 2,32"
     id="path2"
     style="stroke-width:0.3;fill:#f8f8f8;fill-opacity:1" />
  <path
     id="rect924"
     style="fill:#febd0c;fill-opacity:1;stroke-width:2;stroke-linecap:round;stroke-linejoin:round"
     d="M 14 16 C 12.892 16 12 16.892 12 18 L 12 44 C 12 47.324 14.676 50 18 50 L 32 50 L 32 48 L 18 48 C 15.784 48 14 46.216 14 44 L 14 18 L 28 18 L 28 20 C 28 21.104569 28.895431 22 30 22 L 50 22 L 50 30 L 52 30 L 52 22 C 52 20.892 51.108 20 50 20 L 30 20 L 30 18 C 30 16.895431 29.104569 16 28 16 L 14 16 z M 48.5 32 C 46.567003 32 45 33.567003 45 35.5 L 45 35.501953 L 45 35.503906 L 38.777344 39.859375 C 38.145496 39.309676 37.337483 39.0048 36.5 39 C 34.567003 39 33 40.567003 33 42.5 C 33 44.432997 34.567003 46 36.5 46 C 37.411632 45.991698 38.284013 45.628017 38.931641 44.986328 L 45.009766 49.244141 C 45.003366 49.32928 45.000134 49.41462 45 49.5 C 45 51.432997 46.567003 53 48.5 53 C 50.432997 53 52 51.432997 52 49.5 C 52 47.567003 50.432997 46 48.5 46 C 47.431418 46.000271 46.421498 46.488685 45.757812 47.326172 L 39.916016 43.238281 C 39.970126 42.995865 39.9983 42.748377 40 42.5 C 39.994749 42.176963 39.944792 41.85621 39.851562 41.546875 L 45.644531 37.492188 C 46.29378 38.430075 47.359341 38.9927 48.5 39 C 50.432997 39 52 37.432997 52 35.5 C 52 33.567003 50.432997 32 48.5 32 z M 48.5 34 C 49.328427 34 50 34.671573 50 35.5 C 50 36.328427 49.328427 37 48.5 37 C 47.671573 37 47 36.328427 47 35.5 C 47 34.671573 47.671573 34 48.5 34 z M 36.5 41 C 37.328427 41 38 41.671573 38 42.5 C 38 43.328427 37.328427 44 36.5 44 C 35.671573 44 35 43.328427 35 42.5 C 35 41.671573 35.671573 41 36.5 41 z M 48.5 48 C 49.328427 48 50 48.671573 50 49.5 C 50 50.328427 49.328427 51 48.5 51 C 47.671573 51 47 50.328427 47 49.5 C 47 48.671573 47.671573 48 48.5 48 z " />
</svg>
