<?xml version="1.0" encoding="UTF-8" standalone="no"?>
<svg
   viewbox="0 0 200 200"
   version="1.1"
   id="svg4"
   sodipodi:docname="folder-videos.svg"
   width="64"
   height="64"
   inkscape:version="1.1.1 (3bf5ae0d25, 2021-09-20, custom)"
   xmlns:inkscape="http://www.inkscape.org/namespaces/inkscape"
   xmlns:sodipodi="http://sodipodi.sourceforge.net/DTD/sodipodi-0.dtd"
   xmlns="http://www.w3.org/2000/svg"
   xmlns:svg="http://www.w3.org/2000/svg">
  <defs
     id="defs8" />
  <sodipodi:namedview
     id="namedview6"
     pagecolor="#ffffff"
     bordercolor="#666666"
     borderopacity="1.0"
     inkscape:pageshadow="2"
     inkscape:pageopacity="0.0"
     inkscape:pagecheckerboard="0"
     showgrid="false"
     inkscape:zoom="12.140625"
     inkscape:cx="31.958816"
     inkscape:cy="32"
     inkscape:window-width="1920"
     inkscape:window-height="1000"
     inkscape:window-x="0"
     inkscape:window-y="0"
     inkscape:window-maximized="1"
     inkscape:current-layer="svg4"
     showguides="false" />
  <path
     d="M 2,32 C 2,10.4 10.4,2 32,2 53.6,2 62,10.4 62,32 62,53.6 53.6,62 32,62 10.4,62 2,53.6 2,32"
     id="path2"
     style="stroke-width:0.3;fill:#f8f8f8;fill-opacity:1" />
  <path
     id="rect924"
     style="fill:#febd0c;fill-opacity:1;stroke-width:2;stroke-linecap:round;stroke-linejoin:round"
     d="m 14,16 c -1.108,0 -2,0.892 -2,2 v 26 c 0,3.324 2.676,6 6,6 H 29 V 48 H 18 c -2.216,0 -4,-1.784 -4,-4 V 18 h 14 v 2 c 0,1.104569 0.895431,2 2,2 h 20 v 4 h 2 v -4 c 0,-1.108 -0.892,-2 -2,-2 H 30 v -2 c 0,-1.104569 -0.895431,-2 -2,-2 z"
     sodipodi:nodetypes="ssssccssccsscccsscsss" />
  <path
     id="rect844"
     style="fill:#febd0c;fill-opacity:1;stroke-width:4;stroke-linecap:round;stroke-linejoin:round"
     d="m 35,30 c -1.108,0 -2,0.892 -2,2 v 18 c 0,1.108 0.892,2 2,2 h 18 c 1.108,0 2,-0.892 2,-2 V 32 c 0,-1.108 -0.892,-2 -2,-2 z m 0,2 H 53 V 50 H 35 Z m 3,2 c -0.552285,0 -1,0.447715 -1,1 0,0.552285 0.447715,1 1,1 0.552285,0 1,-0.447715 1,-1 0,-0.552285 -0.447715,-1 -1,-1 z m 12,0 c -0.552285,0 -1,0.447715 -1,1 0,0.552285 0.447715,1 1,1 0.552285,0 1,-0.447715 1,-1 0,-0.552285 -0.447715,-1 -1,-1 z m -7.972281,2.999656 c -0.199446,0.01816 -0.355382,0.03835 -0.51172,0.125 -0.318203,0.176201 -0.515654,0.51127 -0.515624,0.875 v 5.99986 c -2.05e-4,0.786213 0.865083,1.265211 1.53125,0.847656 l 5.000359,-2.999516 c 0.62582,-0.391839 0.62582,-1.303473 0,-1.695312 L 42.531625,37.152 c -0.15135,-0.09487 -0.316386,-0.146636 -0.503906,-0.15234 z M 38,38 c -0.552285,0 -1,0.447715 -1,1 0,0.552285 0.447715,1 1,1 0.552285,0 1,-0.447715 1,-1 0,-0.552285 -0.447715,-1 -1,-1 z m 12,0 c -0.552285,0 -1,0.447715 -1,1 0,0.552285 0.447715,1 1,1 0.552285,0 1,-0.447715 1,-1 0,-0.552285 -0.447715,-1 -1,-1 z M 43.000375,39.804344 45.114016,41 43.000375,42.194828 Z M 38,42 c -0.552285,0 -1,0.447715 -1,1 0,0.552285 0.447715,1 1,1 0.552285,0 1,-0.447715 1,-1 0,-0.552285 -0.447715,-1 -1,-1 z m 12,0 c -0.552285,0 -1,0.447715 -1,1 0,0.552285 0.447715,1 1,1 0.552285,0 1,-0.447715 1,-1 0,-0.552285 -0.447715,-1 -1,-1 z m -12,4 c -0.552285,0 -1,0.447715 -1,1 0,0.552285 0.447715,1 1,1 0.552285,0 1,-0.447715 1,-1 0,-0.552285 -0.447715,-1 -1,-1 z m 12,0 c -0.552285,0 -1,0.447715 -1,1 0,0.552285 0.447715,1 1,1 0.552285,0 1,-0.447715 1,-1 0,-0.552285 -0.447715,-1 -1,-1 z"
     sodipodi:nodetypes="ssssssssscccccssssssssssccccccccccssssssssssccccssssssssssssssssssss" />
</svg>
