<?xml version="1.0" encoding="UTF-8" standalone="no"?>
<svg
   viewbox="0 0 200 200"
   version="1.1"
   id="svg4"
   sodipodi:docname="folder-network.svg"
   width="64"
   height="64"
   inkscape:version="1.1.1 (3bf5ae0d25, 2021-09-20, custom)"
   xmlns:inkscape="http://www.inkscape.org/namespaces/inkscape"
   xmlns:sodipodi="http://sodipodi.sourceforge.net/DTD/sodipodi-0.dtd"
   xmlns="http://www.w3.org/2000/svg"
   xmlns:svg="http://www.w3.org/2000/svg">
  <defs
     id="defs8" />
  <sodipodi:namedview
     id="namedview6"
     pagecolor="#ffffff"
     bordercolor="#666666"
     borderopacity="1.0"
     inkscape:pageshadow="2"
     inkscape:pageopacity="0.0"
     inkscape:pagecheckerboard="0"
     showgrid="false"
     inkscape:zoom="18.314066"
     inkscape:cx="43.573067"
     inkscape:cy="40.815623"
     inkscape:window-width="1920"
     inkscape:window-height="1000"
     inkscape:window-x="0"
     inkscape:window-y="0"
     inkscape:window-maximized="1"
     inkscape:current-layer="svg4"
     showguides="false" />
  <path
     d="M 2,32 C 2,10.4 10.4,2 32,2 53.6,2 62,10.4 62,32 62,53.6 53.6,62 32,62 10.4,62 2,53.6 2,32"
     id="path2"
     style="stroke-width:0.3;fill:#f8f8f8;fill-opacity:1" />
  <path
     id="rect924"
     style="fill:#febd0c;fill-opacity:1;stroke-width:2;stroke-linecap:round;stroke-linejoin:round"
     d="M 14 16 C 12.892 16 12 16.892 12 18 L 12 44 C 12 47.324 14.676 50 18 50 L 32 50 L 32 48 L 18 48 C 15.784 48 14 46.216 14 44 L 14 18 L 28 18 L 28 20 C 28 21.104569 28.895431 22 30 22 L 50 22 L 50 34 L 52 34 L 52 22 C 52 20.892 51.108 20 50 20 L 30 20 L 30 18 C 30 16.895431 29.104569 16 28 16 L 14 16 z M 37.5 32 A 3.5 3.5 0 0 0 34 35.5 A 3.5 3.5 0 0 0 37.5 39 A 3.5 3.5 0 0 0 40.355469 37.492188 L 46.148438 41.546875 A 3.5 3.5 0 0 0 46 42.5 A 3.5 3.5 0 0 0 46.083984 43.238281 L 40.242188 47.326172 A 3.5 3.5 0 0 0 37.5 46 A 3.5 3.5 0 0 0 34 49.5 A 3.5 3.5 0 0 0 37.5 53 A 3.5 3.5 0 0 0 41 49.5 A 3.5 3.5 0 0 0 40.990234 49.244141 L 47.068359 44.986328 A 3.5 3.5 0 0 0 49.5 46 A 3.5 3.5 0 0 0 53 42.5 A 3.5 3.5 0 0 0 49.5 39 A 3.5 3.5 0 0 0 47.222656 39.859375 L 41 35.503906 A 3.5 3.5 0 0 0 41 35.501953 A 3.5 3.5 0 0 0 41 35.5 A 3.5 3.5 0 0 0 37.5 32 z M 37.5 34 A 1.5 1.5 0 0 1 39 35.5 A 1.5 1.5 0 0 1 37.5 37 A 1.5 1.5 0 0 1 36 35.5 A 1.5 1.5 0 0 1 37.5 34 z M 49.5 41 A 1.5 1.5 0 0 1 51 42.5 A 1.5 1.5 0 0 1 49.5 44 A 1.5 1.5 0 0 1 48 42.5 A 1.5 1.5 0 0 1 49.5 41 z M 37.5 48 A 1.5 1.5 0 0 1 39 49.5 A 1.5 1.5 0 0 1 37.5 51 A 1.5 1.5 0 0 1 36 49.5 A 1.5 1.5 0 0 1 37.5 48 z " />
</svg>
