<?xml version="1.0" encoding="UTF-8" standalone="no"?>
<svg
   viewbox="0 0 200 200"
   version="1.1"
   id="svg4"
   sodipodi:docname="folder-development.svg"
   width="64"
   height="64"
   inkscape:version="1.1.1 (3bf5ae0d25, 2021-09-20, custom)"
   xmlns:inkscape="http://www.inkscape.org/namespaces/inkscape"
   xmlns:sodipodi="http://sodipodi.sourceforge.net/DTD/sodipodi-0.dtd"
   xmlns="http://www.w3.org/2000/svg"
   xmlns:svg="http://www.w3.org/2000/svg">
  <defs
     id="defs8" />
  <sodipodi:namedview
     id="namedview6"
     pagecolor="#ffffff"
     bordercolor="#666666"
     borderopacity="1.0"
     inkscape:pageshadow="2"
     inkscape:pageopacity="0.0"
     inkscape:pagecheckerboard="0"
     showgrid="false"
     inkscape:zoom="1"
     inkscape:cx="38.5"
     inkscape:cy="45.5"
     inkscape:window-width="1567"
     inkscape:window-height="932"
     inkscape:window-x="56"
     inkscape:window-y="50"
     inkscape:window-maximized="0"
     inkscape:current-layer="svg4"
     showguides="false" />
  <path
     d="M 2,32 C 2,10.4 10.4,2 32,2 53.6,2 62,10.4 62,32 62,53.6 53.6,62 32,62 10.4,62 2,53.6 2,32"
     id="path2"
     style="stroke-width:0.3;fill:#f8f8f8;fill-opacity:1" />
  <path
     id="rect924"
     style="fill:#febd0c;fill-opacity:1;stroke-width:2;stroke-linecap:round;stroke-linejoin:round"
     d="m 14,16 c -1.108,0 -2,0.892 -2,2 v 26 c 0,3.324 2.676,6 6,6 H 29 V 48 H 18 c -2.216,0 -4,-1.784 -4,-4 V 18 h 14 v 2 c 0,1.104569 0.895431,2 2,2 h 20 v 4 h 2 v -4 c 0,-1.108 -0.892,-2 -2,-2 H 30 v -2 c 0,-1.104569 -0.895431,-2 -2,-2 z"
     sodipodi:nodetypes="ssssccssccsscccsscsss" />
  <path
     id="path1935"
     style="color:#000000;fill:#febd0c;fill-opacity:1;stroke:none;stroke-linecap:round;-inkscape-stroke:none"
     d="M 41.179688 30 L 41.019531 30.804688 L 40.271484 34.542969 L 36.660156 33.320312 L 35.884766 33.056641 L 33.064453 37.943359 L 36.542969 41 L 33.064453 44.056641 L 35.884766 48.943359 L 40.271484 47.458984 L 41.179688 52 L 46.820312 52 L 47.728516 47.458984 L 52.115234 48.943359 L 54.935547 44.056641 L 51.457031 41 L 54.935547 37.943359 L 52.115234 33.056641 L 51.339844 33.320312 L 47.728516 34.542969 L 46.820312 30 L 41.179688 30 z M 42.820312 32 L 45.179688 32 L 45.818359 35.1875 L 48.123047 36.519531 L 51.205078 35.478516 L 52.384766 37.521484 L 49.941406 39.667969 L 49.943359 42.332031 L 52.384766 44.478516 L 51.205078 46.521484 L 48.123047 45.480469 L 45.818359 46.8125 L 45.179688 50 L 45.179688 50.001953 L 42.820312 50.001953 L 42.820312 50 L 42.181641 46.8125 L 39.876953 45.480469 L 36.794922 46.523438 L 36.794922 46.521484 L 35.615234 44.480469 L 35.615234 44.478516 L 38.058594 42.332031 L 38.056641 39.667969 L 35.615234 37.521484 L 36.794922 35.478516 L 39.876953 36.519531 L 42.181641 35.1875 L 42.820312 32 z M 44 37 A 4 4 0 0 0 40 41 A 4 4 0 0 0 44 45 A 4 4 0 0 0 48 41 A 4 4 0 0 0 44 37 z M 44 39 A 2 2 0 0 1 46 41 A 2 2 0 0 1 44 43 A 2 2 0 0 1 42 41 A 2 2 0 0 1 44 39 z " />
</svg>
