<?xml version="1.0" encoding="UTF-8" standalone="no"?>
<svg
   viewbox="0 0 200 200"
   version="1.1"
   id="svg4"
   sodipodi:docname="folder-music.svg"
   width="64"
   height="64"
   inkscape:version="1.1.1 (3bf5ae0d25, 2021-09-20, custom)"
   xmlns:inkscape="http://www.inkscape.org/namespaces/inkscape"
   xmlns:sodipodi="http://sodipodi.sourceforge.net/DTD/sodipodi-0.dtd"
   xmlns="http://www.w3.org/2000/svg"
   xmlns:svg="http://www.w3.org/2000/svg">
  <defs
     id="defs8" />
  <sodipodi:namedview
     id="namedview6"
     pagecolor="#ffffff"
     bordercolor="#666666"
     borderopacity="1.0"
     inkscape:pageshadow="2"
     inkscape:pageopacity="0.0"
     inkscape:pagecheckerboard="0"
     showgrid="false"
     inkscape:zoom="8.5405241"
     inkscape:cx="24.003211"
     inkscape:cy="41.156725"
     inkscape:window-width="1920"
     inkscape:window-height="1000"
     inkscape:window-x="0"
     inkscape:window-y="0"
     inkscape:window-maximized="1"
     inkscape:current-layer="svg4"
     showguides="false" />
  <path
     d="M 2,32 C 2,10.4 10.4,2 32,2 53.6,2 62,10.4 62,32 62,53.6 53.6,62 32,62 10.4,62 2,53.6 2,32"
     id="path2"
     style="stroke-width:0.3;fill:#f8f8f8;fill-opacity:1" />
  <path
     id="rect924"
     style="fill:#febd0c;fill-opacity:1;stroke-width:2;stroke-linecap:round;stroke-linejoin:round"
     d="M 14 16 C 12.892 16 12 16.892 12 18 L 12 44 C 12 47.324 14.676 50 18 50 L 33 50 L 33 48 L 18 48 C 15.784 48 14 46.216 14 44 L 14 18 L 28 18 L 28 20 C 28 21.104569 28.895431 22 30 22 L 50 22 L 50 30 L 52 30 L 52 22 C 52 20.892 51.108 20 50 20 L 30 20 L 30 18 C 30 16.895431 29.104569 16 28 16 L 14 16 z " />
  <path
     d="m 46,34 c -0.552285,0 -1,0.447715 -1,1 v 9.001953 C 44.134764,43.352145 43.082074,43.000563 42,43 c -2.761424,0 -5,2.238576 -5,5 0,2.761424 2.238576,5 5,5 2.646251,-0.006 4.829557,-2.072893 4.980469,-4.714844 h 0.01953 V 48 36 c 2.209139,0 4.999383,2.612375 5,6 0,0.552285 0.447715,1 1,1 0.552285,0 1,-0.447715 1,-1 -9.26e-4,-4.516834 -3.686292,-8 -7,-8 z m -4,11 c 1.656854,0 3,1.343146 3,3 0,1.656854 -1.343146,3 -3,3 -1.656854,0 -3,-1.343146 -3,-3 0,-1.656854 1.343146,-3 3,-3 z"
     style="fill:#febd0c;fill-opacity:1;stroke-width:2;stroke-linecap:round;stroke-linejoin:round"
     id="path954" />
</svg>
