<?xml version="1.0" encoding="UTF-8" standalone="no"?>
<svg
   viewbox="0 0 200 200"
   version="1.1"
   id="svg4"
   sodipodi:docname="folder.svg"
   width="64"
   height="64"
   inkscape:version="1.1.1 (3bf5ae0d25, 2021-09-20, custom)"
   xmlns:inkscape="http://www.inkscape.org/namespaces/inkscape"
   xmlns:sodipodi="http://sodipodi.sourceforge.net/DTD/sodipodi-0.dtd"
   xmlns="http://www.w3.org/2000/svg"
   xmlns:svg="http://www.w3.org/2000/svg">
  <defs
     id="defs8" />
  <sodipodi:namedview
     id="namedview6"
     pagecolor="#ffffff"
     bordercolor="#666666"
     borderopacity="1.0"
     inkscape:pageshadow="2"
     inkscape:pageopacity="0.0"
     inkscape:pagecheckerboard="0"
     showgrid="false"
     inkscape:zoom="12.078125"
     inkscape:cx="31.958603"
     inkscape:cy="32"
     inkscape:window-width="1920"
     inkscape:window-height="996"
     inkscape:window-x="0"
     inkscape:window-y="0"
     inkscape:window-maximized="1"
     inkscape:current-layer="svg4"
     showguides="false" />
  <path
     d="M 2,32 C 2,10.4 10.4,2 32,2 53.6,2 62,10.4 62,32 62,53.6 53.6,62 32,62 10.4,62 2,53.6 2,32"
     id="path2"
     style="stroke-width:0.3;fill:#f8f8f8;fill-opacity:1" />
  <path
     id="rect924"
     style="fill:#bdc3c7;stroke-width:2;stroke-linecap:round;stroke-linejoin:round;fill-opacity:1"
     d="M 14 16 C 12.892 16 12 16.892 12 18 L 12 44 C 12 47.324 14.676 50 18 50 L 46 50 C 49.324 50 52 47.324 52 44 L 52 22 C 52 20.892 51.108 20 50 20 L 30 20 L 30 18 A 2 2 0 0 0 28 16 L 14 16 z M 14 18 L 28 18 L 28 20 A 2 2 0 0 0 30 22 L 50 22 L 50 44 C 50 46.216 48.216 48 46 48 L 18 48 C 15.784 48 14 46.216 14 44 L 14 18 z " />
</svg>
