<?xml version="1.0" encoding="UTF-8" standalone="no"?>
<svg
   viewbox="0 0 200 200"
   version="1.1"
   id="svg4"
   sodipodi:docname="folder-cloud.svg"
   width="64"
   height="64"
   inkscape:version="1.1.1 (3bf5ae0d25, 2021-09-20, custom)"
   xmlns:inkscape="http://www.inkscape.org/namespaces/inkscape"
   xmlns:sodipodi="http://sodipodi.sourceforge.net/DTD/sodipodi-0.dtd"
   xmlns="http://www.w3.org/2000/svg"
   xmlns:svg="http://www.w3.org/2000/svg">
  <defs
     id="defs8" />
  <sodipodi:namedview
     id="namedview6"
     pagecolor="#ffffff"
     bordercolor="#666666"
     borderopacity="1.0"
     inkscape:pageshadow="2"
     inkscape:pageopacity="0.0"
     inkscape:pagecheckerboard="0"
     showgrid="false"
     inkscape:zoom="7.7671261"
     inkscape:cx="33.410041"
     inkscape:cy="46.091694"
     inkscape:window-width="1567"
     inkscape:window-height="932"
     inkscape:window-x="56"
     inkscape:window-y="50"
     inkscape:window-maximized="0"
     inkscape:current-layer="svg4"
     showguides="false" />
  <path
     d="M 2,32 C 2,10.4 10.4,2 32,2 53.6,2 62,10.4 62,32 62,53.6 53.6,62 32,62 10.4,62 2,53.6 2,32"
     id="path2"
     style="stroke-width:0.3;fill:#f8f8f8;fill-opacity:1" />
  <path
     id="rect924"
     style="fill:#febd0c;fill-opacity:1;stroke-width:2;stroke-linecap:round;stroke-linejoin:round"
     d="m 14,16 c -1.108,0 -2,0.892 -2,2 v 26 c 0,3.324 2.676,6 6,6 h 7 v -2 h -7 c -2.216,0 -4,-1.784 -4,-4 V 18 h 14 v 2 c 0,1.104569 0.895431,2 2,2 h 20 v 6 h 2 v -6 c 0,-1.108 -0.892,-2 -2,-2 H 30 v -2 c 0,-1.104569 -0.895431,-2 -2,-2 z"
     sodipodi:nodetypes="ssssccssccsscccsscsss" />
  <path
     id="path846"
     style="fill:#febd0c;fill-opacity:1;stroke-width:3.5;stroke-linejoin:round"
     d="m 46,32 a 9.9999994,9.9999994 0 0 0 -7.054688,2.945314 L 40.34375,36.34375 A 7.9999998,7.9999998 0 0 1 46,34 a 7.9999998,7.9999998 0 0 1 8,8 7.9999998,7.9999998 0 0 1 -8,8 H 35 a 4.9999998,4.9999998 0 0 1 -5,-5 4.9999998,4.9999998 0 0 1 5,-5 4.9999998,4.9999998 0 0 1 5,5 h 2 a 6.9999996,6.9999994 0 0 0 -7,-7 6.9999996,6.9999994 0 0 0 -7,7 6.9999996,6.9999994 0 0 0 7,7 H 46 A 9.9999994,9.9999994 0 0 0 56,42 9.9999994,9.9999994 0 0 0 46,32 Z" />
</svg>
