<?xml version="1.0" encoding="UTF-8" standalone="no"?>
<svg
   viewbox="0 0 200 200"
   version="1.1"
   id="svg4"
   sodipodi:docname="folder-template.svg"
   width="64"
   height="64"
   inkscape:version="1.1.1 (3bf5ae0d25, 2021-09-20, custom)"
   xmlns:inkscape="http://www.inkscape.org/namespaces/inkscape"
   xmlns:sodipodi="http://sodipodi.sourceforge.net/DTD/sodipodi-0.dtd"
   xmlns="http://www.w3.org/2000/svg"
   xmlns:svg="http://www.w3.org/2000/svg">
  <defs
     id="defs8" />
  <sodipodi:namedview
     id="namedview6"
     pagecolor="#ffffff"
     bordercolor="#666666"
     borderopacity="1.0"
     inkscape:pageshadow="2"
     inkscape:pageopacity="0.0"
     inkscape:pagecheckerboard="0"
     showgrid="false"
     inkscape:zoom="6.475"
     inkscape:cx="48.030888"
     inkscape:cy="50.733591"
     inkscape:window-width="1920"
     inkscape:window-height="1000"
     inkscape:window-x="0"
     inkscape:window-y="0"
     inkscape:window-maximized="1"
     inkscape:current-layer="svg4"
     showguides="false" />
  <path
     d="M 2,32 C 2,10.4 10.4,2 32,2 53.6,2 62,10.4 62,32 62,53.6 53.6,62 32,62 10.4,62 2,53.6 2,32"
     id="path2"
     style="stroke-width:0.3;fill:#f8f8f8;fill-opacity:1" />
  <path
     id="rect924"
     style="fill:#febd0c;fill-opacity:1;stroke-width:2;stroke-linecap:round;stroke-linejoin:round"
     d="m 14,16 c -1.108,0 -2,0.892 -2,2 v 26 c 0,3.324 2.676,6 6,6 h 6 v -2 h -6 c -2.216,0 -4,-1.784 -4,-4 V 18 h 14 v 2 c 0,1.104569 0.895431,2 2,2 h 20 v 4 h 2 v -4 c 0,-1.108 -0.892,-2 -2,-2 H 30 v -2 c 0,-1.104569 -0.895431,-2 -2,-2 z"
     sodipodi:nodetypes="ssssccssccsscccsscsss" />
  <path
     id="path1401"
     style="color:#000000;fill:#febd0c;fill-opacity:1;stroke:none;stroke-width:2.00004;stroke-linecap:round;stroke-linejoin:round;-inkscape-stroke:none"
     d="m 52.925781,30.009278 c -0.177786,0.03137 -0.355634,0.07426 -0.507814,0.1836 L 26.417948,50.193815 c -0.0032,0.0194 -0.0058,0.039 -0.0078,0.0586 -0.243078,0.17688 -0.393702,0.453746 -0.410148,0.753934 0.02266,0.17804 0.09282,0.346713 0.203124,0.488303 -0.0066,0.03098 -0.0118,0.06226 -0.0156,0.09374 0.02404,0.0168 0.0488,0.03234 0.07422,0.04688 0.09032,0.0821 0.1949,0.14696 0.308592,0.1914 0.10658,0.07158 0.225935,0.12198 0.351565,0.14844 0.02558,0.0116 0.05166,0.02192 0.07812,0.03126 h 26.000018 c 0.552263,-5.6e-5 0.999945,-0.447756 1.000001,-1.000043 V 31.005415 c 4.12e-4,-0.375243 -0.20924,-0.719145 -0.542974,-0.890663 -0.16682,-0.08536 -0.353473,-0.136853 -0.531251,-0.10548 z m -0.925782,2.937626 V 50.006309 H 30.121077 Z m -4.000003,5.976816 -11.800791,9.082503 h 11.800791 z m -2.000001,4.164241 v 2.918177 h -4.148442 z"
     sodipodi:nodetypes="sccccccccccccccsscccccccccccc" />
</svg>
