<?xml version="1.0" encoding="UTF-8" standalone="no"?>
<svg
   viewbox="0 0 200 200"
   version="1.1"
   id="svg4"
   sodipodi:docname="folder-publicshare.svg"
   width="64"
   height="64"
   inkscape:version="1.1.1 (3bf5ae0d25, 2021-09-20, custom)"
   xmlns:inkscape="http://www.inkscape.org/namespaces/inkscape"
   xmlns:sodipodi="http://sodipodi.sourceforge.net/DTD/sodipodi-0.dtd"
   xmlns="http://www.w3.org/2000/svg"
   xmlns:svg="http://www.w3.org/2000/svg">
  <defs
     id="defs8" />
  <sodipodi:namedview
     id="namedview6"
     pagecolor="#ffffff"
     bordercolor="#666666"
     borderopacity="1.0"
     inkscape:pageshadow="2"
     inkscape:pageopacity="0.0"
     inkscape:pagecheckerboard="0"
     showgrid="false"
     inkscape:zoom="12.95"
     inkscape:cx="31.969112"
     inkscape:cy="32.007722"
     inkscape:window-width="1920"
     inkscape:window-height="1000"
     inkscape:window-x="0"
     inkscape:window-y="0"
     inkscape:window-maximized="1"
     inkscape:current-layer="svg4"
     showguides="false" />
  <path
     d="M 2,32 C 2,10.4 10.4,2 32,2 53.6,2 62,10.4 62,32 62,53.6 53.6,62 32,62 10.4,62 2,53.6 2,32"
     id="path2"
     style="stroke-width:0.3;fill:#f8f8f8;fill-opacity:1" />
  <path
     id="rect924"
     style="fill:#febd0c;fill-opacity:1;stroke-width:2;stroke-linecap:round;stroke-linejoin:round"
     d="m 14,16 c -1.108,0 -2,0.892 -2,2 v 26 c 0,3.324 2.676,6 6,6 H 32 V 48 H 18 c -2.216,0 -4,-1.784 -4,-4 V 18 h 14 v 2 c 0,1.104569 0.895431,2 2,2 h 20 v 12 h 2 V 22 c 0,-1.108 -0.892,-2 -2,-2 H 30 v -2 c 0,-1.104569 -0.895431,-2 -2,-2 z"
     sodipodi:nodetypes="ssssccssccsscccsscsss" />
  <path
     id="path951"
     style="fill:#febd0c;fill-opacity:1;stroke-width:0;stroke-linecap:round;stroke-linejoin:round"
     d="M 45 36 A 9 9 0 0 0 39.878906 37.662109 A 3 3 0 0 0 38 37 A 3 3 0 0 0 35 40 A 3 3 0 0 0 38 43 A 3 3 0 0 0 41 40 A 3 3 0 0 0 40.921875 39.328125 A 7 7 0 0 1 45 38 A 7 7 0 0 1 51.707031 43 L 53.771484 43 A 9 9 0 0 0 45 36 z M 38 39 A 1 1 0 0 1 39 40 A 1 1 0 0 1 38 41 A 1 1 0 0 1 37 40 A 1 1 0 0 1 38 39 z M 36.248047 47 A 9 9 0 0 0 45 54 A 9 9 0 0 0 50.125 52.333984 A 3 3 0 0 0 52 53 A 3 3 0 0 0 55 50 A 3 3 0 0 0 52 47 A 3 3 0 0 0 49 50 A 3 3 0 0 0 49.076172 50.638672 A 7 7 0 0 1 45 52 A 7 7 0 0 1 38.302734 47 L 36.248047 47 z M 52 49 A 1 1 0 0 1 53 50 A 1 1 0 0 1 52 51 A 1 1 0 0 1 51 50 A 1 1 0 0 1 52 49 z " />
</svg>
