<?xml version="1.0" encoding="UTF-8" standalone="no"?>
<svg
   viewbox="0 0 200 200"
   version="1.1"
   id="svg4"
   sodipodi:docname="network-workgroup.svg"
   width="64"
   height="64"
   inkscape:version="1.1.1 (3bf5ae0d25, 2021-09-20, custom)"
   xmlns:inkscape="http://www.inkscape.org/namespaces/inkscape"
   xmlns:sodipodi="http://sodipodi.sourceforge.net/DTD/sodipodi-0.dtd"
   xmlns="http://www.w3.org/2000/svg"
   xmlns:svg="http://www.w3.org/2000/svg">
  <defs
     id="defs8" />
  <sodipodi:namedview
     id="namedview6"
     pagecolor="#ffffff"
     bordercolor="#666666"
     borderopacity="1.0"
     inkscape:pageshadow="2"
     inkscape:pageopacity="0.0"
     inkscape:pagecheckerboard="0"
     showgrid="false"
     inkscape:zoom="6.475"
     inkscape:cx="20.07722"
     inkscape:cy="64.478764"
     inkscape:window-width="1920"
     inkscape:window-height="996"
     inkscape:window-x="0"
     inkscape:window-y="0"
     inkscape:window-maximized="1"
     inkscape:current-layer="svg4"
     showguides="false" />
  <path
     d="M 2,32 C 2,10.4 10.4,2 32,2 53.6,2 62,10.4 62,32 62,53.6 53.6,62 32,62 10.4,62 2,53.6 2,32"
     id="path2"
     style="stroke-width:0.3;fill:#f8f8f8;fill-opacity:1" />
  <path
     id="rect924"
     style="fill:#febd0c;fill-opacity:1;stroke-width:2;stroke-linecap:round;stroke-linejoin:round"
     d="m 14,16 c -1.108,0 -2,0.892 -2,2 v 26 c 0,3.324 2.676,6 6,6 H 32 V 48 H 18 c -2.216,0 -4,-1.784 -4,-4 V 18 h 14 v 2 c 0,1.104569 0.895431,2 2,2 h 20 v 12 h 2 V 22 c 0,-1.108 -0.892,-2 -2,-2 H 30 v -2 c 0,-1.104569 -0.895431,-2 -2,-2 z"
     sodipodi:nodetypes="ssssccssccsscccsscsss" />
  <path
     id="path867"
     style="fill:#febd0c;fill-opacity:1;stroke-width:2;stroke-linejoin:round"
     d="m 48.079443,36.542795 a -9,9 0 0 1 5.900666,8.748894 12,4 20 0 1 2.297465,3.812581 12,4 20 0 1 -4.213812,1.446827 -9,9 0 0 1 -10.14068,2.906164 -9,9 0 0 1 -5.900166,-8.744555 12,4 20 0 1 -2.297965,-3.81692 12,4 20 0 1 4.19529,-1.447333 -9,9 0 0 1 10.159202,-2.905658 z m -0.68404,1.879384 a -7,7 0 0 0 -8.971989,4.183708 -7,7 0 0 0 -0.336824,1.427946 10,2 20 0 0 6.230632,2.84558 10,2 20 0 0 6.602045,1.825133 -7,7 0 0 0 0.659844,-1.310378 -7,7 0 0 0 -4.183708,-8.971989 z m -10.504549,2.678118 a 10,2 20 0 0 -1.286518,0.47953 10,2 20 0 0 0.696315,1.199142 -9,9 0 0 1 0.243378,-0.857122 -9,9 0 0 1 0.346825,-0.82155 z m 16.810851,6.126964 a -9,9 0 0 1 -0.243209,0.850948 -9,9 0 0 1 -0.36451,0.813034 10,2 20 0 0 1.304202,-0.471014 10,2 20 0 0 -0.696483,-1.192968 z m -4.16707,3.082969 a 12,4 20 0 1 -5.901453,-1.551432 12,4 20 0 1 -5.518015,-2.604915 -7,7 0 0 0 4.491955,5.423993 -7,7 0 0 0 6.927513,-1.267646 z" />
</svg>
