<?xml version="1.0" encoding="UTF-8" standalone="no"?>
<svg
   viewbox="0 0 200 200"
   version="1.1"
   id="svg4"
   sodipodi:docname="user-home.svg"
   width="64"
   height="64"
   inkscape:version="1.1.1 (3bf5ae0d25, 2021-09-20, custom)"
   xmlns:inkscape="http://www.inkscape.org/namespaces/inkscape"
   xmlns:sodipodi="http://sodipodi.sourceforge.net/DTD/sodipodi-0.dtd"
   xmlns="http://www.w3.org/2000/svg"
   xmlns:svg="http://www.w3.org/2000/svg">
  <defs
     id="defs8" />
  <sodipodi:namedview
     id="namedview6"
     pagecolor="#ffffff"
     bordercolor="#666666"
     borderopacity="1.0"
     inkscape:pageshadow="2"
     inkscape:pageopacity="0.0"
     inkscape:pagecheckerboard="0"
     showgrid="false"
     inkscape:zoom="17.081048"
     inkscape:cx="42.034892"
     inkscape:cy="34.336301"
     inkscape:window-width="1920"
     inkscape:window-height="1000"
     inkscape:window-x="0"
     inkscape:window-y="0"
     inkscape:window-maximized="1"
     inkscape:current-layer="svg4"
     showguides="false" />
  <path
     d="M 2,32 C 2,10.4 10.4,2 32,2 53.6,2 62,10.4 62,32 62,53.6 53.6,62 32,62 10.4,62 2,53.6 2,32"
     id="path2"
     style="stroke-width:0.3;fill:#f8f8f8;fill-opacity:1" />
  <path
     id="rect924"
     style="fill:#febd0c;fill-opacity:1;stroke-width:2;stroke-linecap:round;stroke-linejoin:round"
     d="M 14 16 C 12.892 16 12 16.892 12 18 L 12 44 C 12 47.324 14.676 50 18 50 L 32 50 L 32 48 L 18 48 C 15.784 48 14 46.216 14 44 L 14 18 L 28 18 L 28 20 C 28 21.104569 28.895431 22 30 22 L 50 22 L 50 32 L 52 32 L 52 22 C 52 20.892 51.108 20 50 20 L 30 20 L 30 18 C 30 16.895431 29.104569 16 28 16 L 14 16 z M 45 34 A 1.0001 1.0001 0 0 0 44.341797 34.248047 L 36.341797 41.248047 A 1.0001 1.0001 0 0 0 36 42 L 36 52 A 1.0001 1.0001 0 0 0 37 53 L 53 53 A 1.0001 1.0001 0 0 0 54 52 L 54 42 A 1.0001 1.0001 0 0 0 53.658203 41.248047 L 45.658203 34.248047 A 1.0001 1.0001 0 0 0 45 34 z M 45 36.328125 L 52 42.453125 L 52 51 L 38 51 L 38 42.453125 L 45 36.328125 z " />
</svg>
