<?xml version="1.0" encoding="UTF-8" standalone="no"?>
<svg
   viewbox="0 0 200 200"
   version="1.1"
   id="svg4"
   sodipodi:docname="cs-cat-hardware.svg"
   width="16"
   height="16"
   inkscape:version="1.1.1 (3bf5ae0d25, 2021-09-20, custom)"
   xmlns:inkscape="http://www.inkscape.org/namespaces/inkscape"
   xmlns:sodipodi="http://sodipodi.sourceforge.net/DTD/sodipodi-0.dtd"
   xmlns="http://www.w3.org/2000/svg"
   xmlns:svg="http://www.w3.org/2000/svg">
  <defs
     id="defs8" />
  <sodipodi:namedview
     id="namedview6"
     pagecolor="#ffffff"
     bordercolor="#666666"
     borderopacity="1.0"
     inkscape:pageshadow="2"
     inkscape:pageopacity="0.0"
     inkscape:pagecheckerboard="0"
     showgrid="false"
     inkscape:zoom="39.042396"
     inkscape:cx="8.3498974"
     inkscape:cy="10.462985"
     inkscape:window-width="1920"
     inkscape:window-height="996"
     inkscape:window-x="0"
     inkscape:window-y="0"
     inkscape:window-maximized="1"
     inkscape:current-layer="svg4"
     showguides="true" />
  <path
     id="rect2840"
     style="fill:#a0cfbe;stroke-width:1.11111;stroke-linejoin:round;fill-opacity:1"
     d="M 6 1 L 6 3 L 4 3 C 3.446 3 3 3.446 3 4 L 3 6 L 1 6 L 1 7 L 3 7 L 3 9 L 1 9 L 1 10 L 3 10 L 3 12 C 3 12.554 3.446 13 4 13 L 6 13 L 6 15 L 7 15 L 7 13 L 9 13 L 9 15 L 10 15 L 10 13 L 12 13 C 12.554 13 13 12.554 13 12 L 13 10 L 15 10 L 15 9 L 13 9 L 13 7 L 15 7 L 15 6 L 13 6 L 13 4 C 13 3.446 12.554 3 12 3 L 10 3 L 10 1 L 9 1 L 9 3 L 7 3 L 7 1 L 6 1 z M 4 4 L 12 4 L 12 12 L 4 12 L 4 4 z " />
</svg>
