<?xml version="1.0" encoding="UTF-8" standalone="no"?>
<!-- Created with Inkscape (http://www.inkscape.org/) -->

<svg
   width="16"
   height="16"
   viewBox="0 0 4.2333332 4.2333335"
   version="1.1"
   id="svg11945"
   inkscape:version="1.1.1 (3bf5ae0d25, 2021-09-20, custom)"
   sodipodi:docname="cs-cat-appearance.svg"
   xmlns:inkscape="http://www.inkscape.org/namespaces/inkscape"
   xmlns:sodipodi="http://sodipodi.sourceforge.net/DTD/sodipodi-0.dtd"
   xmlns="http://www.w3.org/2000/svg"
   xmlns:svg="http://www.w3.org/2000/svg">
  <sodipodi:namedview
     id="namedview11947"
     pagecolor="#ffffff"
     bordercolor="#666666"
     borderopacity="1.0"
     inkscape:pageshadow="2"
     inkscape:pageopacity="0.0"
     inkscape:pagecheckerboard="0"
     inkscape:document-units="px"
     showgrid="false"
     units="in"
     inkscape:zoom="32"
     inkscape:cx="9.15625"
     inkscape:cy="8.578125"
     inkscape:window-width="1920"
     inkscape:window-height="996"
     inkscape:window-x="0"
     inkscape:window-y="0"
     inkscape:window-maximized="1"
     inkscape:current-layer="svg11945"
     showguides="false" />
  <defs
     id="defs11942" />
  <path
     id="rect1022"
     style="fill:#ee8eec;stroke-width:2;stroke-linejoin:round;fill-opacity:1"
     d="M 3 0 C 2.446 0 2 0.44600003 2 1 L 2 8 C 2 8.554 2.4212271 8.8320708 3 9 C 6.2108659 9.6786764 6.9732076 10.061694 6.1054688 13.361328 C 6.0475739 13.630245 6.0000529 13.78207 6 14 C 6 15.104569 6.8954304 16 8 16 C 9.1045696 16 10 15.104569 10 14 C 9.9999471 13.78207 9.9524261 13.630245 9.8945312 13.361328 C 9.0267924 10.061694 9.7891339 9.6786762 13 9 C 13.578773 8.8320707 14 8.5539997 14 8 L 14 1 C 14 0.44600027 13.554 0 13 0 L 3 0 z M 3 1 L 4 1 L 4 4 L 5 4 L 5 1 L 6 1 L 6 4 L 7 4 L 7 1 L 11 1 L 11 4 L 12 4 L 12 1 L 13 1 L 13 5 L 3 5 L 3 1 z M 3 6 L 13 6 L 13 8 C 8.7952671 8.9198951 7.9506281 9.5660785 8.8535156 13.478516 C 8.8535156 13.478516 9.0010654 13.714162 9 14 C 9 14.552285 8.5522857 15 8 15 C 7.4477154 15 7 14.552285 7 14 C 6.9989342 13.714162 7.1464844 13.478516 7.1464844 13.478516 C 8.0493707 9.5660784 7.204732 8.9198953 3 8 L 3 6 z "
     transform="scale(0.26458333)" />
</svg>
