<?xml version="1.0" encoding="UTF-8" standalone="no"?>
<svg
   viewbox="0 0 200 200"
   version="1.1"
   id="svg4"
   sodipodi:docname="folder-videos.svg"
   width="24"
   height="24"
   inkscape:version="1.1.1 (3bf5ae0d25, 2021-09-20, custom)"
   xmlns:inkscape="http://www.inkscape.org/namespaces/inkscape"
   xmlns:sodipodi="http://sodipodi.sourceforge.net/DTD/sodipodi-0.dtd"
   xmlns="http://www.w3.org/2000/svg"
   xmlns:svg="http://www.w3.org/2000/svg">
  <defs
     id="defs8" />
  <sodipodi:namedview
     id="namedview6"
     pagecolor="#ffffff"
     bordercolor="#666666"
     borderopacity="1.0"
     inkscape:pageshadow="2"
     inkscape:pageopacity="0.0"
     inkscape:pagecheckerboard="0"
     showgrid="false"
     inkscape:zoom="32.375"
     inkscape:cx="11.984556"
     inkscape:cy="12"
     inkscape:window-width="1920"
     inkscape:window-height="1000"
     inkscape:window-x="0"
     inkscape:window-y="0"
     inkscape:window-maximized="1"
     inkscape:current-layer="svg4"
     showguides="false" />
  <path
     d="M 2,12 C 2,4.8 4.8,2 12,2 19.2,2 22,4.8 22,12 22,19.2 19.2,22 12,22 4.8,22 2,19.2 2,12"
     id="path2"
     style="fill:#f8f8f8;fill-opacity:1;stroke-width:0.1" />
  <path
     id="rect844"
     style="fill:#febd0c;stroke-width:2;stroke-linecap:round;stroke-linejoin:round;fill-opacity:1"
     d="M 6 5 C 5.446 5 5 5.446 5 6 L 5 18 C 5 18.554 5.446 19 6 19 L 18 19 C 18.554 19 19 18.554 19 18 L 19 6 C 19 5.446 18.554 5 18 5 L 6 5 z M 6 6 L 18 6 L 18 18 L 6 18 L 6 6 z M 7.5 7 A 0.5 0.5 0 0 0 7 7.5 A 0.5 0.5 0 0 0 7.5 8 A 0.5 0.5 0 0 0 8 7.5 A 0.5 0.5 0 0 0 7.5 7 z M 16.5 7 A 0.5 0.5 0 0 0 16 7.5 A 0.5 0.5 0 0 0 16.5 8 A 0.5 0.5 0 0 0 17 7.5 A 0.5 0.5 0 0 0 16.5 7 z M 10.013672 9 A 0.50005 0.50005 0 0 0 9.7578125 9.0625 A 0.50005 0.50005 0 0 0 9.5 9.5 L 9.5 14.5 A 0.50005 0.50005 0 0 0 10.265625 14.923828 L 14.265625 12.423828 A 0.50005 0.50005 0 0 0 14.265625 11.576172 L 10.265625 9.0761719 A 0.50005 0.50005 0 0 0 10.013672 9 z M 7.5 10 A 0.5 0.5 0 0 0 7 10.5 A 0.5 0.5 0 0 0 7.5 11 A 0.5 0.5 0 0 0 8 10.5 A 0.5 0.5 0 0 0 7.5 10 z M 16.5 10 A 0.5 0.5 0 0 0 16 10.5 A 0.5 0.5 0 0 0 16.5 11 A 0.5 0.5 0 0 0 17 10.5 A 0.5 0.5 0 0 0 16.5 10 z M 10.5 10.402344 L 13.056641 12 L 10.5 13.597656 L 10.5 10.402344 z M 7.5 13 A 0.5 0.5 0 0 0 7 13.5 A 0.5 0.5 0 0 0 7.5 14 A 0.5 0.5 0 0 0 8 13.5 A 0.5 0.5 0 0 0 7.5 13 z M 16.5 13 A 0.5 0.5 0 0 0 16 13.5 A 0.5 0.5 0 0 0 16.5 14 A 0.5 0.5 0 0 0 17 13.5 A 0.5 0.5 0 0 0 16.5 13 z M 7.5 16 A 0.5 0.5 0 0 0 7 16.5 A 0.5 0.5 0 0 0 7.5 17 A 0.5 0.5 0 0 0 8 16.5 A 0.5 0.5 0 0 0 7.5 16 z M 16.5 16 A 0.5 0.5 0 0 0 16 16.5 A 0.5 0.5 0 0 0 16.5 17 A 0.5 0.5 0 0 0 17 16.5 A 0.5 0.5 0 0 0 16.5 16 z " />
</svg>
