<?xml version="1.0" encoding="UTF-8" standalone="no"?>
<svg
   viewbox="0 0 200 200"
   version="1.1"
   id="svg4"
   sodipodi:docname="user-trash.svg"
   width="24"
   height="24"
   inkscape:version="1.1.1 (3bf5ae0d25, 2021-09-20, custom)"
   xmlns:inkscape="http://www.inkscape.org/namespaces/inkscape"
   xmlns:sodipodi="http://sodipodi.sourceforge.net/DTD/sodipodi-0.dtd"
   xmlns="http://www.w3.org/2000/svg"
   xmlns:svg="http://www.w3.org/2000/svg">
  <defs
     id="defs8" />
  <sodipodi:namedview
     id="namedview6"
     pagecolor="#ffffff"
     bordercolor="#666666"
     borderopacity="1.0"
     inkscape:pageshadow="2"
     inkscape:pageopacity="0.0"
     inkscape:pagecheckerboard="0"
     showgrid="false"
     inkscape:zoom="12.078125"
     inkscape:cx="8.5278137"
     inkscape:cy="2.9391979"
     inkscape:window-width="1920"
     inkscape:window-height="996"
     inkscape:window-x="0"
     inkscape:window-y="0"
     inkscape:window-maximized="1"
     inkscape:current-layer="svg4"
     showguides="false" />
  <path
     d="M 2,12 C 2,4.8 4.8,2 12,2 19.2,2 22,4.8 22,12 22,19.2 19.2,22 12,22 4.8,22 2,19.2 2,12"
     id="path2"
     style="fill:#e8ccd8;fill-opacity:1;stroke-width:0.1" />
  <path
     id="path1597"
     style="fill:#b75e73;fill-opacity:1;stroke-width:1.94365;stroke-linejoin:round"
     d="m 9.5,4 c -0.554,0 -1,0.420395 -1,1 V 7 H 5 V 8 H 7 L 7.890625,19.124023 C 7.953211,19.6244 8.378536,19.999909 8.882812,20 h 6.234375 c 0.504276,-9.1e-5 0.929602,-0.3756 0.992188,-0.875977 L 16.999906,8 H 19 V 7 H 15.5 V 5 c 0,-0.554 -0.446,-1 -1,-1 z m 0,1 h 5 v 2 h -5 z M 8.066,8 h 7.926093 L 15.171875,18.5625 C 15.140356,18.812494 14.927754,18.999985 14.675781,19 H 9.382812 C 9.130838,18.999985 8.918238,18.812495 8.886719,18.5625 Z M 10,10 v 7 h 1 v -7 z m 3,0 v 7 h 1 v -7 z"
     sodipodi:nodetypes="ssccccccccccccssscccccccccccccccccccccc" />
</svg>
