<?xml version="1.0" encoding="UTF-8" standalone="no"?>
<svg
   viewbox="0 0 200 200"
   version="1.1"
   id="svg4"
   sodipodi:docname="application-x-archive.svg"
   width="64"
   height="64"
   inkscape:version="1.1.1 (3bf5ae0d25, 2021-09-20, custom)"
   xmlns:inkscape="http://www.inkscape.org/namespaces/inkscape"
   xmlns:sodipodi="http://sodipodi.sourceforge.net/DTD/sodipodi-0.dtd"
   xmlns="http://www.w3.org/2000/svg"
   xmlns:svg="http://www.w3.org/2000/svg">
  <defs
     id="defs8" />
  <sodipodi:namedview
     id="namedview6"
     pagecolor="#ffffff"
     bordercolor="#666666"
     borderopacity="1.0"
     inkscape:pageshadow="2"
     inkscape:pageopacity="0.0"
     inkscape:pagecheckerboard="0"
     showgrid="false"
     inkscape:zoom="12.078125"
     inkscape:cx="31.958603"
     inkscape:cy="32"
     inkscape:window-width="1920"
     inkscape:window-height="996"
     inkscape:window-x="0"
     inkscape:window-y="0"
     inkscape:window-maximized="1"
     inkscape:current-layer="svg4"
     showguides="false" />
  <path
     d="M 2,32 C 2,10.4 10.4,2 32,2 53.6,2 62,10.4 62,32 62,53.6 53.6,62 32,62 10.4,62 2,53.6 2,32"
     id="path2"
     style="stroke-width:0.3;fill:#ea297e;fill-opacity:1" />
  <path
     id="rect844"
     style="fill:#ffffff;stroke-width:4;stroke-linecap:round;stroke-linejoin:round"
     d="M 14 15 C 12.895431 15 12 15.895431 12 17 L 12 49 L 14 49 L 14 17 L 20 17 L 20 19 L 22 19 L 22 17 L 27 17 L 30 20 C 31.116052 21.116052 33 21 33 21 L 52 21 L 52 19 L 32 19 L 29 16 C 28.169892 15.099764 27.429941 15 26 15 L 14 15 z M 20 21 L 20 24 L 22 24 L 22 21 L 20 21 z M 50 24 L 50 41 C 50 44.324 47.321344 47.132854 44 47 L 17 47 L 17 49 L 44 49 C 48.432 49 52 45.432 52 41 L 52 24 L 50 24 z M 20 26 L 20 29 L 22 29 L 22 26 L 20 26 z M 21 31 C 19.338 31 18 32.338 18 34 L 18 38 C 18 39.662 19.338 41 21 41 C 22.662 41 24 39.662 24 38 L 24 34 C 24 32.338 22.662 31 21 31 z M 21 33 C 21.554 33 22 33.446 22 34 L 22 38 C 22 38.554 21.554 39 21 39 C 20.446 39 20 38.554 20 38 L 20 34 C 20 33.446 20.446 33 21 33 z " />
</svg>
