<?xml version="1.0" encoding="UTF-8" standalone="no"?>
<svg
   viewbox="0 0 200 200"
   version="1.1"
   id="svg4"
   sodipodi:docname="application-x-subrip.svg"
   width="64"
   height="64"
   inkscape:version="1.1.1 (3bf5ae0d25, 2021-09-20, custom)"
   xmlns:inkscape="http://www.inkscape.org/namespaces/inkscape"
   xmlns:sodipodi="http://sodipodi.sourceforge.net/DTD/sodipodi-0.dtd"
   xmlns="http://www.w3.org/2000/svg"
   xmlns:svg="http://www.w3.org/2000/svg">
  <defs
     id="defs8" />
  <sodipodi:namedview
     id="namedview6"
     pagecolor="#ffffff"
     bordercolor="#666666"
     borderopacity="1.0"
     inkscape:pageshadow="2"
     inkscape:pageopacity="0.0"
     inkscape:pagecheckerboard="0"
     showgrid="false"
     inkscape:zoom="11.313708"
     inkscape:cx="31.819807"
     inkscape:cy="37.432467"
     inkscape:window-width="1920"
     inkscape:window-height="1000"
     inkscape:window-x="0"
     inkscape:window-y="0"
     inkscape:window-maximized="1"
     inkscape:current-layer="svg4"
     showguides="false" />
  <path
     d="M 2,32 C 2,10.4 10.4,2 32,2 53.6,2 62,10.4 62,32 62,53.6 53.6,62 32,62 10.4,62 2,53.6 2,32"
     id="path2"
     style="stroke-width:0.3;fill:#867bb5;fill-opacity:1" />
  <path
     id="path3817"
     style="color:#000000;fill:#ffffff;stroke:none;stroke-width:0.99356;stroke-linecap:round;stroke-linejoin:round;-inkscape-stroke:none"
     d="M 17 16 C 14.783999 16 13 17.783999 13 20 L 13 44 L 15 44 L 15 20 C 15 18.892 15.892 18 17 18 L 51 18 L 51 16 L 17 16 z M 49 22 L 49 38 C 49 40.216 47.216 42 45 42 L 26 42 L 15.210938 50.535156 L 16.599609 52.111328 L 26.753906 44 L 45 44 C 48.324 44 50.587709 41.298332 51 38 L 51 22 L 49 22 z M 20.5 22.25 C 19.671573 22.25 19 22.921573 19 23.75 C 19 24.578427 19.671573 25.25 20.5 25.25 C 21.328427 25.25 22 24.578427 22 23.75 C 22 22.921573 21.328427 22.25 20.5 22.25 z M 43.5 22.25 C 42.671573 22.25 42 22.921573 42 23.75 C 42 24.578427 42.671573 25.25 43.5 25.25 C 44.328427 25.25 45 24.578427 45 23.75 C 45 22.921573 44.328427 22.25 43.5 22.25 z M 28.046875 23.001953 C 27.986943 22.999154 27.927381 23.001634 27.867188 23.009766 C 27.748264 23.025546 27.633148 23.062596 27.527344 23.119141 C 27.202769 23.293252 27.000165 23.631675 27 24 L 27 36 C 27.000171 36.798587 27.890134 37.274874 28.554688 36.832031 L 37.554688 30.832031 C 38.148274 30.436148 38.148274 29.563853 37.554688 29.167969 L 28.554688 23.167969 C 28.402931 23.067099 28.22667 23.010352 28.046875 23.001953 z M 29 25.869141 L 35.197266 30 L 29 34.130859 L 29 25.869141 z M 20.5 28.75 C 19.671573 28.75 19 29.421573 19 30.25 C 19 31.078427 19.671573 31.75 20.5 31.75 C 21.328427 31.75 22 31.078427 22 30.25 C 22 29.421573 21.328427 28.75 20.5 28.75 z M 43.5 28.75 C 42.671573 28.75 42 29.421573 42 30.25 C 42 31.078427 42.671573 31.75 43.5 31.75 C 44.328427 31.75 45 31.078427 45 30.25 C 45 29.421573 44.328427 28.75 43.5 28.75 z M 20.5 34.75 C 19.671573 34.75 19 35.421573 19 36.25 C 19 37.078427 19.671573 37.75 20.5 37.75 C 21.328427 37.75 22 37.078427 22 36.25 C 22 35.421573 21.328427 34.75 20.5 34.75 z M 43.5 34.75 C 42.671573 34.75 42 35.421573 42 36.25 C 42 37.078427 42.671573 37.75 43.5 37.75 C 44.328427 37.75 45 37.078427 45 36.25 C 45 35.421573 44.328427 34.75 43.5 34.75 z " />
</svg>
