<?xml version="1.0" encoding="UTF-8" standalone="no"?>
<svg
   viewbox="0 0 200 200"
   version="1.1"
   id="svg4"
   sodipodi:docname="rpm.svg"
   width="64"
   height="64"
   inkscape:version="1.1.1 (3bf5ae0d25, 2021-09-20, custom)"
   xmlns:inkscape="http://www.inkscape.org/namespaces/inkscape"
   xmlns:sodipodi="http://sodipodi.sourceforge.net/DTD/sodipodi-0.dtd"
   xmlns="http://www.w3.org/2000/svg"
   xmlns:svg="http://www.w3.org/2000/svg">
  <defs
     id="defs8" />
  <sodipodi:namedview
     id="namedview6"
     pagecolor="#ffffff"
     bordercolor="#666666"
     borderopacity="1.0"
     inkscape:pageshadow="2"
     inkscape:pageopacity="0.0"
     inkscape:pagecheckerboard="0"
     showgrid="false"
     inkscape:zoom="9.2365823"
     inkscape:cx="39.949842"
     inkscape:cy="36.97255"
     inkscape:window-width="1920"
     inkscape:window-height="996"
     inkscape:window-x="0"
     inkscape:window-y="0"
     inkscape:window-maximized="1"
     inkscape:current-layer="svg4"
     showguides="true" />
  <path
     d="M 2,32 C 2,10.4 10.4,2 32,2 53.6,2 62,10.4 62,32 62,53.6 53.6,62 32,62 10.4,62 2,53.6 2,32"
     id="path2"
     style="stroke-width:0.3;fill:#eb4c27;fill-opacity:1;stroke:none" />
  <path
     id="rect844"
     style="fill:#ffffff;stroke-width:2;stroke-linejoin:round"
     d="M 19.533203 27 L 19.533203 37.789062 L 21.164062 37.789062 L 21.164062 33.421875 L 23.039062 33.421875 L 25.636719 37.789062 L 27.511719 37.789062 L 24.488281 32.998047 C 24.840846 32.857021 25.179609 32.671138 25.501953 32.439453 C 25.824298 32.197695 26.085645 31.890289 26.287109 31.517578 C 26.498648 31.134794 26.603516 30.667311 26.603516 30.113281 C 26.603516 29.065662 26.272257 28.28522 25.607422 27.771484 C 24.952661 27.257748 23.934724 27 22.554688 27 L 19.533203 27 z M 29.097656 27 L 29.097656 37.789062 L 30.728516 37.789062 L 30.728516 33.693359 L 31.892578 33.693359 C 32.960343 33.693359 33.807099 33.533282 34.431641 33.210938 C 35.056183 32.87852 35.499814 32.449591 35.761719 31.925781 C 36.033697 31.401971 36.169922 30.83877 36.169922 30.234375 C 36.169922 29.216976 35.845861 28.425431 35.201172 27.861328 C 34.556483 27.287152 33.529397 27 32.119141 27 L 29.097656 27 z M 38.345703 27 L 38.345703 37.789062 L 39.826172 37.789062 L 39.826172 31.699219 C 39.826172 31.316435 39.82062 30.928013 39.810547 30.535156 C 39.800474 30.142299 39.785772 29.779683 39.765625 29.447266 C 39.745478 29.104774 39.730776 28.828726 39.720703 28.617188 L 39.779297 28.617188 L 43.044922 37.789062 L 44.449219 37.789062 L 47.802734 28.632812 L 47.863281 28.632812 C 47.853208 28.854425 47.838506 29.130473 47.818359 29.462891 C 47.808286 29.795308 47.793584 30.152372 47.773438 30.535156 C 47.763364 30.907867 47.757814 31.266884 47.757812 31.609375 L 47.757812 37.789062 L 49.345703 37.789062 L 49.345703 27 L 47.017578 27 L 43.830078 35.658203 L 43.769531 35.658203 L 40.671875 27 L 38.345703 27 z M 30.728516 28.375 L 31.998047 28.375 C 32.854274 28.375 33.483789 28.53703 33.886719 28.859375 C 34.289649 29.171646 34.492188 29.650233 34.492188 30.294922 C 34.492188 31.020197 34.254693 31.537339 33.78125 31.849609 C 33.31788 32.161881 32.627603 32.318359 31.710938 32.318359 L 30.728516 32.318359 L 30.728516 28.375 z M 21.164062 28.390625 L 22.449219 28.390625 C 23.295373 28.390625 23.919335 28.52685 24.322266 28.798828 C 24.725196 29.070806 24.927734 29.529139 24.927734 30.173828 C 24.927734 30.798371 24.7363 31.271406 24.353516 31.59375 C 23.970732 31.906021 23.361471 32.0625 22.525391 32.0625 L 21.164062 32.0625 L 21.164062 28.390625 z M 15.972656 35.824219 C 15.704101 35.833662 15.475983 35.915307 15.287109 36.066406 C 15.095717 36.227579 15 36.503628 15 36.896484 C 15 37.289342 15.095717 37.570942 15.287109 37.742188 C 15.488575 37.913432 15.735219 38 16.027344 38 C 16.309394 38 16.550488 37.913432 16.751953 37.742188 C 16.963492 37.570942 17.070312 37.289342 17.070312 36.896484 C 17.070312 36.503628 16.963492 36.227579 16.751953 36.066406 C 16.550488 35.905234 16.309394 35.824219 16.027344 35.824219 C 16.009086 35.824219 15.99056 35.823589 15.972656 35.824219 z " />
</svg>
