<?xml version="1.0" encoding="UTF-8" standalone="no"?>
<svg
   viewbox="0 0 200 200"
   version="1.1"
   id="svg4"
   sodipodi:docname="application-x-sharedlib.svg"
   width="64"
   height="64"
   inkscape:version="1.1.1 (3bf5ae0d25, 2021-09-20, custom)"
   xmlns:inkscape="http://www.inkscape.org/namespaces/inkscape"
   xmlns:sodipodi="http://sodipodi.sourceforge.net/DTD/sodipodi-0.dtd"
   xmlns="http://www.w3.org/2000/svg"
   xmlns:svg="http://www.w3.org/2000/svg">
  <defs
     id="defs8" />
  <sodipodi:namedview
     id="namedview6"
     pagecolor="#ffffff"
     bordercolor="#666666"
     borderopacity="1.0"
     inkscape:pageshadow="2"
     inkscape:pageopacity="0.0"
     inkscape:pagecheckerboard="0"
     showgrid="false"
     inkscape:zoom="9.2365823"
     inkscape:cx="31.613425"
     inkscape:cy="35.132042"
     inkscape:window-width="1920"
     inkscape:window-height="1000"
     inkscape:window-x="0"
     inkscape:window-y="0"
     inkscape:window-maximized="1"
     inkscape:current-layer="svg4"
     showguides="false" />
  <path
     d="M 2,32 C 2,10.4 10.4,2 32,2 53.6,2 62,10.4 62,32 62,53.6 53.6,62 32,62 10.4,62 2,53.6 2,32"
     id="path2"
     style="stroke-width:0.3;fill:#7d8db0;fill-opacity:1;stroke:none" />
  <path
     id="rect14319"
     style="fill:#ffffff;stroke-width:1.6;stroke-linecap:round;stroke-linejoin:round"
     d="M 17 16 C 14.783999 16 13 17.783998 13 20 L 13 48 L 15 48 L 15 20 C 15 18.891999 15.893912 17.934936 17 18 L 51 18 L 51 16 L 17 16 z M 32.128906 21 L 31.558594 23.847656 A 5.6 5.6 0 0 0 30.355469 24.546875 L 27.599609 23.613281 L 26 26.386719 L 28.177734 28.300781 A 5.6 5.6 0 0 0 28.128906 29 A 5.6 5.6 0 0 0 28.177734 29.699219 L 26 31.613281 L 27.599609 34.386719 L 30.355469 33.453125 A 5.6 5.6 0 0 0 31.558594 34.152344 L 32.128906 37 L 35.328125 37 L 35.896484 34.152344 A 5.6 5.6 0 0 0 37.099609 33.453125 L 39.855469 34.386719 L 41.457031 31.613281 L 39.277344 29.699219 A 5.6 5.6 0 0 0 39.328125 29 A 5.6 5.6 0 0 0 39.283203 28.296875 L 41.457031 26.386719 L 39.855469 23.613281 L 37.113281 24.541016 A 5.6 5.6 0 0 0 35.894531 23.837891 L 35.328125 21 L 32.128906 21 z M 49 22 L 49 42 C 49 44.216 47.216 46 45 46 L 19 46 L 19 48 L 45 48 C 48.324 48 51 45.323999 51 42 L 51 22 L 49 22 z M 33.728516 26.599609 A 2.4 2.4 0 0 1 36.128906 29 A 2.4 2.4 0 0 1 33.728516 31.400391 A 2.4 2.4 0 0 1 31.328125 29 A 2.4 2.4 0 0 1 33.728516 26.599609 z M 25.064453 34 L 24.779297 35.423828 A 2.8 2.8 0 0 0 24.177734 35.773438 L 22.800781 35.306641 L 22 36.693359 L 23.089844 37.650391 A 2.8 2.8 0 0 0 23.064453 38 A 2.8 2.8 0 0 0 23.089844 38.349609 L 22 39.306641 L 22.800781 40.693359 L 24.177734 40.226562 A 2.8 2.8 0 0 0 24.779297 40.576172 L 25.064453 42 L 26.664062 42 L 26.949219 40.576172 A 2.8 2.8 0 0 0 27.550781 40.226562 L 28.927734 40.693359 L 29.728516 39.306641 L 28.638672 38.349609 A 2.8 2.8 0 0 0 28.664062 38 A 2.8 2.8 0 0 0 28.640625 37.648438 L 29.728516 36.693359 L 28.927734 35.306641 L 27.556641 35.769531 A 2.8 2.8 0 0 0 26.947266 35.417969 L 26.664062 34 L 25.064453 34 z M 25.863281 36.800781 A 1.2 1.2 0 0 1 27.064453 38 A 1.2 1.2 0 0 1 25.863281 39.199219 A 1.2 1.2 0 0 1 24.664062 38 A 1.2 1.2 0 0 1 25.863281 36.800781 z " />
</svg>
