<?xml version="1.0" encoding="UTF-8" standalone="no"?>
<svg
   viewbox="0 0 200 200"
   version="1.1"
   id="svg4"
   sodipodi:docname="deb.svg"
   width="64"
   height="64"
   inkscape:version="1.1.1 (3bf5ae0d25, 2021-09-20, custom)"
   xmlns:inkscape="http://www.inkscape.org/namespaces/inkscape"
   xmlns:sodipodi="http://sodipodi.sourceforge.net/DTD/sodipodi-0.dtd"
   xmlns="http://www.w3.org/2000/svg"
   xmlns:svg="http://www.w3.org/2000/svg">
  <defs
     id="defs8" />
  <sodipodi:namedview
     id="namedview6"
     pagecolor="#ffffff"
     bordercolor="#666666"
     borderopacity="1.0"
     inkscape:pageshadow="2"
     inkscape:pageopacity="0.0"
     inkscape:pagecheckerboard="0"
     showgrid="false"
     inkscape:zoom="9.2365823"
     inkscape:cx="46.337486"
     inkscape:cy="36.214694"
     inkscape:window-width="1920"
     inkscape:window-height="996"
     inkscape:window-x="0"
     inkscape:window-y="0"
     inkscape:window-maximized="1"
     inkscape:current-layer="svg4"
     showguides="true" />
  <path
     d="M 2,32 C 2,10.4 10.4,2 32,2 53.6,2 62,10.4 62,32 62,53.6 53.6,62 32,62 10.4,62 2,53.6 2,32"
     id="path2"
     style="stroke-width:0.3;fill:#e96c89;fill-opacity:1;stroke:none" />
  <path
     id="rect11710"
     style="fill:#ffffff;stroke-width:2;stroke-linejoin:round"
     d="M 20.533203 27 L 20.533203 37.789062 L 23.554688 37.789062 C 25.357733 37.789062 26.758644 37.328742 27.755859 36.412109 C 28.763147 35.485404 29.265625 34.112254 29.265625 32.289062 C 29.265625 31.130681 29.04477 30.162331 28.601562 29.386719 C 28.158355 28.601034 27.534346 28.008384 26.728516 27.605469 C 25.922685 27.202554 24.969038 27 23.871094 27 L 20.533203 27 z M 31.607422 27 L 31.607422 37.789062 L 37.681641 37.789062 L 37.681641 36.382812 L 33.240234 36.382812 L 33.240234 32.847656 L 37.410156 32.847656 L 37.410156 31.472656 L 33.240234 31.472656 L 33.240234 28.390625 L 37.681641 28.390625 L 37.681641 27 L 31.607422 27 z M 40.023438 27 L 40.023438 37.789062 L 43.892578 37.789062 C 45.061031 37.789062 45.986917 37.522144 46.671875 36.988281 C 47.35683 36.444346 47.699219 35.682147 47.699219 34.705078 C 47.699219 34.140997 47.599895 33.688182 47.398438 33.345703 C 47.196981 32.993153 46.918955 32.720682 46.566406 32.529297 C 46.223926 32.337912 45.84103 32.209182 45.417969 32.138672 L 45.417969 32.0625 C 46.042487 31.951698 46.521111 31.68838 46.853516 31.275391 C 47.195992 30.85233 47.367187 30.324044 47.367188 29.689453 C 47.367188 28.70231 47.010095 28.008384 46.294922 27.605469 C 45.589819 27.202554 44.551554 27 43.181641 27 L 40.023438 27 z M 22.164062 28.375 L 23.765625 28.375 C 24.974371 28.375 25.907762 28.697132 26.5625 29.341797 C 27.22731 29.976388 27.558594 30.974145 27.558594 32.333984 C 27.558594 35.053662 26.198194 36.412109 23.478516 36.412109 L 22.164062 36.412109 L 22.164062 28.375 z M 41.65625 28.375 L 43.273438 28.375 C 44.109485 28.375 44.718795 28.496532 45.101562 28.738281 C 45.484335 28.969958 45.675781 29.352856 45.675781 29.886719 C 45.675781 30.420581 45.513737 30.821783 45.191406 31.09375 C 44.879145 31.365718 44.3012 31.501953 43.455078 31.501953 L 41.65625 31.501953 L 41.65625 28.375 z M 41.65625 32.832031 L 43.529297 32.832031 C 44.445927 32.832031 45.081041 32.994074 45.433594 33.316406 C 45.796218 33.628666 45.976562 34.040971 45.976562 34.554688 C 45.976562 35.118769 45.801773 35.573538 45.449219 35.916016 C 45.106744 36.258493 44.501036 36.427734 43.634766 36.427734 L 41.65625 36.427734 L 41.65625 32.832031 z M 17.027344 35.824219 C 16.735231 35.824219 16.488566 35.905239 16.287109 36.066406 C 16.095724 36.227573 16 36.503642 16 36.896484 C 16 37.289326 16.09572 37.572903 16.287109 37.744141 C 16.488566 37.915381 16.735231 38 17.027344 38 C 17.309385 38 17.550496 37.915382 17.751953 37.744141 C 17.963484 37.572903 18.070313 37.289326 18.070312 36.896484 C 18.070312 36.503642 17.963484 36.227573 17.751953 36.066406 C 17.550496 35.90524 17.309385 35.824219 17.027344 35.824219 z " />
</svg>
