<?xml version="1.0" encoding="UTF-8" standalone="no"?>
<svg
   viewbox="0 0 200 200"
   version="1.1"
   id="svg4"
   sodipodi:docname="application-vnd.sun.xml.impress.template.svg"
   width="64"
   height="64"
   inkscape:version="1.1.1 (3bf5ae0d25, 2021-09-20, custom)"
   xmlns:inkscape="http://www.inkscape.org/namespaces/inkscape"
   xmlns:sodipodi="http://sodipodi.sourceforge.net/DTD/sodipodi-0.dtd"
   xmlns="http://www.w3.org/2000/svg"
   xmlns:svg="http://www.w3.org/2000/svg">
  <defs
     id="defs8" />
  <sodipodi:namedview
     id="namedview6"
     pagecolor="#ffffff"
     bordercolor="#666666"
     borderopacity="1.0"
     inkscape:pageshadow="2"
     inkscape:pageopacity="0.0"
     inkscape:pagecheckerboard="0"
     showgrid="false"
     inkscape:zoom="8"
     inkscape:cx="40.875"
     inkscape:cy="31.5625"
     inkscape:window-width="1920"
     inkscape:window-height="1007"
     inkscape:window-x="0"
     inkscape:window-y="0"
     inkscape:window-maximized="1"
     inkscape:current-layer="svg4"
     showguides="true" />
  <path
     d="M 2,32 C 2,10.4 10.4,2 32,2 53.6,2 62,10.4 62,32 62,53.6 53.6,62 32,62 10.4,62 2,53.6 2,32"
     id="path2"
     style="stroke-width:0.3;fill:#d56406;fill-opacity:1;stroke:none" />
  <path
     id="rect1189"
     style="fill:#ffffff;stroke-width:2.23607;stroke-linecap:square;stroke-linejoin:round"
     d="m 20,18 a 7,7 0 0 0 -7,7 7,7 0 0 0 7,7 7,7 0 0 0 7,-7 7,7 0 0 0 -0.07227,-1 H 25 24.896484 21 V 20.103516 20 18.072266 A 7,7 0 0 0 20,18 Z m 11,1 v 2 H 51 V 19 Z M 19,20.111328 V 26 h 5.888672 A 5,5 0 0 1 20,30 5,5 0 0 1 15,25 5,5 0 0 1 19,20.111328 Z M 31,28 v 2 h 20 v -2 z m -18,9 v 2 h 38 v -2 z m 0,8 v 2 h 38 v -2 z" />
</svg>
