<?xml version="1.0" encoding="UTF-8" standalone="no"?>
<svg
   viewbox="0 0 200 200"
   version="1.1"
   id="svg4"
   sodipodi:docname="application-x-theme.svg"
   width="64"
   height="64"
   inkscape:version="1.1.1 (3bf5ae0d25, 2021-09-20, custom)"
   xmlns:inkscape="http://www.inkscape.org/namespaces/inkscape"
   xmlns:sodipodi="http://sodipodi.sourceforge.net/DTD/sodipodi-0.dtd"
   xmlns:xlink="http://www.w3.org/1999/xlink"
   xmlns="http://www.w3.org/2000/svg"
   xmlns:svg="http://www.w3.org/2000/svg">
  <defs
     id="defs8">
    <radialGradient
       inkscape:collect="always"
       xlink:href="#linearGradient11127"
       id="radialGradient11129"
       cx="-6.7739997"
       cy="37.021408"
       fx="-6.7739997"
       fy="37.021408"
       r="30"
       gradientTransform="matrix(0.61319227,-0.72062853,0.76960319,0.65486537,15.832085,34.165498)"
       gradientUnits="userSpaceOnUse" />
    <linearGradient
       inkscape:collect="always"
       id="linearGradient11127">
      <stop
         style="stop-color:#fae42f;stop-opacity:1"
         offset="0"
         id="stop11123" />
      <stop
         style="stop-color:#fae422;stop-opacity:0.94117647"
         offset="0.5"
         id="stop11195" />
      <stop
         style="stop-color:#fae42f;stop-opacity:0"
         offset="1"
         id="stop11125" />
    </linearGradient>
    <radialGradient
       inkscape:collect="always"
       xlink:href="#linearGradient6212"
       id="radialGradient6214"
       cx="32.31749"
       cy="35.957447"
       fx="32.31749"
       fy="35.957447"
       r="30"
       gradientUnits="userSpaceOnUse"
       gradientTransform="matrix(0.97347395,-1.1039003,0.67251718,0.59305885,-40.61149,73.319355)" />
    <linearGradient
       inkscape:collect="always"
       id="linearGradient6212">
      <stop
         style="stop-color:#ffb25a;stop-opacity:1"
         offset="0"
         id="stop6208" />
      <stop
         style="stop-color:#ffb25a;stop-opacity:0.50196081"
         offset="0.5"
         id="stop6536" />
      <stop
         style="stop-color:#ffb25a;stop-opacity:0"
         offset="1"
         id="stop6210" />
    </linearGradient>
    <radialGradient
       inkscape:collect="always"
       xlink:href="#linearGradient7945"
       id="radialGradient7947"
       cx="4.8273349"
       cy="29.936211"
       fx="4.8273349"
       fy="29.936211"
       r="30"
       gradientUnits="userSpaceOnUse"
       gradientTransform="matrix(-1.3507606,-1.5488561,1.1072914,-0.96567074,39.448149,70.932583)" />
    <linearGradient
       inkscape:collect="always"
       id="linearGradient7945">
      <stop
         style="stop-color:#32a9f4;stop-opacity:1;"
         offset="0"
         id="stop7941" />
      <stop
         style="stop-color:#32a9f4;stop-opacity:0.60000002"
         offset="0.5"
         id="stop8910" />
      <stop
         style="stop-color:#32a9f4;stop-opacity:0;"
         offset="1"
         id="stop7943" />
    </linearGradient>
    <radialGradient
       inkscape:collect="always"
       xlink:href="#linearGradient3695"
       id="radialGradient3697"
       cx="-1.4092577"
       cy="55.554527"
       fx="-1.4092577"
       fy="55.554527"
       r="30"
       gradientUnits="userSpaceOnUse"
       gradientTransform="matrix(-0.66463655,0.78591697,-1.0490369,-0.88715255,79.14937,51.350241)" />
    <linearGradient
       inkscape:collect="always"
       id="linearGradient3695">
      <stop
         style="stop-color:#be3ce9;stop-opacity:1"
         offset="0"
         id="stop3691" />
      <stop
         style="stop-color:#be3ce9;stop-opacity:0.50196081"
         offset="0.5"
         id="stop3955" />
      <stop
         style="stop-color:#be3ce9;stop-opacity:0"
         offset="1"
         id="stop3693" />
    </linearGradient>
  </defs>
  <sodipodi:namedview
     id="namedview6"
     pagecolor="#ffffff"
     bordercolor="#666666"
     borderopacity="1.0"
     inkscape:pageshadow="2"
     inkscape:pageopacity="0.0"
     inkscape:pagecheckerboard="0"
     showgrid="false"
     inkscape:zoom="9.2365823"
     inkscape:cx="46.878811"
     inkscape:cy="40.653565"
     inkscape:window-width="1920"
     inkscape:window-height="1000"
     inkscape:window-x="0"
     inkscape:window-y="0"
     inkscape:window-maximized="1"
     inkscape:current-layer="svg4"
     showguides="true" />
  <path
     d="M 2,32 C 2,10.4 10.4,2 32,2 53.6,2 62,10.4 62,32 62,53.6 53.6,62 32,62 10.4,62 2,53.6 2,32"
     id="path2"
     style="stroke-width:0.3;fill:#fafafa;fill-opacity:1;stroke:none" />
  <path
     id="path2-3"
     style="fill:#f5466a;fill-opacity:1;stroke-width:0.3"
     d="m 19,14.000004 c -1.108003,0 -2,0.891999 -2,2 v 20 c 0,1.108 0.53877,1.582507 2,2 l 7,2 c 3.251337,2.014738 -0.48354,7.202821 1,10 0.735696,1.186768 1.70068,2.975811 5,3 3.29932,-0.02419 4.264304,-1.813232 5,-3 1.48354,-2.797179 -2.251337,-7.985262 1,-10 l 7,-2 c 1.46123,-0.417494 2,-0.892 2,-2 v -4 h -2 v 3.5 c -3.41133,2.150155 -4.962781,1.254994 -8.5,3 -1.563704,0.859877 -2.363862,3.470612 -1.5,6 1.31066,3.837608 -0.549453,6.482405 -3,6.5 -2.38682,-0.02912 -4.31066,-2.662392 -3,-6.5 0.863862,-2.529388 0.0637,-5.140123 -1.5,-6 -3.537219,-1.745005 -5.08867,-0.849845 -8.5,-3 v -19.5 h 13 13 v 10 H 25 v 2 h 20 0.03516 A 1.9999999,2.0000003 0 0 0 47,26.03516 V 26 16 c 0,-1.108001 -0.891997,-2 -2,-2 H 32 Z" />
  <path
     id="rect10140"
     style="fill:url(#radialGradient11129);fill-opacity:1;stroke-linecap:round;stroke-linejoin:round"
     d="m 19,14.000004 c -1.108003,0 -2,0.891999 -2,2 v 20 c 0,1.108 0.53877,1.582507 2,2 l 7,2 c 3.251337,2.014738 -0.48354,7.202821 1,10 0.735696,1.186768 1.70068,2.975811 5,3 3.29932,-0.02419 4.264304,-1.813232 5,-3 1.48354,-2.797179 -2.251337,-7.985262 1,-10 l 7,-2 c 1.46123,-0.417494 2,-0.892 2,-2 v -4 h -2 v 3.5 c -3.41133,2.150155 -4.962781,1.254994 -8.5,3 -1.563704,0.859877 -2.363862,3.470612 -1.5,6 1.31066,3.837608 -0.549453,6.482405 -3,6.5 -2.38682,-0.02912 -4.31066,-2.662392 -3,-6.5 0.863862,-2.529388 0.0637,-5.140123 -1.5,-6 -3.537219,-1.745005 -5.08867,-0.849845 -8.5,-3 v -19.5 h 13 13 v 10 H 25 v 2 h 20 0.03516 A 1.9999999,2.0000003 0 0 0 47,26.03516 V 26 16 c 0,-1.108001 -0.891997,-2 -2,-2 H 32 Z" />
  <path
     id="rect5801"
     style="fill:url(#radialGradient6214);fill-opacity:1;stroke-linecap:round;stroke-linejoin:round"
     d="m 19,14.000004 c -1.108003,0 -2,0.891999 -2,2 v 20 c 0,1.108 0.53877,1.582507 2,2 l 7,2 c 3.251337,2.014738 -0.48354,7.202821 1,10 0.735696,1.186768 1.70068,2.975811 5,3 3.29932,-0.02419 4.264304,-1.813232 5,-3 1.48354,-2.797179 -2.251337,-7.985262 1,-10 l 7,-2 c 1.46123,-0.417494 2,-0.892 2,-2 v -4 h -2 v 3.5 c -3.41133,2.150155 -4.962781,1.254994 -8.5,3 -1.563704,0.859877 -2.363862,3.470612 -1.5,6 1.31066,3.837608 -0.549453,6.482405 -3,6.5 -2.38682,-0.02912 -4.31066,-2.662392 -3,-6.5 0.863862,-2.529388 0.0637,-5.140123 -1.5,-6 -3.537219,-1.745005 -5.08867,-0.849845 -8.5,-3 v -19.5 h 13 13 v 10 H 25 v 2 h 20 0.03516 A 1.9999999,2.0000003 0 0 0 47,26.03516 V 26 16 c 0,-1.108001 -0.891997,-2 -2,-2 H 32 Z" />
  <path
     id="rect7310"
     style="fill:url(#radialGradient7947);fill-opacity:1;stroke-linecap:round;stroke-linejoin:round"
     d="m 19,14.000004 c -1.108003,0 -2,0.891999 -2,2 v 20 c 0,1.108 0.53877,1.582507 2,2 l 7,2 c 3.251337,2.014738 -0.48354,7.202821 1,10 0.735696,1.186768 1.70068,2.975811 5,3 3.29932,-0.02419 4.264304,-1.813232 5,-3 1.48354,-2.797179 -2.251337,-7.985262 1,-10 l 7,-2 c 1.46123,-0.417494 2,-0.892 2,-2 v -4 h -2 v 3.5 c -3.41133,2.150155 -4.962781,1.254994 -8.5,3 -1.563704,0.859877 -2.363862,3.470612 -1.5,6 1.31066,3.837608 -0.549453,6.482405 -3,6.5 -2.38682,-0.02912 -4.31066,-2.662392 -3,-6.5 0.863862,-2.529388 0.0637,-5.140123 -1.5,-6 -3.537219,-1.745005 -5.08867,-0.849845 -8.5,-3 v -19.5 h 13 13 v 10 H 25 v 2 h 20 0.03516 A 1.9999999,2.0000003 0 0 0 47,26.03516 V 26 16 c 0,-1.108001 -0.891997,-2 -2,-2 H 32 Z" />
  <path
     id="rect3608"
     style="fill:url(#radialGradient3697);fill-opacity:1;stroke-linecap:round;stroke-linejoin:round"
     d="m 19,14.000004 c -1.108003,0 -2,0.891999 -2,2 v 20 c 0,1.108 0.53877,1.582507 2,2 l 7,2 c 3.251337,2.014738 -0.48354,7.202821 1,10 0.735696,1.186768 1.70068,2.975811 5,3 3.29932,-0.02419 4.264304,-1.813232 5,-3 1.48354,-2.797179 -2.251337,-7.985262 1,-10 l 7,-2 c 1.46123,-0.417494 2,-0.892 2,-2 v -4 h -2 v 3.5 c -3.41133,2.150155 -4.962781,1.254994 -8.5,3 -1.563704,0.859877 -2.363862,3.470612 -1.5,6 1.31066,3.837608 -0.549453,6.482405 -3,6.5 -2.38682,-0.02912 -4.31066,-2.662392 -3,-6.5 0.863862,-2.529388 0.0637,-5.140123 -1.5,-6 -3.537219,-1.745005 -5.08867,-0.849845 -8.5,-3 v -19.5 h 13 13 v 10 H 25 v 2 h 20 0.03516 A 1.9999999,2.0000003 0 0 0 47,26.03516 V 26 16 c 0,-1.108001 -0.891997,-2 -2,-2 H 32 Z" />
</svg>
