<?xml version="1.0" encoding="UTF-8" standalone="no"?>
<svg
   viewbox="0 0 200 200"
   version="1.1"
   id="svg4"
   sodipodi:docname="user-trash.svg"
   width="64"
   height="64"
   inkscape:version="1.1.1 (3bf5ae0d25, 2021-09-20, custom)"
   xmlns:inkscape="http://www.inkscape.org/namespaces/inkscape"
   xmlns:sodipodi="http://sodipodi.sourceforge.net/DTD/sodipodi-0.dtd"
   xmlns="http://www.w3.org/2000/svg"
   xmlns:svg="http://www.w3.org/2000/svg">
  <defs
     id="defs8" />
  <sodipodi:namedview
     id="namedview6"
     pagecolor="#ffffff"
     bordercolor="#666666"
     borderopacity="1.0"
     inkscape:pageshadow="2"
     inkscape:pageopacity="0.0"
     inkscape:pagecheckerboard="0"
     showgrid="false"
     inkscape:zoom="12.078125"
     inkscape:cx="31.958603"
     inkscape:cy="32"
     inkscape:window-width="1920"
     inkscape:window-height="996"
     inkscape:window-x="0"
     inkscape:window-y="0"
     inkscape:window-maximized="1"
     inkscape:current-layer="svg4"
     showguides="false" />
  <path
     d="M 2,32 C 2,10.4 10.4,2 32,2 53.6,2 62,10.4 62,32 62,53.6 53.6,62 32,62 10.4,62 2,53.6 2,32"
     id="path2"
     style="stroke-width:0.3;fill:#5ea8b7;fill-opacity:1" />
  <path
     id="rect2608"
     style="fill:#ffffff;fill-opacity:1;stroke-width:3.8873;stroke-linejoin:round"
     d="M 26 12 C 24.892 12 24 12.892 24 14 L 24 18 L 15 18 L 15 20 L 17 20 L 20.78125 50.248047 C 20.906422 51.248801 21.757073 51.999818 22.765625 52 L 41.234375 52 C 42.242927 51.999818 43.093578 51.248801 43.21875 50.248047 L 47 20 L 49 20 L 49 18 L 40 18 L 40 14 C 40 12.892 39.108 12 38 12 L 26 12 z M 26 14 L 38 14 L 38 18 L 26 18 L 26 14 z M 19.132812 20 L 44.984375 20 L 41.34375 49.125 C 41.280712 49.624989 40.855508 49.999971 40.351562 50 L 23.765625 50 C 23.261677 49.999971 22.836476 49.62499 22.773438 49.125 L 19.132812 20 z M 25 24 L 25 46 L 27 46 L 27 24 L 25 24 z M 31 24 L 31 46 L 33 46 L 33 24 L 31 24 z M 37 24 L 37 46 L 39 46 L 39 24 L 37 24 z " />
</svg>
