<?xml version="1.0" encoding="UTF-8" standalone="no"?>
<svg
   viewbox="0 0 200 200"
   version="1.1"
   id="svg4"
   sodipodi:docname="text-x-perl.svg"
   width="64"
   height="64"
   inkscape:version="1.1.1 (3bf5ae0d25, 2021-09-20, custom)"
   xmlns:inkscape="http://www.inkscape.org/namespaces/inkscape"
   xmlns:sodipodi="http://sodipodi.sourceforge.net/DTD/sodipodi-0.dtd"
   xmlns="http://www.w3.org/2000/svg"
   xmlns:svg="http://www.w3.org/2000/svg">
  <defs
     id="defs8" />
  <sodipodi:namedview
     id="namedview6"
     pagecolor="#ffffff"
     bordercolor="#666666"
     borderopacity="1.0"
     inkscape:pageshadow="2"
     inkscape:pageopacity="0.0"
     inkscape:pagecheckerboard="0"
     showgrid="false"
     inkscape:zoom="6.53125"
     inkscape:cx="43.023923"
     inkscape:cy="32.995215"
     inkscape:window-width="1920"
     inkscape:window-height="996"
     inkscape:window-x="0"
     inkscape:window-y="0"
     inkscape:window-maximized="1"
     inkscape:current-layer="svg4"
     showguides="true" />
  <path
     d="M 2,32 C 2,10.4 10.4,2 32,2 53.6,2 62,10.4 62,32 62,53.6 53.6,62 32,62 10.4,62 2,53.6 2,32"
     id="path2"
     style="stroke-width:0.3;fill:#fafafa;fill-opacity:1;stroke:none" />
  <path
     id="rect844"
     style="fill:#507ba7;stroke-width:2;stroke-linejoin:round;fill-opacity:1"
     d="M 15 26 L 15 37 L 16.664062 37 L 16.664062 32.824219 L 17.849609 32.824219 C 18.938315 32.824219 19.800711 32.660697 20.4375 32.332031 C 21.074289 31.993095 21.527881 31.555566 21.794922 31.021484 C 22.072233 30.487403 22.210938 29.913124 22.210938 29.296875 C 22.210938 28.259524 21.881941 27.454071 21.224609 26.878906 C 20.567278 26.293471 19.519943 26 18.082031 26 L 15 26 z M 24.427734 26 L 24.427734 37 L 30.621094 37 L 30.621094 35.566406 L 26.091797 35.566406 L 26.091797 31.962891 L 30.34375 31.962891 L 30.34375 30.560547 L 26.091797 30.560547 L 26.091797 27.417969 L 30.621094 27.417969 L 30.621094 26 L 24.427734 26 z M 33.009766 26 L 33.009766 37 L 34.673828 37 L 34.673828 32.546875 L 36.583984 32.546875 L 39.234375 37 L 41.144531 37 L 38.0625 32.117188 C 38.421978 31.973396 38.767038 31.783103 39.095703 31.546875 C 39.424368 31.300376 39.691068 30.987441 39.896484 30.607422 C 40.112172 30.217131 40.220703 29.738722 40.220703 29.173828 C 40.220703 28.105665 39.880998 27.308967 39.203125 26.785156 C 38.535523 26.261346 37.498896 26 36.091797 26 L 33.009766 26 z M 42.761719 26 L 42.761719 37 L 49.125 37 L 49.125 35.566406 L 44.425781 35.566406 L 44.425781 26 L 42.761719 26 z M 16.664062 27.402344 L 17.957031 27.402344 C 18.830049 27.402344 19.471981 27.565866 19.882812 27.894531 C 20.293644 28.212926 20.5 28.702044 20.5 29.359375 C 20.5 30.098873 20.258119 30.626919 19.775391 30.945312 C 19.302934 31.263707 18.600658 31.423828 17.666016 31.423828 L 16.664062 31.423828 L 16.664062 27.402344 z M 34.673828 27.417969 L 35.982422 27.417969 C 36.845169 27.417969 37.483699 27.556673 37.894531 27.833984 C 38.305363 28.111296 38.509766 28.577044 38.509766 29.234375 C 38.509766 29.871164 38.314118 30.354928 37.923828 30.683594 C 37.533537 31.001988 36.913023 31.160156 36.060547 31.160156 L 34.673828 31.160156 L 34.673828 27.417969 z " />
</svg>
