<?xml version="1.0" encoding="UTF-8" standalone="no"?>
<svg
   viewbox="0 0 200 200"
   version="1.1"
   id="svg4"
   sodipodi:docname="application-x-zstd-compressed-tar.svg"
   width="64"
   height="64"
   inkscape:version="1.1.1 (3bf5ae0d25, 2021-09-20, custom)"
   xmlns:inkscape="http://www.inkscape.org/namespaces/inkscape"
   xmlns:sodipodi="http://sodipodi.sourceforge.net/DTD/sodipodi-0.dtd"
   xmlns="http://www.w3.org/2000/svg"
   xmlns:svg="http://www.w3.org/2000/svg">
  <defs
     id="defs8" />
  <sodipodi:namedview
     id="namedview6"
     pagecolor="#ffffff"
     bordercolor="#666666"
     borderopacity="1.0"
     inkscape:pageshadow="2"
     inkscape:pageopacity="0.0"
     inkscape:pagecheckerboard="0"
     showgrid="false"
     inkscape:zoom="4.6182912"
     inkscape:cx="9.3108031"
     inkscape:cy="27.391084"
     inkscape:window-width="1920"
     inkscape:window-height="996"
     inkscape:window-x="0"
     inkscape:window-y="0"
     inkscape:window-maximized="1"
     inkscape:current-layer="svg4"
     showguides="true" />
  <path
     d="M 2,32 C 2,10.4 10.4,2 32,2 53.6,2 62,10.4 62,32 62,53.6 53.6,62 32,62 10.4,62 2,53.6 2,32"
     id="path2"
     style="stroke-width:0.3;fill:#1793d1;fill-opacity:1;stroke:none" />
  <path
     id="rect844"
     style="fill:#ffffff;stroke-width:2;stroke-linejoin:round"
     d="M 33.933594 27 C 32.900174 27 32.065638 27.249257 31.429688 27.746094 C 30.793737 28.242931 30.476562 28.928301 30.476562 29.802734 C 30.476562 30.379064 30.589814 30.866203 30.818359 31.263672 C 31.046904 31.661141 31.360344 31.993428 31.757812 32.261719 C 32.165219 32.530011 32.631556 32.764156 33.158203 32.962891 C 33.724597 33.191436 34.183464 33.399093 34.53125 33.587891 C 34.879035 33.776689 35.132028 33.986299 35.291016 34.214844 C 35.45994 34.433453 35.544922 34.705291 35.544922 35.033203 C 35.544922 35.50023 35.365534 35.874116 35.007812 36.152344 C 34.65009 36.430573 34.113883 36.568359 33.398438 36.568359 C 32.84198 36.568359 32.294396 36.49849 31.757812 36.359375 C 31.221229 36.210324 30.754891 36.048002 30.357422 35.869141 L 30.357422 37.388672 C 30.715144 37.567533 31.147523 37.701586 31.654297 37.791016 C 32.171007 37.890386 32.716639 37.939453 33.292969 37.939453 C 34.485377 37.939453 35.42374 37.671349 36.109375 37.134766 C 36.795009 36.598183 37.138672 35.858052 37.138672 34.914062 C 37.138672 34.357605 37.029155 33.896956 36.810547 33.529297 C 36.591939 33.151701 36.269077 32.832574 35.841797 32.574219 C 35.424454 32.305928 34.91847 32.052935 34.322266 31.814453 C 33.785683 31.595845 33.353303 31.397612 33.025391 31.21875 C 32.697479 31.03989 32.457645 30.839703 32.308594 30.621094 C 32.159543 30.392549 32.085938 30.115021 32.085938 29.787109 C 32.085938 29.369766 32.240789 29.031792 32.548828 28.773438 C 32.856867 28.515082 33.302404 28.386719 33.888672 28.386719 C 34.335825 28.386719 34.768204 28.441478 35.185547 28.550781 C 35.612826 28.660085 36.030094 28.797873 36.4375 28.966797 L 36.945312 27.640625 C 36.498159 27.441891 36.026133 27.288992 35.529297 27.179688 C 35.042397 27.060447 34.509924 27 33.933594 27 z M 21.726562 27.148438 L 21.726562 28.535156 L 27.017578 28.535156 L 21.5625 36.642578 L 21.5625 37.791016 L 29.089844 37.791016 L 29.089844 36.404297 L 23.5 36.404297 L 28.955078 28.296875 L 28.955078 27.148438 L 21.726562 27.148438 z M 38.003906 27.148438 L 38.003906 28.535156 L 41.193359 28.535156 L 41.193359 37.791016 L 42.802734 37.791016 L 42.802734 28.535156 L 45.992188 28.535156 L 45.992188 27.148438 L 38.003906 27.148438 z M 19.013672 35.853516 C 18.725506 35.853516 18.481938 35.932806 18.283203 36.091797 C 18.094405 36.250785 18 36.524576 18 36.912109 C 18 37.299641 18.0944 37.577169 18.283203 37.746094 C 18.481938 37.915019 18.725506 38 19.013672 38 C 19.2919 38 19.531734 37.91502 19.730469 37.746094 C 19.93914 37.577169 20.042968 37.299641 20.042969 36.912109 C 20.042968 36.524576 19.93914 36.250785 19.730469 36.091797 C 19.531734 35.932809 19.2919 35.853516 19.013672 35.853516 z " />
</svg>
