<?xml version="1.0" encoding="UTF-8" standalone="no"?>
<svg
   viewbox="0 0 200 200"
   version="1.1"
   id="svg4"
   sodipodi:docname="text-x-php.svg"
   width="64"
   height="64"
   inkscape:version="1.1.1 (3bf5ae0d25, 2021-09-20, custom)"
   xmlns:inkscape="http://www.inkscape.org/namespaces/inkscape"
   xmlns:sodipodi="http://sodipodi.sourceforge.net/DTD/sodipodi-0.dtd"
   xmlns="http://www.w3.org/2000/svg"
   xmlns:svg="http://www.w3.org/2000/svg">
  <defs
     id="defs8" />
  <sodipodi:namedview
     id="namedview6"
     pagecolor="#ffffff"
     bordercolor="#666666"
     borderopacity="1.0"
     inkscape:pageshadow="2"
     inkscape:pageopacity="0.0"
     inkscape:pagecheckerboard="0"
     showgrid="false"
     inkscape:zoom="9.2365823"
     inkscape:cx="50.126766"
     inkscape:cy="40.653565"
     inkscape:window-width="1920"
     inkscape:window-height="1000"
     inkscape:window-x="0"
     inkscape:window-y="0"
     inkscape:window-maximized="1"
     inkscape:current-layer="svg4"
     showguides="true" />
  <path
     d="M 2,32 C 2,10.4 10.4,2 32,2 53.6,2 62,10.4 62,32 62,53.6 53.6,62 32,62 10.4,62 2,53.6 2,32"
     id="path2"
     style="stroke-width:0.3;fill:#fafafa;fill-opacity:1;stroke:none" />
  <path
     id="rect10602"
     style="fill:#44a3dc;fill-opacity:1;stroke-width:2;stroke-linecap:round;stroke-linejoin:round"
     d="M 18 27 L 18 38 L 19.664062 38 L 19.664062 33.824219 L 20.849609 33.824219 C 21.938315 33.824219 22.800711 33.660697 23.4375 33.332031 C 24.074289 32.993095 24.527881 32.555566 24.794922 32.021484 C 25.072233 31.487403 25.210938 30.913124 25.210938 30.296875 C 25.210937 29.259524 24.881941 28.454071 24.224609 27.878906 C 23.567278 27.293471 22.519943 27 21.082031 27 L 18 27 z M 27.427734 27 L 27.427734 38 L 29.091797 38 L 29.091797 32.978516 L 34.345703 32.978516 L 34.345703 38 L 36.009766 38 L 36.009766 27 L 34.345703 27 L 34.345703 31.560547 L 29.091797 31.560547 L 29.091797 27 L 27.427734 27 z M 38.953125 27 L 38.953125 38 L 40.617188 38 L 40.617188 33.824219 L 41.802734 33.824219 C 42.891439 33.824219 43.753835 33.660697 44.390625 33.332031 C 45.027414 32.993095 45.479053 32.555566 45.746094 32.021484 C 46.023406 31.487403 46.162109 30.913124 46.162109 30.296875 C 46.162109 29.259524 45.833113 28.454071 45.175781 27.878906 C 44.51845 27.293471 43.471115 27 42.033203 27 L 38.953125 27 z M 19.664062 28.402344 L 20.957031 28.402344 C 21.830049 28.402344 22.471981 28.565866 22.882812 28.894531 C 23.293644 29.212926 23.5 29.702044 23.5 30.359375 C 23.5 31.098873 23.258119 31.626919 22.775391 31.945312 C 22.302934 32.263707 21.600658 32.423828 20.666016 32.423828 L 19.664062 32.423828 L 19.664062 28.402344 z M 40.617188 28.402344 L 41.910156 28.402344 C 42.783174 28.402344 43.425105 28.565866 43.835938 28.894531 C 44.246769 29.212926 44.453125 29.702044 44.453125 30.359375 C 44.453125 31.098873 44.211244 31.626919 43.728516 31.945312 C 43.256059 32.263707 42.55183 32.423828 41.617188 32.423828 L 40.617188 32.423828 L 40.617188 28.402344 z " />
</svg>
