<?xml version="1.0" encoding="UTF-8" standalone="no"?>
<svg
   viewbox="0 0 200 200"
   version="1.1"
   id="svg4"
   sodipodi:docname="text-html.svg"
   width="64"
   height="64"
   inkscape:version="1.1.1 (3bf5ae0d25, 2021-09-20, custom)"
   xmlns:inkscape="http://www.inkscape.org/namespaces/inkscape"
   xmlns:sodipodi="http://sodipodi.sourceforge.net/DTD/sodipodi-0.dtd"
   xmlns="http://www.w3.org/2000/svg"
   xmlns:svg="http://www.w3.org/2000/svg">
  <defs
     id="defs8" />
  <sodipodi:namedview
     id="namedview6"
     pagecolor="#ffffff"
     bordercolor="#666666"
     borderopacity="1.0"
     inkscape:pageshadow="2"
     inkscape:pageopacity="0.0"
     inkscape:pagecheckerboard="0"
     showgrid="false"
     inkscape:zoom="9.2365823"
     inkscape:cx="41.790349"
     inkscape:cy="40.653565"
     inkscape:window-width="1920"
     inkscape:window-height="1000"
     inkscape:window-x="0"
     inkscape:window-y="0"
     inkscape:window-maximized="1"
     inkscape:current-layer="svg4"
     showguides="true" />
  <path
     d="M 2,32 C 2,10.4 10.4,2 32,2 53.6,2 62,10.4 62,32 62,53.6 53.6,62 32,62 10.4,62 2,53.6 2,32"
     id="path2"
     style="stroke-width:0.3;fill:#fafafa;fill-opacity:1;stroke:none" />
  <path
     id="rect844"
     style="fill:#2272b9;stroke-width:2;stroke-linecap:round;stroke-linejoin:round;fill-opacity:1"
     d="M 12 27 L 12 37.810547 L 13.634766 37.810547 L 13.634766 32.875 L 18.798828 32.875 L 18.798828 37.810547 L 20.433594 37.810547 L 20.433594 27 L 18.798828 27 L 18.798828 31.482422 L 13.634766 31.482422 L 13.634766 27 L 12 27 z M 22.083984 27 L 22.083984 28.408203 L 25.324219 28.408203 L 25.324219 37.810547 L 26.958984 37.810547 L 26.958984 28.408203 L 30.199219 28.408203 L 30.199219 27 L 22.083984 27 z M 31.849609 27 L 31.849609 37.810547 L 33.332031 37.810547 L 33.332031 31.708984 C 33.332031 31.325435 33.3265 30.936611 33.316406 30.542969 C 33.306313 30.149326 33.291671 29.786207 33.271484 29.453125 C 33.251298 29.10995 33.236657 28.831103 33.226562 28.619141 L 33.287109 28.619141 L 36.556641 37.810547 L 37.964844 37.810547 L 41.326172 28.634766 L 41.386719 28.634766 C 41.376625 28.85682 41.361984 29.135668 41.341797 29.46875 C 41.331704 29.801832 41.317062 30.159419 41.296875 30.542969 C 41.286782 30.916425 41.28125 31.274011 41.28125 31.617188 L 41.28125 37.810547 L 42.871094 37.810547 L 42.871094 27 L 40.539062 27 L 37.34375 35.675781 L 37.283203 35.675781 L 34.179688 27 L 31.849609 27 z M 45.748047 27 L 45.748047 37.810547 L 52 37.810547 L 52 36.402344 L 47.382812 36.402344 L 47.382812 27 L 45.748047 27 z " />
</svg>
