<?xml version="1.0" encoding="UTF-8" standalone="no"?>
<svg
   viewbox="0 0 200 200"
   version="1.1"
   id="svg4"
   sodipodi:docname="text-x-rpm-spec.svg"
   width="64"
   height="64"
   inkscape:version="1.1.1 (3bf5ae0d25, 2021-09-20, custom)"
   xmlns:inkscape="http://www.inkscape.org/namespaces/inkscape"
   xmlns:sodipodi="http://sodipodi.sourceforge.net/DTD/sodipodi-0.dtd"
   xmlns="http://www.w3.org/2000/svg"
   xmlns:svg="http://www.w3.org/2000/svg">
  <defs
     id="defs8" />
  <sodipodi:namedview
     id="namedview6"
     pagecolor="#ffffff"
     bordercolor="#666666"
     borderopacity="1.0"
     inkscape:pageshadow="2"
     inkscape:pageopacity="0.0"
     inkscape:pagecheckerboard="0"
     showgrid="false"
     inkscape:zoom="13.0625"
     inkscape:cx="29.779904"
     inkscape:cy="46.583732"
     inkscape:window-width="1920"
     inkscape:window-height="996"
     inkscape:window-x="0"
     inkscape:window-y="0"
     inkscape:window-maximized="1"
     inkscape:current-layer="svg4"
     showguides="true" />
  <path
     d="M 2,32 C 2,10.4 10.4,2 32,2 53.6,2 62,10.4 62,32 62,53.6 53.6,62 32,62 10.4,62 2,53.6 2,32"
     id="path2"
     style="stroke-width:0.3;fill:#fafafa;fill-opacity:1;stroke:none" />
  <path
     id="rect6514"
     style="fill:#eb4c27;stroke-width:2;stroke-linejoin:round;fill-opacity:1"
     d="M 18.597656 27 C 17.558599 27 16.717544 27.250453 16.078125 27.75 C 15.438705 28.249546 15.119141 28.939157 15.119141 29.818359 C 15.119141 30.397833 15.235052 30.885519 15.464844 31.285156 C 15.694636 31.684794 16.008566 32.02126 16.408203 32.291016 C 16.817831 32.56077 17.28884 32.794322 17.818359 32.994141 C 18.387843 33.223933 18.84563 33.43322 19.195312 33.623047 C 19.544995 33.812875 19.801082 34.024115 19.960938 34.253906 C 20.130783 34.473707 20.214844 34.748424 20.214844 35.078125 C 20.214844 35.547699 20.035455 35.921426 19.675781 36.201172 C 19.316107 36.480918 18.775988 36.621094 18.056641 36.621094 C 17.497149 36.621094 16.947713 36.551982 16.408203 36.412109 C 15.868692 36.262245 15.399637 36.095853 15 35.916016 L 15 37.445312 C 15.359673 37.625149 15.795149 37.759691 16.304688 37.849609 C 16.824216 37.949519 17.373651 38 17.953125 38 C 19.152037 38 20.095782 37.730917 20.785156 37.191406 C 21.474531 36.651896 21.818359 35.90617 21.818359 34.957031 C 21.818359 34.397539 21.708082 33.934117 21.488281 33.564453 C 21.268481 33.184797 20.945235 32.865233 20.515625 32.605469 C 20.096006 32.335713 19.585784 32.079626 18.986328 31.839844 C 18.446818 31.620043 18.011342 31.420071 17.681641 31.240234 C 17.35194 31.060397 17.112755 30.862378 16.962891 30.642578 C 16.813027 30.412786 16.738281 30.132435 16.738281 29.802734 C 16.738281 29.383115 16.893406 29.042967 17.203125 28.783203 C 17.512844 28.523439 17.963269 28.394531 18.552734 28.394531 C 19.002326 28.394531 19.43585 28.448694 19.855469 28.558594 C 20.285079 28.668494 20.705606 28.80867 21.115234 28.978516 L 21.623047 27.644531 C 21.173455 27.444713 20.700719 27.289587 20.201172 27.179688 C 19.711616 27.059797 19.17713 27 18.597656 27 z M 46.021484 27 C 44.922482 27 43.993686 27.235505 43.234375 27.705078 C 42.475064 28.164661 41.895731 28.807471 41.496094 29.636719 C 41.106447 30.465966 40.912109 31.420979 40.912109 32.5 C 40.912109 33.608994 41.091499 34.578956 41.451172 35.408203 C 41.810846 36.22746 42.350966 36.866589 43.070312 37.326172 C 43.789659 37.775764 44.697872 38 45.796875 38 C 46.38634 38 46.896562 37.960787 47.326172 37.880859 C 47.765773 37.810923 48.195616 37.695012 48.615234 37.535156 L 48.615234 36.142578 C 48.175634 36.282451 47.740157 36.396409 47.310547 36.486328 C 46.890928 36.566255 46.451771 36.605469 45.992188 36.605469 C 44.853222 36.605469 44.002851 36.241057 43.443359 35.511719 C 42.883867 34.78238 42.605469 33.784473 42.605469 32.515625 C 42.605469 31.236785 42.90445 30.231291 43.503906 29.501953 C 44.103362 28.762624 44.936829 28.394531 46.005859 28.394531 C 46.455451 28.394531 46.881613 28.458009 47.28125 28.587891 C 47.690878 28.707782 48.070239 28.847959 48.419922 29.007812 L 49.019531 27.660156 C 48.589921 27.450347 48.115232 27.289587 47.595703 27.179688 C 47.086166 27.059797 46.560995 27 46.021484 27 z M 23.916016 27.150391 L 23.916016 37.849609 L 25.535156 37.849609 L 25.535156 33.789062 L 26.689453 33.789062 C 27.748492 33.789062 28.587593 33.628304 29.207031 33.308594 C 29.826469 32.978893 30.265627 32.554685 30.525391 32.035156 C 30.795146 31.515628 30.929687 30.956878 30.929688 30.357422 C 30.929688 29.348338 30.610123 28.563399 29.970703 28.003906 C 29.331284 27.434424 28.312794 27.150391 26.914062 27.150391 L 23.916016 27.150391 z M 33.087891 27.150391 L 33.087891 37.849609 L 39.113281 37.849609 L 39.113281 36.457031 L 34.707031 36.457031 L 34.707031 32.949219 L 38.84375 32.949219 L 38.84375 31.585938 L 34.707031 31.585938 L 34.707031 28.529297 L 39.113281 28.529297 L 39.113281 27.150391 L 33.087891 27.150391 z M 25.535156 28.513672 L 26.794922 28.513672 C 27.644151 28.513672 28.268331 28.674431 28.667969 28.994141 C 29.067606 29.303859 29.267578 29.776596 29.267578 30.416016 C 29.267578 31.135362 29.032074 31.651218 28.5625 31.960938 C 28.102917 32.270656 27.41894 32.425781 26.509766 32.425781 L 25.535156 32.425781 L 25.535156 28.513672 z " />
</svg>
