<?xml version="1.0" encoding="UTF-8" standalone="no"?>
<svg
   viewbox="0 0 200 200"
   version="1.1"
   id="svg4"
   sodipodi:docname="video-x-generic.svg"
   width="64"
   height="64"
   inkscape:version="1.1.1 (3bf5ae0d25, 2021-09-20, custom)"
   xmlns:inkscape="http://www.inkscape.org/namespaces/inkscape"
   xmlns:sodipodi="http://sodipodi.sourceforge.net/DTD/sodipodi-0.dtd"
   xmlns="http://www.w3.org/2000/svg"
   xmlns:svg="http://www.w3.org/2000/svg">
  <defs
     id="defs8" />
  <sodipodi:namedview
     id="namedview6"
     pagecolor="#ffffff"
     bordercolor="#666666"
     borderopacity="1.0"
     inkscape:pageshadow="2"
     inkscape:pageopacity="0.0"
     inkscape:pagecheckerboard="0"
     showgrid="false"
     inkscape:zoom="11.313708"
     inkscape:cx="31.819807"
     inkscape:cy="37.432467"
     inkscape:window-width="1920"
     inkscape:window-height="1000"
     inkscape:window-x="0"
     inkscape:window-y="0"
     inkscape:window-maximized="1"
     inkscape:current-layer="svg4"
     showguides="false" />
  <path
     d="M 2,32 C 2,10.4 10.4,2 32,2 53.6,2 62,10.4 62,32 62,53.6 53.6,62 32,62 10.4,62 2,53.6 2,32"
     id="path2"
     style="stroke-width:0.3;fill:#9a80ff;fill-opacity:1" />
  <path
     id="rect843"
     style="fill:#ffffff;stroke:none;stroke-width:4;stroke-linecap:round;stroke-linejoin:round"
     d="M 15 13 C 13.892 13 13 13.892 13 15 L 13 51 L 15 51 L 15 15 L 51 15 L 51 13 L 15 13 z M 49 18 L 49 46 C 49 47.662 47.662 49 46 49 L 18.5 49 L 18.5 51 L 46 51 C 48.77 51 51 48.77 51 46 L 51 18 L 49 18 z M 20.5 21 C 19.671573 21 19 21.671573 19 22.5 C 19 23.328427 19.671573 24 20.5 24 C 21.328427 24 22 23.328427 22 22.5 C 22 21.671573 21.328427 21 20.5 21 z M 43.5 21 C 42.671573 21 42 21.671573 42 22.5 C 42 23.328427 42.671573 24 43.5 24 C 44.328427 24 45 23.328427 45 22.5 C 45 21.671573 44.328427 21 43.5 21 z M 27.867188 25.009766 A 1.0001 1.0001 0 0 0 27.527344 25.119141 A 1.0001 1.0001 0 0 0 27 26 L 27 38 A 1.0001 1.0001 0 0 0 28.554688 38.832031 L 37.554688 32.832031 A 1.0001 1.0001 0 0 0 37.554688 31.167969 L 28.554688 25.167969 A 1.0001 1.0001 0 0 0 27.867188 25.009766 z M 20.5 27.5 C 19.671573 27.5 19 28.171573 19 29 C 19 29.828427 19.671573 30.5 20.5 30.5 C 21.328427 30.5 22 29.828427 22 29 C 22 28.171573 21.328427 27.5 20.5 27.5 z M 43.5 27.5 C 42.671573 27.5 42 28.171573 42 29 C 42 29.828427 42.671573 30.5 43.5 30.5 C 44.328427 30.5 45 29.828427 45 29 C 45 28.171573 44.328427 27.5 43.5 27.5 z M 29 27.869141 L 35.197266 32 L 29 36.130859 L 29 27.869141 z M 20.5 33.5 C 19.671573 33.5 19 34.171573 19 35 C 19 35.828427 19.671573 36.5 20.5 36.5 C 21.328427 36.5 22 35.828427 22 35 C 22 34.171573 21.328427 33.5 20.5 33.5 z M 43.5 33.5 C 42.671573 33.5 42 34.171573 42 35 C 42 35.828427 42.671573 36.5 43.5 36.5 C 44.328427 36.5 45 35.828427 45 35 C 45 34.171573 44.328427 33.5 43.5 33.5 z M 20.5 40 C 19.671573 40 19 40.671573 19 41.5 C 19 42.328427 19.671573 43 20.5 43 C 21.328427 43 22 42.328427 22 41.5 C 22 40.671573 21.328427 40 20.5 40 z M 43.5 40 C 42.671573 40 42 40.671573 42 41.5 C 42 42.328427 42.671573 43 43.5 43 C 44.328427 43 45 42.328427 45 41.5 C 45 40.671573 44.328427 40 43.5 40 z " />
</svg>
