<?xml version="1.0" encoding="UTF-8" standalone="no"?>
<svg
   viewbox="0 0 200 200"
   version="1.1"
   id="svg4"
   sodipodi:docname="application-vnd.sun.xml.impress.svg"
   width="64"
   height="64"
   inkscape:version="1.1.1 (3bf5ae0d25, 2021-09-20, custom)"
   xmlns:inkscape="http://www.inkscape.org/namespaces/inkscape"
   xmlns:sodipodi="http://sodipodi.sourceforge.net/DTD/sodipodi-0.dtd"
   xmlns="http://www.w3.org/2000/svg"
   xmlns:svg="http://www.w3.org/2000/svg">
  <defs
     id="defs8" />
  <sodipodi:namedview
     id="namedview6"
     pagecolor="#ffffff"
     bordercolor="#666666"
     borderopacity="1.0"
     inkscape:pageshadow="2"
     inkscape:pageopacity="0.0"
     inkscape:pagecheckerboard="0"
     showgrid="false"
     inkscape:zoom="8"
     inkscape:cx="19.75"
     inkscape:cy="31.6875"
     inkscape:window-width="1920"
     inkscape:window-height="1007"
     inkscape:window-x="0"
     inkscape:window-y="0"
     inkscape:window-maximized="1"
     inkscape:current-layer="svg4"
     showguides="true" />
  <path
     d="M 2,32 C 2,10.4 10.4,2 32,2 53.6,2 62,10.4 62,32 62,53.6 53.6,62 32,62 10.4,62 2,53.6 2,32"
     id="path2"
     style="stroke-width:0.3;fill:#f98424;fill-opacity:1;stroke:none" />
  <path
     id="rect1189"
     style="fill:#ffffff;stroke-width:2.23607;stroke-linecap:square;stroke-linejoin:round"
     d="M 20 18 A 7 7 0 0 0 13 25 A 7 7 0 0 0 20 32 A 7 7 0 0 0 27 25 A 7 7 0 0 0 26.927734 24 L 25 24 L 24.896484 24 L 21 24 L 21 20.103516 L 21 20 L 21 18.072266 A 7 7 0 0 0 20 18 z M 31 19 L 31 21 L 51 21 L 51 19 L 31 19 z M 19 20.111328 L 19 26 L 24.888672 26 A 5 5 0 0 1 20 30 A 5 5 0 0 1 15 25 A 5 5 0 0 1 19 20.111328 z M 31 28 L 31 30 L 51 30 L 51 28 L 31 28 z M 13 37 L 13 39 L 51 39 L 51 37 L 13 37 z M 13 45 L 13 47 L 51 47 L 51 45 L 13 45 z " />
</svg>
