<?xml version="1.0" encoding="UTF-8" standalone="no"?>
<svg
   viewbox="0 0 200 200"
   version="1.1"
   id="svg4"
   sodipodi:docname="contacts.svg"
   width="64"
   height="64"
   inkscape:version="1.1.1 (3bf5ae0d25, 2021-09-20, custom)"
   xmlns:inkscape="http://www.inkscape.org/namespaces/inkscape"
   xmlns:sodipodi="http://sodipodi.sourceforge.net/DTD/sodipodi-0.dtd"
   xmlns="http://www.w3.org/2000/svg"
   xmlns:svg="http://www.w3.org/2000/svg">
  <defs
     id="defs8" />
  <sodipodi:namedview
     id="namedview6"
     pagecolor="#ffffff"
     bordercolor="#666666"
     borderopacity="1.0"
     inkscape:pageshadow="2"
     inkscape:pageopacity="0.0"
     inkscape:pagecheckerboard="0"
     showgrid="false"
     inkscape:zoom="1"
     inkscape:cx="31"
     inkscape:cy="33.5"
     inkscape:window-width="1920"
     inkscape:window-height="1000"
     inkscape:window-x="0"
     inkscape:window-y="0"
     inkscape:window-maximized="1"
     inkscape:current-layer="svg4"
     showguides="false" />
  <path
     d="M 2,32 C 2,10.4 10.4,2 32,2 53.6,2 62,10.4 62,32 62,53.6 53.6,62 32,62 10.4,62 2,53.6 2,32"
     id="path2"
     style="stroke-width:0.3;fill:#ff9e00;fill-opacity:1" />
  <path
     id="path870"
     style="fill:#ffffff;stroke-width:2.08167;stroke-linecap:round;stroke-linejoin:round"
     d="M 33,12 C 27.647396,12.03454 19.351687,15.957409 20.048828,27.5625 18.705978,28.784347 18.573231,30.440341 19,32.865235 c 0.705536,2.351159 1.622408,3.532544 3.601562,4.65625 1.036407,2.00723 2.367435,3.609178 3.984376,4.722656 A 14,13 0 0 1 15,48 v 2 A 15.999999,15 0 0 0 28.369141,43.220703 C 29.74696,43.796022 31.289109,44.073004 33,44 v -0.002 c 3.375491,0 6.394297,-2.93219 8.412109,-6.910156 C 42.880375,36.88548 44.218675,35.753607 45,32.677688 c 0.31057,-1.760536 0.495582,-3.809736 -1.001953,-5.003907 0.04444,-0.555345 0.002,-0.630722 0.002,-1.175781 0,-6.178924 -2.568509,-9.868779 -7,-11.5 L 36.377,17.294875 c 3.484509,0.910146 5.782688,3.955141 5.623047,9.617187 -0.03068,1.088006 -0.150391,2.427735 -0.150391,2.427735 0.411304,0.107208 0.816773,0.276274 1,0.876953 0,0 0.346926,0.921713 0.197266,2.283203 -0.410681,2.734724 -1.949219,2.935547 -1.949219,2.935547 -0.558442,-0.01116 -0.789062,0.0078 -0.789062,0.0078 0,0 -0.402926,0.62294 -0.59961,1 -1.629625,3.222992 -3.988594,5.5547 -6.613281,5.5547 -5.707926,0.04519 -7.958146,-3.299876 -9.357422,-6.666016 l -0.78325,-0.02144 C 22.178488,35.288687 21.186411,34.076909 21,32.388672 20.798137,30.554739 20.896844,29.737639 22.199219,29.230469 20.408074,19.272575 28.44189,14.034387 33,14.001953 Z m 6.970703,32.912109 -1.339844,1.50586 A 15.999999,15 0 0 0 49,50 v -2 a 14,13 0 0 1 -9.029297,-3.087891 z" />
</svg>
