<?xml version="1.0" encoding="UTF-8" standalone="no"?>
<svg
   viewbox="0 0 200 200"
   version="1.1"
   id="svg4"
   sodipodi:docname="calendar.svg"
   width="64"
   height="64"
   inkscape:version="1.1.1 (3bf5ae0d25, 2021-09-20, custom)"
   xmlns:inkscape="http://www.inkscape.org/namespaces/inkscape"
   xmlns:sodipodi="http://sodipodi.sourceforge.net/DTD/sodipodi-0.dtd"
   xmlns="http://www.w3.org/2000/svg"
   xmlns:svg="http://www.w3.org/2000/svg">
  <defs
     id="defs8" />
  <sodipodi:namedview
     id="namedview6"
     pagecolor="#ffffff"
     bordercolor="#666666"
     borderopacity="1.0"
     inkscape:pageshadow="2"
     inkscape:pageopacity="0.0"
     inkscape:pagecheckerboard="0"
     showgrid="false"
     inkscape:zoom="1"
     inkscape:cx="13"
     inkscape:cy="56.5"
     inkscape:window-width="1920"
     inkscape:window-height="1000"
     inkscape:window-x="0"
     inkscape:window-y="0"
     inkscape:window-maximized="1"
     inkscape:current-layer="svg4"
     showguides="true" />
  <path
     d="M 2,32 C 2,10.4 10.4,2 32,2 53.6,2 62,10.4 62,32 62,53.6 53.6,62 32,62 10.4,62 2,53.6 2,32"
     id="path2"
     style="stroke-width:0.3;fill:#3fbdcf;fill-opacity:1" />
  <path
     id="rect77557"
     style="fill:#ffffff;stroke-width:2;stroke-linejoin:round"
     d="M 22 11 L 22 14 L 12 14 L 12 16 L 24 16 L 24 11 L 22 11 z M 40 11 L 40 14 L 28 14 L 28 16 L 42 16 L 42 11 L 40 11 z M 46 14 L 46 16 L 52 16 L 52 14 L 46 14 z M 12 21 L 12 44 C 12 48.43201 15.567997 52 20 52 L 44 52 C 48.43201 52 52 48.43201 52 44 L 52 21 L 50 21 L 50 44 C 50 47.324 47.324 50 44 50 L 20 50 C 16.675996 50 14 47.324 14 44 L 14 21 L 12 21 z M 25.177734 24 C 23.911364 24 22.849558 24.32066 21.990234 24.962891 C 21.139956 25.605122 20.49668 26.501616 20.0625 27.650391 L 21.746094 28.273438 C 22.03555 27.486478 22.465289 26.854411 23.035156 26.375 C 23.605023 25.895588 24.318411 25.65625 25.177734 25.65625 C 25.693328 25.65625 26.155452 25.737572 26.5625 25.900391 C 26.978593 26.06321 27.327011 26.293295 27.607422 26.591797 C 27.896878 26.890298 28.11771 27.247969 28.271484 27.664062 C 28.425258 28.080156 28.501953 28.544953 28.501953 29.060547 C 28.501953 29.539959 28.404079 30.011335 28.205078 30.472656 C 28.015122 30.933977 27.715642 31.408027 27.308594 31.896484 L 20.511719 40.009766 L 20.484375 40.037109 L 20.470703 40.064453 C 20.208382 40.435319 20.054992 40.83 20.009766 41.246094 C 19.973584 41.653142 20.045654 42.031991 20.226562 42.384766 C 20.407472 42.728495 20.674569 43.000217 21.027344 43.199219 C 21.380118 43.39822 21.777473 43.498047 22.220703 43.498047 L 30.619141 43.498047 L 30.619141 41.841797 L 22.220703 41.841797 C 22.003612 41.841797 21.864101 41.769728 21.800781 41.625 C 21.737464 41.471226 21.767894 41.303957 21.894531 41.123047 L 28.666016 33.037109 L 28.679688 33.037109 C 29.231463 32.376787 29.633445 31.724263 29.886719 31.082031 C 30.149039 30.439801 30.279297 29.766097 30.279297 29.060547 C 30.279297 28.300724 30.158291 27.613141 29.914062 26.998047 C 29.669835 26.373906 29.321417 25.841666 28.869141 25.398438 C 28.425911 24.955208 27.887092 24.611415 27.253906 24.367188 C 26.629766 24.122959 25.937557 24 25.177734 24 z M 33.929688 24.380859 L 33.929688 26.035156 L 41.636719 26.035156 C 41.754311 26.035156 41.854138 26.067539 41.935547 26.130859 C 42.026002 26.185132 42.107323 26.252574 42.179688 26.333984 C 42.233961 26.406348 42.257094 26.515428 42.248047 26.660156 C 42.239 26.804884 42.211242 26.972153 42.166016 27.162109 L 36.589844 43.212891 L 38.271484 43.796875 L 43.861328 27.705078 L 43.875 27.677734 L 43.875 27.650391 C 43.95641 27.351889 43.998047 27.080165 43.998047 26.835938 C 44.007094 26.582664 43.988586 26.357204 43.943359 26.158203 C 43.907177 25.959202 43.853614 25.787307 43.78125 25.642578 C 43.708886 25.488805 43.632191 25.356593 43.550781 25.248047 C 43.333689 24.967636 43.05734 24.756057 42.722656 24.611328 C 42.397018 24.457555 42.034721 24.380859 41.636719 24.380859 L 33.929688 24.380859 z " />
</svg>
