<?xml version="1.0" encoding="UTF-8" standalone="no"?>
<svg
   viewbox="0 0 200 200"
   version="1.1"
   id="svg4"
   sodipodi:docname="application-vnd.insync.link.drive.sheet.svg"
   width="64"
   height="64"
   inkscape:version="1.1.1 (3bf5ae0d25, 2021-09-20, custom)"
   xmlns:inkscape="http://www.inkscape.org/namespaces/inkscape"
   xmlns:sodipodi="http://sodipodi.sourceforge.net/DTD/sodipodi-0.dtd"
   xmlns="http://www.w3.org/2000/svg"
   xmlns:svg="http://www.w3.org/2000/svg">
  <defs
     id="defs8" />
  <sodipodi:namedview
     id="namedview6"
     pagecolor="#ffffff"
     bordercolor="#666666"
     borderopacity="1.0"
     inkscape:pageshadow="2"
     inkscape:pageopacity="0.0"
     inkscape:pagecheckerboard="0"
     showgrid="false"
     inkscape:zoom="1"
     inkscape:cx="25"
     inkscape:cy="32.5"
     inkscape:window-width="1920"
     inkscape:window-height="1007"
     inkscape:window-x="0"
     inkscape:window-y="0"
     inkscape:window-maximized="1"
     inkscape:current-layer="svg4"
     showguides="true" />
  <path
     d="M 2,32 C 2,10.4 10.4,2 32,2 53.6,2 62,10.4 62,32 62,53.6 53.6,62 32,62 10.4,62 2,53.6 2,32"
     id="path2"
     style="stroke-width:0.3;fill:#2bc156;fill-opacity:1;stroke:none" />
  <path
     id="path1902"
     style="fill:#ffffff;fill-opacity:1;stroke-width:4;stroke-linecap:square;stroke-linejoin:round"
     d="M 14 16 C 12.892 16 12 16.892 12 18 L 12 48 L 14 48 L 14 38 L 25 38 L 25 46 L 18 46 L 18 48 L 46 48 C 49.313708 48 52 45.313708 52 42 L 52 22 L 50 22 L 50 26 L 14 26 L 14 18 L 52 18 L 52 16 L 14 16 z M 14 28 L 25 28 L 25 36 L 14 36 L 14 28 z M 27 28 L 38 28 L 38 36 L 27 36 L 27 28 z M 40 28 L 50 28 L 50 36 L 40 36 L 40 28 z M 27 38 L 38 38 L 38 46 L 27 46 L 27 38 z M 40 38 L 50 38 L 50 42 C 50 44.209139 48.209139 46 46 46 L 40 46 L 40 38 z " />
</svg>
