<?xml version="1.0" encoding="UTF-8" standalone="no"?>
<svg
   width="16"
   height="16"
   enable-background="new"
   version="1.1"
   id="svg9"
   sodipodi:docname="battery-level-10-symbolic.svg"
   inkscape:version="1.1.1 (3bf5ae0d25, 2021-09-20, custom)"
   xmlns:inkscape="http://www.inkscape.org/namespaces/inkscape"
   xmlns:sodipodi="http://sodipodi.sourceforge.net/DTD/sodipodi-0.dtd"
   xmlns="http://www.w3.org/2000/svg"
   xmlns:svg="http://www.w3.org/2000/svg">
  <sodipodi:namedview
     id="namedview11"
     pagecolor="#ffffff"
     bordercolor="#666666"
     borderopacity="1.0"
     inkscape:pageshadow="2"
     inkscape:pageopacity="0.0"
     inkscape:pagecheckerboard="0"
     showgrid="false"
     inkscape:zoom="45.254834"
     inkscape:cx="6.8059028"
     inkscape:cy="7.7008348"
     inkscape:window-width="1920"
     inkscape:window-height="1000"
     inkscape:window-x="0"
     inkscape:window-y="0"
     inkscape:window-maximized="1"
     inkscape:current-layer="svg9" />
  <defs
     id="defs5">
    <filter
       id="a"
       color-interpolation-filters="sRGB">
      <feBlend
         mode="darken"
         in2="BackgroundImage"
         id="feBlend2" />
    </filter>
  </defs>
  <rect
     style="fill:#363636;fill-opacity:1;stroke-width:2;stroke-linecap:round;stroke-linejoin:round;opacity:0.3"
     id="rect2469"
     width="6"
     height="10"
     x="5"
     y="3" />
  <path
     id="rect1135"
     style="fill:#363636;fill-opacity:1;stroke-width:2;stroke-linecap:round;stroke-linejoin:round"
     d="M 6,1 V 2 H 4 v 12 h 8 V 2 H 10 V 1 Z M 5,3 h 6 V 13 H 5 Z"
     sodipodi:nodetypes="cccccccccccccc" />
  <path
     id="rect3870"
     style="opacity:1;fill:#d33636;fill-opacity:1;stroke-width:1.1547;stroke-linecap:round;stroke-linejoin:round"
     class="error"
     d="M 7.5 5 L 7.5 9 L 8.5 9 L 8.5 5 L 7.5 5 z M 8 10 A 0.50000024 0.5 0 0 0 7.5 10.5 A 0.50000024 0.5 0 0 0 8 11 A 0.50000024 0.5 0 0 0 8.5 10.5 A 0.50000024 0.5 0 0 0 8 10 z M 5 12 L 5 13 L 11 13 L 11 12 L 5 12 z " />
</svg>
