<?xml version="1.0" encoding="UTF-8" standalone="no"?>
<!-- Created with Inkscape (http://www.inkscape.org/) -->

<svg
   width="16"
   height="16"
   viewBox="0 0 4.2333332 4.2333335"
   version="1.1"
   id="svg5"
   inkscape:version="1.1.1 (3bf5ae0d25, 2021-09-20, custom)"
   sodipodi:docname="weather-cloudy-symbolic.svg"
   xmlns:inkscape="http://www.inkscape.org/namespaces/inkscape"
   xmlns:sodipodi="http://sodipodi.sourceforge.net/DTD/sodipodi-0.dtd"
   xmlns="http://www.w3.org/2000/svg"
   xmlns:svg="http://www.w3.org/2000/svg">
  <sodipodi:namedview
     id="namedview7"
     pagecolor="#ffffff"
     bordercolor="#666666"
     borderopacity="1.0"
     inkscape:pageshadow="2"
     inkscape:pageopacity="0.0"
     inkscape:pagecheckerboard="0"
     inkscape:document-units="px"
     showgrid="false"
     units="px"
     height="16px"
     inkscape:zoom="24.890159"
     inkscape:cx="3.0534156"
     inkscape:cy="8.9392759"
     inkscape:window-width="1920"
     inkscape:window-height="996"
     inkscape:window-x="0"
     inkscape:window-y="0"
     inkscape:window-maximized="1"
     inkscape:current-layer="svg5" />
  <defs
     id="defs2" />
  <path
     id="path846"
     style="fill:#363636;fill-opacity:1;stroke-width:0.463021;stroke-linejoin:round"
     d="M 2.6458333,0.79374999 A 1.3229166,1.3229166 0 0 0 1.7125569,1.1833903 L 1.8975586,1.3683919 A 1.0583333,1.0583333 0 0 1 2.6458333,1.0583333 1.0583333,1.0583333 0 0 1 3.7041666,2.1166666 1.0583333,1.0583333 0 0 1 2.6458333,3.175 H 1.190625 A 0.6614583,0.6614583 0 0 1 0.52916666,2.5135416 0.6614583,0.6614583 0 0 1 1.190625,1.8520833 0.6614583,0.6614583 0 0 1 1.8520833,2.5135416 H 2.1166666 A 0.92604163,0.9260416 0 0 0 1.190625,1.5875 0.92604163,0.9260416 0 0 0 0.26458333,2.5135416 0.92604163,0.9260416 0 0 0 1.190625,3.4395833 H 2.6458333 A 1.3229166,1.3229166 0 0 0 3.96875,2.1166666 1.3229166,1.3229166 0 0 0 2.6458333,0.79374999 Z" />
</svg>
