<?xml version="1.0" encoding="UTF-8" standalone="no"?>
<!-- Created with Inkscape (http://www.inkscape.org/) -->

<svg
   width="16"
   height="16"
   viewBox="0 0 4.2333332 4.2333335"
   version="1.1"
   id="svg5"
   inkscape:version="1.1.1 (3bf5ae0d25, 2021-09-20, custom)"
   sodipodi:docname="weather-fog-symbolic.svg"
   xmlns:inkscape="http://www.inkscape.org/namespaces/inkscape"
   xmlns:sodipodi="http://sodipodi.sourceforge.net/DTD/sodipodi-0.dtd"
   xmlns="http://www.w3.org/2000/svg"
   xmlns:svg="http://www.w3.org/2000/svg">
  <sodipodi:namedview
     id="namedview7"
     pagecolor="#ffffff"
     bordercolor="#666666"
     borderopacity="1.0"
     inkscape:pageshadow="2"
     inkscape:pageopacity="0.0"
     inkscape:pagecheckerboard="0"
     inkscape:document-units="px"
     showgrid="false"
     units="px"
     height="16px"
     inkscape:zoom="24.890159"
     inkscape:cx="3.0534156"
     inkscape:cy="8.939276"
     inkscape:window-width="1920"
     inkscape:window-height="996"
     inkscape:window-x="0"
     inkscape:window-y="0"
     inkscape:window-maximized="1"
     inkscape:current-layer="svg5" />
  <defs
     id="defs2" />
  <path
     id="path846"
     style="fill:#363636;fill-opacity:1;stroke-width:1.75;stroke-linejoin:round"
     d="M 10 0 A 4.9999997 4.9999997 0 0 0 6.4726562 1.4726562 L 7.171875 2.171875 A 3.9999999 3.9999999 0 0 1 10 1 A 3.9999999 3.9999999 0 0 1 14 5 A 3.9999999 3.9999999 0 0 1 10 9 L 4.5 9 A 2.4999999 2.4999999 0 0 1 2 6.5 A 2.4999999 2.4999999 0 0 1 4.5 4 A 2.4999999 2.4999999 0 0 1 7 6.5 L 8 6.5 A 3.4999998 3.4999997 0 0 0 4.5 3 A 3.4999998 3.4999997 0 0 0 1 6.5 A 3.4999998 3.4999997 0 0 0 4.5 10 L 10 10 A 4.9999997 4.9999997 0 0 0 15 5 A 4.9999997 4.9999997 0 0 0 10 0 z M 2.0273438 11 L 2.0273438 12 L 14.027344 12 L 14.027344 11 L 2.0273438 11 z M 2.0273438 13 L 2.0273438 14 L 14.027344 14 L 14.027344 13 L 2.0273438 13 z M 2.0273438 15 L 2.0273438 16 L 14.027344 16 L 14.027344 15 L 2.0273438 15 z "
     transform="scale(0.26458333)" />
</svg>
