<?xml version="1.0" encoding="UTF-8" standalone="no"?>
<svg
   height="16"
   width="16"
   version="1.1"
   id="svg4"
   sodipodi:docname="weather-clear-symbolic.svg"
   inkscape:version="1.1.1 (3bf5ae0d25, 2021-09-20, custom)"
   xmlns:inkscape="http://www.inkscape.org/namespaces/inkscape"
   xmlns:sodipodi="http://sodipodi.sourceforge.net/DTD/sodipodi-0.dtd"
   xmlns="http://www.w3.org/2000/svg"
   xmlns:svg="http://www.w3.org/2000/svg">
  <defs
     id="defs8" />
  <sodipodi:namedview
     id="namedview6"
     pagecolor="#ffffff"
     bordercolor="#666666"
     borderopacity="1.0"
     inkscape:pageshadow="2"
     inkscape:pageopacity="0.0"
     inkscape:pagecheckerboard="0"
     showgrid="false"
     inkscape:zoom="32"
     inkscape:cx="5.78125"
     inkscape:cy="7.234375"
     inkscape:window-width="1920"
     inkscape:window-height="996"
     inkscape:window-x="0"
     inkscape:window-y="0"
     inkscape:window-maximized="1"
     inkscape:current-layer="svg4" />
  <path
     id="rect6080"
     style="fill:#363636;stroke-width:2;stroke-linejoin:round;fill-opacity:1"
     d="M 7 0 L 7 2 L 8 2 L 8 0 L 7 0 z M 2.5507812 1.84375 L 1.84375 2.5507812 L 3.2578125 3.9648438 L 3.9648438 3.2578125 L 2.5507812 1.84375 z M 12.449219 1.84375 L 11.035156 3.2578125 L 11.742188 3.9648438 L 13.15625 2.5507812 L 12.449219 1.84375 z M 7.5 3 A 4.5 4.5 0 0 0 3 7.5 A 4.5 4.5 0 0 0 7.5 12 A 4.5 4.5 0 0 0 12 7.5 A 4.5 4.5 0 0 0 7.5 3 z M 7.5 4 A 3.5 3.5 0 0 1 11 7.5 A 3.5 3.5 0 0 1 7.5 11 A 3.5 3.5 0 0 1 4 7.5 A 3.5 3.5 0 0 1 7.5 4 z M 0 7 L 0 8 L 2 8 L 2 7 L 0 7 z M 13 7 L 13 8 L 15 8 L 15 7 L 13 7 z M 3.2578125 11.035156 L 1.84375 12.449219 L 2.5507812 13.15625 L 3.9648438 11.742188 L 3.2578125 11.035156 z M 11.742188 11.035156 L 11.035156 11.742188 L 12.449219 13.15625 L 13.15625 12.449219 L 11.742188 11.035156 z M 7 13 L 7 15 L 8 15 L 8 13 L 7 13 z " />
</svg>
