<?xml version="1.0" encoding="UTF-8" standalone="no"?>
<!-- Created with Inkscape (http://www.inkscape.org/) -->

<svg
   width="16"
   height="16"
   viewBox="0 0 4.2333332 4.2333335"
   version="1.1"
   id="svg5"
   inkscape:version="1.1.1 (3bf5ae0d25, 2021-09-20, custom)"
   sodipodi:docname="weather-snow-symbolic.svg"
   xmlns:inkscape="http://www.inkscape.org/namespaces/inkscape"
   xmlns:sodipodi="http://sodipodi.sourceforge.net/DTD/sodipodi-0.dtd"
   xmlns="http://www.w3.org/2000/svg"
   xmlns:svg="http://www.w3.org/2000/svg">
  <sodipodi:namedview
     id="namedview7"
     pagecolor="#ffffff"
     bordercolor="#666666"
     borderopacity="1.0"
     inkscape:pageshadow="2"
     inkscape:pageopacity="0.0"
     inkscape:pagecheckerboard="0"
     inkscape:document-units="px"
     showgrid="false"
     units="px"
     height="16px"
     inkscape:zoom="48.3125"
     inkscape:cx="7.9896507"
     inkscape:cy="11.311772"
     inkscape:window-width="1920"
     inkscape:window-height="996"
     inkscape:window-x="0"
     inkscape:window-y="0"
     inkscape:window-maximized="1"
     inkscape:current-layer="svg5" />
  <defs
     id="defs2" />
  <path
     id="path846"
     style="fill:#363636;fill-opacity:1;stroke-width:1.75;stroke-linejoin:round"
     d="M 10 0 C 8.6755814 0.0043408999 7.4069902 0.53397433 6.4726562 1.4726562 L 7.171875 2.171875 C 7.9218969 1.4216927 8.9391955 1.0001602 10 1 C 12.209139 0.99999989 14 2.7908609 14 5 C 14 7.2091388 12.209139 9 10 9 L 4.5 9 C 3.1192881 9 1.9999999 7.8807121 2 6.5 C 1.9999999 5.1192883 3.1192881 4 4.5 4 C 5.8807117 4 7 5.1192883 7 6.5 L 8 6.5 C 8.0000004 4.5670033 6.4329967 2.9999999 4.5 3 C 2.5670033 2.9999999 0.99999985 4.5670033 1 6.5 C 0.99999985 8.4329967 2.5670033 10 4.5 10 L 10 10 C 12.761424 10 15 7.7614237 15 5 C 15 2.2385761 12.761424 -1.6999999e-07 10 0 z M 4.7402344 11 L 4.7402344 11.566406 L 4.25 11.283203 L 4 11.716797 L 4.4902344 12 L 4 12.283203 L 4.25 12.716797 L 4.7402344 12.433594 L 4.7402344 13 L 5.2402344 13 L 5.2402344 12.433594 L 5.7304688 12.716797 L 5.9804688 12.283203 L 5.4902344 12 L 5.9804688 11.716797 L 5.7304688 11.283203 L 5.2402344 11.566406 L 5.2402344 11 L 4.7402344 11 z M 8.7402344 11 L 8.7402344 11.566406 L 8.25 11.283203 L 8 11.716797 L 8.4902344 12 L 8 12.283203 L 8.25 12.716797 L 8.7402344 12.433594 L 8.7402344 13 L 9.2402344 13 L 9.2402344 12.433594 L 9.7304688 12.716797 L 9.9804688 12.283203 L 9.4902344 12 L 9.9804688 11.716797 L 9.7304688 11.283203 L 9.2402344 11.566406 L 9.2402344 11 L 8.7402344 11 z M 12.740234 11 L 12.740234 11.566406 L 12.25 11.283203 L 12 11.716797 L 12.490234 12 L 12 12.283203 L 12.25 12.716797 L 12.740234 12.433594 L 12.740234 13 L 13.240234 13 L 13.240234 12.433594 L 13.730469 12.716797 L 13.980469 12.283203 L 13.490234 12 L 13.980469 11.716797 L 13.730469 11.283203 L 13.240234 11.566406 L 13.240234 11 L 12.740234 11 z M 2.7402344 14 L 2.7402344 14.566406 L 2.25 14.283203 L 2 14.716797 L 2.4902344 15 L 2 15.283203 L 2.25 15.716797 L 2.7402344 15.433594 L 2.7402344 16 L 3.2402344 16 L 3.2402344 15.433594 L 3.7304688 15.716797 L 3.9804688 15.283203 L 3.4902344 15 L 3.9804688 14.716797 L 3.7304688 14.283203 L 3.2402344 14.566406 L 3.2402344 14 L 2.7402344 14 z M 6.7402344 14 L 6.7402344 14.566406 L 6.25 14.283203 L 6 14.716797 L 6.4902344 15 L 6 15.283203 L 6.25 15.716797 L 6.7402344 15.433594 L 6.7402344 16 L 7.2402344 16 L 7.2402344 15.433594 L 7.7304688 15.716797 L 7.9804688 15.283203 L 7.4902344 15 L 7.9804688 14.716797 L 7.7304688 14.283203 L 7.2402344 14.566406 L 7.2402344 14 L 6.7402344 14 z M 10.740234 14 L 10.740234 14.566406 L 10.25 14.283203 L 10 14.716797 L 10.490234 15 L 10 15.283203 L 10.25 15.716797 L 10.740234 15.433594 L 10.740234 16 L 11.240234 16 L 11.240234 15.433594 L 11.730469 15.716797 L 11.980469 15.283203 L 11.490234 15 L 11.980469 14.716797 L 11.730469 14.283203 L 11.240234 14.566406 L 11.240234 14 L 10.740234 14 z "
     transform="scale(0.26458333)" />
</svg>
