<?xml version="1.0" encoding="UTF-8" standalone="no"?>
<!-- Created with Inkscape (http://www.inkscape.org/) -->

<svg
   width="16"
   height="16"
   viewBox="0 0 4.2333332 4.2333335"
   version="1.1"
   id="svg5"
   inkscape:version="1.1.1 (3bf5ae0d25, 2021-09-20, custom)"
   sodipodi:docname="weather-storm-symbolic.svg"
   xmlns:inkscape="http://www.inkscape.org/namespaces/inkscape"
   xmlns:sodipodi="http://sodipodi.sourceforge.net/DTD/sodipodi-0.dtd"
   xmlns="http://www.w3.org/2000/svg"
   xmlns:svg="http://www.w3.org/2000/svg">
  <sodipodi:namedview
     id="namedview7"
     pagecolor="#ffffff"
     bordercolor="#666666"
     borderopacity="1.0"
     inkscape:pageshadow="2"
     inkscape:pageopacity="0.0"
     inkscape:pagecheckerboard="0"
     inkscape:document-units="px"
     showgrid="false"
     units="px"
     height="16px"
     inkscape:zoom="38.906118"
     inkscape:cx="7.1968116"
     inkscape:cy="9.7028442"
     inkscape:window-width="1920"
     inkscape:window-height="996"
     inkscape:window-x="0"
     inkscape:window-y="0"
     inkscape:window-maximized="1"
     inkscape:current-layer="svg5" />
  <defs
     id="defs2" />
  <path
     id="path846"
     style="fill:#363636;fill-opacity:1;stroke-width:1.75;stroke-linejoin:round"
     d="M 10,1 C 8.6755813,1.0043409 7.4069901,1.5339744 6.4726562,2.4726562 L 7.171875,3.171875 C 7.921897,2.4216927 8.9391954,2.0001602 10,2 c 2.209139,-1e-7 4,1.790861 4,4 0,1.4796599 -0.805606,2.7690073 -2,3.4609375 V 10.582031 C 13.765104,9.810133 15,8.049739 15,6 15,3.2385762 12.761424,0.99999983 10,1 Z M 4.5,4 C 2.5670033,3.9999999 0.99999983,5.5670033 1,7.5 0.99999983,9.4329967 2.5670033,11 4.5,11 H 7.5000001 L 8,10 H 4.5 C 3.1192881,10 1.9999999,8.8807119 2,7.5 1.9999999,6.1192881 3.1192881,4.9999999 4.5,5 5.8807119,4.9999999 7.0000001,6.1192881 7,7.5 H 8 C 8.0000002,5.5670033 6.4329967,3.9999999 4.5,4 Z M 10,9 8,13 h 2 v 3 l 2,-4 h -2 z m -7,2.884766 -1,1.730468 0.8652344,0.5 1,-1.730468 z m 2.5,0.06641 -1.5,2.597656 0.8652344,0.5 1.5,-2.597656 z"
     transform="scale(0.26458333)"
     sodipodi:nodetypes="ccccsccscsssccsssccsccccccccccccccccc" />
</svg>
