<?xml version="1.0" encoding="UTF-8" standalone="no"?>
<!-- Created with Inkscape (http://www.inkscape.org/) -->

<svg
   width="16"
   height="16"
   viewBox="0 0 4.2333332 4.2333335"
   version="1.1"
   id="svg5"
   inkscape:version="1.1.1 (3bf5ae0d25, 2021-09-20, custom)"
   sodipodi:docname="weather-치ㅐ연-symbolic.svg"
   xmlns:inkscape="http://www.inkscape.org/namespaces/inkscape"
   xmlns:sodipodi="http://sodipodi.sourceforge.net/DTD/sodipodi-0.dtd"
   xmlns="http://www.w3.org/2000/svg"
   xmlns:svg="http://www.w3.org/2000/svg">
  <sodipodi:namedview
     id="namedview7"
     pagecolor="#ffffff"
     bordercolor="#666666"
     borderopacity="1.0"
     inkscape:pageshadow="2"
     inkscape:pageopacity="0.0"
     inkscape:pagecheckerboard="0"
     inkscape:document-units="px"
     showgrid="false"
     units="px"
     height="16px"
     inkscape:zoom="59.461539"
     inkscape:cx="8.0051746"
     inkscape:cy="8.5012936"
     inkscape:window-width="1920"
     inkscape:window-height="996"
     inkscape:window-x="0"
     inkscape:window-y="0"
     inkscape:window-maximized="1"
     inkscape:current-layer="svg5" />
  <defs
     id="defs2" />
  <path
     id="path846"
     style="fill:#363636;fill-opacity:1;stroke-width:0.463021;stroke-linejoin:round"
     d="M 2.9104166,1.3229167 C 2.5599975,1.3240652 2.2243494,1.4641974 1.9771402,1.712557 L 2.1621419,1.8975586 C 2.3605852,1.6990729 2.6297454,1.5875424 2.9104166,1.5875 c 0.5845013,0 1.0583333,0.473832 1.0583333,1.0583333 10e-8,0.5845014 -0.4738319,1.0583334 -1.0583333,1.0583334 H 1.4552083 c -0.3653134,0 -0.66145836,-0.296145 -0.6614583,-0.6614584 0,-0.3653133 0.296145,-0.6614583 0.6614583,-0.6614583 0.3653133,0 0.6614583,0.296145 0.6614583,0.6614583 h 0.2645833 c 0,-0.5114386 -0.4146029,-0.9260416 -0.9260416,-0.9260416 -0.51143867,0 -0.92604163,0.4146029 -0.92604163,0.9260416 -6e-8,0.5114387 0.41460292,0.9260417 0.92604163,0.9260417 h 1.4552083 c 0.7306267,0 1.3229168,-0.59229 1.3229167,-1.3229167 0,-0.7306267 -0.59229,-1.3229167 -1.3229167,-1.3229166 z"
     sodipodi:nodetypes="ccccsssssccsssssc" />
  <path
     id="rect843"
     style="fill:#363636;stroke-width:2;stroke-linejoin:round"
     d="M 4 2 L 4 3 L 5 3 L 5 2 L 4 2 z M 1.671875 2.9648438 L 0.96484375 3.671875 L 1.671875 4.3789062 L 2.3789062 3.671875 L 1.671875 2.9648438 z M 7.328125 2.9648438 L 6.6210938 3.671875 L 7.328125 4.3789062 L 8.0351562 3.671875 L 7.328125 2.9648438 z M 4.5 4 C 3.1192881 3.9999999 1.9999999 5.1192881 2 6.5 C 2.004912 7.0779091 2.2098963 7.6362668 2.5800781 8.0800781 C 2.8349517 7.8622402 3.1133725 7.6735693 3.4101562 7.5175781 C 3.1498461 7.2423483 3.0033168 6.8788164 3 6.5 C 3 5.6715729 3.6715729 5 4.5 5 C 5.3284271 5 6 5.6715729 6 6.5 C 5.9969825 6.6771706 5.9625969 6.8524052 5.8984375 7.0175781 C 6.2364159 7.0475899 6.5699157 7.1157313 6.8925781 7.2207031 C 6.9633912 6.9870043 6.9995828 6.7441914 7 6.5 C 7.0000001 5.1192881 5.8807119 3.9999999 4.5 4 z M 0.005859375 6 L 0.005859375 7 L 1.0058594 7 L 1.0058594 6 L 0.005859375 6 z M 1.671875 8.6210938 L 0.96484375 9.328125 L 1.671875 10.035156 L 2.3789062 9.328125 L 1.671875 8.6210938 z "
     transform="scale(0.26458333)" />
</svg>
