<?xml version="1.0" encoding="UTF-8" standalone="no"?>
<!-- Created with Inkscape (http://www.inkscape.org/) -->

<svg
   width="16"
   height="16"
   viewBox="0 0 4.2333332 4.2333335"
   version="1.1"
   id="svg5"
   inkscape:version="1.1.1 (3bf5ae0d25, 2021-09-20, custom)"
   sodipodi:docname="weather-showers-scattered-symbolic.svg"
   xmlns:inkscape="http://www.inkscape.org/namespaces/inkscape"
   xmlns:sodipodi="http://sodipodi.sourceforge.net/DTD/sodipodi-0.dtd"
   xmlns="http://www.w3.org/2000/svg"
   xmlns:svg="http://www.w3.org/2000/svg">
  <sodipodi:namedview
     id="namedview7"
     pagecolor="#ffffff"
     bordercolor="#666666"
     borderopacity="1.0"
     inkscape:pageshadow="2"
     inkscape:pageopacity="0.0"
     inkscape:pagecheckerboard="0"
     inkscape:document-units="px"
     showgrid="false"
     units="px"
     height="16px"
     inkscape:zoom="19.453059"
     inkscape:cx="-0.51405797"
     inkscape:cy="5.063471"
     inkscape:window-width="1920"
     inkscape:window-height="996"
     inkscape:window-x="0"
     inkscape:window-y="0"
     inkscape:window-maximized="1"
     inkscape:current-layer="svg5" />
  <defs
     id="defs2" />
  <path
     id="path846"
     style="fill:#363636;fill-opacity:1;stroke-width:1.75;stroke-linejoin:round"
     d="M 10 1 A 4.9999997 4.9999997 0 0 0 6.4726562 2.4726562 L 7.171875 3.171875 A 3.9999999 3.9999999 0 0 1 10 2 A 3.9999999 3.9999999 0 0 1 14 6 A 3.9999999 3.9999999 0 0 1 10 10 L 4.5 10 A 2.4999999 2.4999999 0 0 1 2 7.5 A 2.4999999 2.4999999 0 0 1 4.5 5 A 2.4999999 2.4999999 0 0 1 7 7.5 L 8 7.5 A 3.4999998 3.4999997 0 0 0 4.5 4 A 3.4999998 3.4999997 0 0 0 1 7.5 A 3.4999998 3.4999997 0 0 0 4.5 11 L 10 11 A 4.9999997 4.9999997 0 0 0 15 6 A 4.9999997 4.9999997 0 0 0 10 1 z M 3 11.884766 L 2 13.615234 L 2.8652344 14.115234 L 3.8652344 12.384766 L 3 11.884766 z M 8 11.884766 L 7 13.615234 L 7.8652344 14.115234 L 8.8652344 12.384766 L 8 11.884766 z M 13 11.884766 L 12 13.615234 L 12.865234 14.115234 L 13.865234 12.384766 L 13 11.884766 z M 5.5 11.951172 L 4 14.548828 L 4.8652344 15.048828 L 6.3652344 12.451172 L 5.5 11.951172 z M 10.5 11.951172 L 9 14.548828 L 9.8652344 15.048828 L 11.365234 12.451172 L 10.5 11.951172 z "
     transform="scale(0.26458333)" />
</svg>
