<?xml version="1.0" encoding="UTF-8" standalone="no"?>
<svg
   viewbox="0 0 200 200"
   version="1.1"
   id="svg4"
   sodipodi:docname="folder-publicshare.svg"
   width="22"
   height="22"
   inkscape:version="1.1.1 (3bf5ae0d25, 2021-09-20, custom)"
   xmlns:inkscape="http://www.inkscape.org/namespaces/inkscape"
   xmlns:sodipodi="http://sodipodi.sourceforge.net/DTD/sodipodi-0.dtd"
   xmlns="http://www.w3.org/2000/svg"
   xmlns:svg="http://www.w3.org/2000/svg">
  <defs
     id="defs8" />
  <sodipodi:namedview
     id="namedview6"
     pagecolor="#ffffff"
     bordercolor="#666666"
     borderopacity="1.0"
     inkscape:pageshadow="2"
     inkscape:pageopacity="0.0"
     inkscape:pagecheckerboard="0"
     showgrid="false"
     inkscape:zoom="19.425"
     inkscape:cx="7.4131275"
     inkscape:cy="13.719434"
     inkscape:window-width="1920"
     inkscape:window-height="996"
     inkscape:window-x="0"
     inkscape:window-y="0"
     inkscape:window-maximized="1"
     inkscape:current-layer="svg4"
     showguides="false" />
  <path
     d="M 1,11 C 1,3.8 3.8,1 11,1 18.2,1 21,3.8 21,11 21,18.2 18.2,21 11,21 3.8,21 1,18.2 1,11"
     id="path2"
     style="fill:#f8f8f8;fill-opacity:1;stroke-width:0.1" />
  <path
     id="path844"
     style="fill:#febd0c;stroke-width:0;stroke-linecap:round;stroke-linejoin:round;fill-opacity:1"
     d="M 11 4 A 7 7 0 0 0 5.9140625 6.2226562 A 2 2 0 0 0 5 6 A 2 2 0 0 0 3 8 A 2 2 0 0 0 5 10 A 2 2 0 0 0 7 8 A 2 2 0 0 0 6.6621094 6.8886719 A 6 6 0 0 1 11 5 A 6 6 0 0 1 16.916016 10 L 17.927734 10 A 7 7 0 0 0 11 4 z M 5 7 A 1 1 0 0 1 6 8 A 1 1 0 0 1 5 9 A 1 1 0 0 1 4 8 A 1 1 0 0 1 5 7 z M 4.0703125 12 A 7 7 0 0 0 11 18 A 7 7 0 0 0 16.089844 15.769531 A 2 2 0 0 0 17 16 A 2 2 0 0 0 19 14 A 2 2 0 0 0 17 12 A 2 2 0 0 0 15 14 A 2 2 0 0 0 15.347656 15.105469 A 6 6 0 0 1 11 17 A 6 6 0 0 1 5.0878906 12 L 4.0703125 12 z M 17 13 A 1 1 0 0 1 18 14 A 1 1 0 0 1 17 15 A 1 1 0 0 1 16 14 A 1 1 0 0 1 17 13 z " />
</svg>
