<?xml version="1.0" encoding="UTF-8" standalone="no"?>
<svg
   viewbox="0 0 200 200"
   version="1.1"
   id="svg4"
   sodipodi:docname="network-workgroup.svg"
   width="22"
   height="22"
   inkscape:version="1.1.1 (3bf5ae0d25, 2021-09-20, custom)"
   xmlns:inkscape="http://www.inkscape.org/namespaces/inkscape"
   xmlns:sodipodi="http://sodipodi.sourceforge.net/DTD/sodipodi-0.dtd"
   xmlns="http://www.w3.org/2000/svg"
   xmlns:svg="http://www.w3.org/2000/svg">
  <defs
     id="defs8" />
  <sodipodi:namedview
     id="namedview6"
     pagecolor="#ffffff"
     bordercolor="#666666"
     borderopacity="1.0"
     inkscape:pageshadow="2"
     inkscape:pageopacity="0.0"
     inkscape:pagecheckerboard="0"
     showgrid="false"
     inkscape:zoom="26.125"
     inkscape:cx="9.8373206"
     inkscape:cy="8.3636364"
     inkscape:window-width="1920"
     inkscape:window-height="996"
     inkscape:window-x="0"
     inkscape:window-y="0"
     inkscape:window-maximized="1"
     inkscape:current-layer="svg4"
     showguides="false"
     inkscape:lockguides="false" />
  <path
     d="M 1,11 C 1,3.8 3.8,1 11,1 18.2,1 21,3.8 21,11 21,18.2 18.2,21 11,21 3.8,21 1,18.2 1,11"
     id="path2"
     style="fill:#f8f8f8;fill-opacity:1;stroke-width:0.1" />
  <path
     id="path924"
     style="fill:#febd0c;fill-opacity:1;stroke-width:4;stroke-linecap:round;stroke-linejoin:round"
     d="M 11 4 C 8.6804041 4 6.6252918 5.129539 5.3515625 6.8671875 A 9 3 20 0 0 2.6894531 7.9472656 A 9 3 20 0 0 4.0214844 10.484375 C 4.0090192 10.655103 4 10.826091 4 11 C 4 14.865993 7.1340068 18 11 18 C 13.292483 18 15.326669 16.896548 16.603516 15.193359 A 9 3 20 0 0 19.603516 14.103516 A 9 3 20 0 0 17.990234 11.332031 C 17.995402 11.221683 18 11.111627 18 11 C 18 7.1340068 14.865993 4 11 4 z M 11 5 C 14.313708 5 17 7.6862915 17 11 C 17 12.216311 16.635697 13.347537 16.013672 14.292969 A 8 2 20 0 1 10.462891 12.904297 A 8 2 20 0 1 5.0527344 10.207031 C 5.440924 7.268302 7.9552327 5 11 5 z M 4.8066406 7.7402344 C 4.5231514 8.2776874 4.3081822 8.8560799 4.171875 9.4648438 A 8 2 20 0 1 3.6289062 8.2890625 A 8 2 20 0 1 4.8066406 7.7402344 z M 5.0058594 11.259766 A 9 3 20 0 0 10.121094 13.845703 A 9 3 20 0 0 15.361328 15.117188 C 14.26742 16.275671 12.719091 17 11 17 C 7.7734538 17 5.1420732 14.452786 5.0058594 11.259766 z M 17.869141 12.345703 A 8 2 20 0 1 18.664062 13.761719 A 8 2 20 0 1 17.150391 14.341797 C 17.485499 13.726399 17.730874 13.055289 17.869141 12.345703 z " />
</svg>
