<?xml version="1.0" encoding="UTF-8" standalone="no"?>
<!-- Created with Inkscape (http://www.inkscape.org/) -->

<svg
   width="16"
   height="16"
   viewBox="0 0 4.2333332 4.2333335"
   version="1.1"
   id="svg11945"
   inkscape:version="1.1.1 (3bf5ae0d25, 2021-09-20, custom)"
   sodipodi:docname="accessories-camera-symbolic.svg"
   xmlns:inkscape="http://www.inkscape.org/namespaces/inkscape"
   xmlns:sodipodi="http://sodipodi.sourceforge.net/DTD/sodipodi-0.dtd"
   xmlns="http://www.w3.org/2000/svg"
   xmlns:svg="http://www.w3.org/2000/svg">
  <sodipodi:namedview
     id="namedview11947"
     pagecolor="#ffffff"
     bordercolor="#666666"
     borderopacity="1.0"
     inkscape:pageshadow="2"
     inkscape:pageopacity="0.0"
     inkscape:pagecheckerboard="0"
     inkscape:document-units="px"
     showgrid="false"
     units="in"
     inkscape:zoom="25.107143"
     inkscape:cx="11.72973"
     inkscape:cy="10.375533"
     inkscape:window-width="1567"
     inkscape:window-height="932"
     inkscape:window-x="56"
     inkscape:window-y="50"
     inkscape:window-maximized="0"
     inkscape:current-layer="svg11945"
     showguides="false" />
  <defs
     id="defs11942" />
  <path
     id="path19157"
     style="color:#000000;fill:#dedede;stroke:none;stroke-width:3.77953;stroke-linejoin:round;-inkscape-stroke:none;fill-opacity:1"
     d="M 6.0039062 2 C 5.8560553 1.9994017 5.7146096 2.0648342 5.6191406 2.1777344 L 4.0585938 4 L 2 4 C 1.4459999 4 1 4.4460003 1 5 L 1 12 A 2.0000001 2.0000001 0 0 0 3 14 L 13 14 A 2.0000001 2.0000001 0 0 0 15 12 L 15 5 C 15 4.4460003 14.554 4 14 4 L 11.941406 4 L 10.380859 2.1777344 C 10.287063 2.066795 10.149176 2.0015632 10.003906 2 L 6.0039062 2 z M 6.2324219 2.9960938 L 9.7753906 2.9960938 L 11.490234 5 L 12.798828 5 L 14 5 L 14 12 A 1.0000001 1.0000001 0 0 1 13 13 L 3 13 A 1.0000001 1.0000001 0 0 1 2 12 L 2 5 L 3.2011719 5 L 4.5175781 5 L 6.2324219 2.9960938 z M 8 6 A 2.9999999 2.9999999 0 0 0 5 9 A 2.9999999 2.9999999 0 0 0 8 12 A 2.9999999 2.9999999 0 0 0 11 9 A 2.9999999 2.9999999 0 0 0 8 6 z M 8 7 A 2.0000001 2.0000001 0 0 1 10 9 A 2.0000001 2.0000001 0 0 1 8 11 A 2.0000001 2.0000001 0 0 1 6 9 A 2.0000001 2.0000001 0 0 1 8 7 z "
     transform="scale(0.26458333)" />
</svg>
