<?xml version="1.0" encoding="UTF-8" standalone="no"?>
<svg
   viewbox="0 0 200 200"
   version="1.1"
   id="svg4"
   sodipodi:docname="archive-manager-symbolic.svg"
   width="16"
   height="16"
   inkscape:version="1.1.1 (3bf5ae0d25, 2021-09-20, custom)"
   xmlns:inkscape="http://www.inkscape.org/namespaces/inkscape"
   xmlns:sodipodi="http://sodipodi.sourceforge.net/DTD/sodipodi-0.dtd"
   xmlns="http://www.w3.org/2000/svg"
   xmlns:svg="http://www.w3.org/2000/svg">
  <defs
     id="defs8" />
  <sodipodi:namedview
     id="namedview6"
     pagecolor="#ffffff"
     bordercolor="#666666"
     borderopacity="1.0"
     inkscape:pageshadow="2"
     inkscape:pageopacity="0.0"
     inkscape:pagecheckerboard="0"
     showgrid="false"
     inkscape:zoom="12.078125"
     inkscape:cx="7.8654593"
     inkscape:cy="10.142303"
     inkscape:window-width="1920"
     inkscape:window-height="996"
     inkscape:window-x="0"
     inkscape:window-y="0"
     inkscape:window-maximized="1"
     inkscape:current-layer="svg4"
     showguides="false" />
  <path
     id="rect924"
     style="fill:#dedede;fill-opacity:1;stroke-width:1;stroke-linecap:round;stroke-linejoin:round"
     d="M 2 2 C 1.446 2 1 2.446 1 3 L 1 11 C 1 12.662 2.338 14 4 14 L 12 14 C 13.662 14 15 12.662 15 11 L 15 5 C 15 4.446 14.554 4 14 4 L 8 4 L 8 3 C 8 2.447715 7.552285 2 7 2 L 2 2 z M 2 3 L 4 3 L 4 4 L 5 4 L 5 3 L 7 3 L 7 4 C 7 4.552285 7.447715 5 8 5 L 14 5 L 14 11 C 14 12.108 13.108 13 12 13 L 4 13 C 2.892 13 2 12.108 2 11 L 2 3 z M 4 5 L 4 6 L 5 6 L 5 5 L 4 5 z M 4 7 L 4 8 L 5 8 L 5 7 L 4 7 z M 4 9 L 4 11 L 5 11 L 5 9 L 4 9 z " />
</svg>
