<?xml version="1.0" encoding="UTF-8" standalone="no"?>
<svg
   width="16"
   height="16"
   enable-background="new"
   version="1.1"
   id="svg4"
   sodipodi:docname="multimedia-video-player-symbolic.svg"
   inkscape:version="1.1.1 (3bf5ae0d25, 2021-09-20, custom)"
   xmlns:inkscape="http://www.inkscape.org/namespaces/inkscape"
   xmlns:sodipodi="http://sodipodi.sourceforge.net/DTD/sodipodi-0.dtd"
   xmlns="http://www.w3.org/2000/svg"
   xmlns:svg="http://www.w3.org/2000/svg">
  <defs
     id="defs8" />
  <sodipodi:namedview
     id="namedview6"
     pagecolor="#ffffff"
     bordercolor="#666666"
     borderopacity="1.0"
     inkscape:pageshadow="2"
     inkscape:pageopacity="0.0"
     inkscape:pagecheckerboard="0"
     showgrid="false"
     inkscape:zoom="31.333669"
     inkscape:cx="6.0637648"
     inkscape:cy="8.1222534"
     inkscape:window-width="1920"
     inkscape:window-height="996"
     inkscape:window-x="0"
     inkscape:window-y="0"
     inkscape:window-maximized="1"
     inkscape:current-layer="svg4" />
  <path
     id="path2"
     style="fill:#dedede;fill-opacity:1;stroke-width:1.00974"
     d="M 3.9941406 2.0019531 C 3.9628706 2.0032331 3.9303805 2.0057856 3.8984375 2.0097656 C 3.6421886 2.0409063 3.4313086 2.1508746 3.2597656 2.3398438 C 3.0882228 2.5288155 3 2.7486011 3 3.0019531 L 3 12.998047 C 3 13.251399 3.0882374 13.47314 3.2597656 13.662109 C 3.4313086 13.851078 3.6422194 13.961031 3.8984375 13.992188 C 4.1546862 14.023347 4.3876718 13.9675 4.6015625 13.824219 L 12.552734 8.8261719 C 12.741214 8.6994959 12.873333 8.5261331 12.945312 8.3164062 C 13.017333 8.1045997 13.017332 7.8953137 12.945312 7.6855469 C 12.873293 7.47581 12.744974 7.3064702 12.558594 7.1777344 L 4.6015625 2.1777344 C 4.4150237 2.050541 4.2130296 1.9929732 3.9941406 2.0019531 z M 4 3 L 12 8 L 4 13 L 4 3 z " />
</svg>
