<?xml version="1.0" encoding="UTF-8" standalone="no"?>
<!-- Created with Inkscape (http://www.inkscape.org/) -->

<svg
   width="16"
   height="16"
   viewBox="0 0 4.2333332 4.2333335"
   version="1.1"
   id="svg11945"
   inkscape:version="1.1.1 (3bf5ae0d25, 2021-09-20, custom)"
   sodipodi:docname="multimedia-photo-manager-symbolic.svg"
   xmlns:inkscape="http://www.inkscape.org/namespaces/inkscape"
   xmlns:sodipodi="http://sodipodi.sourceforge.net/DTD/sodipodi-0.dtd"
   xmlns="http://www.w3.org/2000/svg"
   xmlns:svg="http://www.w3.org/2000/svg">
  <sodipodi:namedview
     id="namedview11947"
     pagecolor="#ffffff"
     bordercolor="#666666"
     borderopacity="1.0"
     inkscape:pageshadow="2"
     inkscape:pageopacity="0.0"
     inkscape:pagecheckerboard="0"
     inkscape:document-units="px"
     showgrid="false"
     units="in"
     inkscape:zoom="34.161662"
     inkscape:cx="5.2105193"
     inkscape:cy="9.2354991"
     inkscape:window-width="1920"
     inkscape:window-height="996"
     inkscape:window-x="0"
     inkscape:window-y="0"
     inkscape:window-maximized="1"
     inkscape:current-layer="svg11945"
     showguides="false" />
  <defs
     id="defs11942" />
  <path
     id="path843"
     style="fill:#dedede;stroke-width:2;stroke-linejoin:round;fill-opacity:1"
     d="M 8 0 A 2.9999999 8.0000002 0 0 0 5.4882812 3.6445312 A 8 2.9999998 30 0 0 1.0722656 4 A 8 2.9999998 30 0 0 2.9707031 8 A 2.9999998 8 60 0 0 1.0722656 12 A 2.9999998 8 60 0 0 5.4882812 12.355469 A 2.9999999 8.0000002 0 0 0 8 16 A 2.9999999 8.0000002 0 0 0 10.511719 12.355469 A 8 2.9999998 30 0 0 14.927734 12 A 8 2.9999998 30 0 0 13.029297 8 A 2.9999998 8 60 0 0 14.927734 4 A 2.9999998 8 60 0 0 10.511719 3.6445312 A 2.9999999 8.0000002 0 0 0 8 0 z M 8 1 A 2.0000001 6.9999997 0 0 1 8.2773438 1.0683594 A 2.0000001 6.9999997 0 0 1 8.3046875 1.0878906 A 2.0000001 6.9999997 0 0 1 8.5429688 1.265625 A 2.0000001 6.9999998 0 0 1 8.6152344 1.3554688 A 2.0000001 6.9999997 0 0 1 8.8066406 1.5996094 A 2.0000001 6.9999998 0 0 1 8.8085938 1.6015625 A 2.0000001 6.9999997 0 0 1 8.84375 1.6660156 A 2.0000001 6.9999997 0 0 1 9.0429688 2.03125 A 2.0000001 6.9999998 0 0 1 9.1464844 2.2871094 A 2.0000001 6.9999997 0 0 1 9.2695312 2.5957031 A 2.0000001 6.9999998 0 0 1 9.3339844 2.8066406 A 2.0000001 6.9999997 0 0 1 9.4726562 3.2773438 A 2.0000001 6.9999998 0 0 1 9.4785156 3.2949219 A 2.0000001 6.9999997 0 0 1 9.5039062 3.4101562 A 2.0000001 6.9999997 0 0 1 9.6269531 3.9335938 A 2.9999998 8 60 0 0 9.6230469 3.9355469 A 2.0000001 6.9999998 0 0 1 9.7910156 4.8964844 A 2.0000001 6.9999998 60 0 1 9.7929688 4.8964844 A 2.0000001 6.9999998 60 0 1 10.703125 4.5625 A 2.9999999 8.0000002 0 0 0 10.703125 4.5585938 A 2.0000001 6.9999997 60 0 1 11.308594 4.3730469 A 2.0000001 6.9999998 60 0 1 11.310547 4.3730469 A 2.0000001 6.9999998 60 0 1 11.447266 4.3378906 A 2.0000001 6.9999997 60 0 1 11.964844 4.2148438 A 2.0000001 6.9999998 60 0 1 12.121094 4.1875 A 2.0000001 6.9999997 60 0 1 12.53125 4.1269531 A 2.0000001 6.9999998 60 0 1 12.695312 4.1113281 A 2.0000001 6.9999997 60 0 1 12.841797 4.0976562 A 2.0000001 6.9999997 60 0 1 13.025391 4.1035156 A 2.0000001 6.9999998 60 0 1 13.189453 4.1074219 A 2.0000001 6.9999997 60 0 1 13.460938 4.1464844 A 2.0000001 6.9999998 60 0 1 13.576172 4.1699219 A 2.0000001 6.9999997 60 0 1 13.816406 4.2734375 A 2.0000001 6.9999998 60 0 1 13.871094 4.3007812 A 2.0000001 6.9999997 60 0 1 14.0625 4.5 A 2.0000001 6.9999997 60 0 1 14.142578 4.7714844 A 2.0000001 6.9999998 60 0 1 14.142578 4.7734375 A 2.0000001 6.9999997 60 0 1 14.107422 5.09375 A 2.0000001 6.9999998 60 0 1 13.984375 5.4140625 A 2.0000001 6.9999997 60 0 1 13.960938 5.4726562 A 2.0000001 6.9999998 60 0 1 13.958984 5.4765625 A 2.0000001 6.9999998 60 0 1 13.802734 5.7363281 A 2.0000001 6.9999997 60 0 1 13.689453 5.9199219 A 2.0000001 6.9999998 60 0 1 13.466797 6.2070312 A 2.0000001 6.9999997 60 0 1 13.332031 6.3789062 A 2.0000001 6.9999998 60 0 1 12.974609 6.7617188 A 2.0000001 6.9999997 60 0 1 12.882812 6.8613281 A 2.0000001 6.9999998 60 0 1 12.867188 6.875 A 2.0000001 6.9999998 60 0 1 12.480469 7.2402344 A 2.0000001 6.9999997 60 0 1 12.333984 7.3769531 A 8 2.9999998 30 0 0 12.332031 7.375 A 2.0000001 6.9999998 60 0 1 11.585938 8 A 6.9999998 2.0000001 30 0 1 12.333984 8.6230469 A 6.9999998 2.0000001 30 0 1 12.882812 9.1386719 A 6.9999998 2.0000001 30 0 1 13.701172 10.095703 A 6.9999997 2.0000001 30 0 1 13.705078 10.099609 A 6.9999998 2.0000001 30 0 1 13.707031 10.103516 A 6.9999998 2.0000001 30 0 1 13.960938 10.527344 A 6.9999998 2.0000001 30 0 1 14.107422 10.90625 A 6.9999998 2.0000001 30 0 1 14.142578 11.224609 A 6.9999997 2.0000001 30 0 1 14.140625 11.238281 A 6.9999998 2.0000001 30 0 1 14.0625 11.5 A 6.9999997 2.0000001 30 0 1 13.865234 11.705078 A 6.9999997 2.0000001 30 0 1 13.560547 11.837891 A 6.9999998 2.0000001 30 0 1 13.458984 11.853516 A 6.9999997 2.0000001 30 0 1 13.142578 11.900391 A 6.9999997 2.0000001 30 0 1 13.054688 11.898438 A 6.9999997 2.0000001 30 0 1 12.646484 11.886719 A 6.9999998 2.0000001 30 0 1 12.398438 11.853516 A 6.9999997 2.0000001 30 0 1 12.041016 11.800781 A 6.9999998 2.0000001 30 0 1 11.814453 11.748047 A 6.9999997 2.0000001 30 0 1 11.371094 11.642578 A 6.9999998 2.0000001 30 0 1 11.0625 11.550781 A 6.9999997 2.0000001 30 0 1 10.703125 11.441406 A 2.9999999 8.0000002 0 0 0 10.703125 11.4375 A 6.9999998 2.0000001 30 0 1 9.7929688 11.103516 A 6.9999997 2.0000001 30 0 1 9.7910156 11.103516 A 2.0000001 6.9999998 0 0 1 9.6230469 12.064453 A 8 2.9999998 30 0 0 9.6269531 12.066406 A 2.0000001 6.9999997 0 0 1 9.5039062 12.589844 A 2.0000001 6.9999998 0 0 1 9.4785156 12.705078 A 2.0000001 6.9999997 0 0 1 9.4726562 12.722656 A 2.0000001 6.9999997 0 0 1 9.3339844 13.193359 A 2.0000001 6.9999998 0 0 1 9.2695312 13.404297 A 2.0000001 6.9999997 0 0 1 9.1464844 13.712891 A 2.0000001 6.9999998 0 0 1 9.0429688 13.96875 A 2.0000001 6.9999997 0 0 1 8.84375 14.333984 A 2.0000001 6.9999998 0 0 1 8.8085938 14.398438 A 2.0000001 6.9999997 0 0 1 8.8066406 14.400391 A 2.0000001 6.9999997 0 0 1 8.6152344 14.644531 A 2.0000001 6.9999998 0 0 1 8.5429688 14.734375 A 2.0000001 6.9999997 0 0 1 8.3046875 14.912109 A 2.0000001 6.9999998 0 0 1 8.2773438 14.931641 A 2.0000001 6.9999997 0 0 1 8 15 A 2.0000001 6.9999998 0 0 1 7.7304688 14.933594 A 2.0000001 6.9999998 0 0 1 7.4648438 14.740234 A 2.0000001 6.9999998 0 0 1 7.2382812 14.457031 A 2.0000001 6.9999997 0 0 1 7.2070312 14.417969 A 2.0000001 6.9999998 0 0 1 6.96875 13.986328 A 2.0000001 6.9999998 0 0 1 6.5488281 12.796875 A 2.0000001 6.9999998 0 0 1 6.3847656 12.101562 A 2.0000001 6.9999997 0 0 1 6.3769531 12.064453 A 2.0000001 6.9999998 0 0 1 6.2089844 11.103516 A 2.0000001 6.9999998 60 0 1 5.296875 11.4375 A 2.9999999 8.0000002 0 0 0 5.296875 11.441406 A 2.0000001 6.9999997 60 0 1 4.9375 11.550781 A 2.0000001 6.9999998 60 0 1 4.6289062 11.642578 A 2.0000001 6.9999997 60 0 1 4.1855469 11.748047 A 2.0000001 6.9999998 60 0 1 3.9589844 11.800781 A 2.0000001 6.9999997 60 0 1 3.6015625 11.853516 A 2.0000001 6.9999998 60 0 1 3.3535156 11.886719 A 2.0000001 6.9999997 60 0 1 2.9453125 11.898438 A 2.0000001 6.9999997 60 0 1 2.8613281 11.900391 A 2.0000001 6.9999998 60 0 1 2.8574219 11.900391 A 2.0000001 6.9999997 60 0 1 2.5410156 11.853516 A 2.0000001 6.9999998 60 0 1 2.4394531 11.837891 A 2.0000001 6.9999997 60 0 1 2.1347656 11.705078 A 2.0000001 6.9999997 60 0 1 1.9375 11.5 A 2.0000001 6.9999997 60 0 1 1.8574219 11.228516 A 2.0000001 6.9999998 60 0 1 1.8828125 10.990234 A 2.0000001 6.9999997 60 0 1 1.8925781 10.90625 A 2.0000001 6.9999998 60 0 1 2.015625 10.585938 A 2.0000001 6.9999997 60 0 1 2.0410156 10.523438 A 2.0000001 6.9999998 60 0 1 2.1972656 10.263672 A 2.0000001 6.9999997 60 0 1 2.3105469 10.080078 A 2.0000001 6.9999998 60 0 1 2.5332031 9.7929688 A 2.0000001 6.9999997 60 0 1 2.6679688 9.6210938 A 2.0000001 6.9999998 60 0 1 3.0253906 9.2382812 A 2.0000001 6.9999997 60 0 1 3.1328125 9.125 A 2.0000001 6.9999998 60 0 1 3.5195312 8.7597656 A 2.0000001 6.9999997 60 0 1 3.6660156 8.6230469 A 8 2.9999998 30 0 0 3.6679688 8.625 A 2.0000001 6.9999998 60 0 1 4.4140625 8 A 6.9999998 2.0000001 30 0 1 3.6679688 7.375 A 2.9999998 8 60 0 0 3.6660156 7.3769531 A 6.9999997 2.0000001 30 0 1 3.5195312 7.2402344 A 6.9999998 2.0000001 30 0 1 3.1328125 6.875 A 6.9999997 2.0000001 30 0 1 3.0253906 6.7617188 A 6.9999998 2.0000001 30 0 1 2.6679688 6.3789062 A 6.9999997 2.0000001 30 0 1 2.5332031 6.2070312 A 6.9999998 2.0000001 30 0 1 2.3105469 5.9199219 A 6.9999997 2.0000001 30 0 1 2.1972656 5.7363281 A 6.9999998 2.0000001 30 0 1 2.0410156 5.4765625 A 6.9999997 2.0000001 30 0 1 2.015625 5.4140625 A 6.9999998 2.0000001 30 0 1 1.8925781 5.09375 A 6.9999997 2.0000001 30 0 1 1.8828125 5.0097656 A 6.9999998 2.0000001 30 0 1 1.8574219 4.7714844 A 6.9999997 2.0000001 30 0 1 1.9375 4.5 A 6.9999998 2.0000001 30 0 1 2.1386719 4.2929688 A 6.9999997 2.0000001 30 0 1 2.2988281 4.2226562 A 6.9999998 2.0000001 30 0 1 2.453125 4.1582031 A 6.9999997 2.0000001 30 0 1 2.6601562 4.1289062 A 6.9999998 2.0000001 30 0 1 2.8808594 4.0996094 A 6.9999997 2.0000001 30 0 1 2.9003906 4.0976562 A 6.9999997 2.0000001 30 0 1 3.2207031 4.109375 A 6.9999998 2.0000001 30 0 1 3.390625 4.1152344 A 6.9999997 2.0000001 30 0 1 3.9609375 4.1992188 A 6.9999998 2.0000001 30 0 1 3.9824219 4.203125 A 6.9999997 2.0000001 30 0 1 4.2128906 4.2578125 A 6.9999997 2.0000001 30 0 1 4.6269531 4.3554688 A 6.9999998 2.0000001 30 0 1 4.9453125 4.453125 A 6.9999997 2.0000001 30 0 1 5.296875 4.5585938 A 2.9999999 8.0000002 0 0 0 5.296875 4.5625 A 6.9999998 2.0000001 30 0 1 6.2089844 4.8964844 A 2.0000001 6.9999998 0 0 1 6.3769531 3.9355469 A 2.0000001 6.9999998 0 0 1 6.3847656 3.8984375 A 2.0000001 6.9999998 0 0 1 6.5488281 3.203125 A 2.0000001 6.9999998 0 0 1 6.96875 2.0136719 A 2.0000001 6.9999998 0 0 1 7.2070312 1.5820312 A 2.0000001 6.9999997 0 0 1 7.2382812 1.5429688 A 2.0000001 6.9999998 0 0 1 7.4648438 1.2597656 A 2.0000001 6.9999998 0 0 1 7.7304688 1.0664062 A 2.0000001 6.9999997 0 0 1 8 1 z "
     transform="scale(0.26458333)" />
</svg>
