<?xml version="1.0" encoding="UTF-8" standalone="no"?>
<!-- Created with Inkscape (http://www.inkscape.org/) -->

<svg
   width="16"
   height="16"
   viewBox="0 0 4.2333332 4.2333335"
   version="1.1"
   id="svg11945"
   inkscape:version="1.1.1 (3bf5ae0d25, 2021-09-20, custom)"
   sodipodi:docname="drive-harddisk-symbolic.svg"
   xmlns:inkscape="http://www.inkscape.org/namespaces/inkscape"
   xmlns:sodipodi="http://sodipodi.sourceforge.net/DTD/sodipodi-0.dtd"
   xmlns="http://www.w3.org/2000/svg"
   xmlns:svg="http://www.w3.org/2000/svg">
  <sodipodi:namedview
     id="namedview11947"
     pagecolor="#ffffff"
     bordercolor="#666666"
     borderopacity="1.0"
     inkscape:pageshadow="2"
     inkscape:pageopacity="0.0"
     inkscape:pagecheckerboard="0"
     inkscape:document-units="px"
     showgrid="false"
     units="in"
     inkscape:zoom="11.313709"
     inkscape:cx="-15.644737"
     inkscape:cy="-3.314563"
     inkscape:window-width="1920"
     inkscape:window-height="996"
     inkscape:window-x="0"
     inkscape:window-y="0"
     inkscape:window-maximized="1"
     inkscape:current-layer="svg11945"
     showguides="true" />
  <defs
     id="defs11942" />
  <path
     id="rect22551"
     style="fill:#dedede;stroke-width:0.999999;stroke-linejoin:round"
     d="M 3.9980469 1 C 3.0960395 1.0012187 2.3064487 1.6060119 2.0703125 2.4765625 L 0 10 L 0 13 C 0 14.108 0.8919999 15 2 15 L 14 15 C 15.108 15 16 14.108 16 13 L 16 10 L 13.925781 2.4765625 C 13.689645 1.606012 12.900054 1.001219 11.998047 1 L 3.9980469 1 z M 3.9980469 2.0039062 L 11.998047 2.0039062 C 12.448651 2.0013462 12.845317 2.3004472 12.966797 2.734375 L 14.96875 10 L 1.0390625 10 L 3.0371094 2.734375 C 3.1578124 2.303245 3.5503397 2.0048601 3.9980469 2.0039062 z M 1 11 L 15 11 L 15 13 C 15 13.554 14.554 14 14 14 L 2 14 C 1.446 14 1 13.554 1 13 L 1 11 z M 10.5 12 A 0.50000003 0.50000003 0 0 0 10 12.5 A 0.50000003 0.50000003 0 0 0 10.5 13 A 0.50000003 0.50000003 0 0 0 11 12.5 A 0.50000003 0.50000003 0 0 0 10.5 12 z M 12.5 12 A 0.50000003 0.50000003 0 0 0 12 12.5 A 0.50000003 0.50000003 0 0 0 12.5 13 A 0.50000003 0.50000003 0 0 0 13 12.5 A 0.50000003 0.50000003 0 0 0 12.5 12 z "
     transform="scale(0.26458333)" />
</svg>
