<?xml version="1.0" encoding="UTF-8" standalone="no"?>
<!-- Created with Inkscape (http://www.inkscape.org/) -->

<svg
   width="16"
   height="16"
   viewBox="0 0 4.2333332 4.2333335"
   version="1.1"
   id="svg11945"
   inkscape:version="1.1.1 (3bf5ae0d25, 2021-09-20, custom)"
   sodipodi:docname="org.gnome.Clocks-symbolic.svg"
   xmlns:inkscape="http://www.inkscape.org/namespaces/inkscape"
   xmlns:sodipodi="http://sodipodi.sourceforge.net/DTD/sodipodi-0.dtd"
   xmlns="http://www.w3.org/2000/svg"
   xmlns:svg="http://www.w3.org/2000/svg">
  <sodipodi:namedview
     id="namedview11947"
     pagecolor="#ffffff"
     bordercolor="#666666"
     borderopacity="1.0"
     inkscape:pageshadow="2"
     inkscape:pageopacity="0.0"
     inkscape:pagecheckerboard="0"
     inkscape:document-units="px"
     showgrid="false"
     units="in"
     inkscape:zoom="26.125"
     inkscape:cx="5.2440191"
     inkscape:cy="8.8995215"
     inkscape:window-width="1920"
     inkscape:window-height="996"
     inkscape:window-x="0"
     inkscape:window-y="0"
     inkscape:window-maximized="1"
     inkscape:current-layer="svg11945" />
  <defs
     id="defs11942" />
  <path
     id="path923"
     style="fill:#dedede;fill-opacity:1;stroke-width:4.28568;stroke-linecap:round;stroke-linejoin:round"
     d="M 7.5 0 C 3.3578646 0 0 3.3578646 0 7.5 C 0 11.642136 3.3578646 15 7.5 15 C 11.642136 15 15 11.642136 15 7.5 C 15 3.3578646 11.642136 0 7.5 0 z M 7.5 1 C 11.089851 1 14 3.9101493 14 7.5 C 14 11.089851 11.089851 14 7.5 14 C 3.9101493 14 1 11.089851 1 7.5 C 1 3.9101493 3.9101493 1 7.5 1 z M 7 2 L 7 8 L 10.097656 9.8652344 L 10.597656 9 L 8 7.5 L 8 2 L 7 2 z "
     transform="scale(0.26458333)" />
</svg>
