<?xml version="1.0" encoding="UTF-8" standalone="no"?>
<!-- Created with Inkscape (http://www.inkscape.org/) -->

<svg
   width="16"
   height="16"
   viewBox="0 0 4.2333332 4.2333335"
   version="1.1"
   id="svg11945"
   inkscape:version="1.1.1 (3bf5ae0d25, 2021-09-20, custom)"
   sodipodi:docname="system-users-symbolic.svg"
   xmlns:inkscape="http://www.inkscape.org/namespaces/inkscape"
   xmlns:sodipodi="http://sodipodi.sourceforge.net/DTD/sodipodi-0.dtd"
   xmlns="http://www.w3.org/2000/svg"
   xmlns:svg="http://www.w3.org/2000/svg">
  <sodipodi:namedview
     id="namedview11947"
     pagecolor="#ffffff"
     bordercolor="#666666"
     borderopacity="1.0"
     inkscape:pageshadow="2"
     inkscape:pageopacity="0.0"
     inkscape:pagecheckerboard="0"
     inkscape:document-units="px"
     showgrid="false"
     units="in"
     inkscape:zoom="6.53125"
     inkscape:cx="-3.9808612"
     inkscape:cy="21.052632"
     inkscape:window-width="1920"
     inkscape:window-height="996"
     inkscape:window-x="0"
     inkscape:window-y="0"
     inkscape:window-maximized="1"
     inkscape:current-layer="svg11945"
     showguides="false" />
  <defs
     id="defs11942" />
  <path
     id="path923"
     style="fill:#dedede;fill-opacity:1;stroke-width:3.99999;stroke-linecap:round;stroke-linejoin:round"
     d="M 8 1 C 6.3431455 0.99999992 4.9999996 2.3431459 5 4 C 4.9999996 5.6568542 6.3431455 7 8 7 C 9.6568538 7 11 5.6568542 11 4 C 11 2.3431459 9.6568538 0.99999992 8 1 z M 8 2 A 2.0000001 2.0000001 0 0 1 10 4 A 2.0000001 2.0000001 0 0 1 8 6 A 2.0000001 2.0000001 0 0 1 6 4 A 2.0000001 2.0000001 0 0 1 8 2 z M 8 9 C 4.6862923 8.9999996 2 11.686291 2 15 L 14 15 C 14 11.686291 11.313709 8.9999996 8 9 z M 8 10 C 10.419018 9.9999996 12.437186 11.717675 12.900391 14 L 3.0996094 14 C 3.5628141 11.717675 5.5809824 9.9999996 8 10 z "
     transform="scale(0.26458333)" />
</svg>
