<?xml version="1.0" encoding="UTF-8" standalone="no"?>
<svg
   viewbox="0 0 200 200"
   version="1.1"
   id="svg4"
   sodipodi:docname="1password.svg"
   width="64"
   height="64"
   inkscape:version="1.1.1 (3bf5ae0d25, 2021-09-20, custom)"
   xmlns:inkscape="http://www.inkscape.org/namespaces/inkscape"
   xmlns:sodipodi="http://sodipodi.sourceforge.net/DTD/sodipodi-0.dtd"
   xmlns:xlink="http://www.w3.org/1999/xlink"
   xmlns="http://www.w3.org/2000/svg"
   xmlns:svg="http://www.w3.org/2000/svg">
  <defs
     id="defs8">
    <linearGradient
       inkscape:collect="always"
       id="linearGradient4925">
      <stop
         style="stop-color:#3fb9ed;stop-opacity:1"
         offset="0"
         id="stop4921" />
      <stop
         style="stop-color:#0e6ef4;stop-opacity:1"
         offset="1"
         id="stop4923" />
    </linearGradient>
    <linearGradient
       inkscape:collect="always"
       xlink:href="#linearGradient4925"
       id="linearGradient4927"
       x1="56"
       y1="10"
       x2="10"
       y2="56"
       gradientUnits="userSpaceOnUse" />
  </defs>
  <sodipodi:namedview
     id="namedview6"
     pagecolor="#ffffff"
     bordercolor="#666666"
     borderopacity="1.0"
     inkscape:pageshadow="2"
     inkscape:pageopacity="0.0"
     inkscape:pagecheckerboard="0"
     showgrid="false"
     inkscape:zoom="11.313708"
     inkscape:cx="44.636116"
     inkscape:cy="41.144776"
     inkscape:window-width="1920"
     inkscape:window-height="996"
     inkscape:window-x="0"
     inkscape:window-y="0"
     inkscape:window-maximized="1"
     inkscape:current-layer="svg4"
     showguides="false" />
  <path
     d="M 2,32 C 2,10.4 10.4,2 32,2 53.6,2 62,10.4 62,32 62,53.6 53.6,62 32,62 10.4,62 2,53.6 2,32"
     id="path2"
     style="stroke-width:0.3;fill:url(#linearGradient4927);fill-opacity:1" />
  <path
     id="path1095"
     style="fill:#ffffff;fill-opacity:1;stroke-width:3.2;stroke-linecap:round;stroke-linejoin:round"
     d="M 32 12 A 20 20 0 0 0 12 32 A 20 20 0 0 0 32 52 A 20 20 0 0 0 39.542969 50.478516 L 38.144531 48.878906 A 18 18 0 0 1 32 50 A 18 18 0 0 1 14 32 A 18 18 0 0 1 32 14 A 18 18 0 0 1 50 32 A 18 18 0 0 1 47.072266 41.75 L 48.431641 43.337891 A 20 20 0 0 0 52 32 A 20 20 0 0 0 32 12 z M 32 26 C 29.790861 26 28 27.790861 28 30 C 28.0037 31.451271 28.787303 32.744435 29.984375 33.443359 L 29 39 L 35 39 L 34.015625 33.443359 C 35.212693 32.744435 35.99628 31.451271 36 30 C 36 27.790861 34.209139 26 32 26 z M 32 28 C 33.104569 28 34 28.895431 34 30 C 33.9981 30.414165 33.867278 30.804563 33.642578 31.128906 C 33.620568 31.160686 33.598019 31.192196 33.574219 31.222656 C 33.569419 31.228856 33.563484 31.234134 33.558594 31.240234 C 33.527134 31.279524 33.495307 31.318614 33.460938 31.355469 C 33.459637 31.356869 33.458331 31.358075 33.457031 31.359375 C 33.420051 31.398815 33.381961 31.436245 33.341797 31.472656 C 33.310157 31.501336 33.277681 31.529971 33.244141 31.556641 C 33.226371 31.570771 33.207733 31.584106 33.189453 31.597656 C 33.172243 31.610416 33.154369 31.622536 33.136719 31.634766 C 33.113999 31.650486 33.091799 31.666831 33.068359 31.681641 C 33.039729 31.699741 33.010139 31.715722 32.980469 31.732422 C 32.960799 31.743492 32.941985 31.755195 32.921875 31.765625 C 32.896765 31.778655 32.86954 31.788761 32.84375 31.800781 C 32.81976 31.811951 32.796044 31.823724 32.771484 31.833984 C 32.721444 31.854914 32.671408 31.875568 32.619141 31.892578 L 33 37 L 31 37 L 31.380859 31.892578 C 31.329399 31.875828 31.279768 31.856487 31.230469 31.835938 C 31.230469 31.835938 31.228516 31.833984 31.228516 31.833984 C 31.203996 31.823724 31.18021 31.811941 31.15625 31.800781 C 31.13037 31.788731 31.103345 31.778705 31.078125 31.765625 C 31.058065 31.755215 31.039141 31.743462 31.019531 31.732422 C 30.989861 31.715722 30.960271 31.699741 30.931641 31.681641 C 30.908221 31.666831 30.885981 31.650476 30.863281 31.634766 C 30.845591 31.622526 30.827787 31.610426 30.810547 31.597656 C 30.792267 31.584116 30.773629 31.570771 30.755859 31.556641 C 30.722329 31.529961 30.689853 31.501336 30.658203 31.472656 C 30.618033 31.436246 30.579953 31.398816 30.542969 31.359375 L 30.539062 31.355469 C 30.504693 31.318609 30.472866 31.279529 30.441406 31.240234 C 30.436506 31.234134 30.430611 31.228836 30.425781 31.222656 C 30.401981 31.192196 30.379432 31.160686 30.357422 31.128906 C 30.132775 30.804597 30.001901 30.414165 30 30 C 30 28.895431 30.895431 28 32 28 z " />
</svg>
