<?xml version="1.0" encoding="UTF-8" standalone="no"?>
<svg
   viewbox="0 0 200 200"
   version="1.1"
   id="svg4"
   sodipodi:docname="accessories-text-editor.svg"
   width="64"
   height="64"
   inkscape:version="1.1.1 (3bf5ae0d25, 2021-09-20, custom)"
   xmlns:inkscape="http://www.inkscape.org/namespaces/inkscape"
   xmlns:sodipodi="http://sodipodi.sourceforge.net/DTD/sodipodi-0.dtd"
   xmlns="http://www.w3.org/2000/svg"
   xmlns:svg="http://www.w3.org/2000/svg">
  <defs
     id="defs8" />
  <sodipodi:namedview
     id="namedview6"
     pagecolor="#ffffff"
     bordercolor="#666666"
     borderopacity="1.0"
     inkscape:pageshadow="2"
     inkscape:pageopacity="0.0"
     inkscape:pagecheckerboard="0"
     showgrid="false"
     inkscape:zoom="8"
     inkscape:cx="31.5"
     inkscape:cy="53.5625"
     inkscape:window-width="1920"
     inkscape:window-height="996"
     inkscape:window-x="0"
     inkscape:window-y="0"
     inkscape:window-maximized="1"
     inkscape:current-layer="svg4"
     showguides="true" />
  <path
     d="M 2,32 C 2,10.4 10.4,2 32,2 53.6,2 62,10.4 62,32 62,53.6 53.6,62 32,62 10.4,62 2,53.6 2,32"
     id="path2"
     style="stroke-width:0.3;fill:#f56a4e;fill-opacity:1" />
  <path
     id="path857"
     style="color:#000000;fill:#ffffff;stroke:none;stroke-width:0.99356;stroke-linecap:round;stroke-linejoin:round;-inkscape-stroke:none"
     d="M 18 12 C 16.892 12 16 12.892 16 14 L 16 20 L 13 20 L 13 22 L 18 22 L 18 14 L 47 14 L 47 35 L 40.888672 43.154297 L 42.464844 44.542969 L 49 35.753906 L 49 14 C 49 12.892 48.108 12 47 12 L 18 12 z M 23 20 L 23 22 L 41 22 L 41 20 L 23 20 z M 16 26 L 16 30 L 13 30 L 13 32 L 18 32 L 18 26 L 16 26 z M 23 28 L 23 30 L 41 30 L 41 28 L 23 28 z M 16 36 L 16 40 L 13 40 L 13 42 L 18 42 L 18 36 L 16 36 z M 23 36 L 23 38 L 33 38 L 33 36 L 23 36 z M 16 46 L 16 47.109375 C 16.0038 50.087881 18.619508 51.966459 20.890625 52 L 49 52 L 49 50 L 21 50 C 19.338 50 18 48.662 18 47 L 18 46 L 16 46 z " />
</svg>
