<?xml version="1.0" encoding="UTF-8" standalone="no"?>
<svg
   viewbox="0 0 200 200"
   version="1.1"
   id="svg4"
   sodipodi:docname="accessories-character-map.svg"
   width="64"
   height="64"
   inkscape:version="1.1.1 (3bf5ae0d25, 2021-09-20, custom)"
   xmlns:inkscape="http://www.inkscape.org/namespaces/inkscape"
   xmlns:sodipodi="http://sodipodi.sourceforge.net/DTD/sodipodi-0.dtd"
   xmlns="http://www.w3.org/2000/svg"
   xmlns:svg="http://www.w3.org/2000/svg">
  <defs
     id="defs8" />
  <sodipodi:namedview
     id="namedview6"
     pagecolor="#ffffff"
     bordercolor="#666666"
     borderopacity="1.0"
     inkscape:pageshadow="2"
     inkscape:pageopacity="0.0"
     inkscape:pagecheckerboard="0"
     showgrid="false"
     inkscape:zoom="7.9999996"
     inkscape:cx="36.875002"
     inkscape:cy="41.187502"
     inkscape:window-width="1920"
     inkscape:window-height="1000"
     inkscape:window-x="0"
     inkscape:window-y="0"
     inkscape:window-maximized="1"
     inkscape:current-layer="svg4"
     showguides="false" />
  <path
     d="M 2,32 C 2,10.4 10.4,2 32,2 53.6,2 62,10.4 62,32 62,53.6 53.6,62 32,62 10.4,62 2,53.6 2,32"
     id="path2"
     style="stroke-width:0.3;fill:#777c8f;fill-opacity:1" />
  <path
     id="rect843"
     style="fill:#ffffff;stroke:none;stroke-width:4;stroke-linecap:round;stroke-linejoin:round"
     d="M 15 13 C 13.892 13 13 13.892 13 15 L 13 51 L 15 51 L 15 15 L 51 15 L 51 13 L 15 13 z M 34.363281 18 L 29 22.5 L 30.285156 24.03125 L 35.648438 19.53125 L 34.363281 18 z M 49 18 L 49 46 C 49 47.662 47.662 49 46 49 L 18.5 49 L 18.5 51 L 46 51 C 48.77 51 51 48.77 51 46 L 51 18 L 49 18 z M 32 27 A 9 9 0 0 0 23 36 A 9 9 0 0 0 32 45 A 9 9 0 0 0 34 44.751953 L 34 42.707031 A 7 7 0 0 1 32 43 A 7 7 0 0 1 25 36 A 7 7 0 0 1 32 29 A 7 7 0 0 1 39 36 L 39 45 L 41 45 L 41 36 A 9 9 0 0 0 32 27 z " />
</svg>
