<?xml version="1.0" encoding="UTF-8" standalone="no"?>
<svg
   viewbox="0 0 200 200"
   version="1.1"
   id="svg4"
   sodipodi:docname="accessories-ebook-reader.svg"
   width="64"
   height="64"
   inkscape:version="1.1.1 (3bf5ae0d25, 2021-09-20, custom)"
   xmlns:inkscape="http://www.inkscape.org/namespaces/inkscape"
   xmlns:sodipodi="http://sodipodi.sourceforge.net/DTD/sodipodi-0.dtd"
   xmlns="http://www.w3.org/2000/svg"
   xmlns:svg="http://www.w3.org/2000/svg">
  <defs
     id="defs8" />
  <sodipodi:namedview
     id="namedview6"
     pagecolor="#ffffff"
     bordercolor="#666666"
     borderopacity="1.0"
     inkscape:pageshadow="2"
     inkscape:pageopacity="0.0"
     inkscape:pagecheckerboard="0"
     showgrid="false"
     inkscape:zoom="5.6568543"
     inkscape:cx="0.1767767"
     inkscape:cy="54.00528"
     inkscape:window-width="1920"
     inkscape:window-height="1000"
     inkscape:window-x="0"
     inkscape:window-y="0"
     inkscape:window-maximized="1"
     inkscape:current-layer="svg4"
     showguides="true" />
  <path
     d="M 2,32 C 2,10.4 10.4,2 32,2 53.6,2 62,10.4 62,32 62,53.6 53.6,62 32,62 10.4,62 2,53.6 2,32"
     id="path2"
     style="stroke-width:0.3;fill:#696bda;fill-opacity:1" />
  <path
     id="path2735"
     style="color:#000000;fill:#ffffff;stroke:none;stroke-width:1.00019;stroke-linecap:square;stroke-linejoin:round;-inkscape-stroke:none"
     d="M 21 15 C 18.696279 15 16.611125 15.317339 15.013672 15.876953 C 14.214945 16.15676 13.532919 16.491932 12.990234 16.941406 C 12.447549 17.39088 12 18.029728 12 18.802734 L 12 44.990234 L 14 45.009766 L 14 18.802734 C 14 18.801866 14.000643 18.705454 14.267578 18.484375 C 14.534513 18.263288 15.024882 17.994915 15.673828 17.767578 C 16.97172 17.312906 18.885573 17 21 17 C 23.114427 17 25.02828 17.312906 26.326172 17.767578 C 26.975118 17.994915 27.465487 18.263288 27.732422 18.484375 C 27.999357 18.705461 28 18.801866 28 18.802734 L 28 41.632812 C 27.661619 41.457363 27.386613 41.239836 26.986328 41.099609 C 25.388875 40.539995 23.303721 40.222656 21 40.222656 C 19.944158 40.222656 18.938108 40.291796 18 40.417969 L 18 42.441406 C 18.913287 42.304293 19.930236 42.222656 21 42.222656 C 23.114427 42.222656 25.02828 42.533609 26.326172 42.988281 C 27.053234 43.282357 28.101917 43.905833 28.580078 44.355469 C 29.122904 44.8754 29.998549 44.828704 30 44.025391 L 30 18.802734 C 30 18.029728 29.552451 17.39088 29.009766 16.941406 C 28.467081 16.491932 27.785055 16.15676 26.986328 15.876953 C 25.388875 15.317339 23.303721 15 21 15 z M 43 15 C 40.69628 15 38.611125 15.317339 37.013672 15.876953 C 36.214945 16.156761 35.532919 16.491932 34.990234 16.941406 C 34.447549 17.390879 34 18.029727 34 18.802734 L 34 44.025391 L 34 52.990234 L 36 53.009766 L 36 44.025391 C 36 44.024523 36.000643 43.928111 36.267578 43.707031 C 36.534514 43.485944 37.024883 43.217571 37.673828 42.990234 C 38.971721 42.535562 40.885573 42.222656 43 42.222656 C 45.114427 42.222656 47.02828 42.535563 48.326172 42.990234 C 48.335172 42.993434 48.342593 42.9968 48.351562 43 C 49.077556 43.29786 50.107038 43.910649 50.580078 44.355469 C 51.122904 44.875368 51.99855 44.828704 52 44.025391 L 52 22 L 50 22 L 50 41.523438 C 49.686999 41.367626 49.349795 41.226938 48.986328 41.099609 C 47.388875 40.539995 45.303721 40.222656 43 40.222656 C 40.69628 40.222656 38.611125 40.539995 37.013672 41.099609 C 36.650205 41.226938 36.313001 41.367626 36 41.523438 L 36 18.802734 C 36 18.801866 36.000643 18.705454 36.267578 18.484375 C 36.534514 18.263288 37.024883 17.994915 37.673828 17.767578 C 38.971721 17.312906 40.885573 17 43 17 C 45.114427 17 47.02828 17.312907 48.326172 17.767578 C 48.975118 17.994915 49.465488 18.263288 49.732422 18.484375 C 49.965584 18.677489 49.988331 18.760921 49.992188 18.783203 L 50.011719 18.78125 L 51.517578 17.46875 C 51.368234 17.272751 51.195549 17.095279 51.009766 16.941406 C 50.467081 16.491931 49.785055 16.15676 48.986328 15.876953 C 47.388875 15.317339 45.303721 15 43 15 z " />
</svg>
