<?xml version="1.0" encoding="UTF-8" standalone="no"?>
<svg
   viewbox="0 0 200 200"
   version="1.1"
   id="svg4"
   sodipodi:docname="accessories-screenshot.svg"
   width="64"
   height="64"
   inkscape:version="1.1.1 (3bf5ae0d25, 2021-09-20, custom)"
   xmlns:inkscape="http://www.inkscape.org/namespaces/inkscape"
   xmlns:sodipodi="http://sodipodi.sourceforge.net/DTD/sodipodi-0.dtd"
   xmlns="http://www.w3.org/2000/svg"
   xmlns:svg="http://www.w3.org/2000/svg">
  <defs
     id="defs8" />
  <sodipodi:namedview
     id="namedview6"
     pagecolor="#ffffff"
     bordercolor="#666666"
     borderopacity="1.0"
     inkscape:pageshadow="2"
     inkscape:pageopacity="0.0"
     inkscape:pagecheckerboard="0"
     showgrid="false"
     inkscape:zoom="4"
     inkscape:cx="4.25"
     inkscape:cy="40.125"
     inkscape:window-width="1920"
     inkscape:window-height="996"
     inkscape:window-x="0"
     inkscape:window-y="0"
     inkscape:window-maximized="1"
     inkscape:current-layer="svg4"
     showguides="false" />
  <path
     d="m 2,32.087353 c 0,-21.6 8.4,-30.0000005 30,-30.0000005 21.6,0 30,8.4000005 30,30.0000005 0,21.6 -8.4,30 -30,30 -21.6,0 -30,-8.4 -30,-30"
     id="path2"
     style="fill:#5364a2;fill-opacity:1;stroke-width:0.3" />
  <path
     id="path3817"
     style="color:#000000;fill:#ffffff;stroke:none;stroke-width:0.99356;stroke-linecap:round;stroke-linejoin:round;-inkscape-stroke:none"
     d="m 15,12 c -1.662,0 -3,1.338 -3,3 v 5 h 2 v -5 c 0,-0.554 0.446,-1 1,-1 h 5 v -2 z m 29,0 v 2 h 5 c 0.554,0 1,0.446 1,1 v 5 h 2 v -5 c 0,-1.662 -1.338001,-3 -3,-3 z M 12,44 v 5 c 0,1.662 1.338,3 3,3 h 5 v -2 h -5 c -0.554,0 -1,-0.446 -1,-1 v -5 z m 38,0 v 5 c 0,0.554 -0.446,1 -1,1 h -5 v 2 h 5 c 1.661999,0 3,-1.338 3,-3 v -5 z"
     sodipodi:nodetypes="ssccssccsccssccssccsccsscccssccssccs" />
  <path
     id="path1428"
     style="color:#000000;fill:#ffffff;stroke:none;stroke-width:0.99356;stroke-linecap:round;stroke-linejoin:round;-inkscape-stroke:none"
     d="m 40,18 v 4 2 h 6 v -2 h -4 v -4 z m -15,4 c -1.662,0 -3,1.338 -3,3 v 3 h 2 v -3 c 0,-0.554 0.446,-1 1,-1 h 3 v -2 z m 5,0 v 2 h 8 v -2 z m 10,4 v 8 h 2 v -8 z m -18,4 v 8 h 2 v -8 z m 18,6 v 3 c 0,0.554 -0.446,1 -1,1 h -3 v 2 h 3 c 1.662,0 3,-1.338 3,-3 v -3 z m -22,4 v 2 h 4 v 4 h 2 v -4 -2 z m 8,0 v 2 h 8 v -2 z"
     sodipodi:nodetypes="ccccccccssccssccsccccccccccccccccssccssccccccccccccccc" />
</svg>
