<?xml version="1.0" encoding="UTF-8" standalone="no"?>
<svg
   viewbox="0 0 200 200"
   version="1.1"
   id="svg4"
   sodipodi:docname="cheese.svg"
   width="64"
   height="64"
   inkscape:version="1.1.1 (3bf5ae0d25, 2021-09-20, custom)"
   xmlns:inkscape="http://www.inkscape.org/namespaces/inkscape"
   xmlns:sodipodi="http://sodipodi.sourceforge.net/DTD/sodipodi-0.dtd"
   xmlns:xlink="http://www.w3.org/1999/xlink"
   xmlns="http://www.w3.org/2000/svg"
   xmlns:svg="http://www.w3.org/2000/svg">
  <defs
     id="defs8">
    <linearGradient
       inkscape:collect="always"
       id="linearGradient6794">
      <stop
         style="stop-color:#67a3e1;stop-opacity:1;"
         offset="0"
         id="stop6790" />
      <stop
         style="stop-color:#67a3e1;stop-opacity:0;"
         offset="1"
         id="stop6792" />
    </linearGradient>
    <linearGradient
       inkscape:collect="always"
       id="linearGradient5704">
      <stop
         style="stop-color:#9b7ce0;stop-opacity:1;"
         offset="0"
         id="stop5700" />
      <stop
         style="stop-color:#9b7ce0;stop-opacity:0.80794543"
         offset="0.38950977"
         id="stop6348" />
      <stop
         style="stop-color:#9b7ce0;stop-opacity:0;"
         offset="1"
         id="stop5702" />
    </linearGradient>
    <radialGradient
       inkscape:collect="always"
       xlink:href="#linearGradient5704"
       id="radialGradient5706"
       cx="23.524321"
       cy="62.407238"
       fx="23.524321"
       fy="62.407238"
       r="30"
       gradientUnits="userSpaceOnUse"
       gradientTransform="matrix(-0.87020906,1.1769951,-1.3978783,-1.0335182,125.70879,40.811005)" />
    <radialGradient
       inkscape:collect="always"
       xlink:href="#linearGradient6794"
       id="radialGradient6796"
       cx="54"
       cy="56"
       fx="54"
       fy="56"
       r="30"
       gradientUnits="userSpaceOnUse"
       gradientTransform="matrix(0.05424968,-1.6602262,1.1815376,0.03860797,-15.095586,143.4902)" />
  </defs>
  <sodipodi:namedview
     id="namedview6"
     pagecolor="#ffffff"
     bordercolor="#666666"
     borderopacity="1.0"
     inkscape:pageshadow="2"
     inkscape:pageopacity="0.0"
     inkscape:pagecheckerboard="0"
     showgrid="false"
     inkscape:zoom="8.5847183"
     inkscape:cx="20.501546"
     inkscape:cy="34.887575"
     inkscape:window-width="1920"
     inkscape:window-height="1000"
     inkscape:window-x="0"
     inkscape:window-y="0"
     inkscape:window-maximized="1"
     inkscape:current-layer="svg4"
     showguides="false"
     inkscape:lockguides="false" />
  <path
     d="M 2,32 C 2,10.4 10.4,2 32,2 53.6,2 62,10.4 62,32 62,53.6 53.6,62 32,62 10.4,62 2,53.6 2,32"
     id="path2"
     style="stroke-width:0.3;fill:#5e72e4;fill-opacity:1;stroke:none" />
  <path
     id="rect5402"
     style="fill:url(#radialGradient5706);fill-opacity:1;stroke:none;stroke-width:2;stroke-linecap:round;stroke-linejoin:round;stroke-opacity:1"
     d="M 32 2 C 10.4 2 2 10.4 2 32 C 2 53.6 10.4 62 32 62 C 53.6 62 62 53.6 62 32 C 62 10.4 53.6 2 32 2 z " />
  <path
     id="rect6482"
     style="fill:url(#radialGradient6796);fill-opacity:1;stroke:none;stroke-width:2;stroke-linecap:round;stroke-linejoin:round;stroke-opacity:1"
     d="M 32 2 C 10.4 2 2 10.4 2 32 C 2 53.6 10.4 62 32 62 C 53.6 62 62 53.6 62 32 C 62 10.4 53.6 2 32 2 z " />
  <path
     id="rect1588"
     style="fill:#ffffff;stroke-width:2;stroke-linecap:round;stroke-linejoin:round;fill-opacity:1"
     d="m 28,16 c -0.323053,-4.3e-4 -0.626413,0.155251 -0.814453,0.417969 L 23.914062,21 H 15 c -1.108,0 -2,0.892 -2,2 v 25 h 2 V 23 h 8.515625 C 24.557005,22.9966 25.020646,22.894461 25.75,21.873047 L 28.515625,18 h 6.96875 L 38.25,21.873047 C 38.979354,22.894461 39.442995,22.9966 40.484375,23 H 51 V 21 H 40.085938 L 36.814453,16.417969 C 36.626413,16.155251 36.323053,15.99957 36,16 Z m 4,10 c -4.418278,0 -8,3.581722 -8,8 0,4.418278 3.581722,8 8,8 4.418278,0 8,-3.581722 8,-8 0,-4.418278 -3.581722,-8 -8,-8 z m 17,1 v 16 c 0,1.662 -1.338,3 -3,3 H 19 v 2 h 27 c 2.77,0 4.67635,-2.248973 5,-5 V 27 Z m -17,1 c 3.313708,0 6,2.686292 6,6 0,3.313708 -2.686292,6 -6,6 -3.313708,0 -6,-2.686292 -6,-6 0,-3.313708 2.686292,-6 6,-6 z"
     sodipodi:nodetypes="cccsscccccccccccccccssssscssccscccsssss" />
</svg>
