<?xml version="1.0" encoding="UTF-8" standalone="no"?>
<svg
   viewbox="0 0 200 200"
   version="1.1"
   id="svg4"
   sodipodi:docname="accessories-maps.svg"
   width="64"
   height="64"
   inkscape:version="1.1.1 (3bf5ae0d25, 2021-09-20, custom)"
   xmlns:inkscape="http://www.inkscape.org/namespaces/inkscape"
   xmlns:sodipodi="http://sodipodi.sourceforge.net/DTD/sodipodi-0.dtd"
   xmlns="http://www.w3.org/2000/svg"
   xmlns:svg="http://www.w3.org/2000/svg">
  <defs
     id="defs8" />
  <sodipodi:namedview
     id="namedview6"
     pagecolor="#ffffff"
     bordercolor="#666666"
     borderopacity="1.0"
     inkscape:pageshadow="2"
     inkscape:pageopacity="0.0"
     inkscape:pagecheckerboard="0"
     showgrid="false"
     inkscape:zoom="6.4416667"
     inkscape:cx="25.924968"
     inkscape:cy="54.566624"
     inkscape:window-width="1920"
     inkscape:window-height="996"
     inkscape:window-x="0"
     inkscape:window-y="0"
     inkscape:window-maximized="1"
     inkscape:current-layer="svg4" />
  <path
     d="M 2,32 C 2,10.4 10.4,2 32,2 53.6,2 62,10.4 62,32 62,53.6 53.6,62 32,62 10.4,62 2,53.6 2,32"
     id="path2"
     style="stroke-width:0.3;fill:#66cc33;fill-opacity:1" />
  <path
     id="path14"
     style="fill:#ffffff;fill-opacity:1;stroke-width:0.247233"
     d="m 31.955078,12 c -0.716974,0 -7.887236,0.09901 -12.609375,6.082031 -5.241325,6.625828 -3.06624,14.958405 -1.830078,17.035157 0.148339,0.247233 1.707031,2.792968 1.707031,2.792968 L 31.929688,54 33.240583,52.704353 20.818359,36.671875 c 0,0 -1.362391,-2.228983 -1.492187,-2.445313 C 18.24453,32.409405 16.341574,25.119865 20.927734,19.322266 25.059606,14.087123 31.333586,14 31.960938,14 c 5.386574,0.02163 8.889185,3.201984 9.667968,3.9375 0,0 4.392724,4.195501 4.371094,10.144531 0,1.535928 -0.324219,3.007813 -0.324219,3.007813 -0.108164,0.54082 -0.302309,1.275312 -0.648437,2.140625 0,0 -0.564079,1.38503 -1.472656,2.769531 -0.956263,1.453463 -5.023697,6.964131 -6.934688,9.404297 l 1.460078,1.496094 c 3.126479,-3.900742 6.13682,-8.255782 7.125,-9.757813 1.038375,-1.582287 1.681641,-3.164062 1.681641,-3.164062 0.395574,-0.988929 0.618571,-1.829185 0.742187,-2.447266 0,0 0.371094,-1.680199 0.371094,-3.435547 C 48.02472,21.296812 43.005859,16.5 43.005859,16.5 42.115822,15.65941 38.111165,12.024724 31.955078,12 Z M 32,20 c -3.865993,0 -7,3.134007 -7,7 0,3.865993 3.134007,7 7,7 3.865993,0 7,-3.134007 7,-7 0,-3.865993 -3.134007,-7 -7,-7 z m 0,2 c 2.761424,0 5,2.238576 5,5 0,2.761424 -2.238576,5 -5,5 -2.761424,0 -5,-2.238576 -5,-5 0,-2.761424 2.238576,-5 5,-5 z"
     sodipodi:nodetypes="cccccccccccccccccccccccssssssssss" />
</svg>
