<?xml version="1.0" encoding="UTF-8" standalone="no"?>
<svg
   viewbox="0 0 200 200"
   version="1.1"
   id="svg4"
   sodipodi:docname="accessories-calculator.svg"
   width="64"
   height="64"
   inkscape:version="1.1.1 (3bf5ae0d25, 2021-09-20, custom)"
   xmlns:inkscape="http://www.inkscape.org/namespaces/inkscape"
   xmlns:sodipodi="http://sodipodi.sourceforge.net/DTD/sodipodi-0.dtd"
   xmlns="http://www.w3.org/2000/svg"
   xmlns:svg="http://www.w3.org/2000/svg">
  <defs
     id="defs8" />
  <sodipodi:namedview
     id="namedview6"
     pagecolor="#ffffff"
     bordercolor="#666666"
     borderopacity="1.0"
     inkscape:pageshadow="2"
     inkscape:pageopacity="0.0"
     inkscape:pagecheckerboard="0"
     showgrid="false"
     inkscape:zoom="1.4142136"
     inkscape:cx="29.698485"
     inkscape:cy="42.77996"
     inkscape:window-width="1920"
     inkscape:window-height="996"
     inkscape:window-x="0"
     inkscape:window-y="0"
     inkscape:window-maximized="1"
     inkscape:current-layer="svg4"
     showguides="false" />
  <path
     d="M 2,32 C 2,10.4 10.4,2 32,2 53.6,2 62,10.4 62,32 62,53.6 53.6,62 32,62 10.4,62 2,53.6 2,32"
     id="path2"
     style="stroke-width:0.3;fill:#58aff4;fill-opacity:1" />
  <path
     id="rect1138"
     style="fill:#ffffff;fill-opacity:1;stroke-width:2;stroke-linecap:round;stroke-linejoin:round"
     d="M 20 14 L 20 20 L 14 20 L 14 22 L 28 22 L 28 20 L 22 20 L 22 14 L 20 14 z M 36 20 L 36 22 L 50 22 L 50 20 L 36 20 z M 20 24 L 20 28 L 22 28 L 22 24 L 20 24 z M 43 36 A 1.5 1.5 0 0 0 41.5 37.5 A 1.5 1.5 0 0 0 43 39 A 1.5 1.5 0 0 0 44.5 37.5 A 1.5 1.5 0 0 0 43 36 z M 15.757812 36.34375 L 14.34375 37.757812 L 19.585938 43 L 14.34375 48.242188 L 15.757812 49.65625 L 27.65625 37.757812 L 26.242188 36.34375 L 21 41.585938 L 15.757812 36.34375 z M 36 42 L 36 44 L 50 44 L 50 42 L 36 42 z M 23.828125 44.414062 L 22.414062 45.828125 L 26.242188 49.65625 L 27.65625 48.242188 L 23.828125 44.414062 z M 43 47 A 1.5 1.5 0 0 0 41.5 48.5 A 1.5 1.5 0 0 0 43 50 A 1.5 1.5 0 0 0 44.5 48.5 A 1.5 1.5 0 0 0 43 47 z " />
</svg>
