<?xml version="1.0" encoding="UTF-8" standalone="no"?>
<svg
   viewbox="0 0 200 200"
   version="1.1"
   id="svg4"
   sodipodi:docname="applications-graphics.svg"
   width="64"
   height="64"
   inkscape:version="1.1.1 (3bf5ae0d25, 2021-09-20, custom)"
   xmlns:inkscape="http://www.inkscape.org/namespaces/inkscape"
   xmlns:sodipodi="http://sodipodi.sourceforge.net/DTD/sodipodi-0.dtd"
   xmlns="http://www.w3.org/2000/svg"
   xmlns:svg="http://www.w3.org/2000/svg">
  <defs
     id="defs8" />
  <sodipodi:namedview
     id="namedview6"
     pagecolor="#ffffff"
     bordercolor="#666666"
     borderopacity="1.0"
     inkscape:pageshadow="2"
     inkscape:pageopacity="0.0"
     inkscape:pagecheckerboard="0"
     showgrid="false"
     inkscape:zoom="7.9999999"
     inkscape:cx="14.875"
     inkscape:cy="27.9375"
     inkscape:window-width="1920"
     inkscape:window-height="1000"
     inkscape:window-x="0"
     inkscape:window-y="0"
     inkscape:window-maximized="1"
     inkscape:current-layer="svg4"
     showguides="true" />
  <path
     d="M 2,32 C 2,10.4 10.4,2 32,2 53.6,2 62,10.4 62,32 62,53.6 53.6,62 32,62 10.4,62 2,53.6 2,32"
     id="path2"
     style="stroke-width:0.3;fill:#9a80ff;fill-opacity:1" />
  <path
     id="path94599"
     style="fill:#ffffff;fill-opacity:1;stroke:none;stroke-width:2;stroke-linecap:butt;stroke-linejoin:round;stroke-miterlimit:4;stroke-dasharray:none"
     d="m 31.999944,15 c -4.82795,0.002 -9.517488,1.028838 -12.83398,3.294922 -5.678479,4.014463 -10.5875662,12.484833 -7.75586,17.675781 2.09755,3.434745 8.42404,2.587393 10.81836,1.832031 1.55651,-0.565768 3.27704,0.236797 3.84375,1.792969 0.29344,0.803872 -0.06,1.551719 -0.0723,2.404297 0,2.761424 2.23858,5 5,5 v -2 c -1.65685,0 -3,-1.343146 -3,-3 0.0113,-1.079493 0.25081,-2.118763 -0.0469,-3.087891 -0.71861,-1.975923 -2.59666,-3.291158 -4.69921,-3.291015 -0.58349,-3.4e-4 -1.16255,0.101456 -1.71094,0.300781 -3.09533,0.907511 -7.39331,1.256039 -8.5332,-0.75 C 10.942236,28.758029 17.01617,22.414002 21.370984,19.275391 24.52539,17.330067 28.766315,17.026826 31.999944,17 c 6.56319,7.5e-5 11.06969,2.251363 13.19336,5.576172 l -6.5293,13.091797 c -2.97925,1.369488 -4.56681,4.087319 -4.15429,7.644531 0.71627,6.17649 -1.01398,6.605523 -1.34571,8.289062 -0.1857,0.942441 0.298,1.484692 1.0586,1.488282 4.90233,0.02314 10.65795,-4.497732 11.07617,-9.21875 l -1.86719,-0.357422 c -0.8012,4.833094 -4.99456,6.947518 -7.94336,7.255859 1.21772,-2.933813 1.17804,-4.910928 0.80078,-7.044922 -0.57623,-2.921057 0.82991,-4.912932 2.66992,-6.125 l 5.38672,2.398438 c 0.52146,0.230102 1.12949,-0.02147 1.33594,-0.552735 l 8.03125,-20.5 c 0.19445,-0.497242 -0.036,-1.059543 -0.52344,-1.277343 l -3.65429,-1.63086 c -0.48815,-0.217471 -1.06103,-0.01275 -1.30078,0.464844 l -2.0254,4.044922 C 43.533814,17.198009 38.607454,15.00017 31.999944,15 Z m 17.59375,3.251953 1.91211,0.847656 -7.30078,18.646485 -3.58008,-1.59375 z M 33.999944,21 c -1.10457,0 -2,0.89543 -2,2 0,1.10457 0.89543,2 2,2 1.10457,0 2,-0.89543 2,-2 0,-1.10457 -0.89543,-2 -2,-2 z m -8.5,1.5 c -1.10457,0 -2,0.89543 -2,2 0,1.10457 0.89543,2 2,2 1.10457,0 2,-0.89543 2,-2 0,-1.10457 -0.89543,-2 -2,-2 z m -6.5,5.5 c -0.828427,0 -1.5,0.671573 -1.5,1.5 0,0.828427 0.671573,1.5 1.5,1.5 0.828427,0 1.5,-0.671573 1.5,-1.5 0,-0.828427 -0.671573,-1.5 -1.5,-1.5 z"
     sodipodi:nodetypes="cccccccccccccccccsssccccccccccccccccccsssssssssssssss" />
</svg>
