<?xml version="1.0" encoding="UTF-8" standalone="no"?>
<svg
   viewbox="0 0 200 200"
   version="1.1"
   id="svg4"
   sodipodi:docname="applications-utilities.svg"
   width="64"
   height="64"
   inkscape:version="1.1.1 (3bf5ae0d25, 2021-09-20, custom)"
   xmlns:inkscape="http://www.inkscape.org/namespaces/inkscape"
   xmlns:sodipodi="http://sodipodi.sourceforge.net/DTD/sodipodi-0.dtd"
   xmlns="http://www.w3.org/2000/svg"
   xmlns:svg="http://www.w3.org/2000/svg">
  <defs
     id="defs8" />
  <sodipodi:namedview
     id="namedview6"
     pagecolor="#ffffff"
     bordercolor="#666666"
     borderopacity="1.0"
     inkscape:pageshadow="2"
     inkscape:pageopacity="0.0"
     inkscape:pagecheckerboard="0"
     showgrid="false"
     inkscape:zoom="9.1098924"
     inkscape:cx="23.600718"
     inkscape:cy="44.072968"
     inkscape:window-width="1920"
     inkscape:window-height="996"
     inkscape:window-x="0"
     inkscape:window-y="0"
     inkscape:window-maximized="1"
     inkscape:current-layer="svg4"
     showguides="false" />
  <path
     d="M 2,32 C 2,10.4 10.4,2 32,2 53.6,2 62,10.4 62,32 62,53.6 53.6,62 32,62 10.4,62 2,53.6 2,32"
     id="path2"
     style="stroke-width:0.3;fill:#c67ea4;fill-opacity:1" />
  <path
     id="path3817"
     style="color:#000000;fill:#ffffff;stroke:none;stroke-width:0.99356;stroke-linecap:round;stroke-linejoin:round;-inkscape-stroke:none"
     d="M 25 14 C 23.892 14 23 14.892 23 16 L 23 20 L 16 20 C 13.783999 20 12 21.783999 12 24 L 12 46 L 14 46 L 14 32 L 50 32 L 50 40 C 50 42.216 48.216 44 46 44 L 18 44 L 18 46 L 46 46 C 49.324 46 52 43.324 52 40 L 52 26 L 50 26 L 50 30 L 14 30 L 14 24 C 14 22.892 14.893706 22.061461 16 22 L 52 22 L 52 20 L 25 20 L 25 16 L 39 16 L 39 18 L 41 18 L 41 16 C 41 14.892 40.108 14 39 14 L 25 14 z " />
</svg>
