<?xml version="1.0" encoding="UTF-8" standalone="no"?>
<svg
   viewbox="0 0 200 200"
   version="1.1"
   id="svg4"
   sodipodi:docname="applications-accessories.svg"
   width="64"
   height="64"
   inkscape:version="1.1.1 (3bf5ae0d25, 2021-09-20, custom)"
   xmlns:inkscape="http://www.inkscape.org/namespaces/inkscape"
   xmlns:sodipodi="http://sodipodi.sourceforge.net/DTD/sodipodi-0.dtd"
   xmlns="http://www.w3.org/2000/svg"
   xmlns:svg="http://www.w3.org/2000/svg">
  <defs
     id="defs8" />
  <sodipodi:namedview
     id="namedview6"
     pagecolor="#ffffff"
     bordercolor="#666666"
     borderopacity="1.0"
     inkscape:pageshadow="2"
     inkscape:pageopacity="0.0"
     inkscape:pagecheckerboard="0"
     showgrid="false"
     inkscape:zoom="9.1570328"
     inkscape:cx="31.997264"
     inkscape:cy="51.599684"
     inkscape:window-width="1920"
     inkscape:window-height="1000"
     inkscape:window-x="0"
     inkscape:window-y="0"
     inkscape:window-maximized="1"
     inkscape:current-layer="svg4"
     showguides="false" />
  <path
     d="M 2,32 C 2,10.4 10.4,2 32,2 53.6,2 62,10.4 62,32 62,53.6 53.6,62 32,62 10.4,62 2,53.6 2,32"
     id="path2"
     style="stroke-width:0.3;fill:#a2e24b;fill-opacity:1" />
  <path
     id="path1401"
     style="color:#000000;fill:#ffffff;fill-opacity:1;stroke:none;stroke-width:2.00004;stroke-linecap:round;stroke-linejoin:round;-inkscape-stroke:none"
     d="m 51.060547,16 c -0.0451,-0.0017 -0.09032,0.0019 -0.134766,0.0098 -0.177784,0.03137 -0.355632,0.07425 -0.507812,0.183593 L 16.001953,42 h 3.423828 L 50,18.947266 52,17.546875 V 17.005859 C 52.000412,16.630616 51.790765,16.286752 51.457031,16.115234 51.331916,16.051214 51.195863,16.005248 51.060547,16 Z M 52,25 H 50 V 44.005859 46 h -4 -23.878906 -8 H 10 v 2 h 36 4 1 c 0.552263,-5.6e-5 0.999944,-0.447713 1,-1 z M 44,29.923828 28.199219,42.005859 H 44 Z m -2,4.164063 v 5.917968 h -8.148438 z"
     sodipodi:nodetypes="cccccccccccccccccccccccccccccccc" />
</svg>
