<?xml version="1.0" encoding="UTF-8" standalone="no"?>
<svg
   viewbox="0 0 200 200"
   version="1.1"
   id="svg4"
   sodipodi:docname="applications-development.svg"
   width="64"
   height="64"
   inkscape:version="1.1.1 (3bf5ae0d25, 2021-09-20, custom)"
   xmlns:inkscape="http://www.inkscape.org/namespaces/inkscape"
   xmlns:sodipodi="http://sodipodi.sourceforge.net/DTD/sodipodi-0.dtd"
   xmlns="http://www.w3.org/2000/svg"
   xmlns:svg="http://www.w3.org/2000/svg">
  <defs
     id="defs8" />
  <sodipodi:namedview
     id="namedview6"
     pagecolor="#ffffff"
     bordercolor="#666666"
     borderopacity="1.0"
     inkscape:pageshadow="2"
     inkscape:pageopacity="0.0"
     inkscape:pagecheckerboard="0"
     showgrid="false"
     inkscape:zoom="11.313708"
     inkscape:cx="21.124816"
     inkscape:cy="15.423767"
     inkscape:window-width="1920"
     inkscape:window-height="996"
     inkscape:window-x="0"
     inkscape:window-y="0"
     inkscape:window-maximized="1"
     inkscape:current-layer="svg4"
     showguides="false" />
  <path
     d="M 2,32 C 2,10.4 10.4,2 32,2 53.6,2 62,10.400001 62,32 62,53.6 53.6,62 32,62 10.4,62 2,53.6 2,32"
     id="path2"
     style="fill:#6d8f98;fill-opacity:1;stroke-width:0.3" />
  <path
     id="path844"
     style="fill:#ffffff;stroke-width:2;stroke-linejoin:round"
     d="m 21.994141,13.525391 c -1.771735,-0.02518 -3.550351,0.534888 -5.021485,1.679687 l 0.0059,0.0059 1.423828,1.421874 3.474609,3.476563 c 0.391737,0.391737 0.391737,1.022324 0,1.414063 -0.391738,0.391737 -1.022325,0.391736 -1.414062,0 l -3.47461,-3.47461 -1.429687,-1.429687 c -0.141881,0.182325 -0.272569,0.371326 -0.396485,0.5625 l -0.002,0.0039 c -0.125545,0.193918 -0.24254,0.39198 -0.349609,0.59375 -0.105037,0.19794 -0.199855,0.399209 -0.287109,0.603515 -0.0033,0.0065 -0.0065,0.01302 -0.0098,0.01953 -1.234168,2.911839 -0.666862,6.405402 1.707031,8.779297 2.093646,2.093645 5.057956,2.782628 7.726563,2.070312 l 20.314453,20.314453 c 0.783474,0.783474 2.046604,0.783474 2.830078,0 l 2.828125,-2.828125 c 0.783474,-0.783474 0.783474,-2.046604 0,-2.830078 L 29.605469,23.59375 c 0.712316,-2.668607 0.02333,-5.632917 -2.070313,-7.726562 -1.532459,-1.532459 -3.533049,-2.313265 -5.541015,-2.341797 z m -0.158203,2 c 1.549644,-0.01124 3.102709,0.573412 4.285156,1.755859 1.388063,1.388063 1.953704,3.287359 1.697265,5.091797 -6.22e-4,0.0041 -0.0014,0.0096 -0.002,0.01367 -0.01801,0.124878 -0.04247,0.247336 -0.06836,0.371093 -0.0042,0.02013 -0.0073,0.04045 -0.01172,0.06055 -2.55e-4,0.0013 2.56e-4,0.0027 0,0.0039 -0.03059,0.138453 -0.06692,0.275685 -0.107422,0.412109 -0.0064,0.02166 -0.01294,0.04281 -0.01953,0.06445 -0.0018,0.006 -0.004,0.01164 -0.0059,0.01758 -0.03915,0.125266 -0.08136,0.250057 -0.128907,0.373047 -0.0541,0.140031 -0.114687,0.279555 -0.179687,0.416016 -8.85e-4,0.0019 -0.0011,0.004 -0.002,0.0059 l 1.478515,1.476563 19.734375,19.734375 -2.830078,2.830078 -19.734375,-19.734375 -1.476562,-1.478516 c -0.139385,0.06657 -0.280714,0.126446 -0.423828,0.181641 -0.283702,0.109415 -0.574866,0.196994 -0.869141,0.261718 -0.0026,5.77e-4 -0.0052,0.0014 -0.0078,0.002 -0.03297,0.0072 -0.06655,0.01093 -0.09961,0.01758 -1.902654,0.382274 -3.954608,-0.159686 -5.429687,-1.634766 -1.570475,-1.570475 -2.087727,-3.795188 -1.552735,-5.796875 l 2.966797,2.966797 c 1.175211,1.175212 3.066977,1.175212 4.242188,0 1.175212,-1.175211 1.175212,-3.066976 0,-4.242188 l -2.966797,-2.966796 c 0.49457,-0.132185 1.003192,-0.199437 1.511719,-0.203125 z"
     sodipodi:nodetypes="sccccscccccsccscsssscssssccscccsccsccccccssscscssscs" />
</svg>
