<?xml version="1.0" encoding="UTF-8" standalone="no"?>
<svg
   viewbox="0 0 200 200"
   version="1.1"
   id="svg4"
   sodipodi:docname="applications-education.svg"
   width="64"
   height="64"
   inkscape:version="1.1.1 (3bf5ae0d25, 2021-09-20, custom)"
   xmlns:inkscape="http://www.inkscape.org/namespaces/inkscape"
   xmlns:sodipodi="http://sodipodi.sourceforge.net/DTD/sodipodi-0.dtd"
   xmlns="http://www.w3.org/2000/svg"
   xmlns:svg="http://www.w3.org/2000/svg">
  <defs
     id="defs8" />
  <sodipodi:namedview
     id="namedview6"
     pagecolor="#ffffff"
     bordercolor="#666666"
     borderopacity="1.0"
     inkscape:pageshadow="2"
     inkscape:pageopacity="0.0"
     inkscape:pagecheckerboard="0"
     showgrid="false"
     inkscape:zoom="11.313708"
     inkscape:cx="25.986175"
     inkscape:cy="29.21235"
     inkscape:window-width="1920"
     inkscape:window-height="996"
     inkscape:window-x="0"
     inkscape:window-y="0"
     inkscape:window-maximized="1"
     inkscape:current-layer="svg4"
     showguides="false" />
  <path
     d="M 2,32 C 2,10.4 10.4,2 32,2 53.6,2 62,10.400001 62,32 62,53.6 53.6,62 32,62 10.4,62 2,53.6 2,32"
     id="path2"
     style="fill:#4cb353;fill-opacity:1;stroke-width:0.3" />
  <path
     id="path1066"
     style="color:#000000;fill:#ffffff;stroke-width:0.999984;stroke-linejoin:round;-inkscape-stroke:none"
     d="m 31.999936,15 a 1.0000969,1.0000706 0 0 0 -0.410155,0.08789 l -19.999939,8.999735 a 1.0000969,1.0000706 0 0 0 0,1.824165 l 5.41014,2.435475 v 14.651913 a 1.0000969,1.0000706 0 0 0 0.605467,0.919894 l 13.999957,5.999824 a 1.0000969,1.0000706 0 0 0 0.789059,0 L 46.394423,43.91907 a 1.0000969,1.0000706 0 0 0 0.605467,-0.919894 v -8.999735 h -1.999994 v 8.339598 L 31.999936,47.91114 18.999975,42.339039 V 29.245675 l 12.589806,5.665848 a 1.0000969,1.0000706 0 0 0 0.820309,0 l 19.999939,-8.999735 a 1.0000969,1.0000706 0 0 0 0,-1.824165 L 32.41009,15.087888 A 1.0000969,1.0000706 0 0 0 31.999936,15 Z m 0,2.097594 17.562446,7.902112 -17.562446,7.904064 -17.562447,-7.904064 z" />
</svg>
