<?xml version="1.0" encoding="UTF-8" standalone="no"?>
<svg
   viewbox="0 0 200 200"
   version="1.1"
   id="svg4"
   sodipodi:docname="applications-office.svg"
   width="64"
   height="64"
   inkscape:version="1.1.1 (3bf5ae0d25, 2021-09-20, custom)"
   xmlns:inkscape="http://www.inkscape.org/namespaces/inkscape"
   xmlns:sodipodi="http://sodipodi.sourceforge.net/DTD/sodipodi-0.dtd"
   xmlns="http://www.w3.org/2000/svg"
   xmlns:svg="http://www.w3.org/2000/svg">
  <defs
     id="defs8" />
  <sodipodi:namedview
     id="namedview6"
     pagecolor="#ffffff"
     bordercolor="#666666"
     borderopacity="1.0"
     inkscape:pageshadow="2"
     inkscape:pageopacity="0.0"
     inkscape:pagecheckerboard="0"
     showgrid="false"
     inkscape:zoom="9.1570328"
     inkscape:cx="25.881746"
     inkscape:cy="24.953498"
     inkscape:window-width="1920"
     inkscape:window-height="996"
     inkscape:window-x="0"
     inkscape:window-y="0"
     inkscape:window-maximized="1"
     inkscape:current-layer="svg4"
     showguides="false" />
  <path
     d="M 2,32 C 2,10.4 10.4,2 32,2 53.6,2 62,10.400001 62,32 62,53.6 53.6,62 32,62 10.4,62 2,53.6 2,32"
     id="path2"
     style="fill:#5e9be5;fill-opacity:1;stroke-width:0.3" />
  <path
     id="path3817"
     style="color:#000000;fill:#ffffff;stroke:none;stroke-width:0.99356;stroke-linecap:round;stroke-linejoin:round;-inkscape-stroke:none"
     d="m 18,12.000784 c -1.108,0 -2,0.906382 -2,2 v 38 h 2 v -38 h 14 v -2 z m 17.902344,0.0039 c -0.09809,0.0099 -0.194187,0.03425 -0.285156,0.07227 C 35.243599,12.2318 35.000026,12.59638 35,13.000784 v 11 c 5.5e-5,0.552262 0.447738,0.999945 1,1 h 10 v 24 c 0,0.554 -0.446,1 -1,1 H 21 v 2 h 24 c 1.662,0 3,-1.338 3,-3 v -24 -1 c -5.1e-5,-0.265199 -0.105433,-0.519519 -0.292969,-0.707031 l -11,-11 C 36.495587,12.081815 36.200318,11.975748 35.902344,12.00469 Z M 37,15.414846 44.585938,23.000784 H 37 Z M 21,30.000784 v 2 h 22 v -2 z m 0,6 v 2 h 22 v -2 z m 0,6 v 2 h 12 v -2 z" />
</svg>
