<?xml version="1.0" encoding="UTF-8" standalone="no"?>
<svg
   viewbox="0 0 200 200"
   version="1.1"
   id="svg4"
   sodipodi:docname="applications-science.svg"
   width="64"
   height="64"
   inkscape:version="1.1.1 (3bf5ae0d25, 2021-09-20, custom)"
   xmlns:inkscape="http://www.inkscape.org/namespaces/inkscape"
   xmlns:sodipodi="http://sodipodi.sourceforge.net/DTD/sodipodi-0.dtd"
   xmlns="http://www.w3.org/2000/svg"
   xmlns:svg="http://www.w3.org/2000/svg">
  <defs
     id="defs8" />
  <sodipodi:namedview
     id="namedview6"
     pagecolor="#ffffff"
     bordercolor="#666666"
     borderopacity="1.0"
     inkscape:pageshadow="2"
     inkscape:pageopacity="0.0"
     inkscape:pagecheckerboard="0"
     showgrid="false"
     inkscape:zoom="8.0000001"
     inkscape:cx="33.375"
     inkscape:cy="45.6875"
     inkscape:window-width="1920"
     inkscape:window-height="996"
     inkscape:window-x="0"
     inkscape:window-y="0"
     inkscape:window-maximized="1"
     inkscape:current-layer="svg4"
     showguides="true" />
  <path
     d="M 2,32 C 2,10.4 10.4,2 32,2 53.6,2 62,10.4 62,32 62,53.6 53.6,62 32,62 10.4,62 2,53.6 2,32"
     id="path2"
     style="stroke-width:0.3;fill:#699cda;fill-opacity:1" />
  <path
     id="rect1366"
     style="fill:#ffffff;stroke-width:2;stroke-linejoin:round"
     d="m 22,14 v 2 h 3.964844 L 26,29.859375 c -7.8e-4,0.382353 -0.111491,0.756566 -0.318359,1.078125 -0.264007,0.416011 -0.470022,0.733452 -0.832032,1.355469 -0.534014,0.920025 -1.195948,2.096682 -1.917968,3.386719 -1.477788,2.650907 -2.942209,5.308778 -4.396485,7.972656 l 1.757813,0.957031 c 1.450297,-2.657863 2.910997,-5.308204 4.384765,-7.953125 0.718019,-1.282035 1.376283,-2.455257 1.904297,-3.363281 0.526015,-0.908025 0.981154,-1.625217 1.035157,-1.699219 C 27.867057,31.251061 28.000347,30.838173 28,30.414062 V 20 16 H 36.03125 37.964844 42 v -2 z m 14.03125,6 v 10.414062 c -10e-7,0.305061 0.0689,0.604963 0.203125,0.878907 2.402065,4.914133 5.147034,8.686251 7.371094,13.234375 0.01259,0.02703 0.02499,0.05379 0.03906,0.08008 0.480013,0.880024 0.508803,1.768836 -0.199219,2.630859 L 43.375,47.328125 C 43.086992,47.726136 42.396482,48 41.314453,48 H 26 v 2 h 15.316406 c 1.400038,0 2.800509,-0.352438 3.644532,-1.480469 l 0.04297,-0.05469 c 1.168032,-1.45804 1.172459,-3.396461 0.398438,-4.8125 l -0.04297,-0.07813 C 43.113312,39.000109 40.502249,35.317092 38.242188,30.792969 38.102795,30.514847 38.031271,30.207582 38.03125,29.896484 L 37.984375,20 Z"
     sodipodi:nodetypes="cccccccccccccccccccccccccccsccscccccccc" />
</svg>
