<?xml version="1.0" encoding="UTF-8" standalone="no"?>
<svg
   viewbox="0 0 200 200"
   version="1.1"
   id="svg4"
   sodipodi:docname="artikulate.svg"
   width="64"
   height="64"
   inkscape:version="1.1.1 (3bf5ae0d25, 2021-09-20, custom)"
   xmlns:inkscape="http://www.inkscape.org/namespaces/inkscape"
   xmlns:sodipodi="http://sodipodi.sourceforge.net/DTD/sodipodi-0.dtd"
   xmlns="http://www.w3.org/2000/svg"
   xmlns:svg="http://www.w3.org/2000/svg">
  <defs
     id="defs8" />
  <sodipodi:namedview
     id="namedview6"
     pagecolor="#ffffff"
     bordercolor="#666666"
     borderopacity="1.0"
     inkscape:pageshadow="2"
     inkscape:pageopacity="0.0"
     inkscape:pagecheckerboard="0"
     showgrid="false"
     inkscape:zoom="6.475"
     inkscape:cx="3.3976834"
     inkscape:cy="29.266409"
     inkscape:window-width="1920"
     inkscape:window-height="996"
     inkscape:window-x="0"
     inkscape:window-y="0"
     inkscape:window-maximized="1"
     inkscape:current-layer="svg4"
     showguides="false" />
  <path
     d="M 2,32 C 2,10.4 10.4,2 32,2 53.6,2 62,10.4 62,32 62,53.6 53.6,62 32,62 10.4,62 2,53.6 2,32"
     id="path2"
     style="stroke-width:0.3;fill:#4b94e6;fill-opacity:1" />
  <path
     id="rect6176"
     style="fill:#ffffff;fill-opacity:1;stroke:none;stroke-width:2;stroke-linecap:round;stroke-linejoin:round"
     d="M 16 14 C 14.337998 14 13 15.338 13 17 L 13 31 C 13 32.104569 13.895431 33 15 33 L 17 33 L 17 38 C 17.00035 38.890637 18.077036 39.336587 18.707031 38.707031 L 23.707031 33.707031 L 22.292969 32.292969 L 19 35.585938 L 19 33 L 19 32 L 19 31 L 15 31 L 15 17 C 15 16.446 15.446001 16 16 16 L 34 16 C 34.553999 16 35 16.446 35 17 L 35 25 C 34.999531 25.980927 33.589761 28.843938 31.5 31 C 29.207006 33.512592 26.999792 36.738933 27 39 L 27 46 C 27 47.662002 28.337998 49 30 49 L 38 49 L 38 47 L 30 47 C 29.446001 47 29 46.553999 29 46 L 29 39 C 29.01122 37.232935 30.198935 35.080217 32.902344 32 C 35.195338 29.487411 36.99915 26.397113 37 25 L 37 17 C 37 15.338 35.661998 14 34 14 L 16 14 z M 24.783203 19 C 24.391353 18.996 24.033276 19.221239 23.867188 19.576172 L 20 27.835938 L 21.816406 28.685547 L 22.783203 26.617188 L 26.654297 26.617188 L 27.632812 28.789062 L 29.457031 27.960938 L 25.683594 19.589844 C 25.523886 19.23471 25.172569 19.004563 24.783203 19 z M 24.753906 22.396484 L 25.753906 24.617188 L 23.716797 24.617188 L 24.753906 22.396484 z M 40 30 L 40 32 L 46 32 C 47.662 32 49 33.338002 49 35 L 49 47 L 49 50.585938 L 45.707031 47.292969 L 44.292969 48.707031 L 49.292969 53.707031 C 49.922964 54.336587 50.99965 53.890637 51 53 L 51 47 L 51 35 C 51 32.229999 48.77 30 46 30 L 40 30 z M 42 35 L 42 45 L 44 45 L 44 40 L 46 40 L 46 38 L 44 38 L 44 35 L 42 35 z M 35 36 L 35 38 L 38 38 C 38.00003 39.401933 36.69378 40.763415 35 42.330078 L 36 43.5 C 38.06115 41.964077 40.00053 39.048469 40 38 L 40 37 C 40 36.447715 39.552285 36 39 36 L 35 36 z " />
</svg>
