<?xml version="1.0" encoding="UTF-8" standalone="no"?>
<svg
   viewbox="0 0 200 200"
   version="1.1"
   id="svg4"
   sodipodi:docname="baobab.svg"
   width="64"
   height="64"
   inkscape:version="1.1.1 (3bf5ae0d25, 2021-09-20, custom)"
   xmlns:inkscape="http://www.inkscape.org/namespaces/inkscape"
   xmlns:sodipodi="http://sodipodi.sourceforge.net/DTD/sodipodi-0.dtd"
   xmlns="http://www.w3.org/2000/svg"
   xmlns:svg="http://www.w3.org/2000/svg">
  <defs
     id="defs8" />
  <sodipodi:namedview
     id="namedview6"
     pagecolor="#ffffff"
     bordercolor="#666666"
     borderopacity="1.0"
     inkscape:pageshadow="2"
     inkscape:pageopacity="0.0"
     inkscape:pagecheckerboard="0"
     showgrid="false"
     inkscape:zoom="6.0703125"
     inkscape:cx="3.6241956"
     inkscape:cy="40.277992"
     inkscape:window-width="1920"
     inkscape:window-height="1000"
     inkscape:window-x="0"
     inkscape:window-y="0"
     inkscape:window-maximized="1"
     inkscape:current-layer="svg4"
     showguides="false" />
  <path
     d="M 2,32 C 2,10.4 10.4,2 32,2 53.6,2 62,10.4 62,32 62,53.6 53.6,62 32,62 10.4,62 2,53.6 2,32"
     id="path2"
     style="stroke-width:0.3;fill:#9399a4;fill-opacity:1" />
  <path
     id="rect924"
     style="fill:#ffffff;stroke-width:1.79505;stroke-linecap:round;stroke-linejoin:round"
     d="m 87.814942,35.932129 c -1.108,0 -2,0.892 -2,2 v 11 h -1 c -1.108,0 -2,0.892 -2,2 v 21 a 6,6 0 0 0 6,6 h 11.999998 c 3.324,0 6,-2.676 6,-6 v -21 a 2,2 0 0 0 -2,-2 h -1 v -11 c 0,-1.108 -0.892,-2 -2,-2 z m 0,2 h 13.999998 v 11 H 87.814942 Z m 3,2 c -0.554,0 -1,0.446 -1,1 v 5 c 0,0.554 0.446,1 1,1 0.554,0 1,-0.446 1,-1 v -5 c 0,-0.554 -0.446,-1 -1,-1 z m 4,0 c -0.554,0 -1,0.446 -1,1 v 5 c 0,0.554 0.446,1 1,1 0.554,0 1,-0.446 1,-1 v -5 c 0,-0.554 -0.446,-1 -1,-1 z m 4,0 c -0.554,0 -1,0.446 -1,1 v 5 c 0,0.554 0.446,1 1,1 0.554,0 1,-0.446 1,-1 v -5 c 0,-0.554 -0.446,-1 -1,-1 z m -14,11 h 19.999998 v 21 c 0,2.216 -1.784,4 -4,4 H 88.814942 a 4,4 0 0 1 -4,-4 z" />
  <path
     id="path1295"
     style="color:#000000;fill:#ffffff;stroke:none;stroke-width:1.00001;stroke-linecap:round;stroke-linejoin:round;-inkscape-stroke:none"
     d="M 23 15 C 20.491054 15.004 19.611556 16.544173 19.167969 17.78125 L 12 39 L 12 44 C 12 46.77 14.23 49 17 49 L 32 49 L 32 47 L 17 47 C 15.341237 46.896327 14.01193 45.393234 14 44 L 14 41 L 32 41 L 32 39 L 14 39 L 20.832031 18.890625 C 21.230801 17.973973 21.741464 17.018561 23 17 L 41 17 C 42.258536 17.01856 42.769199 17.973973 43.167969 18.890625 L 46.177734 28 L 48.201172 28 L 44.832031 17.78125 C 44.388444 16.544173 43.508946 15.004 41 15 L 23 15 z M 45 32 A 10 10 0 0 0 35 42 A 10 10 0 0 0 45 52 A 10 10 0 0 0 55 42 A 10 10 0 0 0 45 32 z M 46 34.064453 A 8 8 0 0 1 52.935547 41 L 46 41 L 46 34.064453 z M 44 34.078125 L 44 40.113281 L 38.724609 37.066406 A 8 8 0 0 1 44 34.078125 z M 37.697266 38.785156 L 45 43 L 52.921875 43 A 8 8 0 0 1 45 50 A 8 8 0 0 1 37 42 A 8 8 0 0 1 37.697266 38.785156 z " />
</svg>
