<?xml version="1.0" encoding="UTF-8" standalone="no"?>
<svg
   viewbox="0 0 200 200"
   version="1.1"
   id="svg4"
   sodipodi:docname="calligrastage.svg"
   width="64"
   height="64"
   inkscape:version="1.1.1 (3bf5ae0d25, 2021-09-20, custom)"
   xmlns:inkscape="http://www.inkscape.org/namespaces/inkscape"
   xmlns:sodipodi="http://sodipodi.sourceforge.net/DTD/sodipodi-0.dtd"
   xmlns:xlink="http://www.w3.org/1999/xlink"
   xmlns="http://www.w3.org/2000/svg"
   xmlns:svg="http://www.w3.org/2000/svg">
  <defs
     id="defs8">
    <linearGradient
       inkscape:collect="always"
       id="linearGradient9089">
      <stop
         style="stop-color:#197cf1;stop-opacity:1"
         offset="0"
         id="stop9085" />
      <stop
         style="stop-color:#20bcfa;stop-opacity:1"
         offset="1"
         id="stop9087" />
    </linearGradient>
    <linearGradient
       inkscape:collect="always"
       xlink:href="#linearGradient9089"
       id="linearGradient9091"
       x1="12"
       y1="58"
       x2="62"
       y2="8"
       gradientUnits="userSpaceOnUse" />
  </defs>
  <sodipodi:namedview
     id="namedview6"
     pagecolor="#ffffff"
     bordercolor="#666666"
     borderopacity="1.0"
     inkscape:pageshadow="2"
     inkscape:pageopacity="0.0"
     inkscape:pagecheckerboard="0"
     showgrid="false"
     inkscape:zoom="6.4416667"
     inkscape:cx="-3.7257438"
     inkscape:cy="27.865459"
     inkscape:window-width="1920"
     inkscape:window-height="996"
     inkscape:window-x="0"
     inkscape:window-y="0"
     inkscape:window-maximized="1"
     inkscape:current-layer="svg4"
     showguides="false" />
  <path
     d="M 2,32 C 2,10.4 10.4,2 32,2 53.6,2 62,10.4 62,32 62,53.6 53.6,62 32,62 10.4,62 2,53.6 2,32"
     id="path2"
     style="stroke-width:0.3;fill:url(#linearGradient9091);fill-opacity:1" />
  <path
     id="path3817"
     style="color:#000000;fill:#ffffff;stroke:none;stroke-width:0.99356;stroke-linecap:round;stroke-linejoin:round;-inkscape-stroke:none"
     d="M 21 12 L 21 14 L 43 14 L 43 12 L 21 12 z M 17 16 L 17 18 L 47 18 L 47 16 L 17 16 z M 16 20 C 13.783999 20 12 21.783999 12 24 L 12 48 L 14 48 L 14 24 C 14 22.892 14.893706 22.061461 16 22 L 52 22 L 52 20 L 16 20 z M 26.4375 25 L 25.498047 26.771484 L 36.744141 33.683594 C 37.078722 33.873372 37.078722 34.349286 36.744141 34.539062 L 28.246094 40.462891 C 27.913006 40.650722 27.496575 40.413891 27.496094 40.035156 L 27.496094 30.228516 L 25.496094 30.228516 L 25.496094 41.021484 C 25.495592 42.545713 27.170335 43.496355 28.503906 42.728516 L 38.501953 35.816406 C 39.826769 35.054742 39.826769 33.165961 38.501953 32.404297 L 26.4375 25 z M 50 26 L 50 42 C 50 44.216 48.216 46 46 46 L 18 46 L 18 48 L 46 48 C 49.324 48 52 45.324 52 42 L 52 26 L 50 26 z " />
</svg>
