<?xml version="1.0" encoding="UTF-8" standalone="no"?>
<svg
   viewbox="0 0 200 200"
   version="1.1"
   id="svg4"
   sodipodi:docname="cantor.svg"
   width="64"
   height="64"
   inkscape:version="1.1.1 (3bf5ae0d25, 2021-09-20, custom)"
   xmlns:inkscape="http://www.inkscape.org/namespaces/inkscape"
   xmlns:sodipodi="http://sodipodi.sourceforge.net/DTD/sodipodi-0.dtd"
   xmlns="http://www.w3.org/2000/svg"
   xmlns:svg="http://www.w3.org/2000/svg">
  <defs
     id="defs8" />
  <sodipodi:namedview
     id="namedview6"
     pagecolor="#ffffff"
     bordercolor="#666666"
     borderopacity="1.0"
     inkscape:pageshadow="2"
     inkscape:pageopacity="0.0"
     inkscape:pagecheckerboard="0"
     showgrid="false"
     inkscape:zoom="12.078125"
     inkscape:cx="31.958603"
     inkscape:cy="32"
     inkscape:window-width="1920"
     inkscape:window-height="996"
     inkscape:window-x="0"
     inkscape:window-y="0"
     inkscape:window-maximized="1"
     inkscape:current-layer="svg4"
     showguides="false" />
  <path
     d="M 2,32 C 2,10.4 10.4,2 32,2 53.6,2 62,10.4 62,32 62,53.6 53.6,62 32,62 10.4,62 2,53.6 2,32"
     id="path2"
     style="stroke-width:0.3;fill:#3c474b;fill-opacity:1" />
  <path
     id="rect1588"
     style="fill:#dab985;stroke-width:2;stroke-linecap:round;stroke-linejoin:round;fill-opacity:1"
     d="m 15,16 c -1.108,0 -2,0.892 -2,2 v 30 h 2 V 18 h 36 v -2 z m 34,7 v 20 c 0,1.662 -1.338,3 -3,3 H 19 v 2 h 27 c 2.77,0 4.67635,-2.248973 5,-5 V 23 Z"
     sodipodi:nodetypes="sscccccscssccsccc" />
  <path
     d="m 28.613281,24 -4.5,10.5 -2.380859,-3.943359 -1.732422,1 L 24.613281,39 30.140625,26 h 12.472656 v -2 z m 3.171875,4.757812 -1.414063,1.414063 2.414063,2.414063 1.414063,-1.414063 z m 7.65625,0 -9.070313,9.070313 1.414063,1.414063 3.828125,-3.828126 3.828125,3.828126 1.414063,-1.414063 L 37.027343,34 40.855469,30.171875 Z"
     style="fill:#ffffff;stroke-width:4;stroke-linecap:round;stroke-linejoin:round"
     id="path847" />
</svg>
