<?xml version="1.0" encoding="UTF-8" standalone="no"?>
<svg
   viewbox="0 0 200 200"
   version="1.1"
   id="svg4"
   sodipodi:docname="celluloid.svg"
   width="64"
   height="64"
   inkscape:version="1.1.1 (3bf5ae0d25, 2021-09-20, custom)"
   xmlns:inkscape="http://www.inkscape.org/namespaces/inkscape"
   xmlns:sodipodi="http://sodipodi.sourceforge.net/DTD/sodipodi-0.dtd"
   xmlns:xlink="http://www.w3.org/1999/xlink"
   xmlns="http://www.w3.org/2000/svg"
   xmlns:svg="http://www.w3.org/2000/svg">
  <defs
     id="defs8">
    <linearGradient
       inkscape:collect="always"
       id="linearGradient2073">
      <stop
         style="stop-color:#3c68c3;stop-opacity:1"
         offset="0"
         id="stop2069" />
      <stop
         style="stop-color:#e03561;stop-opacity:1"
         offset="1"
         id="stop2071" />
    </linearGradient>
    <linearGradient
       inkscape:collect="always"
       xlink:href="#linearGradient2073"
       id="linearGradient2075"
       x1="0"
       y1="0"
       x2="64"
       y2="64"
       gradientUnits="userSpaceOnUse" />
  </defs>
  <sodipodi:namedview
     id="namedview6"
     pagecolor="#ffffff"
     bordercolor="#666666"
     borderopacity="1.0"
     inkscape:pageshadow="2"
     inkscape:pageopacity="0.0"
     inkscape:pagecheckerboard="0"
     showgrid="false"
     inkscape:zoom="6.0390625"
     inkscape:cx="10.680466"
     inkscape:cy="39.989651"
     inkscape:window-width="1567"
     inkscape:window-height="932"
     inkscape:window-x="56"
     inkscape:window-y="50"
     inkscape:window-maximized="0"
     inkscape:current-layer="svg4"
     showguides="true" />
  <path
     d="M 2,32 C 2,10.4 10.4,2 32,2 53.6,2 62,10.4 62,32 62,53.6 53.6,62 32,62 10.4,62 2,53.6 2,32"
     id="path2"
     style="stroke-width:0.3;fill:url(#linearGradient2075);fill-opacity:1;stroke:none" />
  <path
     id="path2090"
     style="color:#000000;fill:#ffffff;stroke-width:2.13735;stroke-linecap:round;stroke-linejoin:round;-inkscape-stroke:none"
     d="M 22.492188,17 21.375,18.775165 43,30.181004 c 1.332305,0.790537 1.332305,2.724527 0,3.515064 L 25.070312,44.7022 C 23.713746,45.505669 22.000638,44.525038 22,42.944667 V 26.916244 h -2 v 15.812895 c -1.37e-4,3.314944 3.635292,5.362272 6.492188,3.656138 L 43.919922,35.594673 c 2.773953,-1.656301 2.773953,-5.655974 0,-7.312274 z"
     sodipodi:nodetypes="ccccccccccccc" />
</svg>
