<?xml version="1.0" encoding="UTF-8" standalone="no"?>
<svg
   viewbox="0 0 200 200"
   version="1.1"
   id="svg4"
   sodipodi:docname="clementine.svg"
   width="64"
   height="64"
   inkscape:version="1.1.1 (3bf5ae0d25, 2021-09-20, custom)"
   xmlns:inkscape="http://www.inkscape.org/namespaces/inkscape"
   xmlns:sodipodi="http://sodipodi.sourceforge.net/DTD/sodipodi-0.dtd"
   xmlns="http://www.w3.org/2000/svg"
   xmlns:svg="http://www.w3.org/2000/svg">
  <defs
     id="defs8" />
  <sodipodi:namedview
     id="namedview6"
     pagecolor="#ffffff"
     bordercolor="#666666"
     borderopacity="1.0"
     inkscape:pageshadow="2"
     inkscape:pageopacity="0.0"
     inkscape:pagecheckerboard="0"
     showgrid="false"
     inkscape:zoom="13.0625"
     inkscape:cx="34.909091"
     inkscape:cy="35.100478"
     inkscape:window-width="1920"
     inkscape:window-height="996"
     inkscape:window-x="0"
     inkscape:window-y="0"
     inkscape:window-maximized="1"
     inkscape:current-layer="svg4"
     showguides="true" />
  <path
     d="M 2,32 C 2,10.4 10.4,2 32,2 53.6,2 62,10.4 62,32 62,53.6 53.6,62 32,62 10.4,62 2,53.6 2,32"
     id="path2"
     style="stroke-width:0.3;fill:#ff7f2a;fill-opacity:1" />
  <circle
     style="fill:#ffe6d5;stroke-width:3;stroke-linecap:round;stroke-linejoin:round;fill-opacity:1"
     id="path924"
     cx="32"
     cy="32"
     r="20" />
  <path
     style="color:#000000;fill:#ff9f09;fill-opacity:1;stroke:none;stroke-width:1.05882;stroke-linecap:round;stroke-linejoin:round;-inkscape-stroke:none"
     d="M 34.250003,14.139449 C 33.617719,14.059858 33.05888,14.552726 33.058827,15.19 v 13.133959 c 7.84e-4,0.814629 0.882675,1.323323 1.588235,0.916131 l 11.376146,-6.568014 c 0.552158,-0.318631 0.699658,-1.049345 0.314339,-1.557215 -2.926666,-3.855943 -7.284699,-6.370131 -12.087544,-6.975412 z m -4.502067,0.01241 c -4.791202,0.615932 -9.135178,3.133376 -12.052387,6.983684 -0.383713,0.507545 -0.236375,1.236475 0.314338,1.555147 l 11.343058,6.5494 c 0.705561,0.407192 1.587451,-0.101499 1.588235,-0.916131 V 15.202408 c 1.05e-4,-0.638215 -0.560184,-1.1315 -1.193244,-1.050549 z m 18.202661,10.269762 c -0.287923,-0.09665 -0.603485,-0.06502 -0.866497,0.08686 l -11.378215,6.56801 c -0.70381,0.407993 -0.70381,1.424268 0,1.83226 l 11.355466,6.555606 c 0.550419,0.317503 1.254579,0.08213 1.503446,-0.502528 0.936724,-2.203243 1.424909,-4.571 1.435203,-6.965077 v -0.0021 -0.002 c -8.93e-4,-2.396876 -0.480235,-4.770515 -1.410386,-6.979549 -0.118348,-0.279655 -0.351058,-0.495046 -0.639017,-0.591452 z m -31.876371,0.01038 c -0.287956,0.09641 -0.520667,0.311797 -0.639016,0.591453 -0.936723,2.203196 -1.424908,4.570954 -1.435203,6.965031 -10e-6,0.0028 -10e-6,0.0055 0,0.0083 0.01027,2.394077 0.49848,4.761835 1.435203,6.965072 0.248868,0.584666 0.953027,0.820031 1.503446,0.502528 l 11.355466,-6.555593 c 0.70381,-0.407992 0.70381,-1.424267 0,-1.83226 L 16.938656,24.52088 C 16.676505,24.36893 16.36182,24.33656 16.074225,24.43196 Z m 13.278719,10.313146 -11.343058,6.549401 c -0.550713,0.318672 -0.698051,1.047602 -0.314338,1.555147 2.917209,3.850308 7.261185,6.367751 12.052387,6.983684 0.633061,0.08095 1.193349,-0.412336 1.193244,-1.050551 v -13.12155 c -7.84e-4,-0.814629 -0.882674,-1.323324 -1.588235,-0.916131 z m 4.235293,0 c -0.327326,0.189007 -0.52909,0.538154 -0.529411,0.916131 v 13.12155 c -1.05e-4,0.638215 0.560184,1.131502 1.193244,1.050551 4.791202,-0.615933 9.135179,-3.133376 12.052387,-6.983684 0.383713,-0.507545 0.236375,-1.236475 -0.314338,-1.555147 L 34.647062,34.745143 c -0.327607,-0.189119 -0.731215,-0.189119 -1.058824,0 z"
     id="path2515"
     sodipodi:nodetypes="ccccccccccccccscccccscscssccsccccccccccccccccccccccc" />
</svg>
