<?xml version="1.0" encoding="UTF-8" standalone="no"?>
<svg
   viewbox="0 0 200 200"
   version="1.1"
   id="svg4"
   sodipodi:docname="clocks.svg"
   width="64"
   height="64"
   inkscape:version="1.1.1 (3bf5ae0d25, 2021-09-20, custom)"
   xmlns:inkscape="http://www.inkscape.org/namespaces/inkscape"
   xmlns:sodipodi="http://sodipodi.sourceforge.net/DTD/sodipodi-0.dtd"
   xmlns="http://www.w3.org/2000/svg"
   xmlns:svg="http://www.w3.org/2000/svg">
  <defs
     id="defs8" />
  <sodipodi:namedview
     id="namedview6"
     pagecolor="#ffffff"
     bordercolor="#666666"
     borderopacity="1.0"
     inkscape:pageshadow="2"
     inkscape:pageopacity="0.0"
     inkscape:pagecheckerboard="0"
     showgrid="false"
     inkscape:zoom="10.944511"
     inkscape:cx="25.126751"
     inkscape:cy="42.167256"
     inkscape:window-width="1920"
     inkscape:window-height="996"
     inkscape:window-x="0"
     inkscape:window-y="0"
     inkscape:window-maximized="1"
     inkscape:current-layer="svg4"
     showguides="false" />
  <path
     d="M 2,32 C 2,10.4 10.4,2 32,2 53.6,2 62,10.4 62,32 62,53.6 53.6,62 32,62 10.4,62 2,53.6 2,32"
     id="path2"
     style="stroke-width:0.3;fill:#fafafa;fill-opacity:1" />
  <path
     id="path951"
     style="fill:#4b4b4b;fill-opacity:1;stroke-width:4.44444;stroke-linecap:round;stroke-linejoin:round"
     d="m 32,12 c -11.045695,0 -20,8.954305 -20,20 0,11.045695 8.954305,20 20,20 2.660532,-0.01177 5.291975,-0.554263 7.740234,-1.595703 L 38.730469,48.634766 C 36.595388,49.517572 34.310316,49.981085 32,50 22.058875,50 14,41.941125 14,32 c 0,-9.941125 8.058875,-18 18,-18 9.941125,0 18,8.058875 18,18 -0.01404,2.119075 -0.402158,4.219024 -1.146484,6.203125 l 1.751953,1 C 51.510507,36.908617 51.983305,34.466492 52,32 52,20.954305 43.045695,12 32,12 Z M 32.414062,30.585938 31,32 l 6.484375,6.484375 1.416016,-1.414063 z"
     sodipodi:nodetypes="ssccccssccccsccccc" />
  <rect
     style="fill:#4b4b4b;fill-opacity:1;stroke-width:4;stroke-linecap:round;stroke-linejoin:round"
     id="rect1237"
     width="2"
     height="12"
     x="31"
     y="20" />
</svg>
