<?xml version="1.0" encoding="UTF-8" standalone="no"?>
<svg
   viewbox="0 0 200 200"
   version="1.1"
   id="svg4"
   sodipodi:docname="com.uploadedlobster.peek.svg"
   width="64"
   height="64"
   inkscape:version="1.1.1 (3bf5ae0d25, 2021-09-20, custom)"
   xmlns:inkscape="http://www.inkscape.org/namespaces/inkscape"
   xmlns:sodipodi="http://sodipodi.sourceforge.net/DTD/sodipodi-0.dtd"
   xmlns="http://www.w3.org/2000/svg"
   xmlns:svg="http://www.w3.org/2000/svg">
  <defs
     id="defs8" />
  <sodipodi:namedview
     id="namedview6"
     pagecolor="#ffffff"
     bordercolor="#666666"
     borderopacity="1.0"
     inkscape:pageshadow="2"
     inkscape:pageopacity="0.0"
     inkscape:pagecheckerboard="0"
     showgrid="false"
     inkscape:zoom="9.1098924"
     inkscape:cx="26.893841"
     inkscape:cy="37.486722"
     inkscape:window-width="1920"
     inkscape:window-height="996"
     inkscape:window-x="0"
     inkscape:window-y="0"
     inkscape:window-maximized="1"
     inkscape:current-layer="svg4"
     showguides="false" />
  <path
     d="M 2,32 C 2,10.4 10.4,2 32,2 53.6,2 62,10.4 62,32 62,53.6 53.6,62 32,62 10.4,62 2,53.6 2,32"
     id="path2"
     style="stroke-width:0.3;fill:#e69720;fill-opacity:1" />
  <path
     id="rect843"
     style="fill:#ffffff;stroke:none;stroke-width:4;stroke-linecap:round;stroke-linejoin:round"
     d="m 15,13 c -1.108,0 -2,0.892 -2,2 v 36 h 2 V 15 h 36 v -2 z m 34,5 v 28 c 0,1.662 -1.338,3 -3,3 H 18.5 v 2 H 46 c 2.77,0 5,-2.23 5,-5 V 18 Z"
     sodipodi:nodetypes="sscccccscssccsscc" />
  <path
     id="rect1641"
     style="fill:#ffffff;stroke-width:2;stroke-linecap:round"
     d="M 20 20 L 20 25 L 22 25 L 22 22 L 25 22 L 25 20 L 20 20 z M 39 20 L 39 22 L 42 22 L 42 25 L 44 25 L 44 20 L 39 20 z M 20 39 L 20 44 L 25 44 L 25 42 L 22 42 L 22 39 L 20 39 z M 42 39 L 42 42 L 39 42 L 39 44 L 44 44 L 44 39 L 42 39 z " />
</svg>
