<?xml version="1.0" encoding="UTF-8" standalone="no"?>
<svg
   viewbox="0 0 200 200"
   version="1.1"
   id="svg4"
   sodipodi:docname="com.rafaelmardojai.Blanket.svg"
   width="64"
   height="64"
   inkscape:version="1.1.1 (3bf5ae0d25, 2021-09-20, custom)"
   xmlns:inkscape="http://www.inkscape.org/namespaces/inkscape"
   xmlns:sodipodi="http://sodipodi.sourceforge.net/DTD/sodipodi-0.dtd"
   xmlns="http://www.w3.org/2000/svg"
   xmlns:svg="http://www.w3.org/2000/svg">
  <defs
     id="defs8" />
  <sodipodi:namedview
     id="namedview6"
     pagecolor="#ffffff"
     bordercolor="#666666"
     borderopacity="1.0"
     inkscape:pageshadow="2"
     inkscape:pageopacity="0.0"
     inkscape:pagecheckerboard="0"
     showgrid="false"
     inkscape:zoom="6.4416667"
     inkscape:cx="22.820181"
     inkscape:cy="39.19793"
     inkscape:window-width="1920"
     inkscape:window-height="996"
     inkscape:window-x="0"
     inkscape:window-y="0"
     inkscape:window-maximized="1"
     inkscape:current-layer="svg4"
     showguides="false" />
  <path
     d="M 2,32 C 2,10.4 10.4,2 32,2 53.6,2 62,10.4 62,32 62,53.6 53.6,62 32,62 10.4,62 2,53.6 2,32"
     id="path2"
     style="stroke-width:0.3;fill:#61bbfa;fill-opacity:1;stroke:none" />
  <path
     id="rect2717"
     style="fill:#ffffff;stroke-width:2;stroke-linejoin:round"
     d="M 19 12 C 15.676 12 13 14.676 13 18 L 13 48 L 15 48 L 15 42 L 18 42 L 18 40 L 15 40 L 15 18 C 15 15.784 16.784 14 19 14 C 21.216 14 23 15.784 23 18 L 23 44 L 23 52 L 25 52 L 25 46 L 29 46 L 29 44 L 25 44 L 25 18 C 25 16.457867 24.418199 15.060671 23.46875 14 L 45 14 A 4 4 0 0 1 49 18 L 49 44 L 47 44 C 45.895431 44 45 44.895431 45 46 L 45 52 L 47 52 L 47 46 L 49 46 L 51 46 L 51 18 A 6 6 0 0 0 45 12 L 19 12 z M 36 44 A 2 2 0 0 0 34 46 L 34 52 L 36 52 L 36 46 L 40 46 L 40 44 L 36 44 z " />
</svg>
