<?xml version="1.0" encoding="UTF-8" standalone="no"?>
<svg
   viewbox="0 0 200 200"
   version="1.1"
   id="svg4"
   sodipodi:docname="dconf-editor.svg"
   width="64"
   height="64"
   inkscape:version="1.1.1 (3bf5ae0d25, 2021-09-20, custom)"
   xmlns:inkscape="http://www.inkscape.org/namespaces/inkscape"
   xmlns:sodipodi="http://sodipodi.sourceforge.net/DTD/sodipodi-0.dtd"
   xmlns="http://www.w3.org/2000/svg"
   xmlns:svg="http://www.w3.org/2000/svg">
  <defs
     id="defs8" />
  <sodipodi:namedview
     id="namedview6"
     pagecolor="#ffffff"
     bordercolor="#666666"
     borderopacity="1.0"
     inkscape:pageshadow="2"
     inkscape:pageopacity="0.0"
     inkscape:pagecheckerboard="0"
     showgrid="false"
     inkscape:zoom="12.140625"
     inkscape:cx="31.958816"
     inkscape:cy="32"
     inkscape:window-width="1920"
     inkscape:window-height="1000"
     inkscape:window-x="0"
     inkscape:window-y="0"
     inkscape:window-maximized="1"
     inkscape:current-layer="svg4"
     showguides="false" />
  <rect
     style="fill:#ffffff;stroke-width:2;stroke-linecap:round;stroke-linejoin:round"
     id="rect1503"
     width="7"
     height="2"
     x="21"
     y="26" />
  <path
     d="M 2,32 C 2,10.4 10.4,2 32,2 53.6,2 62,10.4 62,32 62,53.6 53.6,62 32,62 10.4,62 2,53.6 2,32"
     id="path2"
     style="stroke-width:0.3;fill:#74889f;fill-opacity:1" />
  <path
     id="path3817"
     style="color:#000000;fill:#ffffff;stroke:none;stroke-width:0.99356;stroke-linecap:round;stroke-linejoin:round;-inkscape-stroke:none"
     d="m 17,17 c -2.216001,0 -4,1.783999 -4,4 v 26 h 2 V 21 c 0,-1.108 0.893912,-2.065064 2,-2 h 34.000005 v -2 z m 32.000005,6 v 18 c 0,2.216 -1.790527,3.830041 -4,4 H 19 v 2 h 26.000005 c 3.32399,0 6,-2.676 6,-6 V 23 Z"
     sodipodi:nodetypes="ssccscccscssccsscc" />
  <path
     id="path1055-6"
     style="fill:#ffffff;stroke-width:1.5;stroke-linecap:round;stroke-linejoin:round"
     d="M 39 34 A 3 3 0 0 0 36 37 A 3 3 0 0 0 39 40 A 3 3 0 0 0 41.820312 38 L 45 38 L 45 36 L 41.828125 36 A 3 3 0 0 0 39 34 z M 19 36 L 19 38 L 34 38 L 34 36 L 19 36 z M 38 36 L 40 36 L 40 38 L 38 38 L 38 36 z " />
  <path
     id="rect1399"
     style="fill:#ffffff;stroke-width:1.92725;stroke-linecap:round;stroke-linejoin:round"
     d="M 26 24 A 3 3 0 0 0 23.179688 26 L 19 26 L 19 28 L 23.179688 28 A 3 3 0 0 0 26 30 A 3 3 0 0 0 29 27 A 3 3 0 0 0 26 24 z M 25 26 L 27 26 L 27 28 L 25 28 L 25 26 z M 31 26 L 31 28 L 45 28 L 45 26 L 31 26 z " />
</svg>
