<?xml version="1.0" encoding="UTF-8" standalone="no"?>
<svg
   viewbox="0 0 200 200"
   version="1.1"
   id="svg4"
   sodipodi:docname="de.haeckerfelix.Fragments.svg"
   width="64"
   height="64"
   inkscape:version="1.1.1 (3bf5ae0d25, 2021-09-20, custom)"
   xmlns:inkscape="http://www.inkscape.org/namespaces/inkscape"
   xmlns:sodipodi="http://sodipodi.sourceforge.net/DTD/sodipodi-0.dtd"
   xmlns:xlink="http://www.w3.org/1999/xlink"
   xmlns="http://www.w3.org/2000/svg"
   xmlns:svg="http://www.w3.org/2000/svg">
  <defs
     id="defs8">
    <linearGradient
       inkscape:collect="always"
       id="linearGradient11127">
      <stop
         style="stop-color:#fae42f;stop-opacity:1"
         offset="0"
         id="stop11123" />
      <stop
         style="stop-color:#fae422;stop-opacity:0.94117647"
         offset="0.5"
         id="stop11195" />
      <stop
         style="stop-color:#fae42f;stop-opacity:0"
         offset="1"
         id="stop11125" />
    </linearGradient>
    <linearGradient
       inkscape:collect="always"
       id="linearGradient7945">
      <stop
         style="stop-color:#32a9f4;stop-opacity:1;"
         offset="0"
         id="stop7941" />
      <stop
         style="stop-color:#32a9f4;stop-opacity:0.60000002"
         offset="0.5"
         id="stop8910" />
      <stop
         style="stop-color:#32a9f4;stop-opacity:0;"
         offset="1"
         id="stop7943" />
    </linearGradient>
    <linearGradient
       inkscape:collect="always"
       id="linearGradient6212">
      <stop
         style="stop-color:#ffb25a;stop-opacity:1"
         offset="0"
         id="stop6208" />
      <stop
         style="stop-color:#ffb25a;stop-opacity:0.50196081"
         offset="0.5"
         id="stop6536" />
      <stop
         style="stop-color:#ffb25a;stop-opacity:0"
         offset="1"
         id="stop6210" />
    </linearGradient>
    <linearGradient
       inkscape:collect="always"
       id="linearGradient3695">
      <stop
         style="stop-color:#be3ce9;stop-opacity:1"
         offset="0"
         id="stop3691" />
      <stop
         style="stop-color:#be3ce9;stop-opacity:0.50196081"
         offset="0.5"
         id="stop3955" />
      <stop
         style="stop-color:#be3ce9;stop-opacity:0"
         offset="1"
         id="stop3693" />
    </linearGradient>
    <radialGradient
       inkscape:collect="always"
       xlink:href="#linearGradient3695"
       id="radialGradient3697"
       cx="-1.4092577"
       cy="55.554527"
       fx="-1.4092577"
       fy="55.554527"
       r="30"
       gradientUnits="userSpaceOnUse"
       gradientTransform="matrix(-0.78591697,-0.66463655,0.88715255,-1.0490369,12.649763,79.14937)" />
    <radialGradient
       inkscape:collect="always"
       xlink:href="#linearGradient6212"
       id="radialGradient6214"
       cx="32.31749"
       cy="35.957447"
       fx="32.31749"
       fy="35.957447"
       r="30"
       gradientUnits="userSpaceOnUse"
       gradientTransform="matrix(1.1039003,0.97347395,-0.59305885,0.67251718,-9.3193515,-40.611491)" />
    <radialGradient
       inkscape:collect="always"
       xlink:href="#linearGradient7945"
       id="radialGradient7947"
       cx="4.8273349"
       cy="29.936211"
       fx="4.8273349"
       fy="29.936211"
       r="30"
       gradientUnits="userSpaceOnUse"
       gradientTransform="matrix(1.5488561,-1.3507606,0.96567074,1.1072914,-6.9325795,39.448149)" />
    <radialGradient
       inkscape:collect="always"
       xlink:href="#linearGradient11127"
       id="radialGradient11129"
       cx="-6.7739997"
       cy="37.021408"
       fx="-6.7739997"
       fy="37.021408"
       r="30"
       gradientTransform="matrix(0.72062853,0.61319227,-0.65486537,0.76960319,29.834506,15.832085)"
       gradientUnits="userSpaceOnUse" />
  </defs>
  <sodipodi:namedview
     id="namedview6"
     pagecolor="#ffffff"
     bordercolor="#666666"
     borderopacity="1.0"
     inkscape:pageshadow="2"
     inkscape:pageopacity="0.0"
     inkscape:pagecheckerboard="0"
     showgrid="false"
     inkscape:zoom="5.6568542"
     inkscape:cx="13.611806"
     inkscape:cy="32.792077"
     inkscape:window-width="1920"
     inkscape:window-height="996"
     inkscape:window-x="0"
     inkscape:window-y="0"
     inkscape:window-maximized="1"
     inkscape:current-layer="svg4"
     showguides="false" />
  <path
     d="M 32,2 C 53.6,2 62,10.4 62,32 62,53.6 53.6,62 32,62 10.4,62 2,53.6 2,32 2,10.4 10.4,2 32,2"
     id="path2"
     style="fill:#f5466a;fill-opacity:1;stroke-width:0.3" />
  <path
     id="rect10140"
     style="fill:url(#radialGradient11129);fill-opacity:1;stroke-linecap:round;stroke-linejoin:round"
     d="M 62,32 C 62,10.4 53.6,2.0000005 32.000001,2.0000005 10.400009,2.0000005 1.9999995,10.4 1.9999995,32 c 0,21.6 8.4000105,30 30.0000015,30 C 53.6,62 62,53.6 62,32 Z" />
  <path
     id="rect5801"
     style="fill:url(#radialGradient6214);fill-opacity:1;stroke-linecap:round;stroke-linejoin:round"
     d="M 62,32 C 62,10.4 53.6,1.9999995 32,1.9999995 10.400001,1.9999995 2.0000005,10.4 2.0000005,32 2.0000005,53.6 10.4,62 32,62 53.6,62 62,53.6 62,32 Z" />
  <path
     id="rect7310"
     style="fill:url(#radialGradient7947);fill-opacity:1;stroke-linecap:round;stroke-linejoin:round"
     d="M 62,32 C 62,10.4 53.6,1.9999995 32,1.9999995 10.400001,1.9999995 2.0000005,10.4 2.0000005,32 2.0000005,53.6 10.4,62 32,62 53.6,62 62,53.6 62,32 Z" />
  <path
     id="rect3608"
     style="fill:url(#radialGradient3697);fill-opacity:1;stroke-linecap:round;stroke-linejoin:round"
     d="M 62,32 C 62,10.4 53.6,1.9999995 32,1.9999995 10.400001,1.9999995 2.0000005,10.4 2.0000005,32 2.0000005,53.6 10.4,62 32,62 53.6,62 62,53.6 62,32 Z" />
  <path
     id="rect1991"
     style="fill:#ffffff;fill-opacity:1;stroke-width:1.5748;stroke-linecap:round;stroke-linejoin:round"
     d="m 31.999566,9.918 c -0.766857,0 -1.533488,0.293253 -2.121094,0.880859 L 10.96441,29.712922 c -1.1752139,1.175211 -1.1752129,3.066976 0,4.242187 l 16.035156,16.03711 v -2.66211 L 12.378472,32.707062 c -0.391737,-0.391737 -0.391737,-1.022325 0,-1.414062 L 30.999566,12.671906 v 24 l -7.363281,-7.363281 -1.414063,1.414062 8.363282,8.363282 c 0.781013,0.780847 2.047111,0.780847 2.828124,0 l 8.363282,-8.363282 -1.414063,-1.414062 -7.363281,7.363281 v -24 -1.671875 -0.898438 C 32.675553,9.986456 32.3392,9.918 31.999566,9.918 Z m 5,3.759765 v 2.994141 L 51.622613,31.293 c 0.391737,0.391737 0.391737,1.022325 0,1.414062 L 30.706597,53.623078 32.12066,54.871125 53.036675,33.955109 c 1.175211,-1.175212 1.175212,-3.066976 0,-4.242187 z"
     sodipodi:nodetypes="sscccccsccccccccccccscccsccscc" />
</svg>
