<?xml version="1.0" encoding="UTF-8" standalone="no"?>
<svg
   viewbox="0 0 200 200"
   version="1.1"
   id="svg4"
   sodipodi:docname="desktop-environment-unity.svg"
   width="64"
   height="64"
   inkscape:version="1.1.1 (3bf5ae0d25, 2021-09-20, custom)"
   xmlns:inkscape="http://www.inkscape.org/namespaces/inkscape"
   xmlns:sodipodi="http://sodipodi.sourceforge.net/DTD/sodipodi-0.dtd"
   xmlns="http://www.w3.org/2000/svg"
   xmlns:svg="http://www.w3.org/2000/svg">
  <defs
     id="defs8" />
  <sodipodi:namedview
     id="namedview6"
     pagecolor="#ffffff"
     bordercolor="#666666"
     borderopacity="1.0"
     inkscape:pageshadow="2"
     inkscape:pageopacity="0.0"
     inkscape:pagecheckerboard="0"
     showgrid="false"
     inkscape:zoom="9.1098924"
     inkscape:cx="23.490947"
     inkscape:cy="30.900475"
     inkscape:window-width="1920"
     inkscape:window-height="996"
     inkscape:window-x="0"
     inkscape:window-y="0"
     inkscape:window-maximized="1"
     inkscape:current-layer="svg4"
     showguides="false" />
  <path
     d="M 2,32 C 2,10.4 10.4,2 32,2 53.6,2 62,10.4 62,32 62,53.6 53.6,62 32,62 10.4,62 2,53.6 2,32"
     id="path2"
     style="stroke-width:0.3;fill:#77216f;fill-opacity:1" />
  <path
     id="path3817"
     style="color:#000000;fill:#ffffff;stroke:none;stroke-width:0.99356;stroke-linecap:round;stroke-linejoin:round;-inkscape-stroke:none"
     d="M 16 16 C 13.783999 16 12 17.783999 12 20 L 12 48 L 14 48 L 14 20 C 14 18.892 14.892 18 16 18 L 52 18 L 52 16 L 16 16 z M 50 22 L 50 42 C 50 44.216 48.216 46 46 46 L 18 46 L 18 48 L 46 48 C 49.324 48 52 45.324 52 42 L 52 22 L 50 22 z M 25 24 L 25 34.074219 C 25 35.301681 25.11606 36.424334 25.347656 37.443359 C 25.602413 38.462385 26.006668 39.330879 26.5625 40.048828 C 27.118332 40.766778 27.848726 41.323083 28.751953 41.716797 C 29.65518 42.110512 30.777834 42.308594 32.121094 42.308594 C 33.76543 42.308594 35.156192 42.192534 36.291016 41.960938 C 37.42584 41.729341 38.32837 41.521215 39 41.335938 L 39 24 L 36.742188 24 L 36.742188 39.771484 C 36.53375 39.864123 36.035476 39.968186 35.248047 40.083984 C 34.460618 40.199782 33.534095 40.257812 32.46875 40.257812 C 31.519204 40.257813 30.708739 40.141753 30.037109 39.910156 C 29.388639 39.6554 28.856327 39.263141 28.439453 38.730469 C 28.022579 38.174637 27.720434 37.456239 27.535156 36.576172 C 27.349879 35.696105 27.257812 34.619484 27.257812 33.345703 L 27.257812 24 L 25 24 z " />
</svg>
