<?xml version="1.0" encoding="UTF-8" standalone="no"?>
<svg
   viewbox="0 0 200 200"
   version="1.1"
   id="svg4"
   sodipodi:docname="devhelp.svg"
   width="64"
   height="64"
   inkscape:version="1.1.1 (3bf5ae0d25, 2021-09-20, custom)"
   xmlns:inkscape="http://www.inkscape.org/namespaces/inkscape"
   xmlns:sodipodi="http://sodipodi.sourceforge.net/DTD/sodipodi-0.dtd"
   xmlns="http://www.w3.org/2000/svg"
   xmlns:svg="http://www.w3.org/2000/svg">
  <defs
     id="defs8" />
  <sodipodi:namedview
     id="namedview6"
     pagecolor="#ffffff"
     bordercolor="#666666"
     borderopacity="1.0"
     inkscape:pageshadow="2"
     inkscape:pageopacity="0.0"
     inkscape:pagecheckerboard="0"
     showgrid="false"
     inkscape:zoom="12.883333"
     inkscape:cx="23.984477"
     inkscape:cy="35.743856"
     inkscape:window-width="1920"
     inkscape:window-height="1000"
     inkscape:window-x="0"
     inkscape:window-y="0"
     inkscape:window-maximized="1"
     inkscape:current-layer="svg4"
     showguides="false" />
  <path
     d="M 2,32 C 2,10.4 10.4,2 32,2 53.6,2 62,10.4 62,32 62,53.6 53.6,62 32,62 10.4,62 2,53.6 2,32"
     id="path2"
     style="stroke-width:0.3;fill:#cb6359;fill-opacity:1" />
  <path
     id="path3817"
     style="color:#000000;fill:#ffffff;stroke:none;stroke-width:0.99356;stroke-linecap:round;stroke-linejoin:round;-inkscape-stroke:none"
     d="M 20 13 C 17.783999 13 16 14.783999 16 17 L 16 51 L 18 51 L 18 17 C 18 15.892 18.893912 14.934936 20 15 L 23 15 L 23 49 L 20 49 L 20 51 L 42 51 C 45.324 51 48 48.324 48 45 L 48 19 L 46 19 L 46 45 C 46 47.216 44.216 49 42 49 L 25 49 L 25 15 L 48 15 L 48 13 L 20 13 z M 32 24 A 2 2 0 0 0 30 26 L 30 40 L 32 40 L 32 26 L 34 26 A 6 6 0 0 1 40 32 A 6 6 0 0 1 34 38 L 34 40 A 8 8 0 0 0 42 32 A 8 8 0 0 0 34 24 L 32 24 z " />
</svg>
