<?xml version="1.0" encoding="UTF-8" standalone="no"?>
<svg
   viewbox="0 0 200 200"
   version="1.1"
   id="svg4"
   sodipodi:docname="brasero.svg"
   width="64"
   height="64"
   inkscape:version="1.1.1 (3bf5ae0d25, 2021-09-20, custom)"
   xmlns:inkscape="http://www.inkscape.org/namespaces/inkscape"
   xmlns:sodipodi="http://sodipodi.sourceforge.net/DTD/sodipodi-0.dtd"
   xmlns="http://www.w3.org/2000/svg"
   xmlns:svg="http://www.w3.org/2000/svg">
  <defs
     id="defs8" />
  <sodipodi:namedview
     id="namedview6"
     pagecolor="#ffffff"
     bordercolor="#666666"
     borderopacity="1.0"
     inkscape:pageshadow="2"
     inkscape:pageopacity="0.0"
     inkscape:pagecheckerboard="0"
     showgrid="false"
     inkscape:zoom="5.6568542"
     inkscape:cx="-0.35355339"
     inkscape:cy="37.741825"
     inkscape:window-width="1920"
     inkscape:window-height="996"
     inkscape:window-x="0"
     inkscape:window-y="0"
     inkscape:window-maximized="1"
     inkscape:current-layer="svg4"
     showguides="false" />
  <path
     d="M 2,32 C 2,10.4 10.4,2 32,2 53.6,2 62,10.4 62,32 62,53.6 53.6,62 32,62 10.4,62 2,53.6 2,32"
     id="path2"
     style="stroke-width:0.3;fill:#888ea1;fill-opacity:1" />
  <path
     id="path924"
     style="fill:#ffffff;stroke-width:2.10526;stroke-linecap:round;stroke-linejoin:round"
     d="M 32 12 A 20 20 0 0 0 12.455078 28 L 14.505859 28 A 18 18 0 0 1 32 14 A 18 18 0 0 1 50 32 A 18 18 0 0 1 32 50 A 18 18 0 0 1 19.142578 44.458984 A 4 4 0 0 0 20 42 A 4 4 0 0 0 16 38 A 4 4 0 0 0 12 42 A 4 4 0 0 0 16 46 A 4 4 0 0 0 17.492188 45.701172 A 20 20 0 0 0 32 52 A 20 20 0 0 0 52 32 A 20 20 0 0 0 32 12 z M 32 24 A 8 8 0 0 0 24 32 A 8 8 0 0 0 32 40 A 8 8 0 0 0 40 32 A 8 8 0 0 0 32 24 z M 32 26 A 6 6 0 0 1 38 32 A 6 6 0 0 1 32 38 A 6 6 0 0 1 26 32 A 6 6 0 0 1 32 26 z M 16 40 A 2 2 0 0 1 18 42 A 2 2 0 0 1 16 44 A 2 2 0 0 1 14 42 A 2 2 0 0 1 16 40 z " />
</svg>
