<?xml version="1.0" encoding="UTF-8" standalone="no"?>
<svg
   viewbox="0 0 200 200"
   version="1.1"
   id="svg4"
   sodipodi:docname="dragonplayer.svg"
   width="64"
   height="64"
   inkscape:version="1.1.1 (3bf5ae0d25, 2021-09-20, custom)"
   xmlns:inkscape="http://www.inkscape.org/namespaces/inkscape"
   xmlns:sodipodi="http://sodipodi.sourceforge.net/DTD/sodipodi-0.dtd"
   xmlns:xlink="http://www.w3.org/1999/xlink"
   xmlns="http://www.w3.org/2000/svg"
   xmlns:svg="http://www.w3.org/2000/svg">
  <defs
     id="defs8">
    <linearGradient
       inkscape:collect="always"
       id="linearGradient1006">
      <stop
         style="stop-color:#20bcff;stop-opacity:1;"
         offset="0"
         id="stop1002" />
      <stop
         style="stop-color:#0e78ff;stop-opacity:1"
         offset="1"
         id="stop1004" />
    </linearGradient>
    <linearGradient
       inkscape:collect="always"
       xlink:href="#linearGradient1006"
       id="linearGradient1008"
       x1="12"
       y1="32"
       x2="52"
       y2="32"
       gradientUnits="userSpaceOnUse" />
  </defs>
  <sodipodi:namedview
     id="namedview6"
     pagecolor="#ffffff"
     bordercolor="#666666"
     borderopacity="1.0"
     inkscape:pageshadow="2"
     inkscape:pageopacity="0.0"
     inkscape:pagecheckerboard="0"
     showgrid="false"
     inkscape:zoom="12.883333"
     inkscape:cx="31.979301"
     inkscape:cy="32.018111"
     inkscape:window-width="1920"
     inkscape:window-height="996"
     inkscape:window-x="0"
     inkscape:window-y="0"
     inkscape:window-maximized="1"
     inkscape:current-layer="svg4"
     showguides="false" />
  <path
     d="M 2,32 C 2,10.4 10.4,2 32,2 53.6,2 62,10.4 62,32 62,53.6 53.6,62 32,62 10.4,62 2,53.6 2,32"
     id="path2"
     style="stroke-width:0.3;fill:#4d4d4d;fill-opacity:1" />
  <path
     id="rect844"
     style="fill:url(#linearGradient1008);fill-opacity:1;stroke-width:4;stroke-linecap:round;stroke-linejoin:round"
     d="m 14,15 c -1.104569,0 -2,0.895431 -2,2 v 32 h 2 V 17 h 13 l 3,3 c 1.116052,1.116052 3,1 3,1 H 52 V 19 H 32 l -3,-3 c -0.830108,-0.900236 -1.570059,-1 -3,-1 z m 36,9 v 17 c 0,3.324 -2.678656,6.132854 -6,6 H 17 v 2 h 27 c 4.432,0 8,-3.568 8,-8 V 24 Z"
     sodipodi:nodetypes="ssccccscccccsscscccsscc" />
  <path
     id="rect1612"
     style="fill:#ffffff;fill-opacity:1;stroke-width:4;stroke-linecap:round;stroke-linejoin:round"
     d="M 25.941406 24.251953 L 25.001953 26.023438 L 36.248047 32.935547 C 36.582638 33.125325 36.582638 33.601239 36.248047 33.791016 L 27.75 39.714844 C 27.416901 39.902675 27.000481 39.665844 27 39.287109 L 27 29.480469 L 25 29.480469 L 25 40.273438 C 24.999498 41.797666 26.674196 42.748308 28.007812 41.980469 L 38.005859 35.068359 C 39.330718 34.306695 39.330718 32.417914 38.005859 31.65625 L 25.941406 24.251953 z " />
</svg>
