<?xml version="1.0" encoding="UTF-8" standalone="no"?>
<svg
   viewbox="0 0 200 200"
   version="1.1"
   id="svg4"
   sodipodi:docname="easytag.svg"
   width="64"
   height="64"
   inkscape:version="1.1.1 (3bf5ae0d25, 2021-09-20, custom)"
   xmlns:inkscape="http://www.inkscape.org/namespaces/inkscape"
   xmlns:sodipodi="http://sodipodi.sourceforge.net/DTD/sodipodi-0.dtd"
   xmlns="http://www.w3.org/2000/svg"
   xmlns:svg="http://www.w3.org/2000/svg">
  <defs
     id="defs8" />
  <sodipodi:namedview
     id="namedview6"
     pagecolor="#ffffff"
     bordercolor="#666666"
     borderopacity="1.0"
     inkscape:pageshadow="2"
     inkscape:pageopacity="0.0"
     inkscape:pagecheckerboard="0"
     showgrid="false"
     inkscape:zoom="12.95"
     inkscape:cx="27.953668"
     inkscape:cy="36.332046"
     inkscape:window-width="1920"
     inkscape:window-height="1000"
     inkscape:window-x="0"
     inkscape:window-y="0"
     inkscape:window-maximized="1"
     inkscape:current-layer="svg4"
     showguides="false" />
  <path
     d="M 2,32 C 2,10.4 10.4,2 32,2 53.6,2 62,10.4 62,32 62,53.6 53.6,62 32,62 10.4,62 2,53.6 2,32"
     id="path2"
     style="stroke-width:0.3;fill:#89d245;fill-opacity:1" />
  <path
     id="rect1897"
     style="fill:#ffffff;fill-opacity:1;stroke-width:1.86171;stroke-linecap:round;stroke-linejoin:round"
     d="M 16.792969 14 C 16.019431 14 15.321161 14.311651 14.816406 14.816406 C 14.311653 15.321159 14 16.019432 14 16.792969 L 14 31.109375 L 34.195312 51.179688 C 35.28926 52.273634 37.048632 52.273634 38.142578 51.179688 L 51.177734 38.144531 C 52.271702 37.050582 52.273637 35.28926 51.179688 34.195312 L 31.109375 14 L 16.792969 14 z M 17 16 L 30 16 L 50.347656 36.191406 L 36.09375 50.447266 L 16 30.5 L 16 17 A 1 1 0 0 1 17 16 z M 20.5 19 A 1.5 1.5 0 0 0 19 20.5 A 1.5 1.5 0 0 0 20.5 22 A 1.5 1.5 0 0 0 22 20.5 A 1.5 1.5 0 0 0 20.5 19 z " />
</svg>
