<?xml version="1.0" encoding="UTF-8" standalone="no"?>
<svg
   viewbox="0 0 200 200"
   version="1.1"
   id="svg4"
   sodipodi:docname="evolution.svg"
   width="64"
   height="64"
   inkscape:version="1.1.1 (3bf5ae0d25, 2021-09-20, custom)"
   xmlns:inkscape="http://www.inkscape.org/namespaces/inkscape"
   xmlns:sodipodi="http://sodipodi.sourceforge.net/DTD/sodipodi-0.dtd"
   xmlns="http://www.w3.org/2000/svg"
   xmlns:svg="http://www.w3.org/2000/svg">
  <defs
     id="defs8" />
  <sodipodi:namedview
     id="namedview6"
     pagecolor="#ffffff"
     bordercolor="#666666"
     borderopacity="1.0"
     inkscape:pageshadow="2"
     inkscape:pageopacity="0.0"
     inkscape:pagecheckerboard="0"
     showgrid="false"
     inkscape:zoom="5.6568543"
     inkscape:cx="7.2478445"
     inkscape:cy="49.409086"
     inkscape:window-width="1920"
     inkscape:window-height="1000"
     inkscape:window-x="0"
     inkscape:window-y="0"
     inkscape:window-maximized="1"
     inkscape:current-layer="svg4"
     showguides="false" />
  <path
     d="M 2,32 C 2,10.4 10.4,2 32,2 53.6,2 62,10.4 62,32 62,53.6 53.6,62 32,62 10.4,62 2,53.6 2,32"
     id="path2"
     style="stroke-width:0.3;fill:#9964b7;fill-opacity:1" />
  <path
     id="rect843"
     style="fill:#ffffff;stroke-width:4;stroke-linecap:round;stroke-linejoin:round"
     d="M 14 17 C 12.892 17 12 17.892 12 19 L 12 47 L 14 47 L 14 19 L 52 19 L 52 17 L 14 17 z M 48.5 22 C 47.533501 22 46.658766 22.392015 46.025391 23.025391 L 33.414062 35.638672 C 32.630587 36.422146 31.369411 36.422146 30.585938 35.638672 L 18.443359 23.496094 L 17.029297 24.910156 L 29.171875 37.052734 C 30.738824 38.619683 33.261176 38.619683 34.828125 37.052734 L 47.439453 24.439453 C 47.714641 24.160002 48.088335 23.999447 48.480469 23.992188 C 49.308896 23.992188 50 24.671573 50 25.5 L 50 32 L 52 32 L 52 25.5 C 52 23.567003 50.432997 22 48.5 22 z M 48 36 A 8 8 0 0 0 40 44 A 8 8 0 0 0 48 52 A 8 8 0 0 0 56 44 A 8 8 0 0 0 48 36 z M 48 38 A 6 6 0 0 1 54 44 A 6 6 0 0 1 48 50 A 6 6 0 0 1 42 44 A 6 6 0 0 1 48 38 z M 47 40 L 47 43 L 47 44 L 47 45 L 52 45 L 52 43 L 49 43 L 49 40 L 47 40 z M 17 45 L 17 47 L 36 47 L 36 45 L 17 45 z " />
</svg>
