<?xml version="1.0" encoding="UTF-8" standalone="no"?>
<svg
   viewbox="0 0 200 200"
   version="1.1"
   id="svg4"
   sodipodi:docname="extensions.svg"
   width="64"
   height="64"
   inkscape:version="1.1.1 (3bf5ae0d25, 2021-09-20, custom)"
   xmlns:inkscape="http://www.inkscape.org/namespaces/inkscape"
   xmlns:sodipodi="http://sodipodi.sourceforge.net/DTD/sodipodi-0.dtd"
   xmlns="http://www.w3.org/2000/svg"
   xmlns:svg="http://www.w3.org/2000/svg">
  <defs
     id="defs8" />
  <sodipodi:namedview
     id="namedview6"
     pagecolor="#ffffff"
     bordercolor="#666666"
     borderopacity="1.0"
     inkscape:pageshadow="2"
     inkscape:pageopacity="0.0"
     inkscape:pagecheckerboard="0"
     showgrid="false"
     inkscape:zoom="4.5785164"
     inkscape:cx="-6.9891635"
     inkscape:cy="11.029774"
     inkscape:window-width="1920"
     inkscape:window-height="1000"
     inkscape:window-x="0"
     inkscape:window-y="0"
     inkscape:window-maximized="1"
     inkscape:current-layer="svg4"
     showguides="false" />
  <path
     d="M 2,32 C 2,10.4 10.4,2 32,2 53.6,2 62,10.4 62,32 62,53.6 53.6,62 32,62 10.4,62 2,53.6 2,32"
     id="path2"
     style="stroke-width:0.3;fill:#ff4d74;fill-opacity:1" />
  <path
     id="rect1000"
     style="fill:#ffffff;stroke-width:2;stroke-linecap:round;stroke-linejoin:round"
     d="M 17 13 C 14.784 13 13 14.784 13 17 L 13 30 A 2 2 0 0 0 15 32 L 32 32 L 32 25.5 C 32 24.847454 32.671573 24.023438 33.5 24.023438 C 33.993063 24.023438 34.175633 24.103398 34.394531 24.265625 A 2.75 2.75 0 0 0 36.5 25.25 A 2.75 2.75 0 0 0 39.25 22.5 A 2.75 2.75 0 0 0 36.5 19.75 A 2.75 2.75 0 0 0 34.394531 20.734375 C 34.175633 20.896599 33.993063 20.976562 33.5 20.976562 C 32.671573 20.976562 32 20.152546 32 19.5 L 32 15 A 2 2 0 0 0 30 13 L 17 13 z " />
  <path
     id="rect1468"
     style="fill:#2069f3;stroke-width:2;stroke-linecap:round;stroke-linejoin:round;fill-opacity:1"
     d="M 15 32 A 2 2 0 0 0 13 34 L 13 47 C 13 49.216 14.784 51 17 51 L 30 51 A 2 2 0 0 0 32 49 L 32 32 L 15 32 z " />
  <path
     id="rect1932"
     style="fill:#2d379c;stroke-width:2;stroke-linecap:round;stroke-linejoin:round"
     d="M 32 32 L 32 38.5 C 32 39.152546 31.328427 39.976562 30.5 39.976562 C 30.006937 39.976562 29.824367 39.896602 29.605469 39.734375 A 2.75 2.75 0 0 0 27.5 38.75 A 2.75 2.75 0 0 0 24.75 41.5 A 2.75 2.75 0 0 0 27.5 44.25 A 2.75 2.75 0 0 0 29.605469 43.265625 C 29.824367 43.103401 30.006937 43.023438 30.5 43.023438 C 31.328427 43.023438 32 43.847454 32 44.5 L 32 49 A 2 2 0 0 0 34 51 L 47 51 C 49.216 51 51 49.216 51 47 L 51 34 A 2 2 0 0 0 49 32 L 44.5 32 C 43.847454 32 43.023438 32.671573 43.023438 33.5 C 43.023438 33.993063 43.103401 34.175633 43.265625 34.394531 A 2.75 2.75 0 0 1 44.25 36.5 A 2.75 2.75 0 0 1 41.5 39.25 A 2.75 2.75 0 0 1 38.75 36.5 A 2.75 2.75 0 0 1 39.734375 34.394531 C 39.896602 34.175633 39.976562 33.993063 39.976562 33.5 C 39.976562 32.671573 39.152546 32 38.5 32 L 32 32 z " />
  <path
     id="rect2524"
     style="fill:#f8da39;stroke-width:2;stroke-linecap:round;stroke-linejoin:round"
     d="m 38.061234,10.550309 a 2,2 0 0 0 -2.316912,1.622319 l -0.781416,4.431635 c -0.113314,0.642632 0.404968,1.570747 1.220809,1.714602 0.485572,0.08562 0.679254,0.03857 0.922996,-0.08317 a 2.75,2.75 0 0 1 2.244417,-0.603809 2.75,2.75 0 0 1 2.230689,3.185753 2.75,2.75 0 0 1 -3.185754,2.230689 2.75,2.75 0 0 1 -1.902547,-1.335031 c -0.187402,-0.197777 -0.353313,-0.308225 -0.838886,-0.393845 -0.815841,-0.143855 -1.6203,0.551025 -1.733614,1.193657 l -1.128713,6.401251 6.401251,1.128713 c 0.642632,0.113313 1.337512,0.917773 1.193657,1.733614 -0.08562,0.485572 -0.196068,0.651484 -0.393841,0.838886 a 2.75,2.75 0 0 0 -1.335031,1.902547 2.75,2.75 0 0 0 2.230689,3.185754 2.75,2.75 0 0 0 3.185753,-2.230689 2.75,2.75 0 0 0 -0.603809,-2.244417 c -0.121748,-0.243743 -0.168793,-0.437424 -0.08317,-0.922997 0.143855,-0.815841 1.07197,-1.334122 1.714602,-1.220809 l 4.431635,0.781417 a 2,2 0 0 0 2.316912,-1.622319 l 2.257426,-12.802501 c 0.384805,-2.182334 -1.062304,-4.249019 -3.244638,-4.633824 z" />
  <path
     id="path5878"
     style="fill:#2069f3;fill-opacity:1;stroke-width:1.83334;stroke-linecap:round;stroke-linejoin:round"
     d="M 22.5 24.75 A 2.75 2.75 0 0 0 19.75 27.5 A 2.75 2.75 0 0 0 20.734375 29.605469 C 20.896599 29.824367 20.976562 30.006937 20.976562 30.5 C 20.976562 31.328427 20.152546 32 19.5 32 L 22.5 32 L 25.5 32 C 24.847454 32 24.023438 31.328427 24.023438 30.5 C 24.023438 30.006937 24.103401 29.824367 24.265625 29.605469 A 2.75 2.75 0 0 0 25.25 27.5 A 2.75 2.75 0 0 0 22.5 24.75 z " />
</svg>
