<?xml version="1.0" encoding="UTF-8" standalone="no"?>
<svg
   viewbox="0 0 200 200"
   version="1.1"
   id="svg4"
   sodipodi:docname="input-keyboard.svg"
   width="64"
   height="64"
   inkscape:version="1.1.1 (3bf5ae0d25, 2021-09-20, custom)"
   xmlns:inkscape="http://www.inkscape.org/namespaces/inkscape"
   xmlns:sodipodi="http://sodipodi.sourceforge.net/DTD/sodipodi-0.dtd"
   xmlns="http://www.w3.org/2000/svg"
   xmlns:svg="http://www.w3.org/2000/svg">
  <defs
     id="defs8" />
  <sodipodi:namedview
     id="namedview6"
     pagecolor="#ffffff"
     bordercolor="#666666"
     borderopacity="1.0"
     inkscape:pageshadow="2"
     inkscape:pageopacity="0.0"
     inkscape:pagecheckerboard="0"
     showgrid="false"
     inkscape:zoom="1"
     inkscape:cx="-6"
     inkscape:cy="40.5"
     inkscape:window-width="1920"
     inkscape:window-height="1000"
     inkscape:window-x="0"
     inkscape:window-y="0"
     inkscape:window-maximized="1"
     inkscape:current-layer="svg4"
     showguides="false" />
  <path
     d="M 2,32 C 2,10.4 10.4,2 32,2 53.6,2 62,10.4 62,32 62,53.6 53.6,62 32,62 10.4,62 2,53.6 2,32"
     id="path2"
     style="stroke-width:0.3;fill:#777c8f;fill-opacity:1" />
  <path
     id="rect1588"
     style="fill:#f9f9f9;stroke-width:2;stroke-linecap:round;stroke-linejoin:round"
     d="M 15 18 C 13.892 18 13 18.892 13 20 L 13 46 L 15 46 L 15 20 L 51 20 L 51 18 L 15 18 z M 20.5 25 L 20.5 28 L 23.5 28 L 23.5 25 L 20.5 25 z M 25.5 25 L 25.5 28 L 28.5 28 L 28.5 25 L 25.5 25 z M 30.5 25 L 30.5 28 L 33.5 28 L 33.5 25 L 30.5 25 z M 35.5 25 L 35.5 28 L 38.5 28 L 38.5 25 L 35.5 25 z M 40.5 25 L 40.5 28 L 43.5 28 L 43.5 25 L 40.5 25 z M 49 25 L 49 41 C 49 42.662 47.662 44 46 44 L 19 44 L 19 46 L 46 46 C 48.77 46 50.67635 43.751027 51 41 L 51 25 L 49 25 z M 20.5 31 L 20.5 34 L 23.5 34 L 23.5 31 L 20.5 31 z M 25.5 31 L 25.5 34 L 28.5 34 L 28.5 31 L 25.5 31 z M 30.5 31 L 30.5 34 L 33.5 34 L 33.5 31 L 30.5 31 z M 35.5 31 L 35.5 34 L 38.5 34 L 38.5 31 L 35.5 31 z M 40.5 31 L 40.5 34 L 43.5 34 L 43.5 31 L 40.5 31 z M 23.5 37 L 23.5 40 L 40.5 40 L 40.5 37 L 23.5 37 z " />
</svg>
