<?xml version="1.0" encoding="UTF-8" standalone="no"?>
<svg
   viewbox="0 0 200 200"
   version="1.1"
   id="svg4"
   sodipodi:docname="file-renamer.svg"
   width="64"
   height="64"
   inkscape:version="1.1.1 (3bf5ae0d25, 2021-09-20, custom)"
   xmlns:inkscape="http://www.inkscape.org/namespaces/inkscape"
   xmlns:sodipodi="http://sodipodi.sourceforge.net/DTD/sodipodi-0.dtd"
   xmlns="http://www.w3.org/2000/svg"
   xmlns:svg="http://www.w3.org/2000/svg">
  <defs
     id="defs8" />
  <sodipodi:namedview
     id="namedview6"
     pagecolor="#ffffff"
     bordercolor="#666666"
     borderopacity="1.0"
     inkscape:pageshadow="2"
     inkscape:pageopacity="0.0"
     inkscape:pagecheckerboard="0"
     showgrid="false"
     inkscape:zoom="12.883333"
     inkscape:cx="31.979301"
     inkscape:cy="32.018111"
     inkscape:window-width="1920"
     inkscape:window-height="996"
     inkscape:window-x="0"
     inkscape:window-y="0"
     inkscape:window-maximized="1"
     inkscape:current-layer="svg4"
     showguides="false" />
  <path
     d="M 2,32 C 2,10.4 10.4,2 32,2 53.6,2 62,10.4 62,32 62,53.6 53.6,62 32,62 10.4,62 2,53.6 2,32"
     id="path2"
     style="stroke-width:0.3;fill:#7889ac;fill-opacity:1" />
  <path
     id="rect924"
     style="fill:#ffffff;stroke-width:1.79505;stroke-linecap:round;stroke-linejoin:round"
     d="M 28 12 L 28 14 L 31 14 L 31 48 L 28 48 L 28 50 L 36 50 L 36 48 L 33 48 L 33 14 L 36 14 L 36 12 L 28 12 z M 13 24 C 11.892 24 11 24.892 11 26 L 11 35 C 11 37.761424 13.238576 40 16 40 L 28 40 L 28 38 L 16 38 C 14.343146 38 13 36.656854 13 35 L 13 26 L 28 26 L 28 24 L 13 24 z M 36 24 L 36 26 L 53 26 L 53 24 L 36 24 z M 51 29 L 51 38 L 36 38 L 36 40 L 51 40 C 52.108 40 53 39.108 53 38 L 53 29 L 51 29 z M 16 30 L 16 34 L 28 34 L 28 30 L 16 30 z " />
</svg>
