<?xml version="1.0" encoding="UTF-8" standalone="no"?>
<svg
   viewbox="0 0 200 200"
   version="1.1"
   id="svg4"
   sodipodi:docname="file-sharing.svg"
   width="64"
   height="64"
   inkscape:version="1.1.1 (3bf5ae0d25, 2021-09-20, custom)"
   xmlns:inkscape="http://www.inkscape.org/namespaces/inkscape"
   xmlns:sodipodi="http://sodipodi.sourceforge.net/DTD/sodipodi-0.dtd"
   xmlns="http://www.w3.org/2000/svg"
   xmlns:svg="http://www.w3.org/2000/svg">
  <defs
     id="defs8" />
  <sodipodi:namedview
     id="namedview6"
     pagecolor="#ffffff"
     bordercolor="#666666"
     borderopacity="1.0"
     inkscape:pageshadow="2"
     inkscape:pageopacity="0.0"
     inkscape:pagecheckerboard="0"
     showgrid="false"
     inkscape:zoom="11.313708"
     inkscape:cx="22.627417"
     inkscape:cy="34.604038"
     inkscape:window-width="1920"
     inkscape:window-height="996"
     inkscape:window-x="0"
     inkscape:window-y="0"
     inkscape:window-maximized="1"
     inkscape:current-layer="svg4"
     showguides="true" />
  <path
     d="M 2,32 C 2,10.4 10.4,2 32,2 53.6,2 62,10.4 62,32 62,53.6 53.6,62 32,62 10.4,62 2,53.6 2,32"
     id="path2"
     style="stroke-width:0.3;fill:#7574bf;fill-opacity:1" />
  <path
     id="path845"
     style="fill:#ffffff;stroke-width:1.93274;stroke-linejoin:round"
     d="M 32 12 C 22.893736 12.01676 14.948429 18.182879 12.671875 27 L 14.746094 27 C 16.968707 19.313419 23.998546 14.016768 32 14 C 36.965225 14.002114 41.67622 16.054096 45.052734 19.615234 A 4.5 4.5 0 0 0 44 22.5 A 4.5 4.5 0 0 0 48.5 27 A 4.5 4.5 0 0 0 53 22.5 A 4.5 4.5 0 0 0 48.5 18 A 4.5 4.5 0 0 0 46.648438 18.400391 C 42.899068 14.360585 37.609514 12.001143 32 12 z M 48.5 20 A 2.5 2.5 0 0 1 51 22.5 A 2.5 2.5 0 0 1 48.5 25 A 2.5 2.5 0 0 1 46 22.5 A 2.5 2.5 0 0 1 48.5 20 z M 15.5 37 A 4.5 4.5 0 0 0 11 41.5 A 4.5 4.5 0 0 0 15.5 46 A 4.5 4.5 0 0 0 17.351562 45.599609 C 21.100932 49.639415 26.390486 51.998857 32 52 C 41.106264 51.98324 49.051571 45.817121 51.328125 37 L 49.253906 37 C 47.031293 44.686581 40.001454 49.983232 32 50 C 27.034775 49.9979 22.32378 47.945904 18.947266 44.384766 A 4.5 4.5 0 0 0 20 41.5 A 4.5 4.5 0 0 0 15.5 37 z M 15.5 39 A 2.5 2.5 0 0 1 18 41.5 A 2.5 2.5 0 0 1 15.5 44 A 2.5 2.5 0 0 1 13 41.5 A 2.5 2.5 0 0 1 15.5 39 z " />
</svg>
