<?xml version="1.0" encoding="UTF-8" standalone="no"?>
<svg
   viewbox="0 0 200 200"
   version="1.1"
   id="svg4"
   sodipodi:docname="firmware.svg"
   width="64"
   height="64"
   inkscape:version="1.1.1 (3bf5ae0d25, 2021-09-20, custom)"
   xmlns:inkscape="http://www.inkscape.org/namespaces/inkscape"
   xmlns:sodipodi="http://sodipodi.sourceforge.net/DTD/sodipodi-0.dtd"
   xmlns="http://www.w3.org/2000/svg"
   xmlns:svg="http://www.w3.org/2000/svg">
  <defs
     id="defs8" />
  <sodipodi:namedview
     id="namedview6"
     pagecolor="#ffffff"
     bordercolor="#666666"
     borderopacity="1.0"
     inkscape:pageshadow="2"
     inkscape:pageopacity="0.0"
     inkscape:pagecheckerboard="0"
     showgrid="false"
     inkscape:zoom="1"
     inkscape:cx="32"
     inkscape:cy="31.5"
     inkscape:window-width="1920"
     inkscape:window-height="1000"
     inkscape:window-x="0"
     inkscape:window-y="0"
     inkscape:window-maximized="1"
     inkscape:current-layer="svg4"
     showguides="false" />
  <path
     d="M 2,32 C 2,10.4 10.4,2 32,2 53.6,2 62,10.4 62,32 62,53.6 53.6,62 32,62 10.4,62 2,53.6 2,32"
     id="path2"
     style="stroke-width:0.3;fill:#666666;fill-opacity:1" />
  <path
     id="rect1588"
     style="fill:#ffffff;stroke-width:2;stroke-linecap:round;stroke-linejoin:round"
     d="m 24,13 v 5 h -2 c -2.209139,0 -4,1.790861 -4,4 v 2 h -5 v 2 h 5 v 5 h -5 v 2 h 5 v 5 h -5 v 2 h 5 v 6 h 2 V 22 c 0,-1.104569 0.895431,-2 2,-2 h 24 v -2 h -6 v -5 h -2 v 5 h -5 v -5 h -2 v 5 h -5 v -5 z m 20,10 v 18 c 0,1.662 -1.338,3 -3,3 H 22 v 2 h 2 v 5 h 2 v -5 h 5 v 5 h 2 v -5 h 5 v 5 h 2 v -5 h 1 c 2.77,0 5.002484,-2.244609 5,-5 v -1 h 5 v -2 h -5 v -5 h 5 v -2 h -5 v -5 h 5 v -2 h -5 v -1 z"
     sodipodi:nodetypes="ccssccccccccccccccssccccccccccccccssccccccccccccccsccccccccccccccc" />
</svg>
