<?xml version="1.0" encoding="UTF-8" standalone="no"?>
<svg
   viewbox="0 0 200 200"
   version="1.1"
   id="svg4"
   sodipodi:docname="games-2048.svg"
   width="64"
   height="64"
   inkscape:version="1.1.1 (3bf5ae0d25, 2021-09-20, custom)"
   xmlns:inkscape="http://www.inkscape.org/namespaces/inkscape"
   xmlns:sodipodi="http://sodipodi.sourceforge.net/DTD/sodipodi-0.dtd"
   xmlns="http://www.w3.org/2000/svg"
   xmlns:svg="http://www.w3.org/2000/svg">
  <defs
     id="defs8" />
  <sodipodi:namedview
     id="namedview6"
     pagecolor="#ffffff"
     bordercolor="#666666"
     borderopacity="1.0"
     inkscape:pageshadow="2"
     inkscape:pageopacity="0.0"
     inkscape:pagecheckerboard="0"
     showgrid="false"
     inkscape:zoom="12.95"
     inkscape:cx="31.969112"
     inkscape:cy="32.007722"
     inkscape:window-width="1920"
     inkscape:window-height="1000"
     inkscape:window-x="0"
     inkscape:window-y="0"
     inkscape:window-maximized="1"
     inkscape:current-layer="svg4"
     showguides="true" />
  <path
     d="M 2,32 C 2,10.4 10.4,2 32,2 53.6,2 62,10.4 62,32 62,53.6 53.6,62 32,62 10.4,62 2,53.6 2,32"
     id="path2"
     style="stroke-width:0.3;fill:#7fca43;fill-opacity:1" />
  <path
     id="path3817"
     style="color:#000000;fill:#ffffff;stroke:none;stroke-width:0.99356;stroke-linecap:round;stroke-linejoin:round;-inkscape-stroke:none"
     d="M 17 13 C 14.783999 13 13 14.783999 13 17 L 13 51 L 15 51 L 15 33 L 31 33 L 31 49 L 19 49 L 19 51 L 45 51 C 48.324 51 50.723957 48.312518 51 45 L 51 19 L 49 19 L 49 31 L 33 31 L 33 15 L 51 15 L 51 13 L 17 13 z M 17 15 L 31 15 L 31 31 L 15 31 L 15 17 C 15 15.892 15.893912 14.934936 17 15 z M 23.007812 17 C 22.211066 17 21.506997 17.160686 20.894531 17.480469 C 20.287485 17.800252 19.818905 18.250133 19.488281 18.830078 C 19.163078 19.404604 19 20.050618 19 20.771484 L 20.976562 20.771484 C 20.976562 20.093978 21.151602 19.560165 21.503906 19.169922 C 21.85621 18.779678 22.352622 18.585938 22.992188 18.585938 C 23.528773 18.585938 23.953215 18.758585 24.267578 19.105469 C 24.587361 19.452352 24.748047 19.907018 24.748047 20.470703 C 24.748047 20.898887 24.626715 21.327675 24.382812 21.755859 C 24.14433 22.178623 23.739027 22.707651 23.169922 23.341797 L 19.228516 27.642578 L 19.228516 29 L 27.1875 29 L 27.1875 27.421875 L 21.691406 27.421875 L 24.585938 24.326172 C 25.344745 23.502324 25.888127 22.76608 26.21875 22.121094 C 26.554793 21.470688 26.722656 20.850552 26.722656 20.259766 C 26.722656 19.240796 26.389323 18.443666 25.722656 17.869141 C 25.06141 17.289195 24.156864 17 23.007812 17 z M 33 33 L 49 33 L 49 45 C 49 47.216 47.216 49 45 49 L 33 49 L 33 33 z M 23.306641 35 L 18.199219 43 L 18.257812 44.203125 L 23.371094 44.203125 L 23.371094 46.837891 L 25.345703 46.837891 L 25.345703 44.203125 L 26.818359 44.203125 L 26.818359 42.617188 L 25.345703 42.617188 L 25.345703 35 L 23.306641 35 z M 41.177734 35 C 40.072044 35 39.193375 35.295933 38.542969 35.886719 C 37.892562 36.477505 37.568359 37.277027 37.568359 38.285156 C 37.568359 38.865102 37.715129 39.382607 38.007812 39.837891 C 38.305915 40.287755 38.709265 40.642181 39.21875 40.902344 C 38.611704 41.173346 38.140729 41.560388 37.804688 42.064453 C 37.468643 42.568518 37.300781 43.137338 37.300781 43.771484 C 37.300781 44.806714 37.652815 45.631675 38.357422 46.244141 C 39.067449 46.856607 40.009396 47.162109 41.185547 47.162109 C 42.356278 47.162109 43.295393 46.858999 44 46.251953 C 44.704607 45.639487 45.056641 44.812134 45.056641 43.771484 C 45.056641 43.142758 44.888778 42.580676 44.552734 42.082031 C 44.222112 41.583387 43.746792 41.189606 43.128906 40.902344 C 43.643811 40.642181 44.051506 40.287755 44.349609 39.837891 C 44.647712 39.382607 44.796875 38.865102 44.796875 38.285156 C 44.796875 37.277027 44.47072 36.477505 43.820312 35.886719 C 43.169906 35.295933 42.288845 35 41.177734 35 z M 41.177734 36.585938 C 41.681799 36.585938 42.082756 36.7538 42.380859 37.089844 C 42.678962 37.420467 42.828125 37.842517 42.828125 38.357422 C 42.828125 38.899427 42.678962 39.330608 42.380859 39.650391 C 42.088176 39.970174 41.689612 40.130859 41.185547 40.130859 C 40.681482 40.130859 40.280525 39.970174 39.982422 39.650391 C 39.689739 39.330608 39.542969 38.899427 39.542969 38.357422 C 39.542969 37.809997 39.689739 37.378816 39.982422 37.064453 C 40.275105 36.74467 40.67367 36.585938 41.177734 36.585938 z M 23.371094 37.673828 L 23.371094 42.617188 L 20.273438 42.617188 L 23.224609 37.935547 L 23.371094 37.673828 z M 41.169922 41.714844 C 41.744447 41.714844 42.205851 41.896622 42.552734 42.259766 C 42.905038 42.617489 43.080078 43.088463 43.080078 43.673828 C 43.080078 44.275454 42.912215 44.745988 42.576172 45.082031 C 42.245549 45.418075 41.781753 45.585938 41.185547 45.585938 C 40.589342 45.585938 40.12076 45.411336 39.779297 45.064453 C 39.443254 44.71757 39.275391 44.253774 39.275391 43.673828 C 39.275391 43.083043 39.445646 42.609676 39.787109 42.251953 C 40.133993 41.894229 40.595397 41.714844 41.169922 41.714844 z " />
</svg>
