<?xml version="1.0" encoding="UTF-8" standalone="no"?>
<svg
   viewbox="0 0 200 200"
   version="1.1"
   id="svg4"
   sodipodi:docname="games-solitaire.svg"
   width="64"
   height="64"
   inkscape:version="1.1.1 (3bf5ae0d25, 2021-09-20, custom)"
   xmlns:inkscape="http://www.inkscape.org/namespaces/inkscape"
   xmlns:sodipodi="http://sodipodi.sourceforge.net/DTD/sodipodi-0.dtd"
   xmlns="http://www.w3.org/2000/svg"
   xmlns:svg="http://www.w3.org/2000/svg">
  <defs
     id="defs8" />
  <sodipodi:namedview
     id="namedview6"
     pagecolor="#ffffff"
     bordercolor="#666666"
     borderopacity="1.0"
     inkscape:pageshadow="2"
     inkscape:pageopacity="0.0"
     inkscape:pagecheckerboard="0"
     showgrid="false"
     inkscape:zoom="12.883333"
     inkscape:cx="31.979301"
     inkscape:cy="32.018111"
     inkscape:window-width="1920"
     inkscape:window-height="996"
     inkscape:window-x="0"
     inkscape:window-y="0"
     inkscape:window-maximized="1"
     inkscape:current-layer="svg4"
     showguides="false" />
  <path
     d="M 2,32 C 2,10.4 10.4,2 32,2 53.6,2 62,10.4 62,32 62,53.6 53.6,62 32,62 10.4,62 2,53.6 2,32"
     id="path2"
     style="stroke-width:0.3;fill:#9f4141;fill-opacity:1" />
  <path
     id="path3817"
     style="color:#000000;fill:#ffffff;stroke:none;stroke-width:0.99356;stroke-linecap:round;stroke-linejoin:round;-inkscape-stroke:none"
     d="M 22 13 C 19.783999 13 18 14.783999 18 17 L 18 51 L 20 51 L 20 17 C 20 15.892 20.893912 14.934936 22 15 L 46 15 L 46 13 L 22 13 z M 44 19 L 44 45 C 44 47.216 42.216 49 40 49 L 24 49 L 24 51 L 40 51 C 43.324 51 46 48.324 46 45 L 46 19 L 44 19 z M 29 26 C 26.790861 26 25 27.790738 25 30 C 25.01078 32.049922 26.471767 33.219545 27.53125 34.277344 L 30.722656 37.46875 C 31.076379 37.822492 31.538189 38 32 38 C 32.461811 38 32.923621 37.822492 33.277344 37.46875 L 36.46875 34.277344 C 37.528233 33.219545 38.989221 32.049922 39 30 C 39 27.790738 37.209139 26 35 26 C 33.851498 26.000803 32.758752 26.495194 32 27.357422 C 31.241248 26.495194 30.148502 26.000803 29 26 z M 28.990234 28 C 29.065024 27.999681 29.139646 28.003499 29.214844 28.011719 C 29.662979 28.060659 30.081437 28.259567 30.402344 28.576172 C 30.406244 28.578772 30.410142 28.581384 30.414062 28.583984 L 32 30.169922 L 33.585938 28.583984 C 33.589838 28.581384 33.593736 28.578772 33.597656 28.576172 C 34.379452 27.80525 35.636556 27.808761 36.414062 28.583984 C 37.191167 29.361181 37.195459 30.61978 36.423828 31.402344 C 36.420528 31.405644 36.417362 31.408909 36.414062 31.412109 L 32 35.828125 L 27.585938 31.412109 C 27.582638 31.408809 27.579372 31.405644 27.576172 31.402344 C 26.804541 30.61978 26.808834 29.361181 27.585938 28.583984 C 27.960816 28.210079 28.466732 28.002236 28.990234 28 z " />
</svg>
