<?xml version="1.0" encoding="UTF-8" standalone="no"?>
<svg
   viewbox="0 0 200 200"
   version="1.1"
   id="svg4"
   sodipodi:docname="games-mines.svg"
   width="64"
   height="64"
   inkscape:version="1.1.1 (3bf5ae0d25, 2021-09-20, custom)"
   xmlns:inkscape="http://www.inkscape.org/namespaces/inkscape"
   xmlns:sodipodi="http://sodipodi.sourceforge.net/DTD/sodipodi-0.dtd"
   xmlns="http://www.w3.org/2000/svg"
   xmlns:svg="http://www.w3.org/2000/svg">
  <defs
     id="defs8" />
  <sodipodi:namedview
     id="namedview6"
     pagecolor="#ffffff"
     bordercolor="#666666"
     borderopacity="1.0"
     inkscape:pageshadow="2"
     inkscape:pageopacity="0.0"
     inkscape:pagecheckerboard="0"
     showgrid="false"
     inkscape:zoom="9.1570328"
     inkscape:cx="27.519831"
     inkscape:cy="27.792846"
     inkscape:window-width="1920"
     inkscape:window-height="1000"
     inkscape:window-x="0"
     inkscape:window-y="0"
     inkscape:window-maximized="1"
     inkscape:current-layer="svg4"
     showguides="false" />
  <path
     d="M 2,32 C 2,10.4 10.4,2 32,2 53.6,2 62,10.4 62,32 62,53.6 53.6,62 32,62 10.4,62 2,53.6 2,32"
     id="path2"
     style="stroke-width:0.3;fill:#4d4d4d;fill-opacity:1;stroke:none" />
  <path
     id="path964"
     style="fill:#ffffff;stroke-width:0;stroke-linecap:round;stroke-linejoin:round"
     d="M 31 10 L 31 15.072266 C 25.655897 15.383257 20.770429 18.193251 17.814453 22.65625 L 13.447266 20.134766 L 12.447266 21.865234 L 16.832031 24.396484 C 15.638711 26.754159 15.011435 29.357556 15 32 C 15.01144 34.642444 15.638711 37.245841 16.832031 39.603516 L 12.447266 42.134766 L 13.447266 43.865234 L 17.814453 41.34375 C 20.770429 45.806749 25.655897 48.616743 31 48.927734 L 31 54 L 33 54 L 33 48.927734 C 36.448523 48.727053 39.701706 47.480337 42.373047 45.425781 L 40.515625 44.345703 C 38.096253 46.017602 35.163398 47 32 47 C 23.715729 47 17 40.284271 17 32 C 17 23.715729 23.715729 17 32 17 C 40.284271 17 47 23.715729 47 32 C 47 35.083937 46.06846 37.950322 44.472656 40.333984 L 50.552734 43.865234 L 51.552734 42.134766 L 47.167969 39.603516 C 48.361289 37.245841 48.988565 34.642444 49 32 C 48.998 29.354808 48.378676 26.746588 47.191406 24.382812 L 51.552734 21.865234 L 50.552734 20.134766 L 46.195312 22.650391 C 43.245033 18.171358 38.354067 15.347252 33 15.03125 L 33 10 L 31 10 z " />
</svg>
