<?xml version="1.0" encoding="UTF-8" standalone="no"?>
<svg
   viewbox="0 0 200 200"
   version="1.1"
   id="svg4"
   sodipodi:docname="games-mahjong.svg"
   width="64"
   height="64"
   inkscape:version="1.1.1 (3bf5ae0d25, 2021-09-20, custom)"
   xmlns:inkscape="http://www.inkscape.org/namespaces/inkscape"
   xmlns:sodipodi="http://sodipodi.sourceforge.net/DTD/sodipodi-0.dtd"
   xmlns="http://www.w3.org/2000/svg"
   xmlns:svg="http://www.w3.org/2000/svg">
  <defs
     id="defs8" />
  <sodipodi:namedview
     id="namedview6"
     pagecolor="#ffffff"
     bordercolor="#666666"
     borderopacity="1.0"
     inkscape:pageshadow="2"
     inkscape:pageopacity="0.0"
     inkscape:pagecheckerboard="0"
     showgrid="false"
     inkscape:zoom="9.1098921"
     inkscape:cx="31.394444"
     inkscape:cy="44.731594"
     inkscape:window-width="1920"
     inkscape:window-height="1000"
     inkscape:window-x="0"
     inkscape:window-y="0"
     inkscape:window-maximized="1"
     inkscape:current-layer="svg4"
     showguides="false" />
  <path
     d="M 2,32 C 2,10.4 10.4,2 32,2 53.6,2 62,10.4 62,32 62,53.6 53.6,62 32,62 10.4,62 2,53.6 2,32"
     id="path2"
     style="stroke-width:0.3;fill:#998f63;fill-opacity:1" />
  <path
     id="path3817"
     style="color:#000000;fill:#ffffff;stroke:none;stroke-width:0.99356;stroke-linecap:round;stroke-linejoin:round;-inkscape-stroke:none"
     d="M 22 13 C 19.783999 13 18 14.783999 18 17 L 18 51 L 20 51 L 20 17 C 20 15.892 20.893912 14.934936 22 15 L 46 15 L 46 13 L 22 13 z M 44 19 L 44 45 C 44 47.216 42.216 49 40 49 L 24 49 L 24 51 L 40 51 C 43.324 51 46 48.324 46 45 L 46 19 L 44 19 z M 31.261719 24 L 31.261719 25.636719 L 24.433594 25.636719 L 24.433594 26.873047 L 31.261719 26.873047 L 31.261719 28.335938 L 25.945312 28.335938 L 25.945312 34.742188 L 30.167969 34.742188 C 28.604451 36.378747 26.171553 37.858951 24 38.625 C 24.295331 38.886153 24.695828 39.389909 24.904297 39.720703 C 26.016132 39.276742 27.187867 38.63692 28.291016 37.873047 C 29.394164 37.109175 30.427843 36.2214 31.261719 35.28125 L 31.261719 40 L 32.599609 40 L 32.599609 35.230469 C 34.284735 37.128181 36.80429 38.850529 39.080078 39.755859 C 39.288547 39.407655 39.704669 38.903563 40 38.625 C 37.793702 37.893772 35.309201 36.378747 33.710938 34.742188 L 38.210938 34.742188 L 38.210938 28.335938 L 32.599609 28.335938 L 32.599609 26.873047 L 39.617188 26.873047 L 39.617188 25.636719 L 32.599609 25.636719 L 32.599609 24 L 31.261719 24 z M 27.214844 29.378906 L 31.261719 29.378906 L 31.261719 31.033203 L 27.214844 31.033203 L 27.214844 29.378906 z M 32.599609 29.378906 L 36.873047 29.378906 L 36.873047 31.033203 L 32.599609 31.033203 L 32.599609 29.378906 z M 27.214844 32.007812 L 31.261719 32.007812 L 31.261719 33.697266 L 27.214844 33.697266 L 27.214844 32.007812 z M 32.599609 32.007812 L 36.873047 32.007812 L 36.873047 33.697266 L 32.599609 33.697266 L 32.599609 32.007812 z " />
</svg>
