<?xml version="1.0" encoding="UTF-8" standalone="no"?>
<svg
   viewbox="0 0 200 200"
   version="1.1"
   id="svg4"
   sodipodi:docname="ghex.svg"
   width="64"
   height="64"
   inkscape:version="1.1.1 (3bf5ae0d25, 2021-09-20, custom)"
   xmlns:inkscape="http://www.inkscape.org/namespaces/inkscape"
   xmlns:sodipodi="http://sodipodi.sourceforge.net/DTD/sodipodi-0.dtd"
   xmlns="http://www.w3.org/2000/svg"
   xmlns:svg="http://www.w3.org/2000/svg">
  <defs
     id="defs8" />
  <sodipodi:namedview
     id="namedview6"
     pagecolor="#ffffff"
     bordercolor="#666666"
     borderopacity="1.0"
     inkscape:pageshadow="2"
     inkscape:pageopacity="0.0"
     inkscape:pagecheckerboard="0"
     showgrid="false"
     inkscape:zoom="12.95"
     inkscape:cx="31.119691"
     inkscape:cy="31.930502"
     inkscape:window-width="1920"
     inkscape:window-height="1000"
     inkscape:window-x="0"
     inkscape:window-y="0"
     inkscape:window-maximized="1"
     inkscape:current-layer="svg4"
     showguides="true" />
  <path
     d="M 2,32 C 2,10.4 10.4,2 32,2 53.6,2 62,10.4 62,32 62,53.6 53.6,62 32,62 10.4,62 2,53.6 2,32"
     id="path2"
     style="stroke-width:0.3;fill:#6ee357;fill-opacity:1" />
  <path
     id="path1719"
     style="color:#000000;fill:#ffffff;stroke-linecap:round;stroke-linejoin:round;-inkscape-stroke:none;stroke:none"
     d="M 19.728516 12 C 19.013863 11.999909 18.353456 12.381113 17.996094 13 L 13.267578 21.189453 C 12.910354 21.808266 12.910354 22.57064 13.267578 23.189453 L 18 31.626953 L 13.267578 39.566406 C 12.910354 40.185219 12.910354 40.947593 13.267578 41.566406 L 17.996094 50.253906 C 18.353456 50.872793 19.013863 51.253997 19.728516 51.253906 L 29.183594 51.253906 C 29.898247 51.253997 30.558654 50.872793 30.916016 50.253906 L 36.064453 41.566406 L 45.617188 41.566406 C 46.331142 41.565801 46.990643 41.184689 47.347656 40.566406 L 52.076172 32.376953 C 52.433396 31.75814 52.433396 30.995767 52.076172 30.376953 L 47.347656 22.189453 C 46.990643 21.57117 46.331142 21.190059 45.617188 21.189453 L 35.564453 21.189453 L 30.916016 13 C 30.558654 12.381113 29.898247 11.999909 29.183594 12 L 19.728516 12 z M 20.228516 14 L 28.683594 14 A 1.0001 1.0001 0 0 1 29.548828 14.5 L 33.777344 21.822266 A 1.0001 1.0001 0 0 1 33.777344 22.822266 L 29.548828 30.144531 A 1.0001 1.0001 0 0 1 28.683594 30.644531 L 20.228516 30.644531 A 1.0001 1.0001 0 0 1 19.361328 30.144531 L 15.134766 22.822266 A 1.0001 1.0001 0 0 1 15.134766 21.822266 L 19.361328 14.5 A 1.0001 1.0001 0 0 1 20.228516 14 z M 36.337891 23 L 44.792969 23 A 1.0001 1.0001 0 0 1 45.658203 23.5 L 49.886719 30.822266 A 1.0001 1.0001 0 0 1 49.886719 31.822266 L 45.658203 39.144531 A 1.0001 1.0001 0 0 1 44.792969 39.644531 L 36.337891 39.644531 A 1.0001 1.0001 0 0 1 35.470703 39.144531 L 31.244141 31.822266 A 1.0001 1.0001 0 0 1 31.244141 30.822266 L 35.470703 23.5 A 1.0001 1.0001 0 0 1 36.337891 23 z M 20.228516 32.644531 L 28.683594 32.644531 A 1.0001 1.0001 0 0 1 29.548828 33.144531 L 33.777344 40.466797 A 1.0001 1.0001 0 0 1 33.777344 41.466797 L 29.548828 48.789062 A 1.0001 1.0001 0 0 1 28.683594 49.289062 L 20.228516 49.289062 A 1.0001 1.0001 0 0 1 19.361328 48.789062 L 15.134766 41.466797 A 1.0001 1.0001 0 0 1 15.134766 40.466797 L 19.361328 33.144531 A 1.0001 1.0001 0 0 1 20.228516 32.644531 z " />
</svg>
