<?xml version="1.0" encoding="UTF-8" standalone="no"?>
<svg
   viewbox="0 0 200 200"
   version="1.1"
   id="svg4"
   sodipodi:docname="git.svg"
   width="64"
   height="64"
   inkscape:version="1.1.1 (3bf5ae0d25, 2021-09-20, custom)"
   xmlns:inkscape="http://www.inkscape.org/namespaces/inkscape"
   xmlns:sodipodi="http://sodipodi.sourceforge.net/DTD/sodipodi-0.dtd"
   xmlns="http://www.w3.org/2000/svg"
   xmlns:svg="http://www.w3.org/2000/svg">
  <defs
     id="defs8" />
  <sodipodi:namedview
     id="namedview6"
     pagecolor="#ffffff"
     bordercolor="#666666"
     borderopacity="1.0"
     inkscape:pageshadow="2"
     inkscape:pageopacity="0.0"
     inkscape:pagecheckerboard="0"
     showgrid="false"
     inkscape:zoom="9.1570328"
     inkscape:cx="24.243661"
     inkscape:cy="43.736875"
     inkscape:window-width="1920"
     inkscape:window-height="1000"
     inkscape:window-x="0"
     inkscape:window-y="0"
     inkscape:window-maximized="1"
     inkscape:current-layer="svg4"
     showguides="false" />
  <path
     d="M 2,32 C 2,10.4 10.4,2 32,2 53.6,2 62,10.4 62,32 62,53.6 53.6,62 32,62 10.4,62 2,53.6 2,32"
     id="path2"
     style="stroke-width:0.3;fill:#ce4338;fill-opacity:1" />
  <path
     id="rect1991"
     style="fill:#ffffff;fill-opacity:1;stroke-width:1.5748;stroke-linecap:round;stroke-linejoin:round"
     d="m 32,9.9179688 c -0.766857,0 -1.533488,0.2932532 -2.121094,0.8808592 L 10.964844,29.712891 c -1.1752126,1.175211 -1.1752125,3.066976 0,4.242187 l 18.914062,18.916016 c 1.175212,1.175211 3.066977,1.175212 4.242188,0 L 53.037109,33.955078 c 1.175211,-1.175212 1.175212,-3.066976 0,-4.242187 L 37,13.677734 v 2.994141 l 14.623047,14.621094 c 0.391737,0.391737 0.391737,1.022325 0,1.414062 L 32.707031,51.623047 c -0.391737,0.391737 -1.022325,0.391737 -1.414062,0 L 12.378906,32.707031 c -0.391737,-0.391737 -0.391737,-1.022325 0,-1.414062 L 31,12.671875 v 8.519531 C 29.808194,21.612742 29.008367,22.735937 29,24 c 0.0084,1.264063 0.808194,2.387258 2,2.808594 v 8.382812 C 29.808194,35.612742 29.008367,36.735937 29,38 c 0,1.656854 1.343146,3 3,3 1.656854,0 3,-1.343146 3,-3 -1.28e-4,-1.271238 -0.801465,-2.404379 -2,-2.828125 v -8.363281 c 0.294832,-0.100328 0.572244,-0.245953 0.822266,-0.431641 l 2.695312,2.695313 c 0.326229,-0.59398 0.798018,-1.09534 1.371094,-1.457032 l -2.962891,-2.96289 C 34.974312,24.438266 34.999201,24.219508 35,24 34.999872,22.728762 34.198535,21.595621 33,21.171875 v -8.5 V 11 10.101562 C 32.675987,9.9864226 32.339634,9.9179687 32,9.9179688 Z M 32,23 c 0.552285,0 1,0.447715 1,1 -0.0028,0.24976 -0.09893,0.489437 -0.269531,0.671875 l -0.05859,0.05859 C 32.489437,24.901069 32.24976,24.997218 32,25 c -0.552285,0 -1,-0.447715 -1,-1 0,-0.552285 0.447715,-1 1,-1 z m 8,5 c -1.656854,0 -3,1.343146 -3,3 0,1.656854 1.343146,3 3,3 1.656854,0 3,-1.343146 3,-3 0,-1.656854 -1.343146,-3 -3,-3 z m 0,2 c 0.552285,0 1,0.447715 1,1 0,0.552285 -0.447715,1 -1,1 -0.552285,0 -1,-0.447715 -1,-1 0,-0.552285 0.447715,-1 1,-1 z m -8,7 c 0.552285,0 1,0.447715 1,1 0,0.552285 -0.447715,1 -1,1 -0.552285,0 -1,-0.447715 -1,-1 0,-0.552285 0.447715,-1 1,-1 z"
     sodipodi:nodetypes="sscccssccccssccsccccccsccccccccccccssccccsssssssssssssssss" />
</svg>
