<?xml version="1.0" encoding="UTF-8" standalone="no"?>
<svg
   viewbox="0 0 200 200"
   version="1.1"
   id="svg4"
   sodipodi:docname="gnome-power-statistics.svg"
   width="64"
   height="64"
   inkscape:version="1.1.1 (3bf5ae0d25, 2021-09-20, custom)"
   xmlns:inkscape="http://www.inkscape.org/namespaces/inkscape"
   xmlns:sodipodi="http://sodipodi.sourceforge.net/DTD/sodipodi-0.dtd"
   xmlns="http://www.w3.org/2000/svg"
   xmlns:svg="http://www.w3.org/2000/svg">
  <defs
     id="defs8" />
  <sodipodi:namedview
     id="namedview6"
     pagecolor="#ffffff"
     bordercolor="#666666"
     borderopacity="1.0"
     inkscape:pageshadow="2"
     inkscape:pageopacity="0.0"
     inkscape:pagecheckerboard="0"
     showgrid="false"
     inkscape:zoom="6.475"
     inkscape:cx="10.810811"
     inkscape:cy="40.23166"
     inkscape:window-width="1920"
     inkscape:window-height="1000"
     inkscape:window-x="0"
     inkscape:window-y="0"
     inkscape:window-maximized="1"
     inkscape:current-layer="svg4"
     showguides="false" />
  <path
     d="M 2,32 C 2,10.4 10.4,2 32,2 53.6,2 62,10.4 62,32 62,53.6 53.6,62 32,62 10.4,62 2,53.6 2,32"
     id="path2"
     style="stroke-width:0.3;fill:#84db52;fill-opacity:1" />
  <path
     id="path887"
     style="fill:#ffffff;stroke-width:2;stroke-linecap:round;stroke-linejoin:round"
     d="M 34 12.099609 L 34 14.113281 C 43.109728 15.13178 49.999071 22.833513 50 32 C 49.98225 34.476496 49.45365 36.922687 48.447266 39.185547 L 50.228516 40.214844 C 51.39413 37.632923 51.997952 34.832838 52 32 C 52.00033 21.728544 44.21997 13.126755 34 12.099609 z M 30 12.142578 C 19.796375 13.168057 12.021705 21.744996 12 32 C 12 43.045695 20.954305 52 32 52 C 38.423573 51.98092 44.447052 48.877634 48.191406 43.658203 L 46.484375 42.671875 C 43.094266 47.276536 37.718018 49.996558 32 50 C 22.058875 50 14 41.941125 14 32 C 14.022774 22.849931 20.906557 15.172899 30 14.15625 L 30 12.142578 z M 28 22 L 26 33 L 31 33 L 29 42 L 38 30 L 32.5 30 L 34.5 22 L 28 22 z " />
</svg>
