<?xml version="1.0" encoding="UTF-8" standalone="no"?>
<svg
   viewbox="0 0 200 200"
   version="1.1"
   id="svg4"
   sodipodi:docname="gnome-disks.svg"
   width="64"
   height="64"
   inkscape:version="1.1.1 (3bf5ae0d25, 2021-09-20, custom)"
   xmlns:inkscape="http://www.inkscape.org/namespaces/inkscape"
   xmlns:sodipodi="http://sodipodi.sourceforge.net/DTD/sodipodi-0.dtd"
   xmlns="http://www.w3.org/2000/svg"
   xmlns:svg="http://www.w3.org/2000/svg">
  <defs
     id="defs8" />
  <sodipodi:namedview
     id="namedview6"
     pagecolor="#ffffff"
     bordercolor="#666666"
     borderopacity="1.0"
     inkscape:pageshadow="2"
     inkscape:pageopacity="0.0"
     inkscape:pagecheckerboard="0"
     showgrid="false"
     inkscape:zoom="10.113062"
     inkscape:cx="37.278521"
     inkscape:cy="39.997777"
     inkscape:window-width="1920"
     inkscape:window-height="1000"
     inkscape:window-x="0"
     inkscape:window-y="0"
     inkscape:window-maximized="1"
     inkscape:current-layer="svg4"
     showguides="false" />
  <path
     d="M 2,32 C 2,10.4 10.4,2 32,2 53.6,2 62,10.4 62,32 62,53.6 53.6,62 32,62 10.4,62 2,53.6 2,32"
     id="path2"
     style="stroke-width:0.3;fill:#9399a4;fill-opacity:1" />
  <path
     id="rect924"
     style="fill:#ffffff;stroke-width:1.79505;stroke-linecap:round;stroke-linejoin:round"
     d="m 87.814942,35.932129 c -1.108,0 -2,0.892 -2,2 v 11 h -1 c -1.108,0 -2,0.892 -2,2 v 21 a 6,6 0 0 0 6,6 h 11.999998 c 3.324,0 6,-2.676 6,-6 v -21 a 2,2 0 0 0 -2,-2 h -1 v -11 c 0,-1.108 -0.892,-2 -2,-2 z m 0,2 h 13.999998 v 11 H 87.814942 Z m 3,2 c -0.554,0 -1,0.446 -1,1 v 5 c 0,0.554 0.446,1 1,1 0.554,0 1,-0.446 1,-1 v -5 c 0,-0.554 -0.446,-1 -1,-1 z m 4,0 c -0.554,0 -1,0.446 -1,1 v 5 c 0,0.554 0.446,1 1,1 0.554,0 1,-0.446 1,-1 v -5 c 0,-0.554 -0.446,-1 -1,-1 z m 4,0 c -0.554,0 -1,0.446 -1,1 v 5 c 0,0.554 0.446,1 1,1 0.554,0 1,-0.446 1,-1 v -5 c 0,-0.554 -0.446,-1 -1,-1 z m -14,11 h 19.999998 v 21 c 0,2.216 -1.784,4 -4,4 H 88.814942 a 4,4 0 0 1 -4,-4 z" />
  <path
     id="path1295"
     style="color:#000000;fill:#ffffff;stroke:none;stroke-width:1.00001;stroke-linecap:round;stroke-linejoin:round;-inkscape-stroke:none"
     d="m 23,15 c -2.508946,0.004 -3.388444,1.544173 -3.832031,2.78125 L 12,39 c 0,1.104569 0.895431,2 2,2 h 36 v 3 c -0.01193,1.393234 -1.341237,2.896327 -3,3 H 15 v 2 h 32 c 2.77,0 5,-2.23 5,-5 V 39 H 14 L 20.832031,18.890625 C 21.230801,17.973973 21.741464,17.018561 23,17 h 18 c 1.258536,0.01856 1.769199,0.973973 2.167969,1.890625 L 48.490234,35 h 2.017578 L 44.832031,17.78125 C 44.388444,16.544173 43.508946,15.004 41,15 Z"
     sodipodi:nodetypes="cccsccsccssccccccccccc" />
</svg>
