<?xml version="1.0" encoding="UTF-8" standalone="no"?>
<svg
   viewbox="0 0 200 200"
   version="1.1"
   id="svg4"
   sodipodi:docname="gnome-boxes.svg"
   width="64"
   height="64"
   inkscape:version="1.1.1 (3bf5ae0d25, 2021-09-20, custom)"
   xmlns:inkscape="http://www.inkscape.org/namespaces/inkscape"
   xmlns:sodipodi="http://sodipodi.sourceforge.net/DTD/sodipodi-0.dtd"
   xmlns="http://www.w3.org/2000/svg"
   xmlns:svg="http://www.w3.org/2000/svg">
  <defs
     id="defs8" />
  <sodipodi:namedview
     id="namedview6"
     pagecolor="#ffffff"
     bordercolor="#666666"
     borderopacity="1.0"
     inkscape:pageshadow="2"
     inkscape:pageopacity="0.0"
     inkscape:pagecheckerboard="0"
     showgrid="false"
     inkscape:zoom="8"
     inkscape:cx="26.25"
     inkscape:cy="25.4375"
     inkscape:window-width="1920"
     inkscape:window-height="1000"
     inkscape:window-x="0"
     inkscape:window-y="0"
     inkscape:window-maximized="1"
     inkscape:current-layer="svg4"
     showguides="false" />
  <path
     d="M 2,32 C 2,10.4 10.4,2 32,2 53.6,2 62,10.4 62,32 62,53.6 53.6,62 32,62 10.4,62 2,53.6 2,32"
     id="path2"
     style="stroke-width:0.3;fill:#4d4d4d;fill-opacity:1" />
  <path
     id="rect1104"
     style="fill:#ffffff;stroke-width:0;stroke-linecap:round;stroke-linejoin:round"
     d="M 17 12 C 14.238569 12 12 14.23857 12 17 C 12.0058 19.37139 13.676515 21.412449 16 21.886719 L 16 42.113281 C 13.676515 42.587551 12.005778 44.62861 12 47 C 12 49.76143 14.238569 52 17 52 C 19.371388 51.994 21.412447 50.32349 21.886719 48 L 42.113281 48 C 42.587552 50.32349 44.628613 51.99422 47 52 C 49.761431 52 52 49.76143 52 47 C 51.99973 44.62425 50.327745 42.576702 48 42.101562 L 48 21.886719 C 50.323485 21.412449 51.99422 19.37139 52 17 C 52 14.23857 49.761431 12 47 12 C 44.628613 12.006 42.587552 13.67651 42.113281 16 L 21.898438 16 C 21.423288 13.67225 19.375747 12.00028 17 12 z M 17 14 C 18.656858 14 20 15.34314 20 17 C 20 18.65686 18.656858 20 17 20 C 15.343141 20 14 18.65686 14 17 C 14 15.34314 15.343141 14 17 14 z M 47 14 C 48.656859 14 50 15.34314 50 17 C 50 18.65686 48.656859 20 47 20 C 45.343142 20 44 18.65686 44 17 C 44 15.34314 45.343142 14 47 14 z M 21.886719 18 L 42.113281 18 C 42.252182 18.61645 42.50667 19.200986 42.863281 19.722656 L 40.292969 22.292969 C 39.889222 22.100109 39.447441 22.00002 39 22 C 37.731594 22.003 36.602488 22.80413 36.179688 24 L 27.828125 24 C 27.404368 22.80144 26.271269 22.0001 25 22 C 24.559727 22.0126 24.12762 22.121922 23.734375 22.320312 L 21.136719 19.722656 C 21.49333 19.200986 21.747821 18.61645 21.886719 18 z M 19.722656 21.136719 L 22.320312 23.734375 C 22.121925 24.127615 22.012571 24.55973 22 25 C 22.0034 26.26841 22.80413 27.397513 24 27.820312 L 24 36.179688 C 22.80413 36.602488 22.003395 37.73159 22 39 C 22.01258 39.44027 22.121926 39.872385 22.320312 40.265625 L 19.734375 42.851562 C 19.209171 42.493592 18.620543 42.239052 18 42.101562 L 18 21.886719 C 18.616456 21.747829 19.200987 21.493329 19.722656 21.136719 z M 44.277344 21.136719 C 44.799013 21.493329 45.383544 21.747829 46 21.886719 L 46 42.113281 C 45.383544 42.252181 44.799013 42.506671 44.277344 42.863281 L 41.679688 40.265625 C 41.878068 39.872385 41.987428 39.44027 42 39 C 41.999904 37.72873 41.198563 36.595635 40 36.171875 L 40 27.820312 C 41.195869 27.397513 41.996604 26.26841 42 25 C 41.99999 24.55256 41.899892 24.110781 41.707031 23.707031 L 44.277344 21.136719 z M 25 24 C 25.552287 24 26 24.44772 26 25 C 26 25.55229 25.552287 26 25 26 C 24.447714 26 24 25.55229 24 25 C 24 24.44772 24.447714 24 25 24 z M 39 24 C 39.552285 24 40 24.44772 40 25 C 40 25.55229 39.552285 26 39 26 C 38.447714 26 38 25.55229 38 25 C 38 24.44772 38.447714 24 39 24 z M 27.820312 26 L 36.179688 26 C 36.482059 26.84951 37.150492 27.517943 38 27.820312 L 38 36.179688 C 37.150492 36.482058 36.482058 37.15049 36.179688 38 L 27.828125 38 C 27.526057 37.14584 26.854158 36.473945 26 36.171875 L 26 27.820312 C 26.849509 27.517943 27.517942 26.84951 27.820312 26 z M 25 38 C 25.552287 38 26 38.44771 26 39 C 26 39.55228 25.552287 40 25 40 C 24.447714 40 24 39.55228 24 39 C 24 38.44771 24.447714 38 25 38 z M 39 38 C 39.552285 38 40 38.44771 40 39 C 40 39.55228 39.552285 40 39 40 C 38.447714 40 38 39.55228 38 39 C 38 38.44771 38.447714 38 39 38 z M 27.820312 40 L 36.179688 40 C 36.602488 41.19587 37.731594 41.9966 39 42 C 39.440273 41.9874 39.87238 41.878068 40.265625 41.679688 L 42.863281 44.277344 C 42.50667 44.799014 42.25218 45.38355 42.113281 46 L 21.898438 46 C 21.760945 45.37946 21.506402 44.790825 21.148438 44.265625 L 23.734375 41.679688 C 24.12762 41.878068 24.559727 41.98742 25 42 C 26.268405 41.997 27.397514 41.19587 27.820312 40 z M 17 44 C 18.656858 44 20 45.34314 20 47 C 20 48.65686 18.656858 50 17 50 C 15.343141 50 14 48.65686 14 47 C 14 45.34314 15.343141 44 17 44 z M 47 44 C 48.656859 44 50 45.34314 50 47 C 50 48.65686 48.656859 50 47 50 C 45.343142 50 44 48.65686 44 47 C 44 45.34314 45.343142 44 47 44 z " />
</svg>
