<?xml version="1.0" encoding="UTF-8" standalone="no"?>
<svg
   viewbox="0 0 200 200"
   version="1.1"
   id="svg4"
   sodipodi:docname="grub-customizer.svg"
   width="64"
   height="64"
   inkscape:version="1.1.1 (3bf5ae0d25, 2021-09-20, custom)"
   xmlns:inkscape="http://www.inkscape.org/namespaces/inkscape"
   xmlns:sodipodi="http://sodipodi.sourceforge.net/DTD/sodipodi-0.dtd"
   xmlns="http://www.w3.org/2000/svg"
   xmlns:svg="http://www.w3.org/2000/svg">
  <defs
     id="defs8" />
  <sodipodi:namedview
     id="namedview6"
     pagecolor="#ffffff"
     bordercolor="#666666"
     borderopacity="1.0"
     inkscape:pageshadow="2"
     inkscape:pageopacity="0.0"
     inkscape:pagecheckerboard="0"
     showgrid="false"
     inkscape:zoom="12.140625"
     inkscape:cx="31.958816"
     inkscape:cy="32"
     inkscape:window-width="1920"
     inkscape:window-height="996"
     inkscape:window-x="0"
     inkscape:window-y="0"
     inkscape:window-maximized="1"
     inkscape:current-layer="svg4"
     showguides="false" />
  <path
     d="M 2,32 C 2,10.4 10.4,2 32,2 53.6,2 62,10.4 62,32 62,53.6 53.6,62 32,62 10.4,62 2,53.6 2,32"
     id="path2"
     style="stroke-width:0.3;fill:#74889f;fill-opacity:1" />
  <path
     id="path3817"
     style="color:#000000;fill:#ffffff;stroke:none;stroke-width:0.99356;stroke-linecap:round;stroke-linejoin:round;-inkscape-stroke:none"
     d="m 17,14 c -2.216001,0 -4,1.783999 -4,4 v 26 h 2 V 18 c 0,-1.108 0.893912,-2.065064 2,-2 h 34 v -2 z m 12.244141,4 -0.160157,0.804688 -0.748046,3.738281 -3.611329,-1.222657 -0.77539,-0.263671 -2.820313,4.886718 L 24.607422,29 21.128906,32.056641 23.949219,36.943359 28.335938,35.458984 29.244141,40 h 5.640625 l 0.908203,-4.541016 4.386719,1.484375 L 43,32.056641 39.521484,29 43,25.943359 40.179688,21.056641 39.404297,21.320312 35.792969,22.542969 34.884766,18 Z m 1.640625,2 h 2.359375 l 0.638671,3.1875 2.304688,1.332031 3.082031,-1.041015 1.179688,2.042968 -2.44336,2.146485 0.002,2.664062 2.441407,2.146485 -1.179688,2.042968 L 36.1875,33.480469 33.882812,34.8125 33.244141,38 v 0.002 H 30.884766 V 38 l -0.638672,-3.1875 -2.304688,-1.332031 -3.082031,1.042969 v -0.002 l -1.179687,-2.041015 v -0.002 l 2.443359,-2.146485 -0.002,-2.664062 -2.441406,-2.146485 1.179687,-2.042968 3.082031,1.041015 2.304688,-1.332031 z M 49,20 v 18 c 0,2.216 -1.790527,3.830041 -4,4 H 19 v 2 h 26 c 3.32399,0 6,-2.676 6,-6 V 20 Z m -16.935547,5 a 4,4 0 0 0 -4,4 4,4 0 0 0 4,4 4,4 0 0 0 4,-4 4,4 0 0 0 -4,-4 z m 0,2 a 2,2 0 0 1 2,2 2,2 0 0 1 -2,2 2,2 0 0 1 -2,-2 2,2 0 0 1 2,-2 z M 11,48 v 2 h 42 v -2 z" />
</svg>
