<?xml version="1.0" encoding="UTF-8" standalone="no"?>
<svg
   viewbox="0 0 200 200"
   version="1.1"
   id="svg4"
   sodipodi:docname="gthumb.svg"
   width="64"
   height="64"
   inkscape:version="1.1.1 (3bf5ae0d25, 2021-09-20, custom)"
   xmlns:inkscape="http://www.inkscape.org/namespaces/inkscape"
   xmlns:sodipodi="http://sodipodi.sourceforge.net/DTD/sodipodi-0.dtd"
   xmlns:xlink="http://www.w3.org/1999/xlink"
   xmlns="http://www.w3.org/2000/svg"
   xmlns:svg="http://www.w3.org/2000/svg">
  <defs
     id="defs8">
    <linearGradient
       inkscape:collect="always"
       id="linearGradient2444">
      <stop
         style="stop-color:#ffc207;stop-opacity:1;"
         offset="0"
         id="stop2440" />
      <stop
         style="stop-color:#ffc207;stop-opacity:0;"
         offset="1"
         id="stop2442" />
    </linearGradient>
    <linearGradient
       inkscape:collect="always"
       id="linearGradient8746">
      <stop
         style="stop-color:#ffb814;stop-opacity:1"
         offset="0"
         id="stop8742" />
      <stop
         style="stop-color:#f9724e;stop-opacity:1"
         offset="1"
         id="stop8744" />
    </linearGradient>
    <linearGradient
       inkscape:collect="always"
       xlink:href="#linearGradient8746"
       id="linearGradient851"
       x1="10"
       y1="56"
       x2="54"
       y2="8"
       gradientUnits="userSpaceOnUse" />
    <radialGradient
       inkscape:collect="always"
       xlink:href="#linearGradient2444"
       id="radialGradient2448"
       cx="10"
       cy="56"
       fx="10"
       fy="56"
       r="30"
       gradientUnits="userSpaceOnUse"
       gradientTransform="matrix(0,-1.2,1.2000001,0,-11.200002,66)" />
  </defs>
  <sodipodi:namedview
     id="namedview6"
     pagecolor="#ffffff"
     bordercolor="#666666"
     borderopacity="1.0"
     inkscape:pageshadow="2"
     inkscape:pageopacity="0.0"
     inkscape:pagecheckerboard="0"
     showgrid="false"
     inkscape:zoom="6.4416667"
     inkscape:cx="27.322121"
     inkscape:cy="43.078913"
     inkscape:window-width="1920"
     inkscape:window-height="996"
     inkscape:window-x="0"
     inkscape:window-y="0"
     inkscape:window-maximized="1"
     inkscape:current-layer="svg4"
     showguides="false" />
  <path
     d="M 2,32 C 2,10.4 10.4,2 32,2 53.6,2 62,10.4 62,32 62,53.6 53.6,62 32,62 10.4,62 2,53.6 2,32"
     id="path2"
     style="stroke-width:0.3;fill:url(#linearGradient851);fill-opacity:1" />
  <path
     id="rect2249"
     style="fill:url(#radialGradient2448);fill-opacity:1;stroke-width:4;stroke-linecap:round;stroke-linejoin:round"
     d="M 32 2 C 10.400002 2 2 10.4 2 32 C 2 53.6 10.400001 62 32 62 C 53.600001 62 62 53.6 62 32 C 62 10.4 53.600001 2 32 2 z " />
  <path
     id="rect843"
     style="fill:#ffffff;stroke-width:4;stroke-linecap:round;stroke-linejoin:round"
     d="m 15,13 c -1.108,0 -2,0.892 -2,2 v 36 h 2 V 15 h 36 v -2 z m 9,6 a 5,5 0 0 0 -5,5 5,5 0 0 0 5,5 5,5 0 0 0 5,-5 5,5 0 0 0 -5,-5 z m 0,2 a 3,3 0 0 1 3,3 3,3 0 0 1 -3,3 3,3 0 0 1 -3,-3 3,3 0 0 1 3,-3 z m 25,1 V 35.179688 L 44.40625,30.587891 C 44.01451,30.196151 43.503424,30 42.992188,30 c -0.511238,0 -1.022323,0.19615 -1.414063,0.587891 l -8.990234,8.990234 1.414062,1.414063 8.990235,-8.990235 L 49,38.007812 V 46 c 0,1.662 -1.338,3 -3,3 H 22.5 c -0.828427,0 -1.507812,-0.691104 -1.507812,-1.519531 0.0073,-0.392134 0.167814,-0.765828 0.447265,-1.041016 L 34.052734,33.828125 32.638672,32.414062 20.025391,45.025391 C 19.392015,45.658766 19,46.533501 19,47.5 19,49.432997 20.567003,51 22.5,51 H 46 c 2.77,0 5,-2.23 5,-5 V 22 Z" />
</svg>
