<?xml version="1.0" encoding="UTF-8" standalone="no"?>
<svg
   viewbox="0 0 200 200"
   version="1.1"
   id="svg4"
   sodipodi:docname="hexchat.svg"
   width="64"
   height="64"
   inkscape:version="1.1.1 (3bf5ae0d25, 2021-09-20, custom)"
   xmlns:inkscape="http://www.inkscape.org/namespaces/inkscape"
   xmlns:sodipodi="http://sodipodi.sourceforge.net/DTD/sodipodi-0.dtd"
   xmlns="http://www.w3.org/2000/svg"
   xmlns:svg="http://www.w3.org/2000/svg">
  <defs
     id="defs8" />
  <sodipodi:namedview
     id="namedview6"
     pagecolor="#ffffff"
     bordercolor="#666666"
     borderopacity="1.0"
     inkscape:pageshadow="2"
     inkscape:pageopacity="0.0"
     inkscape:pagecheckerboard="0"
     showgrid="false"
     inkscape:zoom="8"
     inkscape:cx="19.375"
     inkscape:cy="44.1875"
     inkscape:window-width="1920"
     inkscape:window-height="1000"
     inkscape:window-x="0"
     inkscape:window-y="0"
     inkscape:window-maximized="1"
     inkscape:current-layer="svg4"
     showguides="true" />
  <path
     d="M 2,32 C 2,10.4 10.4,2 32,2 53.6,2 62,10.4 62,32 62,53.6 53.6,62 32,62 10.4,62 2,53.6 2,32"
     id="path2"
     style="stroke-width:0.3;fill:#e79f2a;fill-opacity:1" />
  <path
     id="path3817"
     style="color:#000000;fill:#ffffff;stroke:none;stroke-width:0.99356;stroke-linecap:round;stroke-linejoin:round;-inkscape-stroke:none"
     d="M 17 16 C 14.783999 16 13 17.783999 13 20 L 13 44 L 15 44 L 15 20 C 15 18.892 15.892 18 17 18 L 51 18 L 51 16 L 17 16 z M 27.833984 21 C 27.228661 21.000211 26.670778 21.322218 26.376953 21.841797 L 22.208984 29.205078 C 21.929711 29.699057 21.929711 30.300943 22.208984 30.794922 L 26.376953 38.158203 C 26.670778 38.677782 27.228661 38.999789 27.833984 39 L 36.166016 39 C 36.771339 38.999789 37.329222 38.677782 37.623047 38.158203 L 41.791016 30.794922 C 42.070289 30.300943 42.070289 29.699057 41.791016 29.205078 L 37.623047 21.841797 C 37.329222 21.322218 36.771339 21.000211 36.166016 21 L 27.833984 21 z M 49 22 L 49 38 C 49 40.216 47.216 42 45 42 L 26 42 L 15.210938 50.535156 L 16.599609 52.111328 L 26.753906 44 L 45 44 C 48.324 44 50.587709 41.298332 51 38 L 51 22 L 49 22 z M 28.642578 23 L 35.357422 23 L 32 28.222656 L 28.642578 23 z M 36.775391 24.349609 L 40.015625 30 L 36.775391 35.650391 L 33.142578 30 L 36.775391 24.349609 z M 27.226562 24.353516 L 30.857422 30 L 27.226562 35.646484 L 24 30 L 27.226562 24.353516 z M 32 31.777344 L 35.357422 37 L 28.642578 37 L 32 31.777344 z " />
</svg>
