<?xml version="1.0" encoding="UTF-8" standalone="no"?>
<svg
   viewbox="0 0 200 200"
   version="1.1"
   id="svg4"
   sodipodi:docname="hypnotix.svg"
   width="64"
   height="64"
   inkscape:version="1.1.1 (3bf5ae0d25, 2021-09-20, custom)"
   xmlns:inkscape="http://www.inkscape.org/namespaces/inkscape"
   xmlns:sodipodi="http://sodipodi.sourceforge.net/DTD/sodipodi-0.dtd"
   xmlns:xlink="http://www.w3.org/1999/xlink"
   xmlns="http://www.w3.org/2000/svg"
   xmlns:svg="http://www.w3.org/2000/svg">
  <defs
     id="defs8">
    <linearGradient
       inkscape:collect="always"
       id="linearGradient9089">
      <stop
         style="stop-color:#5db6f4;stop-opacity:1;"
         offset="0"
         id="stop9085" />
      <stop
         style="stop-color:#40cef2;stop-opacity:1"
         offset="1"
         id="stop9087" />
    </linearGradient>
    <linearGradient
       inkscape:collect="always"
       xlink:href="#linearGradient9089"
       id="linearGradient9091"
       x1="12"
       y1="58"
       x2="62"
       y2="8"
       gradientUnits="userSpaceOnUse" />
  </defs>
  <sodipodi:namedview
     id="namedview6"
     pagecolor="#ffffff"
     bordercolor="#666666"
     borderopacity="1.0"
     inkscape:pageshadow="2"
     inkscape:pageopacity="0.0"
     inkscape:pagecheckerboard="0"
     showgrid="false"
     inkscape:zoom="6.4416667"
     inkscape:cx="26.856404"
     inkscape:cy="32.910737"
     inkscape:window-width="1920"
     inkscape:window-height="996"
     inkscape:window-x="0"
     inkscape:window-y="0"
     inkscape:window-maximized="1"
     inkscape:current-layer="svg4"
     showguides="false" />
  <path
     d="M 2,32 C 2,10.4 10.4,2 32,2 53.6,2 62,10.4 62,32 62,53.6 53.6,62 32,62 10.4,62 2,53.6 2,32"
     id="path2"
     style="stroke-width:0.3;fill:url(#linearGradient9091);fill-opacity:1" />
  <path
     id="path3817"
     style="color:#000000;fill:#ffffff;stroke:none;stroke-width:0.99356;stroke-linecap:round;stroke-linejoin:round;-inkscape-stroke:none"
     d="M 16 16 C 13.783999 16 12 17.783999 12 20 L 12 48 L 14 48 L 14 20 C 14 18.892 14.892 18 16 18 L 52 18 L 52 16 L 16 16 z M 50 22 L 50 42 C 50 44.216 48.216 46 46 46 L 18 46 L 18 48 L 46 48 C 49.324 48 52 45.324 52 42 L 52 22 L 50 22 z M 24.941406 23 L 24.001953 24.771484 L 37.248047 31.683594 C 37.582627 31.873372 37.582627 32.349285 37.248047 32.539062 L 26.75 38.462891 C 26.416912 38.650722 26.000481 38.413889 26 38.035156 L 26 28.228516 L 24 28.228516 L 24 39.021484 C 23.999498 40.545713 25.67424 41.496355 27.007812 40.728516 L 39.005859 33.816406 C 40.330674 33.054742 40.330674 31.165961 39.005859 30.404297 L 24.941406 23 z " />
</svg>
