<?xml version="1.0" encoding="UTF-8" standalone="no"?>
<svg
   viewbox="0 0 200 200"
   version="1.1"
   id="svg4"
   sodipodi:docname="ibus.svg"
   width="64"
   height="64"
   inkscape:version="1.1.1 (3bf5ae0d25, 2021-09-20, custom)"
   xmlns:inkscape="http://www.inkscape.org/namespaces/inkscape"
   xmlns:sodipodi="http://sodipodi.sourceforge.net/DTD/sodipodi-0.dtd"
   xmlns="http://www.w3.org/2000/svg"
   xmlns:svg="http://www.w3.org/2000/svg">
  <defs
     id="defs8" />
  <sodipodi:namedview
     id="namedview6"
     pagecolor="#ffffff"
     bordercolor="#666666"
     borderopacity="1.0"
     inkscape:pageshadow="2"
     inkscape:pageopacity="0.0"
     inkscape:pagecheckerboard="0"
     showgrid="false"
     inkscape:zoom="12.8125"
     inkscape:cx="32"
     inkscape:cy="32"
     inkscape:window-width="1920"
     inkscape:window-height="1007"
     inkscape:window-x="0"
     inkscape:window-y="0"
     inkscape:window-maximized="1"
     inkscape:current-layer="svg4"
     showguides="false" />
  <path
     d="M 2,32 C 2,10.4 10.4,2 32,2 53.6,2 62,10.4 62,32 62,53.6 53.6,62 32,62 10.4,62 2,53.6 2,32"
     id="path2"
     style="stroke-width:0.3;fill:#777c8f;fill-opacity:1" />
  <path
     id="rect1588"
     style="fill:#f9f9f9;stroke-width:2;stroke-linecap:round;stroke-linejoin:round"
     d="m 15,18 c -1.108,0 -2,0.892 -2,2 v 26 h 2 V 20 h 36 v -2 z m 15.5,6 v 3 h 3 V 24 Z M 49,25 v 16 c 0,1.662 -1.338,3 -3,3 H 19 v 2 h 27 c 2.77,0 4.67635,-2.248973 5,-5 V 25 Z m -18.5,5 v 11 h 3 V 30 Z"
     sodipodi:nodetypes="sscccccsccccccssccscccccccc" />
</svg>
