<?xml version="1.0" encoding="UTF-8" standalone="no"?>
<svg
   viewbox="0 0 200 200"
   version="1.1"
   id="svg4"
   sodipodi:docname="internet-chat.svg"
   width="64"
   height="64"
   inkscape:version="1.1.1 (3bf5ae0d25, 2021-09-20, custom)"
   xmlns:inkscape="http://www.inkscape.org/namespaces/inkscape"
   xmlns:sodipodi="http://sodipodi.sourceforge.net/DTD/sodipodi-0.dtd"
   xmlns:xlink="http://www.w3.org/1999/xlink"
   xmlns="http://www.w3.org/2000/svg"
   xmlns:svg="http://www.w3.org/2000/svg">
  <defs
     id="defs8">
    <linearGradient
       inkscape:collect="always"
       id="linearGradient7935">
      <stop
         style="stop-color:#00f0d5;stop-opacity:1"
         offset="0"
         id="stop7931" />
      <stop
         style="stop-color:#00f0d5;stop-opacity:0.5925253"
         offset="0.60434777"
         id="stop9364" />
      <stop
         style="stop-color:#00f0d5;stop-opacity:0"
         offset="1"
         id="stop7933" />
    </linearGradient>
    <linearGradient
       inkscape:collect="always"
       id="linearGradient7185">
      <stop
         style="stop-color:#00a9fc;stop-opacity:1;"
         offset="0"
         id="stop7181" />
      <stop
         style="stop-color:#008de6;stop-opacity:1"
         offset="1"
         id="stop7183" />
    </linearGradient>
    <linearGradient
       inkscape:collect="always"
       xlink:href="#linearGradient7185"
       id="linearGradient7187"
       x1="52"
       y1="62"
       x2="52"
       y2="16"
       gradientUnits="userSpaceOnUse" />
    <radialGradient
       inkscape:collect="always"
       xlink:href="#linearGradient7935"
       id="radialGradient7937"
       cx="14.85099"
       cy="50.809589"
       fx="14.85099"
       fy="50.809589"
       r="30"
       gradientUnits="userSpaceOnUse"
       gradientTransform="matrix(7.6244268e-7,1.7333333,-1.5333336,-4.3959087e-6,85.908047,-15.741484)" />
  </defs>
  <sodipodi:namedview
     id="namedview6"
     pagecolor="#ffffff"
     bordercolor="#666666"
     borderopacity="1.0"
     inkscape:pageshadow="2"
     inkscape:pageopacity="0.0"
     inkscape:pagecheckerboard="0"
     showgrid="false"
     inkscape:zoom="8"
     inkscape:cx="19.375"
     inkscape:cy="44.1875"
     inkscape:window-width="1920"
     inkscape:window-height="996"
     inkscape:window-x="0"
     inkscape:window-y="0"
     inkscape:window-maximized="1"
     inkscape:current-layer="svg4"
     showguides="true" />
  <path
     d="M 2,32 C 2,10.4 10.4,2 32,2 53.6,2 62,10.4 62,32 62,53.6 53.6,62 32,62 10.4,62 2,53.6 2,32"
     id="path2"
     style="stroke-width:0.3;fill:url(#linearGradient7187);fill-opacity:1" />
  <path
     id="rect7848"
     style="fill:url(#radialGradient7937);fill-opacity:1;stroke-linecap:round;stroke-linejoin:round"
     d="M 32 2 C 10.4 2 2 10.4 2 32 C 2 53.6 10.4 62 32 62 C 53.6 62 62 53.6 62 32 C 62 10.4 53.6 2 32 2 z " />
  <path
     id="path3817"
     style="color:#000000;fill:#ffffff;stroke:none;stroke-width:0.99356;stroke-linecap:round;stroke-linejoin:round;-inkscape-stroke:none"
     d="m 17,16 c -2.216001,0 -4,1.783999 -4,4 v 24 h 2 V 20 c 0,-1.108 0.892,-2 2,-2 h 34 v -2 z m 32,6 v 16 c 0,2.216 -1.784,4 -4,4 H 26 L 15.210938,50.535156 16.599609,52.111328 26.753906,44 H 45 c 3.324,0 5.587709,-2.701668 6,-6 V 22 Z" />
</svg>
