<?xml version="1.0" encoding="UTF-8" standalone="no"?>
<svg
   viewbox="0 0 200 200"
   version="1.1"
   id="svg4"
   sodipodi:docname="kblackbox.svg"
   width="64"
   height="64"
   inkscape:version="1.1.1 (3bf5ae0d25, 2021-09-20, custom)"
   xmlns:inkscape="http://www.inkscape.org/namespaces/inkscape"
   xmlns:sodipodi="http://sodipodi.sourceforge.net/DTD/sodipodi-0.dtd"
   xmlns:xlink="http://www.w3.org/1999/xlink"
   xmlns="http://www.w3.org/2000/svg"
   xmlns:svg="http://www.w3.org/2000/svg">
  <defs
     id="defs8">
    <linearGradient
       inkscape:collect="always"
       id="linearGradient9089">
      <stop
         style="stop-color:#333333;stop-opacity:1"
         offset="0"
         id="stop9085" />
      <stop
         style="stop-color:#666666;stop-opacity:1"
         offset="1"
         id="stop9087" />
    </linearGradient>
    <linearGradient
       inkscape:collect="always"
       xlink:href="#linearGradient9089"
       id="linearGradient9091"
       x1="12"
       y1="58"
       x2="62"
       y2="8"
       gradientUnits="userSpaceOnUse" />
  </defs>
  <sodipodi:namedview
     id="namedview6"
     pagecolor="#ffffff"
     bordercolor="#666666"
     borderopacity="1.0"
     inkscape:pageshadow="2"
     inkscape:pageopacity="0.0"
     inkscape:pagecheckerboard="0"
     showgrid="false"
     inkscape:zoom="4.5549462"
     inkscape:cx="12.294327"
     inkscape:cy="31.065131"
     inkscape:window-width="1920"
     inkscape:window-height="996"
     inkscape:window-x="0"
     inkscape:window-y="0"
     inkscape:window-maximized="1"
     inkscape:current-layer="svg4"
     showguides="false" />
  <path
     d="M 2,32 C 2,10.4 10.4,2 32,2 53.6,2 62,10.4 62,32 62,53.6 53.6,62 32,62 10.4,62 2,53.6 2,32"
     id="path2"
     style="stroke-width:0.3;fill:url(#linearGradient9091);fill-opacity:1" />
  <path
     id="path3817"
     style="color:#000000;fill:#ffffff;stroke:none;stroke-width:0.99356;stroke-linecap:round;stroke-linejoin:round;-inkscape-stroke:none"
     d="M 17 13 C 14.783999 13 13 14.783999 13 17 L 13 51 L 15 51 L 15 17 C 15 15.892 15.893912 14.934936 17 15 L 51 15 L 51 13 L 17 13 z M 31.796875 19 C 29.834611 19 28.218449 19.578041 26.945312 20.734375 C 25.672177 21.879029 25.02336 23.408675 25 25.324219 L 27.083984 25.324219 C 27.107344 23.957642 27.545787 22.878234 28.398438 22.083984 C 29.262768 21.278054 30.395258 20.875 31.796875 20.875 C 33.186812 20.875 34.268173 21.295749 35.039062 22.136719 C 35.821632 22.966009 36.212891 24.110295 36.212891 25.570312 C 36.212891 26.294482 36.118523 26.943298 35.931641 27.515625 C 35.756438 28.076272 35.500833 28.595333 35.162109 29.074219 C 34.835065 29.541424 34.093834 30.347533 32.9375 31.492188 C 31.781166 32.625161 31.026186 33.612154 30.675781 34.453125 C 30.325377 35.294095 30.138594 36.402993 30.115234 37.78125 L 32.201172 37.78125 C 32.201172 35.667144 32.859831 34.054927 34.179688 32.945312 C 35.779867 31.473614 36.867126 30.18973 37.439453 29.091797 C 38.01178 27.982183 38.296875 26.796612 38.296875 25.535156 C 38.296875 23.526172 37.712937 21.937546 36.544922 20.769531 C 35.388588 19.589837 33.80586 19 31.796875 19 z M 49 19 L 49 45 C 49 47.216 47.216 49 45 49 L 19 49 L 19 51 L 45 51 C 48.324 51 51 48.324 51 45 L 51 19 L 49 19 z M 31.271484 42.214844 C 30.815959 42.214844 30.460088 42.354442 30.203125 42.634766 C 29.957842 42.903409 29.835938 43.235687 29.835938 43.632812 C 29.835938 44.018257 29.957842 44.346591 30.203125 44.615234 C 30.460088 44.872197 30.815959 45 31.271484 45 C 31.71533 45 32.067256 44.872197 32.324219 44.615234 C 32.592862 44.346591 32.726562 44.018257 32.726562 43.632812 C 32.726563 43.235687 32.592862 42.903409 32.324219 42.634766 C 32.067256 42.354442 31.71533 42.214844 31.271484 42.214844 z " />
</svg>
