<?xml version="1.0" encoding="UTF-8" standalone="no"?>
<svg
   viewbox="0 0 200 200"
   version="1.1"
   id="svg4"
   sodipodi:docname="kid3.svg"
   width="64"
   height="64"
   inkscape:version="1.1.1 (3bf5ae0d25, 2021-09-20, custom)"
   xmlns:inkscape="http://www.inkscape.org/namespaces/inkscape"
   xmlns:sodipodi="http://sodipodi.sourceforge.net/DTD/sodipodi-0.dtd"
   xmlns="http://www.w3.org/2000/svg"
   xmlns:svg="http://www.w3.org/2000/svg">
  <defs
     id="defs8" />
  <sodipodi:namedview
     id="namedview6"
     pagecolor="#ffffff"
     bordercolor="#666666"
     borderopacity="1.0"
     inkscape:pageshadow="2"
     inkscape:pageopacity="0.0"
     inkscape:pagecheckerboard="0"
     showgrid="false"
     inkscape:zoom="12.95"
     inkscape:cx="27.953668"
     inkscape:cy="36.332046"
     inkscape:window-width="1920"
     inkscape:window-height="996"
     inkscape:window-x="0"
     inkscape:window-y="0"
     inkscape:window-maximized="1"
     inkscape:current-layer="svg4"
     showguides="false" />
  <path
     d="M 2,32 C 2,10.4 10.4,2 32,2 53.6,2 62,10.4 62,32 62,53.6 53.6,62 32,62 10.4,62 2,53.6 2,32"
     id="path2"
     style="stroke-width:0.3;fill:#5bc969;fill-opacity:1" />
  <path
     id="rect1897"
     style="fill:#ffffff;fill-opacity:1;stroke-width:1.86171;stroke-linecap:round;stroke-linejoin:round"
     d="M 16.792969 14 C 16.019431 14 15.321161 14.311651 14.816406 14.816406 C 14.311653 15.321159 14 16.019432 14 16.792969 L 14 31.109375 L 34 50.986328 L 34 48.369141 L 16 30.5 L 16 17 A 1 1 0 0 1 17 16 L 30 16 L 44.107422 30 L 47.009766 30 L 31.109375 14 L 16.792969 14 z M 20.5 19 A 1.5 1.5 0 0 0 19 20.5 A 1.5 1.5 0 0 0 20.5 22 A 1.5 1.5 0 0 0 22 20.5 A 1.5 1.5 0 0 0 20.5 19 z M 46 33 C 45.447715 33 45 33.447715 45 34 L 45 43.001953 C 44.134764 42.352145 43.082074 42.000563 42 42 C 39.238576 42 37 44.238576 37 47 C 37 49.761424 39.238576 52 42 52 C 44.646251 51.994 46.829557 49.927107 46.980469 47.285156 L 47 47.285156 L 47 47 L 47 35 C 49.209139 35 51.999383 37.612375 52 41 C 52 41.552285 52.447715 42 53 42 C 53.552285 42 54 41.552285 54 41 C 53.999074 36.483166 50.313708 33 47 33 L 46 33 z M 42 44 C 43.656854 44 45 45.343146 45 47 C 45 48.656854 43.656854 50 42 50 C 40.343146 50 39 48.656854 39 47 C 39 45.343146 40.343146 44 42 44 z " />
</svg>
