<?xml version="1.0" encoding="UTF-8" standalone="no"?>
<svg
   viewbox="0 0 200 200"
   version="1.1"
   id="svg4"
   sodipodi:docname="kinfocenter.svg"
   width="64"
   height="64"
   inkscape:version="1.1.1 (3bf5ae0d25, 2021-09-20, custom)"
   xmlns:inkscape="http://www.inkscape.org/namespaces/inkscape"
   xmlns:sodipodi="http://sodipodi.sourceforge.net/DTD/sodipodi-0.dtd"
   xmlns="http://www.w3.org/2000/svg"
   xmlns:svg="http://www.w3.org/2000/svg">
  <defs
     id="defs8" />
  <sodipodi:namedview
     id="namedview6"
     pagecolor="#ffffff"
     bordercolor="#666666"
     borderopacity="1.0"
     inkscape:pageshadow="2"
     inkscape:pageopacity="0.0"
     inkscape:pagecheckerboard="0"
     showgrid="false"
     inkscape:zoom="4"
     inkscape:cx="-0.75000001"
     inkscape:cy="63.875001"
     inkscape:window-width="1920"
     inkscape:window-height="996"
     inkscape:window-x="0"
     inkscape:window-y="0"
     inkscape:window-maximized="1"
     inkscape:current-layer="svg4"
     showguides="true" />
  <path
     d="M 2,32 C 2,10.4 10.4,2 32,2 53.6,2 62,10.4 62,32 62,53.6 53.6,62 32,62 10.4,62 2,53.6 2,32"
     id="path2"
     style="stroke-width:0.3;fill:#20a2e6;fill-opacity:1" />
  <path
     id="path1018"
     style="fill:#ffffff;fill-opacity:1;stroke-width:4;stroke-linecap:round;stroke-linejoin:round"
     d="m 32,13 c -10.49341,0 -19,8.50659 -19,19 0,10.49341 8.50659,19 19,19 v -2 c -9.388841,0 -17,-7.611159 -17,-17 0,-9.388841 7.611159,-17 17,-17 9.388841,0 17,7.611159 17,17 -0.01775,5.125569 -2.347159,9.969525 -6.339844,13.183594 l 1.326172,1.515625 C 48.412183,43.10071 50.987131,37.704147 51,32 51,21.50659 42.49341,13 32,13 Z m -0.5,9 C 30.671573,22 30,22.671573 30,23.5 30,24.328427 30.671573,25 31.5,25 32.328427,25 33,24.328427 33,23.5 33,22.671573 32.328427,22 31.5,22 Z M 29,27 v 2 h 2 v 14 h 2 V 27 Z"
     sodipodi:nodetypes="ssccssccccssssssccccccc" />
</svg>
