<?xml version="1.0" encoding="UTF-8" standalone="no"?>
<svg
   viewbox="0 0 200 200"
   version="1.1"
   id="svg4"
   sodipodi:docname="kiriki.svg"
   width="64"
   height="64"
   inkscape:version="1.1.1 (3bf5ae0d25, 2021-09-20, custom)"
   xmlns:inkscape="http://www.inkscape.org/namespaces/inkscape"
   xmlns:sodipodi="http://sodipodi.sourceforge.net/DTD/sodipodi-0.dtd"
   xmlns="http://www.w3.org/2000/svg"
   xmlns:svg="http://www.w3.org/2000/svg">
  <defs
     id="defs8" />
  <sodipodi:namedview
     id="namedview6"
     pagecolor="#ffffff"
     bordercolor="#666666"
     borderopacity="1.0"
     inkscape:pageshadow="2"
     inkscape:pageopacity="0.0"
     inkscape:pagecheckerboard="0"
     showgrid="false"
     inkscape:zoom="12.078125"
     inkscape:cx="31.958603"
     inkscape:cy="32"
     inkscape:window-width="1920"
     inkscape:window-height="1000"
     inkscape:window-x="0"
     inkscape:window-y="0"
     inkscape:window-maximized="1"
     inkscape:current-layer="svg4"
     showguides="true" />
  <path
     d="M 2,32 C 2,10.4 10.4,2 32,2 53.6,2 62,10.4 62,32 62,53.6 53.6,62 32,62 10.4,62 2,53.6 2,32"
     id="path2"
     style="stroke-width:0.3;fill:#e74343;fill-opacity:1;stroke:none" />
  <path
     id="path1032"
     style="fill:#ffffff;fill-opacity:1;stroke-width:3.2;stroke-linecap:round;stroke-linejoin:round"
     d="M 18 14 C 15.790861 14 14 15.790861 14 18 C 14 20.209139 15.790861 22 18 22 C 20.209139 22 22 20.209139 22 18 C 22 15.790861 20.209139 14 18 14 z M 18 16 A 2 2 0 0 1 20 18 A 2 2 0 0 1 18 20 A 2 2 0 0 1 16 18 A 2 2 0 0 1 18 16 z M 32 28 C 29.790861 28 28 29.790861 28 32 C 28 34.209139 29.790861 36 32 36 C 34.209139 36 36 34.209139 36 32 C 36 29.790861 34.209139 28 32 28 z M 32 30 A 2 2 0 0 1 34 32 A 2 2 0 0 1 32 34 A 2 2 0 0 1 30 32 A 2 2 0 0 1 32 30 z M 46 42 C 43.790861 42 42 43.790861 42 46 C 42 48.209139 43.790861 50 46 50 C 48.209139 50 50 48.209139 50 46 C 50 43.790861 48.209139 42 46 42 z M 46 44 A 2 2 0 0 1 48 46 A 2 2 0 0 1 46 48 A 2 2 0 0 1 44 46 A 2 2 0 0 1 46 44 z " />
</svg>
