<?xml version="1.0" encoding="UTF-8" standalone="no"?>
<svg
   viewbox="0 0 200 200"
   version="1.1"
   id="svg4"
   sodipodi:docname="kleopatra.svg"
   width="64"
   height="64"
   inkscape:version="1.1.1 (3bf5ae0d25, 2021-09-20, custom)"
   xmlns:inkscape="http://www.inkscape.org/namespaces/inkscape"
   xmlns:sodipodi="http://sodipodi.sourceforge.net/DTD/sodipodi-0.dtd"
   xmlns="http://www.w3.org/2000/svg"
   xmlns:svg="http://www.w3.org/2000/svg">
  <defs
     id="defs8" />
  <sodipodi:namedview
     id="namedview6"
     pagecolor="#ffffff"
     bordercolor="#666666"
     borderopacity="1.0"
     inkscape:pageshadow="2"
     inkscape:pageopacity="0.0"
     inkscape:pagecheckerboard="0"
     showgrid="false"
     inkscape:zoom="6.4416667"
     inkscape:cx="-5.2781371"
     inkscape:cy="43.078913"
     inkscape:window-width="1920"
     inkscape:window-height="996"
     inkscape:window-x="0"
     inkscape:window-y="0"
     inkscape:window-maximized="1"
     inkscape:current-layer="svg4"
     showguides="false" />
  <path
     d="M 2,32 C 2,10.4 10.4,2 32,2 53.6,2 62,10.4 62,32 62,53.6 53.6,62 32,62 10.4,62 2,53.6 2,32"
     id="path2"
     style="stroke-width:0.3;fill:#b5a068;fill-opacity:1" />
  <path
     id="rect844"
     style="fill:#ffffff;stroke-width:4;stroke-linecap:round;stroke-linejoin:round"
     d="m 14,15 c -1.104569,0 -2,0.895431 -2,2 v 32 h 2 V 17 h 13 l 3,3 c 1.116052,1.116052 3,1 3,1 H 52 V 19 H 32 l -3,-3 c -0.830108,-0.900236 -1.570059,-1 -3,-1 z m 36,9 v 17 c 0,3.324 -2.678656,6.132854 -6,6 H 17 v 2 h 27 c 4.432,0 8,-3.568 8,-8 V 24 Z"
     sodipodi:nodetypes="ssccccscccccsscscccsscc" />
  <path
     id="path1095"
     style="fill:#ffffff;fill-opacity:1;stroke-width:3.2;stroke-linecap:round;stroke-linejoin:round"
     d="m 32,27 c -2.209139,0 -4,1.790861 -4,4 0.0037,1.451271 0.787303,2.744435 1.984375,3.443359 L 29,40 h 6 L 34.015625,34.443359 C 35.212693,33.744435 35.99628,32.451271 36,31 36,28.790861 34.209139,27 32,27 Z m 0,2 c 1.104569,0 2,0.895431 2,2 -0.0019,0.414165 -0.132722,0.804563 -0.357422,1.128906 -0.02201,0.03178 -0.04456,0.06329 -0.06836,0.09375 -0.0048,0.0062 -0.01074,0.01148 -0.01563,0.01758 -0.03146,0.03929 -0.06329,0.07838 -0.09766,0.115235 -0.0013,0.0014 -0.0026,0.0026 -0.0039,0.0039 -0.03698,0.03944 -0.07507,0.07687 -0.115234,0.113281 -0.03164,0.02868 -0.06412,0.05731 -0.09766,0.08398 -0.01777,0.01413 -0.03641,0.02747 -0.05469,0.04102 -0.01721,0.01276 -0.03508,0.02488 -0.05273,0.03711 -0.02272,0.01572 -0.04492,0.03206 -0.06836,0.04687 -0.02863,0.0181 -0.05822,0.03408 -0.08789,0.05078 -0.01967,0.01107 -0.03848,0.02277 -0.05859,0.0332 -0.02511,0.01303 -0.05234,0.02314 -0.07813,0.03516 -0.02399,0.01117 -0.04771,0.02294 -0.07227,0.0332 -0.05004,0.02093 -0.100076,0.04158 -0.152343,0.05859 L 33,38 h -2 l 0.380859,-5.107422 c -0.05146,-0.01675 -0.101091,-0.03609 -0.15039,-0.05664 -8e-4,-3.34e-4 -0.0012,-0.0016 -0.002,-0.002 -0.02452,-0.01026 -0.04831,-0.02204 -0.07227,-0.0332 -0.02588,-0.01205 -0.05291,-0.02208 -0.07813,-0.03516 -0.02006,-0.01041 -0.03898,-0.02216 -0.05859,-0.0332 -0.02967,-0.0167 -0.05926,-0.03268 -0.08789,-0.05078 -0.02342,-0.01481 -0.04566,-0.03116 -0.06836,-0.04687 -0.01769,-0.01224 -0.03549,-0.02434 -0.05273,-0.03711 -0.01828,-0.01354 -0.03692,-0.02689 -0.05469,-0.04102 -0.03353,-0.02668 -0.06601,-0.0553 -0.09766,-0.08398 -0.04017,-0.03641 -0.07825,-0.07384 -0.115234,-0.113281 -0.0013,-0.0013 -0.0026,-0.0026 -0.0039,-0.0039 -0.03437,-0.03686 -0.0662,-0.07594 -0.09766,-0.115235 -0.0049,-0.0061 -0.0108,-0.0114 -0.01563,-0.01758 -0.0238,-0.03046 -0.04635,-0.06197 -0.06836,-0.09375 C 30.132718,31.804563 30.001901,31.414165 30,31 c 0,-1.104569 0.895431,-2 2,-2 z"
     sodipodi:nodetypes="sccccccsscsscscsssssssscccccscsssssscsssssccs" />
</svg>
