<?xml version="1.0" encoding="UTF-8" standalone="no"?>
<svg
   viewbox="0 0 200 200"
   version="1.1"
   id="svg4"
   sodipodi:docname="klotski.svg"
   width="64"
   height="64"
   inkscape:version="1.1.1 (3bf5ae0d25, 2021-09-20, custom)"
   xmlns:inkscape="http://www.inkscape.org/namespaces/inkscape"
   xmlns:sodipodi="http://sodipodi.sourceforge.net/DTD/sodipodi-0.dtd"
   xmlns:xlink="http://www.w3.org/1999/xlink"
   xmlns="http://www.w3.org/2000/svg"
   xmlns:svg="http://www.w3.org/2000/svg">
  <defs
     id="defs8">
    <linearGradient
       inkscape:collect="always"
       id="linearGradient2892">
      <stop
         style="stop-color:#f5bc00;stop-opacity:1;"
         offset="0"
         id="stop2888" />
      <stop
         style="stop-color:#f5bc00;stop-opacity:0;"
         offset="1"
         id="stop2890" />
    </linearGradient>
    <radialGradient
       inkscape:collect="always"
       xlink:href="#linearGradient2892"
       id="radialGradient2894"
       cx="18.666664"
       cy="46.444439"
       fx="18.666664"
       fy="46.444439"
       r="30"
       gradientUnits="userSpaceOnUse"
       gradientTransform="matrix(2.4462215e-7,2.3333333,-2.1333337,1.9293349e-7,105.08147,-35.555564)" />
  </defs>
  <sodipodi:namedview
     id="namedview6"
     pagecolor="#ffffff"
     bordercolor="#666666"
     borderopacity="1.0"
     inkscape:pageshadow="2"
     inkscape:pageopacity="0.0"
     inkscape:pagecheckerboard="0"
     showgrid="false"
     inkscape:zoom="1"
     inkscape:cx="37"
     inkscape:cy="22.5"
     inkscape:window-width="1920"
     inkscape:window-height="996"
     inkscape:window-x="0"
     inkscape:window-y="0"
     inkscape:window-maximized="1"
     inkscape:current-layer="svg4"
     showguides="false" />
  <path
     d="M 2,32 C 2,10.4 10.4,2 32,2 53.6,2 62,10.4 62,32 62,53.6 53.6,62 32,62 10.4,62 2,53.6 2,32"
     id="path2"
     style="stroke-width:0.3;fill:#2096d5;fill-opacity:1" />
  <path
     id="rect1384"
     style="fill:url(#radialGradient2894);fill-opacity:1;stroke-width:2;stroke-linecap:round"
     d="M 32 2 C 10.4 2 2 10.4 2 32 C 2 53.6 10.4 62 32 62 C 53.6 62 62 53.6 62 32 C 62 10.4 53.6 2 32 2 z " />
  <path
     id="path3817"
     style="color:#000000;fill:#ffffff;fill-opacity:1;stroke:none;stroke-width:0.99356;stroke-linecap:round;stroke-linejoin:round;-inkscape-stroke:none"
     d="M 35 12 C 32.783999 12 31 13.783999 31 16 L 31 31 L 16 31 C 13.783999 31 12 32.783999 12 35 L 12 52 L 14 52 L 14 35 C 14 33.892 14.893706 33.061461 16 33 L 31 33 L 31 46 C 31 48.216 29.215999 50 27 50 L 18 50 L 18 52 L 27 52 C 30.324 52 32.902278 49.322563 33 46 L 33 33 L 48 33 C 50.216001 33 52 31.216001 52 29 L 52 18 L 50 18 L 50 29 C 50 30.108 49.106294 30.938539 48 31 L 33 31 L 33 16 C 33.061461 14.893706 33.892 14 35 14 L 52 14 L 52 12 L 35 12 z " />
  <path
     id="rect3750"
     style="fill:#ffffff;fill-opacity:1;stroke-width:2;stroke-linecap:round"
     d="m 16,14 c -1.108,0 -2,0.892 -2,2 v 8 c 0,1.108 0.892,2 2,2 h 8 c 1.108,0 2,-0.892 2,-2 v -8 c 0,-1.108 -0.892,-2 -2,-2 z m 0,2 h 8 v 8 h -8 z m 24,22 c -1.108,0 -2,0.892 -2,2 v 8 c 0,1.108 0.892,2 2,2 h 8 c 1.108,0 2,-0.892 2,-2 v -8 c 0,-1.108 -0.892,-2 -2,-2 z m 0,2 h 8 v 8 h -8 z"
     sodipodi:nodetypes="ssssssssscccccsssssssssccccc" />
</svg>
