<?xml version="1.0" encoding="UTF-8" standalone="no"?>
<svg
   viewbox="0 0 200 200"
   version="1.1"
   id="svg4"
   sodipodi:docname="preferences-desktop-mouse.svg"
   width="64"
   height="64"
   inkscape:version="1.1.1 (3bf5ae0d25, 2021-09-20, custom)"
   xmlns:inkscape="http://www.inkscape.org/namespaces/inkscape"
   xmlns:sodipodi="http://sodipodi.sourceforge.net/DTD/sodipodi-0.dtd"
   xmlns="http://www.w3.org/2000/svg"
   xmlns:svg="http://www.w3.org/2000/svg">
  <defs
     id="defs8" />
  <sodipodi:namedview
     id="namedview6"
     pagecolor="#ffffff"
     bordercolor="#666666"
     borderopacity="1.0"
     inkscape:pageshadow="2"
     inkscape:pageopacity="0.0"
     inkscape:pagecheckerboard="0"
     showgrid="false"
     inkscape:zoom="16"
     inkscape:cx="30.375"
     inkscape:cy="30.46875"
     inkscape:window-width="1920"
     inkscape:window-height="1000"
     inkscape:window-x="0"
     inkscape:window-y="0"
     inkscape:window-maximized="1"
     inkscape:current-layer="svg4"
     showguides="true" />
  <path
     d="M 2,32 C 2,10.4 10.4,2 32,2 53.6,2 62,10.4 62,32 62,53.6 53.6,62 32,62 10.4,62 2,53.6 2,32"
     id="path2"
     style="stroke-width:0.3;fill:#777c8f;fill-opacity:1" />
  <path
     id="rect3068"
     style="fill:#ffffff;fill-opacity:1;stroke-width:2;stroke-linecap:round;stroke-linejoin:round"
     d="M 30 12 C 23.352 12 18 17.352 18 24 L 18 40 C 18 46.648 23.352 52 30 52 L 34 52 C 40.648 52 46 46.648 46 40 L 46 24 C 46 17.689181 41.176118 12.55038 35 12.044922 L 35 14.048828 C 40.066973 14.547522 44 18.797624 44 24 L 44 40 C 44 45.54 39.54 50 34 50 L 30 50 C 24.46 50 20 45.54 20 40 L 20 24 C 20 18.46 24.46 14 30 14 L 31 14 L 31 26 C 31 26.554 31.446 27 32 27 C 32.554 27 33 26.554 33 26 L 33 14 L 33 12 L 30 12 z " />
</svg>
