<?xml version="1.0" encoding="UTF-8" standalone="no"?>
<svg
   viewbox="0 0 200 200"
   version="1.1"
   id="svg4"
   sodipodi:docname="knights.svg"
   width="64"
   height="64"
   inkscape:version="1.1.1 (3bf5ae0d25, 2021-09-20, custom)"
   xmlns:inkscape="http://www.inkscape.org/namespaces/inkscape"
   xmlns:sodipodi="http://sodipodi.sourceforge.net/DTD/sodipodi-0.dtd"
   xmlns:xlink="http://www.w3.org/1999/xlink"
   xmlns="http://www.w3.org/2000/svg"
   xmlns:svg="http://www.w3.org/2000/svg">
  <defs
     id="defs8">
    <linearGradient
       inkscape:collect="always"
       id="linearGradient1132">
      <stop
         style="stop-color:#df9b4a;stop-opacity:1"
         offset="0"
         id="stop1128" />
      <stop
         style="stop-color:#e9782f;stop-opacity:1"
         offset="1"
         id="stop1130" />
    </linearGradient>
    <linearGradient
       inkscape:collect="always"
       xlink:href="#linearGradient1132"
       id="linearGradient1134"
       x1="8"
       y1="4"
       x2="56"
       y2="58"
       gradientUnits="userSpaceOnUse" />
  </defs>
  <sodipodi:namedview
     id="namedview6"
     pagecolor="#ffffff"
     bordercolor="#666666"
     borderopacity="1.0"
     inkscape:pageshadow="2"
     inkscape:pageopacity="0.0"
     inkscape:pagecheckerboard="0"
     showgrid="false"
     inkscape:zoom="11.313709"
     inkscape:cx="38.802483"
     inkscape:cy="34.515648"
     inkscape:window-width="1920"
     inkscape:window-height="996"
     inkscape:window-x="0"
     inkscape:window-y="0"
     inkscape:window-maximized="1"
     inkscape:current-layer="svg4"
     showguides="false" />
  <path
     d="M 2,32 C 2,10.4 10.4,2 32,2 53.6,2 62,10.4 62,32 62,53.6 53.6,62 32,62 10.4,62 2,53.6 2,32"
     id="path2"
     style="stroke-width:0.3;fill:url(#linearGradient1134);fill-opacity:1;stroke:none" />
  <path
     style="color:#000000;fill:#f9f9f9;stroke:none;stroke-linecap:round;stroke-linejoin:round;-inkscape-stroke:none"
     d="m 28.855469,12.007813 c -0.566641,-0.02655 -1.041901,0.422993 -1.046875,0.990234 l -0.0059,3.630859 -9.453125,8.103516 c -0.341835,0.292985 -0.445766,0.778262 -0.253906,1.185547 l 1.974609,4.199218 c 0.219503,0.467194 0.758505,0.690579 1.244141,0.515625 l 4.316406,-1.55664 c 0.920844,0.890671 2.069107,1.505524 3.353516,1.505859 1.14235,-0.0015 2.14021,-0.466671 2.970703,-1.142578 v 0.251953 c -0.0024,1.685182 -0.78845,2.768945 -2.242187,3.132813 -0.713506,0.178671 -1.12633,0.146494 -1.78125,0.173828 -0.654921,0.02733 -1.484742,0.144201 -2.589844,0.623047 -3.378805,1.464344 -5.655789,4.639345 -5.65625,8.527343 -2.69e-4,0.250995 0.09385,0.492914 0.263672,0.677735 L 22.992187,46.125 c -2.001005,0.752268 -3.517578,2.602687 -3.517578,4.875 5.5e-5,0.552262 0.447738,0.999945 1,1 h 24.128907 c 0.552262,-5.5e-5 0.999945,-0.447738 1,-1 0,-2.308234 -1.295256,-4.057552 -3.013672,-4.822266 l 3.128906,-3.24414 C 45.898682,42.747571 45.999495,42.499039 46,42.240234 V 29.582031 c 0,-7.276869 -5.445038,-12.933224 -12.259766,-13.308594 -0.01561,-0.101622 -0.0059,-0.206001 -0.02734,-0.30664 v -0.002 C 33.211233,13.63835 31.117636,12.033941 28.855469,12.007813 Z m 0.951172,2.359375 c 0.910936,0.365328 1.732788,1.018955 1.949218,2.017578 0.05572,0.260995 0.08035,1.347072 0.07227,1.615234 l 1.214837,0.201137 C 39.105412,18.20331 44,23.070483 44,29.582031 V 41.835937 L 40.5,45.5 v 2 c 1.296629,0 2.566584,1.017937 2.935543,2.5 H 21.701172 C 22.174826,48.704955 23.543611,47.499723 25,47.5 v -2 l -3.267578,-3.689453 c 0.126081,-2.953164 1.774575,-5.21577 4.404297,-6.355469 0.906255,-0.392685 1.346727,-0.436773 1.878906,-0.458984 0.532179,-0.02221 1.223118,0.0081 2.183594,-0.232422 2.298574,-0.575329 3.752444,-2.657356 3.755859,-5.070313 v -0.002 -4.115234 l -1.998047,-0.06641 c -0.11995,1.79096 -1.393793,3.069224 -2.972656,3.072265 -0.91422,-2.38e-4 -1.785062,-0.439816 -2.375,-1.230469 -0.263838,-0.353394 -0.728017,-0.49225 -1.142578,-0.341796 l -3.972656,1.433593 -1.265625,-2.6875 9.224609,-7.90625 c 0.221401,-0.189587 0.349074,-0.466331 0.349609,-0.757812 z"
     id="path987"
     sodipodi:nodetypes="ccccccccccccscccccccccccsccccccccscccccccccscsccccccccccc" />
</svg>
