<?xml version="1.0" encoding="UTF-8" standalone="no"?>
<svg
   viewbox="0 0 200 200"
   version="1.1"
   id="svg4"
   sodipodi:docname="konsolekalendar.svg"
   width="64"
   height="64"
   inkscape:version="1.1.1 (3bf5ae0d25, 2021-09-20, custom)"
   xmlns:inkscape="http://www.inkscape.org/namespaces/inkscape"
   xmlns:sodipodi="http://sodipodi.sourceforge.net/DTD/sodipodi-0.dtd"
   xmlns="http://www.w3.org/2000/svg"
   xmlns:svg="http://www.w3.org/2000/svg">
  <defs
     id="defs8" />
  <sodipodi:namedview
     id="namedview6"
     pagecolor="#ffffff"
     bordercolor="#666666"
     borderopacity="1.0"
     inkscape:pageshadow="2"
     inkscape:pageopacity="0.0"
     inkscape:pagecheckerboard="0"
     showgrid="false"
     inkscape:zoom="12.53125"
     inkscape:cx="32.718204"
     inkscape:cy="32.718204"
     inkscape:window-width="1920"
     inkscape:window-height="1007"
     inkscape:window-x="0"
     inkscape:window-y="0"
     inkscape:window-maximized="1"
     inkscape:current-layer="svg4"
     showguides="true" />
  <path
     d="M 2,32 C 2,10.4 10.4,2 32,2 53.6,2 62,10.4 62,32 62,53.6 53.6,62 32,62 10.4,62 2,53.6 2,32"
     id="path2"
     style="stroke-width:0.3;fill:#3fbdcf;fill-opacity:1" />
  <path
     id="rect77557"
     style="fill:#ffffff;stroke-width:2;stroke-linejoin:round"
     d="M 22 11 L 22 14 L 12 14 L 12 16 L 24 16 L 24 11 L 22 11 z M 40 11 L 40 14 L 28 14 L 28 16 L 42 16 L 42 11 L 40 11 z M 46 14 L 46 16 L 52 16 L 52 14 L 46 14 z M 12 21 L 12 44 C 12 48.43201 15.567997 52 20 52 L 44 52 C 48.43201 52 52 48.43201 52 44 L 52 21 L 50 21 L 50 44 C 50 47.324 47.324 50 44 50 L 20 50 C 16.675996 50 14 47.324 14 44 L 14 21 L 12 21 z M 21.414062 26 L 20 27.414062 L 25.193359 32.607422 L 26.607422 31.193359 L 21.414062 26 z M 28.728516 33.314453 L 20 42.041016 L 21.414062 43.455078 L 30.142578 34.728516 L 28.728516 33.314453 z M 32 41 L 32 43 L 44 43 L 44 41 L 32 41 z " />
</svg>
