<?xml version="1.0" encoding="UTF-8" standalone="no"?>
<svg
   viewbox="0 0 200 200"
   version="1.1"
   id="svg4"
   sodipodi:docname="krdc.svg"
   width="64"
   height="64"
   inkscape:version="1.1.1 (3bf5ae0d25, 2021-09-20, custom)"
   xmlns:inkscape="http://www.inkscape.org/namespaces/inkscape"
   xmlns:sodipodi="http://sodipodi.sourceforge.net/DTD/sodipodi-0.dtd"
   xmlns="http://www.w3.org/2000/svg"
   xmlns:svg="http://www.w3.org/2000/svg">
  <defs
     id="defs8" />
  <sodipodi:namedview
     id="namedview6"
     pagecolor="#ffffff"
     bordercolor="#666666"
     borderopacity="1.0"
     inkscape:pageshadow="2"
     inkscape:pageopacity="0.0"
     inkscape:pagecheckerboard="0"
     showgrid="false"
     inkscape:zoom="8"
     inkscape:cx="36"
     inkscape:cy="39.125"
     inkscape:window-width="1920"
     inkscape:window-height="1007"
     inkscape:window-x="0"
     inkscape:window-y="0"
     inkscape:window-maximized="1"
     inkscape:current-layer="svg4"
     showguides="false" />
  <path
     d="M 2,32 C 2,10.4 10.4,2 32,2 53.6,2 62,10.4 62,32 62,53.6 53.6,62 32,62 10.4,62 2,53.6 2,32"
     id="path2"
     style="stroke-width:0.3;fill:#6190fa;fill-opacity:1" />
  <path
     id="rect1220"
     style="fill:#ffffff;stroke-width:2;stroke-linejoin:round"
     d="M 32 12 A 20 20 0 0 0 19.365234 16.537109 L 20.796875 17.96875 A 18 18 0 0 1 32 14 A 18 18 0 0 1 50 32 A 18 18 0 0 1 46.03125 43.203125 L 47.462891 44.634766 A 20 20 0 0 0 52 32 A 20 20 0 0 0 32 12 z M 16.537109 19.365234 A 20 20 0 0 0 12 32 A 20 20 0 0 0 32 52 A 20 20 0 0 0 44.634766 47.462891 L 43.203125 46.03125 A 18 18 0 0 1 32 50 A 18 18 0 0 1 14 32 A 18 18 0 0 1 17.96875 20.796875 L 16.537109 19.365234 z M 23.419922 21 L 22.005859 22.414062 L 29.076172 29.484375 L 22.005859 36.556641 L 23.419922 37.970703 L 30.490234 30.900391 A 2 2 0 0 0 30.490234 28.070312 L 23.419922 21 z M 40.076172 26.484375 L 33.003906 33.556641 A 2 2 0 0 0 33.003906 36.384766 L 40.076172 43.455078 L 41.490234 42.041016 L 34.419922 34.970703 L 41.490234 27.900391 L 40.076172 26.484375 z " />
</svg>
