<?xml version="1.0" encoding="UTF-8" standalone="no"?>
<svg
   viewbox="0 0 200 200"
   version="1.1"
   id="svg4"
   sodipodi:docname="kronometer.svg"
   width="64"
   height="64"
   inkscape:version="1.1.1 (3bf5ae0d25, 2021-09-20, custom)"
   xmlns:inkscape="http://www.inkscape.org/namespaces/inkscape"
   xmlns:sodipodi="http://sodipodi.sourceforge.net/DTD/sodipodi-0.dtd"
   xmlns="http://www.w3.org/2000/svg"
   xmlns:svg="http://www.w3.org/2000/svg">
  <defs
     id="defs8" />
  <sodipodi:namedview
     id="namedview6"
     pagecolor="#ffffff"
     bordercolor="#666666"
     borderopacity="1.0"
     inkscape:pageshadow="2"
     inkscape:pageopacity="0.0"
     inkscape:pagecheckerboard="0"
     showgrid="false"
     inkscape:zoom="3.869469"
     inkscape:cx="9.3036022"
     inkscape:cy="62.928531"
     inkscape:window-width="1920"
     inkscape:window-height="1000"
     inkscape:window-x="0"
     inkscape:window-y="0"
     inkscape:window-maximized="1"
     inkscape:current-layer="svg4"
     showguides="false" />
  <path
     d="M 2,32 C 2,10.4 10.4,2 32,2 53.6,2 62,10.4 62,32 62,53.6 53.6,62 32,62 10.4,62 2,53.6 2,32"
     id="path2"
     style="stroke-width:0.3;fill:#fafafa;fill-opacity:1" />
  <path
     id="rect1237"
     style="fill:#4b4b4b;fill-opacity:1;stroke-width:4;stroke-linecap:round;stroke-linejoin:round"
     d="M 17.535156 11.050781 L 9.0507812 19.535156 L 10.464844 20.949219 L 18.949219 12.464844 L 17.535156 11.050781 z M 32 13 A 19 19 0 0 0 13 32 A 19 19 0 0 0 32 51 A 19 19 0 0 0 51 32 A 19 19 0 0 0 39 14.341797 L 39 16.511719 A 17 17 0 0 1 49 32 A 17 17 0 0 1 32 49 A 17 17 0 0 1 15 32 A 17 17 0 0 1 32 15 A 17 17 0 0 1 33 15.03125 L 33 13.029297 A 19 19 0 0 0 32 13 z M 31 20 L 31 32 L 33 32 L 33 20 L 31 20 z " />
</svg>
