<?xml version="1.0" encoding="UTF-8" standalone="no"?>
<svg
   viewbox="0 0 200 200"
   version="1.1"
   id="svg4"
   sodipodi:docname="kvantum.svg"
   width="64"
   height="64"
   inkscape:version="1.1.1 (3bf5ae0d25, 2021-09-20, custom)"
   xmlns:inkscape="http://www.inkscape.org/namespaces/inkscape"
   xmlns:sodipodi="http://sodipodi.sourceforge.net/DTD/sodipodi-0.dtd"
   xmlns:xlink="http://www.w3.org/1999/xlink"
   xmlns="http://www.w3.org/2000/svg"
   xmlns:svg="http://www.w3.org/2000/svg">
  <defs
     id="defs8">
    <linearGradient
       inkscape:collect="always"
       id="linearGradient11127">
      <stop
         style="stop-color:#fae42f;stop-opacity:1"
         offset="0"
         id="stop11123" />
      <stop
         style="stop-color:#fae422;stop-opacity:0.94117647"
         offset="0.5"
         id="stop11195" />
      <stop
         style="stop-color:#fae42f;stop-opacity:0"
         offset="1"
         id="stop11125" />
    </linearGradient>
    <linearGradient
       inkscape:collect="always"
       id="linearGradient7945">
      <stop
         style="stop-color:#32a9f4;stop-opacity:1;"
         offset="0"
         id="stop7941" />
      <stop
         style="stop-color:#32a9f4;stop-opacity:0.60000002"
         offset="0.5"
         id="stop8910" />
      <stop
         style="stop-color:#32a9f4;stop-opacity:0;"
         offset="1"
         id="stop7943" />
    </linearGradient>
    <linearGradient
       inkscape:collect="always"
       id="linearGradient6212">
      <stop
         style="stop-color:#ffb25a;stop-opacity:1"
         offset="0"
         id="stop6208" />
      <stop
         style="stop-color:#ffb25a;stop-opacity:0.50196081"
         offset="0.5"
         id="stop6536" />
      <stop
         style="stop-color:#ffb25a;stop-opacity:0"
         offset="1"
         id="stop6210" />
    </linearGradient>
    <linearGradient
       inkscape:collect="always"
       id="linearGradient3695">
      <stop
         style="stop-color:#be3ce9;stop-opacity:1"
         offset="0"
         id="stop3691" />
      <stop
         style="stop-color:#be3ce9;stop-opacity:0.50196081"
         offset="0.5"
         id="stop3955" />
      <stop
         style="stop-color:#be3ce9;stop-opacity:0"
         offset="1"
         id="stop3693" />
    </linearGradient>
    <radialGradient
       inkscape:collect="always"
       xlink:href="#linearGradient3695"
       id="radialGradient3697"
       cx="-1.4092577"
       cy="55.554527"
       fx="-1.4092577"
       fy="55.554527"
       r="30"
       gradientUnits="userSpaceOnUse"
       gradientTransform="matrix(-0.66463655,0.78591697,-1.0490369,-0.88715255,79.14937,51.350237)" />
    <radialGradient
       inkscape:collect="always"
       xlink:href="#linearGradient6212"
       id="radialGradient6214"
       cx="32.31749"
       cy="35.957447"
       fx="32.31749"
       fy="35.957447"
       r="30"
       gradientUnits="userSpaceOnUse"
       gradientTransform="matrix(0.97347395,-1.1039003,0.67251718,0.59305885,-40.61149,73.319351)" />
    <radialGradient
       inkscape:collect="always"
       xlink:href="#linearGradient7945"
       id="radialGradient7947"
       cx="4.8273349"
       cy="29.936211"
       fx="4.8273349"
       fy="29.936211"
       r="30"
       gradientUnits="userSpaceOnUse"
       gradientTransform="matrix(-1.3507606,-1.5488561,1.1072914,-0.96567074,39.448149,70.932579)" />
    <radialGradient
       inkscape:collect="always"
       xlink:href="#linearGradient11127"
       id="radialGradient11129"
       cx="-6.7739997"
       cy="37.021408"
       fx="-6.7739997"
       fy="37.021408"
       r="30"
       gradientTransform="matrix(0.61319227,-0.72062853,0.76960319,0.65486537,15.832085,34.165494)"
       gradientUnits="userSpaceOnUse" />
  </defs>
  <sodipodi:namedview
     id="namedview6"
     pagecolor="#ffffff"
     bordercolor="#666666"
     borderopacity="1.0"
     inkscape:pageshadow="2"
     inkscape:pageopacity="0.0"
     inkscape:pagecheckerboard="0"
     showgrid="false"
     inkscape:zoom="1"
     inkscape:cx="20"
     inkscape:cy="45.5"
     inkscape:window-width="1920"
     inkscape:window-height="1000"
     inkscape:window-x="0"
     inkscape:window-y="0"
     inkscape:window-maximized="1"
     inkscape:current-layer="svg4"
     showguides="false" />
  <rect
     style="fill:#ffffff;stroke-width:2;stroke-linecap:round;stroke-linejoin:round"
     id="rect1503"
     width="7"
     height="2"
     x="21"
     y="26" />
  <path
     d="M 2,32 C 2,10.4 10.4,2 32,2 53.6,2 62,10.4 62,32 62,53.6 53.6,62 32,62 10.4,62 2,53.6 2,32"
     id="path2"
     style="stroke-width:0.3;fill:#f5466a;fill-opacity:1" />
  <path
     id="rect10140"
     style="fill:url(#radialGradient11129);fill-opacity:1;stroke-linecap:round;stroke-linejoin:round"
     d="M 32,2 C 10.4,2 2,10.4 2,31.999999 c 0,21.599992 8.4,30.000002 30,30.000002 21.6,0 30,-8.40001 30,-30.000002 C 62,10.4 53.6,2 32,2 Z" />
  <path
     id="rect5801"
     style="fill:url(#radialGradient6214);fill-opacity:1;stroke-linecap:round;stroke-linejoin:round"
     d="M 32,2 C 10.4,2 2,10.4 2,31.999999 c 0,21.6 8.4,30 30,30 21.6,0 30,-8.4 30,-30 C 62,10.4 53.6,2 32,2 Z" />
  <path
     id="rect7310"
     style="fill:url(#radialGradient7947);fill-opacity:1;stroke-linecap:round;stroke-linejoin:round"
     d="M 32,2 C 10.4,2 2,10.4 2,31.999999 c 0,21.6 8.4,30 30,30 21.6,0 30,-8.4 30,-30 C 62,10.4 53.6,2 32,2 Z" />
  <path
     id="rect3608"
     style="fill:url(#radialGradient3697);fill-opacity:1;stroke-linecap:round;stroke-linejoin:round"
     d="M 32,2 C 10.4,2 2,10.4 2,31.999999 c 0,21.6 8.4,30 30,30 21.6,0 30,-8.4 30,-30 C 62,10.4 53.6,2 32,2 Z" />
  <path
     id="path3817"
     style="color:#000000;fill:#ffffff;stroke:none;stroke-width:0.99356;stroke-linecap:round;stroke-linejoin:round;-inkscape-stroke:none"
     d="m 17,17 c -2.216001,0 -4,1.783999 -4,4 v 26 h 2 V 21 c 0,-1.108 0.893912,-2.065064 2,-2 h 34.000005 v -2 z m 32.000005,6 v 18 c 0,2.216 -1.790527,3.830041 -4,4 H 19 v 2 h 26.000005 c 3.32399,0 6,-2.676 6,-6 V 23 Z"
     sodipodi:nodetypes="ssccscccscssccsscc" />
  <path
     id="path1055-6"
     style="fill:#ffffff;stroke-width:1.5;stroke-linecap:round;stroke-linejoin:round"
     d="M 39 34 A 3 3 0 0 0 36 37 A 3 3 0 0 0 39 40 A 3 3 0 0 0 41.820312 38 L 45 38 L 45 36 L 41.828125 36 A 3 3 0 0 0 39 34 z M 19 36 L 19 38 L 34 38 L 34 36 L 19 36 z M 38 36 L 40 36 L 40 38 L 38 38 L 38 36 z " />
  <path
     id="rect1399"
     style="fill:#ffffff;stroke-width:1.92725;stroke-linecap:round;stroke-linejoin:round"
     d="M 26 24 A 3 3 0 0 0 23.179688 26 L 19 26 L 19 28 L 23.179688 28 A 3 3 0 0 0 26 30 A 3 3 0 0 0 29 27 A 3 3 0 0 0 26 24 z M 25 26 L 27 26 L 27 28 L 25 28 L 25 26 z M 31 26 L 31 28 L 45 28 L 45 26 L 31 26 z " />
</svg>
