<?xml version="1.0" encoding="UTF-8" standalone="no"?>
<svg
   viewbox="0 0 200 200"
   version="1.1"
   id="svg4"
   sodipodi:docname="latexila.svg"
   width="64"
   height="64"
   inkscape:version="1.1.1 (3bf5ae0d25, 2021-09-20, custom)"
   xmlns:inkscape="http://www.inkscape.org/namespaces/inkscape"
   xmlns:sodipodi="http://sodipodi.sourceforge.net/DTD/sodipodi-0.dtd"
   xmlns="http://www.w3.org/2000/svg"
   xmlns:svg="http://www.w3.org/2000/svg">
  <defs
     id="defs8" />
  <sodipodi:namedview
     id="namedview6"
     pagecolor="#ffffff"
     bordercolor="#666666"
     borderopacity="1.0"
     inkscape:pageshadow="2"
     inkscape:pageopacity="0.0"
     inkscape:pagecheckerboard="0"
     showgrid="false"
     inkscape:zoom="8"
     inkscape:cx="33"
     inkscape:cy="38.4375"
     inkscape:window-width="1920"
     inkscape:window-height="1000"
     inkscape:window-x="0"
     inkscape:window-y="0"
     inkscape:window-maximized="1"
     inkscape:current-layer="svg4"
     showguides="true" />
  <path
     d="M 2,32 C 2,10.4 10.4,2 32,2 53.6,2 62,10.4 62,32 62,53.6 53.6,62 32,62 10.4,62 2,53.6 2,32"
     id="path2"
     style="stroke-width:0.3;fill:#88c159;fill-opacity:1" />
  <path
     id="path857"
     style="color:#000000;fill:#ffffff;stroke:none;stroke-width:0.99356;stroke-linecap:round;stroke-linejoin:round;-inkscape-stroke:none"
     d="m 18,12 c -1.108,0 -2,0.892 -2,2 v 6 h -3 v 2 h 5 v -8 h 28.999664 v 21 l -6.111328,8.154297 1.576172,1.388672 6.535156,-8.789063 V 14 c 0,-1.108 -0.892,-2 -2,-2 z m -2,14 v 4 h -3 v 2 h 5 v -6 z m 0,10 v 4 h -3 v 2 h 5 v -6 z m 0,10 v 1.109375 C 16.0038,50.087881 18.619508,51.966459 20.890625,52 H 48.999664 V 50 H 21 c -1.662,0 -3,-1.338 -3,-3 v -1 z"
     sodipodi:nodetypes="ssccccccccccssscccccccccccccccccccsscc" />
  <path
     style="color:#000000;fill:#ffffff;stroke:none;stroke-linejoin:round;-inkscape-stroke:none"
     d="m 26.002204,23 c -0.823943,-2.37e-4 -1.294693,0.940114 -0.800781,1.599609 L 30.752204,32 25.201423,39.400391 C 24.707511,40.059886 25.178261,41.000237 26.002204,41 H 38 c 0.552262,-5.5e-5 0.999945,-0.447738 1,-1 v -2 h -2 v 1 h -8.997796 l 4.800781,-6.400391 c 0.266243,-0.355407 0.266243,-0.843811 0,-1.199218 L 28.002204,25 H 37 v 2 h 2 v -3 c -5.5e-5,-0.552262 -0.447738,-0.999945 -1,-1 z"
     id="path1185"
     sodipodi:nodetypes="cccccccccccccccccccc" />
</svg>
