<?xml version="1.0" encoding="UTF-8" standalone="no"?>
<svg
   viewbox="0 0 200 200"
   version="1.1"
   id="svg4"
   sodipodi:docname="libreoffice-math.svg"
   width="64"
   height="64"
   inkscape:version="1.1.1 (3bf5ae0d25, 2021-09-20, custom)"
   xmlns:inkscape="http://www.inkscape.org/namespaces/inkscape"
   xmlns:sodipodi="http://sodipodi.sourceforge.net/DTD/sodipodi-0.dtd"
   xmlns="http://www.w3.org/2000/svg"
   xmlns:svg="http://www.w3.org/2000/svg">
  <defs
     id="defs8" />
  <sodipodi:namedview
     id="namedview6"
     pagecolor="#ffffff"
     bordercolor="#666666"
     borderopacity="1.0"
     inkscape:pageshadow="2"
     inkscape:pageopacity="0.0"
     inkscape:pagecheckerboard="0"
     showgrid="false"
     inkscape:zoom="6.4416667"
     inkscape:cx="6.9857697"
     inkscape:cy="39.818887"
     inkscape:window-width="1920"
     inkscape:window-height="996"
     inkscape:window-x="0"
     inkscape:window-y="0"
     inkscape:window-maximized="1"
     inkscape:current-layer="svg4"
     showguides="false" />
  <path
     d="M 2,32 C 2,10.4 10.4,2 32,2 53.6,2 62,10.4 62,32 62,53.6 53.6,62 32,62 10.4,62 2,53.6 2,32"
     id="path2"
     style="stroke-width:0.3;fill:#54738b;fill-opacity:1" />
  <path
     id="rect843"
     style="fill:#ffffff;stroke-width:4;stroke-linecap:round;stroke-linejoin:round"
     d="M 30.347656 9.9980469 C 30.316136 9.9986022 30.300781 10 30.300781 10 L 17 10 C 15.892 10 15 10.892 15 12 L 15 54 L 17 54 L 17 12 L 30.300781 12 C 30.300781 12 30.812407 11.9911 31.302734 12.447266 L 43.638672 24.585938 L 45.052734 23.171875 L 32.697266 11.025391 C 31.524848 10.040267 30.568301 9.9941596 30.347656 9.9980469 z M 37.5 10 L 37.5 12 L 45 12 C 46.108 12.000001 47 12.892001 47 14 L 47 46 C 47 49.324 44.292657 51.978923 41 52 L 20 52 L 20 54 L 41 54 C 45.432 54 49 50.432 49 46 L 49 14 C 49 11.783999 47.216001 10 45 10 L 37.5 10 z M 29 29 L 24.5 39.5 L 22.119141 35.556641 L 20.386719 36.556641 L 25 44 L 30.527344 31 L 43 31 L 43 29 L 29 29 z M 32.171875 33.757812 L 30.757812 35.171875 L 33.171875 37.585938 L 34.585938 36.171875 L 32.171875 33.757812 z M 39.828125 33.757812 L 30.757812 42.828125 L 32.171875 44.242188 L 36 40.414062 L 39.828125 44.242188 L 41.242188 42.828125 L 37.414062 39 L 41.242188 35.171875 L 39.828125 33.757812 z " />
</svg>
