<?xml version="1.0" encoding="UTF-8" standalone="no"?>
<svg
   viewbox="0 0 200 200"
   version="1.1"
   id="svg4"
   sodipodi:docname="libreoffice-base.svg"
   width="64"
   height="64"
   inkscape:version="1.1.1 (3bf5ae0d25, 2021-09-20, custom)"
   xmlns:inkscape="http://www.inkscape.org/namespaces/inkscape"
   xmlns:sodipodi="http://sodipodi.sourceforge.net/DTD/sodipodi-0.dtd"
   xmlns="http://www.w3.org/2000/svg"
   xmlns:svg="http://www.w3.org/2000/svg">
  <defs
     id="defs8" />
  <sodipodi:namedview
     id="namedview6"
     pagecolor="#ffffff"
     bordercolor="#666666"
     borderopacity="1.0"
     inkscape:pageshadow="2"
     inkscape:pageopacity="0.0"
     inkscape:pagecheckerboard="0"
     showgrid="false"
     inkscape:zoom="12.883333"
     inkscape:cx="31.979301"
     inkscape:cy="32.018111"
     inkscape:window-width="1920"
     inkscape:window-height="996"
     inkscape:window-x="0"
     inkscape:window-y="0"
     inkscape:window-maximized="1"
     inkscape:current-layer="svg4"
     showguides="false" />
  <path
     d="M 2,32 C 2,10.4 10.4,2 32,2 53.6,2 62,10.4 62,32 62,53.6 53.6,62 32,62 10.4,62 2,53.6 2,32"
     id="path2"
     style="stroke-width:0.3;fill:#ae31ad;fill-opacity:1" />
  <path
     id="rect843"
     style="fill:#ffffff;stroke-width:4;stroke-linecap:round;stroke-linejoin:round"
     d="M 30.347656 9.9980469 C 30.316136 9.9986022 30.300781 10 30.300781 10 L 17 10 C 15.892 10 15 10.892 15 12 L 15 54 L 17 54 L 17 12 L 30.300781 12 C 30.300781 12 30.812407 11.9911 31.302734 12.447266 L 43.638672 24.585938 L 45.052734 23.171875 L 32.697266 11.025391 C 31.524848 10.040267 30.568301 9.9941596 30.347656 9.9980469 z M 37.5 10 L 37.5 12 L 45 12 C 46.108 12.000001 47 12.892001 47 14 L 47 46 C 47 49.324 44.292657 51.978923 41 52 L 20 52 L 20 54 L 41 54 C 45.432 54 49 50.432 49 46 L 49 14 C 49 11.783999 47.216001 10 45 10 L 37.5 10 z M 32 28 A 6.9863533 4 0 0 0 25.013672 32 A 6.9863533 4 0 0 0 32 36 A 6.9863533 4 0 0 0 38.986328 32 A 6.9863533 4 0 0 0 32 28 z M 32 29.5 A 5.4338303 2.5 0 0 1 37.433594 32 A 5.4338303 2.5 0 0 1 32 34.5 A 5.4338303 2.5 0 0 1 26.566406 32 A 5.4338303 2.5 0 0 1 32 29.5 z M 38.861328 34.25 C 38.296183 35.956308 35.840295 37.276575 32.787109 37.472656 C 32.782609 37.47295 32.777988 37.474309 32.773438 37.474609 A 5.4338303 2.5 0 0 1 32.763672 37.474609 C 32.51257 37.490212 32.258383 37.5 32 37.5 C 31.741617 37.5 31.487438 37.490299 31.236328 37.474609 C 31.233228 37.47442 31.229663 37.474801 31.226562 37.474609 A 5.4338303 2.5 0 0 1 31.212891 37.472656 C 28.172679 37.277454 25.725215 35.967289 25.146484 34.271484 A 6.9863533 4 0 0 0 25.013672 35 A 6.9863533 4 0 0 0 32 39 A 6.9863533 4 0 0 0 38.986328 35 A 6.9863533 4 0 0 0 38.861328 34.25 z M 38.847656 37.25 C 38.282511 38.956308 35.826622 40.276575 32.773438 40.472656 C 32.768836 40.472949 32.764316 40.474309 32.759766 40.474609 A 5.4338303 2.5 0 0 1 32.75 40.474609 C 32.498892 40.490209 32.244711 40.5 31.986328 40.5 C 31.727945 40.5 31.473766 40.490299 31.222656 40.474609 C 31.219556 40.474421 31.215991 40.474801 31.212891 40.474609 A 5.4338303 2.5 0 0 1 31.199219 40.472656 C 28.159002 40.277455 25.711545 38.967289 25.132812 37.271484 A 6.9863533 4 0 0 0 25 38 A 6.9863533 4 0 0 0 31.986328 42 A 6.9863533 4 0 0 0 38.972656 38 A 6.9863533 4 0 0 0 38.847656 37.25 z M 38.875 40.251953 C 38.309855 41.958261 35.853967 43.278528 32.800781 43.474609 C 32.796181 43.474903 32.791659 43.476263 32.787109 43.476562 A 5.4338303 2.5 0 0 1 32.777344 43.476562 C 32.526235 43.492162 32.272056 43.501953 32.013672 43.501953 C 31.755289 43.501953 31.50111 43.492252 31.25 43.476562 C 31.2469 43.476374 31.243334 43.476755 31.240234 43.476562 A 5.4338303 2.5 0 0 1 31.226562 43.474609 C 28.186357 43.279411 25.738887 41.969243 25.160156 40.273438 A 6.9863533 4 0 0 0 25.027344 41.001953 A 6.9863533 4 0 0 0 32.013672 45.001953 A 6.9863533 4 0 0 0 39 41.001953 A 6.9863533 4 0 0 0 38.875 40.251953 z " />
</svg>
