<?xml version="1.0" encoding="UTF-8" standalone="no"?>
<svg
   viewbox="0 0 200 200"
   version="1.1"
   id="svg4"
   sodipodi:docname="libreoffice-impress.svg"
   width="64"
   height="64"
   inkscape:version="1.1.1 (3bf5ae0d25, 2021-09-20, custom)"
   xmlns:inkscape="http://www.inkscape.org/namespaces/inkscape"
   xmlns:sodipodi="http://sodipodi.sourceforge.net/DTD/sodipodi-0.dtd"
   xmlns="http://www.w3.org/2000/svg"
   xmlns:svg="http://www.w3.org/2000/svg">
  <defs
     id="defs8" />
  <sodipodi:namedview
     id="namedview6"
     pagecolor="#ffffff"
     bordercolor="#666666"
     borderopacity="1.0"
     inkscape:pageshadow="2"
     inkscape:pageopacity="0.0"
     inkscape:pagecheckerboard="0"
     showgrid="false"
     inkscape:zoom="6.0390625"
     inkscape:cx="37.588616"
     inkscape:cy="59.19793"
     inkscape:window-width="1920"
     inkscape:window-height="996"
     inkscape:window-x="0"
     inkscape:window-y="0"
     inkscape:window-maximized="1"
     inkscape:current-layer="svg4"
     showguides="false" />
  <path
     d="M 2,32 C 2,10.4 10.4,2 32,2 53.6,2 62,10.4 62,32 62,53.6 53.6,62 32,62 10.4,62 2,53.6 2,32"
     id="path2"
     style="stroke-width:0.3;fill:#f17700;fill-opacity:1" />
  <path
     id="rect843"
     style="fill:#ffffff;stroke-width:4;stroke-linecap:round;stroke-linejoin:round"
     d="M 30.347656 9.9980469 C 30.316136 9.9986022 30.300781 10 30.300781 10 L 17 10 C 15.892 10 15 10.892 15 12 L 15 54 L 17 54 L 17 12 L 30.300781 12 C 30.300781 12 30.812407 11.9911 31.302734 12.447266 L 43.638672 24.585938 L 45.052734 23.171875 L 32.697266 11.025391 C 31.524848 10.040267 30.568301 9.9941596 30.347656 9.9980469 z M 37.5 10 L 37.5 12 L 45 12 C 46.108 12.000001 47 12.892001 47 14 L 47 46 C 47 49.324 44.292657 51.978923 41 52 L 20 52 L 20 54 L 41 54 C 45.432 54 49 50.432 49 46 L 49 14 C 49 11.783999 47.216001 10 45 10 L 37.5 10 z M 26 31 A 4 4 0 0 0 22 35 A 4 4 0 0 0 26 39 A 4 4 0 0 0 30 35 L 28 35 A 2 2 0 0 1 26 37 A 2 2 0 0 1 24 35 A 2 2 0 0 1 26 33 L 26 31 z M 32 31 L 32 33 L 42 33 L 42 31 L 32 31 z M 32 36 L 32 38 L 42 38 L 42 36 L 32 36 z M 22 41 L 22 43 L 42 43 L 42 41 L 22 41 z M 22 46 L 22 48 L 42 48 L 42 46 L 22 46 z " />
</svg>
