<?xml version="1.0" encoding="UTF-8" standalone="no"?>
<svg
   viewbox="0 0 200 200"
   version="1.1"
   id="svg4"
   sodipodi:docname="libreoffice-draw.svg"
   width="64"
   height="64"
   inkscape:version="1.1.1 (3bf5ae0d25, 2021-09-20, custom)"
   xmlns:inkscape="http://www.inkscape.org/namespaces/inkscape"
   xmlns:sodipodi="http://sodipodi.sourceforge.net/DTD/sodipodi-0.dtd"
   xmlns="http://www.w3.org/2000/svg"
   xmlns:svg="http://www.w3.org/2000/svg">
  <defs
     id="defs8" />
  <sodipodi:namedview
     id="namedview6"
     pagecolor="#ffffff"
     bordercolor="#666666"
     borderopacity="1.0"
     inkscape:pageshadow="2"
     inkscape:pageopacity="0.0"
     inkscape:pagecheckerboard="0"
     showgrid="false"
     inkscape:zoom="12.883333"
     inkscape:cx="31.979301"
     inkscape:cy="32.018111"
     inkscape:window-width="1920"
     inkscape:window-height="996"
     inkscape:window-x="0"
     inkscape:window-y="0"
     inkscape:window-maximized="1"
     inkscape:current-layer="svg4"
     showguides="false" />
  <path
     d="M 2,32 C 2,10.4 10.4,2 32,2 53.6,2 62,10.4 62,32 62,53.6 53.6,62 32,62 10.4,62 2,53.6 2,32"
     id="path2"
     style="stroke-width:0.3;fill:#f0c12e;fill-opacity:1" />
  <path
     id="rect843"
     style="fill:#ffffff;stroke-width:4;stroke-linecap:round;stroke-linejoin:round"
     d="M 30.347656 9.9980469 C 30.316136 9.9986022 30.300781 10 30.300781 10 L 17 10 C 15.892 10 15 10.892 15 12 L 15 54 L 17 54 L 17 12 L 30.300781 12 C 30.300781 12 30.812407 11.9911 31.302734 12.447266 L 43.638672 24.585938 L 45.052734 23.171875 L 32.697266 11.025391 C 31.524848 10.040267 30.568301 9.9941596 30.347656 9.9980469 z M 37.5 10 L 37.5 12 L 45 12 C 46.108 12.000001 47 12.892001 47 14 L 47 46 C 47 49.324 44.292657 51.978923 41 52 L 20 52 L 20 54 L 41 54 C 45.432 54 49 50.432 49 46 L 49 14 C 49 11.783999 47.216001 10 45 10 L 37.5 10 z M 28 28 C 24.686292 28 22 30.686292 22 34 C 22.0046 36.409191 23.449814 38.58198 25.669922 39.517578 L 26.628906 37.755859 C 25.050915 37.180084 24.000762 35.679754 24 34 C 24 31.790861 25.790861 30 28 30 C 29.014541 30 29.941278 30.377353 30.646484 31 L 33.195312 31 C 32.158049 29.206897 30.220538 28 28 28 z M 31.917969 33 L 33 35 L 33.869141 35 L 33.908203 35 L 40 35 L 40 43 L 35.957031 43 L 31.876953 35.521484 C 31.701924 35.200406 31.365734 35.000434 31 35 C 30.633566 34.999719 30.296458 35.199791 30.121094 35.521484 L 24.121094 46.521484 C 23.758275 47.18741 24.239597 47.999019 24.998047 48 L 37.001953 48 C 37.760403 47.999019 38.241725 47.187411 37.878906 46.521484 L 37.048828 45 L 40 45 C 41.108 45 42 44.108 42 43 L 42 35 C 42 33.892 41.108 33 40 33 L 33.916016 33 L 31.917969 33 z M 31 38.087891 L 33.679688 43 L 34.771484 45 L 35.316406 46 L 26.683594 46 L 31 38.087891 z " />
</svg>
