<?xml version="1.0" encoding="UTF-8" standalone="no"?>
<svg
   viewbox="0 0 200 200"
   version="1.1"
   id="svg4"
   sodipodi:docname="libreoffice-chart.svg"
   width="64"
   height="64"
   inkscape:version="1.1.1 (3bf5ae0d25, 2021-09-20, custom)"
   xmlns:inkscape="http://www.inkscape.org/namespaces/inkscape"
   xmlns:sodipodi="http://sodipodi.sourceforge.net/DTD/sodipodi-0.dtd"
   xmlns="http://www.w3.org/2000/svg"
   xmlns:svg="http://www.w3.org/2000/svg">
  <defs
     id="defs8" />
  <sodipodi:namedview
     id="namedview6"
     pagecolor="#ffffff"
     bordercolor="#666666"
     borderopacity="1.0"
     inkscape:pageshadow="2"
     inkscape:pageopacity="0.0"
     inkscape:pagecheckerboard="0"
     showgrid="false"
     inkscape:zoom="12.078125"
     inkscape:cx="31.958603"
     inkscape:cy="32"
     inkscape:window-width="1920"
     inkscape:window-height="996"
     inkscape:window-x="0"
     inkscape:window-y="0"
     inkscape:window-maximized="1"
     inkscape:current-layer="svg4"
     showguides="false" />
  <path
     d="M 2,32 C 2,10.4 10.4,2 32,2 53.6,2 62,10.4 62,32 62,53.6 53.6,62 32,62 10.4,62 2,53.6 2,32"
     id="path2"
     style="stroke-width:0.3;fill:#a57435;fill-opacity:1" />
  <path
     id="rect843"
     style="fill:#ffffff;stroke-width:4;stroke-linecap:round;stroke-linejoin:round"
     d="M 30.347656,9.9980469 C 30.316136,9.9986022 30.300781,10 30.300781,10 H 17 c -1.108,0 -2,0.892 -2,2 v 42 h 2 V 12 h 13.300781 c 0,0 0.511626,-0.0089 1.001953,0.447266 L 43.638672,24.585938 45.052734,23.171875 32.697266,11.025391 C 31.524848,10.040267 30.568301,9.9941596 30.347656,9.9980469 Z M 37.5,10 v 2 H 45 c 1.108,10e-7 2,0.892001 2,2 v 32 c 0,3.324 -2.707343,5.978923 -6,6 H 20 v 2 h 21 c 4.432,0 8,-3.568 8,-8 V 14 c 0,-2.216001 -1.783999,-4 -4,-4 z m -1,28 v 6 h 2 v -6 z m -4,-4 v 10 h 2 V 34 Z m -4,-4 v 14 h 2 V 30 Z m -4,6 v 8 h 2 v -8 z"
     sodipodi:nodetypes="scssccccccccsccssscccssssccccccccccccccccccccc" />
</svg>
