<?xml version="1.0" encoding="UTF-8" standalone="no"?>
<svg
   viewbox="0 0 200 200"
   version="1.1"
   id="svg4"
   sodipodi:docname="linuxmint.svg"
   width="64"
   height="64"
   inkscape:version="1.1.1 (3bf5ae0d25, 2021-09-20, custom)"
   xmlns:inkscape="http://www.inkscape.org/namespaces/inkscape"
   xmlns:sodipodi="http://sodipodi.sourceforge.net/DTD/sodipodi-0.dtd"
   xmlns="http://www.w3.org/2000/svg"
   xmlns:svg="http://www.w3.org/2000/svg">
  <defs
     id="defs8" />
  <sodipodi:namedview
     id="namedview6"
     pagecolor="#ffffff"
     bordercolor="#666666"
     borderopacity="1.0"
     inkscape:pageshadow="2"
     inkscape:pageopacity="0.0"
     inkscape:pagecheckerboard="0"
     showgrid="false"
     inkscape:zoom="1"
     inkscape:cx="9"
     inkscape:cy="37.5"
     inkscape:window-width="1920"
     inkscape:window-height="1000"
     inkscape:window-x="0"
     inkscape:window-y="0"
     inkscape:window-maximized="1"
     inkscape:current-layer="svg4"
     showguides="true" />
  <path
     d="M 2,32 C 2,10.4 10.4,2 32,2 53.6,2 62,10.4 62,32 62,53.6 53.6,62 32,62 10.4,62 2,53.6 2,32"
     id="path2"
     style="stroke-width:0.3;fill:#69b73f;fill-opacity:1" />
  <path
     id="path924"
     style="fill:#ffffff;stroke-width:2.10526;stroke-linecap:round;stroke-linejoin:round"
     d="M 32 12 A 20 20 0 0 0 12 32 A 20 20 0 0 0 32 52 A 20 20 0 0 0 52 32 A 20 20 0 0 0 32 12 z M 32 14 A 18 18 0 0 1 50 32 A 18 18 0 0 1 32 50 A 18 18 0 0 1 14 32 A 18 18 0 0 1 32 14 z " />
  <path
     id="rect1079"
     style="fill:#ffffff;stroke-width:1.92725;stroke-linecap:round;stroke-linejoin:round"
     d="M 22 23 L 22 36 C 22 38.77 24.23 41 27 41 L 37 41 C 39.77 41 42 38.77 42 36 L 42 30 C 42 27.790861 40.209139 26 38 26 C 36.851498 26.000803 35.758752 26.495242 35 27.357422 C 34.241248 26.495242 33.148502 26.000803 32 26 C 29.790861 26 28 27.790861 28 30 L 28 36 L 30 36 L 30 30 C 30 28.895431 30.895431 28 32 28 C 33.104569 28 34 28.895431 34 30 L 34 36 L 36 36 L 36 30 C 36 28.895431 36.895431 28 38 28 C 39.104569 28 40 28.895431 40 30 L 40 36 C 40 37.662 38.662 39 37 39 L 27 39 C 25.338 39 24 37.662 24 36 L 24 23 L 22 23 z " />
</svg>
