<?xml version="1.0" encoding="UTF-8" standalone="no"?>
<svg
   viewbox="0 0 200 200"
   version="1.1"
   id="svg4"
   sodipodi:docname="mintupdate.svg"
   width="64"
   height="64"
   inkscape:version="1.1.1 (3bf5ae0d25, 2021-09-20, custom)"
   xmlns:inkscape="http://www.inkscape.org/namespaces/inkscape"
   xmlns:sodipodi="http://sodipodi.sourceforge.net/DTD/sodipodi-0.dtd"
   xmlns="http://www.w3.org/2000/svg"
   xmlns:svg="http://www.w3.org/2000/svg">
  <defs
     id="defs8" />
  <sodipodi:namedview
     id="namedview6"
     pagecolor="#ffffff"
     bordercolor="#666666"
     borderopacity="1.0"
     inkscape:pageshadow="2"
     inkscape:pageopacity="0.0"
     inkscape:pagecheckerboard="0"
     showgrid="false"
     inkscape:zoom="12.140625"
     inkscape:cx="31.958816"
     inkscape:cy="32"
     inkscape:window-width="1920"
     inkscape:window-height="1000"
     inkscape:window-x="0"
     inkscape:window-y="0"
     inkscape:window-maximized="1"
     inkscape:current-layer="svg4"
     showguides="false" />
  <path
     d="M 2,32 C 2,10.4 10.4,2 32,2 53.6,2 62,10.4 62,32 62,53.6 53.6,62 32,62 10.4,62 2,53.6 2,32"
     id="path2"
     style="stroke-width:0.3;fill:#e95420;fill-opacity:1" />
  <path
     id="rect924"
     style="fill:#ffffff;stroke-width:1.79505;stroke-linecap:round;stroke-linejoin:round"
     d="M 19 13 C 17.892 13 17 13.892 17 15 L 17 44 C 17 47.865993 20.134007 51 24 51 L 29 51 L 29 49 L 24 49 C 21.238576 49 19 46.761424 19 44 L 19 15 L 47 15 L 47 13 L 19 13 z M 45 18 L 45 29 L 47 29 L 47 18 L 45 18 z M 44 33 A 2 2 0 0 0 42 35 L 42 35.292969 L 42 40 L 44 40 L 44 36.257812 C 45.841986 37.540808 46.999608 39.664926 47 42 C 47 45.865993 43.865993 49 40 49 C 36.134007 49 33 45.865993 33 42 C 33.0048 38.908375 35.037245 36.186053 38 35.302734 L 38 33.248047 C 33.913385 34.179459 31.01072 37.8086 31 42 C 31 46.970563 35.029437 51 40 51 C 44.970563 51 49 46.970563 49 42 C 48.998938 39.209322 47.71507 36.666203 45.652344 35 L 49 35 L 49 33 L 44 33 z " />
</svg>
