<?xml version="1.0" encoding="UTF-8" standalone="no"?>
<svg
   viewbox="0 0 200 200"
   version="1.1"
   id="svg4"
   sodipodi:docname="lollypop.svg"
   width="64"
   height="64"
   inkscape:version="1.1.1 (3bf5ae0d25, 2021-09-20, custom)"
   xmlns:inkscape="http://www.inkscape.org/namespaces/inkscape"
   xmlns:sodipodi="http://sodipodi.sourceforge.net/DTD/sodipodi-0.dtd"
   xmlns:xlink="http://www.w3.org/1999/xlink"
   xmlns="http://www.w3.org/2000/svg"
   xmlns:svg="http://www.w3.org/2000/svg">
  <defs
     id="defs8">
    <linearGradient
       inkscape:collect="always"
       id="linearGradient3123">
      <stop
         style="stop-color:#fe7fb8;stop-opacity:1;"
         offset="0"
         id="stop3119" />
      <stop
         style="stop-color:#fe7fb8;stop-opacity:0;"
         offset="1"
         id="stop3121" />
    </linearGradient>
    <radialGradient
       inkscape:collect="always"
       xlink:href="#linearGradient3123"
       id="radialGradient3125"
       cx="10"
       cy="8"
       fx="10"
       fy="8"
       r="30"
       gradientUnits="userSpaceOnUse"
       gradientTransform="matrix(-4.6933328e-8,1.7333334,-2.1333334,3.3737395e-8,27.066667,-9.3333346)" />
  </defs>
  <sodipodi:namedview
     id="namedview6"
     pagecolor="#ffffff"
     bordercolor="#666666"
     borderopacity="1.0"
     inkscape:pageshadow="2"
     inkscape:pageopacity="0.0"
     inkscape:pagecheckerboard="0"
     showgrid="false"
     inkscape:zoom="12.95"
     inkscape:cx="31.969112"
     inkscape:cy="32.007722"
     inkscape:window-width="1920"
     inkscape:window-height="1000"
     inkscape:window-x="0"
     inkscape:window-y="0"
     inkscape:window-maximized="1"
     inkscape:current-layer="svg4"
     showguides="false" />
  <path
     id="rect1794"
     style="fill:#e35273;fill-opacity:1;stroke-width:2;stroke-linecap:round;stroke-linejoin:round"
     d="M 32 2 C 10.4 2 2 10.4 2 32 C 2 53.6 10.4 62 32 62 C 53.6 62 62 53.6 62 32 C 62 10.4 53.6 2 32 2 z " />
  <path
     d="M 2,32 C 2,10.4 10.4,2 32,2 53.6,2 62,10.4 62,32 62,53.6 53.6,62 32,62 10.4,62 2,53.6 2,32"
     id="path2"
     style="stroke-width:0.3;fill:url(#radialGradient3125);fill-opacity:1" />
  <path
     id="path2885"
     style="fill:#ffffff;fill-opacity:1;stroke-width:4;stroke-linecap:round;stroke-linejoin:round"
     d="M 32 12 A 20 20 0 0 0 12 32 A 20 20 0 0 0 32 52 A 20 20 0 0 0 39.542969 50.478516 L 38.144531 48.878906 A 18 18 0 0 1 32 50 A 18 18 0 0 1 14 32 A 18 18 0 0 1 32 14 A 18 18 0 0 1 50 32 A 18 18 0 0 1 47.072266 41.75 L 48.431641 43.337891 A 20 20 0 0 0 52 32 A 20 20 0 0 0 32 12 z " />
  <path
     d="m 26.941406,23 -0.939453,1.771485 11.246094,6.912109 c 0.334591,0.189778 0.334591,0.665692 0,0.855469 L 28.75,38.462891 c -0.333099,0.187831 -0.749519,-0.049 -0.75,-0.427735 v -9.80664 h -2 v 10.792969 c -5.02e-4,1.524228 1.674195,2.47487 3.007812,1.707031 l 9.998047,-6.91211 c 1.324859,-0.761664 1.324859,-2.650445 0,-3.412109 z"
     style="fill:#ffffff;stroke-width:4;stroke-linecap:round;stroke-linejoin:round"
     id="path847" />
</svg>
