<?xml version="1.0" encoding="UTF-8" standalone="no"?>
<svg
   viewbox="0 0 200 200"
   version="1.1"
   id="svg4"
   sodipodi:docname="manjaro-settings.svg"
   width="64"
   height="64"
   inkscape:version="1.1.1 (3bf5ae0d25, 2021-09-20, custom)"
   xmlns:inkscape="http://www.inkscape.org/namespaces/inkscape"
   xmlns:sodipodi="http://sodipodi.sourceforge.net/DTD/sodipodi-0.dtd"
   xmlns="http://www.w3.org/2000/svg"
   xmlns:svg="http://www.w3.org/2000/svg">
  <defs
     id="defs8" />
  <sodipodi:namedview
     id="namedview6"
     pagecolor="#ffffff"
     bordercolor="#666666"
     borderopacity="1.0"
     inkscape:pageshadow="2"
     inkscape:pageopacity="0.0"
     inkscape:pagecheckerboard="0"
     showgrid="false"
     inkscape:zoom="12.883333"
     inkscape:cx="31.979302"
     inkscape:cy="32.018112"
     inkscape:window-width="1920"
     inkscape:window-height="996"
     inkscape:window-x="0"
     inkscape:window-y="0"
     inkscape:window-maximized="1"
     inkscape:current-layer="svg4"
     showguides="false" />
  <path
     d="M 2,32 C 2,10.4 10.4,2 32,2 53.6,2 62,10.4 62,32 62,53.6 53.6,62 32,62 10.4,62 2,53.6 2,32"
     id="path2"
     style="stroke-width:0.3;fill:#34be5b;fill-opacity:1" />
  <path
     id="path7448"
     style="color:#000000;fill:#ffffff;stroke:none;stroke-linecap:round;stroke-linejoin:round;-inkscape-stroke:none"
     d="m 29,11 c -0.838002,-5.3e-5 -1.587198,0.52228 -1.876953,1.308594 l -1.591797,4.320312 -3.609375,2.083985 -4.537109,-0.78125 C 16.55886,17.789096 15.731665,18.176575 15.3125,18.902344 l -3,5.195312 c -0.418674,0.725691 -0.340719,1.635415 0.195312,2.279297 l 2.947266,3.539063 v 4.167968 l -2.947266,3.539063 1.53711,1.279297 3.410156,-4.095703 v -5.613282 l -3.410156,-4.095703 3,-5.195312 5.25,0.904297 L 27.158203,18 29,13 h 6 l 1.841797,5 4.863281,2.806641 5.25,-0.904297 -0.339844,-1.970703 -4.537109,0.78125 -3.609375,-2.083985 -1.591797,-4.320312 C 36.587198,11.52228 35.838002,10.999947 35,11 Z m 20.955078,14.097656 -3.410156,4.095703 v 5.613282 l 3.410156,4.095703 -3,5.195312 -5.25,-0.904297 L 36.841797,46 35,51 h -6 l -1.841797,-5 -4.863281,-2.806641 -5.25,0.904297 0.339844,1.970703 4.537109,-0.78125 3.609375,2.083985 1.591797,4.320312 C 27.412802,52.47772 28.161998,53.000053 29,53 h 6 c 0.838002,5.3e-5 1.587198,-0.52228 1.876953,-1.308594 l 1.591797,-4.320312 3.609375,-2.083985 4.537109,0.78125 c 0.825906,0.142545 1.653101,-0.244934 2.072266,-0.970703 l 3,-5.195312 c 0.418674,-0.725691 0.340718,-1.635415 -0.195312,-2.279297 l -2.947266,-3.539063 v -4.167968 l 2.947266,-3.539063 z"
     sodipodi:nodetypes="cccccccccccccccccccccccccccccccccccccccccccccccccccccccccc" />
  <path
     id="rect4711"
     style="fill:#ffffff;fill-opacity:1;stroke-width:4;stroke-linecap:round;stroke-linejoin:round"
     d="m 24,24 v 16 h 4 V 24 Z m 6,0 v 4 h 4 2 v 12 h 4 V 24 Z m 0,6 v 10 h 4 V 30 Z" />
</svg>
