<?xml version="1.0" encoding="UTF-8" standalone="no"?>
<svg
   viewbox="0 0 200 200"
   version="1.1"
   id="svg4"
   sodipodi:docname="menu-editor.svg"
   width="64"
   height="64"
   inkscape:version="1.1.1 (3bf5ae0d25, 2021-09-20, custom)"
   xmlns:inkscape="http://www.inkscape.org/namespaces/inkscape"
   xmlns:sodipodi="http://sodipodi.sourceforge.net/DTD/sodipodi-0.dtd"
   xmlns="http://www.w3.org/2000/svg"
   xmlns:svg="http://www.w3.org/2000/svg">
  <defs
     id="defs8" />
  <sodipodi:namedview
     id="namedview6"
     pagecolor="#ffffff"
     bordercolor="#666666"
     borderopacity="1.0"
     inkscape:pageshadow="2"
     inkscape:pageopacity="0.0"
     inkscape:pagecheckerboard="0"
     showgrid="false"
     inkscape:zoom="12.140625"
     inkscape:cx="30.723295"
     inkscape:cy="42.378378"
     inkscape:window-width="1920"
     inkscape:window-height="996"
     inkscape:window-x="0"
     inkscape:window-y="0"
     inkscape:window-maximized="1"
     inkscape:current-layer="svg4"
     showguides="true" />
  <path
     d="M 2,32 C 2,10.4 10.4,2 32,2 53.6,2 62,10.4 62,32 62,53.6 53.6,62 32,62 10.4,62 2,53.6 2,32"
     id="path2"
     style="stroke-width:0.3;fill:#6190fa;fill-opacity:1" />
  <path
     id="rect844"
     style="fill:#ffffff;stroke-width:1.99992;stroke-linecap:round;stroke-linejoin:round"
     d="M 46.292969 14 C 45.78175 14.00002 45.270643 14.196154 44.878906 14.587891 L 44.171875 15.294922 L 45.585938 16.708984 L 46.292969 16.001953 L 49.121094 18.830078 L 47 20.951172 L 42.757812 16.708984 L 32.857422 26.609375 C 32.757952 26.708835 32.676653 26.829955 32.625 26.970703 L 30.505859 33.332031 C 30.210474 34.132814 30.990231 34.912571 31.791016 34.617188 L 38.152344 32.496094 C 38.293139 32.444284 38.414257 32.365266 38.513672 32.265625 C 38.528792 32.250465 38.546507 32.23477 38.560547 32.21875 L 45.585938 25.193359 L 44.171875 23.779297 L 37.099609 30.851562 L 34.939453 31.597656 L 32.775391 32.345703 L 33.525391 30.183594 L 34.271484 28.023438 L 42.757812 19.537109 L 45.585938 22.365234 L 47 23.779297 L 50.535156 20.244141 C 51.31863 19.460667 51.318569 18.19943 50.535156 17.416016 L 47.707031 14.587891 C 47.315324 14.196184 46.804187 13.99998 46.292969 14 z M 18 26 A 5 5 0 0 0 13 31 A 5 5 0 0 0 18 36 A 5 5 0 0 0 23 31 A 5 5 0 0 0 18 26 z M 18 28 A 3 3 0 0 1 21 31 A 3 3 0 0 1 18 34 A 3 3 0 0 1 15 31 A 3 3 0 0 1 18 28 z M 18 40 A 5 5 0 0 0 13 45 A 5 5 0 0 0 18 50 A 5 5 0 0 0 23 45 A 5 5 0 0 0 18 40 z M 32 40 A 5 5 0 0 0 27 45 A 5 5 0 0 0 32 50 A 5 5 0 0 0 37 45 A 5 5 0 0 0 32 40 z M 46 40 A 5 5 0 0 0 41 45 A 5 5 0 0 0 46 50 A 5 5 0 0 0 51 45 A 5 5 0 0 0 46 40 z M 18 42 A 3 3 0 0 1 21 45 A 3 3 0 0 1 18 48 A 3 3 0 0 1 15 45 A 3 3 0 0 1 18 42 z M 32 42 A 3 3 0 0 1 35 45 A 3 3 0 0 1 32 48 A 3 3 0 0 1 29 45 A 3 3 0 0 1 32 42 z M 46 42 A 3 3 0 0 1 49 45 A 3 3 0 0 1 46 48 A 3 3 0 0 1 43 45 A 3 3 0 0 1 46 42 z " />
</svg>
