<?xml version="1.0" encoding="UTF-8" standalone="no"?>
<svg
   viewbox="0 0 200 200"
   version="1.1"
   id="svg4"
   sodipodi:docname="mintinstall.svg"
   width="64"
   height="64"
   inkscape:version="1.1.1 (3bf5ae0d25, 2021-09-20, custom)"
   xmlns:inkscape="http://www.inkscape.org/namespaces/inkscape"
   xmlns:sodipodi="http://sodipodi.sourceforge.net/DTD/sodipodi-0.dtd"
   xmlns:xlink="http://www.w3.org/1999/xlink"
   xmlns="http://www.w3.org/2000/svg"
   xmlns:svg="http://www.w3.org/2000/svg">
  <defs
     id="defs8">
    <linearGradient
       inkscape:collect="always"
       id="linearGradient14312">
      <stop
         style="stop-color:#4de99b;stop-opacity:1"
         offset="0"
         id="stop14308" />
      <stop
         style="stop-color:#4de99b;stop-opacity:0"
         offset="1"
         id="stop14310" />
    </linearGradient>
    <linearGradient
       inkscape:collect="always"
       id="linearGradient13456">
      <stop
         style="stop-color:#a0e529;stop-opacity:1"
         offset="0"
         id="stop13452" />
      <stop
         style="stop-color:#a0e529;stop-opacity:0"
         offset="1"
         id="stop13454" />
    </linearGradient>
    <radialGradient
       inkscape:collect="always"
       xlink:href="#linearGradient13456"
       id="radialGradient13458"
       cx="15.124999"
       cy="52"
       fx="15.124999"
       fy="52"
       r="30"
       gradientUnits="userSpaceOnUse"
       gradientTransform="matrix(1.2124444e-7,1.6000001,-1.4666669,1.3941949e-7,88.266668,-10.200007)" />
    <radialGradient
       inkscape:collect="always"
       xlink:href="#linearGradient14312"
       id="radialGradient14314"
       cx="16.92857"
       cy="44.922077"
       fx="16.92857"
       fy="44.922077"
       r="30"
       gradientUnits="userSpaceOnUse"
       gradientTransform="matrix(0,-1.4,1.4666671,0,-15.885715,75.699994)" />
  </defs>
  <sodipodi:namedview
     id="namedview6"
     pagecolor="#ffffff"
     bordercolor="#666666"
     borderopacity="1.0"
     inkscape:pageshadow="2"
     inkscape:pageopacity="0.0"
     inkscape:pagecheckerboard="0"
     showgrid="false"
     inkscape:zoom="4"
     inkscape:cx="32.75"
     inkscape:cy="50.375"
     inkscape:window-width="1920"
     inkscape:window-height="996"
     inkscape:window-x="0"
     inkscape:window-y="0"
     inkscape:window-maximized="1"
     inkscape:current-layer="svg4"
     showguides="false" />
  <path
     d="M 2,32 C 2,10.4 10.4,2 32,2 53.6,2 62,10.4 62,32 62,53.6 53.6,62 32,62 10.4,62 2,53.6 2,32"
     fill="#fadb5f"
     id="path2"
     style="stroke-width:0.3;fill:#69b73f;fill-opacity:1;stroke:none" />
  <path
     id="rect14117"
     style="fill:url(#radialGradient14314);fill-opacity:1;stroke:none;stroke-width:2;stroke-linecap:round;stroke-linejoin:round"
     d="M 32,2 C 10.4,2 2,10.4 2,32 2,53.6 10.4,62 32,62 53.6,62 62,53.6 62,32 62,10.4 53.6,2 32,2 Z" />
  <path
     id="rect13260"
     style="fill:url(#radialGradient13458);fill-opacity:1;stroke:none;stroke-width:2;stroke-linecap:round;stroke-linejoin:round"
     d="M 32,2 C 10.4,2 2,10.4 2,32 2,53.6 10.4,62 32,62 53.6,62 62,53.6 62,32 62,10.4 53.6,2 32,2 Z" />
  <path
     id="rect7614"
     style="fill:#ffffff;stroke-width:4;stroke-linecap:round;stroke-linejoin:round"
     d="m 32,12 c -4.418278,0 -8,3.581722 -8,8 v 2 h -6 c -1.108,0 -2,0.892 -2,2 v 18 c 0,4.432 3.568,8 8,8 h 16 c 4.432,0 8,-3.568 8,-8 V 24 c 0,-1.108 -0.892,-2 -2,-2 h -3 v 2 h 3 v 18 c 0,3.324 -2.676,6 -6,6 H 24 c -3.324,0 -6,-2.676 -6,-6 V 24 h 6 v 6 h 2 v -6 -2 -2 c 0,-3.313708 2.686292,-6 6,-6 3.31371,0 6,2.686292 6,6 v 2 h -9 v 2 h 9 v 6 h 2 v -6 -2 -2 c 0,-4.418278 -3.58172,-8 -8,-8 z" />
</svg>
