<?xml version="1.0" encoding="UTF-8" standalone="no"?>
<svg
   viewbox="0 0 200 200"
   version="1.1"
   id="svg4"
   sodipodi:docname="multimedia-photo-manager.svg"
   width="64"
   height="64"
   inkscape:version="1.1.1 (3bf5ae0d25, 2021-09-20, custom)"
   xmlns:inkscape="http://www.inkscape.org/namespaces/inkscape"
   xmlns:sodipodi="http://sodipodi.sourceforge.net/DTD/sodipodi-0.dtd"
   xmlns:xlink="http://www.w3.org/1999/xlink"
   xmlns="http://www.w3.org/2000/svg"
   xmlns:svg="http://www.w3.org/2000/svg">
  <defs
     id="defs8">
    <linearGradient
       inkscape:collect="always"
       id="linearGradient2444">
      <stop
         style="stop-color:#ffc207;stop-opacity:1;"
         offset="0"
         id="stop2440" />
      <stop
         style="stop-color:#ffc207;stop-opacity:0;"
         offset="1"
         id="stop2442" />
    </linearGradient>
    <linearGradient
       inkscape:collect="always"
       id="linearGradient8746">
      <stop
         style="stop-color:#ffb814;stop-opacity:1"
         offset="0"
         id="stop8742" />
      <stop
         style="stop-color:#f9724e;stop-opacity:1"
         offset="1"
         id="stop8744" />
    </linearGradient>
    <linearGradient
       inkscape:collect="always"
       xlink:href="#linearGradient8746"
       id="linearGradient851"
       x1="10"
       y1="56"
       x2="54"
       y2="8"
       gradientUnits="userSpaceOnUse" />
    <radialGradient
       inkscape:collect="always"
       xlink:href="#linearGradient2444"
       id="radialGradient2448"
       cx="10"
       cy="56"
       fx="10"
       fy="56"
       r="30"
       gradientUnits="userSpaceOnUse"
       gradientTransform="matrix(0,-1.2,1.2000001,0,-11.200002,66)" />
  </defs>
  <sodipodi:namedview
     id="namedview6"
     pagecolor="#ffffff"
     bordercolor="#666666"
     borderopacity="1.0"
     inkscape:pageshadow="2"
     inkscape:pageopacity="0.0"
     inkscape:pagecheckerboard="0"
     showgrid="false"
     inkscape:zoom="6.4416667"
     inkscape:cx="27.322122"
     inkscape:cy="43.078913"
     inkscape:window-width="1920"
     inkscape:window-height="996"
     inkscape:window-x="0"
     inkscape:window-y="0"
     inkscape:window-maximized="1"
     inkscape:current-layer="svg4"
     showguides="false" />
  <path
     d="M 2,32 C 2,10.4 10.4,2 32,2 53.6,2 62,10.4 62,32 62,53.6 53.6,62 32,62 10.4,62 2,53.6 2,32"
     id="path2"
     style="stroke-width:0.3;fill:url(#linearGradient851);fill-opacity:1" />
  <path
     id="rect2249"
     style="fill:url(#radialGradient2448);fill-opacity:1;stroke-width:4;stroke-linecap:round;stroke-linejoin:round"
     d="M 32 2 C 10.400002 2 2 10.4 2 32 C 2 53.6 10.400001 62 32 62 C 53.600001 62 62 53.6 62 32 C 62 10.4 53.600001 2 32 2 z " />
  <path
     id="path21024"
     style="fill:#ffffff;fill-opacity:1;stroke-width:3.86736;stroke-linecap:round;stroke-linejoin:round"
     d="M 32.000321,11 C 29.00613,11 26.858907,15.427342 25.783524,21.972656 19.442473,19.607953 14.445199,19.21498 12.947587,21.75 c -1.117463,1.891512 0.186832,4.617081 3.107422,7.617188 l 2.25,-1.34961 c -0.211193,-0.188816 -0.435274,-0.381188 -0.626954,-0.564453 -0.07025,-0.06714 -0.139683,-0.132933 -0.207031,-0.199219 -0.09716,-0.09569 -0.19416,-0.191242 -0.285156,-0.285156 -0.09494,-0.09794 -0.183406,-0.195129 -0.271485,-0.291016 -0.0779,-0.08482 -0.15806,-0.170711 -0.230468,-0.253906 -0.113027,-0.129789 -0.215131,-0.255307 -0.314453,-0.380859 -0.03421,-0.04328 -0.07293,-0.09007 -0.105469,-0.132813 -0.0024,-0.0031 -0.0054,-0.0064 -0.0078,-0.0098 -0.124819,-0.164334 -0.234382,-0.324091 -0.333984,-0.480469 -0.03745,-0.05885 -0.06777,-0.1142 -0.101563,-0.171875 -0.05825,-0.09936 -0.114955,-0.197196 -0.162109,-0.292969 -0.0319,-0.06482 -0.05727,-0.128326 -0.08398,-0.191406 -0.03785,-0.08939 -0.07236,-0.177801 -0.09961,-0.263672 -0.01912,-0.06028 -0.03504,-0.119265 -0.04883,-0.177734 -0.01943,-0.08224 -0.03228,-0.161658 -0.04101,-0.240235 -0.007,-0.063 -0.01566,-0.126914 -0.01563,-0.1875 10e-6,-0.02532 6.33e-4,-0.04954 0.002,-0.07422 0.0047,-0.0949 0.0161,-0.186798 0.03906,-0.27539 0.0051,-0.01928 0.01356,-0.03924 0.01953,-0.05859 0.02906,-0.09373 0.06437,-0.185387 0.115234,-0.271484 0.03712,-0.06282 0.08042,-0.118836 0.126953,-0.173828 0.01406,-0.01663 0.03001,-0.03288 0.04492,-0.04883 0.03776,-0.04033 0.07795,-0.07937 0.121094,-0.115235 0.01686,-0.01398 0.03507,-0.0258 0.05273,-0.03906 0.03964,-0.02986 0.08132,-0.05746 0.125,-0.08398 0.02646,-0.01625 0.05217,-0.03208 0.08008,-0.04687 0.02313,-0.01247 0.04816,-0.02344 0.07227,-0.03516 0.118533,-0.05635 0.244747,-0.104115 0.386719,-0.140625 0.121366,-0.03137 0.258637,-0.05128 0.396484,-0.06836 0.135851,-0.01663 0.282338,-0.02394 0.433594,-0.02734 0.05181,-0.0012 0.09486,-0.01008 0.148437,-0.0098 0.01829,1.17e-4 0.04009,0.0036 0.05859,0.0039 0.160785,0.0026 0.333935,0.01342 0.509765,0.0293 0.05794,0.0049 0.110387,0.0065 0.169922,0.01367 0.211624,0.02343 0.434925,0.05864 0.666016,0.09961 0.03436,0.006 0.06483,0.0096 0.09961,0.01563 0.09786,0.01814 0.205516,0.04329 0.306641,0.06445 0.178023,0.03704 0.355147,0.07487 0.542969,0.121094 0.121462,0.02986 0.251529,0.06605 0.376953,0.09961 0.173216,0.04634 0.344858,0.09323 0.52539,0.146484 0.13663,0.04029 0.27924,0.0848 0.419922,0.128907 0.199408,0.06251 0.400167,0.127193 0.607422,0.197265 0.12491,0.04222 0.253205,0.08795 0.38086,0.132813 0.214968,0.07563 0.431817,0.153329 0.654296,0.236328 0.134091,0.05004 0.269544,0.103639 0.40625,0.15625 0.24587,0.09464 0.496,0.192005 0.75,0.294922 0.119607,0.04849 0.239998,0.09622 0.361329,0.146484 0.259861,0.107603 0.523567,0.220322 0.791015,0.335938 0.08369,0.03628 0.163643,0.0685 0.248047,0.105468 v 0.002 c 0.890992,0.389851 1.816157,0.818021 2.777344,1.28711 0.203694,-3.289195 0.580156,-6.129026 1.138672,-8.236328 0.01055,-0.03991 0.02251,-0.0798 0.0332,-0.119141 0.05227,-0.192189 0.104718,-0.379395 0.160156,-0.558594 0.01652,-0.05352 0.03398,-0.103903 0.05078,-0.15625 0.0585,-0.181757 0.117753,-0.360269 0.179688,-0.527344 0.19799,-0.534075 0.414832,-0.986931 0.648437,-1.359374 0.0373,-0.05975 0.07308,-0.122403 0.111328,-0.177735 0.05101,-0.07355 0.103596,-0.137512 0.15625,-0.203125 0.04848,-0.06059 0.0966,-0.120121 0.146485,-0.173828 0.05089,-0.05458 0.103896,-0.103109 0.15625,-0.150391 0.05963,-0.05405 0.120098,-0.104028 0.181641,-0.148437 0.05797,-0.04161 0.11611,-0.08431 0.175781,-0.117188 0.01323,-0.0072 0.02574,-0.01663 0.03906,-0.02344 0.09001,-0.04637 0.181534,-0.08326 0.275391,-0.109375 0.02253,-0.006 0.0456,-0.0088 0.06836,-0.01367 0.09578,-0.02116 0.193231,-0.03711 0.292969,-0.03711 0.09974,0 0.197188,0.01557 0.292969,0.03711 0.02275,0.0049 0.04582,0.0076 0.06836,0.01367 0.09386,0.02646 0.185378,0.063 0.275391,0.109375 0.0133,0.0068 0.02585,0.01626 0.03906,0.02344 0.05967,0.03288 0.117813,0.07558 0.175781,0.117188 0.06154,0.04437 0.122019,0.09439 0.181641,0.148437 0.05235,0.04728 0.105363,0.09578 0.15625,0.150391 0.04989,0.05371 0.09801,0.113242 0.146485,0.173828 0.05266,0.06557 0.105237,0.129576 0.15625,0.203125 0.03825,0.05533 0.074,0.118056 0.111328,0.177735 0.233605,0.372432 0.450448,0.825299 0.648437,1.359374 0.06193,0.167093 0.121188,0.345564 0.179688,0.527344 0.01678,0.05235 0.03428,0.102732 0.05078,0.15625 0.05543,0.179188 0.107881,0.366401 0.160156,0.558594 0.01066,0.03934 0.0227,0.07923 0.0332,0.119141 0.558516,2.107302 0.934979,4.947133 1.138672,8.236328 0.827495,-0.403846 1.627065,-0.776375 2.402344,-1.121094 C 38.270263,17.734816 35.613273,11.202564 32.000321,11 Z m 14.734375,9.017578 c -1.249952,0.01403 -2.703084,0.232433 -4.308594,0.63086 v 2.61914 c 0.122049,-0.03968 0.24528,-0.08151 0.365235,-0.11914 0.140674,-0.04411 0.283276,-0.08862 0.419922,-0.128907 0.180546,-0.05321 0.352178,-0.100147 0.52539,-0.146484 0.125443,-0.03364 0.255479,-0.06971 0.376953,-0.09961 0.187805,-0.04626 0.364953,-0.08383 0.542969,-0.121094 0.10114,-0.02117 0.208789,-0.04627 0.306641,-0.06445 0.03477,-0.0064 0.06522,-0.01 0.09961,-0.01563 0.23108,-0.04097 0.454392,-0.0761 0.666016,-0.09961 0.05953,-0.0064 0.111981,-0.0084 0.169922,-0.01367 0.175821,-0.01587 0.348965,-0.02665 0.509765,-0.0293 0.01852,-2.95e-4 0.0403,-0.0038 0.05859,-0.0039 0.05356,-3.47e-4 0.09666,0.0086 0.148437,0.0098 0.151257,0.0035 0.29775,0.01071 0.433594,0.02734 0.137839,0.01701 0.275115,0.03706 0.396484,0.06836 0.14196,0.03628 0.268197,0.08427 0.386719,0.140625 0.02419,0.01172 0.04917,0.02268 0.07227,0.03516 0.02797,0.01474 0.05362,0.03093 0.08008,0.04687 0.04369,0.02684 0.08535,0.0541 0.125,0.08398 0.01776,0.01323 0.03592,0.02698 0.05273,0.04102 0.04312,0.03591 0.08334,0.07299 0.121094,0.113282 0.01474,0.01587 0.03101,0.03212 0.04492,0.04883 0.04653,0.05499 0.08988,0.111012 0.126953,0.173828 0.05087,0.0861 0.08613,0.177714 0.115234,0.271484 0.006,0.01928 0.01424,0.03875 0.01953,0.05859 0.02305,0.08863 0.03441,0.180489 0.03906,0.27539 0.0012,0.02495 0.0019,0.04909 0.002,0.07422 3.1e-5,0.06059 -0.0088,0.124533 -0.01563,0.1875 -0.0087,0.07858 -0.02155,0.15803 -0.04102,0.240235 -0.01398,0.05851 -0.02985,0.117488 -0.04883,0.177734 -0.02721,0.08587 -0.06174,0.174286 -0.09961,0.263672 -0.02683,0.06312 -0.05208,0.126625 -0.08398,0.191406 -0.04717,0.09577 -0.103869,0.193605 -0.162109,0.292969 -0.03364,0.05764 -0.06411,0.113065 -0.101563,0.171875 -0.09959,0.156359 -0.209147,0.318065 -0.333984,0.482422 -0.0057,0.0072 -0.01033,0.01235 -0.01563,0.01953 -0.02986,0.03931 -0.06621,0.08137 -0.09766,0.121094 -0.09933,0.125556 -0.201407,0.251112 -0.314453,0.380859 -0.07241,0.08319 -0.152574,0.169056 -0.230468,0.253906 -0.08806,0.09589 -0.176543,0.193088 -0.271485,0.291016 -0.09101,0.09388 -0.187984,0.187505 -0.285156,0.283203 -0.06735,0.06633 -0.13677,0.134048 -0.207031,0.201172 -0.335585,0.320844 -0.698811,0.649866 -1.097657,0.988281 -0.03515,0.02986 -0.07377,0.05995 -0.109375,0.08984 -0.407935,0.342992 -0.841882,0.694734 -1.308593,1.052734 -0.0102,0.0076 -0.01872,0.01394 -0.0293,0.02148 -0.0038,0.0029 -0.0079,0.0048 -0.01172,0.0078 -0.479161,0.36669 -0.992359,0.743579 -1.527344,1.123047 -0.02495,0.01776 -0.04916,0.03482 -0.07422,0.05273 h -0.002 c -0.792287,0.560149 -1.635225,1.13089 -2.533203,1.710938 0.897978,0.580048 1.740912,1.148836 2.533203,1.708984 h 0.002 c 0.02494,0.01776 0.04927,0.03677 0.07422,0.05469 0.534985,0.379483 1.048183,0.754434 1.527344,1.121094 0.0035,0.0027 0.0083,0.0052 0.01172,0.0078 0.0102,0.0076 0.01909,0.01588 0.0293,0.02344 0.466711,0.357996 0.900658,0.707777 1.308593,1.050781 0.03553,0.02986 0.07423,0.06006 0.109375,0.08984 0.398846,0.338419 0.762061,0.667426 1.097657,0.988276 0.07026,0.0671 0.13968,0.13488 0.207031,0.20117 0.09717,0.0957 0.194145,0.19128 0.285156,0.28516 0.09494,0.0979 0.183422,0.19318 0.271485,0.28906 0.0779,0.0848 0.158053,0.17072 0.230468,0.25391 0.113008,0.12979 0.215127,0.25726 0.314453,0.38281 0.03099,0.0393 0.06795,0.0802 0.09766,0.11914 0.0049,0.006 0.01071,0.0151 0.01563,0.0215 0.124837,0.16433 0.234356,0.32411 0.333984,0.48046 0.03742,0.0589 0.06777,0.1142 0.101563,0.17188 0.05824,0.0994 0.114978,0.19919 0.162109,0.29492 0.03175,0.0648 0.05726,0.12637 0.08398,0.18946 0.03783,0.0894 0.07236,0.1778 0.09961,0.26367 0.01928,0.0603 0.03515,0.11926 0.04883,0.17773 0.01928,0.0822 0.03213,0.16166 0.04102,0.24024 0.0068,0.063 0.01563,0.12691 0.01563,0.1875 -1.1e-5,0.0253 -6.34e-4,0.0495 -0.002,0.0742 -0.0045,0.0949 -0.01627,0.18879 -0.03906,0.27735 -0.0049,0.0193 -0.01348,0.0373 -0.01953,0.0566 -0.0291,0.0937 -0.06436,0.18539 -0.115234,0.27148 -0.05015,0.0849 -0.112374,0.15979 -0.179687,0.23047 -0.01512,0.0159 -0.02909,0.0317 -0.04492,0.0469 -0.06784,0.0645 -0.143678,0.12193 -0.226563,0.17383 -0.02079,0.0129 -0.04283,0.0246 -0.06445,0.0371 -0.04917,0.028 -0.104345,0.0504 -0.158203,0.0742 -0.08338,0.0367 -0.17125,0.0702 -0.265625,0.0977 -0.04932,0.0144 -0.100035,0.0272 -0.152344,0.0391 -0.09918,0.0223 -0.204884,0.0392 -0.314453,0.0527 -0.0576,0.007 -0.113431,0.0169 -0.173828,0.0215 -0.129865,0.0102 -0.267626,0.0125 -0.410156,0.0117 -0.04819,-2.7e-4 -0.09299,0.003 -0.142578,0.002 -0.191698,-0.006 -0.39332,-0.021 -0.605469,-0.0449 h -0.002 c -0.06448,-0.007 -0.134841,-0.0222 -0.201172,-0.0312 -0.158325,-0.0212 -0.317822,-0.0438 -0.486328,-0.0742 -0.08848,-0.0159 -0.182238,-0.0341 -0.273438,-0.0527 -0.148422,-0.0302 -0.297639,-0.0632 -0.453125,-0.0996 -0.122948,-0.0287 -0.249734,-0.061 -0.376953,-0.0937 -0.09989,-0.0257 -0.202224,-0.052 -0.304687,-0.0801 -0.44309,-0.12144 -0.906247,-0.26343 -1.394532,-0.42773 -0.06629,-0.0223 -0.136038,-0.0473 -0.203125,-0.0703 -0.493315,-0.16962 -1.003859,-0.35524 -1.537109,-0.56445 -0.01625,-0.006 -0.03063,-0.0135 -0.04687,-0.0195 -0.545991,-0.21491 -1.116434,-0.4519 -1.699219,-0.70508 -0.05027,-0.0215 -0.09595,-0.0404 -0.146484,-0.0625 v -0.002 c -0.890993,-0.38985 -1.816157,-0.81607 -2.777344,-1.28516 -0.06555,1.05842 -0.156178,2.04994 -0.257812,3.00586 6.246202,3.02466 13.438001,4.35127 15.496093,1.28711 1.497343,-2.53453 -1.349072,-6.566461 -6.613281,-10.749997 5.264209,-4.183536 8.110624,-8.215471 6.613281,-10.75 -0.716566,-1.212924 -2.235105,-1.755811 -4.318359,-1.732422 z M 21.98079,30.886719 19.560868,32.5 c -5.264206,4.183536 -8.110624,8.21547 -6.613281,10.75 1.497612,2.53499 6.494885,2.14202 12.835937,-0.22266 C 26.858907,49.57267 29.00613,54 32.000321,54 c 2.307165,0 4.108118,-2.63508 5.306641,-6.83594 l -2.396485,-0.95898 c -0.07474,0.3432 -0.151682,0.67628 -0.234375,0.98828 -0.01055,0.0399 -0.02255,0.0778 -0.0332,0.11719 -0.05227,0.19219 -0.104718,0.3794 -0.160156,0.55859 -0.01652,0.0535 -0.03398,0.10586 -0.05078,0.1582 -0.0585,0.1818 -0.117753,0.35832 -0.179688,0.52539 -0.19799,0.53408 -0.414832,0.98693 -0.648437,1.35938 -0.0373,0.0598 -0.07308,0.1224 -0.111328,0.17773 -0.05101,0.0736 -0.103596,0.13947 -0.15625,0.20508 -0.04848,0.0606 -0.0966,0.12012 -0.146485,0.17383 -0.05089,0.0546 -0.103896,0.10311 -0.15625,0.15039 -0.05963,0.0541 -0.120098,0.10213 -0.181641,0.14648 -0.05797,0.0416 -0.11611,0.0863 -0.175781,0.11915 -0.01323,0.007 -0.02574,0.0147 -0.03906,0.0215 -0.09001,0.0463 -0.181534,0.0833 -0.275391,0.10937 -0.02253,0.006 -0.0456,0.0107 -0.06836,0.0156 -0.09578,0.0212 -0.193231,0.0352 -0.292969,0.0352 -0.09974,0 -0.197192,-0.0136 -0.292969,-0.0352 -0.02275,-0.005 -0.04582,-0.01 -0.06836,-0.0156 -0.09386,-0.0264 -0.185378,-0.063 -0.275391,-0.10937 -0.0133,-0.007 -0.02585,-0.0143 -0.03906,-0.0215 -0.05967,-0.0329 -0.117813,-0.0775 -0.175781,-0.11915 -0.06154,-0.0444 -0.122019,-0.0924 -0.181641,-0.14648 -0.05235,-0.0473 -0.105363,-0.0958 -0.15625,-0.15039 -0.04989,-0.0537 -0.098,-0.11324 -0.146485,-0.17383 -0.05266,-0.0656 -0.105237,-0.13149 -0.15625,-0.20508 -0.03824,-0.0553 -0.07401,-0.11805 -0.111328,-0.17773 -0.233605,-0.37244 -0.450448,-0.8253 -0.648437,-1.35938 -0.06193,-0.16705 -0.121188,-0.34361 -0.179688,-0.52539 -0.01678,-0.0523 -0.03428,-0.10468 -0.05078,-0.1582 -0.05543,-0.17919 -0.107881,-0.3664 -0.160156,-0.55859 -0.01066,-0.0394 -0.02266,-0.0773 -0.0332,-0.11719 -0.558516,-2.10731 -0.934979,-4.94713 -1.138672,-8.23633 -0.961187,0.46909 -1.886352,0.89531 -2.777344,1.28516 v 0.002 c -0.05051,0.0219 -0.09623,0.0406 -0.146484,0.0625 -0.582783,0.25319 -1.153226,0.49015 -1.699219,0.70508 -0.0039,0.002 -0.0079,0.004 -0.01172,0.006 -0.01194,0.005 -0.02321,0.009 -0.03516,0.0137 -0.533251,0.20923 -1.043793,0.3948 -1.537109,0.56445 -0.06709,0.0231 -0.136821,0.0481 -0.203125,0.0703 -0.488287,0.16429 -0.951444,0.30628 -1.394532,0.42773 -0.102466,0.0284 -0.204783,0.0544 -0.304687,0.0801 -0.12723,0.0329 -0.25399,0.065 -0.376953,0.0937 -0.155467,0.0363 -0.304683,0.0696 -0.453125,0.0996 -0.09119,0.0185 -0.18497,0.0367 -0.273438,0.0527 -0.168502,0.0306 -0.327987,0.0549 -0.486328,0.0762 -0.06631,0.009 -0.136689,0.0217 -0.201172,0.0293 h -0.002 c -0.212149,0.0238 -0.413768,0.0389 -0.605469,0.0449 -0.04959,0.002 -0.0944,-0.002 -0.142578,-0.002 -0.142511,8.3e-4 -0.280278,-10e-4 -0.410156,-0.0117 -0.0604,-0.005 -0.116221,-0.0147 -0.173828,-0.0215 -0.10955,-0.0136 -0.215267,-0.0303 -0.314453,-0.0527 -0.05228,-0.0121 -0.103002,-0.0246 -0.152344,-0.0391 -0.09438,-0.0276 -0.182252,-0.0609 -0.265625,-0.0977 -0.05387,-0.0234 -0.109039,-0.0465 -0.158203,-0.0742 -0.02162,-0.0125 -0.04376,-0.0219 -0.06445,-0.0352 -0.0829,-0.0519 -0.15872,-0.10935 -0.226563,-0.17383 -0.01591,-0.0151 -0.02986,-0.0329 -0.04492,-0.0488 -0.06733,-0.0707 -0.129533,-0.14558 -0.179687,-0.23047 -0.05086,-0.0861 -0.08615,-0.17775 -0.115234,-0.27148 -0.006,-0.0193 -0.01447,-0.0373 -0.01953,-0.0566 -0.02294,-0.0886 -0.03436,-0.18248 -0.03906,-0.27735 -0.0012,-0.0249 -0.0019,-0.0491 -0.002,-0.0742 -3.3e-5,-0.0606 0.0087,-0.12454 0.01563,-0.1875 0.0087,-0.0786 0.02158,-0.15803 0.04101,-0.24024 0.0138,-0.0585 0.02971,-0.11749 0.04883,-0.17773 0.02725,-0.0859 0.06176,-0.17431 0.09961,-0.26367 0.02672,-0.0631 0.05208,-0.12468 0.08398,-0.18946 0.04715,-0.0958 0.103869,-0.19559 0.162109,-0.29492 0.03379,-0.0576 0.06411,-0.11307 0.101563,-0.17188 0.0996,-0.15633 0.209162,-0.31611 0.333984,-0.48046 0.0024,-0.003 0.0054,-0.006 0.0078,-0.01 0.03254,-0.0427 0.07127,-0.0876 0.105469,-0.13086 0.09932,-0.12555 0.201426,-0.25306 0.314453,-0.38281 0.07241,-0.0832 0.152574,-0.16906 0.230468,-0.25391 0.08808,-0.0959 0.176543,-0.19113 0.271485,-0.28906 0.091,-0.0939 0.187992,-0.18946 0.285156,-0.28516 0.06735,-0.0663 0.136785,-0.13404 0.207031,-0.20117 0.335596,-0.32084 0.69881,-0.64986 1.097657,-0.988279 0.03515,-0.02986 0.07376,-0.05995 0.109375,-0.08984 0.407935,-0.342992 0.84188,-0.692785 1.308593,-1.050781 0.01383,-0.01058 0.02714,-0.02029 0.04102,-0.03125 0.479161,-0.36669 0.992359,-0.743579 1.527344,-1.123047 0.02585,-0.01814 0.04825,-0.03445 0.07422,-0.05273 h 0.002 C 22.630584,33.64999 23.473437,33.080048 24.371415,32.5 23.525477,31.953568 22.732707,31.415557 21.98079,30.886719 Z"
     sodipodi:nodetypes="ccscccccsccccccssscsscccssccccccccccsccccccsssscssccccccccccsccccccccccsccccccccccsccccccccccssccsccccscsccccccccccscccccccscscccccsscccccccccccccsccsccccssccccscccccscccssccccccccscccccccccsccccccccccsccccscsccccccsccccccccccsccccccccccscccccccccccccccsccccccccccccccscsscccccsscscccccccccccccccccc" />
</svg>
