<?xml version="1.0" encoding="UTF-8" standalone="no"?>
<svg
   viewbox="0 0 200 200"
   version="1.1"
   id="svg4"
   sodipodi:docname="okular.svg"
   width="64"
   height="64"
   inkscape:version="1.1.1 (3bf5ae0d25, 2021-09-20, custom)"
   xmlns:inkscape="http://www.inkscape.org/namespaces/inkscape"
   xmlns:sodipodi="http://sodipodi.sourceforge.net/DTD/sodipodi-0.dtd"
   xmlns="http://www.w3.org/2000/svg"
   xmlns:svg="http://www.w3.org/2000/svg">
  <defs
     id="defs8" />
  <sodipodi:namedview
     id="namedview6"
     pagecolor="#ffffff"
     bordercolor="#666666"
     borderopacity="1.0"
     inkscape:pageshadow="2"
     inkscape:pageopacity="0.0"
     inkscape:pagecheckerboard="0"
     showgrid="false"
     inkscape:zoom="4.5549462"
     inkscape:cx="-8.7816624"
     inkscape:cy="35.016879"
     inkscape:window-width="1920"
     inkscape:window-height="996"
     inkscape:window-x="0"
     inkscape:window-y="0"
     inkscape:window-maximized="1"
     inkscape:current-layer="svg4"
     showguides="false" />
  <path
     d="M 2,32 C 2,10.4 10.4,2 32,2 53.6,2 62,10.4 62,32 62,53.6 53.6,62 32,62 10.4,62 2,53.6 2,32"
     id="path2"
     style="stroke-width:0.3;fill:#4070a8;fill-opacity:1" />
  <path
     id="path3817"
     style="color:#000000;fill:#ffffff;stroke:none;stroke-width:0.99356;stroke-linecap:round;stroke-linejoin:round;-inkscape-stroke:none"
     d="M 20 12 C 17.783999 12 16 13.783999 16 16 L 16 52 L 18 52 L 18 16 C 18 14.892 18.892 14 20 14 L 24 14 L 24 50 L 21 50 L 21 52 L 42 52 C 45.324 52 48 49.385017 48 46 L 48 18 L 46 18 L 46 20.126953 L 46 22.117188 L 46 42 L 46 43.169922 A 8 13 30 0 1 36.957031 45.177734 A 8 13 30 0 1 36.527344 29.919922 A 8 13 30 0 1 44 22.769531 L 44 20.65625 A 10 15 30 0 0 34.796875 28.919922 A 10 15 30 0 0 35.957031 46.910156 A 10 15 30 0 0 46 45.621094 L 46 46 C 46 48.216 44.216 50 42 50 L 26 50 L 26 14 L 48 14 L 48 12 L 20 12 z " />
</svg>
