<?xml version="1.0" encoding="UTF-8" standalone="no"?>
<svg
   viewbox="0 0 200 200"
   version="1.1"
   id="svg4"
   sodipodi:docname="palapeli.svg"
   width="64"
   height="64"
   inkscape:version="1.1.1 (3bf5ae0d25, 2021-09-20, custom)"
   xmlns:inkscape="http://www.inkscape.org/namespaces/inkscape"
   xmlns:sodipodi="http://sodipodi.sourceforge.net/DTD/sodipodi-0.dtd"
   xmlns="http://www.w3.org/2000/svg"
   xmlns:svg="http://www.w3.org/2000/svg">
  <defs
     id="defs8" />
  <sodipodi:namedview
     id="namedview6"
     pagecolor="#ffffff"
     bordercolor="#666666"
     borderopacity="1.0"
     inkscape:pageshadow="2"
     inkscape:pageopacity="0.0"
     inkscape:pagecheckerboard="0"
     showgrid="false"
     inkscape:zoom="6.475"
     inkscape:cx="7.2586873"
     inkscape:cy="28.185328"
     inkscape:window-width="1920"
     inkscape:window-height="1000"
     inkscape:window-x="0"
     inkscape:window-y="0"
     inkscape:window-maximized="1"
     inkscape:current-layer="svg4"
     showguides="false" />
  <path
     d="M 2,32 C 2,10.4 10.4,2 32,2 53.6,2 62,10.4 62,32 62,53.6 53.6,62 32,62 10.4,62 2,53.6 2,32"
     id="path2"
     style="stroke-width:0.3;fill:#9cd453;fill-opacity:1" />
  <path
     id="rect1000"
     style="fill:#ffffff;stroke-width:2;stroke-linecap:round;stroke-linejoin:round"
     d="m 51,30 a 2,2 0 0 1 -2,2 h -4.5 c -0.652547,0 -1.476562,-0.671573 -1.476562,-1.5 0,-0.493063 0.07996,-0.675633 0.242187,-0.894531 A 2.75,2.75 0 0 0 44.25,27.5 2.75,2.75 0 0 0 41.5,24.75 a 2.75,2.75 0 0 0 -2.75,2.75 2.75,2.75 0 0 0 0.984375,2.105469 c 0.162227,0.218898 0.242187,0.401468 0.242187,0.894531 0,0.828427 -0.824016,1.5 -1.476562,1.5 H 32 v -6.5 c 0,-0.652546 -0.671573,-1.476562 -1.5,-1.476562 -0.493063,0 -0.675633,0.07996 -0.894531,0.242187 A 2.75,2.75 0 0 1 27.5,25.25 2.75,2.75 0 0 1 24.75,22.5 a 2.75,2.75 0 0 1 2.75,-2.75 2.75,2.75 0 0 1 2.105469,0.984375 c 0.218898,0.162224 0.401468,0.242187 0.894531,0.242187 0.828427,0 1.5,-0.824016 1.5,-1.476562 V 15 a 2,2 0 0 1 2,-2 h 13 c 2.216,0 4,1.784 4,4 z" />
  <path
     id="rect1468"
     style="fill:#59a125;fill-opacity:1;stroke-width:2;stroke-linecap:round;stroke-linejoin:round"
     d="M 39.25,41.5 A 2.75,2.75 0 0 1 36.5,44.25 2.75,2.75 0 0 1 34.394531,43.265625 C 34.175633,43.103401 33.993063,43.023438 33.5,43.023438 32.671573,43.023438 32,43.847454 32,44.5 V 49 a 2,2 0 0 1 -2,2 H 17 c -2.216,0 -4,-1.784 -4,-4 V 34 a 2,2 0 0 1 2,-2 h 4.5 c 0.652546,0 1.476562,0.671573 1.476562,1.5 0,0.493063 -0.07996,0.675633 -0.242187,0.894531 A 2.75,2.75 0 0 0 19.75,36.5 2.75,2.75 0 0 0 22.5,39.25 2.75,2.75 0 0 0 25.25,36.5 2.75,2.75 0 0 0 24.265625,34.394531 C 24.103398,34.175633 24.023438,33.993063 24.023438,33.5 24.023438,32.671573 24.847454,32 25.5,32 H 32 v 6.5 c 0,0.652546 0.671573,1.476562 1.5,1.476562 0.493063,0 0.675633,-0.07996 0.894531,-0.242187 A 2.75,2.75 0 0 1 36.5,38.75 2.75,2.75 0 0 1 39.25,41.5 Z" />
</svg>
