<?xml version="1.0" encoding="UTF-8" standalone="no"?>
<svg
   viewbox="0 0 200 200"
   version="1.1"
   id="svg4"
   sodipodi:docname="pdf-slicer.svg"
   width="64"
   height="64"
   inkscape:version="1.1.1 (3bf5ae0d25, 2021-09-20, custom)"
   xmlns:inkscape="http://www.inkscape.org/namespaces/inkscape"
   xmlns:sodipodi="http://sodipodi.sourceforge.net/DTD/sodipodi-0.dtd"
   xmlns="http://www.w3.org/2000/svg"
   xmlns:svg="http://www.w3.org/2000/svg">
  <defs
     id="defs8" />
  <sodipodi:namedview
     id="namedview6"
     pagecolor="#ffffff"
     bordercolor="#666666"
     borderopacity="1.0"
     inkscape:pageshadow="2"
     inkscape:pageopacity="0.0"
     inkscape:pagecheckerboard="0"
     showgrid="false"
     inkscape:zoom="6.475"
     inkscape:cx="9.2664093"
     inkscape:cy="62.007722"
     inkscape:window-width="1920"
     inkscape:window-height="996"
     inkscape:window-x="0"
     inkscape:window-y="0"
     inkscape:window-maximized="1"
     inkscape:current-layer="svg4"
     showguides="false" />
  <path
     d="m 2,32.087353 c 0,-21.6 8.4,-30.0000005 30,-30.0000005 21.6,0 30,8.4000005 30,30.0000005 0,21.6 -8.4,30 -30,30 -21.6,0 -30,-8.4 -30,-30"
     id="path2"
     style="fill:#f2f2f2;fill-opacity:1;stroke-width:0.3" />
  <g
     id="g948"
     transform="translate(13.45823,13.327347)" />
  <path
     id="rect843"
     style="fill:#f56a4e;fill-opacity:1;stroke-width:2;stroke-linejoin:round"
     d="m 14,16 c -1.104569,0 -2,0.895431 -2,2 v 12 h 2 V 18 h 2 c 1.380712,0 2.5,1.119288 2.5,2.5 0,1.380712 -1.119288,2.5 -2.5,2.5 v 2 c 2.485281,0 4.5,-2.014719 4.5,-4.5 C 20.5,18.014719 18.485281,16 16,16 Z m 11,0 c -1.104569,0 -2,0.895431 -2,2 v 12 h 2 V 18 h 2 c 2.761424,0 5,2.238576 5,5 0,2.761424 -2.238576,5 -5,5 v 2 c 3.865993,0 7,-3.134007 7,-7 0,-3.865993 -3.134007,-7 -7,-7 z m 14,0 c -1.104569,0 -2,0.895431 -2,2 v 12 h 2 V 18 h 6 v -2 z m 2,6 v 2 h 4 v -2 z m 8.589844,8.517578 c -1.149281,-0.086 -2.246231,0.493976 -2.822266,1.492188 -0.630608,1.099977 -0.501599,2.477631 0.322266,3.441406 L 45.5,38.205078 l -6.0625,-3.5 -1.365234,0.367188 0.365234,1.365234 6.0625,3.5 1.732422,1 2.597656,1.5 0.15625,0.08984 c -0.232141,1.246903 0.344941,2.505067 1.441406,3.142578 1.434674,0.828212 3.269097,0.336818 4.097657,-1.097656 0.828212,-1.434675 0.336817,-3.269098 -1.097657,-4.097657 -1.100659,-0.635939 -2.482627,-0.509167 -3.449218,0.316407 l -2.746094,-1.585938 1.589844,-2.753906 c 1.246903,0.232141 2.505067,-0.344941 3.142578,-1.441406 0.827885,-1.435186 0.335573,-3.269767 -1.09961,-4.097657 -0.390101,-0.225634 -0.826023,-0.360483 -1.27539,-0.394531 z m -0.38086,1.5 c 0.31492,-0.03281 0.632145,0.03487 0.90625,0.19336 0.717946,0.41361 0.96456,1.330979 0.550782,2.048828 -0.414333,0.71841 -1.33301,0.964265 -2.050782,0.548828 -0.717237,-0.41428 -0.962934,-1.331491 -0.548828,-2.048828 0.240051,-0.416073 0.664851,-0.692011 1.142578,-0.742188 z M 12,36 v 2 H 35 V 36 Z M 44,40.804688 41,46 H 12 v 2 h 29 c 1.044045,0.001 1.472677,-0.599633 1.732422,-1 l 3,-5.195312 z m 7.771484,0.77539 c 0.31492,-0.03281 0.632145,0.03487 0.90625,0.19336 0.717237,0.41428 0.962934,1.331491 0.548828,2.048828 -0.41428,0.717237 -1.331491,0.962934 -2.048828,0.548828 -0.717237,-0.41428 -0.962934,-1.331491 -0.548828,-2.048828 0.240051,-0.416073 0.664851,-0.692011 1.142578,-0.742188 z"
     sodipodi:nodetypes="sscccssccssssscccssccssssscccccscccccccccccccccccccccccccccccccccccccccccccccccccc" />
</svg>
