<?xml version="1.0" encoding="UTF-8" standalone="no"?>
<svg
   viewbox="0 0 200 200"
   version="1.1"
   id="svg4"
   sodipodi:docname="pidgin.svg"
   width="64"
   height="64"
   inkscape:version="1.1.1 (3bf5ae0d25, 2021-09-20, custom)"
   xmlns:inkscape="http://www.inkscape.org/namespaces/inkscape"
   xmlns:sodipodi="http://sodipodi.sourceforge.net/DTD/sodipodi-0.dtd"
   xmlns:xlink="http://www.w3.org/1999/xlink"
   xmlns="http://www.w3.org/2000/svg"
   xmlns:svg="http://www.w3.org/2000/svg">
  <defs
     id="defs8">
    <linearGradient
       inkscape:collect="always"
       id="linearGradient2959">
      <stop
         style="stop-color:#d13ab4;stop-opacity:1;"
         offset="0"
         id="stop2955" />
      <stop
         style="stop-color:#d13ab4;stop-opacity:0;"
         offset="1"
         id="stop2957" />
    </linearGradient>
    <radialGradient
       inkscape:collect="always"
       xlink:href="#linearGradient2959"
       id="radialGradient2961"
       cx="8"
       cy="54"
       fx="8"
       fy="54"
       r="30"
       gradientUnits="userSpaceOnUse"
       gradientTransform="matrix(0,1.8666667,-1.8000002,0,107.20001,-6.9333332)" />
  </defs>
  <sodipodi:namedview
     id="namedview6"
     pagecolor="#ffffff"
     bordercolor="#666666"
     borderopacity="1.0"
     inkscape:pageshadow="2"
     inkscape:pageopacity="0.0"
     inkscape:pagecheckerboard="0"
     showgrid="false"
     inkscape:zoom="6.0390625"
     inkscape:cx="-7.6170763"
     inkscape:cy="32.372574"
     inkscape:window-width="1920"
     inkscape:window-height="996"
     inkscape:window-x="0"
     inkscape:window-y="0"
     inkscape:window-maximized="1"
     inkscape:current-layer="svg4"
     showguides="false" />
  <path
     d="M 2,32 C 2,10.4 10.4,2 32,2 53.6,2 62,10.4 62,32 62,53.6 53.6,62 32,62 10.4,62 2,53.6 2,32"
     id="path2"
     style="stroke-width:0.3;fill:#9b1ad6;fill-opacity:1" />
  <path
     id="rect2366"
     style="fill:url(#radialGradient2961);fill-opacity:1;stroke-width:4;stroke-linecap:round;stroke-linejoin:round"
     d="M 32 2 C 10.4 2 2 10.4 2 32 C 2 53.6 10.4 62 32 62 C 53.6 62 62 53.6 62 32 C 62 10.4 53.6 2 32 2 z " />
  <path
     id="path3817"
     style="color:#000000;fill:#ffffff;stroke:none;stroke-width:0.99356;stroke-linecap:round;stroke-linejoin:round;-inkscape-stroke:none"
     d="M 17 16 C 14.783999 16 13 17.783999 13 20 L 13 44 L 15 44 L 15 20 C 15 18.892 15.892 18 17 18 L 51 18 L 51 16 L 17 16 z M 49 22 L 49 38 C 49 40.216 47.216 42 45 42 L 26 42 L 15.210938 50.535156 L 16.599609 52.111328 L 26.753906 44 L 45 44 C 48.324 44 50.587709 41.298332 51 38 L 51 22 L 49 22 z M 26.5 24 A 1.5 1.5 0 0 0 25 25.5 A 1.5 1.5 0 0 0 26.5 27 A 1.5 1.5 0 0 0 28 25.5 A 1.5 1.5 0 0 0 26.5 24 z M 37.5 24 A 1.5 1.5 0 0 0 36 25.5 A 1.5 1.5 0 0 0 37.5 27 A 1.5 1.5 0 0 0 39 25.5 A 1.5 1.5 0 0 0 37.5 24 z M 27.050781 31.949219 L 25.652344 33.347656 A 9 9 0 0 0 32 36 A 9 9 0 0 0 38.347656 33.347656 L 36.949219 31.949219 A 7 7 0 0 1 32 34 A 7 7 0 0 1 27.050781 31.949219 z " />
</svg>
