<?xml version="1.0" encoding="UTF-8" standalone="no"?>
<svg
   viewbox="0 0 200 200"
   version="1.1"
   id="svg4"
   sodipodi:docname="plasmadiscover.svg"
   width="64"
   height="64"
   inkscape:version="1.1.1 (3bf5ae0d25, 2021-09-20, custom)"
   xmlns:inkscape="http://www.inkscape.org/namespaces/inkscape"
   xmlns:sodipodi="http://sodipodi.sourceforge.net/DTD/sodipodi-0.dtd"
   xmlns:xlink="http://www.w3.org/1999/xlink"
   xmlns="http://www.w3.org/2000/svg"
   xmlns:svg="http://www.w3.org/2000/svg">
  <defs
     id="defs8">
    <linearGradient
       inkscape:collect="always"
       id="linearGradient11127">
      <stop
         style="stop-color:#2efaae;stop-opacity:1"
         offset="0"
         id="stop11123" />
      <stop
         style="stop-color:#22faae;stop-opacity:0.56470591"
         offset="0.5"
         id="stop11195" />
      <stop
         style="stop-color:#2efaae;stop-opacity:0"
         offset="1"
         id="stop11125" />
    </linearGradient>
    <linearGradient
       inkscape:collect="always"
       id="linearGradient7945">
      <stop
         style="stop-color:#82ddb5;stop-opacity:1"
         offset="0"
         id="stop7941" />
      <stop
         style="stop-color:#82ddb5;stop-opacity:0.60000002"
         offset="0.5"
         id="stop8910" />
      <stop
         style="stop-color:#82ddb5;stop-opacity:0"
         offset="1"
         id="stop7943" />
    </linearGradient>
    <linearGradient
       inkscape:collect="always"
       id="linearGradient6212">
      <stop
         style="stop-color:#03a9ff;stop-opacity:1"
         offset="0"
         id="stop6208" />
      <stop
         style="stop-color:#03a9ff;stop-opacity:0.50196081"
         offset="0.5"
         id="stop6536" />
      <stop
         style="stop-color:#03a9ff;stop-opacity:0"
         offset="1"
         id="stop6210" />
    </linearGradient>
    <radialGradient
       inkscape:collect="always"
       xlink:href="#linearGradient6212"
       id="radialGradient3697"
       cx="-1.4092577"
       cy="55.554527"
       fx="-1.4092577"
       fy="55.554527"
       r="30"
       gradientUnits="userSpaceOnUse"
       gradientTransform="matrix(-0.66463655,0.78591697,-1.0490369,-0.88715255,79.149364,51.350238)" />
    <radialGradient
       inkscape:collect="always"
       xlink:href="#linearGradient7945"
       id="radialGradient7947"
       cx="4.8273349"
       cy="29.936211"
       fx="4.8273349"
       fy="29.936211"
       r="30"
       gradientUnits="userSpaceOnUse"
       gradientTransform="matrix(-1.3507606,-1.5488561,1.1072914,-0.96567074,39.44815,70.932583)" />
    <radialGradient
       inkscape:collect="always"
       xlink:href="#linearGradient11127"
       id="radialGradient11129"
       cx="-11.710697"
       cy="30.199078"
       fx="-11.710697"
       fy="30.199078"
       r="30"
       gradientTransform="matrix(0.61319227,-0.72062853,0.76960319,0.65486537,15.832085,34.165494)"
       gradientUnits="userSpaceOnUse" />
  </defs>
  <sodipodi:namedview
     id="namedview6"
     pagecolor="#ffffff"
     bordercolor="#666666"
     borderopacity="1.0"
     inkscape:pageshadow="2"
     inkscape:pageopacity="0.0"
     inkscape:pagecheckerboard="0"
     showgrid="false"
     inkscape:zoom="3.0195313"
     inkscape:cx="-57.956015"
     inkscape:cy="32.952135"
     inkscape:window-width="1920"
     inkscape:window-height="996"
     inkscape:window-x="0"
     inkscape:window-y="0"
     inkscape:window-maximized="1"
     inkscape:current-layer="svg4"
     showguides="false" />
  <path
     d="M 2,32 C 2,10.4 10.4,2 32,2 53.6,2 62,10.4 62,32 62,53.6 53.6,62 32,62 10.4,62 2,53.6 2,32"
     id="path2"
     style="stroke-width:0.3;fill:#0dceff;fill-opacity:1" />
  <path
     id="rect10140"
     style="fill:url(#radialGradient11129);fill-opacity:1;stroke-linecap:round;stroke-linejoin:round"
     d="M 32,2 C 10.4,2 2,10.4 2,31.999999 c 0,21.599992 8.4,30.000002 30,30.000002 21.6,0 30,-8.40001 30,-30.000002 C 62,10.4 53.6,2 32,2 Z" />
  <path
     id="rect7310"
     style="fill:url(#radialGradient7947);fill-opacity:1;stroke-linecap:round;stroke-linejoin:round"
     d="M 32,2 C 10.400003,2 2.0000027,10.400001 2.0000027,31.999999 c 0,21.6 8.4000003,30.000004 29.9999973,30.000004 21.600014,0 30.000004,-8.400004 30.000004,-30.000004 C 62.000004,10.400001 53.600014,2 32,2 Z" />
  <path
     id="rect3608"
     style="fill:url(#radialGradient3697);fill-opacity:1;stroke-linecap:round;stroke-linejoin:round"
     d="M 32,2 C 10.400003,2 2.000003,10.400001 2.000003,31.999998 c 0,21.6 8.4,30.000005 29.999997,30.000005 21.60001,0 29.999994,-8.400005 29.999994,-30.000005 C 61.999994,10.400001 53.60001,2 32,2 Z" />
  <path
     id="rect7614"
     style="fill:#ffffff;stroke-width:4;stroke-linecap:round;stroke-linejoin:round"
     d="M 32 12 C 27.581722 12 24 15.581722 24 20 L 24 22 L 18 22 C 16.892 22 16 22.892 16 24 L 16 42 C 16 46.432 19.568 50 24 50 L 40 50 C 44.432 50 48 46.432 48 42 L 48 24 C 48 22.892 47.108 22 46 22 L 43 22 L 43 24 L 46 24 L 46 42 C 46 45.324 43.324 48 40 48 L 24 48 C 20.676 48 18 45.324 18 42 L 18 24 L 24 24 L 24 30 L 26 30 L 26 24 L 26 22 L 26 20 C 26 16.686292 28.686292 14 32 14 C 35.313708 14 38 16.686292 38 20 L 38 22 L 29 22 L 29 24 L 38 24 L 38 30 L 40 30 L 40 24 L 40 22 L 40 20 C 40 15.581722 36.418278 12 32 12 z " />
</svg>
