<?xml version="1.0" encoding="UTF-8" standalone="no"?>
<svg
   viewbox="0 0 200 200"
   version="1.1"
   id="svg4"
   sodipodi:docname="preferences-desktop-plasma.svg"
   width="64"
   height="64"
   inkscape:version="1.1.1 (3bf5ae0d25, 2021-09-20, custom)"
   xmlns:inkscape="http://www.inkscape.org/namespaces/inkscape"
   xmlns:sodipodi="http://sodipodi.sourceforge.net/DTD/sodipodi-0.dtd"
   xmlns="http://www.w3.org/2000/svg"
   xmlns:svg="http://www.w3.org/2000/svg">
  <defs
     id="defs8" />
  <sodipodi:namedview
     id="namedview6"
     pagecolor="#ffffff"
     bordercolor="#666666"
     borderopacity="1.0"
     inkscape:pageshadow="2"
     inkscape:pageopacity="0.0"
     inkscape:pagecheckerboard="0"
     showgrid="false"
     inkscape:zoom="11.313708"
     inkscape:cx="21.124815"
     inkscape:cy="38.404737"
     inkscape:window-width="1920"
     inkscape:window-height="1000"
     inkscape:window-x="0"
     inkscape:window-y="0"
     inkscape:window-maximized="1"
     inkscape:current-layer="svg4"
     showguides="true" />
  <path
     d="M 2,32 C 2,10.4 10.4,2 32,2 53.6,2 62,10.4 62,32 62,53.6 53.6,62 32,62 10.4,62 2,53.6 2,32"
     id="path2"
     style="stroke-width:0.3;fill:#3cadff;fill-opacity:1" />
  <path
     id="rect844"
     style="fill:#ffffff;stroke-width:4;stroke-linecap:round;stroke-linejoin:round"
     d="m 39.389355,13.96016 c -0.783475,-0.783474 -2.044952,-0.783474 -2.828429,0 L 33.7325,16.788586 c -0.783473,0.783476 -0.783474,2.044954 0,2.828427 l 7.071068,7.071068 -7.071069,7.071069 c -0.783473,0.783473 -0.783473,2.044954 0,2.828427 l 2.828427,2.828427 c 0.783475,0.783475 2.044954,0.783475 2.828429,0 l 8.485281,-8.485281 2.828427,-2.828427 c 0.783474,-0.783475 0.783475,-2.044953 0,-2.828427 l -2.828427,-2.828428 z m -1.414214,1.414214 8.48528,8.485281 2.828429,2.828427 -2.828428,2.828426 -8.485281,8.485283 -2.828427,-2.828428 8.485281,-8.485282 -8.485281,-8.48528 z M 24.338476,13.311059 a 3,3 0 0 0 -4.24264,0 3,3 0 0 0 0,4.24264 3,3 0 0 0 4.24264,0 3,3 0 0 0 0,-4.24264 z m -1.414213,1.414213 a 1,1 0 0 1 0,1.414214 1,1 0 0 1 -1.414214,0 1,1 0 0 1 0,-1.414215 1,1 0 0 1 1.414214,1e-6 z m -4.24264,14.142136 a 4,4 0 0 0 -5.656855,0 4,4 0 0 0 0,5.656854 4,4 0 0 0 5.656854,-10e-7 4,4 0 0 0 10e-7,-5.656853 z m -1.414214,1.414213 a 2,2 0 0 1 0,2.828427 2,2 0 0 1 -2.828428,10e-7 2,2 0 0 1 0,-2.828428 2,2 0 0 1 2.828428,0 z m 13.435028,13.435028 a 5,5 0 0 0 -7.071067,1e-6 5,5 0 0 0 0,7.071068 5,5 0 0 0 7.071066,0 5,5 0 0 0 1e-6,-7.071069 z m -1.414213,1.414215 a 3,3 0 0 1 0,4.242641 3,3 0 0 1 -4.242641,0 3,3 0 0 1 0,-4.242641 3,3 0 0 1 4.242641,0 z" />
</svg>
