<?xml version="1.0" encoding="UTF-8" standalone="no"?>
<svg
   viewbox="0 0 200 200"
   version="1.1"
   id="svg4"
   sodipodi:docname="pling-store.svg"
   width="64"
   height="64"
   inkscape:version="1.1.1 (3bf5ae0d25, 2021-09-20, custom)"
   xmlns:inkscape="http://www.inkscape.org/namespaces/inkscape"
   xmlns:sodipodi="http://sodipodi.sourceforge.net/DTD/sodipodi-0.dtd"
   xmlns:xlink="http://www.w3.org/1999/xlink"
   xmlns="http://www.w3.org/2000/svg"
   xmlns:svg="http://www.w3.org/2000/svg">
  <defs
     id="defs8">
    <linearGradient
       inkscape:collect="always"
       id="linearGradient2166">
      <stop
         style="stop-color:#f38e26;stop-opacity:1;"
         offset="0"
         id="stop2162" />
      <stop
         style="stop-color:#f3c626;stop-opacity:1"
         offset="1"
         id="stop2164" />
    </linearGradient>
    <linearGradient
       inkscape:collect="always"
       xlink:href="#linearGradient2166"
       id="linearGradient2168"
       x1="8"
       y1="54"
       x2="56"
       y2="10"
       gradientUnits="userSpaceOnUse" />
  </defs>
  <sodipodi:namedview
     id="namedview6"
     pagecolor="#ffffff"
     bordercolor="#666666"
     borderopacity="1.0"
     inkscape:pageshadow="2"
     inkscape:pageopacity="0.0"
     inkscape:pagecheckerboard="0"
     showgrid="false"
     inkscape:zoom="6.0390625"
     inkscape:cx="-8.7761966"
     inkscape:cy="50.256145"
     inkscape:window-width="1920"
     inkscape:window-height="996"
     inkscape:window-x="0"
     inkscape:window-y="0"
     inkscape:window-maximized="1"
     inkscape:current-layer="svg4"
     showguides="false" />
  <path
     d="M 2,32 C 2,10.4 10.4,2 32,2 53.6,2 62,10.4 62,32 62,53.6 53.6,62 32,62 10.4,62 2,53.6 2,32"
     id="path2"
     style="stroke-width:0.3;fill:url(#linearGradient2168);fill-opacity:1" />
  <path
     id="rect7614"
     style="fill:#ffffff;stroke-width:4;stroke-linecap:round;stroke-linejoin:round"
     d="M 32 12 C 27.581722 12 24 15.581722 24 20 L 24 22 L 18 22 C 16.892 22 16 22.892 16 24 L 16 42 C 16 46.432 19.568 50 24 50 L 40 50 C 44.432 50 48 46.432 48 42 L 48 24 C 48 22.892 47.108 22 46 22 L 43 22 L 43 24 L 46 24 L 46 42 C 46 45.324 43.324 48 40 48 L 24 48 C 20.676 48 18 45.324 18 42 L 18 24 L 24 24 L 24 30 L 26 30 L 26 24 L 26 22 L 26 20 C 26 16.686292 28.686292 14 32 14 C 35.313708 14 38 16.686292 38 20 L 38 22 L 29 22 L 29 24 L 38 24 L 38 30 L 40 30 L 40 24 L 40 22 L 40 20 C 40 15.581722 36.418278 12 32 12 z M 32 31.140625 C 29.296367 31.144836 27.085802 33.297433 27.009766 36 L 27 36 L 27 36.140625 L 27 45 L 29 45 L 29 36 C 29 34.343146 30.343146 33 32 33 C 33.656854 33 35 34.343146 35 36 C 35 37.656854 33.656854 39 32 39 L 32 41.140625 C 34.761424 41.140625 37 38.902049 37 36.140625 C 37 33.379201 34.761424 31.140625 32 31.140625 z " />
</svg>
