<?xml version="1.0" encoding="UTF-8" standalone="no"?>
<svg
   viewbox="0 0 200 200"
   version="1.1"
   id="svg4"
   sodipodi:docname="polari.svg"
   width="64"
   height="64"
   inkscape:version="1.1.1 (3bf5ae0d25, 2021-09-20, custom)"
   xmlns:inkscape="http://www.inkscape.org/namespaces/inkscape"
   xmlns:sodipodi="http://sodipodi.sourceforge.net/DTD/sodipodi-0.dtd"
   xmlns:xlink="http://www.w3.org/1999/xlink"
   xmlns="http://www.w3.org/2000/svg"
   xmlns:svg="http://www.w3.org/2000/svg">
  <defs
     id="defs8">
    <linearGradient
       inkscape:collect="always"
       id="linearGradient2036">
      <stop
         style="stop-color:#abdb60;stop-opacity:1;"
         offset="0"
         id="stop2032" />
      <stop
         style="stop-color:#abdb60;stop-opacity:0;"
         offset="1"
         id="stop2034" />
    </linearGradient>
    <radialGradient
       inkscape:collect="always"
       xlink:href="#linearGradient2036"
       id="radialGradient2038"
       cx="8"
       cy="54"
       fx="8"
       fy="54"
       r="30"
       gradientUnits="userSpaceOnUse"
       gradientTransform="matrix(0,2.3333333,-2.0000002,0,118,-10.666666)" />
  </defs>
  <sodipodi:namedview
     id="namedview6"
     pagecolor="#ffffff"
     bordercolor="#666666"
     borderopacity="1.0"
     inkscape:pageshadow="2"
     inkscape:pageopacity="0.0"
     inkscape:pagecheckerboard="0"
     showgrid="false"
     inkscape:zoom="5.6568542"
     inkscape:cx="14.672466"
     inkscape:cy="49.939416"
     inkscape:window-width="1920"
     inkscape:window-height="996"
     inkscape:window-x="0"
     inkscape:window-y="0"
     inkscape:window-maximized="1"
     inkscape:current-layer="svg4"
     showguides="true" />
  <path
     d="M 2,32 C 2,10.4 10.4,2 32,2 53.6,2 62,10.4 62,32 62,53.6 53.6,62 32,62 10.4,62 2,53.6 2,32"
     id="path2"
     style="stroke-width:0.3;fill:#0bcf76;fill-opacity:1" />
  <path
     id="rect871"
     style="fill:url(#radialGradient2038);stroke-width:4;stroke-linecap:round;stroke-linejoin:round;fill-opacity:1"
     d="M 32 2 C 10.4 2 2 10.4 2 32 C 2 53.6 10.4 62 32 62 C 53.6 62 62 53.6 62 32 C 62 10.4 53.6 2 32 2 z " />
  <path
     id="path3817"
     style="color:#000000;fill:#ffffff;stroke:none;stroke-width:0.99356;stroke-linecap:round;stroke-linejoin:round;-inkscape-stroke:none"
     d="M 17 16 C 14.783999 16 13 17.783999 13 20 L 13 44 L 15 44 L 15 20 C 15 18.892 15.892 18 17 18 L 51 18 L 51 16 L 17 16 z M 29 21 L 28.554688 25 L 24 25 L 24 27 L 28.333984 27 L 27.666016 33 L 24 33 L 24 35 L 27.445312 35 L 27 39 L 29 39 L 29.445312 35 L 33.445312 35 L 33 39 L 35 39 L 35.445312 35 L 40 35 L 40 33 L 35.666016 33 L 36.333984 27 L 40 27 L 40 25 L 36.554688 25 L 37 21 L 35 21 L 34.554688 25 L 30.554688 25 L 31 21 L 29 21 z M 49 22 L 49 38 C 49 40.216 47.216 42 45 42 L 26 42 L 15.210938 50.535156 L 16.599609 52.111328 L 26.753906 44 L 45 44 C 48.324 44 50.587709 41.298332 51 38 L 51 22 L 49 22 z M 30.333984 27 L 34.333984 27 L 33.666016 33 L 29.666016 33 L 30.333984 27 z " />
</svg>
