<?xml version="1.0" encoding="UTF-8" standalone="no"?>
<svg
   viewbox="0 0 200 200"
   version="1.1"
   id="svg4"
   sodipodi:docname="redshift.svg"
   width="64"
   height="64"
   inkscape:version="1.1.1 (3bf5ae0d25, 2021-09-20, custom)"
   xmlns:inkscape="http://www.inkscape.org/namespaces/inkscape"
   xmlns:sodipodi="http://sodipodi.sourceforge.net/DTD/sodipodi-0.dtd"
   xmlns:xlink="http://www.w3.org/1999/xlink"
   xmlns="http://www.w3.org/2000/svg"
   xmlns:svg="http://www.w3.org/2000/svg">
  <defs
     id="defs8">
    <linearGradient
       inkscape:collect="always"
       id="linearGradient4763">
      <stop
         style="stop-color:#e5c807;stop-opacity:1;"
         offset="0"
         id="stop4759" />
      <stop
         style="stop-color:#e5c807;stop-opacity:0;"
         offset="1"
         id="stop4761" />
    </linearGradient>
    <radialGradient
       inkscape:collect="always"
       xlink:href="#linearGradient4763"
       id="radialGradient4765"
       cx="2.2307689"
       cy="62.444443"
       fx="2.2307689"
       fy="62.444443"
       r="30"
       gradientUnits="userSpaceOnUse"
       gradientTransform="matrix(0,-1.7333333,1.8000004,0,-46.400011,69.866666)" />
  </defs>
  <sodipodi:namedview
     id="namedview6"
     pagecolor="#ffffff"
     bordercolor="#666666"
     borderopacity="1.0"
     inkscape:pageshadow="2"
     inkscape:pageopacity="0.0"
     inkscape:pagecheckerboard="0"
     showgrid="false"
     inkscape:zoom="6.0390625"
     inkscape:cx="5.2988357"
     inkscape:cy="25.252264"
     inkscape:window-width="1920"
     inkscape:window-height="996"
     inkscape:window-x="0"
     inkscape:window-y="0"
     inkscape:window-maximized="1"
     inkscape:current-layer="svg4"
     showguides="false"
     inkscape:lockguides="false" />
  <path
     d="M 2,32 C 2,10.4 10.4,2 32,2 53.6,2 62,10.4 62,32 62,53.6 53.6,62 32,62 10.4,62 2,53.6 2,32"
     id="path2"
     style="stroke-width:0.3;fill:#f44848;fill-opacity:1;stroke:none" />
  <path
     id="rect3877"
     style="fill:url(#radialGradient4765);fill-opacity:1;stroke-width:4;stroke-linecap:round;stroke-linejoin:round"
     d="M 32 2 C 10.4 2 2 10.4 2 32 C 2 53.6 10.4 62 32 62 C 53.599998 62 62 53.6 62 32 C 62 10.4 53.599998 2 32 2 z " />
  <path
     id="path1044"
     style="fill:#ffffff;fill-opacity:1;stroke-width:3.85794;stroke-linecap:round;stroke-linejoin:round"
     d="M 32 14 C 24.820298 14 19 19.820298 19 27 C 19.01024 32.238869 22.164108 36.959666 27 38.974609 L 27 44 L 27 46 C 27 47.108 27.892 48 29 48 L 29.179688 48 A 3 3 0 0 0 32 50 A 3 3 0 0 0 34.820312 48 L 35 48 C 36.108 48 37 47.108 37 46 L 37 44 L 37 38.974609 C 41.835892 36.959666 44.989763 32.238869 45 27 C 45 19.820298 39.179702 14 32 14 z M 32 16 A 11 11 0 0 1 43 27 A 11 11 0 0 1 35 37.576172 L 35 42 L 29 42 L 29 37.576172 A 11 11 0 0 1 21 27 A 11 11 0 0 1 32 16 z M 29 44 L 35 44 L 35 46 C 35 46.277 34.777 46.5 34.5 46.5 L 34 46.5 C 33.269594 46.5011 32.999166 46.824214 33 47 C 33 47.552285 32.552285 48 32 48 C 31.447715 48 31 47.552285 31 47 C 31.000834 46.824214 30.730406 46.5011 30 46.5 L 29.5 46.5 C 29.223 46.5 29 46.277 29 46 L 29 44 z " />
</svg>
