<?xml version="1.0" encoding="UTF-8" standalone="no"?>
<svg
   viewbox="0 0 200 200"
   version="1.1"
   id="svg4"
   sodipodi:docname="shotwell.svg"
   width="64"
   height="64"
   inkscape:version="1.1.1 (3bf5ae0d25, 2021-09-20, custom)"
   xmlns:inkscape="http://www.inkscape.org/namespaces/inkscape"
   xmlns:sodipodi="http://sodipodi.sourceforge.net/DTD/sodipodi-0.dtd"
   xmlns:xlink="http://www.w3.org/1999/xlink"
   xmlns="http://www.w3.org/2000/svg"
   xmlns:svg="http://www.w3.org/2000/svg">
  <defs
     id="defs8">
    <linearGradient
       inkscape:collect="always"
       id="linearGradient2444">
      <stop
         style="stop-color:#51bed3;stop-opacity:1"
         offset="0"
         id="stop2440" />
      <stop
         style="stop-color:#51bed3;stop-opacity:0"
         offset="1"
         id="stop2442" />
    </linearGradient>
    <linearGradient
       inkscape:collect="always"
       id="linearGradient8746">
      <stop
         style="stop-color:#89d6e0;stop-opacity:1"
         offset="0"
         id="stop8742" />
      <stop
         style="stop-color:#3970cd;stop-opacity:1"
         offset="1"
         id="stop8744" />
    </linearGradient>
    <linearGradient
       inkscape:collect="always"
       xlink:href="#linearGradient8746"
       id="linearGradient851"
       x1="10"
       y1="56"
       x2="54"
       y2="8"
       gradientUnits="userSpaceOnUse" />
    <radialGradient
       inkscape:collect="always"
       xlink:href="#linearGradient2444"
       id="radialGradient2448"
       cx="10"
       cy="56"
       fx="10"
       fy="56"
       r="30"
       gradientUnits="userSpaceOnUse"
       gradientTransform="matrix(0,-1.2,1.2000001,0,-11.200002,66)" />
  </defs>
  <sodipodi:namedview
     id="namedview6"
     pagecolor="#ffffff"
     bordercolor="#666666"
     borderopacity="1.0"
     inkscape:pageshadow="2"
     inkscape:pageopacity="0.0"
     inkscape:pagecheckerboard="0"
     showgrid="false"
     inkscape:zoom="3.2375"
     inkscape:cx="11.428571"
     inkscape:cy="70.888031"
     inkscape:window-width="1920"
     inkscape:window-height="1000"
     inkscape:window-x="0"
     inkscape:window-y="0"
     inkscape:window-maximized="1"
     inkscape:current-layer="svg4"
     showguides="false" />
  <path
     d="M 2,32 C 2,10.4 10.4,2 32,2 53.6,2 62,10.4 62,32 62,53.6 53.6,62 32,62 10.4,62 2,53.6 2,32"
     id="path2"
     style="stroke-width:0.3;fill:url(#linearGradient851);fill-opacity:1" />
  <path
     id="rect2249"
     style="fill:url(#radialGradient2448);fill-opacity:1;stroke-width:4;stroke-linecap:round;stroke-linejoin:round"
     d="M 32 2 C 10.400002 2 2 10.4 2 32 C 2 53.6 10.400001 62 32 62 C 53.600001 62 62 53.6 62 32 C 62 10.4 53.600001 2 32 2 z " />
  <path
     id="rect853"
     style="fill:#ffffff;stroke-width:4;stroke-linecap:round;stroke-linejoin:round"
     d="m 15,13 c -1.108,0 -2,0.892 -2,2 v 36 h 2 V 15 h 36 v -2 z m 8,5 c -2.761424,0 -5,2.238576 -5,5 0,2.761424 2.238576,5 5,5 2.761424,0 5,-2.238576 5,-5 0,-2.761424 -2.238576,-5 -5,-5 z m 0,2 c 1.656854,0 3,1.343146 3,3 0,1.656854 -1.343146,3 -3,3 -1.656854,0 -3,-1.343146 -3,-3 0,-1.656854 1.343146,-3 3,-3 z m 26,2 v 24 c 0,1.662 -1.338,3 -3,3 H 34 v -7.539062 l 2.914062,-3.472657 0.04102,0.03516 5.910156,-1.042969 -0.347656,-1.96875 -3.644531,0.642578 1.087891,-1.296875 0.720703,-1.980469 2.541015,-0.222656 -0.173828,-1.992188 -1.613281,0.140625 0.576172,-1.583984 -1.878907,-0.683594 -1.93164,5.308594 -1.533203,1.826172 -3.023438,-2.535156 -1.285156,1.53125 3.021484,2.537109 L 33.453125,39 29.9375,36.970703 28.078125,30.029297 26.146484,30.546875 27.488281,35.556641 21.328125,32 l -1,1.732422 3.380859,1.96289 -3.226562,1.863282 1,1.730468 4.226562,-2.439453 L 32,40.470703 V 49 h -9.5 v 2 H 46 c 2.77,0 5,-2.23 5,-5 V 22 Z"
     sodipodi:nodetypes="sscccccssssssssssscssccccccccccccccccccccccccccccccccccsscc" />
</svg>
