<?xml version="1.0" encoding="UTF-8" standalone="no"?>
<svg
   viewbox="0 0 200 200"
   version="1.1"
   id="svg4"
   sodipodi:docname="showfot.svg"
   width="64"
   height="64"
   inkscape:version="1.1.1 (3bf5ae0d25, 2021-09-20, custom)"
   xmlns:inkscape="http://www.inkscape.org/namespaces/inkscape"
   xmlns:sodipodi="http://sodipodi.sourceforge.net/DTD/sodipodi-0.dtd"
   xmlns:xlink="http://www.w3.org/1999/xlink"
   xmlns="http://www.w3.org/2000/svg"
   xmlns:svg="http://www.w3.org/2000/svg">
  <defs
     id="defs8">
    <linearGradient
       inkscape:collect="always"
       id="linearGradient1527">
      <stop
         style="stop-color:#feb839;stop-opacity:1"
         offset="0"
         id="stop1523" />
      <stop
         style="stop-color:#df5400;stop-opacity:1"
         offset="1"
         id="stop1525" />
    </linearGradient>
    <linearGradient
       inkscape:collect="always"
       xlink:href="#linearGradient1527"
       id="linearGradient1529"
       x1="56"
       y1="10"
       x2="8"
       y2="54"
       gradientUnits="userSpaceOnUse" />
  </defs>
  <sodipodi:namedview
     id="namedview6"
     pagecolor="#ffffff"
     bordercolor="#666666"
     borderopacity="1.0"
     inkscape:pageshadow="2"
     inkscape:pageopacity="0.0"
     inkscape:pagecheckerboard="0"
     showgrid="false"
     inkscape:zoom="11.313709"
     inkscape:cx="21.831921"
     inkscape:cy="35.753085"
     inkscape:window-width="1920"
     inkscape:window-height="996"
     inkscape:window-x="0"
     inkscape:window-y="0"
     inkscape:window-maximized="1"
     inkscape:current-layer="svg4"
     showguides="true" />
  <path
     d="M 2,32 C 2,10.4 10.4,2 32,2 53.6,2 62,10.4 62,32 62,53.6 53.6,62 32,62 10.4,62 2,53.6 2,32"
     id="path2"
     style="stroke-width:0.3;fill:url(#linearGradient1529);fill-opacity:1" />
  <path
     id="path3817"
     style="color:#000000;fill:#ffffff;stroke:none;stroke-width:0.99356;stroke-linecap:round;stroke-linejoin:round;-inkscape-stroke:none"
     d="M 17 13 C 14.783999 13 13 14.783999 13 17 L 13 51 L 15 51 L 15 17 C 15 15.892 15.892 15 17 15 L 51 15 L 51 13 L 17 13 z M 49 19 L 49 45 C 49 47.216 47.216 49 45 49 L 19 49 L 19 51 L 45 51 C 48.324 51 51 48.324 51 45 L 51 19 L 49 19 z M 32 20 A 12 12 0 0 0 20 32 A 12 12 0 0 0 32 44 A 12 12 0 0 0 44 32 A 12 12 0 0 0 32 20 z M 32 22 A 10 10 0 0 1 42 32 A 10 10 0 0 1 32 42 A 10 10 0 0 1 22 32 A 10 10 0 0 1 32 22 z " />
</svg>
