<?xml version="1.0" encoding="UTF-8" standalone="no"?>
<svg
   viewbox="0 0 200 200"
   version="1.1"
   id="svg4"
   sodipodi:docname="software-install.svg"
   width="64"
   height="64"
   inkscape:version="1.1.1 (3bf5ae0d25, 2021-09-20, custom)"
   xmlns:inkscape="http://www.inkscape.org/namespaces/inkscape"
   xmlns:sodipodi="http://sodipodi.sourceforge.net/DTD/sodipodi-0.dtd"
   xmlns:xlink="http://www.w3.org/1999/xlink"
   xmlns="http://www.w3.org/2000/svg"
   xmlns:svg="http://www.w3.org/2000/svg">
  <defs
     id="defs8">
    <linearGradient
       inkscape:collect="always"
       id="linearGradient11127">
      <stop
         style="stop-color:#2fd1fa;stop-opacity:1"
         offset="0"
         id="stop11123" />
      <stop
         style="stop-color:#2fd1fa;stop-opacity:0.5"
         offset="0.5"
         id="stop11195" />
      <stop
         style="stop-color:#2fd1fa;stop-opacity:0;"
         offset="1"
         id="stop11125" />
    </linearGradient>
    <linearGradient
       inkscape:collect="always"
       id="linearGradient7945">
      <stop
         style="stop-color:#32a9f4;stop-opacity:1;"
         offset="0"
         id="stop7941" />
      <stop
         style="stop-color:#32a9f4;stop-opacity:0.60000002"
         offset="0.5"
         id="stop8910" />
      <stop
         style="stop-color:#32a9f4;stop-opacity:0;"
         offset="1"
         id="stop7943" />
    </linearGradient>
    <linearGradient
       inkscape:collect="always"
       id="linearGradient6212">
      <stop
         style="stop-color:#ebd13b;stop-opacity:1"
         offset="0"
         id="stop6208" />
      <stop
         style="stop-color:#edb13b;stop-opacity:0.50196081"
         offset="0.5"
         id="stop6536" />
      <stop
         style="stop-color:#edb13b;stop-opacity:0"
         offset="1"
         id="stop6210" />
    </linearGradient>
    <linearGradient
       inkscape:collect="always"
       id="linearGradient3695">
      <stop
         style="stop-color:#be3ce9;stop-opacity:1"
         offset="0"
         id="stop3691" />
      <stop
         style="stop-color:#be3ce9;stop-opacity:0.50196081"
         offset="0.5"
         id="stop3955" />
      <stop
         style="stop-color:#be3ce9;stop-opacity:0"
         offset="1"
         id="stop3693" />
    </linearGradient>
    <radialGradient
       inkscape:collect="always"
       xlink:href="#linearGradient3695"
       id="radialGradient3697"
       cx="3.9316659"
       cy="58.844296"
       fx="3.9316659"
       fy="58.844296"
       r="30"
       gradientUnits="userSpaceOnUse"
       gradientTransform="matrix(-0.69407611,0.97788704,-1.595752,-1.1326189,109.48038,65.25754)" />
    <radialGradient
       inkscape:collect="always"
       xlink:href="#linearGradient6212"
       id="radialGradient6214"
       cx="36.667667"
       cy="55.66053"
       fx="36.667667"
       fy="55.66053"
       r="30"
       gradientUnits="userSpaceOnUse"
       gradientTransform="matrix(0.76402578,-0.78400966,0.67469532,0.65749773,-33.052755,58.003008)" />
    <radialGradient
       inkscape:collect="always"
       xlink:href="#linearGradient7945"
       id="radialGradient7947"
       cx="12.111015"
       cy="36.088394"
       fx="12.111015"
       fy="36.088394"
       r="30"
       gradientUnits="userSpaceOnUse"
       gradientTransform="matrix(-1.5139714,-1.6468529,0.80485313,-0.73991087,49.289876,64.64725)" />
    <radialGradient
       inkscape:collect="always"
       xlink:href="#linearGradient11127"
       id="radialGradient11129"
       cx="9.085062"
       cy="40.252636"
       fx="9.085062"
       fy="40.252636"
       r="30"
       gradientTransform="matrix(-0.67754371,-1.5757451,1.4254813,-0.61293311,-1.9890572,96.194897)"
       gradientUnits="userSpaceOnUse" />
  </defs>
  <sodipodi:namedview
     id="namedview6"
     pagecolor="#ffffff"
     bordercolor="#666666"
     borderopacity="1.0"
     inkscape:pageshadow="2"
     inkscape:pageopacity="0.0"
     inkscape:pagecheckerboard="0"
     showgrid="false"
     inkscape:zoom="4"
     inkscape:cx="-29.5"
     inkscape:cy="59.625"
     inkscape:window-width="1920"
     inkscape:window-height="996"
     inkscape:window-x="0"
     inkscape:window-y="0"
     inkscape:window-maximized="1"
     inkscape:current-layer="svg4"
     showguides="false" />
  <path
     d="M 2,32 C 2,10.4 10.4,2 32,2 53.6,2 62,10.4 62,32 62,53.6 53.6,62 32,62 10.4,62 2,53.6 2,32"
     id="path2"
     style="stroke-width:0.3;fill:#eb423b;fill-opacity:1" />
  <path
     id="rect10140"
     style="fill:url(#radialGradient11129);fill-opacity:1;stroke-linecap:round;stroke-linejoin:round"
     d="M 32,2 C 10.4,2 1.9999999,10.4 1.9999999,32 1.9999999,53.599992 10.4,62.000002 32,62.000002 53.6,62.000002 62,53.599992 62,32 62,10.4 53.6,2 32,2 Z" />
  <path
     id="rect5801"
     style="fill:url(#radialGradient6214);fill-opacity:1;stroke-linecap:round;stroke-linejoin:round"
     d="M 32,2 C 10.4,2 2,10.4 2,32 2,53.6 10.4,62 32,62 53.6,62 62,53.6 62,32 62,10.4 53.6,2 32,2 Z" />
  <path
     id="rect7310"
     style="fill:url(#radialGradient7947);fill-opacity:1;stroke-linecap:round;stroke-linejoin:round"
     d="M 32,2 C 10.4,2 2,10.4 2,32 2,53.6 10.4,62 32,62 53.6,62 62,53.6 62,32 62,10.4 53.6,2 32,2 Z" />
  <path
     id="rect3608"
     style="fill:url(#radialGradient3697);fill-opacity:1;stroke-linecap:round;stroke-linejoin:round"
     d="M 32,2 C 10.4,2 2,10.4 2,32 2,53.6 10.4,62 32,62 53.6,62 62,53.6 62,32 62,10.4 53.6,2 32,2 Z" />
  <path
     id="rect7614"
     style="fill:#ffffff;stroke-width:4;stroke-linecap:round;stroke-linejoin:round"
     d="M 32 12 C 27.581722 12 24 15.581722 24 20 L 24 22 L 18 22 C 16.892 22 16 22.892 16 24 L 16 42 C 16 46.432 19.568 50 24 50 L 40 50 C 44.432 50 48 46.432 48 42 L 48 24 C 48 22.892 47.108 22 46 22 L 43 22 L 43 24 L 46 24 L 46 42 C 46 45.324 43.324 48 40 48 L 24 48 C 20.676 48 18 45.324 18 42 L 18 24 L 24 24 L 24 30 L 26 30 L 26 24 L 26 22 L 26 20 C 26 16.686292 28.686292 14 32 14 C 35.313708 14 38 16.686292 38 20 L 38 22 L 29 22 L 29 24 L 38 24 L 38 30 L 40 30 L 40 24 L 40 22 L 40 20 C 40 15.581722 36.418278 12 32 12 z " />
</svg>
