<?xml version="1.0" encoding="UTF-8" standalone="no"?>
<svg
   viewbox="0 0 200 200"
   version="1.1"
   id="svg4"
   sodipodi:docname="sound-recorder.svg"
   width="64"
   height="64"
   inkscape:version="1.1.1 (3bf5ae0d25, 2021-09-20, custom)"
   xmlns:inkscape="http://www.inkscape.org/namespaces/inkscape"
   xmlns:sodipodi="http://sodipodi.sourceforge.net/DTD/sodipodi-0.dtd"
   xmlns="http://www.w3.org/2000/svg"
   xmlns:svg="http://www.w3.org/2000/svg">
  <defs
     id="defs8" />
  <sodipodi:namedview
     id="namedview6"
     pagecolor="#ffffff"
     bordercolor="#666666"
     borderopacity="1.0"
     inkscape:pageshadow="2"
     inkscape:pageopacity="0.0"
     inkscape:pagecheckerboard="0"
     showgrid="false"
     inkscape:zoom="12.95"
     inkscape:cx="31.969112"
     inkscape:cy="32.007722"
     inkscape:window-width="1920"
     inkscape:window-height="1000"
     inkscape:window-x="0"
     inkscape:window-y="0"
     inkscape:window-maximized="1"
     inkscape:current-layer="svg4"
     showguides="false" />
  <path
     d="M 2,32 C 2,10.4 10.4,2 32,2 53.6,2 62,10.4 62,32 62,53.6 53.6,62 32,62 10.4,62 2,53.6 2,32"
     id="path2"
     style="stroke-width:0.3;fill:#fafafa;fill-opacity:1" />
  <path
     id="rect924"
     style="fill:#f95151;stroke-width:0.95851;stroke-linecap:round;stroke-linejoin:round;fill-opacity:1"
     d="M 29.03125,14 C 26.735816,14 24.875,15.860816 24.875,18.15625 V 24.6875 37.557496 41.3125 c 0,0.983757 -0.797493,1.78125 -1.78125,1.78125 -0.983757,0 -1.78125,-0.797493 -1.78125,-1.78125 V 37.562134 24.6875 h -2.375 v 16.625 c 0,2.295434 1.860816,4.15625 4.15625,4.15625 2.295434,0 4.15625,-1.860816 4.15625,-4.15625 V 19.531616 18.15625 c 0,-0.983757 0.797493,-1.78125 1.78125,-1.78125 0.983757,0 1.78125,0.797493 1.78125,1.78125 v 1.375366 29.874509 0.59375 h 2.375 V 18.15625 C 33.1875,15.860816 31.326684,14 29.03125,14 Z M 36.75,24.6875 v 14.25 h 2.375 v -14.25 z M 13,28.25 v 7.125 h 2.375 V 28.25 Z m 35.625,0 v 7.125 H 51 V 28.25 Z m -5.9375,1.1875 v 4.75 h 2.375 v -4.75 z"
     sodipodi:nodetypes="ssccssscccssscsssccccsscccccccccccccccccccc" />
</svg>
