<?xml version="1.0" encoding="UTF-8" standalone="no"?>
<svg
   viewbox="0 0 200 200"
   version="1.1"
   id="svg4"
   sodipodi:docname="spiceup.svg"
   width="64"
   height="64"
   inkscape:version="1.1.1 (3bf5ae0d25, 2021-09-20, custom)"
   xmlns:inkscape="http://www.inkscape.org/namespaces/inkscape"
   xmlns:sodipodi="http://sodipodi.sourceforge.net/DTD/sodipodi-0.dtd"
   xmlns="http://www.w3.org/2000/svg"
   xmlns:svg="http://www.w3.org/2000/svg">
  <defs
     id="defs8" />
  <sodipodi:namedview
     id="namedview6"
     pagecolor="#ffffff"
     bordercolor="#666666"
     borderopacity="1.0"
     inkscape:pageshadow="2"
     inkscape:pageopacity="0.0"
     inkscape:pagecheckerboard="0"
     showgrid="false"
     inkscape:zoom="9.1098924"
     inkscape:cx="11.635703"
     inkscape:cy="37.26718"
     inkscape:window-width="1920"
     inkscape:window-height="996"
     inkscape:window-x="0"
     inkscape:window-y="0"
     inkscape:window-maximized="1"
     inkscape:current-layer="svg4"
     showguides="false" />
  <path
     d="M 2,32 C 2,10.4 10.4,2 32,2 53.6,2 62,10.4 62,32 62,53.6 53.6,62 32,62 10.4,62 2,53.6 2,32"
     id="path2"
     style="stroke-width:0.3;fill:#2a6bd4;fill-opacity:1" />
  <path
     id="path3817"
     style="color:#000000;fill:#ffffff;stroke:none;stroke-width:0.99356;stroke-linecap:round;stroke-linejoin:round;-inkscape-stroke:none"
     d="M 10 17 L 10 19 L 14 19 L 14 43 L 16 43 L 16 19 L 54 19 L 54 17 L 10 17 z M 48 21 L 48 45 L 10 45 L 10 47 L 54 47 L 54 45 L 50 45 L 50 21 L 48 21 z M 26.4375 22 L 25.498047 23.771484 L 36.744141 30.683594 C 37.078722 30.873372 37.078722 31.349288 36.744141 31.539062 L 28.246094 37.462891 C 27.913006 37.650722 27.496575 37.413891 27.496094 37.035156 L 27.496094 27.228516 L 25.496094 27.228516 L 25.496094 38.021484 C 25.495592 39.545713 27.170335 40.496355 28.503906 39.728516 L 38.501953 32.816406 C 39.826769 32.054742 39.826769 30.165961 38.501953 29.404297 L 26.4375 22 z " />
</svg>
