<?xml version="1.0" encoding="UTF-8" standalone="no"?>
<svg
   viewbox="0 0 200 200"
   version="1.1"
   id="svg4"
   sodipodi:docname="system-help.svg"
   width="64"
   height="64"
   inkscape:version="1.1.1 (3bf5ae0d25, 2021-09-20, custom)"
   xmlns:inkscape="http://www.inkscape.org/namespaces/inkscape"
   xmlns:sodipodi="http://sodipodi.sourceforge.net/DTD/sodipodi-0.dtd"
   xmlns="http://www.w3.org/2000/svg"
   xmlns:svg="http://www.w3.org/2000/svg">
  <defs
     id="defs8" />
  <sodipodi:namedview
     id="namedview6"
     pagecolor="#ffffff"
     bordercolor="#666666"
     borderopacity="1.0"
     inkscape:pageshadow="2"
     inkscape:pageopacity="0.0"
     inkscape:pagecheckerboard="0"
     showgrid="false"
     inkscape:zoom="12.883333"
     inkscape:cx="31.979302"
     inkscape:cy="32.018112"
     inkscape:window-width="1920"
     inkscape:window-height="1000"
     inkscape:window-x="0"
     inkscape:window-y="0"
     inkscape:window-maximized="1"
     inkscape:current-layer="svg4"
     showguides="false" />
  <path
     d="M 2,32 C 2,10.4 10.4,2 32,2 53.6,2 62,10.4 62,32 62,53.6 53.6,62 32,62 10.4,62 2,53.6 2,32"
     id="path2"
     style="stroke-width:0.3;fill:#cfa772;fill-opacity:1" />
  <path
     id="path3817"
     style="color:#000000;fill:#ffffff;stroke:none;stroke-width:0.99356;stroke-linecap:round;stroke-linejoin:round;-inkscape-stroke:none"
     d="M 20 13 C 17.783999 13 16 14.783999 16 17 L 16 51 L 18 51 L 18 17 C 18 15.892 18.893912 14.934936 20 15 L 23 15 L 23 49 L 20 49 L 20 51 L 42 51 C 45.324 51 48 48.324 48 45 L 48 19 L 46 19 L 46 45 C 46 47.216 44.216 49 42 49 L 25 49 L 25 15 L 48 15 L 48 13 L 20 13 z M 34.974609 23 C 33.505878 23 32.312553 23.403942 31.392578 24.210938 C 30.480673 25.009863 30.016139 26.061808 30 27.369141 L 32.240234 27.369141 C 32.240234 26.634775 32.489897 26.051012 32.990234 25.615234 C 33.490571 25.179457 34.151474 24.960938 34.974609 24.960938 C 35.821955 24.960937 36.468262 25.203303 36.912109 25.6875 C 37.355957 26.163627 37.578125 26.82453 37.578125 27.671875 C 37.578125 28.5515 37.238423 29.375933 36.560547 30.142578 L 34.974609 31.775391 C 34.353223 32.453267 33.941984 33.072079 33.740234 33.628906 C 33.538486 34.185733 33.430203 34.943972 33.414062 35.904297 L 35.652344 35.904297 C 35.652344 34.677664 35.948003 33.73765 36.537109 33.083984 L 37.855469 31.775391 C 39.162801 30.403499 39.816406 29.011851 39.816406 27.599609 C 39.816406 26.171227 39.388618 25.04944 38.533203 24.234375 C 37.685858 23.41124 36.499831 23 34.974609 23 z M 34.636719 38.457031 C 34.200941 38.457031 33.87049 38.583816 33.644531 38.833984 C 33.426643 39.076083 33.316406 39.377086 33.316406 39.740234 C 33.316406 40.103382 33.426643 40.406339 33.644531 40.648438 C 33.87049 40.882466 34.200941 41 34.636719 41 C 35.072496 41 35.402947 40.882466 35.628906 40.648438 C 35.854865 40.406339 35.966797 40.103382 35.966797 39.740234 C 35.966797 39.377086 35.854865 39.076083 35.628906 38.833984 C 35.402947 38.583816 35.072496 38.457031 34.636719 38.457031 z " />
</svg>
