<?xml version="1.0" encoding="UTF-8" standalone="no"?>
<svg
   viewbox="0 0 200 200"
   version="1.1"
   id="svg4"
   sodipodi:docname="system-search.svg"
   width="64"
   height="64"
   inkscape:version="1.1.1 (3bf5ae0d25, 2021-09-20, custom)"
   xmlns:inkscape="http://www.inkscape.org/namespaces/inkscape"
   xmlns:sodipodi="http://sodipodi.sourceforge.net/DTD/sodipodi-0.dtd"
   xmlns="http://www.w3.org/2000/svg"
   xmlns:svg="http://www.w3.org/2000/svg">
  <defs
     id="defs8" />
  <sodipodi:namedview
     id="namedview6"
     pagecolor="#ffffff"
     bordercolor="#666666"
     borderopacity="1.0"
     inkscape:pageshadow="2"
     inkscape:pageopacity="0.0"
     inkscape:pagecheckerboard="0"
     showgrid="false"
     inkscape:zoom="9.1570328"
     inkscape:cx="26.53698"
     inkscape:cy="28.666491"
     inkscape:window-width="1920"
     inkscape:window-height="1000"
     inkscape:window-x="0"
     inkscape:window-y="0"
     inkscape:window-maximized="1"
     inkscape:current-layer="svg4"
     showguides="false" />
  <path
     d="M 2,32 C 2,10.4 10.4,2 32,2 53.6,2 62,10.4 62,32 62,53.6 53.6,62 32,62 10.4,62 2,53.6 2,32"
     id="path2"
     style="stroke-width:0.3;fill:#6190fa;fill-opacity:1" />
  <path
     id="rect924"
     style="fill:#ffffff;stroke-width:1.79505;stroke-linecap:round;stroke-linejoin:round"
     d="m 13,20 c -1.108,0 -2,0.892 -2,2 v 17 c 0,3.865993 3.134007,7 7,7 H 42 V 44 H 18 c -2.761424,0 -5,-2.238576 -5,-5 V 22 h 40 v -2 z m 38,5 v 11 h 2 V 25 Z m -11.816406,0.002 c -0.292297,-0.0067 -0.58642,0.0036 -0.88086,0.0293 -1.873417,0.164012 -3.629173,0.982765 -4.958984,2.3125 -3.123389,3.124056 -3.123389,8.188444 0,11.3125 1.505781,1.487481 3.539674,2.317612 5.65625,2.308594 V 39 c -1.591207,-2.4e-4 -3.117155,-0.632539 -4.242188,-1.757812 -2.342542,-2.343042 -2.342542,-6.141334 0,-8.484376 2.343042,-2.342542 6.141334,-2.342542 8.484376,0 2.342542,2.343042 2.342542,6.141334 0,8.484376 -0.222237,0.213323 -0.460571,0.409215 -0.712891,0.585937 l 1.369141,1.484375 9.24414,9.244141 1.414063,-1.414063 -9.244141,-9.24414 c 2.469311,-3.181824 2.188186,-7.703253 -0.65625,-10.554688 -1.463023,-1.462902 -3.426579,-2.294885 -5.472656,-2.341797 z"
     sodipodi:nodetypes="ssssccsscccscccccscccccscccccccccss" />
</svg>
