<?xml version="1.0" encoding="UTF-8" standalone="no"?>
<svg
   viewbox="0 0 200 200"
   version="1.1"
   id="svg4"
   sodipodi:docname="system-search.svg"
   width="64"
   height="64"
   inkscape:version="1.1.1 (3bf5ae0d25, 2021-09-20, custom)"
   xmlns:inkscape="http://www.inkscape.org/namespaces/inkscape"
   xmlns:sodipodi="http://sodipodi.sourceforge.net/DTD/sodipodi-0.dtd"
   xmlns="http://www.w3.org/2000/svg"
   xmlns:svg="http://www.w3.org/2000/svg">
  <defs
     id="defs8" />
  <sodipodi:namedview
     id="namedview6"
     pagecolor="#ffffff"
     bordercolor="#666666"
     borderopacity="1.0"
     inkscape:pageshadow="2"
     inkscape:pageopacity="0.0"
     inkscape:pagecheckerboard="0"
     showgrid="false"
     inkscape:zoom="11.313709"
     inkscape:cx="23.599689"
     inkscape:cy="44.061591"
     inkscape:window-width="1920"
     inkscape:window-height="996"
     inkscape:window-x="0"
     inkscape:window-y="0"
     inkscape:window-maximized="1"
     inkscape:current-layer="svg4"
     showguides="false" />
  <path
     d="M 2,32 C 2,10.4 10.4,2 32,2 53.6,2 62,10.4 62,32 62,53.6 53.6,62 32,62 10.4,62 2,53.6 2,32"
     id="path2"
     style="stroke-width:0.3;fill:#6190fa;fill-opacity:1" />
  <path
     id="rect924"
     style="fill:#ffffff;stroke-width:1.79505;stroke-linecap:round;stroke-linejoin:round"
     d="M 13 20 C 11.892 20 11 20.892 11 22 L 11 37 A 5 5 0 0 0 16 42 L 26 42 L 26 40 L 16 40 A 3 3 0 0 1 13 37 L 13 22 L 53 22 L 53 20 L 13 20 z M 51 25 L 51 40 L 47 40 L 47 42 L 51 42 C 52.108 42 53 41.108 53 40 L 53 25 L 51 25 z M 35.181641 26.001953 C 34.889344 25.995253 34.595221 26.00555 34.300781 26.03125 C 32.427364 26.195262 30.671608 27.014015 29.341797 28.34375 C 26.218408 31.467806 26.218408 36.532194 29.341797 39.65625 C 30.847578 41.143731 32.881471 41.973862 34.998047 41.964844 L 34.998047 41.966797 A 0.9829995 0.9829995 0 0 0 35 41.966797 A 0.9829995 0.9829995 0 0 0 35.984375 40.982422 A 0.9829995 0.9829995 0 0 0 35 40 A 0.9829995 0.9829995 0 0 0 34.998047 40 C 33.40684 39.99976 31.880892 39.36746 30.755859 38.242188 C 28.413317 35.899146 28.413317 32.100854 30.755859 29.757812 C 33.098901 27.41527 36.897192 27.41527 39.240234 29.757812 C 41.582776 32.100854 41.582776 35.899146 39.240234 38.242188 C 39.017997 38.455511 38.779664 38.651403 38.527344 38.828125 L 39.896484 40.3125 L 47.140625 47.556641 L 48.554688 46.142578 L 41.310547 38.898438 C 43.779858 35.716614 43.498733 31.195185 40.654297 28.34375 C 39.191274 26.880848 37.227718 26.048865 35.181641 26.001953 z " />
</svg>
