<?xml version="1.0" encoding="UTF-8" standalone="no"?>
<svg
   viewbox="0 0 200 200"
   version="1.1"
   id="svg4"
   sodipodi:docname="timeshift.svg"
   width="64"
   height="64"
   inkscape:version="1.1.1 (3bf5ae0d25, 2021-09-20, custom)"
   xmlns:inkscape="http://www.inkscape.org/namespaces/inkscape"
   xmlns:sodipodi="http://sodipodi.sourceforge.net/DTD/sodipodi-0.dtd"
   xmlns="http://www.w3.org/2000/svg"
   xmlns:svg="http://www.w3.org/2000/svg">
  <defs
     id="defs8" />
  <sodipodi:namedview
     id="namedview6"
     pagecolor="#ffffff"
     bordercolor="#666666"
     borderopacity="1.0"
     inkscape:pageshadow="2"
     inkscape:pageopacity="0.0"
     inkscape:pagecheckerboard="0"
     showgrid="false"
     inkscape:zoom="7.7389379"
     inkscape:cx="27.39394"
     inkscape:cy="25.520298"
     inkscape:window-width="1920"
     inkscape:window-height="996"
     inkscape:window-x="0"
     inkscape:window-y="0"
     inkscape:window-maximized="1"
     inkscape:current-layer="svg4"
     showguides="false" />
  <path
     d="M 2,32 C 2,10.4 10.4,2 32,2 53.6,2 62,10.4 62,32 62,53.6 53.6,62 32,62 10.4,62 2,53.6 2,32"
     id="path2"
     style="stroke-width:0.3;fill:#4ac6c6;fill-opacity:1" />
  <path
     id="path951"
     style="fill:#ffffff;fill-opacity:1;stroke-width:4.44444;stroke-linecap:round;stroke-linejoin:round"
     d="M 32 12 A 20 20 0 0 0 18 17.826172 L 18 13 L 16 13 L 16 19 A 2 2 0 0 0 18 21 L 24 21 L 24 19 L 19.666016 19 A 18 18 0 0 1 32 14 A 18 18 0 0 1 50 32 A 18 18 0 0 1 32 50 L 32 52 A 20 20 0 0 0 52 32 A 20 20 0 0 0 32 12 z M 31 20 L 31 32 L 37.484375 38.484375 L 38.900391 37.070312 L 33 31.171875 L 33 20 L 31 20 z " />
</svg>
