<?xml version="1.0" encoding="UTF-8" standalone="no"?>
<svg
   viewbox="0 0 200 200"
   version="1.1"
   id="svg4"
   sodipodi:docname="totem.svg"
   width="64"
   height="64"
   inkscape:version="1.1.1 (3bf5ae0d25, 2021-09-20, custom)"
   xmlns:inkscape="http://www.inkscape.org/namespaces/inkscape"
   xmlns:sodipodi="http://sodipodi.sourceforge.net/DTD/sodipodi-0.dtd"
   xmlns="http://www.w3.org/2000/svg"
   xmlns:svg="http://www.w3.org/2000/svg">
  <defs
     id="defs8" />
  <sodipodi:namedview
     id="namedview6"
     pagecolor="#ffffff"
     bordercolor="#666666"
     borderopacity="1.0"
     inkscape:pageshadow="2"
     inkscape:pageopacity="0.0"
     inkscape:pagecheckerboard="0"
     showgrid="false"
     inkscape:zoom="12.883333"
     inkscape:cx="31.979301"
     inkscape:cy="32.018111"
     inkscape:window-width="1920"
     inkscape:window-height="996"
     inkscape:window-x="0"
     inkscape:window-y="0"
     inkscape:window-maximized="1"
     inkscape:current-layer="svg4"
     showguides="false" />
  <path
     d="M 2,32 C 2,10.4 10.4,2 32,2 53.6,2 62,10.4 62,32 62,53.6 53.6,62 32,62 10.4,62 2,53.6 2,32"
     id="path2"
     style="stroke-width:0.3;fill:#9a80ff;fill-opacity:1" />
  <path
     id="rect844"
     style="fill:#ffffff;stroke-width:4;stroke-linecap:round;stroke-linejoin:round"
     d="M 14 15 C 12.895431 15 12 15.895431 12 17 L 12 49 L 14 49 L 14 17 L 27 17 L 30 20 C 31.116052 21.116052 33 21 33 21 L 52 21 L 52 19 L 32 19 L 29 16 C 28.169892 15.099764 27.429941 15 26 15 L 14 15 z M 50 24 L 50 41 C 50 44.324 47.321344 47.132854 44 47 L 17 47 L 17 49 L 44 49 C 48.432 49 52 45.432 52 41 L 52 24 L 50 24 z M 25.941406 24.251953 L 25.001953 26.023438 L 36.248047 32.935547 C 36.582638 33.125325 36.582638 33.601239 36.248047 33.791016 L 27.75 39.714844 C 27.416901 39.902675 27.000481 39.665844 27 39.287109 L 27 29.480469 L 25 29.480469 L 25 40.273438 C 24.999498 41.797666 26.674195 42.748308 28.007812 41.980469 L 38.005859 35.068359 C 39.330718 34.306695 39.330718 32.417914 38.005859 31.65625 L 25.941406 24.251953 z " />
</svg>
