<?xml version="1.0" encoding="UTF-8" standalone="no"?>
<svg
   viewbox="0 0 200 200"
   version="1.1"
   id="svg4"
   sodipodi:docname="transmission.svg"
   width="64"
   height="64"
   inkscape:version="1.1.1 (3bf5ae0d25, 2021-09-20, custom)"
   xmlns:inkscape="http://www.inkscape.org/namespaces/inkscape"
   xmlns:sodipodi="http://sodipodi.sourceforge.net/DTD/sodipodi-0.dtd"
   xmlns="http://www.w3.org/2000/svg"
   xmlns:svg="http://www.w3.org/2000/svg">
  <defs
     id="defs8" />
  <sodipodi:namedview
     id="namedview6"
     pagecolor="#ffffff"
     bordercolor="#666666"
     borderopacity="1.0"
     inkscape:pageshadow="2"
     inkscape:pageopacity="0.0"
     inkscape:pagecheckerboard="0"
     showgrid="false"
     inkscape:zoom="12.95"
     inkscape:cx="31.969112"
     inkscape:cy="32.007722"
     inkscape:window-width="1920"
     inkscape:window-height="1000"
     inkscape:window-x="0"
     inkscape:window-y="0"
     inkscape:window-maximized="1"
     inkscape:current-layer="svg4"
     showguides="false" />
  <path
     d="M 2,32 C 2,10.4 10.4,2 32,2 53.6,2 62,10.4 62,32 62,53.6 53.6,62 32,62 10.4,62 2,53.6 2,32"
     id="path2"
     style="stroke-width:0.3;fill:#999999;fill-opacity:1" />
  <path
     id="path3817"
     style="color:#000000;fill:#ffffff;stroke:none;stroke-width:0.99356;stroke-linecap:round;stroke-linejoin:round;-inkscape-stroke:none"
     d="m 20,13 c -2.216001,0 -4,1.808405 -4,4 v 34 h 2 V 17 c 0,-1.108 0.893912,-2.065064 2,-2 h 28 v -2 z m 26,6 v 26 c 0,2.216 -1.784,4 -4,4 H 22 v 2 h 20 c 3.324,0 6,-2.771442 6,-6 V 19 Z"
     sodipodi:nodetypes="ssccscccscssccsscc" />
  <path
     style="color:#000000;fill:#ffffff;stroke:none;stroke-linejoin:round;-inkscape-stroke:none;fill-opacity:1"
     d="m 31.292969,18.292969 -7,7 C 23.663413,25.922964 24.109363,26.99965 25,27 h 3 v 10 h -3 c -0.890637,3.5e-4 -1.336587,1.077036 -0.707031,1.707031 l 7,7 c 0.39053,0.390368 1.023532,0.390368 1.414062,0 l 7,-7 C 40.336587,38.077036 39.890637,37.00035 39,37 H 36 V 27 h 3 c 0.890637,-3.5e-4 1.336587,-1.077036 0.707031,-1.707031 l -7,-7 c -0.39053,-0.390368 -1.023532,-0.390368 -1.414062,0 z M 32,20.414062 36.585937,25 H 34 v 14 h 2.585937 L 32,43.585937 27.414062,39 H 30 V 25 h -2.585938 z"
     id="path1597"
     sodipodi:nodetypes="cccccccccccccccccccccccccccc" />
</svg>
