<?xml version="1.0" encoding="UTF-8" standalone="no"?>
<svg
   viewbox="0 0 200 200"
   version="1.1"
   id="svg4"
   sodipodi:docname="ubiquity.svg"
   width="64"
   height="64"
   inkscape:version="1.1.1 (3bf5ae0d25, 2021-09-20, custom)"
   xmlns:inkscape="http://www.inkscape.org/namespaces/inkscape"
   xmlns:sodipodi="http://sodipodi.sourceforge.net/DTD/sodipodi-0.dtd"
   xmlns:xlink="http://www.w3.org/1999/xlink"
   xmlns="http://www.w3.org/2000/svg"
   xmlns:svg="http://www.w3.org/2000/svg">
  <defs
     id="defs8">
    <linearGradient
       inkscape:collect="always"
       id="linearGradient1463">
      <stop
         style="stop-color:#e95420;stop-opacity:1;"
         offset="0"
         id="stop1459" />
      <stop
         style="stop-color:#77216f;stop-opacity:1"
         offset="1"
         id="stop1461" />
    </linearGradient>
    <linearGradient
       inkscape:collect="always"
       xlink:href="#linearGradient1463"
       id="linearGradient1465"
       x1="4"
       y1="9"
       x2="54"
       y2="51"
       gradientUnits="userSpaceOnUse" />
  </defs>
  <sodipodi:namedview
     id="namedview6"
     pagecolor="#ffffff"
     bordercolor="#666666"
     borderopacity="1.0"
     inkscape:pageshadow="2"
     inkscape:pageopacity="0.0"
     inkscape:pagecheckerboard="0"
     showgrid="false"
     inkscape:zoom="9.1098921"
     inkscape:cx="18.331721"
     inkscape:cy="44.621824"
     inkscape:window-width="1920"
     inkscape:window-height="1000"
     inkscape:window-x="0"
     inkscape:window-y="0"
     inkscape:window-maximized="1"
     inkscape:current-layer="svg4"
     showguides="true" />
  <path
     d="M 2,32 C 2,10.4 10.4,2 32,2 53.6,2 62,10.4 62,32 62,53.6 53.6,62 32,62 10.4,62 2,53.6 2,32"
     id="path2"
     style="stroke-width:0.3;fill:#ccc7c2;fill-opacity:1;stroke:none" />
  <path
     id="rect933"
     style="fill:url(#linearGradient1465);fill-opacity:1;stroke-width:4;stroke-linecap:round;stroke-linejoin:round"
     d="M 17 14 C 14.784 14 13 15.784 13 18 L 13 38 C 13 40.216 14.784 42 17 42 L 47 42 C 49.216 42 51 40.216 51 38 L 51 18 C 51 15.784 49.216 14 47 14 L 17 14 z M 17 16 L 47 16 C 48.108 16 49 16.892 49 18 L 49 38 C 49 39.108 48.108 40 47 40 L 17 40 C 15.892 40 15 39.108 15 38 L 15 18 C 15 16.892 15.892 16 17 16 z M 31.089844 20 L 31.089844 33 L 25.847656 27.757812 L 24.433594 29.171875 L 30.675781 35.414062 C 31.33121 36.069494 32.324559 36.167256 33.089844 35.722656 L 33.089844 33 L 33.089844 20 L 31.089844 20 z M 38.332031 27.757812 L 35.089844 31 L 35.089844 33.828125 L 39.746094 29.171875 L 38.332031 27.757812 z M 10 46 L 10 48 L 54 48 L 54 46 L 10 46 z " />
</svg>
