<?xml version="1.0" encoding="UTF-8" standalone="no"?>
<svg
   viewbox="0 0 200 200"
   version="1.1"
   id="svg4"
   sodipodi:docname="unity-tweak-tool.svg"
   width="64"
   height="64"
   inkscape:version="1.1.1 (3bf5ae0d25, 2021-09-20, custom)"
   xmlns:inkscape="http://www.inkscape.org/namespaces/inkscape"
   xmlns:sodipodi="http://sodipodi.sourceforge.net/DTD/sodipodi-0.dtd"
   xmlns="http://www.w3.org/2000/svg"
   xmlns:svg="http://www.w3.org/2000/svg">
  <defs
     id="defs8" />
  <sodipodi:namedview
     id="namedview6"
     pagecolor="#ffffff"
     bordercolor="#666666"
     borderopacity="1.0"
     inkscape:pageshadow="2"
     inkscape:pageopacity="0.0"
     inkscape:pagecheckerboard="0"
     showgrid="false"
     inkscape:zoom="4.5549461"
     inkscape:cx="35.565734"
     inkscape:cy="38.968628"
     inkscape:window-width="1920"
     inkscape:window-height="996"
     inkscape:window-x="0"
     inkscape:window-y="0"
     inkscape:window-maximized="1"
     inkscape:current-layer="svg4"
     showguides="false" />
  <path
     d="M 2,32 C 2,10.4 10.4,2 32,2 53.6,2 62,10.4 62,32 62,53.6 53.6,62 32,62 10.4,62 2,53.6 2,32"
     id="path2"
     style="stroke-width:0.3;fill:#aea79f;fill-opacity:1" />
  <path
     id="path7448"
     style="color:#000000;fill:#ffffff;stroke:none;stroke-linecap:round;stroke-linejoin:round;-inkscape-stroke:none"
     d="M 29 11 C 28.161998 10.999947 27.412802 11.52228 27.123047 12.308594 L 25.53125 16.628906 L 21.921875 18.712891 L 17.384766 17.931641 C 16.55886 17.789096 15.731665 18.176575 15.3125 18.902344 L 12.3125 24.097656 C 11.893826 24.823347 11.971781 25.733071 12.507812 26.376953 L 15.455078 29.916016 L 15.455078 34.083984 L 12.507812 37.623047 L 14.044922 38.902344 L 17.455078 34.806641 L 17.455078 29.193359 L 14.044922 25.097656 L 17.044922 19.902344 L 22.294922 20.806641 L 27.158203 18 L 29 13 L 35 13 L 36.841797 18 L 41.705078 20.806641 L 46.955078 19.902344 L 46.615234 17.931641 L 42.078125 18.712891 L 38.46875 16.628906 L 36.876953 12.308594 C 36.587198 11.52228 35.838002 10.999947 35 11 L 29 11 z M 26 25 L 26 33.34375 C 26 34.353273 26.10493 35.27714 26.314453 36.115234 C 26.523977 36.934281 26.86756 37.648289 27.34375 38.257812 C 27.81994 38.867336 28.447564 39.34269 29.228516 39.685547 C 30.009468 40.009356 30.972378 40.171875 32.115234 40.171875 C 33.429518 40.171875 34.58179 40.085491 35.572266 39.914062 C 36.581788 39.742634 37.390477 39.580115 38 39.427734 L 38 25 L 35.34375 25 L 35.34375 37.542969 C 35.248512 37.581065 35.085993 37.618157 34.857422 37.65625 C 34.647899 37.675303 34.409245 37.704094 34.142578 37.742188 C 33.875911 37.761234 33.589918 37.781735 33.285156 37.800781 C 32.980395 37.819828 32.686105 37.828125 32.400391 37.828125 C 31.048011 37.828125 30.0851 37.437202 29.513672 36.65625 C 28.942244 35.875299 28.65625 34.581006 28.65625 32.771484 L 28.65625 25 L 26 25 z M 49.955078 25.097656 L 46.544922 29.193359 L 46.544922 34.806641 L 49.955078 38.902344 L 46.955078 44.097656 L 41.705078 43.193359 L 36.841797 46 L 35 51 L 29 51 L 27.158203 46 L 22.294922 43.193359 L 17.044922 44.097656 L 17.384766 46.068359 L 21.921875 45.287109 L 25.53125 47.371094 L 27.123047 51.691406 C 27.412802 52.47772 28.161998 53.000053 29 53 L 35 53 C 35.838002 53.000053 36.587198 52.47772 36.876953 51.691406 L 38.46875 47.371094 L 42.078125 45.287109 L 46.615234 46.068359 C 47.44114 46.210904 48.268335 45.823425 48.6875 45.097656 L 51.6875 39.902344 C 52.106174 39.176653 52.028217 38.266929 51.492188 37.623047 L 48.544922 34.083984 L 48.544922 29.916016 L 51.492188 26.376953 L 49.955078 25.097656 z " />
</svg>
