<?xml version="1.0" encoding="UTF-8" standalone="no"?>
<svg
   viewbox="0 0 200 200"
   version="1.1"
   id="svg4"
   sodipodi:docname="org.gnome.Logs.svg"
   width="64"
   height="64"
   inkscape:version="1.1.1 (3bf5ae0d25, 2021-09-20, custom)"
   xmlns:inkscape="http://www.inkscape.org/namespaces/inkscape"
   xmlns:sodipodi="http://sodipodi.sourceforge.net/DTD/sodipodi-0.dtd"
   xmlns="http://www.w3.org/2000/svg"
   xmlns:svg="http://www.w3.org/2000/svg">
  <defs
     id="defs8" />
  <sodipodi:namedview
     id="namedview6"
     pagecolor="#ffffff"
     bordercolor="#666666"
     borderopacity="1.0"
     inkscape:pageshadow="2"
     inkscape:pageopacity="0.0"
     inkscape:pagecheckerboard="0"
     showgrid="false"
     inkscape:zoom="6.475"
     inkscape:cx="25.019305"
     inkscape:cy="17.683398"
     inkscape:window-width="1920"
     inkscape:window-height="1000"
     inkscape:window-x="0"
     inkscape:window-y="0"
     inkscape:window-maximized="1"
     inkscape:current-layer="svg4"
     showguides="false" />
  <path
     d="M 2,32 C 2,10.4 10.4,2 32,2 53.6,2 62,10.4 62,32 62,53.6 53.6,62 32,62 10.4,62 2,53.6 2,32"
     id="path2"
     style="stroke-width:0.3;fill:#6190fa;fill-opacity:1" />
  <path
     id="rect924"
     style="fill:#ffffff;stroke-width:1.79505;stroke-linecap:round;stroke-linejoin:round"
     d="M 19 13 C 17.892 13 17 13.892 17 15 L 17 44 A 7 7 0 0 0 24 51 L 37 51 L 37 49 L 24 49 A 5 5 0 0 1 19 44 L 19 15 L 47 15 L 47 13 L 19 13 z M 45 18 L 45 41 L 47 41 L 47 18 L 45 18 z M 34.183594 30.001953 C 33.891297 29.995251 33.597174 30.005503 33.302734 30.03125 C 31.429317 30.195262 29.673561 31.014015 28.34375 32.34375 C 25.220361 35.467806 25.220361 40.532194 28.34375 43.65625 C 29.849531 45.143731 31.883424 45.973862 34 45.964844 L 34 44 C 32.408793 43.99976 30.882845 43.367461 29.757812 42.242188 C 27.41527 39.899146 27.41527 36.100854 29.757812 33.757812 C 32.100854 31.41527 35.899146 31.41527 38.242188 33.757812 C 40.58473 36.100854 40.58473 39.899146 38.242188 42.242188 C 38.019951 42.455511 37.781617 42.651403 37.529297 42.828125 L 38.898438 44.3125 L 48.142578 53.556641 L 49.556641 52.142578 L 40.3125 42.898438 C 42.781811 39.716614 42.500686 35.195185 39.65625 32.34375 C 38.193227 30.880848 36.229671 30.048865 34.183594 30.001953 z " />
</svg>
