<?xml version="1.0" encoding="UTF-8" standalone="no"?>
<svg
   viewbox="0 0 200 200"
   version="1.1"
   id="svg4"
   sodipodi:docname="utilities-task-manager.svg"
   width="64"
   height="64"
   inkscape:version="1.1.1 (3bf5ae0d25, 2021-09-20, custom)"
   xmlns:inkscape="http://www.inkscape.org/namespaces/inkscape"
   xmlns:sodipodi="http://sodipodi.sourceforge.net/DTD/sodipodi-0.dtd"
   xmlns="http://www.w3.org/2000/svg"
   xmlns:svg="http://www.w3.org/2000/svg">
  <defs
     id="defs8" />
  <sodipodi:namedview
     id="namedview6"
     pagecolor="#ffffff"
     bordercolor="#666666"
     borderopacity="1.0"
     inkscape:pageshadow="2"
     inkscape:pageopacity="0.0"
     inkscape:pagecheckerboard="0"
     showgrid="false"
     inkscape:zoom="6.475"
     inkscape:cx="33.204633"
     inkscape:cy="23.397683"
     inkscape:window-width="1920"
     inkscape:window-height="1000"
     inkscape:window-x="0"
     inkscape:window-y="0"
     inkscape:window-maximized="1"
     inkscape:current-layer="svg4"
     showguides="false" />
  <path
     d="M 2,32 C 2,10.4 10.4,2 32,2 53.6,2 62,10.4 62,32 62,53.6 53.6,62 32,62 10.4,62 2,53.6 2,32"
     id="path2"
     style="stroke-width:0.3;fill:#28c7da;fill-opacity:1" />
  <path
     style="color:#000000;fill:#ffffff;stroke-linejoin:round;-inkscape-stroke:none;stroke:none"
     d="m 27.027344,15 a 1.0001,1.0001 0 0 0 -0.962891,0.648438 L 20.306641,31 H 11 v 2 h 10 a 1.0001,1.0001 0 0 0 0.935547,-0.648438 l 4.978515,-13.273437 9.13086,29.220703 a 1.0001,1.0001 0 0 0 1.910156,0 L 42.734375,33 H 53 V 31 H 42 a 1.0001,1.0001 0 0 0 -0.955078,0.701172 L 37,44.644531 27.955078,15.701172 A 1.0001,1.0001 0 0 0 27.027344,15 Z"
     id="path959" />
</svg>
