<?xml version="1.0" encoding="UTF-8" standalone="no"?>
<svg
   viewbox="0 0 200 200"
   version="1.1"
   id="svg4"
   sodipodi:docname="virtualbox.svg"
   width="64"
   height="64"
   inkscape:version="1.1.1 (3bf5ae0d25, 2021-09-20, custom)"
   xmlns:inkscape="http://www.inkscape.org/namespaces/inkscape"
   xmlns:sodipodi="http://sodipodi.sourceforge.net/DTD/sodipodi-0.dtd"
   xmlns="http://www.w3.org/2000/svg"
   xmlns:svg="http://www.w3.org/2000/svg">
  <defs
     id="defs8" />
  <sodipodi:namedview
     id="namedview6"
     pagecolor="#ffffff"
     bordercolor="#666666"
     borderopacity="1.0"
     inkscape:pageshadow="2"
     inkscape:pageopacity="0.0"
     inkscape:pagecheckerboard="0"
     showgrid="false"
     inkscape:zoom="12.883333"
     inkscape:cx="31.979301"
     inkscape:cy="32.018111"
     inkscape:window-width="1920"
     inkscape:window-height="996"
     inkscape:window-x="0"
     inkscape:window-y="0"
     inkscape:window-maximized="1"
     inkscape:current-layer="svg4"
     showguides="false" />
  <path
     d="M 2,32 C 2,10.4 10.4,2 32,2 53.6,2 62,10.4 62,32 62,53.6 53.6,62 32,62 10.4,62 2,53.6 2,32"
     id="path2"
     style="stroke-width:0.3;fill:#38adf2;fill-opacity:1" />
  <path
     id="path3817"
     style="color:#000000;fill:#ffffff;stroke:none;stroke-width:0.99356;stroke-linecap:round;stroke-linejoin:round;-inkscape-stroke:none"
     d="M 16 14 C 13.783999 14 12 15.783999 12 18 L 12 50 L 14 50 L 14 33 L 20.726562 33 L 25.724609 43.716797 L 33.134766 27.824219 L 36.726562 35.525391 L 40.318359 27.824219 L 44 35.71875 L 50 35.71875 L 50 44 C 50 46.216 48.216 48 46 48 L 18 48 L 18 50 L 46 50 C 49.324 50 52 47.324 52 44 L 52 20 L 50 20 L 50 33.71875 L 45.273438 33.71875 L 40.318359 23.091797 L 36.726562 30.792969 L 33.134766 23.091797 L 25.724609 38.984375 L 22 31 L 14 31 L 14 18 C 14 16.892 14.892 16 16 16 L 52 16 L 52 14 L 16 14 z " />
</svg>
