<?xml version="1.0" encoding="UTF-8" standalone="no"?>
<svg
   viewbox="0 0 200 200"
   version="1.1"
   id="svg4"
   sodipodi:docname="weather.svg"
   width="64"
   height="64"
   inkscape:version="1.1.1 (3bf5ae0d25, 2021-09-20, custom)"
   xmlns:inkscape="http://www.inkscape.org/namespaces/inkscape"
   xmlns:sodipodi="http://sodipodi.sourceforge.net/DTD/sodipodi-0.dtd"
   xmlns="http://www.w3.org/2000/svg"
   xmlns:svg="http://www.w3.org/2000/svg">
  <defs
     id="defs8" />
  <sodipodi:namedview
     id="namedview6"
     pagecolor="#ffffff"
     bordercolor="#666666"
     borderopacity="1.0"
     inkscape:pageshadow="2"
     inkscape:pageopacity="0.0"
     inkscape:pagecheckerboard="0"
     showgrid="false"
     inkscape:zoom="12.883333"
     inkscape:cx="31.979302"
     inkscape:cy="32.018112"
     inkscape:window-width="1920"
     inkscape:window-height="1000"
     inkscape:window-x="0"
     inkscape:window-y="0"
     inkscape:window-maximized="1"
     inkscape:current-layer="svg4"
     showguides="false" />
  <path
     d="M 2,32 C 2,10.4 10.4,2 32,2 53.6,2 62,10.4 62,32 62,53.6 53.6,62 32,62 10.4,62 2,53.6 2,32"
     id="path2"
     style="stroke-width:0.3;fill:#60baff;fill-opacity:1" />
  <path
     id="rect858"
     style="fill:#ffffff;stroke-width:2;stroke-linecap:round;stroke-linejoin:round"
     d="m 26,17 v 5 h 2 v -5 z m 16.5,0 a 12.5,12.5 0 0 0 -9.382812,4.242188 l 1.392578,1.449218 A 10.5,10.5 0 0 1 42.5,19 10.5,10.5 0 0 1 53,29.5 10.5,10.5 0 0 1 42.5,40 H 27 a 5.9999999,5.9999999 0 0 1 -6,-6 5.9999999,5.9999999 0 0 1 6,-6 5.9999999,5.9999999 0 0 1 6,6 h 2 a 7.9999993,7.9999993 0 0 0 -8,-8 7.9999993,7.9999993 0 0 0 -8,8 7.9999993,7.9999993 0 0 0 8,8 H 42.5 A 12.5,12.5 0 0 0 55,29.5 12.5,12.5 0 0 0 42.5,17 Z M 15.414062,21 14,22.414062 l 3.535156,3.535157 1.414063,-1.414063 z M 10,33 v 2 h 5 V 33 Z M 17.535156,41.505859 14,45.041016 l 1.414062,1.414062 3.535157,-3.535156 z M 26,46 v 5 h 2 v -5 z" />
</svg>
