<?xml version="1.0" encoding="UTF-8" standalone="no"?>
<svg
   viewbox="0 0 200 200"
   version="1.1"
   id="svg4"
   sodipodi:docname="wine-winefile.svg"
   width="64"
   height="64"
   inkscape:version="1.1.1 (3bf5ae0d25, 2021-09-20, custom)"
   xmlns:inkscape="http://www.inkscape.org/namespaces/inkscape"
   xmlns:sodipodi="http://sodipodi.sourceforge.net/DTD/sodipodi-0.dtd"
   xmlns="http://www.w3.org/2000/svg"
   xmlns:svg="http://www.w3.org/2000/svg">
  <defs
     id="defs8" />
  <sodipodi:namedview
     id="namedview6"
     pagecolor="#ffffff"
     bordercolor="#666666"
     borderopacity="1.0"
     inkscape:pageshadow="2"
     inkscape:pageopacity="0.0"
     inkscape:pagecheckerboard="0"
     showgrid="false"
     inkscape:zoom="15.775486"
     inkscape:cx="33.723208"
     inkscape:cy="37.177935"
     inkscape:window-width="1920"
     inkscape:window-height="996"
     inkscape:window-x="0"
     inkscape:window-y="0"
     inkscape:window-maximized="1"
     inkscape:current-layer="svg4"
     showguides="false" />
  <path
     d="M 2,32 C 2,10.4 10.4,2 32,2 53.6,2 62,10.4 62,32 62,53.6 53.6,62 32,62 10.4,62 2,53.6 2,32"
     id="path2"
     style="stroke-width:0.3;fill:#f3a72d;fill-opacity:1" />
  <path
     id="rect844"
     style="fill:#ffffff;stroke-width:4;stroke-linecap:round;stroke-linejoin:round"
     d="M 14 15 C 12.895431 15 12 15.895431 12 17 L 12 49 L 14 49 L 14 17 L 31 17 L 31 18 C 31 19.104569 31.895431 20 33 20 L 52 20 L 52 18 L 33 18 L 33 17 C 33 15.895431 32.104569 15 31 15 L 14 15 z M 21 23 L 21 25 L 50 25 L 50 41 C 50 44.324 47.321344 47.132854 44 47 L 17 47 L 17 49 L 44 49 C 48.432 49 52 45.432 52 41 L 52 23 L 21 23 z M 24 28 L 24 35 L 31 35 L 31 28 L 24 28 z M 33 28 L 33 35 L 40 35 L 40 28 L 33 28 z M 26 30 L 29 30 L 29 33 L 26 33 L 26 30 z M 35 30 L 38 30 L 38 33 L 35 33 L 35 30 z M 24 37 L 24 44 L 31 44 L 31 37 L 24 37 z M 33 37 L 33 44 L 40 44 L 40 37 L 33 37 z M 26 39 L 29 39 L 29 42 L 26 42 L 26 39 z M 35 39 L 38 39 L 38 42 L 35 42 L 35 39 z " />
</svg>
