<?xml version="1.0" encoding="UTF-8" standalone="no"?>
<svg
   viewbox="0 0 200 200"
   version="1.1"
   id="svg4"
   sodipodi:docname="folder-videos.svg"
   width="16"
   height="16"
   inkscape:version="1.1.1 (3bf5ae0d25, 2021-09-20, custom)"
   xmlns:inkscape="http://www.inkscape.org/namespaces/inkscape"
   xmlns:sodipodi="http://sodipodi.sourceforge.net/DTD/sodipodi-0.dtd"
   xmlns="http://www.w3.org/2000/svg"
   xmlns:svg="http://www.w3.org/2000/svg">
  <defs
     id="defs8" />
  <sodipodi:namedview
     id="namedview6"
     pagecolor="#ffffff"
     bordercolor="#666666"
     borderopacity="1.0"
     inkscape:pageshadow="2"
     inkscape:pageopacity="0.0"
     inkscape:pagecheckerboard="0"
     showgrid="false"
     inkscape:zoom="32.375"
     inkscape:cx="11.984556"
     inkscape:cy="12"
     inkscape:window-width="1920"
     inkscape:window-height="1000"
     inkscape:window-x="0"
     inkscape:window-y="0"
     inkscape:window-maximized="1"
     inkscape:current-layer="svg4"
     showguides="false" />
  <path
     id="rect844"
     style="fill:#dedede;fill-opacity:1;stroke-width:2;stroke-linecap:round;stroke-linejoin:round"
     d="M 2,1 C 1.446,1 1,1.446 1,2 v 12 c 0,0.554 0.446,1 1,1 h 12 c 0.554,0 1,-0.446 1,-1 V 2 C 15,1.446 14.554,1 14,1 Z M 2,2 H 14 V 14 H 2 Z M 3.5,3 A 0.5,0.5 0 0 0 3,3.5 0.5,0.5 0 0 0 3.5,4 0.5,0.5 0 0 0 4,3.5 0.5,0.5 0 0 0 3.5,3 Z m 9,0 A 0.5,0.5 0 0 0 12,3.5 0.5,0.5 0 0 0 12.5,4 0.5,0.5 0 0 0 13,3.5 0.5,0.5 0 0 0 12.5,3 Z M 6.013672,5 A 0.50005,0.50005 0 0 0 5.7578125,5.0625 0.50005,0.50005 0 0 0 5.5,5.5 v 5 a 0.50005,0.50005 0 0 0 0.765625,0.423828 l 4,-2.5 a 0.50005,0.50005 0 0 0 0,-0.847656 l -4,-2.5000001 A 0.50005,0.50005 0 0 0 6.013672,5 Z M 3.5,6 A 0.5,0.5 0 0 0 3,6.5 0.5,0.5 0 0 0 3.5,7 0.5,0.5 0 0 0 4,6.5 0.5,0.5 0 0 0 3.5,6 Z m 9,0 A 0.5,0.5 0 0 0 12,6.5 0.5,0.5 0 0 0 12.5,7 0.5,0.5 0 0 0 13,6.5 0.5,0.5 0 0 0 12.5,6 Z M 6.5,6.402344 9.056641,8 6.5,9.597656 Z M 3.5,9 A 0.5,0.5 0 0 0 3,9.5 0.5,0.5 0 0 0 3.5,10 0.5,0.5 0 0 0 4,9.5 0.5,0.5 0 0 0 3.5,9 Z m 9,0 A 0.5,0.5 0 0 0 12,9.5 0.5,0.5 0 0 0 12.5,10 0.5,0.5 0 0 0 13,9.5 0.5,0.5 0 0 0 12.5,9 Z m -9,3 A 0.5,0.5 0 0 0 3,12.5 0.5,0.5 0 0 0 3.5,13 0.5,0.5 0 0 0 4,12.5 0.5,0.5 0 0 0 3.5,12 Z m 9,0 A 0.5,0.5 0 0 0 12,12.5 0.5,0.5 0 0 0 12.5,13 0.5,0.5 0 0 0 13,12.5 0.5,0.5 0 0 0 12.5,12 Z" />
</svg>
