<?xml version="1.0" encoding="UTF-8" standalone="no"?>
<svg
   viewbox="0 0 200 200"
   version="1.1"
   id="svg4"
   sodipodi:docname="folder-images.svg"
   width="16"
   height="16"
   inkscape:version="1.1.1 (3bf5ae0d25, 2021-09-20, custom)"
   xmlns:inkscape="http://www.inkscape.org/namespaces/inkscape"
   xmlns:sodipodi="http://sodipodi.sourceforge.net/DTD/sodipodi-0.dtd"
   xmlns="http://www.w3.org/2000/svg"
   xmlns:svg="http://www.w3.org/2000/svg">
  <defs
     id="defs8" />
  <sodipodi:namedview
     id="namedview6"
     pagecolor="#ffffff"
     bordercolor="#666666"
     borderopacity="1.0"
     inkscape:pageshadow="2"
     inkscape:pageopacity="0.0"
     inkscape:pagecheckerboard="0"
     showgrid="false"
     inkscape:zoom="13.735549"
     inkscape:cx="-3.421778"
     inkscape:cy="9.9377171"
     inkscape:window-width="1920"
     inkscape:window-height="1000"
     inkscape:window-x="0"
     inkscape:window-y="0"
     inkscape:window-maximized="1"
     inkscape:current-layer="svg4"
     showguides="false" />
  <path
     id="rect1094"
     style="fill:#dedede;fill-opacity:1;stroke-width:1;stroke-linecap:round;stroke-linejoin:round"
     d="M 2,1 C 1.446,1 1,1.446 1,2 v 12 c 0,0.554 0.446,1 1,1 h 12 c 0.554,0 1,-0.446 1,-1 V 2 C 15,1.446 14.554,1 14,1 Z m 0,1 h 12 v 9.089844 L 12.203125,9.292969 C 12.007255,9.097099 11.75171,9 11.496094,9 11.240475,9 10.984933,9.0971 10.789062,9.292969 L 8.498047,11.582031 5.7109375,8.292969 C 5.5150675,8.097098 5.2595253,8 5.0039062,8 4.7482893,8 4.492744,8.097103 4.296875,8.292969 L 2,10.589844 Z M 5,3 C 3.8954298,3 3,3.8954298 3,5 3,6.1045688 3.8954298,7 5,7 6.1045692,7 7,6.1045688 7,5 7,3.8954298 6.1045692,3 5,3 Z M 5,4 C 5.5522846,4 6,4.4477146 6,5 6,5.5522846 5.5522846,6 5,6 4.447715,6 4,5.5522846 4,5 4,4.4477146 4.447715,4 5,4 Z m 0.00391,5 2.7871098,3.289062 c 0.19587,0.19587 0.451412,0.292969 0.707031,0.292969 0.255617,0 0.511161,-0.0971 0.707031,-0.292969 L 11.496094,10 14,12.503906 V 14 H 2 v -1.996094 z" />
</svg>
